Music_Adventure:
	channel_count 4
	channel 1, Music_Adventure_Ch1
	channel 2, Music_Adventure_Ch2
	channel 3, Music_Adventure_Ch3
	channel 4, Music_Adventure_Ch4

Music_Adventure_Ch1:
	volume 7, 7
	duty_cycle 2
	note_type 12, 10, 7
	tempo 158
	rest 16
	rest 16
	rest 16
	rest 14
	volume_envelope 15, 7
	octave 4
	note F_, 1
	note D#, 1
	note F_, 2
	rest 16
	rest 16
	rest 16
	rest 10
	note C_, 1
	note D#, 1
	note F_, 1
	note D#, 1
	note F_, 2
	rest 16
	rest 16
	rest 16
	rest 10
	note C_, 1
	note D#, 1
	note F_, 1
	note D#, 1
	note F_, 2
	rest 16
	rest 16
	rest 16
	rest 10
	note C_, 1
	note D#, 1
	note F_, 1
	note D#, 1
	volume_envelope 8, 7
	note F_, 6
	rest 8
	volume_envelope 12, 7
	note F_, 1
	note F_, 1
	note G_, 1
	note G#, 4
	note G_, 4
	note F_, 4
	note D#, 3
	note F_, 14
	note F_, 1
	note F_, 1
	note G_, 1
	note G#, 4
	note G_, 4
	note G#, 4
	note A#, 3
	note F_, 14
	note F_, 1
	note F_, 1
	note G_, 1
	note G#, 4
	note G_, 4
	note F_, 4
	note D#, 3
	note F_, 14
	note F_, 1
	note F_, 1
	note G_, 1
	note G#, 4
	note G_, 4
	note G#, 4
	note A#, 3
	note F_, 16
	note F_, 1
	note G#, 4
	note G_, 4
	note F_, 4
	note D#, 3
	note F_, 14
	note F_, 1
	note F_, 1
	note G_, 1
	note G#, 4
	note G_, 4
	note G#, 4
	note A#, 3
	note F_, 14
.mainloop:
	volume_envelope 12, 7
	note F_, 1
	note F_, 1
	note G_, 1
	note G#, 4
	note G_, 4
	note F_, 4
	note D#, 3
	note F_, 14
	note F_, 1
	note F_, 1
	note G_, 1
	note G#, 4
	note G_, 4
	note G#, 4
	note A#, 3
	note F_, 16
	note F_, 1
	note G#, 4
	note G_, 4
	note F_, 4
	note D#, 3
	note F_, 14
	note F_, 1
	note F_, 1
	note G_, 1
	note G#, 4
	note G_, 4
	note G#, 4
	note A#, 3
	note F_, 14
	note F_, 1
	note F_, 1
	note G_, 1
	note G#, 4
	note G_, 4
	note F_, 4
	note D#, 3
	note F_, 14
	note F_, 1
	note F_, 1
	note G_, 1
	note G#, 4
	note G_, 4
	note G#, 4
	note A#, 3
	note F_, 16
	note F_, 1
	note G#, 4
	note G_, 4
	note F_, 4
	note D#, 3
	note F_, 14
	note F_, 1
	note F_, 1
	note G_, 1
	note G#, 4
	note G_, 4
	note G#, 4
	note A#, 3
	note F_, 14
	sound_loop 0, .mainloop

Music_Adventure_Ch2:
	note_type 12, 10, 5
	rest 16
	rest 16
	rest 16
	rest 16
	rest 16
	rest 16
	rest 16
	rest 16
	octave 2
	duty_cycle 0
	volume_envelope 12, 4
	note F_, 2
	note F_, 2
	note C_, 3
	note D#, 3
	note C_, 2
	note D#, 2
	note F_, 2
	note F_, 4
	note C_, 3
	note D#, 3
	note C_, 2
	note D#, 2
	note F_, 2
	note F_, 4
	note C_, 3
	note D#, 3
	note C_, 2
	note D#, 2
	note F_, 2
	note F_, 4
	note C_, 3
	note D#, 3
	note C_, 2
	note D#, 2
	note F_, 2
	note F_, 4
	note C_, 3
	note D#, 3
	note C_, 2
	note D#, 2
	note F_, 2
	note F_, 4
	note C_, 3
	note D#, 3
	note C_, 2
	note D#, 2
	note F_, 2
	note F_, 4
	note C_, 3
	note D#, 3
	note C_, 2
	note D#, 2
	note F_, 2
	note F_, 4
	note C_, 3
	note D#, 3
	note C_, 2
	note D#, 2
	note F_, 1
	note F_, 1
	note F_, 6
	rest 11
	duty_cycle 1
	volume_envelope 10, 4
	note F_, 1
	note F_, 1
	octave 3
	note C_, 1
	octave 2
	note F_, 1
	note F_, 1
	note A#, 1
	note F_, 1
	note F_, 1
	octave 3
	note C_, 1
	octave 2
	note F_, 1
	note F_, 1
	note A#, 1
	note F_, 1
	note F_, 1
	octave 3
	note C_, 1
	note D#, 1
	octave 2
	note F_, 1
	note F_, 1
	octave 3
	note C_, 1
	octave 2
	note F_, 1
	note F_, 1
	note A#, 1
	note F_, 1
	note F_, 1
	octave 3
	note C_, 1
	octave 2
	note F_, 1
	note F_, 1
	note A#, 1
	note F_, 1
	note F_, 1
	octave 3
	note C_, 1
	note D#, 1
	octave 2
	note F_, 1
	note F_, 1
	octave 3
	note C_, 1
	octave 2
	note F_, 1
	note F_, 1
	note A#, 1
	note F_, 1
	note F_, 1
	octave 3
	note C_, 1
	octave 2
	note F_, 1
	note F_, 1
	note A#, 1
	note F_, 1
	note F_, 1
	octave 3
	note C_, 1
	note D#, 1
	octave 2
	note F_, 1
	note F_, 1
	octave 3
	note C_, 1
	octave 2
	note F_, 1
	note F_, 1
	note A#, 1
	note F_, 1
	note F_, 1
	octave 3
	note C_, 1
	octave 2
	note F_, 1
	note F_, 1
	note A#, 1
	note F_, 1
	note F_, 1
	octave 3
	note C_, 1
	note D#, 1
	octave 2
	note F_, 1
	note F_, 1
	octave 3
	note C_, 1
	octave 2
	note F_, 1
	note F_, 1
	note A#, 1
	note F_, 1
	note F_, 1
	octave 3
	note C_, 1
	octave 2
	note F_, 1
	note F_, 1
	note A#, 1
	note F_, 1
	note F_, 1
	octave 3
	note C_, 1
	note D#, 1
	octave 2
	note F_, 1
	note F_, 1
	octave 3
	note C_, 1
	octave 2
	note F_, 1
	note F_, 1
	note A#, 1
	note F_, 1
	note F_, 1
	octave 3
	note C_, 1
	octave 2
	note F_, 1
	note F_, 1
	note A#, 1
	note F_, 1
	note F_, 1
	octave 3
	note C_, 1
	note D#, 1
	octave 2
	note F_, 1
	note F_, 1
	octave 3
	note C_, 1
	octave 2
	note F_, 1
	note F_, 1
	note A#, 1
	note F_, 1
	note F_, 1
	octave 3
	note C_, 1
	octave 2
	note F_, 1
	note F_, 1
	note A#, 1
	note F_, 1
	note F_, 1
	octave 3
	note C_, 1
	note D#, 1
	octave 2
	note F_, 1
	note F_, 1
	octave 3
	note C_, 1
	octave 2
	note F_, 1
	note F_, 1
	note A#, 1
	note F_, 1
	note F_, 1
	octave 3
	note C_, 1
	octave 2
	note F_, 1
	note F_, 1
	note A#, 1
	note F_, 1
	note F_, 1
	octave 3
	note C_, 1
	note D#, 1
	octave 2
	note F_, 1
	note F_, 1
	octave 3
	note C_, 1
	octave 2
	note F_, 1
	note F_, 1
	note A#, 1
	note F_, 1
	note F_, 1
	octave 3
	note C_, 1
	octave 2
	note F_, 1
	note F_, 1
	note A#, 1
	note F_, 1
	note F_, 1
	octave 3
	note C_, 1
	note D#, 1
	octave 2
	note F_, 1
	note F_, 1
	octave 3
	note C_, 1
	octave 2
	note F_, 1
	note F_, 1
	note A#, 1
	note F_, 1
	note F_, 1
	octave 3
	note C_, 1
	octave 2
	note F_, 1
	note F_, 1
	note A#, 1
	note F_, 1
	note F_, 1
	octave 3
	note C_, 1
	note D#, 1
	octave 2
	note F_, 1
	note F_, 1
	octave 3
	note C_, 1
	octave 2
	note F_, 1
	note F_, 1
	note A#, 1
	note F_, 1
	note F_, 1
	octave 3
	note C_, 1
	octave 2
	note F_, 1
	note F_, 1
	note A#, 1
	note F_, 1
	note F_, 1
	octave 3
	note C_, 1
	note D#, 1
	octave 2
	note F_, 1
	note F_, 1
	octave 3
	note C_, 1
	octave 2
	note F_, 1
	note F_, 1
	note A#, 1
	note F_, 1
	note F_, 1
	octave 3
	note C_, 1
	octave 2
	note F_, 1
	note F_, 1
	note A#, 1
	note F_, 1
.mainloop:
	volume_envelope 10, 4
	note F_, 1
	octave 3
	note C_, 1
	note D#, 1
	octave 2
	note F_, 1
	note F_, 1
	octave 3
	note C_, 1
	octave 2
	note F_, 1
	note F_, 1
	note A#, 1
	note F_, 1
	note F_, 1
	octave 3
	note C_, 1
	octave 2
	note F_, 1
	note F_, 1
	note A#, 1
	note F_, 1
	note F_, 1
	octave 3
	note C_, 1
	note D#, 1
	octave 2
	note F_, 1
	note F_, 1
	octave 3
	note C_, 1
	octave 2
	note F_, 1
	note F_, 1
	note A#, 1
	note F_, 1
	note F_, 1
	octave 3
	note C_, 1
	octave 2
	note F_, 1
	note F_, 1
	note A#, 1
	note F_, 1
	note F_, 1
	octave 3
	note C_, 1
	note D#, 1
	octave 2
	note F_, 1
	note F_, 1
	octave 3
	note C_, 1
	octave 2
	note F_, 1
	note F_, 1
	note A#, 1
	note F_, 1
	note F_, 1
	octave 3
	note C_, 1
	octave 2
	note F_, 1
	note F_, 1
	note A#, 1
	note F_, 1
	note F_, 1
	octave 3
	note C_, 1
	note D#, 1
	octave 2
	note F_, 1
	note F_, 1
	octave 3
	note C_, 1
	octave 2
	note F_, 1
	note F_, 1
	note A#, 1
	note F_, 1
	note F_, 1
	octave 3
	note C_, 1
	octave 2
	note F_, 1
	note F_, 1
	note A#, 1
	note F_, 1
	note F_, 1
	octave 3
	note C_, 1
	note D#, 1
	octave 2
	note F_, 1
	note F_, 1
	octave 3
	note C_, 1
	octave 2
	note F_, 1
	note F_, 1
	note A#, 1
	note F_, 1
	note F_, 1
	octave 3
	note C_, 1
	octave 2
	note F_, 1
	note F_, 1
	note A#, 1
	note F_, 1
	note F_, 1
	octave 3
	note C_, 1
	note D#, 1
	octave 2
	note F_, 1
	note F_, 1
	octave 3
	note C_, 1
	octave 2
	note F_, 1
	note F_, 1
	note A#, 1
	note F_, 1
	note F_, 1
	octave 3
	note C_, 1
	octave 2
	note F_, 1
	note F_, 1
	note A#, 1
	note F_, 1
	note F_, 1
	octave 3
	note C_, 1
	note D#, 1
	octave 2
	note F_, 1
	note F_, 1
	octave 3
	note C_, 1
	octave 2
	note F_, 1
	note F_, 1
	note A#, 1
	note F_, 1
	note F_, 1
	octave 3
	note C_, 1
	octave 2
	note F_, 1
	note F_, 1
	note A#, 1
	note F_, 1
	note F_, 1
	octave 3
	note C_, 1
	note D#, 1
	octave 2
	note F_, 1
	note F_, 1
	octave 3
	note C_, 1
	octave 2
	note F_, 1
	note F_, 1
	note A#, 1
	note F_, 1
	note F_, 1
	octave 3
	note C_, 1
	octave 2
	note F_, 1
	note F_, 1
	note A#, 1
	note F_, 1
	note F_, 1
	octave 3
	note C_, 1
	note D#, 1
	octave 2
	note F_, 1
	note F_, 1
	octave 3
	note C_, 1
	octave 2
	note F_, 1
	note F_, 1
	note A#, 1
	note F_, 1
	note F_, 1
	octave 3
	note C_, 1
	octave 2
	note F_, 1
	note F_, 1
	note A#, 1
	note F_, 1
	note F_, 1
	octave 3
	note C_, 1
	note D#, 1
	octave 2
	note F_, 1
	note F_, 1
	octave 3
	note C_, 1
	octave 2
	note F_, 1
	note F_, 1
	note A#, 1
	note F_, 1
	note F_, 1
	octave 3
	note C_, 1
	octave 2
	note F_, 1
	note F_, 1
	note A#, 1
	note F_, 1
	note F_, 1
	octave 3
	note C_, 1
	note D#, 1
	octave 2
	note F_, 1
	note F_, 1
	octave 3
	note C_, 1
	octave 2
	note F_, 1
	note F_, 1
	note A#, 1
	note F_, 1
	note F_, 1
	octave 3
	note C_, 1
	octave 2
	note F_, 1
	note F_, 1
	note A#, 1
	note F_, 1
	note F_, 1
	octave 3
	note C_, 1
	note D#, 1
	octave 2
	note F_, 1
	note F_, 1
	octave 3
	note C_, 1
	octave 2
	note F_, 1
	note F_, 1
	note A#, 1
	note F_, 1
	note F_, 1
	octave 3
	note C_, 1
	octave 2
	note F_, 1
	note F_, 1
	note A#, 1
	note F_, 1
	note F_, 1
	octave 3
	note C_, 1
	note D#, 1
	octave 2
	note F_, 1
	note F_, 1
	octave 3
	note C_, 1
	octave 2
	note F_, 1
	note F_, 1
	note A#, 1
	note F_, 1
	note F_, 1
	octave 3
	note C_, 1
	octave 2
	note F_, 1
	note F_, 1
	note A#, 1
	note F_, 1
	note F_, 1
	octave 3
	note C_, 1
	note D#, 1
	octave 2
	note F_, 1
	note F_, 1
	octave 3
	note C_, 1
	octave 2
	note F_, 1
	note F_, 1
	note A#, 1
	note F_, 1
	note F_, 1
	octave 3
	note C_, 1
	octave 2
	note F_, 1
	note F_, 1
	note A#, 1
	note F_, 1
	note F_, 1
	octave 3
	note C_, 1
	note D#, 1
	octave 2
	note F_, 1
	note F_, 1
	octave 3
	note C_, 1
	octave 2
	note F_, 1
	note F_, 1
	note A#, 1
	note F_, 1
	note F_, 1
	octave 3
	note C_, 1
	octave 2
	note F_, 1
	note F_, 1
	note A#, 1
	note F_, 1
	note F_, 1
	octave 3
	note C_, 1
	note D#, 1
	octave 2
	note F_, 1
	note F_, 1
	octave 3
	note C_, 1
	octave 2
	note F_, 1
	note F_, 1
	note A#, 1
	note F_, 1
	note F_, 1
	octave 3
	note C_, 1
	octave 2
	note F_, 1
	note F_, 1
	note A#, 1
	note F_, 1
	sound_loop 0, .mainloop

Music_Adventure_Ch3:
	note_type 12, 1, 0
	rest 16
	rest 16
	rest 16
	rest 16
	octave 2
	note F_, 4
	note C_, 3
	note D#, 3
	note C_, 2
	note D#, 2
	note F_, 2
	note F_, 4
	note C_, 3
	note D#, 3
	note C_, 2
	note D#, 2
	note F_, 2
	note F_, 4
	note C_, 3
	note D#, 3
	note C_, 2
	note D#, 2
	note F_, 2
	note F_, 4
	note C_, 3
	note D#, 3
	note C_, 2
	note D#, 2
	note F_, 2
	note F_, 4
	vibrato 0, 0, 0
	note C_, 3
	note D#, 3
	note C_, 2
	note D#, 2
	note F_, 2
	note F_, 4
	note C_, 3
	note D#, 3
	note C_, 2
	note D#, 2
	note F_, 2
	note F_, 4
	note C_, 3
	note D#, 3
	note C_, 2
	note D#, 2
	note F_, 2
	note F_, 4
	note C_, 3
	note D#, 3
	note C_, 2
	note D#, 2
	note F_, 2
	note F_, 4
	note C_, 3
	note D#, 3
	note C_, 2
	note D#, 2
	note F_, 2
	note F_, 4
	note C_, 3
	note D#, 3
	note C_, 2
	note D#, 2
	note F_, 2
	note F_, 4
	note C_, 3
	note D#, 3
	note C_, 2
	note D#, 2
	note F_, 2
	note F_, 4
	note C_, 3
	note D#, 3
	note C_, 2
	note D#, 2
	note F_, 2
	rest 14
	rest 3
	note F_, 4
	note C_, 3
	note D#, 3
	note C_, 2
	note D#, 2
	note F_, 2
	note F_, 4
	note C_, 3
	note D#, 3
	note C_, 2
	note D#, 2
	note F_, 2
	note F_, 4
	note C_, 3
	note D#, 3
	note C_, 2
	note D#, 2
	note F_, 2
	note F_, 4
	note C_, 3
	note D#, 3
	note C_, 2
	note D#, 2
	note F_, 2
	note F_, 4
	note C_, 3
	note D#, 3
	note C_, 2
	note D#, 2
	note F_, 2
	note F_, 4
	note C_, 3
	note D#, 3
	note C_, 2
	note D#, 2
	note F_, 2
	note F_, 4
	note C_, 3
	note D#, 3
	note C_, 2
	note D#, 2
	note F_, 2
	note F_, 4
	note C_, 3
	note D#, 3
	note C_, 2
	note D#, 2
	note F_, 2
	note F_, 4
	note C_, 3
	note D#, 3
	note C_, 2
	note D#, 2
	note F_, 2
	note F_, 4
	note C_, 3
	note D#, 3
	note C_, 2
	note D#, 2
	note F_, 2
	note F_, 4
	note C_, 3
	note D#, 3
	note C_, 2
	note D#, 2
	note F_, 2
	note F_, 4
	note C_, 3
	note D#, 3
	note C_, 2
	note D#, 1
.mainloop:
	note D#, 1
	note F_, 2
	note F_, 4
	note C_, 3
	note D#, 3
	note C_, 2
	note D#, 2
	note F_, 2
	note F_, 4
	note C_, 3
	note D#, 3
	note C_, 2
	note D#, 1
	note D#, 1
	note F_, 2
	note F_, 4
	note C_, 3
	note D#, 3
	note C_, 2
	note D#, 2
	note F_, 2
	note F_, 4
	note C_, 3
	note D#, 3
	note C_, 2
	note D#, 2
	note F_, 2
	note F_, 4
	note C_, 3
	note D#, 3
	note C_, 2
	note D#, 2
	note F_, 2
	note F_, 4
	note C_, 3
	note D#, 3
	note C_, 2
	note D#, 2
	note F_, 2
	note F_, 4
	note C_, 3
	note D#, 3
	note C_, 2
	note D#, 2
	note F_, 2
	note F_, 4
	note C_, 3
	note D#, 3
	note C_, 2
	note D#, 2
	note F_, 2
	note F_, 4
	note C_, 3
	note D#, 3
	note C_, 2
	note D#, 2
	note F_, 2
	note F_, 4
	note C_, 3
	note D#, 3
	note C_, 2
	note D#, 2
	note F_, 2
	note F_, 4
	note C_, 3
	note D#, 3
	note C_, 2
	note D#, 2
	note F_, 2
	note F_, 4
	note C_, 3
	note D#, 3
	note C_, 2
	note D#, 2
	note F_, 2
	note F_, 4
	note C_, 3
	note D#, 3
	note C_, 2
	note D#, 2
	note F_, 2
	note F_, 4
	note C_, 3
	note D#, 3
	note C_, 2
	note D#, 2
	note F_, 2
	note F_, 4
	note C_, 3
	note D#, 3
	note C_, 2
	note D#, 2
	note F_, 2
	note F_, 4
	note C_, 3
	note D#, 3
	note C_, 2
	note D#, 1
	sound_loop 0, .mainloop

Music_Adventure_Ch4:
	toggle_noise 1
	drum_speed 12
	toggle_noise
	toggle_noise 6
	drum_note 12, 4
	drum_note 12, 4
	drum_note 12, 4
	drum_note 12, 4
	drum_note 12, 4
	drum_note 12, 4
	drum_note 12, 4
	drum_note 12, 4
	drum_note 12, 4
	drum_note 12, 4
	drum_note 12, 4
	drum_note 12, 4
	drum_note 12, 4
	drum_note 12, 4
	drum_note 12, 4
	drum_note 12, 4
	drum_note 12, 4
	drum_note 12, 4
	drum_note 12, 4
	drum_note 12, 4
	drum_note 12, 4
	drum_note 12, 4
	drum_note 12, 4
	drum_note 12, 4
	drum_note 12, 4
	drum_note 12, 4
	drum_note 12, 4
	drum_note 12, 4
	drum_note 12, 4
	drum_note 12, 4
	drum_note 12, 4
	drum_note 12, 4
	drum_note 12, 4
	drum_note 12, 4
	drum_note 12, 4
	drum_note 12, 4
	drum_note 12, 4
	drum_note 12, 4
	drum_note 12, 4
	drum_note 12, 4
	drum_note 12, 4
	drum_note 12, 4
	drum_note 12, 4
	drum_note 12, 4
	drum_note 12, 4
	drum_note 12, 4
	drum_note 12, 4
	drum_note 12, 4
	drum_note 12, 4
	drum_note 12, 4
	drum_note 12, 4
	drum_note 12, 4
	drum_note 12, 4
	drum_note 12, 4
	drum_note 12, 4
	drum_note 12, 4
	drum_note 12, 4
	drum_note 12, 4
	drum_note 12, 4
	drum_note 12, 4
	drum_note 12, 4
	drum_note 12, 4
	drum_note 12, 4
	drum_note 12, 4
	drum_note 12, 2
	rest 12
	rest 3
	drum_note 12, 4
	drum_note 12, 4
	drum_note 12, 4
	drum_note 12, 4
	drum_note 12, 4
	drum_note 12, 4
	drum_note 12, 4
	drum_note 12, 4
	drum_note 12, 4
	drum_note 12, 4
	drum_note 12, 4
	drum_note 12, 4
	drum_note 12, 4
	drum_note 12, 4
	drum_note 12, 4
	drum_note 12, 4
	drum_note 12, 4
	drum_note 12, 4
	drum_note 12, 4
	drum_note 12, 4
	drum_note 12, 4
	drum_note 12, 4
	drum_note 12, 4
	drum_note 12, 4
	drum_note 12, 4
	drum_note 12, 4
	drum_note 12, 4
	drum_note 12, 4
	drum_note 12, 4
	drum_note 12, 4
	drum_note 12, 4
	drum_note 12, 4
	drum_note 12, 4
	drum_note 12, 4
	drum_note 12, 4
	drum_note 12, 4
	drum_note 12, 4
	drum_note 12, 4
	drum_note 12, 4
	drum_note 12, 4
	drum_note 12, 4
	drum_note 12, 4
	drum_note 12, 4
	drum_note 12, 4
	drum_note 12, 4
	drum_note 12, 4
	drum_note 12, 4
	rest 1
.mainloop:
	drum_note 12, 3
	drum_note 12, 4
	drum_note 12, 4
	drum_note 12, 4
	drum_note 12, 4
	drum_note 12, 4
	drum_note 12, 4
	drum_note 12, 4
	drum_note 12, 4
	drum_note 12, 4
	drum_note 12, 4
	drum_note 12, 4
	drum_note 12, 4
	drum_note 12, 4
	drum_note 12, 4
	drum_note 12, 4
	drum_note 12, 4
	drum_note 12, 4
	drum_note 12, 4
	drum_note 12, 4
	drum_note 12, 4
	drum_note 12, 4
	drum_note 12, 4
	drum_note 12, 4
	drum_note 12, 4
	drum_note 12, 4
	drum_note 12, 4
	drum_note 12, 4
	drum_note 12, 4
	drum_note 12, 4
	drum_note 12, 4
	drum_note 12, 4
	drum_note 12, 4
	drum_note 12, 4
	drum_note 12, 4
	drum_note 12, 4
	drum_note 12, 4
	drum_note 12, 4
	drum_note 12, 4
	drum_note 12, 4
	drum_note 12, 4
	drum_note 12, 4
	drum_note 12, 4
	drum_note 12, 4
	drum_note 12, 4
	drum_note 12, 4
	drum_note 12, 4
	drum_note 12, 4
	drum_note 12, 4
	drum_note 12, 4
	drum_note 12, 4
	drum_note 12, 4
	drum_note 12, 4
	drum_note 12, 4
	drum_note 12, 4
	drum_note 12, 4
	drum_note 12, 4
	drum_note 12, 4
	drum_note 12, 4
	drum_note 12, 4
	drum_note 12, 4
	drum_note 12, 4
	drum_note 12, 4
	drum_note 12, 4
	rest 1
	sound_loop 0, .mainloop
