Music_Avenue:
	channel_count 4
	channel 1, Music_Avenue_Ch1
	channel 2, Music_Avenue_Ch2
	channel 3, Music_Avenue_Ch3
	channel 4, Music_Avenue_Ch4

Music_Avenue_Ch1:
	volume 7, 7
	note_type 12, 10, 7
	tempo 141
.mainloop:
	rest 16
	rest 16
	rest 16
	rest 16
	rest 16
	rest 16
	rest 3
	octave 3
	duty_cycle 1
	volume_envelope 12, 7
	note A_, 3
	octave 4
	note C#, 3
	note E_, 3
	note F#, 1
	note G_, 2
	rest 3
	note E_, 1
	note F#, 2
	rest 2
	note E_, 3
	note E_, 1
	octave 3
	note G_, 1
	rest 2
	note A_, 1
	rest 2
	note G_, 1
	rest 2
	note A_, 1
	rest 14
	octave 4
	note G_, 1
	rest 2
	note G_, 1
	rest 2
	note G_, 1
	rest 2
	note G_, 2
	note A_, 1
	octave 5
	note C_, 2
	octave 4
	note A_, 4
	note E_, 2
	note D_, 1
	note C_, 2
	note C#, 1
	octave 3
	note A_, 2
	note G_, 9
	rest 12
	octave 5
	note E_, 1
	octave 4
	note A_, 2
	note G_, 1
	octave 5
	note E_, 2
	note E_, 1
	note C#, 2
	note E_, 1
	note G_, 1
	note F#, 1
	note E_, 1
	note F#, 2
	note E_, 3
	note E_, 1
	note D_, 2
	note D_, 1
	note C#, 2
	note C#, 1
	octave 4
	note B_, 2
	rest 1
	note A_, 2
	note A_, 1
	note G_, 2
	rest 1
	note F#, 2
	note F#, 1
	note E_, 2
	rest 1
	note D_, 5
	note E_, 1
	note C#, 2
	note C#, 1
	octave 3
	note A_, 2
	note G_, 4
	note B_, 1
	octave 4
	note C#, 1
	note D_, 1
	note C#, 1
	note D_, 1
	note D#, 1
	note E_, 2
	octave 3
	note A_, 3
	rest 3
	octave 4
	note E_, 1
	note A_, 2
	note A_, 1
	octave 5
	note C#, 1
	rest 2
	note E_, 2
	note E_, 1
	note A_, 2
	octave 4
	note B_, 1
	note B_, 1
	note B_, 1
	note B_, 1
	note B_, 1
	note B_, 1
	note B_, 1
	note A_, 5
	rest 3
	note D_, 2
	note E_, 2
	note F_, 2
	note F#, 2
	note A_, 2
	octave 5
	note D_, 2
	note E_, 2
	note F_, 2
	note F#, 2
	note D_, 2
	octave 4
	note A_, 2
	note B_, 1
	octave 5
	note C_, 8
	note D_, 2
	octave 4
	note A_, 9
	rest 4
	octave 5
	note A_, 1
	note G_, 1
	note E_, 1
	note A_, 1
	note G_, 1
	note E_, 1
	note C_, 1
	note C#, 1
	octave 4
	note A_, 1
	octave 5
	note C_, 1
	note C#, 1
	octave 4
	note A_, 1
	octave 5
	note C_, 1
	octave 4
	note A_, 1
	note G_, 1
	note D#, 2
	note E_, 1
	octave 3
	note A_, 3
	note G_, 3
	octave 4
	note C_, 2
	note C_, 1
	octave 3
	note A_, 2
	note E_, 1
	note G_, 2
	note A_, 1
	octave 4
	note C_, 2
	octave 3
	note A_, 6
	rest 7
	octave 5
	note F#, 1
	octave 4
	note A_, 1
	octave 5
	note F#, 1
	octave 4
	note A_, 1
	octave 5
	note F#, 1
	octave 4
	note A_, 1
	octave 5
	note F#, 1
	octave 4
	note A_, 1
	octave 5
	note F#, 1
	octave 4
	note A_, 1
	octave 5
	note F#, 1
	octave 4
	note A_, 1
	octave 5
	note F#, 1
	octave 4
	note A_, 1
	octave 5
	note F#, 1
	octave 4
	note A_, 1
	octave 5
	note F#, 1
	octave 4
	note A_, 1
	octave 5
	note F#, 1
	octave 4
	note A_, 1
	octave 5
	note F#, 1
	octave 4
	note A_, 1
	octave 5
	note F#, 1
	octave 4
	note A_, 1
	octave 5
	note F_, 1
	octave 4
	note G#, 1
	octave 5
	note F_, 1
	octave 4
	note G#, 1
	octave 5
	note F_, 1
	octave 4
	note G#, 1
	octave 5
	note E_, 1
	octave 4
	note G_, 1
	octave 5
	note E_, 1
	octave 4
	note G_, 1
	octave 5
	note E_, 1
	octave 4
	note G_, 1
	octave 5
	note D_, 1
	octave 4
	note F#, 1
	octave 5
	note D_, 1
	octave 4
	note F#, 1
	octave 5
	note D_, 1
	octave 4
	note F#, 1
	note A_, 1
	note D_, 1
	note A_, 1
	note D_, 1
	note A_, 1
	note D_, 1
	octave 3
	note A_, 1
	octave 4
	note C#, 1
	note E_, 1
	note A_, 1
	note F#, 1
	note E_, 1
	note F#, 1
	octave 3
	note B_, 1
	octave 4
	note D_, 1
	octave 3
	note A_, 1
	note E_, 1
	note F#, 1
	note A_, 1
	note B_, 1
	octave 4
	note C_, 1
	note E_, 1
	note G_, 1
	note B_, 1
	note A_, 1
	octave 5
	note C#, 1
	note F#, 1
	octave 4
	note A_, 1
	octave 5
	note C#, 1
	note E_, 1
	note C#, 2
	note C#, 1
	octave 4
	note B_, 1
	rest 2
	note A_, 3
	note F#, 2
	note E_, 4
	octave 3
	note B_, 1
	octave 4
	note A_, 1
	octave 3
	note A_, 7
	octave 4
	note E_, 2
	note E_, 1
	note G#, 2
	note G#, 1
	note B_, 2
	note B_, 1
	note G#, 2
	note G#, 1
	octave 5
	note D_, 2
	note D_, 1
	note C#, 2
	note C#, 1
	octave 4
	note B_, 2
	note B_, 1
	note G#, 2
	note G#, 1
	note A_, 2
	note A_, 1
	note F#, 2
	note F#, 1
	note D_, 2
	note D_, 1
	note F#, 2
	octave 3
	note A_, 6
	rest 7
	octave 4
	note C#, 1
	rest 2
	note C#, 3
	note D_, 1
	rest 2
	note D_, 3
	note D#, 1
	rest 2
	note D#, 3
	note E_, 1
	rest 2
	note E_, 3
	note C#, 2
	note C#, 1
	rest 16
	rest 16
	rest 16
	rest 16
	rest 16
	rest 16
	rest 16
	rest 16
	rest 16
	rest 16
	rest 16
	rest 16
	rest 16
	rest 16
	rest 16
	rest 16
	rest 16
	rest 16
	rest 16
	rest 16
	rest 16
	rest 16
	rest 16
	rest 16
	rest 16
	rest 5
	octave 3
	note D_, 2
	note D_, 1
	note C_, 1
	rest 2
	note D_, 1
	rest 2
	note C_, 1
	rest 2
	note D_, 1
	rest 2
	note C_, 1
	rest 5
	note C_, 2
	note C_, 1
	note D_, 2
	note D_, 1
	note C_, 1
	rest 2
	note D_, 1
	rest 2
	note C_, 1
	rest 2
	note D_, 1
	rest 11
	octave 2
	note A_, 1
	rest 2
	note A_, 3
	note B_, 1
	rest 2
	note B_, 3
	octave 3
	note C_, 1
	rest 2
	note C_, 3
	note C#, 1
	rest 2
	note C#, 3
	octave 2
	note A_, 1
	rest 2
	note A_, 3
	octave 3
	note A_, 1
	rest 2
	note A_, 3
	note G_, 1
	rest 2
	note G_, 3
	octave 2
	note A_, 1
	rest 1
	octave 3
	note C#, 4
	note D_, 2
	note D_, 1
	note C_, 1
	rest 2
	note D_, 1
	rest 2
	note C_, 1
	rest 2
	note D_, 1
	rest 2
	note C_, 1
	rest 5
	note C_, 2
	note C_, 1
	note D_, 2
	note D_, 1
	note C_, 1
	rest 2
	note D_, 1
	rest 2
	note C_, 1
	rest 2
	note D_, 1
	rest 11
	note G#, 2
	note G#, 1
	note F#, 1
	rest 2
	note E_, 1
	rest 2
	note D_, 1
	rest 2
	note G#, 1
	rest 2
	note D_, 1
	rest 5
	note F#, 2
	note D_, 1
	note E_, 2
	note E_, 1
	note D_, 1
	rest 2
	note E_, 1
	rest 2
	note D_, 1
	rest 2
	note G#, 1
	octave 4
	rest 12
	sound_loop 0, .mainloop

Music_Avenue_Ch2:
	note_type 12, 12, 7
	octave 1
	duty_cycle 0
.mainloop:
	note A_, 2
	note A_, 1
	note A_, 3
	note C#, 3
	note E_, 3
	note F#, 1
	note G_, 2
	rest 8
	note A_, 2
	rest 1
	note A_, 1
	note A_, 3
	note C#, 3
	note E_, 3
	note G_, 6
	note G#, 6
	note A_, 2
	note A_, 1
	note A_, 3
	note C#, 3
	note E_, 3
	note F#, 1
	note G_, 2
	rest 8
	note A_, 2
	rest 1
	note A_, 1
	note A_, 3
	note C#, 3
	note E_, 3
	note G_, 3
	note G_, 3
	note G#, 3
	note G#, 3
	note A_, 2
	note A_, 1
	note A_, 3
	note C#, 3
	note E_, 3
	note F#, 1
	note G_, 2
	rest 8
	note A_, 2
	rest 1
	note A_, 1
	note A_, 3
	note C#, 3
	note E_, 3
	note G_, 6
	note G#, 6
	note A_, 2
	note A_, 1
	note A_, 3
	note C#, 3
	note E_, 3
	note F#, 1
	note G_, 2
	rest 8
	note A_, 2
	rest 1
	note A_, 1
	note A_, 3
	note C#, 3
	note E_, 3
	note G_, 3
	note G_, 3
	note G#, 3
	note G#, 3
	note A_, 2
	note A_, 1
	note A_, 3
	note C#, 3
	note E_, 3
	note F#, 1
	note G_, 2
	rest 8
	note A_, 2
	rest 1
	note A_, 1
	note A_, 3
	note C#, 3
	note E_, 3
	note G_, 6
	note G#, 6
	note A_, 2
	note A_, 1
	note A_, 3
	note C#, 3
	note E_, 3
	note F#, 1
	note G_, 2
	rest 8
	note A_, 2
	rest 1
	note A_, 1
	note A_, 3
	note C#, 3
	note E_, 3
	note G_, 3
	note G_, 3
	note G#, 3
	note G#, 3
	note D_, 2
	note D_, 1
	note D_, 3
	note F#, 3
	note A_, 3
	note B_, 1
	octave 2
	note C_, 2
	rest 8
	octave 1
	note D_, 2
	rest 1
	note D_, 1
	note D_, 3
	note F#, 3
	note A_, 3
	note C_, 6
	note C#, 6
	note A_, 1
	rest 2
	note A_, 3
	note B_, 1
	rest 2
	note B_, 3
	note C_, 1
	rest 2
	note C_, 3
	note C#, 1
	rest 2
	note C#, 3
	note A_, 1
	rest 2
	note A_, 3
	note A_, 1
	rest 2
	note A_, 3
	note G_, 1
	rest 2
	note G_, 3
	note A_, 1
	rest 1
	note C#, 4
	note D_, 2
	note D_, 1
	note D_, 3
	note F#, 3
	note A_, 3
	note B_, 1
	octave 2
	note C_, 2
	rest 8
	octave 1
	note D_, 2
	rest 1
	note D_, 1
	note D_, 3
	note F#, 3
	note A_, 3
	note C_, 6
	note C#, 6
	note A_, 1
	rest 2
	note A_, 3
	note B_, 1
	rest 2
	note B_, 3
	note C_, 1
	rest 2
	note C_, 3
	note C#, 1
	rest 2
	note C#, 3
	note A_, 1
	rest 2
	note A_, 3
	note C#, 1
	rest 2
	note C#, 3
	note E_, 1
	rest 2
	note E_, 3
	note A_, 1
	rest 1
	note A_, 4
	note E_, 2
	note E_, 1
	note G#, 2
	note G#, 1
	note B_, 2
	note B_, 1
	note G#, 2
	note G#, 1
	note D_, 2
	note D_, 1
	note C#, 2
	note C#, 1
	note B_, 2
	note B_, 1
	note G#, 2
	note G#, 1
	note D_, 1
	rest 2
	note D_, 3
	note D_, 1
	rest 2
	note D_, 3
	note D_, 1
	rest 2
	note D_, 3
	note D_, 2
	note E_, 4
	note A_, 1
	rest 2
	note A_, 3
	note B_, 1
	rest 2
	note B_, 3
	note C_, 1
	rest 2
	note C_, 3
	note C#, 1
	rest 2
	note C#, 3
	note A_, 2
	note A_, 1
	rest 16
	rest 5
	note A_, 2
	note A_, 1
	rest 2
	note A_, 1
	rest 2
	note A_, 1
	note G_, 2
	note A_, 1
	rest 2
	note A_, 1
	note F#, 2
	note A_, 1
	note G_, 2
	note G_, 1
	note F#, 2
	note C_, 1
	note A_, 2
	note A_, 1
	rest 2
	note A_, 1
	rest 2
	note A_, 1
	octave 2
	note C_, 2
	octave 1
	note A_, 1
	rest 2
	note A_, 1
	note C_, 2
	note E_, 1
	note D_, 2
	note C_, 1
	note A_, 2
	note G_, 1
	note A_, 2
	note A_, 1
	rest 2
	note A_, 1
	rest 2
	note A_, 1
	note G_, 2
	note A_, 1
	rest 2
	note A_, 1
	note F#, 2
	note A_, 1
	note G_, 2
	note G_, 1
	note F#, 2
	note C_, 1
	note A_, 2
	note A_, 1
	note A_, 2
	note A_, 1
	note C_, 2
	note C_, 1
	octave 2
	note C_, 2
	octave 1
	note C_, 1
	note D_, 2
	note D_, 1
	octave 2
	note D_, 2
	octave 1
	note D_, 1
	note E_, 2
	note E_, 1
	octave 2
	note E_, 2
	octave 1
	note E_, 1
	note A_, 2
	note A_, 1
	rest 2
	note A_, 1
	rest 2
	note A_, 1
	note G_, 2
	note A_, 1
	rest 2
	note A_, 1
	note F#, 2
	note A_, 1
	note G_, 2
	note G_, 1
	note F#, 2
	note C_, 1
	note A_, 2
	note A_, 1
	rest 2
	note A_, 1
	rest 2
	note A_, 1
	octave 2
	note C_, 2
	octave 1
	note A_, 1
	rest 2
	note A_, 1
	note C_, 2
	note E_, 1
	note D_, 2
	note C_, 1
	note A_, 2
	note G_, 1
	note A_, 2
	note A_, 1
	rest 2
	note A_, 1
	rest 2
	note A_, 1
	note G_, 2
	note A_, 1
	rest 2
	note A_, 1
	note F#, 2
	note A_, 1
	note G_, 2
	note G_, 1
	note F#, 2
	note C_, 1
	note A_, 2
	note A_, 1
	note A_, 2
	rest 1
	note A_, 2
	rest 3
	note A_, 1
	rest 2
	note A_, 1
	note A_, 3
	note A_, 3
	note G_, 3
	note A_, 2
	note A_, 1
	rest 2
	note A_, 1
	rest 2
	note A_, 1
	note G_, 2
	note A_, 1
	rest 2
	note A_, 1
	note F#, 2
	note A_, 1
	note G_, 2
	note G_, 1
	note F#, 2
	note C_, 1
	note A_, 2
	note A_, 1
	rest 2
	note A_, 1
	rest 2
	note A_, 1
	octave 2
	note C_, 2
	octave 1
	note A_, 1
	rest 2
	note A_, 1
	note C_, 2
	note E_, 1
	note D_, 2
	note C_, 1
	note A_, 2
	note G_, 1
	note A_, 2
	note A_, 1
	rest 2
	note A_, 1
	rest 2
	note A_, 1
	note G_, 2
	note A_, 1
	rest 2
	note A_, 1
	note F#, 2
	note A_, 1
	note G_, 2
	note G_, 1
	note F#, 2
	note C_, 1
	note A_, 2
	note A_, 1
	note A_, 2
	note A_, 1
	note C_, 2
	note C_, 1
	octave 2
	note C_, 2
	octave 1
	note C_, 1
	note D_, 2
	note D_, 1
	octave 2
	note D_, 2
	octave 1
	note D_, 1
	note E_, 2
	note E_, 1
	octave 2
	note E_, 2
	octave 1
	note E_, 1
	note A_, 2
	note A_, 1
	rest 2
	note A_, 1
	rest 2
	note A_, 1
	note G_, 2
	note A_, 1
	rest 2
	note A_, 1
	note F#, 2
	note A_, 1
	note G_, 2
	note G_, 1
	note F#, 2
	note C_, 1
	note A_, 2
	note A_, 1
	rest 2
	note A_, 1
	rest 2
	note A_, 1
	octave 2
	note C_, 2
	octave 1
	note A_, 1
	rest 2
	note A_, 1
	note C_, 2
	note E_, 1
	note D_, 2
	note C_, 1
	note A_, 2
	note G_, 1
	note A_, 2
	note A_, 1
	rest 2
	note A_, 1
	rest 2
	note A_, 1
	note G_, 2
	note A_, 1
	rest 2
	note A_, 1
	note F#, 2
	note A_, 1
	note G_, 2
	note G_, 1
	note F#, 2
	note C_, 1
	note A_, 2
	note A_, 1
	note A_, 2
	rest 1
	note A_, 2
	rest 3
	note A_, 1
	rest 2
	note A_, 1
	note A_, 3
	note A_, 3
	note G_, 3
	note D_, 1
	rest 2
	note D_, 1
	rest 2
	note D_, 1
	rest 2
	note D_, 1
	rest 2
	note D_, 1
	rest 2
	note D_, 1
	rest 2
	note D_, 1
	rest 2
	note D_, 1
	rest 2
	note D_, 1
	rest 2
	note D_, 1
	rest 2
	note D_, 1
	rest 2
	note D_, 1
	rest 2
	note D_, 1
	rest 2
	note D_, 1
	rest 2
	note D_, 1
	rest 2
	note D_, 1
	rest 2
	note A_, 1
	rest 2
	note A_, 3
	note B_, 1
	rest 2
	note B_, 3
	note C_, 1
	rest 2
	note C_, 3
	note C#, 1
	rest 2
	note C#, 3
	note A_, 1
	rest 2
	note A_, 3
	note A_, 1
	rest 2
	note A_, 3
	note G_, 1
	rest 2
	note G_, 3
	note A_, 1
	rest 1
	note C#, 4
	note D_, 1
	rest 2
	note D_, 1
	rest 2
	note D_, 1
	rest 2
	note D_, 1
	rest 2
	note D_, 1
	rest 2
	note D_, 1
	rest 2
	note D_, 1
	rest 2
	note D_, 1
	rest 2
	note D_, 1
	rest 2
	note D_, 1
	rest 2
	note D_, 1
	rest 2
	note D_, 1
	rest 2
	note D_, 1
	rest 2
	note D_, 1
	rest 2
	note D_, 1
	rest 2
	note D#, 3
	note E_, 1
	rest 2
	note E_, 1
	rest 2
	note E_, 1
	rest 2
	note E_, 1
	rest 2
	note E_, 1
	rest 2
	note E_, 1
	rest 2
	note E_, 1
	rest 2
	note E_, 1
	rest 2
	note E_, 1
	rest 2
	note E_, 1
	rest 2
	note E_, 1
	rest 2
	note E_, 1
	rest 2
	note E_, 1
	rest 2
	note E_, 1
	rest 2
	note E_, 1
	rest 2
	note E_, 4
	sound_loop 0, .mainloop

Music_Avenue_Ch3:
	note_type 12, 2, 0
.mainloop:
	rest 16
	rest 16
	rest 16
	rest 16
	rest 16
	rest 16
	rest 16
	rest 16
	rest 16
	rest 16
	rest 16
	rest 16
	rest 16
	rest 16
	rest 16
	rest 16
	rest 16
	rest 16
	rest 16
	rest 16
	rest 16
	rest 16
	rest 16
	rest 16
	rest 16
	rest 16
	rest 16
	rest 16
	rest 16
	rest 16
	rest 16
	rest 16
	rest 16
	rest 16
	rest 16
	rest 16
	octave 4
	volume_envelope 1, 0
	note C#, 2
	octave 3
	note A_, 1
	note A_, 1
	rest 1
	note A_, 1
	note A_, 1
	rest 1
	note A_, 1
	note G_, 2
	octave 4
	note C#, 1
	octave 3
	note G_, 1
	rest 1
	note G_, 1
	note G_, 1
	rest 1
	note G_, 1
	note G_, 1
	rest 1
	note G_, 1
	note G_, 1
	rest 1
	note G_, 1
	octave 4
	note C#, 2
	octave 3
	note A_, 1
	note A_, 1
	rest 1
	note A_, 1
	note A_, 1
	rest 1
	note A_, 1
	octave 4
	note C_, 2
	note C#, 1
	octave 3
	note G_, 1
	rest 1
	note G_, 1
	note G_, 1
	rest 1
	note G_, 1
	note A_, 1
	rest 1
	note A_, 1
	note A_, 1
	rest 1
	note A_, 1
	octave 4
	note C#, 2
	octave 3
	note A_, 1
	note A_, 1
	rest 1
	note A_, 1
	note A_, 1
	rest 1
	note A_, 1
	octave 4
	note C_, 2
	note C#, 1
	octave 3
	note G_, 1
	rest 1
	note G_, 1
	note G_, 1
	rest 1
	note G_, 1
	note G_, 1
	rest 1
	note G_, 1
	note G_, 1
	rest 1
	note G_, 1
	octave 4
	note C#, 2
	octave 3
	note A_, 1
	note A_, 1
	rest 1
	note A_, 1
	note A_, 1
	rest 1
	note A_, 1
	octave 4
	note C_, 1
	note C_, 1
	note C_, 1
	note D_, 2
	octave 3
	note A_, 1
	octave 4
	note C_, 2
	octave 3
	note G_, 1
	note A_, 2
	note A_, 1
	note D_, 2
	note G_, 1
	octave 4
	note C#, 2
	octave 3
	note A_, 1
	note A_, 1
	rest 1
	octave 4
	note D_, 1
	octave 3
	note A_, 1
	rest 1
	note A_, 1
	note G_, 2
	octave 4
	note C#, 1
	octave 3
	note G_, 1
	rest 1
	note G_, 1
	note G_, 1
	rest 1
	note G_, 1
	note G_, 1
	rest 1
	note G_, 1
	note G_, 1
	rest 1
	note G_, 1
	octave 4
	note C#, 2
	octave 3
	note A_, 1
	note A_, 1
	rest 1
	note A_, 1
	note A_, 1
	rest 1
	note A_, 1
	note G_, 2
	octave 4
	note C#, 1
	octave 3
	note G_, 1
	rest 1
	note G_, 1
	note G_, 1
	rest 1
	note G_, 1
	note A_, 1
	rest 1
	note A_, 1
	note A_, 1
	rest 1
	note A_, 1
	octave 4
	note C#, 2
	octave 3
	note A_, 1
	note A_, 1
	rest 1
	note A_, 1
	note A_, 1
	rest 1
	note A_, 1
	octave 4
	note C_, 2
	note C#, 1
	octave 3
	note G_, 1
	rest 1
	note G_, 1
	note G_, 1
	rest 1
	note G_, 1
	note G_, 1
	rest 1
	note G_, 1
	note G_, 1
	rest 1
	note G_, 1
	octave 4
	note C#, 2
	octave 3
	note A_, 1
	note A_, 1
	rest 1
	octave 4
	note D_, 1
	octave 3
	note A_, 1
	rest 1
	note A_, 1
	octave 4
	note C_, 2
	note C#, 1
	octave 3
	note G_, 1
	rest 1
	note G_, 1
	note G_, 1
	rest 1
	note G_, 1
	note A_, 1
	rest 1
	note A_, 1
	note A_, 1
	rest 1
	note A_, 1
	octave 4
	note C#, 2
	octave 3
	note A_, 1
	note A_, 1
	rest 1
	note A_, 1
	note A_, 1
	rest 1
	note A_, 1
	note G_, 2
	octave 4
	note C#, 1
	octave 3
	note G_, 1
	rest 1
	note G_, 1
	note G_, 1
	rest 1
	note G_, 1
	note G_, 1
	rest 1
	note G_, 1
	note G_, 1
	rest 1
	note G_, 1
	octave 4
	note C#, 2
	octave 3
	note A_, 1
	note A_, 1
	rest 1
	octave 4
	note D_, 1
	octave 3
	note A_, 1
	rest 1
	note A_, 1
	note G_, 2
	octave 4
	note C#, 1
	octave 3
	note G_, 1
	rest 1
	note G_, 1
	note G_, 1
	rest 1
	note G_, 1
	note A_, 1
	rest 1
	note A_, 1
	note A_, 1
	rest 1
	note A_, 1
	octave 4
	note C#, 2
	octave 3
	note A_, 1
	note A_, 1
	rest 1
	octave 4
	note D_, 1
	octave 3
	note A_, 1
	rest 1
	note A_, 1
	note G_, 2
	octave 4
	note C#, 1
	octave 3
	note G_, 1
	rest 1
	note G_, 1
	note G_, 1
	rest 1
	note G_, 1
	note G_, 1
	rest 1
	note G_, 1
	note G_, 1
	rest 1
	note G_, 1
	octave 4
	note C#, 2
	octave 3
	note A_, 1
	note A_, 1
	rest 1
	note A_, 1
	note A_, 1
	rest 1
	note A_, 1
	octave 4
	note C_, 2
	note C#, 1
	octave 3
	note G_, 1
	rest 1
	note G_, 1
	note G_, 1
	rest 1
	note G_, 1
	note A_, 1
	rest 1
	note A_, 1
	note A_, 1
	rest 1
	note A_, 1
	octave 4
	note F#, 2
	note D_, 1
	note D_, 1
	rest 1
	note G_, 1
	note D_, 1
	rest 1
	note D_, 1
	note C_, 2
	note F#, 1
	note C_, 1
	rest 1
	note C_, 1
	note C_, 1
	rest 1
	note C_, 1
	note C_, 1
	rest 1
	note C_, 1
	note C_, 1
	rest 1
	note C_, 1
	note F#, 2
	note D_, 1
	note D_, 1
	rest 1
	note D_, 1
	note D_, 1
	rest 1
	note D_, 1
	note C_, 2
	note F#, 1
	note C_, 1
	rest 1
	note C_, 1
	note C_, 1
	rest 1
	note C_, 1
	note C_, 1
	rest 1
	note C_, 1
	note C_, 1
	rest 1
	note C_, 1
	octave 3
	note A_, 1
	rest 2
	note A_, 3
	note B_, 1
	rest 2
	note B_, 3
	octave 4
	note C_, 1
	rest 2
	note D#, 3
	note E_, 1
	rest 2
	note C#, 3
	octave 3
	note A_, 1
	rest 2
	octave 4
	note C#, 3
	note E_, 1
	rest 2
	note E_, 3
	note G_, 1
	rest 2
	note D_, 3
	note C#, 1
	rest 1
	note E_, 4
	note C_, 2
	note D_, 1
	note D_, 1
	rest 1
	note D_, 1
	note D_, 1
	rest 1
	note D_, 1
	note F_, 2
	note F#, 1
	note C_, 1
	rest 1
	note C_, 1
	note C_, 1
	rest 1
	note C_, 1
	note C_, 1
	rest 1
	note C_, 1
	note C_, 1
	rest 1
	note C_, 1
	note C_, 2
	note D_, 1
	note D_, 1
	rest 1
	note D_, 1
	note D_, 1
	rest 1
	note D_, 1
	note C_, 2
	note F#, 1
	note C_, 1
	rest 1
	note C_, 1
	note C_, 1
	rest 1
	note C_, 1
	note C_, 1
	rest 1
	note C_, 1
	note D#, 1
	rest 1
	note D#, 1
	note E_, 2
	note E_, 1
	note D_, 2
	note D_, 1
	note E_, 2
	note E_, 1
	note D_, 2
	note D_, 1
	note E_, 2
	note E_, 1
	note D_, 2
	note D_, 1
	note D_, 1
	rest 1
	note D_, 1
	note D_, 1
	rest 1
	note D_, 1
	note E_, 2
	note E_, 1
	note D_, 2
	note D_, 1
	note E_, 2
	note E_, 1
	note D_, 2
	note D_, 1
	note E_, 2
	note E_, 1
	note E_, 1
	rest 1
	note E_, 1
	note E_, 1
	rest 1
	note E_, 1
	note E_, 1
	rest 1
	rest 16
	rest 16
	rest 16
	rest 16
	rest 16
	rest 16
	rest 2
	sound_loop 0, .mainloop

Music_Avenue_Ch4:
	toggle_noise 1
	drum_speed 12
.mainloop:
	toggle_noise
	toggle_noise 6
	drum_note 1, 3
	drum_note 7, 3
	drum_note 3, 3
	drum_note 7, 2
	drum_note 1, 1
	drum_note 1, 3
	drum_note 7, 3
	drum_note 7, 3
	drum_note 7, 2
	drum_note 1, 1
	drum_note 7, 2
	drum_note 1, 1
	drum_note 7, 3
	drum_note 3, 3
	drum_note 7, 3
	drum_note 1, 3
	drum_note 7, 3
	drum_note 3, 3
	drum_note 7, 3
	drum_note 1, 3
	drum_note 7, 3
	drum_note 3, 3
	drum_note 7, 2
	drum_note 1, 1
	drum_note 1, 3
	drum_note 7, 3
	drum_note 3, 3
	drum_note 7, 2
	drum_note 1, 1
	drum_note 7, 2
	drum_note 1, 1
	drum_note 1, 3
	drum_note 7, 3
	drum_note 7, 3
	drum_note 7, 3
	drum_note 7, 3
	drum_note 3, 1
	drum_note 3, 1
	drum_note 3, 1
	drum_note 3, 2
	drum_note 1, 1
	drum_note 2, 3
	drum_note 7, 3
	drum_note 3, 3
	drum_note 7, 2
	drum_note 1, 1
	drum_note 1, 3
	drum_note 7, 3
	drum_note 3, 3
	drum_note 7, 2
	drum_note 1, 1
	drum_note 7, 2
	drum_note 1, 1
	drum_note 1, 3
	drum_note 7, 3
	drum_note 7, 3
	drum_note 7, 3
	drum_note 7, 3
	drum_note 7, 3
	drum_note 7, 3
	drum_note 7, 3
	drum_note 7, 3
	drum_note 7, 3
	drum_note 7, 2
	drum_note 1, 1
	drum_note 7, 3
	drum_note 7, 3
	drum_note 7, 3
	drum_note 7, 2
	drum_note 1, 1
	drum_note 7, 2
	drum_note 1, 1
	drum_note 7, 3
	drum_note 3, 3
	drum_note 7, 3
	drum_note 1, 3
	drum_note 7, 3
	drum_note 3, 3
	drum_note 7, 3
	drum_note 7, 3
	drum_note 7, 3
	drum_note 7, 3
	drum_note 7, 2
	drum_note 1, 1
	drum_note 7, 3
	drum_note 7, 3
	drum_note 7, 3
	drum_note 7, 2
	drum_note 1, 1
	drum_note 7, 2
	drum_note 1, 1
	drum_note 7, 3
	drum_note 3, 3
	drum_note 7, 3
	drum_note 1, 3
	drum_note 7, 3
	drum_note 3, 3
	drum_note 7, 3
	drum_note 1, 3
	drum_note 7, 3
	drum_note 3, 3
	drum_note 7, 2
	drum_note 1, 1
	drum_note 1, 3
	drum_note 7, 3
	drum_note 3, 3
	drum_note 7, 2
	drum_note 1, 1
	drum_note 7, 2
	drum_note 1, 1
	drum_note 1, 3
	drum_note 7, 3
	drum_note 7, 2
	drum_note 1, 1
	drum_note 3, 2
	drum_note 3, 2
	drum_note 12, 1
	drum_note 12, 1
	drum_note 10, 2
	drum_note 10, 2
	drum_note 8, 1
	drum_note 8, 1
	drum_note 6, 3
	drum_note 6, 3
	drum_note 6, 3
	drum_note 6, 2
	drum_note 1, 1
	drum_note 6, 3
	drum_note 6, 3
	drum_note 6, 3
	drum_note 6, 2
	drum_note 1, 1
	drum_note 6, 2
	drum_note 1, 1
	drum_note 6, 3
	drum_note 3, 3
	drum_note 6, 3
	drum_note 1, 3
	drum_note 6, 3
	drum_note 3, 3
	drum_note 6, 3
	drum_note 1, 3
	drum_note 6, 3
	drum_note 3, 3
	drum_note 6, 2
	drum_note 1, 1
	drum_note 1, 3
	drum_note 6, 3
	drum_note 3, 3
	drum_note 6, 3
	drum_note 1, 3
	drum_note 6, 3
	drum_note 3, 3
	drum_note 6, 2
	drum_note 1, 1
	drum_note 1, 3
	drum_note 6, 3
	drum_note 3, 3
	drum_note 6, 3
	drum_note 2, 3
	drum_note 6, 3
	drum_note 3, 3
	drum_note 6, 2
	drum_note 1, 1
	drum_note 1, 3
	drum_note 6, 3
	drum_note 3, 3
	drum_note 6, 2
	drum_note 1, 1
	drum_note 6, 2
	drum_note 1, 1
	drum_note 6, 3
	drum_note 3, 3
	drum_note 6, 3
	drum_note 1, 3
	drum_note 6, 3
	drum_note 6, 3
	drum_note 6, 3
	drum_note 6, 3
	drum_note 6, 3
	drum_note 6, 3
	drum_note 6, 2
	drum_note 1, 1
	drum_note 6, 3
	drum_note 6, 3
	drum_note 6, 3
	drum_note 6, 3
	drum_note 6, 3
	drum_note 6, 3
	drum_note 6, 3
	drum_note 6, 2
	drum_note 1, 1
	drum_note 6, 3
	drum_note 6, 3
	drum_note 6, 3
	drum_note 6, 3
	drum_note 6, 3
	drum_note 6, 3
	drum_note 6, 3
	drum_note 6, 2
	drum_note 1, 1
	drum_note 6, 3
	drum_note 6, 3
	drum_note 6, 3
	drum_note 6, 2
	drum_note 1, 1
	drum_note 6, 2
	drum_note 1, 1
	drum_note 6, 3
	drum_note 3, 3
	drum_note 6, 3
	drum_note 1, 3
	drum_note 6, 3
	drum_note 3, 3
	drum_note 6, 3
	drum_note 1, 3
	drum_note 6, 3
	drum_note 3, 3
	drum_note 6, 2
	drum_note 1, 1
	drum_note 1, 3
	drum_note 6, 3
	drum_note 3, 3
	drum_note 6, 3
	drum_note 6, 3
	drum_note 6, 3
	drum_note 6, 3
	drum_note 6, 2
	drum_note 6, 1
	drum_note 1, 1
	drum_note 3, 1
	drum_note 3, 1
	drum_note 3, 1
	drum_note 1, 1
	drum_note 3, 1
	drum_note 3, 1
	drum_note 12, 1
	drum_note 12, 1
	drum_note 12, 1
	drum_note 10, 1
	drum_note 10, 1
	drum_note 10, 3
	drum_note 7, 2
	drum_note 1, 1
	drum_note 7, 3
	drum_note 7, 2
	drum_note 1, 1
	drum_note 1, 3
	drum_note 7, 3
	drum_note 7, 3
	drum_note 7, 2
	drum_note 1, 1
	drum_note 7, 3
	drum_note 1, 3
	drum_note 3, 2
	drum_note 1, 1
	drum_note 7, 2
	drum_note 1, 1
	drum_note 1, 3
	drum_note 7, 3
	drum_note 7, 3
	drum_note 7, 3
	drum_note 1, 3
	drum_note 7, 2
	drum_note 1, 1
	drum_note 7, 3
	drum_note 7, 2
	drum_note 1, 1
	drum_note 1, 3
	drum_note 1, 3
	drum_note 7, 3
	drum_note 7, 2
	drum_note 1, 1
	drum_note 7, 3
	drum_note 1, 3
	drum_note 3, 2
	drum_note 1, 1
	drum_note 7, 2
	drum_note 1, 1
	drum_note 7, 3
	drum_note 7, 3
	drum_note 7, 3
	drum_note 7, 3
	drum_note 7, 3
	drum_note 7, 2
	drum_note 1, 1
	drum_note 3, 3
	drum_note 7, 2
	drum_note 1, 1
	drum_note 7, 3
	drum_note 1, 3
	drum_note 3, 3
	drum_note 7, 2
	drum_note 1, 1
	drum_note 7, 3
	drum_note 1, 3
	drum_note 3, 2
	drum_note 1, 1
	drum_note 7, 2
	drum_note 1, 1
	drum_note 1, 3
	drum_note 7, 3
	drum_note 3, 3
	drum_note 7, 3
	drum_note 1, 3
	drum_note 7, 2
	drum_note 1, 1
	drum_note 7, 3
	drum_note 7, 2
	drum_note 1, 1
	drum_note 1, 3
	drum_note 1, 3
	drum_note 3, 3
	drum_note 7, 2
	drum_note 1, 1
	drum_note 7, 3
	drum_note 1, 3
	drum_note 7, 2
	drum_note 1, 1
	drum_note 7, 2
	drum_note 1, 1
	drum_note 7, 3
	drum_note 7, 3
	drum_note 3, 3
	drum_note 7, 1
	drum_note 3, 1
	drum_note 3, 1
	drum_note 10, 3
	drum_note 7, 2
	drum_note 1, 1
	drum_note 7, 3
	drum_note 7, 2
	drum_note 1, 1
	drum_note 7, 3
	drum_note 1, 3
	drum_note 7, 3
	drum_note 7, 2
	drum_note 1, 1
	drum_note 7, 3
	drum_note 1, 3
	drum_note 3, 2
	drum_note 1, 1
	drum_note 7, 2
	drum_note 1, 1
	drum_note 7, 3
	drum_note 7, 3
	drum_note 7, 3
	drum_note 7, 3
	drum_note 1, 3
	drum_note 7, 2
	drum_note 1, 1
	drum_note 7, 3
	drum_note 7, 2
	drum_note 1, 1
	drum_note 1, 3
	drum_note 7, 3
	drum_note 3, 3
	drum_note 7, 2
	drum_note 1, 1
	drum_note 7, 3
	drum_note 7, 3
	drum_note 3, 2
	drum_note 1, 1
	drum_note 7, 2
	drum_note 1, 1
	drum_note 7, 3
	drum_note 7, 3
	drum_note 3, 3
	drum_note 7, 3
	drum_note 1, 3
	drum_note 7, 2
	drum_note 1, 1
	drum_note 7, 3
	drum_note 7, 2
	drum_note 1, 1
	drum_note 1, 3
	drum_note 7, 3
	drum_note 7, 3
	drum_note 7, 2
	drum_note 1, 1
	drum_note 1, 3
	drum_note 1, 3
	drum_note 7, 2
	drum_note 1, 1
	drum_note 7, 2
	drum_note 1, 1
	drum_note 7, 3
	drum_note 7, 3
	drum_note 7, 3
	drum_note 7, 3
	drum_note 7, 3
	drum_note 7, 2
	drum_note 1, 1
	drum_note 7, 3
	drum_note 7, 2
	drum_note 1, 1
	drum_note 1, 3
	drum_note 7, 3
	drum_note 3, 3
	drum_note 7, 2
	drum_note 1, 1
	drum_note 1, 3
	drum_note 1, 3
	drum_note 7, 2
	drum_note 1, 1
	drum_note 7, 2
	drum_note 1, 1
	drum_note 7, 3
	drum_note 7, 3
	drum_note 7, 3
	drum_note 7, 3
	drum_note 1, 3
	drum_note 7, 2
	drum_note 1, 1
	drum_note 7, 3
	drum_note 7, 2
	drum_note 1, 1
	drum_note 7, 3
	drum_note 7, 3
	drum_note 7, 3
	drum_note 7, 2
	drum_note 1, 1
	drum_note 7, 3
	drum_note 1, 3
	drum_note 3, 2
	drum_note 1, 1
	drum_note 7, 2
	drum_note 1, 1
	drum_note 1, 3
	drum_note 7, 3
	drum_note 7, 3
	drum_note 7, 3
	drum_note 7, 3
	drum_note 7, 2
	drum_note 1, 1
	drum_note 3, 3
	drum_note 7, 2
	drum_note 1, 1
	drum_note 7, 3
	drum_note 1, 3
	drum_note 7, 3
	drum_note 7, 2
	drum_note 1, 1
	drum_note 1, 3
	drum_note 1, 3
	drum_note 7, 2
	drum_note 1, 1
	drum_note 7, 2
	drum_note 1, 1
	drum_note 1, 3
	drum_note 7, 3
	drum_note 3, 3
	drum_note 7, 3
	drum_note 7, 3
	drum_note 7, 2
	drum_note 1, 1
	drum_note 7, 3
	drum_note 7, 2
	drum_note 1, 1
	drum_note 1, 3
	drum_note 7, 3
	drum_note 3, 3
	drum_note 7, 2
	drum_note 1, 1
	drum_note 7, 3
	drum_note 1, 3
	drum_note 7, 2
	drum_note 1, 1
	drum_note 7, 2
	drum_note 1, 1
	drum_note 1, 3
	drum_note 7, 3
	drum_note 7, 3
	drum_note 7, 3
	drum_note 7, 3
	drum_note 7, 2
	drum_note 1, 1
	drum_note 3, 3
	drum_note 7, 2
	drum_note 1, 1
	drum_note 1, 3
	drum_note 1, 3
	drum_note 3, 3
	drum_note 7, 2
	drum_note 1, 1
	drum_note 7, 3
	drum_note 1, 3
	drum_note 3, 2
	drum_note 1, 1
	drum_note 7, 2
	drum_note 1, 1
	drum_note 1, 3
	drum_note 7, 3
	drum_note 1, 3
	rest 4
	sound_loop 0, .mainloop
