Music_BeatIt:
	channel_count 4
	channel 1, Music_BeatIt_Ch1
	channel 2, Music_BeatIt_Ch2
	channel 3, Music_BeatIt_Ch3
	channel 4, Music_BeatIt_Ch4

Music_BeatIt_Ch1:
	volume 7, 7
	note_type 12, 10, 7
	tempo 123
.mainloop:
	rest 16
	rest 16
	rest 16
	rest 16
	rest 6
	duty_cycle 2
	octave 4
	volume_envelope 8, 7
	note F_, 2
	rest 2
	note F_, 2
	note D_, 6
	note E_, 2
	rest 2
	note E_, 2
	note C_, 8
	rest 6
	note F_, 2
	rest 2
	note F_, 2
	note D_, 6
	note E_, 2
	rest 2
	note E_, 2
	note C_, 8
	rest 4
	note A_, 2
	note A_, 2
	note A_, 2
	note G_, 2
	note A_, 2
	note G_, 2
	note A_, 2
	octave 5
	note C_, 2
	octave 4
	note A_, 2
	note G_, 2
	rest 2
	note A_, 2
	rest 4
	note A_, 2
	note A_, 2
	note A_, 2
	note A_, 2
	note A_, 2
	note A_, 2
	note A_, 2
	note G_, 2
	note F_, 2
	note G_, 2
	note F_, 2
	note A_, 4
	rest 6
	note A_, 2
	note G_, 2
	note F_, 2
	note D_, 2
	note C_, 2
	note D_, 4
	note D_, 2
	note D_, 2
	note E_, 2
	note D_, 2
	note C_, 2
	octave 3
	note A_, 2
	octave 4
	note C_, 2
	rest 2
	note C_, 4
	note F_, 2
	note D_, 2
	rest 8
	note D_, 4
	note E_, 2
	note C_, 2
	rest 14
	note A_, 2
	note A_, 2
	note A_, 2
	note A_, 2
	note A_, 2
	note G_, 2
	note A_, 2
	octave 5
	note C_, 2
	octave 4
	note A_, 2
	note G_, 2
	rest 2
	note A_, 2
	rest 4
	note A_, 2
	note A_, 2
	note A_, 2
	note A_, 2
	note A_, 2
	note G_, 2
	note A_, 2
	note G_, 2
	note F_, 2
	note G_, 2
	note F_, 2
	note A_, 4
	rest 6
	note A_, 2
	note G_, 2
	note F_, 2
	note D_, 2
	rest 2
	note D_, 2
	rest 2
	note D_, 2
	note D_, 2
	note E_, 2
	note D_, 2
	note C_, 2
	rest 2
	note C_, 2
	rest 2
	note D_, 4
	note F_, 2
	note D_, 2
	rest 8
	note A_, 2
	note A_, 2
	octave 5
	note C_, 2
	octave 4
	note A_, 2
	note G_, 2
	rest 2
	note A_, 4
	note G_, 4
	note A_, 2
	note A_, 6
	rest 8
	note A_, 2
	note A_, 6
	rest 6
	note A_, 4
	note A_, 2
	note A_, 2
	note A_, 2
	octave 5
	note C_, 4
	octave 4
	note A_, 2
	octave 5
	note C_, 4
	octave 4
	note A_, 2
	rest 10
	note G_, 4
	note F_, 2
	note G_, 2
	rest 2
	note F_, 2
	note G_, 2
	note F_, 2
	note G_, 4
	note F_, 2
	note G_, 2
	rest 2
	note F_, 2
	rest 4
	note G_, 4
	note F_, 2
	note G_, 2
	rest 2
	note F_, 2
	note G_, 2
	rest 2
	note G_, 4
	note F_, 2
	note G_, 2
	rest 2
	note F_, 2
	rest 2
	note G_, 2
	rest 2
	note F_, 2
	note D_, 2
	rest 8
	note D_, 2
	rest 2
	note E_, 2
	note C_, 2
	rest 8
	note G_, 2
	rest 2
	note F_, 2
	note D_, 2
	rest 8
	note D_, 2
	rest 2
	note E_, 2
	note C_, 2
	rest 12
	note A_, 16
	note G_, 16
	note A_, 16
	note G_, 16
	note F_, 16
	note G_, 16
	note A_, 16
	note G_, 16
	rest 2
	note A_, 2
	note A_, 2
	note A_, 2
	note A_, 2
	note A_, 2
	note G_, 2
	note A_, 2
	octave 5
	note C_, 2
	octave 4
	note A_, 2
	note G_, 2
	rest 2
	note A_, 2
	rest 4
	note A_, 2
	note A_, 2
	note A_, 2
	note A_, 2
	note A_, 2
	note G_, 2
	note A_, 2
	note G_, 2
	note F_, 2
	note G_, 2
	note F_, 2
	note A_, 4
	rest 6
	note A_, 2
	note G_, 2
	note F_, 2
	note D_, 2
	rest 2
	note D_, 2
	rest 2
	note D_, 2
	note D_, 2
	note E_, 2
	note D_, 2
	note C_, 2
	rest 2
	note C_, 2
	rest 2
	note D_, 4
	note F_, 2
	note D_, 2
	rest 8
	note A_, 2
	note A_, 2
	octave 5
	note C_, 2
	octave 4
	note A_, 2
	note G_, 2
	rest 2
	note A_, 4
	note G_, 4
	note A_, 2
	note A_, 6
	rest 8
	note A_, 2
	note A_, 6
	rest 6
	note A_, 4
	note A_, 2
	note A_, 2
	note A_, 2
	octave 5
	note C_, 4
	octave 4
	note A_, 2
	octave 5
	note C_, 4
	octave 4
	note A_, 2
	rest 10
	note G_, 4
	note F_, 2
	note G_, 2
	rest 2
	note F_, 2
	note G_, 2
	note F_, 2
	note G_, 4
	note F_, 2
	note G_, 2
	rest 2
	note F_, 2
	rest 4
	note G_, 4
	note F_, 2
	note G_, 2
	rest 2
	note F_, 2
	note G_, 2
	rest 2
	note G_, 4
	note F_, 2
	note G_, 2
	rest 2
	note F_, 2
	rest 2
	note G_, 2
	rest 2
	note F_, 2
	note D_, 2
	rest 8
	note D_, 2
	rest 2
	note E_, 2
	note C_, 2
	rest 8
	note G_, 2
	rest 2
	note F_, 2
	note D_, 2
	rest 8
	note D_, 2
	rest 2
	note E_, 2
	note C_, 2
	rest 12
	sound_loop 0, .mainloop

Music_BeatIt_Ch2:
	duty_cycle 1
	note_type 12, 8, 7
.mainloop:
	octave 3
	note D_, 4
	note F_, 2
	note A_, 2
	octave 4
	note F_, 2
	note D_, 6
	note E_, 4
	note D_, 2
	note C_, 2
	rest 2
	note C_, 2
	rest 4
	octave 3
	note D_, 4
	note F_, 2
	note A_, 2
	octave 4
	note F_, 2
	note D_, 6
	note E_, 4
	note D_, 2
	note C_, 2
	rest 14
	note D_, 2
	rest 2
	note D_, 2
	octave 3
	note A_, 6
	octave 4
	note C_, 2
	rest 2
	note C_, 2
	octave 3
	note G_, 8
	rest 6
	octave 4
	note D_, 2
	rest 2
	note D_, 2
	octave 3
	note A_, 6
	octave 4
	note C_, 2
	rest 2
	note C_, 2
	octave 3
	note G_, 8
	rest 2
	note A_, 16
	note G_, 16
	note A_, 16
	note G_, 16
	note F_, 16
	note G_, 16
	note A_, 16
	note G_, 16
	octave 4
	note D_, 12
	rest 2
	note C_, 2
	note C_, 2
	rest 2
	note C_, 2
	rest 6
	note C_, 4
	note D_, 12
	rest 2
	note C_, 2
	note C_, 2
	rest 2
	note C_, 2
	rest 6
	note C_, 4
	octave 3
	note A#, 4
	note A#, 2
	rest 2
	note A#, 2
	rest 2
	note A#, 2
	note A#, 2
	note G_, 16
	note A_, 2
	note F_, 2
	rest 8
	note A_, 4
	note G_, 16
	octave 4
	note D_, 2
	note D_, 6
	octave 3
	note A_, 6
	rest 2
	octave 4
	note C_, 2
	note C_, 6
	octave 3
	note G_, 6
	octave 4
	note D_, 4
	note D_, 2
	note D_, 2
	note D_, 2
	note F_, 4
	note D_, 2
	note E_, 4
	note C_, 2
	rest 12
	octave 3
	note A_, 16
	note G_, 16
	note A_, 16
	note G_, 16
	note A_, 2
	note F_, 2
	rest 4
	note A_, 2
	note F_, 2
	rest 4
	note G_, 2
	rest 2
	note E_, 2
	note C_, 2
	rest 8
	note A_, 2
	note F_, 2
	rest 4
	note A_, 2
	note F_, 2
	rest 4
	note G_, 2
	rest 2
	note E_, 2
	note C_, 8
	rest 4
	note A_, 2
	note A_, 2
	note A_, 2
	note G_, 2
	note A_, 2
	note G_, 2
	note A_, 2
	octave 4
	note C_, 2
	octave 3
	note A_, 2
	note G_, 2
	rest 2
	note A_, 2
	rest 4
	note A_, 2
	note A_, 2
	note A_, 2
	note A_, 2
	note A_, 2
	note A_, 2
	note A_, 2
	note G_, 2
	note F_, 2
	note G_, 2
	note F_, 2
	note A_, 4
	rest 6
	note A_, 2
	note G_, 2
	note F_, 2
	note D_, 2
	note C_, 2
	note D_, 4
	note D_, 2
	note D_, 2
	note E_, 2
	note D_, 2
	note C_, 2
	octave 2
	note A_, 2
	octave 3
	note C_, 2
	rest 2
	note C_, 4
	note F_, 2
	note D_, 2
	note A_, 2
	rest 2
	note A_, 2
	rest 2
	note D_, 4
	note E_, 2
	note C_, 2
	rest 12
	octave 4
	note D_, 12
	rest 2
	note C_, 2
	note C_, 2
	rest 2
	note C_, 2
	rest 6
	note C_, 4
	note D_, 12
	rest 2
	note C_, 2
	note C_, 2
	rest 2
	note C_, 2
	rest 6
	note C_, 4
	octave 3
	note A#, 4
	note A#, 2
	rest 2
	note A#, 2
	rest 2
	note A#, 2
	note A#, 2
	note G_, 16
	note A_, 2
	note F_, 2
	rest 8
	note A_, 4
	note G_, 16
	octave 4
	note D_, 2
	note D_, 6
	octave 3
	note A_, 6
	rest 2
	octave 4
	note C_, 2
	note C_, 6
	octave 3
	note G_, 6
	octave 4
	note D_, 4
	note D_, 2
	note D_, 2
	note D_, 2
	note F_, 4
	note D_, 2
	note E_, 4
	note C_, 2
	rest 12
	octave 3
	note A_, 16
	note G_, 10
	note A_, 2
	octave 4
	note C_, 2
	octave 3
	note G_, 2
	note A_, 16
	note G_, 10
	note A_, 2
	octave 4
	note C_, 2
	octave 3
	note G_, 2
	note A_, 2
	note F_, 2
	rest 4
	note A_, 2
	note F_, 2
	rest 4
	note G_, 2
	rest 2
	note E_, 2
	note C_, 2
	rest 8
	note A_, 2
	note F_, 2
	rest 4
	note A_, 2
	note F_, 2
	rest 4
	note G_, 2
	rest 2
	note E_, 2
	note C_, 2
	octave 2
	rest 8
	sound_loop 0, .mainloop

Music_BeatIt_Ch3:
	note_type 12, 1, 0
.mainloop:
	octave 2
	volume_envelope 2, 0
	note D_, 4
	note F_, 2
	note A_, 2
	octave 3
	note F_, 2
	note D_, 6
	note E_, 4
	note D_, 2
	note C_, 2
	rest 2
	note C_, 2
	rest 4
	octave 2
	note D_, 4
	note F_, 2
	note A_, 2
	octave 3
	note F_, 2
	note D_, 6
	note E_, 4
	note D_, 2
	note C_, 2
	rest 8
	octave 2
	note D_, 4
	note F_, 2
	note A_, 2
	octave 3
	note F_, 2
	note D_, 6
	note E_, 4
	note D_, 2
	note C_, 2
	rest 2
	note C_, 2
	rest 4
	octave 2
	note D_, 4
	note F_, 2
	note A_, 2
	octave 3
	note F_, 2
	note D_, 6
	note E_, 4
	note D_, 2
	note C_, 2
	rest 4
	note D_, 2
	note E_, 2
	note C_, 2
	rest 2
	note D_, 2
	note D_, 2
	rest 2
	note D_, 2
	rest 4
	note C_, 2
	note C_, 2
	rest 2
	note C_, 2
	rest 4
	note C_, 2
	note C_, 2
	rest 4
	note D_, 2
	note D_, 2
	rest 2
	note D_, 2
	rest 4
	note C_, 2
	note C_, 2
	rest 2
	note C_, 2
	rest 4
	note C_, 2
	note C_, 2
	rest 4
	octave 2
	note A#, 2
	note A#, 2
	rest 2
	note A#, 2
	rest 4
	note A#, 2
	octave 3
	note C_, 2
	rest 2
	note C_, 2
	rest 4
	note D_, 2
	note E_, 2
	note C_, 2
	rest 2
	note D_, 2
	note D_, 2
	rest 2
	note D_, 2
	rest 4
	note C_, 2
	note C_, 2
	rest 2
	note C_, 6
	note E_, 2
	note G_, 2
	note C_, 2
	rest 2
	note D_, 2
	note D_, 2
	rest 2
	note D_, 2
	rest 4
	note C_, 2
	note C_, 2
	rest 2
	note C_, 2
	rest 4
	note C_, 2
	note C_, 2
	rest 4
	note D_, 2
	note D_, 2
	rest 2
	note D_, 2
	rest 4
	note C_, 2
	note C_, 2
	rest 2
	note C_, 2
	rest 4
	note C_, 2
	note C_, 2
	rest 4
	octave 2
	note A#, 2
	note A#, 2
	rest 2
	note A#, 2
	rest 4
	note A#, 2
	octave 3
	note C_, 2
	rest 2
	note C_, 2
	rest 4
	note D_, 2
	note E_, 2
	note C_, 2
	rest 2
	note D_, 2
	note D_, 2
	rest 2
	note D_, 2
	rest 4
	note C_, 2
	note C_, 2
	rest 2
	note C_, 2
	rest 8
	octave 2
	note D_, 4
	note F_, 2
	note A_, 2
	octave 3
	note F_, 2
	note D_, 6
	note E_, 4
	note D_, 2
	note C_, 2
	rest 2
	note C_, 2
	rest 4
	octave 2
	note D_, 4
	note F_, 2
	note A_, 2
	octave 3
	note F_, 2
	note D_, 6
	note E_, 4
	note D_, 2
	note C_, 2
	rest 2
	note C_, 2
	octave 2
	note E_, 2
	note G_, 2
	note D_, 4
	note F_, 2
	note A_, 2
	octave 3
	note F_, 2
	note D_, 6
	note E_, 4
	note D_, 2
	note C_, 2
	rest 2
	note C_, 2
	rest 4
	octave 2
	note D_, 4
	note F_, 2
	note A_, 2
	octave 3
	note F_, 2
	note D_, 6
	note E_, 4
	note D_, 2
	note C_, 2
	rest 2
	note C_, 2
	octave 2
	note E_, 2
	note G_, 2
	note D_, 4
	note F_, 2
	note A_, 2
	octave 3
	note F_, 2
	note D_, 6
	note E_, 4
	note D_, 2
	note C_, 2
	rest 2
	note C_, 2
	rest 4
	octave 2
	note D_, 4
	note F_, 2
	note A_, 2
	octave 3
	note F_, 2
	note D_, 6
	note E_, 4
	note D_, 2
	note C_, 2
	rest 4
	note D_, 2
	note E_, 2
	note C_, 2
	rest 2
	note D_, 2
	note D_, 2
	rest 2
	note D_, 2
	rest 4
	note C_, 2
	note C_, 2
	rest 2
	note C_, 2
	rest 4
	note C_, 2
	note C_, 2
	rest 4
	note D_, 2
	note D_, 2
	rest 2
	note D_, 2
	rest 4
	note C_, 2
	note C_, 2
	rest 2
	note C_, 2
	rest 4
	note C_, 2
	note C_, 2
	rest 4
	octave 2
	note A#, 2
	note A#, 2
	rest 2
	note A#, 2
	rest 4
	note A#, 2
	octave 3
	note C_, 2
	rest 2
	note C_, 2
	rest 4
	note D_, 2
	note E_, 2
	note C_, 2
	rest 2
	note D_, 2
	note D_, 2
	rest 2
	note D_, 2
	rest 4
	note C_, 2
	note C_, 2
	rest 2
	note C_, 6
	note E_, 2
	note G_, 2
	note C_, 2
	rest 2
	note D_, 2
	note D_, 2
	rest 2
	note D_, 2
	rest 4
	note C_, 2
	note C_, 2
	rest 2
	note C_, 2
	rest 4
	note C_, 2
	note C_, 2
	rest 4
	note D_, 2
	note D_, 2
	rest 2
	note D_, 2
	rest 4
	note C_, 2
	note C_, 2
	rest 2
	note C_, 2
	rest 4
	note C_, 2
	note C_, 2
	rest 4
	octave 2
	note A#, 2
	note A#, 2
	rest 2
	note A#, 2
	rest 4
	note A#, 2
	octave 3
	note C_, 2
	rest 2
	note C_, 2
	rest 4
	note D_, 2
	note E_, 2
	note C_, 2
	rest 2
	note D_, 2
	note D_, 2
	rest 2
	note D_, 2
	rest 4
	note C_, 2
	note C_, 2
	rest 2
	note C_, 2
	rest 8
	octave 2
	note D_, 4
	note F_, 2
	note A_, 2
	octave 3
	note F_, 2
	note D_, 6
	note E_, 4
	note D_, 2
	note C_, 2
	rest 2
	note C_, 2
	rest 4
	octave 2
	note D_, 4
	note F_, 2
	note A_, 2
	octave 3
	note F_, 2
	note D_, 6
	note E_, 4
	note D_, 2
	note C_, 2
	rest 2
	note C_, 2
	octave 2
	note E_, 2
	note G_, 2
	note D_, 4
	note F_, 2
	note A_, 2
	octave 3
	note F_, 2
	note D_, 6
	note E_, 4
	note D_, 2
	note C_, 2
	rest 2
	note C_, 2
	rest 4
	octave 2
	note D_, 4
	note F_, 2
	note A_, 2
	octave 3
	note F_, 2
	note D_, 6
	note E_, 4
	note D_, 2
	note C_, 2
	rest 2
	note C_, 2
	octave 2
	note E_, 2
	note G_, 2
	note D_, 4
	note F_, 2
	note A_, 2
	octave 3
	note F_, 2
	note D_, 6
	note E_, 4
	note D_, 2
	note C_, 2
	rest 2
	note C_, 2
	rest 4
	octave 2
	note D_, 4
	note F_, 2
	note A_, 2
	octave 3
	note F_, 2
	note D_, 6
	note E_, 4
	note D_, 2
	note C_, 2
	rest 10
	octave 2
	volume_envelope 1, 0
	sound_loop 0, .mainloop

Music_BeatIt_Ch4:
	toggle_noise 1
	drum_speed 12
.mainloop:
	rest 2
	toggle_noise
	toggle_noise 8
	drum_note 1, 2
	drum_note 7, 2
	drum_note 5, 2
	drum_note 7, 2
	drum_note 1, 2
	drum_note 7, 2
	drum_note 5, 2
	drum_note 7, 2
	drum_note 1, 2
	drum_note 7, 2
	drum_note 1, 2
	drum_note 7, 2
	drum_note 7, 2
	drum_note 1, 2
	drum_note 5, 2
	drum_note 7, 2
	drum_note 1, 2
	drum_note 7, 2
	drum_note 5, 2
	drum_note 7, 2
	drum_note 1, 2
	drum_note 7, 2
	drum_note 5, 2
	drum_note 7, 2
	drum_note 1, 2
	drum_note 7, 2
	drum_note 1, 2
	drum_note 7, 2
	drum_note 7, 2
	drum_note 1, 2
	drum_note 5, 2
	drum_note 7, 2
	drum_note 1, 2
	drum_note 7, 2
	drum_note 5, 2
	drum_note 7, 2
	drum_note 1, 2
	drum_note 7, 2
	drum_note 5, 2
	drum_note 7, 2
	drum_note 1, 2
	drum_note 7, 2
	drum_note 1, 2
	drum_note 7, 2
	drum_note 7, 2
	drum_note 1, 2
	drum_note 5, 2
	drum_note 7, 2
	drum_note 1, 2
	drum_note 7, 2
	drum_note 5, 2
	drum_note 7, 2
	drum_note 1, 2
	drum_note 7, 2
	drum_note 5, 2
	drum_note 7, 2
	drum_note 1, 2
	drum_note 7, 2
	drum_note 1, 2
	drum_note 7, 2
	drum_note 7, 2
	drum_note 1, 2
	drum_note 5, 2
	drum_note 5, 2
	drum_note 1, 2
	drum_note 7, 2
	drum_note 5, 2
	drum_note 7, 2
	drum_note 1, 2
	drum_note 7, 2
	drum_note 5, 2
	drum_note 7, 2
	drum_note 1, 2
	drum_note 7, 2
	drum_note 1, 2
	drum_note 7, 2
	drum_note 7, 2
	drum_note 1, 2
	drum_note 5, 2
	drum_note 7, 2
	drum_note 1, 2
	drum_note 7, 2
	drum_note 5, 2
	drum_note 7, 2
	drum_note 1, 2
	drum_note 7, 2
	drum_note 5, 2
	drum_note 7, 2
	drum_note 1, 2
	drum_note 7, 2
	drum_note 1, 2
	drum_note 7, 2
	drum_note 7, 2
	drum_note 1, 2
	drum_note 5, 2
	drum_note 7, 2
	drum_note 1, 2
	drum_note 7, 2
	drum_note 5, 2
	drum_note 7, 2
	drum_note 1, 2
	drum_note 7, 2
	drum_note 5, 2
	drum_note 7, 2
	drum_note 1, 2
	drum_note 7, 2
	drum_note 1, 2
	drum_note 7, 2
	drum_note 7, 2
	drum_note 1, 2
	drum_note 5, 2
	drum_note 7, 2
	drum_note 1, 2
	drum_note 7, 2
	drum_note 5, 2
	drum_note 7, 2
	drum_note 1, 2
	drum_note 7, 2
	drum_note 5, 2
	drum_note 7, 2
	drum_note 1, 2
	drum_note 7, 2
	drum_note 1, 2
	drum_note 7, 2
	drum_note 7, 2
	drum_note 1, 2
	drum_note 5, 2
	drum_note 7, 2
	drum_note 1, 2
	drum_note 7, 2
	drum_note 5, 2
	drum_note 7, 2
	drum_note 1, 2
	drum_note 7, 2
	drum_note 5, 2
	drum_note 7, 2
	drum_note 1, 2
	drum_note 7, 2
	drum_note 1, 2
	drum_note 7, 2
	drum_note 7, 2
	drum_note 1, 2
	drum_note 5, 2
	drum_note 7, 2
	drum_note 1, 2
	drum_note 7, 2
	drum_note 5, 2
	drum_note 7, 2
	drum_note 1, 2
	drum_note 7, 2
	drum_note 5, 2
	drum_note 7, 2
	drum_note 1, 2
	drum_note 7, 2
	drum_note 1, 2
	drum_note 7, 2
	drum_note 7, 2
	drum_note 1, 2
	drum_note 5, 2
	drum_note 7, 2
	drum_note 1, 2
	drum_note 7, 2
	drum_note 5, 2
	drum_note 7, 2
	drum_note 1, 2
	drum_note 7, 2
	drum_note 5, 2
	drum_note 7, 2
	drum_note 1, 2
	drum_note 7, 2
	drum_note 1, 2
	drum_note 7, 2
	drum_note 7, 2
	drum_note 1, 2
	drum_note 5, 2
	drum_note 7, 2
	drum_note 1, 2
	drum_note 7, 2
	drum_note 5, 2
	drum_note 7, 2
	drum_note 1, 2
	drum_note 7, 2
	drum_note 5, 2
	drum_note 7, 2
	drum_note 1, 2
	drum_note 7, 2
	drum_note 1, 2
	drum_note 7, 4
	drum_note 1, 2
	drum_note 5, 2
	drum_note 2, 2
	drum_note 1, 2
	drum_note 7, 2
	drum_note 5, 2
	drum_note 7, 2
	drum_note 1, 2
	drum_note 7, 2
	drum_note 5, 2
	drum_note 7, 2
	drum_note 1, 2
	drum_note 7, 2
	drum_note 1, 2
	drum_note 7, 2
	drum_note 7, 2
	drum_note 1, 2
	drum_note 5, 2
	drum_note 7, 2
	drum_note 1, 2
	drum_note 7, 2
	drum_note 5, 2
	drum_note 7, 2
	drum_note 1, 2
	drum_note 7, 2
	drum_note 5, 2
	drum_note 7, 2
	drum_note 1, 2
	drum_note 7, 2
	drum_note 1, 2
	drum_note 7, 2
	drum_note 7, 2
	drum_note 1, 2
	drum_note 5, 2
	drum_note 7, 2
	drum_note 1, 2
	drum_note 7, 2
	drum_note 5, 2
	drum_note 7, 2
	drum_note 1, 2
	drum_note 7, 2
	drum_note 5, 2
	drum_note 7, 2
	drum_note 1, 2
	drum_note 7, 2
	drum_note 1, 2
	drum_note 7, 2
	drum_note 7, 2
	drum_note 1, 2
	drum_note 5, 2
	drum_note 7, 2
	drum_note 1, 2
	drum_note 7, 2
	drum_note 5, 2
	drum_note 7, 2
	drum_note 1, 2
	drum_note 7, 2
	drum_note 5, 2
	drum_note 7, 2
	drum_note 1, 2
	drum_note 7, 2
	drum_note 1, 2
	drum_note 7, 4
	drum_note 1, 2
	drum_note 5, 2
	drum_note 2, 2
	drum_note 1, 2
	drum_note 7, 2
	drum_note 5, 2
	drum_note 7, 2
	drum_note 1, 2
	drum_note 7, 2
	drum_note 5, 2
	drum_note 7, 2
	drum_note 1, 2
	drum_note 7, 2
	drum_note 1, 2
	drum_note 7, 2
	drum_note 7, 2
	drum_note 1, 2
	drum_note 5, 2
	drum_note 7, 2
	drum_note 1, 2
	drum_note 7, 2
	drum_note 5, 2
	drum_note 7, 2
	drum_note 1, 2
	drum_note 7, 2
	drum_note 5, 2
	drum_note 7, 2
	drum_note 1, 2
	drum_note 7, 2
	drum_note 1, 2
	drum_note 7, 2
	drum_note 7, 2
	drum_note 1, 2
	drum_note 5, 2
	drum_note 5, 2
	drum_note 1, 2
	drum_note 7, 2
	drum_note 5, 2
	drum_note 7, 2
	drum_note 1, 2
	drum_note 7, 2
	drum_note 5, 2
	drum_note 7, 2
	drum_note 1, 2
	drum_note 7, 2
	drum_note 1, 2
	drum_note 7, 2
	drum_note 7, 2
	drum_note 1, 2
	drum_note 5, 2
	drum_note 7, 2
	drum_note 1, 2
	drum_note 7, 2
	drum_note 5, 2
	drum_note 7, 2
	drum_note 1, 2
	drum_note 7, 2
	drum_note 5, 2
	drum_note 7, 2
	drum_note 1, 2
	drum_note 7, 2
	drum_note 1, 2
	drum_note 7, 2
	drum_note 7, 2
	drum_note 1, 2
	drum_note 5, 2
	drum_note 7, 2
	drum_note 1, 2
	drum_note 7, 2
	drum_note 5, 2
	drum_note 7, 2
	drum_note 1, 2
	drum_note 7, 2
	drum_note 5, 2
	drum_note 7, 2
	drum_note 1, 2
	drum_note 7, 2
	drum_note 1, 2
	drum_note 7, 2
	drum_note 7, 2
	drum_note 1, 2
	drum_note 5, 2
	drum_note 7, 2
	drum_note 1, 2
	drum_note 7, 2
	drum_note 5, 2
	drum_note 7, 2
	drum_note 1, 2
	drum_note 7, 2
	drum_note 5, 2
	drum_note 7, 2
	drum_note 1, 2
	drum_note 7, 2
	drum_note 1, 2
	drum_note 7, 2
	drum_note 7, 2
	drum_note 1, 2
	drum_note 5, 2
	drum_note 7, 2
	drum_note 1, 2
	drum_note 7, 2
	drum_note 5, 2
	drum_note 7, 2
	drum_note 1, 2
	drum_note 7, 2
	drum_note 5, 2
	drum_note 7, 2
	drum_note 1, 2
	drum_note 7, 2
	drum_note 1, 2
	drum_note 7, 2
	drum_note 7, 2
	drum_note 1, 2
	drum_note 5, 2
	drum_note 7, 2
	drum_note 1, 2
	drum_note 7, 2
	drum_note 5, 2
	drum_note 7, 2
	drum_note 1, 2
	drum_note 7, 2
	drum_note 5, 2
	drum_note 7, 2
	drum_note 1, 2
	drum_note 7, 2
	drum_note 1, 2
	drum_note 7, 2
	drum_note 7, 2
	drum_note 1, 2
	drum_note 5, 2
	drum_note 7, 2
	drum_note 1, 2
	drum_note 7, 2
	drum_note 5, 2
	drum_note 7, 2
	drum_note 1, 2
	drum_note 7, 2
	drum_note 5, 2
	drum_note 7, 2
	drum_note 1, 2
	drum_note 7, 2
	drum_note 1, 2
	drum_note 7, 2
	drum_note 7, 2
	drum_note 1, 2
	drum_note 5, 2
	drum_note 7, 2
	drum_note 1, 2
	drum_note 7, 2
	drum_note 5, 2
	drum_note 7, 2
	drum_note 1, 2
	drum_note 7, 2
	drum_note 5, 2
	drum_note 7, 2
	drum_note 1, 2
	drum_note 7, 2
	drum_note 1, 2
	drum_note 7, 4
	drum_note 1, 2
	drum_note 5, 2
	drum_note 2, 2
	drum_note 1, 2
	drum_note 7, 2
	drum_note 5, 2
	drum_note 7, 2
	drum_note 1, 2
	drum_note 7, 2
	drum_note 5, 2
	drum_note 7, 2
	drum_note 1, 2
	drum_note 7, 2
	drum_note 1, 2
	drum_note 7, 2
	drum_note 7, 2
	drum_note 1, 2
	drum_note 5, 2
	drum_note 7, 2
	drum_note 1, 2
	drum_note 7, 2
	drum_note 5, 2
	drum_note 7, 2
	drum_note 1, 2
	drum_note 7, 2
	drum_note 5, 2
	drum_note 7, 2
	drum_note 1, 2
	drum_note 7, 2
	drum_note 1, 2
	drum_note 7, 2
	drum_note 7, 2
	drum_note 1, 2
	drum_note 5, 2
	drum_note 7, 2
	drum_note 1, 2
	drum_note 7, 2
	drum_note 5, 2
	drum_note 7, 2
	drum_note 1, 2
	drum_note 7, 2
	drum_note 5, 2
	drum_note 7, 2
	drum_note 1, 2
	drum_note 7, 2
	drum_note 1, 2
	drum_note 7, 2
	drum_note 7, 2
	drum_note 1, 2
	drum_note 5, 2
	drum_note 7, 2
	drum_note 1, 2
	drum_note 7, 2
	drum_note 5, 2
	drum_note 7, 2
	drum_note 1, 2
	drum_note 7, 2
	drum_note 5, 2
	drum_note 7, 2
	drum_note 1, 2
	drum_note 7, 2
	drum_note 1, 2
	drum_note 7, 4
	drum_note 1, 2
	drum_note 5, 2
	drum_note 2, 2
	drum_note 1, 2
	drum_note 7, 2
	drum_note 5, 2
	drum_note 7, 2
	drum_note 1, 2
	drum_note 7, 2
	drum_note 5, 2
	drum_note 7, 2
	drum_note 1, 2
	drum_note 7, 2
	drum_note 1, 2
	drum_note 7, 2
	drum_note 7, 2
	drum_note 1, 2
	drum_note 5, 2
	drum_note 7, 2
	drum_note 1, 2
	drum_note 7, 2
	drum_note 5, 2
	drum_note 7, 2
	drum_note 1, 2
	drum_note 7, 2
	drum_note 5, 2
	drum_note 7, 2
	drum_note 1, 2
	drum_note 7, 2
	drum_note 1, 2
	drum_note 7, 2
	drum_note 1, 1
	drum_note 2, 1
	drum_note 3, 1
	drum_note 4, 1
	drum_note 5, 1
	drum_note 6, 1
	drum_note 7, 1
	drum_note 8, 1
	sound_loop 0, .mainloop
