Music_Diner:
	channel_count 2
	channel 1, Music_Diner_Ch1
	channel 2, Music_Diner_Ch2

Music_Diner_Ch1:
	volume 7, 7
	duty_cycle 0
	note_type 12, 4, 7
	tempo 277
.mainloop
	octave 4
	note E_, 1
	note D#, 1
	volume_envelope 5, 7
	note E_, 1
	octave 3
	volume_envelope 4, 7
	note B_, 1
	octave 4
	volume_envelope 5, 7
	note D_, 1
	volume_envelope 4, 7
	note C_, 1
	octave 3
	volume_envelope 6, 7
	note A_, 2
	rest 1
	volume_envelope 4, 7
	note C_, 1
	note E_, 1
	note A_, 1
	volume_envelope 5, 7
	note B_, 2
	rest 1
	volume_envelope 4, 7
	note E_, 1
	note G#, 1
	note B_, 1
	octave 4
	volume_envelope 5, 7
	note C_, 2
	rest 1
	octave 3
	volume_envelope 4, 7
	note E_, 1
	octave 4
	note E_, 1
	note D#, 1
	note E_, 1
	note D#, 1
	volume_envelope 5, 7
	note E_, 1
	octave 3
	volume_envelope 4, 7
	note B_, 1
	octave 4
	volume_envelope 5, 7
	note D_, 1
	volume_envelope 4, 7
	note C_, 1
	octave 3
	volume_envelope 5, 7
	note A_, 2
	rest 1
	volume_envelope 4, 7
	note C_, 1
	note E_, 1
	note A_, 1
	volume_envelope 5, 7
	note B_, 2
	rest 1
	volume_envelope 4, 7
	note E_, 1
	octave 4
	note C_, 1
	octave 3
	note B_, 1
	note A_, 2
	rest 2
	octave 4
	note E_, 1
	volume_envelope 3, 7
	note D#, 1
	volume_envelope 4, 7
	note E_, 1
	note D#, 1
	volume_envelope 5, 7
	note E_, 1
	octave 3
	volume_envelope 4, 7
	note B_, 1
	octave 4
	volume_envelope 5, 7
	note D_, 1
	volume_envelope 4, 7
	note C_, 1
	octave 3
	volume_envelope 6, 7
	note A_, 2
	rest 1
	volume_envelope 4, 7
	note C_, 1
	note E_, 1
	note A_, 1
	volume_envelope 5, 7
	note B_, 2
	rest 1
	volume_envelope 4, 7
	note E_, 1
	note G#, 1
	note B_, 1
	octave 4
	volume_envelope 5, 7
	note C_, 2
	rest 1
	octave 3
	volume_envelope 4, 7
	note E_, 1
	octave 4
	note E_, 1
	note D#, 1
	note E_, 1
	note D#, 1
	volume_envelope 5, 7
	note E_, 1
	octave 3
	volume_envelope 4, 7
	note B_, 1
	octave 4
	volume_envelope 5, 7
	note D_, 1
	volume_envelope 4, 7
	note C_, 1
	octave 3
	volume_envelope 5, 7
	note A_, 2
	rest 1
	volume_envelope 4, 7
	note C_, 1
	note E_, 1
	note A_, 1
	volume_envelope 5, 7
	note B_, 2
	rest 1
	volume_envelope 4, 7
	note E_, 1
	octave 4
	note C_, 1
	octave 3
	note B_, 1
	note A_, 2
	rest 1
	note B_, 1
	octave 4
	volume_envelope 5, 7
	note C_, 1
	note D_, 1
	volume_envelope 6, 7
	note E_, 3
	octave 3
	volume_envelope 4, 7
	note G_, 1
	octave 4
	volume_envelope 5, 7
	note F_, 1
	note E_, 1
	note D_, 3
	octave 3
	volume_envelope 4, 7
	note F_, 1
	octave 4
	volume_envelope 5, 7
	note E_, 1
	note D_, 1
	note C_, 3
	octave 3
	volume_envelope 4, 7
	note E_, 1
	octave 4
	volume_envelope 5, 7
	note D_, 1
	note C_, 1
	octave 3
	note B_, 2
	rest 1
	volume_envelope 4, 7
	note E_, 1
	octave 4
	volume_envelope 5, 7
	note E_, 1
	rest 2
	note E_, 1
	octave 5
	note E_, 1
	rest 2
	octave 4
	volume_envelope 4, 7
	note D#, 1
	volume_envelope 5, 7
	note E_, 1
	rest 2
	volume_envelope 4, 7
	note D#, 1
	note E_, 1
	note D#, 1
	note E_, 1
	note D#, 1
	note E_, 1
	octave 3
	note B_, 1
	octave 4
	note D_, 1
	note C_, 1
	octave 3
	volume_envelope 5, 7
	note A_, 2
	rest 1
	volume_envelope 4, 7
	note C_, 1
	note E_, 1
	note A_, 1
	volume_envelope 5, 7
	note B_, 2
	rest 1
	volume_envelope 4, 7
	note E_, 1
	note G#, 1
	note B_, 1
	octave 4
	volume_envelope 5, 7
	note C_, 2
	rest 1
	octave 3
	volume_envelope 4, 7
	note E_, 1
	octave 4
	note E_, 1
	note D#, 1
	note E_, 1
	note D#, 1
	volume_envelope 5, 7
	note E_, 1
	octave 3
	volume_envelope 4, 7
	note B_, 1
	octave 4
	volume_envelope 5, 7
	note D_, 1
	volume_envelope 4, 7
	note C_, 1
	octave 3
	volume_envelope 5, 7
	note A_, 2
	rest 1
	volume_envelope 4, 7
	note C_, 1
	note E_, 1
	note A_, 1
	volume_envelope 5, 7
	note B_, 2
	rest 1
	volume_envelope 4, 7
	note E_, 1
	octave 4
	note C_, 1
	octave 3
	note B_, 1
	note A_, 2
	rest 1
	volume_envelope 5, 7
	note B_, 1
	octave 4
	note C_, 1
	note D_, 1
	note E_, 3
	octave 3
	volume_envelope 4, 7
	note G_, 1
	octave 4
	volume_envelope 5, 7
	note F_, 1
	note E_, 1
	note D_, 3
	octave 3
	volume_envelope 4, 7
	note F_, 1
	octave 4
	volume_envelope 5, 7
	note E_, 1
	note D_, 1
	note C_, 3
	octave 3
	volume_envelope 4, 7
	note E_, 1
	octave 4
	volume_envelope 5, 7
	note D_, 1
	note C_, 1
	octave 3
	note B_, 2
	rest 1
	volume_envelope 4, 7
	note E_, 1
	octave 4
	volume_envelope 5, 7
	note E_, 1
	rest 2
	note E_, 1
	octave 5
	note E_, 1
	rest 2
	octave 4
	volume_envelope 4, 7
	note D#, 1
	volume_envelope 5, 7
	note E_, 1
	rest 2
	volume_envelope 4, 7
	note D#, 1
	note E_, 1
	note D#, 1
	note E_, 1
	note D#, 1
	note E_, 1
	octave 3
	note B_, 1
	octave 4
	note D_, 1
	volume_envelope 3, 7
	note C_, 1
	octave 3
	volume_envelope 5, 7
	note A_, 2
	rest 1
	volume_envelope 4, 7
	note C_, 1
	note E_, 1
	note A_, 1
	volume_envelope 5, 7
	note B_, 2
	rest 1
	volume_envelope 4, 7
	note E_, 1
	note G#, 1
	note B_, 1
	octave 4
	volume_envelope 5, 7
	note C_, 2
	rest 1
	octave 3
	volume_envelope 4, 7
	note E_, 1
	octave 4
	sound_loop 0, .mainloop

Music_Diner_Ch2:
	duty_cycle 0
	note_type 12, 4, 7
.mainloop
	rest 6
	octave 1
	note A_, 1
	octave 2
	volume_envelope 3, 7
	note E_, 1
	note A_, 1
	rest 3
	octave 1
	volume_envelope 4, 7
	note E_, 1
	octave 2
	volume_envelope 3, 7
	note E_, 1
	volume_envelope 4, 7
	note G#, 1
	rest 3
	octave 1
	note A_, 1
	octave 2
	note E_, 1
	note A_, 1
	rest 9
	octave 1
	note A_, 1
	octave 2
	note E_, 1
	note A_, 1
	rest 3
	octave 1
	note E_, 1
	octave 2
	note E_, 1
	note G#, 1
	rest 3
	octave 1
	note A_, 1
	octave 2
	volume_envelope 3, 7
	note E_, 1
	note A_, 1
	rest 9
	octave 1
	volume_envelope 4, 7
	note A_, 1
	octave 2
	volume_envelope 3, 7
	note E_, 1
	note A_, 1
	rest 3
	octave 1
	volume_envelope 4, 7
	note E_, 1
	octave 2
	volume_envelope 3, 7
	note E_, 1
	volume_envelope 4, 7
	note G#, 1
	rest 3
	octave 1
	note A_, 1
	octave 2
	note E_, 1
	note A_, 1
	rest 9
	octave 1
	note A_, 1
	octave 2
	note E_, 1
	note A_, 1
	rest 3
	octave 1
	note E_, 1
	octave 2
	note E_, 1
	note G#, 1
	rest 3
	octave 1
	note A_, 1
	octave 2
	volume_envelope 3, 7
	note E_, 1
	note A_, 1
	rest 3
	volume_envelope 5, 7
	note C_, 1
	volume_envelope 4, 7
	note G_, 1
	octave 3
	note C_, 1
	rest 3
	octave 1
	volume_envelope 5, 7
	note G_, 1
	octave 2
	volume_envelope 4, 7
	note G_, 1
	note B_, 1
	rest 3
	octave 1
	volume_envelope 5, 7
	note A_, 1
	octave 2
	volume_envelope 4, 7
	note E_, 1
	note A_, 1
	rest 3
	octave 1
	volume_envelope 5, 7
	note E_, 1
	octave 2
	volume_envelope 4, 7
	note E_, 1
	octave 3
	note E_, 1
	rest 2
	note E_, 1
	octave 4
	volume_envelope 5, 7
	note E_, 1
	rest 2
	volume_envelope 4, 7
	note D#, 1
	volume_envelope 5, 7
	note E_, 1
	rest 2
	volume_envelope 4, 7
	note D#, 1
	note E_, 1
	rest 9
	octave 1
	note A_, 1
	octave 2
	volume_envelope 3, 7
	note E_, 1
	note A_, 1
	rest 3
	octave 1
	volume_envelope 4, 7
	note E_, 1
	octave 2
	volume_envelope 3, 7
	note E_, 1
	volume_envelope 4, 7
	note G#, 1
	rest 3
	octave 1
	note A_, 1
	octave 2
	note E_, 1
	note A_, 1
	rest 9
	octave 1
	note A_, 1
	octave 2
	note E_, 1
	note A_, 1
	rest 3
	octave 1
	note E_, 1
	octave 2
	note E_, 1
	note G#, 1
	rest 3
	octave 1
	note A_, 1
	octave 2
	volume_envelope 3, 7
	note E_, 1
	note A_, 1
	rest 3
	volume_envelope 5, 7
	note C_, 1
	volume_envelope 4, 7
	note G_, 1
	octave 3
	note C_, 1
	rest 3
	octave 1
	volume_envelope 5, 7
	note G_, 1
	octave 2
	volume_envelope 4, 7
	note G_, 1
	note B_, 1
	rest 3
	octave 1
	volume_envelope 5, 7
	note A_, 1
	octave 2
	volume_envelope 4, 7
	note E_, 1
	note A_, 1
	rest 3
	octave 1
	volume_envelope 5, 7
	note E_, 1
	octave 2
	volume_envelope 4, 7
	note E_, 1
	octave 3
	note E_, 1
	rest 2
	note E_, 1
	octave 4
	volume_envelope 5, 7
	note E_, 1
	rest 2
	volume_envelope 4, 7
	note D#, 1
	volume_envelope 5, 7
	note E_, 1
	rest 2
	volume_envelope 4, 7
	note D#, 1
	note E_, 1
	rest 9
	octave 1
	note A_, 1
	octave 2
	volume_envelope 3, 7
	note E_, 1
	note A_, 1
	rest 3
	octave 1
	volume_envelope 4, 7
	note E_, 1
	octave 2
	volume_envelope 3, 7
	note E_, 1
	volume_envelope 4, 7
	note G#, 1
	rest 3
	octave 1
	note A_, 1
	octave 2
	note E_, 1
	note A_, 1
	rest 1
	sound_loop 0, .mainloop
