Music_BossWild:
	channel_count 4
	channel 1, Music_BossWild_Ch1
	channel 2, Music_BossWild_Ch2
	channel 3, Music_BossWild_Ch3
	channel 4, Music_BossWild_Ch4

Music_BossWild_Ch1:
	volume 7, 7
	note_type 12, 11, 7
.mainloop:
	tempo 115
	octave 4
	duty_cycle 1
	note D#, 2
	note E_, 1
	rest 1
	note C_, 1
	rest 1
	octave 3
	note A_, 1
	rest 1
	note G#, 1
	rest 1
	note A_, 1
	rest 1
	octave 4
	note C_, 1
	rest 1
	note E_, 2
	note G_, 1
	rest 1
	note F#, 1
	rest 1
	note D_, 1
	rest 1
	note F_, 1
	rest 1
	note E_, 4
	note C_, 1
	rest 3
	note D#, 2
	note E_, 1
	rest 1
	note C_, 1
	rest 1
	octave 3
	note A_, 1
	rest 1
	note G#, 1
	rest 1
	note A_, 1
	rest 1
	octave 4
	note C_, 1
	rest 1
	note E_, 2
	note G_, 1
	rest 1
	note F#, 1
	rest 1
	note D_, 1
	rest 1
	note F_, 1
	rest 1
	note E_, 4
	note C_, 1
	rest 3
	note G#, 2
	note A_, 1
	rest 1
	note F_, 1
	rest 1
	note D_, 1
	rest 1
	note C#, 1
	rest 1
	note D_, 1
	rest 1
	note F_, 1
	rest 1
	note A_, 2
	octave 5
	note C_, 1
	rest 1
	octave 4
	note B_, 1
	rest 1
	note G_, 1
	rest 1
	note A#, 1
	rest 1
	note A_, 4
	note F_, 1
	rest 3
	note G#, 2
	note A_, 1
	rest 1
	note F_, 1
	rest 1
	note D_, 1
	rest 1
	note C#, 1
	rest 1
	note D_, 1
	rest 1
	note F_, 1
	rest 1
	note A_, 2
	octave 5
	note C_, 1
	rest 1
	octave 4
	note B_, 1
	rest 1
	note G_, 1
	rest 1
	note A#, 1
	rest 1
	note A_, 4
	note F_, 1
	rest 3
	octave 5
	note E_, 4
	note C_, 4
	octave 4
	note A_, 4
	note F_, 4
	note E_, 4
	note C_, 4
	octave 3
	note A_, 4
	note F_, 4
	note E_, 4
	note C_, 4
	octave 2
	note A_, 4
	note F_, 4
	note E_, 1
	note F_, 1
	note G#, 1
	note B_, 1
	octave 3
	note D_, 1
	note E_, 1
	note G#, 1
	note B_, 1
	octave 4
	note D_, 1
	note E_, 1
	note G#, 1
	note B_, 1
	octave 3
	note D_, 2
	note F_, 2
	note D_, 2
	note F_, 2
	note A_, 2
	note G#, 2
	rest 2
	note F_, 2
	note D_, 2
	note F_, 2
	note A_, 2
	note G#, 2
	note F_, 2
	note G#, 2
	octave 4
	note C_, 2
	octave 3
	note B_, 2
	note A_, 2
	octave 4
	note C_, 2
	octave 3
	note A_, 2
	octave 4
	note C_, 2
	note E_, 2
	note D#, 2
	rest 2
	note C_, 2
	octave 3
	note A_, 2
	octave 4
	note C_, 2
	note G_, 2
	note F#, 2
	note D_, 2
	note F_, 2
	note A_, 2
	note B_, 2
	note A_, 14
	note A_, 1
	note B_, 1
	note A_, 8
	note G_, 8
	note A_, 8
	note G_, 16
	note G_, 8
	note F_, 14
	note F_, 1
	note G_, 1
	note F_, 8
	note D_, 8
	note E_, 16
	note G#, 16
	note A_, 14
	note A_, 1
	note B_, 1
	note A_, 8
	note G_, 8
	note A_, 8
	note G_, 16
	note G_, 8
	note A_, 14
	note A_, 1
	note A#, 1
	note A_, 8
	note G_, 8
	note A_, 16
	note G#, 16
	sound_loop 0, .mainloop

Music_BossWild_Ch2:
	note_type 12, 11, 7
.mainloop:
	octave 3
	duty_cycle 1
	note C_, 2
	note C_, 1
	rest 1
	note C_, 1
	rest 1
	note C_, 1
	rest 1
	note C_, 1
	rest 1
	note C_, 1
	rest 1
	note C_, 1
	rest 1
	note C_, 2
	note D_, 1
	rest 1
	note D#, 1
	rest 1
	note F_, 1
	rest 1
	note G_, 1
	rest 1
	note A_, 4
	note A#, 1
	rest 3
	note C_, 2
	note C_, 1
	rest 1
	note C_, 1
	rest 1
	note C_, 1
	rest 1
	note C_, 1
	rest 1
	note C_, 1
	rest 1
	note C_, 1
	rest 1
	note C_, 2
	note D_, 1
	rest 1
	note D#, 1
	rest 1
	note F_, 1
	rest 1
	note G_, 1
	rest 1
	note A_, 4
	note A#, 1
	rest 3
	note F_, 2
	note F_, 1
	rest 1
	note F_, 1
	rest 1
	note F_, 1
	rest 1
	note F_, 1
	rest 1
	note F_, 1
	rest 1
	note F_, 1
	rest 1
	note F_, 2
	note G_, 1
	rest 1
	note G#, 1
	rest 1
	note A#, 1
	rest 1
	octave 4
	note C_, 1
	rest 1
	note D_, 4
	note D#, 1
	rest 3
	octave 3
	note F_, 2
	note F_, 1
	rest 1
	note F_, 1
	rest 1
	note F_, 1
	rest 1
	note F_, 1
	rest 1
	note F_, 1
	rest 1
	note F_, 1
	rest 1
	note F_, 2
	note G_, 1
	rest 1
	note G#, 1
	rest 1
	note A#, 1
	rest 1
	octave 4
	note C_, 1
	rest 1
	note D_, 4
	note D#, 1
	rest 3
	note A_, 4
	note F_, 4
	note E_, 4
	note C_, 4
	octave 3
	note A_, 4
	note F_, 4
	note E_, 4
	note C_, 4
	octave 2
	note A_, 4
	note F_, 4
	note E_, 4
	note C_, 4
	octave 1
	note B_, 1
	octave 2
	note C_, 1
	note E_, 1
	note G#, 1
	note B_, 1
	octave 3
	note D_, 1
	note E_, 1
	note G#, 1
	note B_, 1
	octave 4
	note D_, 1
	note E_, 1
	note G#, 1
	rest 16
	rest 16
	rest 16
	rest 16
	note C_, 2
	octave 3
	note A_, 1
	octave 4
	note C_, 1
	note D_, 2
	octave 3
	note A_, 2
	octave 4
	note C_, 2
	octave 3
	note A_, 2
	octave 4
	note D_, 2
	octave 3
	note A_, 2
	octave 4
	note C_, 2
	octave 3
	note A_, 1
	octave 4
	note C_, 1
	note D_, 2
	octave 3
	note A_, 2
	octave 4
	note C_, 2
	octave 3
	note A_, 2
	octave 4
	note D_, 2
	octave 3
	note A_, 2
	note B_, 2
	note G_, 1
	note A_, 1
	note B_, 2
	note G_, 2
	note A_, 2
	note G_, 2
	note B_, 2
	note G_, 2
	note B_, 2
	note G_, 1
	note A_, 1
	note B_, 2
	note G_, 2
	note A_, 2
	note G_, 2
	note B_, 2
	note G_, 2
	note A_, 2
	note E_, 1
	note F_, 1
	note B_, 2
	note F_, 2
	note A_, 2
	note F_, 2
	note B_, 2
	note F_, 2
	note A_, 2
	note E_, 1
	note F_, 1
	note B_, 2
	note F_, 2
	note A_, 2
	note F_, 2
	note B_, 2
	note F_, 2
	note G_, 2
	note D_, 1
	note E_, 1
	note A_, 2
	note E_, 2
	note G_, 2
	note E_, 2
	note A_, 2
	note E_, 2
	note G#, 2
	note E_, 1
	note F#, 1
	note G#, 2
	note E_, 2
	note A_, 2
	note E_, 2
	note B_, 2
	note E_, 2
	octave 4
	note C_, 2
	octave 3
	note A_, 1
	octave 4
	note C_, 1
	note D_, 2
	octave 3
	note A_, 2
	octave 4
	note C_, 2
	octave 3
	note A_, 2
	octave 4
	note D_, 2
	octave 3
	note A_, 2
	octave 4
	note C_, 2
	octave 3
	note A_, 1
	octave 4
	note C_, 1
	note D_, 2
	octave 3
	note A_, 2
	octave 4
	note C_, 2
	octave 3
	note A_, 2
	octave 4
	note D_, 2
	octave 3
	note A_, 2
	note B_, 2
	note G_, 1
	note A_, 1
	note B_, 2
	note G_, 2
	note A_, 2
	note G_, 2
	note B_, 2
	note G_, 2
	note B_, 2
	note G_, 1
	note A_, 1
	note B_, 2
	note G_, 2
	note A_, 2
	note G_, 2
	note B_, 2
	note G_, 2
	note A_, 2
	note D_, 2
	note F_, 2
	note D_, 2
	note A_, 2
	note D_, 2
	note F_, 2
	note D_, 2
	octave 4
	note C_, 2
	octave 3
	note D_, 2
	note G_, 2
	note D_, 2
	octave 4
	note C_, 2
	octave 3
	note D_, 2
	note G_, 2
	note D_, 2
	octave 4
	note D_, 2
	octave 3
	note E_, 2
	note A_, 2
	note E_, 2
	octave 4
	note D_, 2
	octave 3
	note E_, 2
	note A_, 2
	note E_, 2
	octave 4
	note D_, 2
	octave 3
	note B_, 2
	note G#, 2
	note F_, 2
	note E_, 1
	note F#, 1
	note G#, 1
	note A_, 1
	note B_, 1
	octave 4
	note C_, 1
	note D_, 1
	note E_, 1
	sound_loop 0, .mainloop

Music_BossWild_Ch3:
	note_type 12, 1, 0
.mainloop:
	octave 1
	volume_envelope 2, 0
	note A_, 14
	note A_, 16
	note A_, 16
	note A_, 16
	octave 2
	note D_, 16
	note D_, 16
	note D_, 16
	note D_, 15
	rest 3
	octave 1
	note A_, 12
	octave 2
	note E_, 4
	note A_, 16
	octave 1
	note A_, 16
	note G#, 3
	note B_, 3
	octave 2
	note E_, 3
	note G#, 3
	note D_, 2
	note F_, 2
	note D_, 2
	note F_, 2
	note A_, 2
	note G#, 2
	rest 2
	note F_, 2
	note D_, 2
	note F_, 2
	note A_, 2
	note G#, 2
	note F_, 2
	note G#, 2
	octave 3
	note C_, 2
	octave 2
	note B_, 2
	note A_, 2
	octave 3
	note C_, 2
	octave 2
	note A_, 2
	octave 3
	note C_, 2
	note E_, 2
	note D#, 2
	rest 2
	note C_, 2
	octave 2
	note A_, 2
	octave 3
	note C_, 2
	note G_, 2
	note F#, 2
	note D_, 2
	note E_, 2
	octave 4
	note C_, 2
	octave 3
	note B_, 2
	octave 2
	volume_envelope 1, 0
	note F_, 4
	octave 1
	note B_, 4
	octave 2
	note F_, 4
	octave 1
	note B_, 4
	octave 2
	note F_, 4
	octave 1
	note B_, 4
	octave 2
	note F_, 4
	octave 1
	note B_, 4
	octave 2
	note E_, 4
	note C#, 4
	note E_, 4
	note C#, 4
	note E_, 4
	note C#, 4
	note E_, 4
	note C#, 4
	note D_, 4
	note C_, 4
	note D_, 4
	note C_, 4
	note D_, 4
	note C_, 4
	note D_, 4
	note C_, 4
	note C_, 16
	note E_, 6
	note F#, 6
	note G#, 4
	note F_, 4
	octave 1
	note B_, 4
	octave 2
	note F_, 4
	octave 1
	note B_, 4
	octave 2
	note F_, 4
	octave 1
	note B_, 4
	octave 2
	note F_, 4
	octave 1
	note B_, 4
	octave 2
	note E_, 4
	note C#, 4
	note E_, 4
	note C#, 4
	note E_, 4
	note C#, 4
	note E_, 4
	note C#, 4
	octave 1
	note A#, 4
	octave 2
	note F_, 2
	note A#, 2
	octave 1
	note A#, 4
	octave 2
	note F_, 2
	note A#, 2
	note D#, 4
	note G_, 2
	note A#, 2
	note D#, 4
	note G_, 2
	note A#, 2
	note E_, 4
	octave 1
	note B_, 2
	octave 2
	note D_, 2
	note E_, 4
	octave 1
	note B_, 2
	octave 2
	note D_, 2
	note E_, 4
	octave 1
	note B_, 2
	octave 2
	note D_, 2
	note E_, 4
	octave 1
	note B_, 2
	octave 2
	note D_, 2
	sound_loop 0, .mainloop

Music_BossWild_Ch4:
	toggle_noise 1
	drum_speed 12
.mainloop:
	toggle_noise
	toggle_noise 6
	drum_note 4, 2
	drum_note 5, 2
	drum_note 1, 2
	drum_note 10, 2
	drum_note 9, 2
	drum_note 10, 2
	drum_note 1, 2
	drum_note 5, 2
	drum_note 8, 2
	drum_note 7, 2
	drum_note 3, 2
	drum_note 6, 2
	drum_note 5, 4
	drum_note 1, 4
	drum_note 4, 2
	drum_note 5, 2
	drum_note 1, 2
	drum_note 10, 2
	drum_note 9, 2
	drum_note 10, 2
	drum_note 1, 2
	drum_note 5, 2
	drum_note 8, 2
	drum_note 7, 2
	drum_note 3, 2
	drum_note 6, 2
	drum_note 5, 4
	drum_note 1, 4
	drum_note 9, 2
	drum_note 10, 2
	drum_note 6, 2
	drum_note 3, 2
	drum_note 2, 2
	drum_note 3, 2
	drum_note 6, 2
	drum_note 10, 2
	drum_note 1, 2
	drum_note 12, 2
	drum_note 8, 2
	drum_note 11, 2
	drum_note 10, 4
	drum_note 6, 4
	drum_note 9, 2
	drum_note 10, 2
	drum_note 6, 2
	drum_note 3, 2
	drum_note 2, 2
	drum_note 3, 2
	drum_note 6, 2
	drum_note 10, 2
	drum_note 1, 2
	drum_note 12, 2
	drum_note 8, 2
	drum_note 11, 2
	drum_note 10, 4
	drum_note 6, 4
	drum_note 5, 4
	drum_note 1, 4
	drum_note 10, 4
	drum_note 6, 4
	drum_note 5, 4
	drum_note 1, 4
	drum_note 10, 4
	drum_note 6, 4
	drum_note 5, 4
	drum_note 1, 4
	drum_note 10, 4
	drum_note 6, 4
	drum_note 5, 1
	drum_note 6, 1
	drum_note 9, 1
	drum_note 12, 1
	drum_note 3, 1
	drum_note 5, 1
	drum_note 9, 1
	drum_note 12, 1
	drum_note 3, 1
	drum_note 5, 1
	drum_note 9, 1
	drum_note 12, 1
	drum_note 3, 2
	drum_note 6, 2
	drum_note 3, 2
	drum_note 6, 2
	drum_note 10, 2
	drum_note 9, 4
	drum_note 6, 2
	drum_note 3, 2
	drum_note 6, 2
	drum_note 10, 2
	drum_note 9, 2
	drum_note 6, 2
	drum_note 9, 2
	drum_note 1, 2
	drum_note 12, 2
	drum_note 10, 2
	drum_note 1, 2
	drum_note 10, 2
	drum_note 1, 2
	drum_note 5, 2
	drum_note 4, 4
	drum_note 1, 2
	drum_note 10, 2
	drum_note 1, 2
	drum_note 8, 2
	drum_note 7, 2
	drum_note 3, 2
	drum_note 5, 6
	drum_note 10, 14
	drum_note 10, 1
	drum_note 12, 1
	drum_note 10, 8
	drum_note 8, 8
	drum_note 10, 8
	drum_note 8, 16
	drum_note 8, 8
	drum_note 6, 14
	drum_note 6, 1
	drum_note 8, 1
	drum_note 6, 8
	drum_note 3, 8
	drum_note 5, 16
	drum_note 9, 16
	drum_note 10, 14
	drum_note 10, 1
	drum_note 12, 1
	drum_note 10, 8
	drum_note 8, 8
	drum_note 10, 8
	drum_note 8, 16
	drum_note 8, 8
	drum_note 10, 14
	drum_note 10, 1
	drum_note 11, 1
	drum_note 10, 8
	drum_note 8, 8
	drum_note 10, 16
	drum_note 9, 16
	sound_loop 0, .mainloop
