Music_BurntLab:
	channel_count 3
	channel 1, Music_BurntLab_Ch1
	channel 2, Music_BurntLab_Ch2
	channel 3, Music_BurntLab_Ch3

Music_BurntLab_Ch1:
	volume 7, 7
	duty_cycle 2
	note_type 12, 10, 7
	tempo 200
.mainloop:
	octave 1
	volume_envelope 8, 7
	note D_, 2
	octave 2
	note D_, 2
	note A_, 2
	octave 3
	note D_, 10
	octave 1
	note G_, 15
	rest 1
	octave 2
	note C_, 15
	rest 1
	octave 1
	note F_, 15
	rest 1
	note A#, 15
	rest 1
	note E_, 15
	rest 3
	note A_, 2
	octave 2
	note G_, 2
	note B_, 9
	rest 3
	octave 1
	note A_, 2
	octave 2
	note G_, 2
	note A#, 9
	rest 3
	octave 1
	note D_, 2
	note A_, 2
	octave 2
	note F_, 2
	note A_, 10
	octave 1
	note A_, 2
	octave 2
	note F_, 2
	octave 1
	note A_, 2
	octave 2
	note F_, 2
	octave 1
	note A_, 2
	octave 2
	note F_, 2
	octave 1
	note A_, 2
	note D_, 2
	note A_, 2
	octave 2
	note F_, 2
	octave 1
	note A_, 2
	octave 2
	note F_, 2
	octave 1
	note A_, 2
	octave 2
	note F_, 2
	octave 1
	note A_, 2
	note D_, 15
	note A_, 1
	note D_, 15
	note A_, 1
	rest 16
	rest 16
	rest 16
	rest 16
	rest 16
	rest 16
	rest 16
	rest 16
	rest 16
	rest 16
	rest 16
	rest 16
	rest 16
	rest 16
	rest 16
	rest 16
	rest 16
	rest 16
	rest 16
	rest 16
	rest 16
	rest 16
	rest 16
	rest 16
	rest 16
	rest 16
	rest 16
	rest 16
	rest 16
	rest 16
	rest 16
	rest 16
	rest 16
	rest 16
	sound_loop 0, .mainloop

Music_BurntLab_Ch2:
	duty_cycle 1
	note_type 12, 10, 7
.mainloop:
	rest 16
	rest 16
	rest 16
	rest 16
	rest 16
	rest 16
	rest 16
	rest 16
	rest 16
	rest 16
	rest 16
	rest 16
	rest 16
	octave 1
	volume_envelope 12, 7
	duty_cycle 0
	note D_, 4
	note A_, 4
	note A_, 6
	note A_, 2
	note A_, 4
	note G_, 2
	note G_, 6
	rest 2
	note G_, 2
	octave 2
	note C_, 4
	octave 1
	note A#, 4
	note A_, 2
	note G_, 4
	note A_, 16
	note A_, 1
	rest 1
	note F_, 4
	note F_, 4
	note F_, 6
	note A_, 2
	note A_, 4
	note G_, 2
	note G_, 6
	rest 2
	note F_, 2
	note F_, 4
	note E_, 4
	note G_, 2
	note A_, 4
	note F_, 16
	note F_, 1
	rest 1
	note D_, 4
	note A_, 4
	note A_, 6
	note A_, 2
	note A_, 4
	note G_, 2
	note G_, 6
	rest 2
	note G_, 2
	octave 2
	note C_, 4
	octave 1
	note A#, 4
	note A_, 2
	note G_, 4
	note A_, 16
	note A_, 1
	rest 1
	note F_, 4
	note F_, 4
	note F_, 6
	note A_, 2
	note A_, 4
	note G_, 2
	note G_, 6
	rest 2
	note F_, 2
	note F_, 4
	note E_, 4
	note G_, 2
	note E_, 4
	note D_, 16
	note D_, 1
	rest 1
	note C_, 4
	note A#, 4
	note A#, 6
	octave 2
	note C_, 2
	octave 1
	note A#, 4
	note A_, 2
	note A_, 6
	rest 2
	note C_, 2
	note C_, 4
	note A#, 4
	note A#, 2
	octave 2
	note C_, 4
	octave 1
	note A_, 8
	note A#, 2
	note A_, 2
	note G_, 2
	note F_, 2
	note E_, 2
	note D_, 4
	note A_, 4
	note A_, 6
	octave 2
	note D_, 2
	octave 1
	note A_, 4
	note G_, 2
	note G_, 6
	rest 2
	note F_, 2
	note F_, 4
	note E_, 4
	note G_, 2
	note E_, 4
	note D_, 9
	rest 3
	note D_, 2
	note F_, 2
	note A_, 2
	octave 2
	note D_, 8
	note D_, 8
	note D_, 2
	note C_, 1
	octave 1
	note A#, 1
	octave 2
	note C_, 7
	rest 3
	octave 1
	note A_, 2
	note A#, 4
	note A_, 4
	note G_, 2
	octave 2
	note D_, 4
	octave 1
	note A_, 9
	rest 3
	note D_, 2
	note F_, 2
	note A_, 2
	octave 2
	note D_, 8
	note D_, 8
	note D_, 2
	note C_, 1
	octave 1
	note A#, 1
	octave 2
	note C_, 7
	rest 3
	octave 1
	note A_, 2
	note A#, 4
	note A_, 4
	note G_, 2
	note F_, 4
	note E_, 14
	note A_, 16
	note A_, 5
	octave 2
	note E_, 1
	note D_, 1
	note E_, 1
	note G_, 1
	note A_, 1
	octave 3
	note C#, 1
	note G_, 1
	note A_, 8
	sound_loop 0, .mainloop

Music_BurntLab_Ch3:
	note_type 12, 1, 0
.mainloop:
	rest 8
	octave 4
	volume_envelope 2, 0
	note E_, 2
	note F_, 2
	note A_, 2
	octave 5
	note D_, 2
	note C_, 2
	octave 4
	note A#, 2
	note A_, 2
	note A#, 2
	octave 5
	note A_, 2
	note G_, 2
	note F#, 2
	note G_, 2
	note F_, 2
	note E_, 2
	note D#, 2
	note E_, 2
	note D_, 2
	note C_, 2
	octave 4
	note B_, 2
	octave 5
	note C_, 2
	octave 4
	note A#, 2
	note A_, 2
	note G#, 2
	note A_, 2
	octave 5
	note G_, 2
	note F_, 2
	note E_, 2
	note F_, 2
	note E_, 2
	note D_, 2
	note C#, 2
	note D_, 2
	note C_, 2
	octave 4
	note A#, 2
	note A_, 2
	note A#, 2
	note A_, 2
	note G_, 2
	note F#, 2
	note G_, 2
	octave 5
	note F_, 2
	note E_, 2
	note D#, 2
	note E_, 2
	octave 4
	note E_, 8
	note D_, 2
	note G_, 2
	note B_, 2
	octave 5
	note E_, 2
	octave 4
	note G_, 8
	note C#, 2
	note F#, 2
	note A#, 2
	octave 5
	note D#, 2
	octave 4
	note E_, 7
	rest 3
	note E_, 2
	note F_, 2
	note A_, 2
	octave 5
	note E_, 4
	note D_, 4
	note C#, 4
	octave 4
	note F_, 8
	note B_, 8
	note A#, 4
	note D_, 4
	note D_, 4
	note D_, 4
	note D_, 4
	note D_, 4
	note D_, 4
	note D_, 4
	note D_, 4
	note D_, 4
	note D_, 4
	note C#, 4
	note C_, 4
	octave 3
	note A#, 4
	note A#, 4
	note A#, 4
	note A#, 4
	note A#, 4
	note A#, 4
	note A#, 4
	note A#, 4
	octave 4
	note C_, 4
	note C_, 4
	note C#, 4
	note D_, 4
	octave 3
	note A_, 4
	note A_, 4
	note A_, 4
	note A_, 4
	note G_, 4
	note G_, 4
	note G_, 4
	note G_, 4
	note E_, 4
	note E_, 4
	note E_, 4
	note E_, 4
	note F_, 4
	note F_, 4
	note F_, 4
	note F_, 4
	note A_, 4
	note A_, 4
	note A_, 4
	note A_, 4
	note A_, 4
	note A_, 4
	note A_, 4
	note A_, 4
	note G_, 4
	note G_, 4
	note G_, 4
	note G_, 4
	note F_, 4
	note F_, 4
	note F_, 4
	note F_, 4
	note F_, 4
	note F_, 4
	note F_, 4
	note F_, 4
	note E_, 4
	note E_, 4
	note G_, 4
	note G_, 4
	note G_, 4
	note G_, 4
	note G_, 4
	note G_, 4
	note E_, 4
	note E_, 4
	note F_, 4
	note A_, 4
	note A_, 4
	note A_, 4
	note G_, 4
	note G_, 4
	note G_, 4
	note G_, 4
	note F_, 4
	note F_, 4
	note A_, 4
	note A_, 4
	note G_, 4
	note G_, 4
	note G_, 4
	note G_, 4
	note G_, 4
	note G_, 4
	note F_, 4
	note F_, 4
	note F_, 4
	note F_, 4
	note G_, 4
	note G_, 4
	note G_, 4
	note G_, 4
	note E_, 4
	note E_, 4
	note E_, 4
	note E_, 4
	note F_, 4
	note F_, 4
	note F_, 4
	octave 4
	note C_, 4
	note D_, 4
	note D_, 4
	note D_, 4
	note D_, 4
	note E_, 4
	note E_, 4
	note D_, 4
	note D_, 4
	note D_, 4
	note D_, 4
	note D_, 4
	note D_, 4
	note C_, 4
	note C_, 4
	note C_, 4
	note C_, 4
	note D_, 4
	note D_, 4
	note D_, 4
	note D_, 4
	note E_, 4
	note E_, 4
	note D_, 4
	note D_, 4
	note D_, 4
	note D_, 4
	note D_, 4
	note D_, 4
	note D_, 4
	note D_, 4
	note D_, 4
	note D_, 4
	note C#, 4
	note C#, 4
	note C#, 4
	note C#, 16
	note C#, 4
	sound_loop 0, .mainloop
