Music_Chains:
	channel_count 4
	channel 1, Music_Chains_Ch1
	channel 2, Music_Chains_Ch2
	channel 3, Music_Chains_Ch3
	channel 4, Music_Chains_Ch4

Music_Chains_Ch1:
	volume 7, 7
	duty_cycle 0
	note_type 12, 10, 7
	tempo 156
.mainloop:
	rest 16
	rest 16
	rest 16
	rest 16
	rest 16
	rest 10
	octave 3
	volume_envelope 14, 7
	note G_, 2
	note A_, 2
	note G_, 2
	octave 4
	note C_, 2
	note C_, 2
	rest 6
	note D_, 4
	octave 3
	note A#, 2
	rest 2
	note A_, 4
	note A#, 10
	rest 2
	note G_, 2
	octave 4
	note C_, 2
	note C_, 6
	rest 2
	octave 3
	note G_, 2
	octave 4
	note C_, 2
	note D_, 4
	note F_, 4
	note E_, 4
	note C_, 10
	rest 6
	octave 3
	note A_, 2
	octave 4
	note C_, 2
	note D_, 2
	rest 2
	note F_, 4
	note D#, 4
	note D_, 4
	note C_, 4
	note G_, 10
	rest 2
	note A_, 2
	note F_, 2
	note G_, 2
	note G_, 4
	rest 2
	note C_, 2
	note C_, 2
	note C_, 4
	octave 5
	note C_, 4
	octave 4
	note A#, 2
	note A#, 2
	note A_, 2
	note A_, 2
	note G_, 2
	rest 2
	note A#, 4
	note A_, 2
	note A_, 2
	note G_, 2
	note G_, 2
	note F_, 2
	rest 2
	note G#, 4
	note G_, 2
	note G_, 2
	note F_, 2
	note F_, 2
	note G_, 6
	rest 14
	note C_, 4
	octave 3
	note A#, 2
	note G_, 2
	octave 4
	note C_, 4
	octave 3
	note A#, 2
	note G_, 2
	octave 4
	note C_, 4
	octave 3
	note A_, 2
	rest 2
	note G_, 2
	octave 4
	note C_, 2
	note D_, 2
	note C_, 2
	note F_, 4
	note E_, 4
	octave 3
	note G_, 4
	octave 4
	note D#, 4
	octave 3
	note A_, 2
	octave 4
	note C_, 8
	octave 3
	note A#, 4
	octave 4
	note C_, 2
	note C_, 6
	rest 4
	octave 3
	note A#, 4
	octave 4
	note C_, 2
	note C_, 6
	rest 10
	note C_, 2
	note D_, 2
	note D_, 2
	note D_, 2
	note D_, 2
	note D_, 2
	note F_, 2
	note F_, 2
	note F_, 4
	note D#, 2
	note F_, 2
	note D#, 2
	note F_, 4
	note G_, 4
	note E_, 2
	note D_, 2
	note C_, 4
	rest 16
	rest 16
	rest 16
	rest 2
	octave 3
	note G_, 2
	note A_, 2
	note G_, 2
	octave 4
	note C_, 2
	note C_, 2
	rest 2
	note C_, 4
	note D_, 4
	octave 3
	note A#, 2
	rest 2
	note A_, 4
	note A#, 10
	rest 2
	note G_, 2
	octave 4
	note C_, 2
	note C_, 6
	rest 2
	octave 3
	note G_, 2
	octave 4
	note C_, 2
	note D_, 4
	note F_, 4
	note E_, 4
	note C_, 10
	rest 6
	octave 3
	note A_, 2
	octave 4
	note C_, 2
	note D_, 2
	rest 2
	note F_, 4
	note D#, 4
	note D_, 4
	note C_, 4
	note G_, 10
	rest 2
	note A_, 2
	note F_, 2
	note G_, 2
	note G_, 4
	rest 2
	note C_, 2
	note C_, 2
	note C_, 4
	octave 5
	note C_, 4
	octave 4
	note A#, 2
	note A#, 2
	note A_, 2
	note A_, 2
	note G_, 2
	rest 2
	note A#, 4
	note A_, 2
	note A_, 2
	note G_, 2
	note G_, 2
	note F_, 2
	rest 2
	note G#, 4
	note G_, 2
	note G_, 2
	note F_, 2
	note F_, 2
	note G_, 6
	rest 14
	note C_, 4
	octave 3
	note A#, 2
	note G_, 2
	octave 4
	note C_, 4
	octave 3
	note A#, 2
	note G_, 2
	octave 4
	note C_, 4
	octave 3
	note A_, 2
	rest 2
	note G_, 2
	octave 4
	note C_, 2
	note D_, 2
	note C_, 2
	note F_, 4
	note E_, 4
	octave 3
	note G_, 4
	octave 4
	note D#, 4
	octave 3
	note A_, 2
	octave 4
	note C_, 8
	octave 3
	note A#, 4
	octave 4
	note C_, 2
	note C_, 6
	rest 4
	octave 3
	note A#, 4
	octave 4
	note C_, 2
	note C_, 6
	rest 10
	note C_, 2
	note D_, 2
	note D_, 2
	note D_, 2
	note D_, 2
	note D_, 2
	note F_, 2
	note F_, 2
	note F_, 4
	note D#, 2
	note F_, 2
	note D#, 2
	note F_, 4
	note G_, 4
	note E_, 2
	note D_, 2
	note C_, 4
	rest 14
	note C_, 2
	note C_, 2
	note D_, 2
	note C_, 2
	note F_, 4
	note E_, 4
	note D_, 4
	note D#, 4
	note D_, 2
	note C_, 16
	sound_loop 0, .mainloop

Music_Chains_Ch2:
	duty_cycle 0
	note_type 12, 12, 7
.mainloop:
	rest 16
	rest 16
	octave 4
	volume_envelope 14, 7
	note G_, 16
	note G_, 16
	note G_, 16
	note G_, 16
	note E_, 16
	rest 8
	note G_, 16
	note E_, 16
	note F_, 16
	note F_, 16
	octave 5
	note F_, 16
	note G_, 16
	note G_, 16
	note E_, 16
	note A#, 16
	note C_, 16
	note C_, 16
	octave 4
	note E_, 16
	octave 5
	note C_, 16
	note D_, 16
	octave 4
	note A_, 16
	note E_, 16
	octave 5
	note C_, 16
	note D_, 16
	note F_, 16
	octave 4
	note G_, 16
	note G_, 16
	note G_, 16
	note G_, 16
	note E_, 16
	rest 8
	note G_, 16
	note E_, 16
	note F_, 16
	note F_, 16
	octave 5
	note F_, 16
	note G_, 16
	note G_, 16
	note E_, 16
	note A#, 16
	note C_, 16
	note C_, 16
	octave 4
	note E_, 16
	octave 5
	note C_, 16
	note D_, 16
	octave 4
	note A_, 16
	note E_, 16
	octave 5
	note C_, 16
	note D_, 16
	note F_, 16
	octave 4
	note G_, 16
	note E_, 16
	note F_, 16
	note F_, 16
	octave 3
	sound_loop 0, .mainloop

Music_Chains_Ch3:
	note_type 12, 1, 0
.mainloop:
	octave 1
	volume_envelope 1, 0
	note F_, 4
	note F_, 4
	note F_, 4
	note F_, 4
	note F_, 4
	note F_, 4
	note F_, 4
	note F_, 4
	note C_, 2
	octave 2
	note C_, 2
	octave 1
	note C_, 2
	octave 2
	note C_, 2
	octave 1
	note C_, 2
	octave 2
	note C_, 2
	octave 1
	note C_, 2
	octave 2
	note C_, 2
	octave 1
	note G_, 2
	octave 2
	note G_, 2
	octave 1
	note G_, 2
	octave 2
	note G_, 2
	octave 1
	note G_, 2
	octave 2
	note G_, 2
	octave 1
	note G_, 2
	octave 2
	note G_, 2
	octave 1
	note C_, 2
	octave 2
	note C_, 2
	octave 1
	note C_, 2
	octave 2
	note C_, 2
	octave 1
	note C_, 2
	octave 2
	note C_, 2
	octave 1
	note C_, 2
	octave 2
	note C_, 2
	octave 1
	note G_, 2
	octave 2
	note G_, 2
	octave 1
	note G_, 2
	octave 2
	note G_, 2
	octave 1
	note G_, 2
	octave 2
	note G_, 2
	octave 1
	note G_, 2
	octave 2
	note G_, 2
	octave 1
	note C_, 2
	octave 2
	note C_, 2
	octave 1
	note C_, 2
	octave 2
	note C_, 2
	octave 1
	note C_, 2
	octave 2
	note C_, 2
	octave 1
	note C_, 2
	octave 2
	note C_, 2
	octave 1
	note C_, 2
	octave 2
	note C_, 2
	octave 1
	note C_, 2
	octave 2
	note C_, 2
	octave 1
	note G_, 2
	octave 2
	note G_, 2
	octave 1
	note G_, 2
	octave 2
	note G_, 2
	octave 1
	note G_, 2
	octave 2
	note G_, 2
	octave 1
	note G_, 2
	octave 2
	note G_, 2
	octave 1
	note C_, 2
	octave 2
	note C_, 2
	octave 1
	note C_, 2
	octave 2
	note C_, 2
	octave 1
	note C_, 2
	octave 2
	note C_, 2
	octave 1
	note C_, 2
	octave 2
	note C_, 2
	octave 1
	note F_, 2
	octave 2
	note F_, 2
	octave 1
	note F_, 2
	octave 2
	note F_, 2
	octave 1
	note F_, 2
	octave 2
	note F_, 2
	octave 1
	note F_, 2
	octave 2
	note F_, 2
	octave 1
	note F_, 2
	octave 2
	note F_, 2
	octave 1
	note F_, 2
	octave 2
	note F_, 2
	octave 1
	note F_, 2
	octave 2
	note F_, 2
	octave 1
	note F_, 2
	octave 2
	note F_, 2
	octave 1
	note F_, 2
	octave 2
	note F_, 2
	octave 1
	note F_, 2
	octave 2
	note F_, 2
	octave 1
	note F_, 2
	octave 2
	note F_, 2
	octave 1
	note F_, 2
	octave 2
	note F_, 2
	octave 1
	note C_, 2
	octave 2
	note C_, 2
	octave 1
	note C_, 2
	octave 2
	note C_, 2
	octave 1
	note C_, 2
	octave 2
	note C_, 2
	octave 1
	note C_, 2
	octave 2
	note C_, 2
	octave 1
	note G_, 2
	octave 2
	note G_, 2
	octave 1
	note G_, 2
	octave 2
	note G_, 2
	octave 1
	note G_, 2
	octave 2
	note G_, 2
	octave 1
	note G_, 2
	octave 2
	note G_, 2
	octave 1
	note C_, 2
	octave 2
	note C_, 2
	octave 1
	note C_, 2
	octave 2
	note C_, 2
	octave 1
	note C_, 2
	octave 2
	note C_, 2
	octave 1
	note C_, 2
	octave 2
	note C_, 2
	octave 1
	note G_, 2
	octave 2
	note G_, 2
	octave 1
	note G_, 2
	octave 2
	note G_, 2
	octave 1
	note G_, 2
	octave 2
	note G_, 2
	octave 1
	note G_, 2
	octave 2
	note G_, 2
	octave 1
	note F_, 2
	octave 2
	note F_, 2
	octave 1
	note F_, 2
	octave 2
	note F_, 2
	octave 1
	note F_, 2
	octave 2
	note F_, 2
	octave 1
	note F_, 2
	octave 2
	note F_, 2
	octave 1
	note F_, 2
	octave 2
	note F_, 2
	octave 1
	note F_, 2
	octave 2
	note F_, 2
	octave 1
	note F_, 2
	octave 2
	note F_, 2
	octave 1
	note F_, 2
	octave 2
	note F_, 2
	octave 1
	note C_, 2
	octave 2
	note C_, 2
	octave 1
	note C_, 2
	octave 2
	note C_, 2
	octave 1
	note C_, 2
	octave 2
	note C_, 2
	octave 1
	note C_, 2
	octave 2
	note C_, 2
	octave 1
	note A_, 2
	octave 2
	note A_, 2
	octave 1
	note A_, 2
	octave 2
	note A_, 2
	octave 1
	note A_, 2
	octave 2
	note A_, 2
	octave 1
	note A_, 2
	octave 2
	note A_, 2
	octave 1
	note A#, 2
	octave 2
	note A#, 2
	octave 1
	note A#, 2
	octave 2
	note A#, 2
	octave 1
	note A#, 2
	octave 2
	note A#, 2
	octave 1
	note A#, 2
	octave 2
	note A#, 2
	octave 1
	note F_, 2
	octave 2
	note F_, 2
	octave 1
	note F_, 2
	octave 2
	note F_, 2
	octave 1
	note F_, 2
	octave 2
	note F_, 2
	octave 1
	note F_, 2
	octave 2
	note F_, 2
	octave 1
	note C_, 2
	octave 2
	note C_, 2
	octave 1
	note C_, 2
	octave 2
	note C_, 2
	octave 1
	note C_, 2
	octave 2
	note C_, 2
	octave 1
	note C_, 2
	octave 2
	note C_, 2
	octave 1
	note G#, 2
	octave 2
	note G#, 2
	octave 1
	note G#, 2
	octave 2
	note G#, 2
	octave 1
	note G#, 2
	octave 2
	note G#, 2
	octave 1
	note G#, 2
	octave 2
	note G#, 2
	octave 1
	note A#, 2
	octave 2
	note A#, 2
	octave 1
	note A#, 2
	octave 2
	note A#, 2
	octave 1
	note A#, 2
	octave 2
	note A#, 2
	octave 1
	note A#, 2
	octave 2
	note A#, 2
	octave 1
	note F_, 2
	octave 2
	note F_, 2
	octave 1
	note F_, 2
	octave 2
	note F_, 2
	octave 1
	note F_, 2
	octave 2
	note F_, 2
	octave 1
	note F_, 2
	octave 2
	note F_, 2
	octave 1
	note C_, 2
	octave 2
	note C_, 2
	octave 1
	note C_, 2
	octave 2
	note C_, 2
	octave 1
	note C_, 2
	octave 2
	note C_, 2
	octave 1
	note C_, 2
	octave 2
	note C_, 2
	octave 1
	note G_, 2
	octave 2
	note G_, 2
	octave 1
	note G_, 2
	octave 2
	note G_, 2
	octave 1
	note G_, 2
	octave 2
	note G_, 2
	octave 1
	note G_, 2
	octave 2
	note G_, 2
	octave 1
	note C_, 2
	octave 2
	note C_, 2
	octave 1
	note C_, 2
	octave 2
	note C_, 2
	octave 1
	note C_, 2
	octave 2
	note C_, 2
	octave 1
	note C_, 2
	octave 2
	note C_, 2
	octave 1
	note G_, 2
	octave 2
	note G_, 2
	octave 1
	note G_, 2
	octave 2
	note G_, 2
	octave 1
	note G_, 2
	octave 2
	note G_, 2
	octave 1
	note G_, 2
	octave 2
	note G_, 2
	octave 1
	note C_, 2
	octave 2
	note C_, 2
	octave 1
	note C_, 2
	octave 2
	note C_, 2
	octave 1
	note C_, 2
	octave 2
	note C_, 2
	octave 1
	note C_, 2
	octave 2
	note C_, 2
	octave 1
	note C_, 2
	octave 2
	note C_, 2
	octave 1
	note C_, 2
	octave 2
	note C_, 2
	octave 1
	note G_, 2
	octave 2
	note G_, 2
	octave 1
	note G_, 2
	octave 2
	note G_, 2
	octave 1
	note G_, 2
	octave 2
	note G_, 2
	octave 1
	note G_, 2
	octave 2
	note G_, 2
	octave 1
	note C_, 2
	octave 2
	note C_, 2
	octave 1
	note C_, 2
	octave 2
	note C_, 2
	octave 1
	note C_, 2
	octave 2
	note C_, 2
	octave 1
	note C_, 2
	octave 2
	note C_, 2
	octave 1
	note F_, 2
	octave 2
	note F_, 2
	octave 1
	note F_, 2
	octave 2
	note F_, 2
	octave 1
	note F_, 2
	octave 2
	note F_, 2
	octave 1
	note F_, 2
	octave 2
	note F_, 2
	octave 1
	note F_, 2
	octave 2
	note F_, 2
	octave 1
	note F_, 2
	octave 2
	note F_, 2
	octave 1
	note F_, 2
	octave 2
	note F_, 2
	octave 1
	note F_, 2
	octave 2
	note F_, 2
	octave 1
	note F_, 2
	octave 2
	note F_, 2
	octave 1
	note F_, 2
	octave 2
	note F_, 2
	octave 1
	note F_, 2
	octave 2
	note F_, 2
	octave 1
	note F_, 2
	octave 2
	note F_, 2
	octave 1
	note C_, 2
	octave 2
	note C_, 2
	octave 1
	note C_, 2
	octave 2
	note C_, 2
	octave 1
	note C_, 2
	octave 2
	note C_, 2
	octave 1
	note C_, 2
	octave 2
	note C_, 2
	octave 1
	note G_, 2
	octave 2
	note G_, 2
	octave 1
	note G_, 2
	octave 2
	note G_, 2
	octave 1
	note G_, 2
	octave 2
	note G_, 2
	octave 1
	note G_, 2
	octave 2
	note G_, 2
	octave 1
	note C_, 2
	octave 2
	note C_, 2
	octave 1
	note C_, 2
	octave 2
	note C_, 2
	octave 1
	note C_, 2
	octave 2
	note C_, 2
	octave 1
	note C_, 2
	octave 2
	note C_, 2
	octave 1
	note G_, 2
	octave 2
	note G_, 2
	octave 1
	note G_, 2
	octave 2
	note G_, 2
	octave 1
	note G_, 2
	octave 2
	note G_, 2
	octave 1
	note G_, 2
	octave 2
	note G_, 2
	octave 1
	note F_, 2
	octave 2
	note F_, 2
	octave 1
	note F_, 2
	octave 2
	note F_, 2
	octave 1
	note F_, 2
	octave 2
	note F_, 2
	octave 1
	note F_, 2
	octave 2
	note F_, 2
	octave 1
	note F_, 2
	octave 2
	note F_, 2
	octave 1
	note F_, 2
	octave 2
	note F_, 2
	octave 1
	note F_, 2
	octave 2
	note F_, 2
	octave 1
	note F_, 2
	octave 2
	note F_, 2
	octave 1
	note C_, 2
	octave 2
	note C_, 2
	octave 1
	note C_, 2
	octave 2
	note C_, 2
	octave 1
	note C_, 2
	octave 2
	note C_, 2
	octave 1
	note C_, 2
	octave 2
	note C_, 2
	octave 1
	note A_, 2
	octave 2
	note A_, 2
	octave 1
	note A_, 2
	octave 2
	note A_, 2
	octave 1
	note A_, 2
	octave 2
	note A_, 2
	octave 1
	note A_, 2
	octave 2
	note A_, 2
	octave 1
	note A#, 2
	octave 2
	note A#, 2
	octave 1
	note A#, 2
	octave 2
	note A#, 2
	octave 1
	note A#, 2
	octave 2
	note A#, 2
	octave 1
	note A#, 2
	octave 2
	note A#, 2
	octave 1
	note F_, 2
	octave 2
	note F_, 2
	octave 1
	note F_, 2
	octave 2
	note F_, 2
	octave 1
	note F_, 2
	octave 2
	note F_, 2
	octave 1
	note F_, 2
	octave 2
	note F_, 2
	octave 1
	note C_, 2
	octave 2
	note C_, 2
	octave 1
	note C_, 2
	octave 2
	note C_, 2
	octave 1
	note C_, 2
	octave 2
	note C_, 2
	octave 1
	note C_, 2
	octave 2
	note C_, 2
	octave 1
	note G#, 2
	octave 2
	note G#, 2
	octave 1
	note G#, 2
	octave 2
	note G#, 2
	octave 1
	note G#, 2
	octave 2
	note G#, 2
	octave 1
	note G#, 2
	octave 2
	note G#, 2
	octave 1
	note A#, 2
	octave 2
	note A#, 2
	octave 1
	note A#, 2
	octave 2
	note A#, 2
	octave 1
	note A#, 2
	octave 2
	note A#, 2
	octave 1
	note A#, 2
	octave 2
	note A#, 2
	octave 1
	note F_, 2
	octave 2
	note F_, 2
	octave 1
	note F_, 2
	octave 2
	note F_, 2
	octave 1
	note F_, 2
	octave 2
	note F_, 2
	octave 1
	note F_, 2
	octave 2
	note F_, 2
	octave 1
	note C_, 2
	octave 2
	note C_, 2
	octave 1
	note C_, 2
	octave 2
	note C_, 2
	octave 1
	note C_, 2
	octave 2
	note C_, 2
	octave 1
	note C_, 2
	octave 2
	note C_, 2
	octave 1
	note C_, 2
	octave 2
	note C_, 2
	octave 1
	note C_, 2
	octave 2
	note C_, 2
	octave 1
	note C_, 2
	octave 2
	note C_, 2
	octave 1
	note C_, 2
	octave 2
	note C_, 2
	octave 1
	note F_, 2
	octave 2
	note F_, 2
	octave 1
	note F_, 2
	octave 2
	note F_, 2
	octave 1
	note F_, 2
	octave 2
	note F_, 2
	octave 1
	note F_, 2
	octave 2
	note F_, 2
	octave 1
	note F_, 2
	octave 2
	note F_, 2
	octave 1
	note F_, 2
	octave 2
	note F_, 2
	octave 1
	note F_, 2
	octave 2
	note F_, 2
	octave 1
	note F_, 2
	octave 2
	note F_, 2
	sound_loop 0, .mainloop

Music_Chains_Ch4:
	toggle_noise 5
	drum_speed 12
.mainloop:
	drum_note 1, 4
	drum_note 1, 4
	drum_note 1, 4
	drum_note 1, 4
	drum_note 1, 4
	drum_note 1, 4
	drum_note 1, 4
	drum_note 1, 4
	drum_note 1, 4
	drum_note 1, 4
	drum_note 1, 4
	drum_note 1, 4
	drum_note 1, 4
	drum_note 1, 4
	drum_note 1, 4
	drum_note 1, 4
	drum_note 1, 4
	drum_note 1, 4
	drum_note 1, 4
	drum_note 1, 4
	drum_note 1, 4
	drum_note 1, 4
	drum_note 1, 4
	drum_note 1, 4
	drum_note 1, 4
	drum_note 1, 4
	drum_note 1, 4
	drum_note 1, 4
	drum_note 1, 4
	drum_note 1, 4
	drum_note 1, 4
	drum_note 1, 4
	drum_note 1, 4
	drum_note 1, 4
	drum_note 1, 4
	drum_note 1, 4
	drum_note 1, 4
	drum_note 1, 4
	drum_note 1, 4
	drum_note 1, 4
	drum_note 1, 4
	drum_note 1, 4
	drum_note 1, 4
	drum_note 1, 4
	drum_note 1, 4
	drum_note 1, 4
	drum_note 1, 4
	drum_note 1, 4
	drum_note 1, 4
	drum_note 1, 4
	drum_note 1, 4
	drum_note 1, 4
	drum_note 1, 4
	drum_note 1, 4
	drum_note 1, 4
	drum_note 1, 4
	drum_note 1, 4
	drum_note 1, 4
	drum_note 1, 4
	drum_note 1, 4
	drum_note 1, 4
	drum_note 1, 4
	drum_note 1, 4
	drum_note 1, 4
	drum_note 1, 4
	drum_note 1, 4
	drum_note 1, 4
	drum_note 1, 4
	drum_note 1, 4
	drum_note 1, 4
	drum_note 1, 4
	drum_note 1, 4
	drum_note 1, 4
	drum_note 1, 4
	drum_note 1, 4
	drum_note 1, 4
	drum_note 1, 4
	drum_note 1, 4
	drum_note 1, 4
	drum_note 1, 4
	drum_note 1, 4
	drum_note 1, 4
	drum_note 1, 4
	drum_note 1, 4
	drum_note 1, 4
	drum_note 1, 4
	drum_note 1, 4
	drum_note 1, 4
	drum_note 1, 4
	drum_note 1, 4
	drum_note 1, 4
	drum_note 1, 4
	drum_note 1, 4
	drum_note 1, 4
	drum_note 1, 4
	drum_note 1, 4
	drum_note 1, 4
	drum_note 1, 4
	drum_note 1, 4
	drum_note 1, 4
	drum_note 1, 4
	drum_note 1, 4
	drum_note 1, 4
	drum_note 1, 4
	drum_note 1, 4
	drum_note 1, 4
	drum_note 1, 4
	drum_note 1, 4
	drum_note 1, 4
	drum_note 1, 4
	drum_note 1, 4
	drum_note 1, 4
	drum_note 1, 4
	drum_note 1, 4
	drum_note 1, 4
	drum_note 1, 4
	drum_note 1, 4
	drum_note 1, 4
	drum_note 1, 4
	drum_note 1, 4
	drum_note 1, 4
	drum_note 1, 4
	drum_note 1, 4
	drum_note 1, 4
	drum_note 1, 4
	drum_note 1, 4
	drum_note 1, 4
	drum_note 1, 4
	drum_note 1, 4
	drum_note 1, 4
	drum_note 1, 4
	drum_note 1, 4
	drum_note 1, 4
	drum_note 1, 4
	drum_note 1, 4
	drum_note 1, 4
	drum_note 1, 4
	drum_note 1, 4
	drum_note 1, 4
	drum_note 1, 4
	drum_note 1, 4
	drum_note 1, 4
	drum_note 1, 4
	drum_note 1, 4
	drum_note 1, 4
	drum_note 1, 4
	drum_note 1, 4
	drum_note 1, 4
	drum_note 1, 4
	drum_note 1, 4
	drum_note 1, 4
	drum_note 1, 4
	drum_note 1, 4
	drum_note 1, 4
	drum_note 1, 4
	drum_note 1, 4
	drum_note 1, 4
	drum_note 1, 4
	drum_note 1, 4
	drum_note 1, 4
	drum_note 1, 4
	drum_note 1, 4
	drum_note 1, 4
	drum_note 1, 4
	drum_note 1, 4
	drum_note 1, 4
	drum_note 1, 4
	drum_note 1, 4
	drum_note 1, 4
	drum_note 1, 4
	drum_note 1, 4
	drum_note 1, 4
	drum_note 1, 4
	drum_note 1, 4
	drum_note 1, 4
	drum_note 1, 4
	drum_note 1, 4
	drum_note 1, 4
	drum_note 1, 4
	drum_note 1, 4
	drum_note 1, 4
	drum_note 1, 4
	drum_note 1, 4
	drum_note 1, 4
	drum_note 1, 4
	drum_note 1, 4
	drum_note 1, 4
	drum_note 1, 4
	drum_note 1, 4
	drum_note 1, 4
	drum_note 1, 4
	drum_note 1, 4
	drum_note 1, 4
	drum_note 1, 4
	drum_note 1, 4
	drum_note 1, 4
	drum_note 1, 4
	drum_note 1, 4
	drum_note 1, 4
	drum_note 1, 4
	drum_note 1, 4
	drum_note 1, 4
	drum_note 1, 4
	drum_note 1, 4
	drum_note 1, 4
	drum_note 1, 4
	drum_note 1, 4
	drum_note 1, 4
	drum_note 1, 4
	drum_note 1, 4
	drum_note 1, 4
	drum_note 1, 4
	drum_note 1, 4
	drum_note 1, 4
	drum_note 1, 4
	drum_note 1, 4
	drum_note 1, 4
	drum_note 1, 4
	drum_note 1, 4
	drum_note 1, 4
	sound_loop 0, .mainloop
