Music_Drunken:
	channel_count 4
	channel 1, Music_Drunken_Ch1
	channel 2, Music_Drunken_Ch2
	channel 3, Music_Drunken_Ch3
	channel 4, Music_Drunken_Ch4

Music_Drunken_Ch1:
	volume 7, 7
	duty_cycle 1
	note_type 12, 10, 7
	tempo 106
.mainloop:
	rest 16
	rest 14
	octave 4
	volume_envelope 10, 7
	note G_, 1
	note B_, 1
	note B_, 1
	rest 1
	note B_, 1
	rest 1
	note B_, 2
	rest 2
	note B_, 2
	note B_, 2
	rest 2
	note E_, 2
	note G_, 4
	note B_, 2
	note A_, 1
	rest 1
	note A_, 1
	rest 1
	note A_, 1
	rest 1
	note A_, 2
	rest 2
	note A_, 2
	note A_, 2
	rest 2
	note D_, 2
	note F#, 4
	note A_, 2
	note B_, 1
	rest 1
	note B_, 1
	rest 1
	note B_, 1
	rest 1
	note B_, 2
	rest 2
	note B_, 2
	note B_, 2
	rest 2
	octave 5
	note C#, 2
	note D_, 4
	note E_, 2
	note D_, 4
	octave 4
	note B_, 2
	note A_, 4
	note F#, 2
	note E_, 4
	rest 2
	note E_, 4
	rest 2
	note A_, 1
	octave 5
	note C#, 1
	note C#, 1
	rest 1
	note C#, 1
	rest 1
	note C#, 2
	rest 2
	note C#, 2
	note C#, 2
	rest 2
	octave 4
	note F#, 2
	note A_, 4
	octave 5
	note C#, 2
	octave 4
	note B_, 1
	rest 1
	note B_, 1
	rest 1
	note B_, 1
	rest 1
	note B_, 2
	rest 2
	note B_, 2
	note B_, 2
	rest 2
	note E_, 2
	note G#, 4
	note B_, 2
	octave 5
	note C#, 1
	rest 1
	note C#, 1
	rest 1
	note C#, 1
	rest 1
	note C#, 2
	rest 2
	note C#, 2
	note C#, 2
	rest 2
	note D#, 2
	note E_, 4
	note F#, 2
	note E_, 4
	note C#, 2
	octave 4
	note B_, 4
	note G#, 2
	note F#, 4
	rest 2
	note F#, 4
	rest 2
	note G_, 1
	note B_, 1
	note B_, 1
	rest 1
	note B_, 1
	rest 1
	note B_, 2
	rest 2
	note B_, 2
	note B_, 2
	rest 2
	note E_, 2
	note G_, 4
	note B_, 2
	note A_, 1
	rest 1
	note A_, 1
	rest 1
	note A_, 1
	rest 1
	note A_, 2
	rest 2
	note A_, 2
	note A_, 2
	rest 2
	note D_, 2
	note F#, 4
	note A_, 2
	note B_, 1
	rest 1
	note B_, 1
	rest 1
	note B_, 1
	rest 1
	note B_, 2
	rest 2
	note B_, 2
	note B_, 2
	rest 2
	octave 5
	note C#, 2
	note D_, 4
	note E_, 2
	note D_, 4
	octave 4
	note B_, 2
	note A_, 4
	note F#, 2
	octave 5
	note E_, 4
	rest 2
	note E_, 4
	rest 2
	note D_, 4
	octave 4
	note B_, 2
	note A_, 4
	note F#, 2
	octave 5
	note E_, 4
	rest 2
	note E_, 6
	rest 3
	sound_loop 0, .mainloop

Music_Drunken_Ch2:
	duty_cycle 0
	note_type 12, 10, 7
.mainloop:
	rest 16
	rest 14
	octave 3
	volume_envelope 10, 7
	note G_, 1
	note B_, 1
	note B_, 1
	rest 1
	note B_, 1
	rest 1
	note B_, 2
	rest 2
	note B_, 2
	note B_, 2
	rest 2
	note E_, 2
	note G_, 4
	note B_, 2
	note A_, 1
	rest 1
	note A_, 1
	rest 1
	note A_, 1
	rest 1
	note A_, 2
	rest 2
	note A_, 2
	note A_, 2
	rest 2
	note D_, 2
	note F#, 4
	note A_, 2
	note B_, 1
	rest 1
	note B_, 1
	rest 1
	note B_, 1
	rest 1
	note B_, 2
	rest 2
	note B_, 2
	note B_, 2
	rest 2
	octave 4
	note C#, 2
	note D_, 4
	note E_, 2
	note D_, 4
	octave 3
	note B_, 2
	note A_, 4
	note F#, 2
	note E_, 4
	rest 2
	note E_, 4
	rest 2
	note A_, 1
	octave 4
	note C#, 1
	note C#, 1
	rest 1
	note C#, 1
	rest 1
	note C#, 2
	rest 2
	note C#, 2
	note C#, 2
	rest 2
	octave 3
	note F#, 2
	note A_, 4
	octave 4
	note C#, 2
	octave 3
	note B_, 1
	rest 1
	note B_, 1
	rest 1
	note B_, 1
	rest 1
	note B_, 2
	rest 2
	note B_, 2
	note B_, 2
	rest 2
	note E_, 2
	note G#, 4
	note B_, 2
	octave 4
	note C#, 1
	rest 1
	note C#, 1
	rest 1
	note C#, 1
	rest 1
	note C#, 2
	rest 2
	note C#, 2
	note C#, 2
	rest 2
	note D#, 2
	note E_, 4
	note F#, 2
	note E_, 4
	note C#, 2
	octave 3
	note B_, 4
	note G#, 2
	note F#, 4
	rest 2
	note F#, 4
	rest 2
	note G_, 1
	note B_, 1
	note B_, 1
	rest 1
	note B_, 1
	rest 1
	note B_, 2
	rest 2
	note B_, 2
	note B_, 2
	rest 2
	note E_, 2
	note G_, 4
	note B_, 2
	note A_, 1
	rest 1
	note A_, 1
	rest 1
	note A_, 1
	rest 1
	note A_, 2
	rest 2
	note A_, 2
	note A_, 2
	rest 2
	note D_, 2
	note F#, 4
	note A_, 2
	note B_, 1
	rest 1
	note B_, 1
	rest 1
	note B_, 1
	rest 1
	note B_, 2
	rest 2
	note B_, 2
	note B_, 2
	rest 2
	octave 4
	note C#, 2
	note D_, 4
	note E_, 2
	note D_, 4
	octave 3
	note B_, 2
	note A_, 4
	note F#, 2
	note E_, 4
	rest 2
	note E_, 4
	rest 2
	note A_, 1
	octave 4
	note C#, 1
	note D_, 2
	octave 3
	note B_, 2
	note A_, 4
	note F#, 2
	note E_, 4
	rest 2
	note E_, 6
	rest 3
	sound_loop 0, .mainloop

Music_Drunken_Ch3:
	note_type 12, 1, 0
.mainloop:
	octave 2
	volume_envelope 2, 0
	note B_, 2
	octave 3
	note C#, 2
	note D#, 2
	note E_, 3
	rest 3
	octave 2
	note B_, 3
	rest 3
	octave 3
	note E_, 3
	rest 3
	octave 2
	note B_, 3
	rest 3
	octave 3
	note E_, 3
	rest 3
	octave 2
	note B_, 3
	rest 3
	octave 3
	note E_, 3
	rest 3
	octave 2
	note B_, 3
	rest 3
	octave 3
	note D_, 3
	rest 3
	octave 2
	note A_, 3
	rest 3
	octave 3
	note D_, 3
	rest 3
	octave 2
	note A_, 3
	rest 3
	octave 3
	note E_, 3
	rest 3
	octave 2
	note B_, 3
	rest 3
	octave 3
	note E_, 3
	rest 3
	octave 2
	note B_, 3
	rest 3
	octave 3
	note D_, 3
	rest 3
	octave 2
	note A_, 3
	rest 3
	octave 3
	note E_, 2
	rest 4
	note E_, 2
	rest 4
	note F#, 3
	rest 3
	note C#, 3
	rest 3
	note F#, 3
	rest 3
	note C#, 3
	rest 3
	note E_, 3
	rest 3
	octave 2
	note B_, 3
	rest 3
	octave 3
	note E_, 3
	rest 3
	octave 2
	note B_, 3
	rest 3
	octave 3
	note F#, 3
	rest 3
	note C#, 3
	rest 3
	note F#, 3
	rest 3
	note C#, 3
	rest 3
	note E_, 3
	rest 3
	octave 2
	note B_, 3
	rest 3
	octave 3
	note F#, 2
	rest 4
	note F#, 2
	rest 4
	note E_, 3
	rest 3
	octave 2
	note B_, 3
	rest 3
	octave 3
	note E_, 3
	rest 3
	octave 2
	note B_, 3
	rest 3
	octave 3
	note D_, 3
	rest 3
	octave 2
	note A_, 3
	rest 3
	octave 3
	note D_, 3
	rest 3
	octave 2
	note A_, 3
	rest 3
	octave 3
	note E_, 3
	rest 3
	octave 2
	note B_, 3
	rest 3
	octave 3
	note E_, 3
	rest 3
	octave 2
	note B_, 3
	rest 3
	octave 3
	note E_, 3
	rest 3
	octave 2
	note B_, 3
	rest 3
	octave 3
	note E_, 2
	rest 4
	octave 2
	note B_, 2
	rest 4
	octave 3
	note D_, 3
	rest 3
	octave 2
	note A_, 3
	rest 3
	octave 3
	note E_, 4
	rest 2
	note E_, 6
	rest 3
	sound_loop 0, .mainloop

Music_Drunken_Ch4:
	toggle_noise 8
	drum_speed 12
.mainloop:
	drum_note 12, 2
	drum_note 2, 2
	drum_note 4, 2
	drum_note 5, 6
	drum_note 12, 6
	drum_note 5, 6
	drum_note 12, 6
	drum_note 5, 6
	drum_note 12, 6
	drum_note 5, 6
	drum_note 12, 6
	drum_note 3, 6
	drum_note 10, 6
	drum_note 3, 6
	drum_note 10, 6
	drum_note 5, 6
	drum_note 12, 6
	drum_note 5, 6
	drum_note 12, 6
	drum_note 3, 6
	drum_note 10, 6
	drum_note 5, 6
	drum_note 5, 6
	drum_note 7, 6
	drum_note 2, 6
	drum_note 7, 6
	drum_note 2, 6
	drum_note 5, 6
	drum_note 12, 6
	drum_note 5, 6
	drum_note 12, 6
	drum_note 7, 6
	drum_note 2, 6
	drum_note 7, 6
	drum_note 2, 6
	drum_note 5, 6
	drum_note 12, 6
	drum_note 7, 6
	drum_note 7, 6
	drum_note 5, 6
	drum_note 12, 6
	drum_note 5, 6
	drum_note 12, 6
	drum_note 3, 6
	drum_note 10, 6
	drum_note 3, 6
	drum_note 10, 6
	drum_note 5, 6
	drum_note 12, 6
	drum_note 5, 6
	drum_note 12, 6
	drum_note 5, 6
	drum_note 12, 6
	drum_note 5, 6
	drum_note 12, 6
	drum_note 3, 6
	drum_note 10, 6
	drum_note 5, 6
	drum_note 5, 6
	rest 3
	sound_loop 0, .mainloop
