Music_MeetMaleTrainer:
	channel_count 4
	channel 1, Music_MeetMaleTrainer_Ch1
	channel 2, Music_MeetMaleTrainer_Ch2
	channel 3, Music_MeetMaleTrainer_Ch3
	channel 4, Music_MeetMaleTrainer_Ch4

Music_MeetMaleTrainer_Ch1:
	volume 7, 7
	vibrato 20, 3, 3
	toggle_perfect_pitch
	note_type 12, 12, 5
	tempo 149
	duty_cycle 3
	octave 4
.mainloop
	note B_, 1
	note A_, 1
	note F#, 1
	note B_, 1
	note A_, 1
	note F#, 1
	note B_, 1
	note A_, 1
	note F#, 1
	note B_, 1
	note A_, 1
	note F#, 1
	note B_, 1
	rest 1
	note A_, 1
	rest 1
	note B_, 1
	rest 1
	note A_, 1
	rest 1
	note B_, 1
	rest 1
	note A_, 1
	rest 1
	note B_, 1
	rest 1
	note A_, 1
	rest 1
	note B_, 1
	rest 1
	note A_, 1
	rest 1
	note B_, 1
	note A_, 1
	note F#, 1
	note B_, 1
	note A_, 1
	note F#, 1
	note B_, 1
	note A_, 1
	note F#, 1
	note B_, 1
	note A_, 1
	note F#, 1
	note B_, 1
	rest 1
	note A_, 1
	rest 1
	note B_, 1
	rest 1
	note A_, 1
	rest 1
	note B_, 1
	rest 1
	note A_, 1
	rest 1
	note B_, 1
	rest 1
	note A_, 1
	rest 1
	note B_, 1
	rest 1
	note A_, 1
	rest 1
	note B_, 1
	note A_, 1
	note F#, 1
	note B_, 1
	note A_, 1
	note F#, 1
	note B_, 1
	note A_, 1
	note F#, 1
	note B_, 1
	note A_, 1
	note F#, 1
	note B_, 1
	rest 1
	note A_, 1
	rest 1
	note B_, 1
	rest 1
	note A_, 1
	rest 1
	note B_, 1
	rest 1
	note A_, 1
	rest 1
	note B_, 1
	rest 1
	note A_, 1
	rest 1
	note B_, 1
	rest 1
	note A_, 1
	rest 1
	note B_, 1
	note A_, 1
	note F#, 1
	note B_, 1
	note A_, 1
	note F#, 1
	note B_, 1
	note A_, 1
	note F#, 1
	note B_, 1
	note A_, 1
	note F#, 1
	note B_, 1
	rest 1
	note A_, 1
	rest 1
	note B_, 1
	rest 1
	note A_, 1
	rest 1
	note B_, 1
	rest 1
	note A_, 1
	rest 1
	note B_, 1
	rest 1
	note A_, 1
	rest 1
	note B_, 1
	rest 1
	note A_, 1
	rest 3
	note B_, 1
	rest 1
	note B_, 1
	rest 1
	note B_, 1
	rest 1
	note A_, 1
	note B_, 1
	rest 1
	octave 5
	note D_, 1
	rest 2
	note D_, 1
	rest 3
	octave 4
	note B_, 1
	rest 1
	note B_, 1
	rest 1
	note B_, 1
	rest 1
	note A_, 1
	note B_, 1
	note F_, 1
	note E_, 1
	rest 1
	note D_, 1
	rest 1
	octave 3
	note B_, 1
	rest 2
	octave 4
	note B_, 1
	rest 1
	note B_, 1
	rest 1
	note B_, 1
	rest 1
	note A_, 1
	note B_, 1
	rest 1
	octave 5
	note D_, 1
	rest 2
	note D_, 1
	rest 3
	octave 4
	note B_, 1
	rest 1
	note B_, 1
	rest 1
	note B_, 1
	rest 1
	note A_, 1
	note B_, 1
	note F_, 1
	note E_, 1
	rest 1
	note D_, 1
	rest 1
	octave 3
	note B_, 1
	rest 2
	octave 4
	note B_, 1
	rest 1
	note B_, 1
	rest 1
	note B_, 1
	rest 1
	note A_, 1
	note B_, 1
	rest 1
	octave 5
	note D_, 1
	rest 2
	note D_, 1
	rest 3
	octave 4
	note B_, 1
	rest 1
	note B_, 1
	rest 1
	note B_, 1
	rest 1
	note A_, 1
	note B_, 1
	note F_, 1
	note E_, 1
	rest 1
	note D_, 1
	rest 1
	octave 3
	note B_, 1
	rest 2
	octave 4
	note B_, 1
	rest 1
	note B_, 1
	rest 1
	note B_, 1
	rest 1
	note A_, 1
	note B_, 1
	rest 1
	octave 5
	note D_, 1
	rest 2
	note D_, 1
	rest 3
	octave 4
	note B_, 1
	rest 1
	note B_, 1
	rest 1
	note B_, 1
	rest 1
	note A_, 1
	note B_, 1
	note F_, 1
	note E_, 1
	rest 1
	note D_, 1
	rest 1
	octave 3
	note B_, 1
	octave 4
	sound_loop 0, .mainloop

Music_MeetMaleTrainer_Ch2:
	duty_cycle 1
	note_type 12, 7, 7
.mainloop
	rest 16
	rest 16
	rest 16
	rest 16
	rest 16
	rest 16
	rest 16
	rest 16
	rest 16
	rest 16
	octave 3
	volume_envelope 11, 7
	note A_, 1
	note B_, 1
	octave 4
	note D_, 1
	octave 3
	note B_, 1
	octave 4
	note F_, 2
	octave 3
	note B_, 1
	octave 4
	note E_, 2
	octave 3
	note B_, 1
	octave 4
	note D_, 2
	octave 3
	note B_, 2
	rest 2
	note A_, 1
	note B_, 1
	octave 4
	note D_, 1
	octave 3
	note B_, 1
	octave 4
	note F_, 2
	octave 3
	note B_, 1
	octave 4
	note E_, 2
	octave 3
	note B_, 1
	octave 4
	note D_, 2
	octave 3
	note B_, 2
	rest 16
	rest 16
	rest 2
	note A_, 1
	note B_, 1
	octave 4
	note D_, 1
	octave 3
	note B_, 1
	octave 4
	note F_, 2
	octave 3
	note B_, 1
	octave 4
	note E_, 2
	octave 3
	note B_, 1
	octave 4
	note D_, 2
	octave 3
	note B_, 2
	rest 2
	note A_, 1
	note B_, 1
	octave 4
	note D_, 1
	octave 3
	note B_, 1
	octave 4
	note F_, 2
	octave 3
	note B_, 1
	octave 4
	note E_, 2
	octave 3
	note B_, 1
	octave 4
	note D_, 2
	octave 3
	note B_, 4
	octave 3
	sound_loop 0, .mainloop

Music_MeetMaleTrainer_Ch3:
	note_type 12, 1, 0
.mainloop
	octave 1
	note B_, 2
	note B_, 1
	rest 3
	note B_, 1
	rest 7
	note F#, 1
	note A_, 1
	note B_, 2
	note B_, 1
	rest 3
	note B_, 1
	rest 7
	note F#, 1
	note A_, 1
	note B_, 2
	note B_, 1
	rest 3
	note B_, 1
	rest 7
	note F#, 1
	note A_, 1
	note B_, 2
	note B_, 1
	rest 3
	note B_, 1
	rest 7
	note F#, 1
	note A_, 1
	note B_, 2
	note B_, 1
	rest 3
	note B_, 1
	rest 7
	note F#, 1
	note A_, 1
	note B_, 2
	note B_, 1
	rest 3
	note B_, 1
	rest 7
	note F#, 1
	note A_, 1
	note B_, 2
	note B_, 1
	rest 3
	note B_, 1
	rest 7
	note F#, 1
	note A_, 1
	note B_, 2
	note B_, 1
	rest 3
	note B_, 1
	rest 7
	note F#, 1
	note A_, 1
	note B_, 2
	octave 2
	note D_, 2
	note E_, 2
	note F_, 1
	octave 1
	note B_, 2
	octave 2
	note D_, 2
	note D_, 1
	note E_, 2
	note F_, 2
	octave 1
	note B_, 2
	octave 2
	note D_, 2
	note E_, 2
	note F_, 1
	octave 1
	note B_, 2
	octave 2
	note D_, 2
	note D_, 1
	note E_, 2
	note F_, 2
	octave 1
	note B_, 2
	octave 2
	note D_, 2
	note E_, 2
	note F_, 1
	octave 1
	note B_, 2
	octave 2
	note D_, 2
	note D_, 1
	note E_, 2
	note F_, 2
	octave 1
	note B_, 2
	octave 2
	note D_, 2
	note E_, 2
	note F_, 1
	octave 1
	note B_, 2
	octave 2
	note D_, 2
	note D_, 1
	note E_, 2
	note F_, 2
	octave 1
	note B_, 2
	octave 2
	note D_, 2
	note E_, 2
	note F_, 1
	octave 1
	note B_, 2
	octave 2
	note D_, 2
	note D_, 1
	note E_, 2
	note F_, 2
	octave 1
	note B_, 2
	octave 2
	note D_, 2
	note E_, 2
	note F_, 1
	octave 1
	note B_, 2
	octave 2
	note D_, 2
	note D_, 1
	note E_, 2
	note F_, 2
	octave 1
	note B_, 2
	octave 2
	note D_, 2
	note E_, 2
	note F_, 1
	octave 1
	note B_, 2
	octave 2
	note D_, 2
	note D_, 1
	note E_, 2
	note F_, 2
	octave 1
	note B_, 2
	octave 2
	note D_, 2
	note E_, 2
	note F_, 1
	octave 1
	note B_, 2
	octave 2
	note D_, 2
	note D_, 1
	note E_, 2
	note F_, 2
	octave 1
	sound_loop 0, .mainloop

Music_MeetMaleTrainer_Ch4:
	toggle_noise 1
	drum_speed 12
.mainloop
	drum_note 12, 2
	drum_note 4, 2
	drum_note 12, 2
	drum_note 4, 2
	drum_note 12, 1
	drum_note 4, 2
	drum_note 4, 1
	drum_note 4, 4
	drum_note 12, 2
	drum_note 4, 2
	drum_note 12, 2
	drum_note 4, 2
	drum_note 12, 1
	drum_note 4, 2
	drum_note 4, 1
	drum_note 4, 4
	drum_note 12, 2
	drum_note 4, 2
	drum_note 12, 2
	drum_note 4, 2
	drum_note 12, 1
	drum_note 4, 2
	drum_note 4, 1
	drum_note 4, 4
	drum_note 12, 2
	drum_note 4, 2
	drum_note 12, 2
	drum_note 4, 2
	drum_note 12, 1
	drum_note 4, 2
	drum_note 4, 1
	drum_note 4, 4
	drum_note 12, 2
	drum_note 4, 2
	drum_note 12, 2
	drum_note 4, 2
	drum_note 12, 1
	drum_note 4, 2
	drum_note 4, 1
	drum_note 4, 4
	drum_note 12, 2
	drum_note 4, 2
	drum_note 12, 2
	drum_note 4, 2
	drum_note 12, 1
	drum_note 4, 2
	drum_note 4, 1
	drum_note 4, 4
	drum_note 12, 2
	drum_note 4, 2
	drum_note 12, 2
	drum_note 4, 2
	drum_note 12, 1
	drum_note 4, 2
	drum_note 4, 1
	drum_note 4, 4
	drum_note 12, 2
	drum_note 4, 2
	drum_note 12, 2
	drum_note 4, 2
	drum_note 12, 1
	drum_note 4, 2
	drum_note 3, 1
	drum_note 4, 1
	drum_note 1, 1
	drum_note 12, 1
	drum_note 1, 1
	drum_note 12, 2
	drum_note 4, 2
	drum_note 12, 2
	drum_note 4, 2
	drum_note 12, 1
	drum_note 4, 2
	drum_note 4, 1
	drum_note 4, 4
	drum_note 12, 2
	drum_note 4, 2
	drum_note 12, 2
	drum_note 4, 2
	drum_note 12, 1
	drum_note 4, 2
	drum_note 4, 1
	drum_note 4, 4
	drum_note 12, 2
	drum_note 4, 2
	drum_note 12, 2
	drum_note 4, 2
	drum_note 12, 1
	drum_note 4, 2
	drum_note 4, 1
	drum_note 4, 4
	drum_note 12, 2
	drum_note 4, 2
	drum_note 12, 2
	drum_note 4, 2
	drum_note 12, 1
	drum_note 4, 2
	drum_note 4, 1
	drum_note 4, 4
	drum_note 12, 2
	drum_note 4, 2
	drum_note 12, 2
	drum_note 4, 2
	drum_note 12, 1
	drum_note 4, 2
	drum_note 4, 1
	drum_note 4, 4
	drum_note 12, 2
	drum_note 4, 2
	drum_note 12, 2
	drum_note 4, 2
	drum_note 12, 1
	drum_note 4, 2
	drum_note 4, 1
	drum_note 4, 4
	drum_note 12, 2
	drum_note 4, 2
	drum_note 12, 2
	drum_note 4, 2
	drum_note 12, 1
	drum_note 4, 2
	drum_note 4, 1
	drum_note 4, 4
	drum_note 12, 2
	drum_note 4, 2
	drum_note 12, 2
	drum_note 4, 2
	drum_note 12, 1
	drum_note 4, 2
	drum_note 3, 1
	drum_note 4, 1
	drum_note 1, 1
	drum_note 12, 1
	drum_note 1, 1
	sound_loop 0, .mainloop
