Music_Elysyann:
	channel_count 4
	channel 1, Music_Elysyann_Ch1
	channel 2, Music_Elysyann_Ch2
	channel 3, Music_Elysyann_Ch3
	channel 4, Music_Elysyann_Ch4

Music_Elysyann_Ch1:
	volume 7, 7
	duty_cycle 2
	note_type 12, 10, 7
	tempo 115
.mainloop:
	duty_cycle 1
	octave 2
	volume_envelope 10, 7
	note E_, 1
	rest 1
	note G_, 1
	rest 1
	note C_, 1
	rest 1
	note F#, 1
	rest 1
	note G_, 7
	rest 1
	note E_, 1
	rest 1
	note G_, 1
	rest 1
	note C_, 1
	rest 1
	note F#, 1
	rest 1
	note G_, 7
	rest 1
	note B_, 1
	rest 1
	note E_, 1
	rest 1
	note G_, 1
	rest 1
	note F#, 1
	rest 1
	note G_, 7
	rest 1
	note B_, 1
	rest 1
	note E_, 1
	rest 1
	note G_, 1
	rest 1
	note F#, 1
	rest 1
	note G_, 7
	rest 1
	note E_, 1
	rest 1
	note G_, 1
	rest 1
	note C_, 1
	rest 1
	note F#, 1
	rest 1
	note G_, 7
	rest 1
	note E_, 1
	rest 1
	note G_, 1
	rest 1
	note C_, 1
	rest 1
	note F#, 1
	rest 1
	note G_, 7
	rest 1
	note B_, 1
	rest 1
	note E_, 1
	rest 1
	note G_, 1
	rest 1
	note F#, 1
	rest 1
	note G_, 7
	rest 1
	note B_, 1
	rest 1
	note E_, 1
	rest 1
	note G_, 1
	rest 1
	note F#, 1
	rest 1
	note G_, 7
	rest 1
	note A_, 2
	octave 3
	note C_, 2
	note E_, 2
	note C_, 2
	note G_, 2
	note E_, 2
	octave 4
	note C_, 2
	octave 3
	note G_, 2
	octave 4
	note E_, 2
	note C_, 2
	octave 3
	note G_, 2
	note E_, 2
	octave 4
	note C_, 2
	octave 3
	note G_, 2
	note E_, 2
	note C_, 2
	note B_, 2
	note E_, 2
	note G_, 2
	note E_, 2
	note B_, 2
	note G_, 2
	octave 4
	note E_, 2
	octave 3
	note B_, 2
	octave 4
	note G_, 2
	note E_, 2
	octave 3
	note B_, 2
	note G_, 2
	octave 4
	note E_, 2
	octave 3
	note B_, 2
	note G_, 2
	note E_, 2
	note G_, 2
	note C_, 2
	note E_, 2
	note C_, 2
	note G_, 2
	note E_, 2
	octave 4
	note C_, 2
	octave 3
	note G_, 2
	octave 4
	note E_, 2
	note C_, 2
	octave 3
	note G_, 2
	note E_, 2
	octave 4
	note C_, 2
	octave 3
	note G_, 2
	note E_, 2
	note C_, 2
	note B_, 2
	note E_, 2
	note G_, 2
	note E_, 2
	note B_, 2
	note G_, 2
	octave 4
	note E_, 2
	octave 3
	note B_, 2
	octave 4
	note G_, 2
	note E_, 2
	octave 3
	note B_, 2
	note G_, 2
	octave 4
	note E_, 2
	octave 3
	note B_, 2
	note G_, 2
	note E_, 2
	note E_, 2
	note G_, 2
	octave 4
	note C_, 2
	octave 3
	note G_, 2
	octave 4
	note E_, 2
	note C_, 2
	note G_, 2
	note E_, 2
	octave 5
	note C_, 2
	octave 4
	note G_, 2
	note E_, 2
	note C_, 2
	note G_, 2
	note E_, 2
	note C_, 2
	octave 3
	note G_, 2
	note E_, 2
	note G_, 2
	note B_, 2
	note G_, 2
	octave 4
	note E_, 2
	octave 3
	note B_, 2
	octave 4
	note G_, 2
	note E_, 2
	note B_, 2
	note G_, 2
	note E_, 2
	octave 3
	note B_, 2
	octave 4
	note G_, 2
	note E_, 2
	octave 3
	note B_, 2
	note G_, 2
	note E_, 2
	note G_, 2
	octave 4
	note C_, 2
	octave 3
	note G_, 2
	octave 4
	note E_, 2
	note C_, 2
	note G_, 2
	note E_, 2
	octave 5
	note C_, 2
	octave 4
	note G_, 2
	note E_, 2
	note C_, 2
	note G_, 2
	note E_, 2
	note C_, 2
	octave 3
	note G_, 2
	note G_, 2
	note B_, 2
	octave 4
	note E_, 2
	octave 3
	note B_, 2
	octave 4
	note G_, 2
	note E_, 2
	note B_, 2
	note G_, 2
	octave 5
	note E_, 2
	octave 4
	note B_, 2
	note G_, 2
	note E_, 2
	note B_, 2
	note G_, 2
	note E_, 2
	octave 3
	note B_, 1
	octave 1
	rest 16
	rest 16
	rest 16
	rest 16
	rest 16
	rest 16
	rest 16
	rest 16
	rest 16
	rest 16
	rest 16
	rest 16
	rest 16
	rest 16
	rest 16
	rest 16
	sound_loop 0, .mainloop

Music_Elysyann_Ch2:
	duty_cycle 1
	note_type 12, 10, 7
.mainloop:
	octave 4
	volume_envelope 12, 7
	note C_, 2
	note E_, 2
	note G_, 2
	note A_, 6
	note G_, 4
	note C_, 2
	note E_, 2
	note G_, 2
	note A_, 6
	note G_, 4
	octave 3
	note B_, 2
	octave 4
	note E_, 2
	note G_, 2
	note A_, 4
	note B_, 6
	octave 3
	note B_, 2
	octave 4
	note E_, 2
	note G_, 2
	note A_, 4
	note B_, 6
	note C_, 2
	note E_, 2
	note G_, 2
	note A_, 6
	note G_, 4
	note C_, 2
	note E_, 2
	note G_, 2
	note A_, 6
	note G_, 4
	octave 3
	note B_, 2
	octave 4
	note E_, 2
	note G_, 2
	note A_, 4
	note B_, 6
	octave 3
	note B_, 2
	octave 4
	note E_, 2
	note G_, 2
	note A_, 4
	note B_, 6
	octave 5
	note C_, 4
	octave 4
	note B_, 2
	note A_, 6
	note G_, 4
	rest 4
	note F#, 4
	note G_, 4
	note A_, 4
	note B_, 11
	rest 5
	note G_, 13
	rest 3
	octave 5
	note C_, 4
	octave 4
	note B_, 2
	note A_, 6
	note G_, 4
	rest 4
	note F#, 4
	note G_, 4
	note A_, 4
	note B_, 9
	rest 7
	octave 5
	note E_, 10
	rest 6
	octave 6
	note C_, 4
	octave 5
	note B_, 2
	note A_, 6
	note G_, 5
	rest 3
	note F#, 4
	note G_, 4
	note A_, 4
	note B_, 10
	rest 6
	note G_, 13
	rest 3
	octave 6
	note C_, 4
	octave 5
	note B_, 2
	note A_, 6
	note G_, 5
	rest 3
	note F#, 4
	note G_, 4
	note A_, 4
	note B_, 10
	rest 6
	octave 6
	note E_, 16
	octave 4
	note C_, 2
	note E_, 2
	note G_, 2
	note A_, 6
	note G_, 4
	note C_, 2
	note E_, 2
	note G_, 2
	note A_, 6
	note G_, 4
	octave 3
	note B_, 2
	octave 4
	note E_, 2
	note G_, 2
	note A_, 4
	note B_, 6
	octave 3
	note B_, 2
	octave 4
	note E_, 2
	note G_, 2
	note A_, 4
	note B_, 6
	note C_, 2
	note E_, 2
	note G_, 2
	note A_, 6
	note G_, 4
	note C_, 2
	note E_, 2
	note G_, 2
	note A_, 6
	note G_, 4
	octave 3
	note B_, 2
	octave 4
	note E_, 2
	note G_, 2
	note A_, 4
	note B_, 6
	octave 3
	note B_, 2
	octave 4
	note E_, 2
	note G_, 2
	note A_, 4
	note B_, 6
	note C_, 2
	note E_, 2
	note G_, 2
	note A_, 6
	note G_, 4
	note C_, 2
	note E_, 2
	note G_, 2
	note A_, 6
	note G_, 4
	octave 3
	note B_, 2
	octave 4
	note E_, 2
	note G_, 2
	note A_, 4
	note B_, 6
	octave 3
	note B_, 2
	octave 4
	note E_, 2
	note G_, 2
	note A_, 4
	note B_, 6
	note C_, 2
	note E_, 2
	note G_, 2
	note A_, 6
	note G_, 4
	note C_, 2
	note E_, 2
	note G_, 2
	note A_, 6
	note G_, 4
	octave 3
	note B_, 2
	octave 4
	note E_, 2
	note G_, 2
	note A_, 4
	note B_, 6
	octave 3
	note B_, 2
	octave 4
	note E_, 2
	note G_, 2
	note A_, 4
	note B_, 5
	sound_loop 0, .mainloop

Music_Elysyann_Ch3:
	note_type 12, 1, 0
.mainloop:
	octave 2
	volume_envelope 1, 0
	note E_, 6
	note C_, 4
	note E_, 6
	note E_, 6
	note C_, 4
	note E_, 6
	note G_, 6
	note E_, 2
	note B_, 8
	note G_, 6
	note E_, 2
	note B_, 8
	note E_, 6
	note C_, 4
	note E_, 6
	note E_, 6
	note C_, 4
	note E_, 6
	note G_, 6
	note E_, 2
	note B_, 8
	note G_, 6
	note E_, 2
	note B_, 8
	note E_, 12
	note C_, 4
	note E_, 16
	note G_, 12
	note E_, 4
	note G_, 16
	note E_, 12
	note C_, 4
	note E_, 16
	note G_, 12
	note E_, 4
	note G_, 16
	note E_, 12
	note C_, 4
	note E_, 16
	note E_, 12
	octave 1
	note B_, 4
	octave 2
	note E_, 16
	note G_, 12
	note E_, 4
	note G_, 16
	note B_, 12
	note G_, 4
	note B_, 16
	note E_, 5
	rest 1
	note C_, 4
	note E_, 5
	rest 1
	note E_, 5
	rest 1
	note C_, 4
	note E_, 5
	rest 1
	note G_, 5
	rest 1
	note E_, 2
	note B_, 7
	rest 1
	note G_, 5
	rest 1
	note E_, 2
	note B_, 7
	rest 1
	note E_, 5
	rest 1
	note C_, 4
	note E_, 5
	rest 1
	note E_, 5
	rest 1
	note C_, 4
	note E_, 5
	rest 1
	note G_, 5
	rest 1
	note E_, 2
	note B_, 7
	rest 1
	note G_, 5
	rest 1
	note E_, 2
	note B_, 7
	rest 1
	note E_, 5
	rest 1
	note C_, 4
	note E_, 5
	rest 1
	note E_, 5
	rest 1
	note C_, 4
	note E_, 5
	rest 1
	note E_, 12
	note C_, 4
	note E_, 16
	note E_, 5
	rest 1
	note C_, 4
	note E_, 5
	rest 1
	note E_, 5
	rest 1
	note C_, 4
	note E_, 5
	rest 1
	note G_, 5
	rest 1
	note E_, 2
	note B_, 7
	rest 1
	note G_, 5
	rest 1
	note E_, 2
	note B_, 7
	sound_loop 0, .mainloop

Music_Elysyann_Ch4:
	toggle_noise 1
	drum_speed 12
.mainloop:
	rest 16
	rest 16
	rest 16
	rest 16
	rest 16
	rest 16
	rest 16
	rest 16
	drum_note 1, 16
	drum_note 1, 8
	drum_note 5, 8
	drum_note 12, 16
	drum_note 5, 8
	drum_note 3, 8
	drum_note 1, 16
	drum_note 1, 8
	drum_note 5, 8
	drum_note 8, 16
	drum_note 8, 8
	drum_note 7, 8
	drum_note 5, 16
	drum_note 5, 8
	drum_note 3, 8
	drum_note 12, 16
	drum_note 5, 8
	drum_note 3, 8
	drum_note 8, 16
	drum_note 8, 8
	drum_note 7, 8
	drum_note 5, 16
	drum_note 8, 8
	drum_note 3, 8
	drum_note 10, 16
	drum_note 10, 8
	drum_note 1, 8
	drum_note 5, 16
	drum_note 3, 16
	drum_note 1, 16
	drum_note 10, 16
	drum_note 12, 16
	drum_note 8, 16
	drum_note 10, 16
	drum_note 1, 8
	drum_note 10, 8
	drum_note 5, 16
	drum_note 3, 16
	drum_note 1, 16
	drum_note 10, 16
	drum_note 12, 16
	drum_note 8, 15
	sound_loop 0, .mainloop
