Music_Gadoba:
	channel_count 4
	channel 1, Music_Gadoba_Ch1
	channel 2, Music_Gadoba_Ch2
	channel 3, Music_Gadoba_Ch3
	channel 4, Music_Gadoba_Ch4

Music_Gadoba_Ch1:
	volume 7, 7
	note_type 12, 9, 7
	tempo 115
	octave 4
	duty_cycle 1
.mainloop:
	volume_envelope 10, 7
	rest 16
	rest 16
	rest 16
	rest 16
	octave 4
	rest 16
	rest 16
	rest 16
	rest 16
	note A_, 16
	note A_, 12
	note B_, 4
	octave 5
	note C_, 16
	note C_, 12
	note D_, 4
	octave 4
	note A_, 16
	note A_, 16
	note A_, 16
	note B_, 16
	note A_, 16
	note A_, 12
	note B_, 4
	octave 5
	note C_, 16
	note C_, 12
	note D_, 4
	octave 4
	note A_, 16
	note A_, 16
	note B_, 16
	note B_, 16
	rest 16
	rest 16
	note A_, 2
	note G_, 2
	note F_, 2
	note D_, 6
	note E_, 2
	note C_, 4
	octave 3
	note A_, 2
	note B_, 2
	octave 4
	note C_, 2
	note D_, 2
	note E_, 2
	note D_, 2
	note C_, 2
	octave 3
	note A_, 6
	octave 4
	note C_, 8
	rest 4
	octave 3
	note A_, 2
	note B_, 2
	octave 4
	note C_, 2
	note D_, 2
	note E_, 2
	note D_, 2
	note C_, 2
	note A_, 2
	note G_, 2
	note F_, 2
	note D_, 6
	note E_, 2
	note C_, 4
	octave 3
	note A_, 2
	note B_, 2
	octave 4
	note C_, 2
	note D_, 2
	note E_, 2
	note D_, 2
	note C_, 2
	octave 3
	note B_, 6
	octave 4
	note C_, 10
	note A_, 10
	octave 3
	note A_, 1
	note A_, 1
	octave 4
	note B_, 4
	octave 5
	note C_, 2
	octave 4
	note B_, 2
	note A_, 2
	note E_, 4
	note C_, 2
	note D_, 2
	note E_, 4
	octave 3
	note A_, 2
	octave 4
	note C_, 2
	octave 3
	note A_, 2
	octave 4
	note D_, 2
	octave 3
	note A_, 2
	octave 4
	note E_, 2
	octave 3
	note A_, 2
	octave 4
	note D_, 6
	note E_, 6
	note D_, 2
	note A_, 10
	note E_, 2
	note F_, 2
	note G_, 2
	note A_, 2
	note B_, 6
	octave 5
	note C_, 10
	octave 4
	note B_, 6
	octave 5
	note C_, 6
	note D_, 4
	note C_, 16
	octave 4
	note G#, 8
	note F#, 4
	note G#, 4
	octave 3
	note A_, 16
	note B_, 16
	note B_, 16
	octave 4
	note C_, 10
	note C_, 2
	octave 3
	note B_, 2
	note A_, 2
	note A_, 14
	note B_, 16
	note A_, 16
	note A_, 2
	note A_, 1
	octave 4
	note C_, 1
	note E_, 1
	note A_, 1
	note C_, 1
	note E_, 1
	note A_, 1
	octave 5
	note C_, 1
	octave 4
	note E_, 1
	note A_, 1
	octave 5
	note C_, 1
	note E_, 1
	octave 4
	note A_, 1
	octave 5
	note C_, 1
	note E_, 1
	note A_, 1
	octave 4
	note A_, 16
	note A_, 12
	note B_, 4
	octave 5
	note C_, 16
	note C_, 12
	note D_, 4
	octave 4
	note A_, 16
	note A_, 16
	note A_, 16
	note B_, 16
	note A_, 16
	note A_, 12
	note B_, 4
	octave 5
	note C_, 16
	note C_, 12
	note D_, 4
	octave 4
	note A_, 16
	note A_, 16
	note B_, 16
	note B_, 16
	rest 16
	rest 16
	note A_, 2
	note G_, 2
	note F_, 2
	note D_, 6
	note E_, 2
	note C_, 4
	octave 3
	note A_, 2
	note B_, 2
	octave 4
	note C_, 2
	note D_, 2
	note E_, 2
	note D_, 2
	note C_, 2
	octave 3
	note A_, 6
	octave 4
	note C_, 8
	rest 4
	octave 3
	note A_, 2
	note B_, 2
	octave 4
	note C_, 2
	note D_, 2
	note E_, 2
	note D_, 2
	note C_, 2
	note A_, 2
	note G_, 2
	note F_, 2
	note D_, 6
	note E_, 2
	note C_, 4
	octave 3
	note A_, 2
	note B_, 2
	octave 4
	note C_, 2
	note D_, 2
	note E_, 2
	note D_, 2
	note C_, 2
	octave 3
	note B_, 6
	octave 4
	note C_, 10
	note A_, 10
	octave 3
	note A_, 1
	note A_, 1
	octave 4
	note B_, 4
	octave 5
	note C_, 2
	octave 4
	note B_, 2
	note A_, 2
	note E_, 4
	note C_, 2
	note D_, 2
	note E_, 4
	octave 3
	note A_, 2
	octave 4
	note C_, 2
	octave 3
	note A_, 2
	octave 4
	note D_, 2
	octave 3
	note A_, 2
	octave 4
	note E_, 2
	octave 3
	note A_, 2
	octave 4
	note D_, 6
	note E_, 6
	note D_, 2
	note A_, 10
	note E_, 2
	note F_, 2
	note G_, 2
	note A_, 2
	note B_, 6
	octave 5
	note C_, 10
	octave 4
	note B_, 6
	octave 5
	note C_, 6
	note D_, 4
	note C_, 16
	octave 4
	note G#, 8
	note F#, 4
	note G#, 4
	octave 3
	note A_, 16
	note B_, 16
	note B_, 16
	octave 4
	note C_, 10
	note C_, 2
	octave 3
	note B_, 2
	note A_, 2
	note A_, 14
	note B_, 16
	note A_, 16
	note A_, 2
	note A_, 1
	octave 4
	note C_, 1
	note E_, 1
	note A_, 1
	note C_, 1
	note E_, 1
	note A_, 1
	octave 5
	note C_, 1
	octave 4
	note E_, 1
	note A_, 1
	octave 5
	note C_, 1
	note E_, 1
	octave 4
	note A_, 1
	octave 5
	note C_, 1
	note E_, 1
	note A_, 1
	octave 4
	sound_loop 0, .mainloop

Music_Gadoba_Ch2:
	note_type 12, 13, 7
	octave 1
	duty_cycle 0
.mainloop:
	volume_envelope 12, 6
	note A_, 1
	note A_, 1
	note A_, 1
	note A_, 1
	octave 2
	note A_, 2
	octave 1
	note A_, 1
	note A_, 1
	octave 2
	note G_, 2
	rest 2
	octave 1
	note A_, 1
	note A_, 1
	octave 2
	note F_, 4
	octave 1
	note A_, 1
	note A_, 1
	octave 2
	note E_, 2
	octave 1
	note A_, 1
	note A_, 1
	octave 2
	note D_, 2
	octave 1
	note A_, 1
	note A_, 1
	octave 2
	note E_, 2
	rest 2
	octave 1
	note A_, 1
	note A_, 1
	note A_, 1
	note A_, 1
	octave 2
	note A_, 2
	octave 1
	note A_, 1
	note A_, 1
	octave 2
	note G_, 2
	rest 2
	octave 1
	note A_, 1
	note A_, 1
	octave 2
	note F_, 4
	octave 1
	note A_, 1
	note A_, 1
	octave 2
	note E_, 2
	octave 1
	note A_, 1
	note A_, 1
	octave 2
	note D_, 2
	octave 1
	note A_, 1
	note A_, 1
	octave 2
	note E_, 2
	rest 2
	octave 1
	note A_, 1
	note A_, 1
	note A_, 1
	note A_, 1
	octave 2
	note A_, 2
	octave 1
	note A_, 1
	note A_, 1
	octave 2
	note G_, 2
	rest 2
	octave 1
	note A_, 1
	note A_, 1
	octave 2
	note F_, 4
	octave 1
	note A_, 1
	note A_, 1
	octave 2
	note E_, 2
	octave 1
	note A_, 1
	note A_, 1
	octave 2
	note D_, 2
	octave 1
	note A_, 1
	note A_, 1
	octave 3
	note D_, 1
	note E_, 1
	note F_, 1
	note G_, 1
	note G#, 1
	note F_, 1
	note E_, 1
	note F_, 1
	note E_, 1
	note D_, 1
	note E_, 1
	note D_, 1
	note C_, 1
	note D_, 1
	note C_, 1
	octave 2
	note B_, 1
	note A_, 4
	note E_, 1
	note G#, 1
	note B_, 1
	octave 3
	note E_, 1
	octave 2
	note B_, 1
	octave 3
	note D_, 1
	note E_, 1
	note F_, 1
	note E_, 1
	note F_, 1
	note E_, 1
	note D_, 1
	note C_, 1
	octave 2
	note B_, 1
	note A_, 1
	note G#, 1
	note A_, 1
	note A_, 1
	note A_, 1
	note A_, 1
	octave 3
	note A_, 2
	octave 2
	note A_, 1
	note A_, 1
	octave 3
	note G_, 2
	octave 2
	note A_, 1
	note A_, 1
	note A_, 1
	note A_, 1
	octave 3
	note F_, 4
	octave 2
	note A_, 1
	note A_, 1
	octave 3
	note E_, 2
	note D_, 4
	octave 2
	note A_, 1
	note A_, 1
	octave 3
	note E_, 2
	rest 2
	octave 2
	note A_, 1
	note A_, 1
	note A_, 1
	note A_, 1
	octave 3
	note A_, 2
	octave 2
	note A_, 1
	note A_, 1
	octave 3
	note G_, 2
	octave 2
	note A_, 1
	note A_, 1
	note A_, 1
	note A_, 1
	octave 3
	note F_, 4
	octave 2
	note A_, 1
	note A_, 1
	octave 3
	note E_, 2
	note D_, 4
	octave 2
	note A_, 1
	note A_, 1
	octave 3
	note E_, 2
	rest 2
	octave 2
	note A_, 1
	note A_, 1
	note A_, 1
	note A_, 1
	octave 3
	note A_, 2
	octave 2
	note A_, 1
	note A_, 1
	octave 3
	note G_, 2
	octave 2
	note A_, 1
	note A_, 1
	note A_, 1
	note A_, 1
	octave 3
	note F_, 4
	octave 2
	note A_, 1
	note A_, 1
	octave 3
	note E_, 2
	note D_, 4
	octave 2
	note A_, 1
	note A_, 1
	octave 3
	note E_, 2
	rest 2
	octave 2
	note A_, 1
	note A_, 1
	note A_, 1
	note A_, 1
	octave 3
	note A_, 2
	octave 2
	note A_, 1
	note A_, 1
	octave 3
	note G_, 2
	octave 2
	note A_, 1
	note A_, 1
	note A_, 1
	note A_, 1
	octave 3
	note F_, 4
	octave 2
	note A_, 1
	note A_, 1
	octave 3
	note E_, 2
	note D_, 4
	octave 2
	note A_, 1
	note A_, 1
	octave 3
	note E_, 2
	rest 2
	octave 2
	note A_, 1
	note A_, 1
	note A_, 1
	note A_, 1
	octave 3
	note A_, 2
	octave 2
	note A_, 1
	note A_, 1
	octave 3
	note G_, 2
	octave 2
	note A_, 1
	note A_, 1
	note A_, 1
	note A_, 1
	octave 3
	note F_, 4
	octave 2
	note A_, 1
	note A_, 1
	octave 3
	note E_, 2
	note D_, 4
	octave 2
	note A_, 1
	note A_, 1
	octave 3
	note E_, 2
	rest 2
	octave 2
	note A_, 1
	note A_, 1
	note A_, 1
	note A_, 1
	octave 3
	note A_, 2
	octave 2
	note A_, 1
	note A_, 1
	octave 3
	note G_, 2
	octave 2
	note A_, 1
	note A_, 1
	note A_, 1
	note A_, 1
	octave 3
	note F_, 4
	octave 2
	note A_, 1
	note A_, 1
	octave 3
	note E_, 2
	note D_, 4
	octave 2
	note A_, 1
	note A_, 1
	octave 3
	note E_, 2
	rest 2
	octave 2
	note A_, 1
	note A_, 1
	note A_, 1
	note A_, 1
	octave 3
	note A_, 2
	octave 2
	note A_, 1
	note A_, 1
	octave 3
	note G_, 2
	octave 2
	note A_, 1
	note A_, 1
	note A_, 1
	note A_, 1
	octave 3
	note F_, 4
	octave 2
	note A_, 1
	note A_, 1
	octave 3
	note E_, 2
	note D_, 4
	octave 2
	note A_, 1
	note A_, 1
	octave 3
	note D_, 1
	note E_, 1
	note F_, 1
	note G_, 1
	octave 2
	note G#, 6
	note B_, 6
	note E_, 2
	rest 10
	octave 3
	note E_, 4
	note G#, 2
	octave 2
	note A_, 16
	note A_, 2
	note E_, 1
	note A_, 7
	note A_, 2
	octave 3
	note E_, 4
	rest 2
	octave 1
	note A_, 1
	note A_, 1
	note A_, 1
	note A_, 1
	octave 2
	note A_, 2
	octave 1
	note A_, 1
	note A_, 1
	octave 2
	note G_, 2
	octave 1
	note A_, 1
	note A_, 1
	note A_, 1
	note A_, 1
	octave 2
	note F_, 4
	octave 1
	note A_, 1
	note A_, 1
	octave 2
	note E_, 2
	note D_, 4
	octave 1
	note A_, 1
	note A_, 1
	octave 2
	note E_, 4
	octave 1
	note A_, 1
	note A_, 1
	note A_, 1
	note A_, 1
	octave 2
	note A_, 2
	octave 1
	note A_, 1
	note A_, 1
	octave 2
	note G_, 2
	octave 1
	note A_, 1
	note A_, 1
	note A_, 1
	note A_, 1
	octave 2
	note F_, 4
	octave 1
	note A_, 1
	note A_, 1
	octave 2
	note E_, 2
	note D_, 4
	octave 1
	note A_, 1
	note A_, 1
	octave 2
	note E_, 4
	octave 1
	note A_, 1
	note A_, 1
	note A_, 1
	note A_, 1
	octave 2
	note A_, 2
	octave 1
	note A_, 1
	note A_, 1
	octave 2
	note G_, 2
	octave 1
	note A_, 1
	note A_, 1
	note A_, 1
	note A_, 1
	octave 2
	note F_, 4
	octave 1
	note A_, 1
	note A_, 1
	octave 2
	note E_, 2
	note D_, 4
	octave 1
	note A_, 1
	note A_, 1
	octave 2
	note E_, 4
	octave 1
	note A_, 1
	note A_, 1
	note A_, 1
	note A_, 1
	octave 2
	note A_, 2
	octave 1
	note A_, 1
	note A_, 1
	octave 2
	note G_, 2
	octave 1
	note A_, 1
	note A_, 1
	note A_, 1
	note A_, 1
	octave 2
	note F_, 4
	octave 1
	note A_, 1
	note A_, 1
	octave 2
	note E_, 2
	note D_, 4
	octave 1
	note A_, 1
	note A_, 1
	octave 2
	note E_, 4
	octave 1
	note A_, 1
	note A_, 1
	note A_, 1
	note A_, 1
	octave 2
	note A_, 2
	octave 1
	note A_, 1
	note A_, 1
	octave 2
	note G_, 2
	octave 1
	note A_, 1
	note A_, 1
	note A_, 1
	note A_, 1
	octave 2
	note F_, 4
	octave 1
	note A_, 1
	note A_, 1
	octave 2
	note E_, 2
	note D_, 2
	note D_, 2
	octave 1
	note A_, 1
	note A_, 1
	octave 2
	note E_, 4
	octave 1
	note A_, 1
	note A_, 1
	note A_, 1
	note A_, 1
	octave 2
	note A_, 2
	octave 1
	note A_, 1
	note A_, 1
	octave 2
	note G_, 2
	octave 1
	note A_, 1
	note A_, 1
	note A_, 1
	note A_, 1
	octave 2
	note F_, 4
	octave 1
	note A_, 1
	note A_, 1
	octave 2
	note E_, 2
	note D_, 4
	octave 1
	note A_, 1
	note A_, 1
	octave 2
	note E_, 4
	octave 1
	note A_, 1
	note A_, 1
	note A_, 1
	note A_, 1
	octave 2
	note A_, 2
	octave 1
	note A_, 1
	note A_, 1
	octave 2
	note G_, 2
	octave 1
	note A_, 1
	note A_, 1
	note A_, 1
	note A_, 1
	octave 2
	note F_, 4
	octave 1
	note A_, 1
	note A_, 1
	octave 2
	note E_, 2
	note D_, 4
	octave 1
	note A_, 1
	note A_, 1
	octave 2
	note E_, 4
	octave 4
	note B_, 4
	octave 3
	note B_, 2
	octave 4
	note B_, 4
	octave 3
	note B_, 2
	octave 4
	note B_, 4
	octave 3
	note G#, 4
	note F#, 1
	note E_, 1
	note C_, 1
	octave 2
	note B_, 1
	note A_, 4
	rest 4
	note A_, 6
	note B_, 6
	rest 4
	note B_, 4
	octave 3
	note C_, 2
	note D_, 2
	rest 2
	octave 2
	note B_, 2
	octave 3
	note C_, 2
	note D_, 2
	note E_, 6
	note D_, 6
	note C_, 4
	octave 2
	note B_, 6
	octave 3
	note C_, 2
	rest 2
	octave 2
	note A_, 2
	note B_, 2
	octave 3
	note C_, 2
	note C_, 10
	note D_, 2
	note C_, 2
	octave 2
	note B_, 6
	rest 4
	note G_, 4
	note B_, 4
	note B_, 6
	note A_, 16
	note A_, 2
	note A_, 2
	octave 3
	note E_, 4
	rest 2
	octave 2
	note A_, 1
	note A_, 1
	note A_, 1
	note A_, 1
	octave 3
	note A_, 2
	octave 2
	note A_, 1
	note A_, 1
	octave 3
	note G_, 2
	octave 2
	note A_, 1
	note A_, 1
	note A_, 1
	note A_, 1
	octave 3
	note F_, 4
	octave 2
	note A_, 1
	note A_, 1
	octave 3
	note E_, 2
	note D_, 4
	octave 2
	note A_, 1
	note A_, 1
	octave 3
	note E_, 2
	rest 2
	octave 2
	note A_, 1
	note A_, 1
	note A_, 1
	note A_, 1
	octave 3
	note A_, 2
	octave 2
	note A_, 1
	note A_, 1
	octave 3
	note G_, 2
	octave 2
	note A_, 1
	note A_, 1
	note A_, 1
	note A_, 1
	octave 3
	note F_, 4
	octave 2
	note A_, 1
	note A_, 1
	octave 3
	note E_, 2
	note D_, 4
	octave 2
	note A_, 1
	note A_, 1
	octave 3
	note E_, 2
	rest 2
	octave 2
	note A_, 1
	note A_, 1
	note A_, 1
	note A_, 1
	octave 3
	note A_, 2
	octave 2
	note A_, 1
	note A_, 1
	octave 3
	note G_, 2
	octave 2
	note A_, 1
	note A_, 1
	note A_, 1
	note A_, 1
	octave 3
	note F_, 4
	octave 2
	note A_, 1
	note A_, 1
	octave 3
	note E_, 2
	note D_, 4
	octave 2
	note A_, 1
	note A_, 1
	octave 3
	note E_, 2
	rest 2
	octave 2
	note A_, 1
	note A_, 1
	note A_, 1
	note A_, 1
	octave 3
	note A_, 2
	octave 2
	note A_, 1
	note A_, 1
	octave 3
	note G_, 2
	octave 2
	note A_, 1
	note A_, 1
	note A_, 1
	note A_, 1
	octave 3
	note F_, 4
	octave 2
	note A_, 1
	note A_, 1
	octave 3
	note E_, 2
	note D_, 4
	octave 2
	note A_, 1
	note A_, 1
	octave 3
	note E_, 2
	rest 2
	octave 2
	note A_, 1
	note A_, 1
	note A_, 1
	note A_, 1
	octave 3
	note A_, 2
	octave 2
	note A_, 1
	note A_, 1
	octave 3
	note G_, 2
	octave 2
	note A_, 1
	note A_, 1
	note A_, 1
	note A_, 1
	octave 3
	note F_, 4
	octave 2
	note A_, 1
	note A_, 1
	octave 3
	note E_, 2
	note D_, 4
	octave 2
	note A_, 1
	note A_, 1
	octave 3
	note E_, 2
	rest 2
	octave 2
	note A_, 1
	note A_, 1
	note A_, 1
	note A_, 1
	octave 3
	note A_, 2
	octave 2
	note A_, 1
	note A_, 1
	octave 3
	note G_, 2
	octave 2
	note A_, 1
	note A_, 1
	note A_, 1
	note A_, 1
	octave 3
	note F_, 4
	octave 2
	note A_, 1
	note A_, 1
	octave 3
	note E_, 2
	note D_, 4
	octave 2
	note A_, 1
	note A_, 1
	octave 3
	note E_, 2
	rest 2
	octave 2
	note A_, 1
	note A_, 1
	note A_, 1
	note A_, 1
	octave 3
	note A_, 2
	octave 2
	note A_, 1
	note A_, 1
	octave 3
	note G_, 2
	octave 2
	note A_, 1
	note A_, 1
	note A_, 1
	note A_, 1
	octave 3
	note F_, 4
	octave 2
	note A_, 1
	note A_, 1
	octave 3
	note E_, 2
	note D_, 4
	octave 2
	note A_, 1
	note A_, 1
	octave 3
	note D_, 1
	note E_, 1
	note F_, 1
	note G_, 1
	octave 2
	note G#, 6
	note B_, 6
	note E_, 2
	rest 4
	octave 3
	note D_, 6
	note E_, 4
	note G#, 2
	octave 2
	note A_, 16
	note A_, 2
	note E_, 1
	note A_, 7
	note A_, 2
	octave 3
	note E_, 4
	rest 2
	octave 1
	note A_, 1
	note A_, 1
	note A_, 1
	note A_, 1
	octave 2
	note A_, 2
	octave 1
	note A_, 1
	note A_, 1
	octave 2
	note G_, 2
	octave 1
	note A_, 1
	note A_, 1
	note A_, 1
	note A_, 1
	octave 2
	note F_, 4
	octave 1
	note A_, 1
	note A_, 1
	octave 2
	note E_, 2
	note D_, 4
	octave 1
	note A_, 1
	note A_, 1
	octave 2
	note E_, 4
	octave 1
	note A_, 1
	note A_, 1
	note A_, 1
	note A_, 1
	octave 2
	note A_, 2
	octave 1
	note A_, 1
	note A_, 1
	octave 2
	note G_, 2
	octave 1
	note A_, 1
	note A_, 1
	note A_, 1
	note A_, 1
	octave 2
	note F_, 4
	octave 1
	note A_, 1
	note A_, 1
	octave 2
	note E_, 2
	note D_, 4
	octave 1
	note A_, 1
	note A_, 1
	octave 2
	note E_, 4
	octave 1
	note A_, 1
	note A_, 1
	note A_, 1
	note A_, 1
	octave 2
	note A_, 2
	octave 1
	note A_, 1
	note A_, 1
	octave 2
	note G_, 2
	octave 1
	note A_, 1
	note A_, 1
	note A_, 1
	note A_, 1
	octave 2
	note F_, 4
	octave 1
	note A_, 1
	note A_, 1
	octave 2
	note E_, 2
	note D_, 4
	octave 1
	note A_, 1
	note A_, 1
	octave 2
	note E_, 4
	octave 1
	note A_, 1
	note A_, 1
	note A_, 1
	note A_, 1
	octave 2
	note A_, 2
	octave 1
	note A_, 1
	note A_, 1
	octave 2
	note G_, 2
	octave 1
	note A_, 1
	note A_, 1
	note A_, 1
	note A_, 1
	octave 2
	note F_, 4
	octave 1
	note A_, 1
	note A_, 1
	octave 2
	note E_, 2
	note D_, 4
	octave 1
	note A_, 1
	note A_, 1
	octave 2
	note E_, 4
	octave 1
	note A_, 1
	note A_, 1
	note A_, 1
	note A_, 1
	octave 2
	note A_, 2
	octave 1
	note A_, 1
	note A_, 1
	octave 2
	note G_, 2
	octave 1
	note A_, 1
	note A_, 1
	note A_, 1
	note A_, 1
	octave 2
	note F_, 4
	octave 1
	note A_, 1
	note A_, 1
	octave 2
	note E_, 2
	note D_, 2
	note D_, 2
	octave 1
	note A_, 1
	note A_, 1
	octave 2
	note E_, 4
	octave 1
	note A_, 1
	note A_, 1
	note A_, 1
	note A_, 1
	octave 2
	note A_, 2
	octave 1
	note A_, 1
	note A_, 1
	octave 2
	note G_, 2
	octave 1
	note A_, 1
	note A_, 1
	note A_, 1
	note A_, 1
	octave 2
	note F_, 4
	octave 1
	note A_, 1
	note A_, 1
	octave 2
	note E_, 2
	note D_, 4
	octave 1
	note A_, 1
	note A_, 1
	octave 2
	note E_, 4
	octave 1
	note A_, 1
	note A_, 1
	note A_, 1
	note A_, 1
	octave 2
	note A_, 2
	octave 1
	note A_, 1
	note A_, 1
	octave 2
	note G_, 2
	octave 1
	note A_, 1
	note A_, 1
	note A_, 1
	note A_, 1
	octave 2
	note F_, 4
	octave 1
	note A_, 1
	note A_, 1
	octave 2
	note E_, 2
	note D_, 4
	octave 1
	note A_, 1
	note A_, 1
	octave 2
	note E_, 4
	octave 4
	note B_, 4
	octave 3
	note B_, 2
	octave 4
	note B_, 4
	octave 3
	note B_, 2
	octave 4
	note B_, 4
	octave 3
	note G#, 4
	note F#, 1
	note E_, 1
	note C_, 1
	octave 2
	note B_, 1
	note A_, 4
	rest 4
	note A_, 6
	note B_, 6
	rest 4
	note B_, 4
	octave 3
	note C_, 2
	note D_, 2
	rest 2
	octave 2
	note B_, 2
	octave 3
	note C_, 2
	note D_, 2
	note E_, 6
	note D_, 6
	note C_, 4
	octave 2
	note B_, 6
	octave 3
	note C_, 2
	rest 2
	octave 2
	note A_, 2
	note B_, 2
	octave 3
	note C_, 2
	note C_, 10
	note D_, 2
	note C_, 2
	octave 1
	note B_, 6
	rest 4
	note G_, 4
	note B_, 4
	note B_, 6
	note A_, 16
	note A_, 2
	note A_, 2
	note E_, 6
	sound_loop 0, .mainloop

Music_Gadoba_Ch3:
	note_type 12, 1, 0
.mainloop:
	octave 2
	note A_, 2
	rest 2
	note A_, 2
	rest 2
	note A_, 2
	rest 2
	note A_, 2
	rest 2
	note A_, 2
	rest 2
	note A_, 2
	rest 2
	note A_, 2
	rest 2
	note G_, 2
	rest 2
	note F_, 2
	rest 2
	note F_, 2
	rest 2
	note F_, 2
	rest 2
	note F_, 2
	rest 2
	note F_, 2
	rest 2
	note F_, 2
	rest 2
	note F_, 2
	rest 2
	note E_, 2
	rest 2
	note D_, 2
	note D_, 2
	note D_, 2
	note D_, 2
	note D_, 2
	note D_, 2
	note D_, 2
	note D_, 2
	note D_, 2
	note D_, 2
	note D_, 2
	note D_, 2
	note D_, 2
	note D_, 2
	note D_, 2
	note D_, 2
	note E_, 2
	note E_, 1
	note E_, 1
	note E_, 2
	note E_, 1
	note E_, 1
	note E_, 2
	note E_, 1
	note E_, 1
	note E_, 2
	note E_, 1
	note E_, 1
	note E_, 2
	rest 2
	note E_, 2
	octave 3
	note E_, 1
	note E_, 1
	octave 2
	note E_, 2
	octave 3
	note E_, 1
	note E_, 1
	octave 2
	note E_, 2
	rest 2
	note A_, 2
	octave 3
	note A_, 1
	note A_, 1
	octave 2
	note A_, 2
	octave 3
	note A_, 1
	note A_, 1
	octave 2
	note A_, 2
	octave 3
	note A_, 1
	note A_, 1
	octave 2
	note A_, 2
	octave 3
	note A_, 1
	note A_, 1
	octave 2
	note A_, 2
	octave 3
	note A_, 1
	note A_, 1
	octave 2
	note A_, 2
	octave 3
	note A_, 1
	note A_, 1
	octave 2
	note A_, 2
	octave 3
	note A_, 1
	note A_, 1
	octave 2
	note G_, 2
	octave 3
	note G_, 1
	note G_, 1
	octave 2
	note F_, 2
	octave 3
	note F_, 1
	note F_, 1
	octave 2
	note F_, 2
	octave 3
	note F_, 1
	note F_, 1
	octave 2
	note F_, 2
	octave 3
	note F_, 1
	note F_, 1
	octave 2
	note F_, 2
	octave 3
	note F_, 1
	note F_, 1
	octave 2
	note F_, 2
	octave 3
	note F_, 1
	note F_, 1
	octave 2
	note F_, 2
	octave 3
	note F_, 1
	note F_, 1
	octave 2
	note F_, 2
	octave 3
	note F_, 1
	note F_, 1
	octave 2
	note E_, 2
	octave 3
	note E_, 1
	note E_, 1
	octave 2
	note D_, 2
	octave 3
	note D_, 1
	note D_, 1
	octave 2
	note D_, 2
	octave 3
	note D_, 1
	note D_, 1
	octave 2
	note D_, 2
	octave 3
	note D_, 1
	note D_, 1
	octave 2
	note D_, 2
	octave 3
	note D_, 1
	note D_, 1
	octave 2
	note D_, 2
	octave 3
	note D_, 1
	note D_, 1
	octave 2
	note D_, 2
	octave 3
	note D_, 1
	note D_, 1
	octave 2
	note D_, 2
	octave 3
	note D_, 1
	note D_, 1
	octave 2
	note E_, 2
	octave 3
	note E_, 1
	note E_, 1
	octave 2
	note F_, 2
	octave 3
	note F_, 1
	note F_, 1
	octave 2
	note F_, 2
	octave 3
	note F_, 1
	note F_, 1
	octave 2
	note F_, 2
	octave 3
	note F_, 1
	note F_, 1
	octave 2
	note F_, 2
	octave 3
	note F_, 1
	note F_, 1
	octave 2
	note G_, 2
	octave 3
	note G_, 1
	note G_, 1
	octave 2
	note G_, 2
	octave 3
	note G_, 1
	note G_, 1
	octave 2
	note G_, 2
	octave 3
	note G_, 1
	note G_, 1
	octave 2
	note G_, 2
	octave 3
	note G_, 1
	note G_, 1
	octave 2
	note A_, 2
	octave 3
	note A_, 1
	note A_, 1
	octave 2
	note A_, 2
	octave 3
	note A_, 1
	note A_, 1
	octave 2
	note A_, 2
	octave 3
	note A_, 1
	note A_, 1
	octave 2
	note A_, 2
	octave 3
	note A_, 1
	note A_, 1
	octave 2
	note A_, 2
	octave 3
	note A_, 1
	note A_, 1
	octave 2
	note A_, 2
	octave 3
	note A_, 1
	note A_, 1
	octave 2
	note A_, 2
	octave 3
	note A_, 1
	note A_, 1
	octave 2
	note G_, 2
	octave 3
	note G_, 1
	note G_, 1
	octave 2
	note F_, 2
	octave 3
	note F_, 1
	note F_, 1
	octave 2
	note F_, 2
	octave 3
	note F_, 1
	note F_, 1
	octave 2
	note F_, 2
	octave 3
	note F_, 1
	note F_, 1
	octave 2
	note F_, 2
	octave 3
	note F_, 1
	note F_, 1
	octave 2
	note F_, 2
	octave 3
	note F_, 1
	note F_, 1
	octave 2
	note F_, 2
	octave 3
	note F_, 1
	note F_, 1
	octave 2
	note F_, 2
	octave 3
	note F_, 1
	note F_, 1
	octave 2
	note E_, 2
	octave 3
	note E_, 1
	note E_, 1
	octave 2
	note D_, 2
	octave 3
	note D_, 1
	note D_, 1
	octave 2
	note D_, 2
	octave 3
	note D_, 1
	note D_, 1
	octave 2
	note D_, 2
	octave 3
	note D_, 1
	note D_, 1
	octave 2
	note D_, 2
	octave 3
	note D_, 1
	note D_, 1
	octave 2
	note D_, 2
	octave 3
	note D_, 1
	note D_, 1
	octave 2
	note D_, 2
	octave 3
	note D_, 1
	note D_, 1
	octave 2
	note D_, 2
	octave 3
	note D_, 1
	note D_, 1
	note D_, 2
	note D_, 1
	note D_, 1
	note E_, 2
	octave 2
	note E_, 1
	note E_, 1
	note E_, 1
	note E_, 1
	octave 3
	note E_, 2
	octave 2
	note E_, 1
	note E_, 1
	note E_, 1
	note E_, 1
	octave 3
	note E_, 2
	octave 2
	note E_, 1
	note E_, 1
	note E_, 1
	note E_, 1
	octave 3
	note E_, 2
	octave 2
	note E_, 1
	note E_, 1
	note E_, 1
	note E_, 1
	octave 3
	note E_, 2
	octave 2
	note E_, 1
	note E_, 1
	note E_, 1
	note E_, 1
	note A_, 2
	note A_, 2
	rest 2
	note A_, 2
	rest 2
	note A_, 2
	note A_, 2
	note A_, 2
	note A_, 2
	octave 3
	note E_, 1
	octave 2
	note E_, 2
	note E_, 1
	octave 3
	note E_, 1
	octave 2
	note E_, 1
	octave 3
	note E_, 2
	octave 4
	note E_, 1
	octave 3
	note E_, 1
	octave 2
	note E_, 1
	octave 4
	note E_, 1
	octave 2
	note E_, 1
	rest 1
	note E_, 1
	note E_, 1
	note A_, 2
	octave 3
	note A_, 1
	note A_, 1
	octave 2
	note A_, 2
	octave 3
	note A_, 1
	note A_, 1
	octave 2
	note A_, 2
	octave 3
	note A_, 1
	note A_, 1
	octave 2
	note A_, 2
	octave 3
	note A_, 1
	note A_, 1
	octave 2
	note A_, 2
	octave 3
	note A_, 1
	note A_, 1
	octave 2
	note A_, 2
	octave 3
	note A_, 1
	note A_, 1
	octave 2
	note A_, 2
	octave 3
	note A_, 1
	note A_, 1
	octave 2
	note G_, 2
	octave 3
	note G_, 1
	note G_, 1
	octave 2
	note F_, 2
	octave 3
	note F_, 1
	note F_, 1
	octave 2
	note F_, 2
	octave 3
	note F_, 1
	note F_, 1
	octave 2
	note F_, 2
	octave 3
	note F_, 1
	note F_, 1
	octave 2
	note F_, 2
	octave 3
	note F_, 1
	note F_, 1
	octave 2
	note F_, 2
	octave 3
	note F_, 1
	note F_, 1
	octave 2
	note F_, 2
	octave 3
	note F_, 1
	note F_, 1
	octave 2
	note F_, 2
	octave 3
	note F_, 1
	note F_, 1
	octave 2
	note E_, 2
	octave 3
	note E_, 1
	note E_, 1
	octave 2
	note D_, 2
	octave 3
	note D_, 1
	note D_, 1
	octave 2
	note D_, 2
	octave 3
	note D_, 1
	note D_, 1
	octave 2
	note D_, 2
	octave 3
	note D_, 1
	note D_, 1
	octave 2
	note D_, 2
	octave 3
	note D_, 1
	note D_, 1
	octave 2
	note D_, 2
	octave 3
	note D_, 1
	note D_, 1
	octave 2
	note D_, 2
	octave 3
	note D_, 1
	note D_, 1
	octave 2
	note D_, 2
	octave 3
	note D_, 1
	note D_, 1
	octave 2
	note E_, 2
	octave 3
	note E_, 1
	note E_, 1
	octave 2
	note F_, 2
	octave 3
	note F_, 1
	note F_, 1
	octave 2
	note F_, 2
	octave 3
	note F_, 1
	note F_, 1
	octave 2
	note F_, 2
	octave 3
	note F_, 1
	note F_, 1
	octave 2
	note F_, 2
	octave 3
	note F_, 1
	note F_, 1
	octave 2
	note F_, 2
	octave 3
	note F_, 1
	note F_, 1
	octave 2
	note F_, 2
	octave 3
	note F_, 1
	note F_, 1
	octave 2
	note F_, 2
	octave 3
	note F_, 1
	note F_, 1
	octave 2
	note G_, 2
	octave 3
	note G_, 1
	note G_, 1
	octave 2
	note A_, 2
	octave 3
	note A_, 1
	note A_, 1
	octave 2
	note A_, 2
	octave 3
	note A_, 1
	note A_, 1
	octave 2
	note A_, 2
	octave 3
	note A_, 1
	note A_, 1
	octave 2
	note A_, 2
	octave 3
	note A_, 1
	note A_, 1
	octave 2
	note A_, 2
	octave 3
	note A_, 1
	note A_, 1
	octave 2
	note A_, 2
	octave 3
	note A_, 1
	note A_, 1
	octave 2
	note A_, 2
	octave 3
	note A_, 1
	note A_, 1
	octave 2
	note G_, 2
	octave 3
	note G_, 1
	note G_, 1
	octave 2
	note F_, 2
	octave 3
	note F_, 1
	note F_, 1
	octave 2
	note F_, 2
	octave 3
	note F_, 1
	note F_, 1
	octave 2
	note F_, 2
	octave 3
	note F_, 1
	note F_, 1
	octave 2
	note F_, 2
	octave 3
	note F_, 1
	note F_, 1
	octave 2
	note F_, 2
	octave 3
	note F_, 1
	note F_, 1
	octave 2
	note F_, 2
	octave 3
	note F_, 1
	note F_, 1
	octave 2
	note F_, 2
	octave 3
	note F_, 1
	note F_, 1
	octave 2
	note E_, 2
	octave 3
	note E_, 1
	note E_, 1
	octave 2
	note D_, 2
	octave 3
	note D_, 1
	note D_, 1
	octave 2
	note D_, 2
	octave 3
	note D_, 1
	note D_, 1
	octave 2
	note D_, 2
	octave 3
	note D_, 1
	note D_, 1
	octave 2
	note D_, 2
	octave 3
	note D_, 1
	note D_, 1
	octave 2
	note D_, 2
	octave 3
	note D_, 1
	note D_, 1
	octave 2
	note D_, 2
	octave 3
	note D_, 1
	note D_, 1
	octave 2
	note D_, 2
	octave 3
	note D_, 1
	note D_, 1
	octave 2
	note E_, 2
	octave 3
	note E_, 1
	note E_, 1
	note E_, 2
	octave 2
	note E_, 1
	note E_, 1
	note E_, 1
	note E_, 1
	octave 3
	note E_, 2
	octave 2
	note E_, 1
	note E_, 1
	note E_, 1
	note E_, 1
	octave 3
	note E_, 2
	octave 2
	note E_, 1
	note E_, 1
	note E_, 1
	note E_, 1
	octave 3
	note E_, 2
	rest 2
	octave 2
	note E_, 1
	note E_, 1
	octave 3
	note E_, 2
	octave 2
	note E_, 1
	note E_, 1
	octave 3
	note E_, 1
	octave 2
	note E_, 1
	note E_, 1
	note E_, 1
	note F_, 6
	octave 3
	note F_, 4
	note C_, 2
	octave 2
	note A_, 2
	note F_, 2
	note G_, 6
	octave 3
	note G_, 4
	note D_, 2
	octave 2
	note B_, 2
	note G_, 2
	note G#, 6
	octave 3
	note G#, 4
	note D_, 2
	note C_, 2
	octave 2
	note G#, 2
	note A_, 2
	octave 1
	note A_, 2
	octave 2
	note A_, 2
	octave 1
	note A_, 2
	octave 2
	note A_, 2
	note A_, 2
	note G_, 2
	note F_, 2
	note F_, 2
	octave 3
	note F_, 1
	note F_, 1
	octave 2
	note F_, 2
	octave 3
	note F_, 1
	note F_, 1
	octave 2
	note F_, 2
	octave 3
	note F_, 1
	note F_, 1
	octave 2
	note F_, 2
	octave 3
	note F_, 1
	note F_, 1
	octave 2
	note G_, 2
	octave 3
	note G_, 1
	note G_, 1
	octave 2
	note G_, 2
	octave 3
	note G_, 1
	note G_, 1
	octave 2
	note G_, 2
	octave 3
	note G_, 1
	note G_, 1
	octave 2
	note G_, 2
	octave 3
	note G_, 1
	note G_, 1
	octave 2
	note A_, 2
	octave 3
	note A_, 1
	note A_, 1
	octave 2
	note A_, 2
	octave 3
	note A_, 1
	note A_, 1
	octave 2
	note A_, 2
	octave 3
	note A_, 1
	note A_, 1
	octave 2
	note A_, 2
	octave 3
	note A_, 1
	note A_, 1
	octave 2
	note A_, 2
	octave 3
	note A_, 1
	note A_, 1
	octave 2
	note A_, 2
	octave 3
	note A_, 1
	note A_, 1
	octave 2
	note A_, 2
	octave 3
	note A_, 1
	note A_, 1
	note A_, 2
	note A_, 1
	note A_, 1
	octave 2
	note A_, 2
	octave 3
	note A_, 1
	note A_, 1
	octave 2
	note A_, 2
	octave 3
	note A_, 1
	note A_, 1
	octave 2
	note A_, 2
	octave 3
	note A_, 1
	note A_, 1
	octave 2
	note A_, 2
	octave 3
	note A_, 1
	note A_, 1
	octave 2
	note A_, 2
	octave 3
	note A_, 1
	note A_, 1
	octave 2
	note A_, 2
	octave 3
	note A_, 1
	note A_, 1
	octave 2
	note A_, 2
	octave 3
	note A_, 1
	note A_, 1
	octave 2
	note G_, 2
	octave 3
	note G_, 1
	note G_, 1
	octave 2
	note F_, 2
	octave 3
	note F_, 1
	note F_, 1
	octave 2
	note F_, 2
	octave 3
	note F_, 1
	note F_, 1
	octave 2
	note F_, 2
	octave 3
	note F_, 1
	note F_, 1
	octave 2
	note F_, 2
	octave 3
	note F_, 1
	note F_, 1
	octave 2
	note F_, 2
	octave 3
	note F_, 1
	note F_, 1
	octave 2
	note F_, 2
	octave 3
	note F_, 1
	note F_, 1
	octave 2
	note F_, 2
	octave 3
	note F_, 1
	note F_, 1
	octave 2
	note E_, 2
	octave 3
	note E_, 1
	note E_, 1
	octave 2
	note D_, 2
	octave 3
	note D_, 1
	note D_, 1
	octave 2
	note D_, 2
	octave 3
	note D_, 1
	note D_, 1
	octave 2
	note D_, 2
	octave 3
	note D_, 1
	note D_, 1
	octave 2
	note D_, 2
	octave 3
	note D_, 1
	note D_, 1
	octave 2
	note D_, 2
	octave 3
	note D_, 1
	note D_, 1
	octave 2
	note D_, 2
	octave 3
	note D_, 1
	note D_, 1
	octave 2
	note D_, 2
	octave 3
	note D_, 1
	note D_, 1
	octave 2
	note E_, 2
	octave 3
	note E_, 1
	note E_, 1
	octave 2
	note F_, 2
	octave 3
	note F_, 1
	note F_, 1
	octave 2
	note F_, 2
	octave 3
	note F_, 1
	note F_, 1
	octave 2
	note F_, 2
	octave 3
	note F_, 1
	note F_, 1
	octave 2
	note F_, 2
	octave 3
	note F_, 1
	note F_, 1
	octave 2
	note G_, 2
	octave 3
	note G_, 1
	note G_, 1
	octave 2
	note G_, 2
	octave 3
	note G_, 1
	note G_, 1
	octave 2
	note G_, 2
	octave 3
	note G_, 1
	note G_, 1
	octave 2
	note G_, 2
	octave 3
	note G_, 1
	note G_, 1
	octave 2
	note A_, 2
	octave 3
	note A_, 1
	note A_, 1
	octave 2
	note A_, 2
	octave 3
	note A_, 1
	note A_, 1
	octave 2
	note A_, 2
	octave 3
	note A_, 1
	note A_, 1
	octave 2
	note A_, 2
	octave 3
	note A_, 1
	note A_, 1
	octave 2
	note A_, 2
	octave 3
	note A_, 1
	note A_, 1
	octave 2
	note A_, 2
	octave 3
	note A_, 1
	note A_, 1
	octave 2
	note A_, 2
	octave 3
	note A_, 1
	note A_, 1
	octave 2
	note G_, 2
	octave 3
	note G_, 1
	note G_, 1
	octave 2
	note F_, 2
	octave 3
	note F_, 1
	note F_, 1
	octave 2
	note F_, 2
	octave 3
	note F_, 1
	note F_, 1
	octave 2
	note F_, 2
	octave 3
	note F_, 1
	note F_, 1
	octave 2
	note F_, 2
	octave 3
	note F_, 1
	note F_, 1
	octave 2
	note F_, 2
	octave 3
	note F_, 1
	note F_, 1
	octave 2
	note F_, 2
	octave 3
	note F_, 1
	note F_, 1
	octave 2
	note F_, 2
	octave 3
	note F_, 1
	note F_, 1
	octave 2
	note E_, 2
	octave 3
	note E_, 1
	note E_, 1
	octave 2
	note D_, 2
	octave 3
	note D_, 1
	note D_, 1
	octave 2
	note D_, 2
	octave 3
	note D_, 1
	note D_, 1
	octave 2
	note D_, 2
	octave 3
	note D_, 1
	note D_, 1
	octave 2
	note D_, 2
	octave 3
	note D_, 1
	note D_, 1
	octave 2
	note D_, 2
	octave 3
	note D_, 1
	note D_, 1
	octave 2
	note D_, 2
	octave 3
	note D_, 1
	note D_, 1
	octave 2
	note D_, 2
	octave 3
	note D_, 1
	note D_, 1
	note D_, 2
	note D_, 1
	note D_, 1
	note E_, 2
	octave 2
	note E_, 1
	note E_, 1
	note E_, 1
	note E_, 1
	octave 3
	note E_, 2
	octave 2
	note E_, 1
	note E_, 1
	note E_, 1
	note E_, 1
	octave 3
	note E_, 2
	octave 2
	note E_, 1
	note E_, 1
	note E_, 1
	note E_, 1
	octave 3
	note E_, 2
	octave 2
	note E_, 1
	note E_, 1
	note E_, 1
	note E_, 1
	octave 3
	note E_, 2
	octave 2
	note E_, 1
	note E_, 1
	note E_, 1
	note E_, 1
	note A_, 2
	note A_, 2
	rest 2
	note A_, 2
	rest 2
	note A_, 2
	note A_, 2
	note A_, 2
	note A_, 2
	octave 3
	note E_, 1
	octave 2
	note E_, 2
	note E_, 1
	octave 3
	note E_, 1
	octave 2
	note E_, 1
	octave 3
	note E_, 2
	octave 4
	note E_, 1
	octave 3
	note E_, 1
	octave 2
	note E_, 1
	octave 4
	note E_, 1
	octave 2
	note E_, 1
	rest 1
	note E_, 1
	note E_, 1
	note A_, 2
	octave 3
	note A_, 1
	note A_, 1
	octave 2
	note A_, 2
	octave 3
	note A_, 1
	note A_, 1
	octave 2
	note A_, 2
	octave 3
	note A_, 1
	note A_, 1
	octave 2
	note A_, 2
	octave 3
	note A_, 1
	note A_, 1
	octave 2
	note A_, 2
	octave 3
	note A_, 1
	note A_, 1
	octave 2
	note A_, 2
	octave 3
	note A_, 1
	note A_, 1
	octave 2
	note A_, 2
	octave 3
	note A_, 1
	note A_, 1
	octave 2
	note G_, 2
	octave 3
	note G_, 1
	note G_, 1
	octave 2
	note F_, 2
	octave 3
	note F_, 1
	note F_, 1
	octave 2
	note F_, 2
	octave 3
	note F_, 1
	note F_, 1
	octave 2
	note F_, 2
	octave 3
	note F_, 1
	note F_, 1
	octave 2
	note F_, 2
	octave 3
	note F_, 1
	note F_, 1
	octave 2
	note F_, 2
	octave 3
	note F_, 1
	note F_, 1
	octave 2
	note F_, 2
	octave 3
	note F_, 1
	note F_, 1
	octave 2
	note F_, 2
	octave 3
	note F_, 1
	note F_, 1
	octave 2
	note E_, 2
	octave 3
	note E_, 1
	note E_, 1
	octave 2
	note D_, 2
	octave 3
	note D_, 1
	note D_, 1
	octave 2
	note D_, 2
	octave 3
	note D_, 1
	note D_, 1
	octave 2
	note D_, 2
	octave 3
	note D_, 1
	note D_, 1
	octave 2
	note D_, 2
	octave 3
	note D_, 1
	note D_, 1
	octave 2
	note D_, 2
	octave 3
	note D_, 1
	note D_, 1
	octave 2
	note D_, 2
	octave 3
	note D_, 1
	note D_, 1
	octave 2
	note D_, 2
	octave 3
	note D_, 1
	note D_, 1
	octave 2
	note E_, 2
	octave 3
	note E_, 1
	note E_, 1
	octave 2
	note F_, 2
	octave 3
	note F_, 1
	note F_, 1
	octave 2
	note F_, 2
	octave 3
	note F_, 1
	note F_, 1
	octave 2
	note F_, 2
	octave 3
	note F_, 1
	note F_, 1
	octave 2
	note F_, 2
	octave 3
	note F_, 1
	note F_, 1
	octave 2
	note F_, 2
	octave 3
	note F_, 1
	note F_, 1
	octave 2
	note F_, 2
	octave 3
	note F_, 1
	note F_, 1
	octave 2
	note F_, 2
	octave 3
	note F_, 1
	note F_, 1
	octave 2
	note G_, 2
	octave 3
	note G_, 1
	note G_, 1
	octave 2
	note A_, 2
	octave 3
	note A_, 1
	note A_, 1
	octave 2
	note A_, 2
	octave 3
	note A_, 1
	note A_, 1
	octave 2
	note A_, 2
	octave 3
	note A_, 1
	note A_, 1
	octave 2
	note A_, 2
	octave 3
	note A_, 1
	note A_, 1
	octave 2
	note A_, 2
	octave 3
	note A_, 1
	note A_, 1
	octave 2
	note A_, 2
	octave 3
	note A_, 1
	note A_, 1
	octave 2
	note A_, 2
	octave 3
	note A_, 1
	note A_, 1
	octave 2
	note G_, 2
	octave 3
	note G_, 1
	note G_, 1
	octave 2
	note F_, 2
	octave 3
	note F_, 1
	note F_, 1
	octave 2
	note F_, 2
	octave 3
	note F_, 1
	note F_, 1
	octave 2
	note F_, 2
	octave 3
	note F_, 1
	note F_, 1
	octave 2
	note F_, 2
	octave 3
	note F_, 1
	note F_, 1
	octave 2
	note F_, 2
	octave 3
	note F_, 1
	note F_, 1
	octave 2
	note F_, 2
	octave 3
	note F_, 1
	note F_, 1
	octave 2
	note F_, 2
	octave 3
	note F_, 1
	note F_, 1
	octave 2
	note E_, 2
	octave 3
	note E_, 1
	note E_, 1
	octave 2
	note D_, 2
	octave 3
	note D_, 1
	note D_, 1
	octave 2
	note D_, 2
	octave 3
	note D_, 1
	note D_, 1
	octave 2
	note D_, 2
	octave 3
	note D_, 1
	note D_, 1
	octave 2
	note D_, 2
	octave 3
	note D_, 1
	note D_, 1
	octave 2
	note D_, 2
	octave 3
	note D_, 1
	note D_, 1
	octave 2
	note D_, 2
	octave 3
	note D_, 1
	note D_, 1
	octave 2
	note D_, 2
	octave 3
	note D_, 1
	note D_, 1
	octave 2
	note E_, 2
	octave 3
	note E_, 1
	note E_, 1
	note E_, 2
	octave 2
	note E_, 1
	note E_, 1
	note E_, 1
	note E_, 1
	octave 3
	note E_, 2
	octave 2
	note E_, 1
	note E_, 1
	note E_, 1
	note E_, 1
	octave 3
	note E_, 2
	octave 2
	note E_, 1
	note E_, 1
	note E_, 1
	note E_, 1
	octave 3
	note E_, 2
	rest 2
	octave 2
	note E_, 1
	note E_, 1
	octave 3
	note E_, 2
	octave 2
	note E_, 1
	note E_, 1
	octave 3
	note E_, 1
	octave 2
	note E_, 1
	note E_, 1
	note E_, 1
	note F_, 6
	octave 3
	note F_, 4
	note C_, 2
	octave 2
	note A_, 2
	note F_, 2
	note G_, 6
	octave 3
	note G_, 4
	note D_, 2
	octave 2
	note B_, 2
	note G_, 2
	note G#, 6
	octave 3
	note G#, 4
	note D_, 2
	note C_, 2
	octave 2
	note G#, 2
	note A_, 2
	octave 1
	note A_, 2
	octave 2
	note A_, 2
	octave 1
	note A_, 2
	octave 2
	note A_, 2
	note A_, 2
	note G_, 2
	note F_, 2
	note F_, 2
	octave 3
	note F_, 1
	note F_, 1
	octave 2
	note F_, 2
	octave 3
	note F_, 1
	note F_, 1
	octave 2
	note F_, 2
	octave 3
	note F_, 1
	note F_, 1
	octave 2
	note F_, 2
	octave 3
	note F_, 1
	note F_, 1
	octave 2
	note G_, 2
	octave 3
	note G_, 1
	note G_, 1
	octave 2
	note G_, 2
	octave 3
	note G_, 1
	note G_, 1
	octave 2
	note G_, 2
	octave 3
	note G_, 1
	note G_, 1
	octave 2
	note G_, 2
	octave 3
	note G_, 1
	note G_, 1
	octave 2
	note A_, 2
	octave 3
	note A_, 1
	note A_, 1
	octave 2
	note A_, 2
	octave 3
	note A_, 1
	note A_, 1
	octave 2
	note A_, 2
	octave 3
	note A_, 1
	note A_, 1
	octave 2
	note A_, 2
	octave 3
	note A_, 1
	note A_, 1
	octave 2
	note A_, 2
	octave 3
	note A_, 1
	note A_, 1
	octave 2
	note A_, 2
	octave 3
	note A_, 1
	note A_, 1
	octave 2
	note A_, 2
	octave 3
	note A_, 1
	note A_, 1
	note A_, 2
	note A_, 1
	note A_, 1
	sound_loop 0, .mainloop

Music_Gadoba_Ch4:
	toggle_noise 1
	drum_speed 12
	toggle_noise
	toggle_noise 3
.mainloop:
	drum_note 10, 4
	drum_note 9, 4
	drum_note 9, 4
	drum_note 9, 4
	drum_note 9, 4
	drum_note 9, 4
	drum_note 9, 4
	drum_note 2, 4
	drum_note 10, 4
	drum_note 9, 4
	drum_note 9, 4
	drum_note 9, 4
	drum_note 9, 4
	drum_note 9, 4
	drum_note 9, 4
	drum_note 2, 4
	drum_note 3, 4
	drum_note 3, 2
	drum_note 1, 2
	drum_note 3, 2
	drum_note 1, 2
	drum_note 3, 2
	drum_note 1, 2
	drum_note 3, 2
	drum_note 1, 2
	drum_note 3, 2
	drum_note 1, 2
	drum_note 3, 2
	drum_note 1, 2
	drum_note 3, 2
	drum_note 1, 2
	drum_note 3, 1
	drum_note 1, 1
	drum_note 1, 1
	drum_note 1, 1
	drum_note 3, 1
	drum_note 1, 1
	drum_note 1, 1
	drum_note 1, 1
	drum_note 3, 1
	drum_note 1, 1
	drum_note 1, 1
	drum_note 1, 1
	drum_note 3, 1
	drum_note 3, 1
	drum_note 3, 1
	drum_note 3, 1
	drum_note 3, 1
	drum_note 3, 1
	drum_note 3, 1
	drum_note 3, 1
	drum_note 3, 2
	drum_note 1, 1
	drum_note 10, 1
	drum_note 3, 1
	drum_note 3, 1
	drum_note 1, 1
	drum_note 1, 1
	drum_note 10, 1
	drum_note 10, 1
	drum_note 6, 1
	drum_note 6, 1
	drum_note 10, 4
	drum_note 7, 2
	drum_note 7, 2
	drum_note 7, 2
	drum_note 7, 1
	drum_note 7, 1
	drum_note 3, 2
	drum_note 7, 2
	drum_note 7, 2
	drum_note 7, 2
	drum_note 7, 2
	drum_note 7, 2
	drum_note 7, 2
	drum_note 7, 1
	drum_note 1, 1
	drum_note 3, 2
	drum_note 7, 2
	drum_note 7, 2
	drum_note 7, 2
	drum_note 7, 2
	drum_note 7, 2
	drum_note 7, 2
	drum_note 7, 1
	drum_note 1, 1
	drum_note 3, 2
	drum_note 7, 2
	drum_note 7, 2
	drum_note 7, 2
	drum_note 7, 2
	drum_note 7, 2
	drum_note 7, 2
	drum_note 7, 1
	drum_note 1, 1
	drum_note 3, 2
	drum_note 7, 2
	drum_note 7, 2
	drum_note 7, 2
	drum_note 7, 2
	drum_note 7, 2
	drum_note 7, 2
	drum_note 7, 1
	drum_note 7, 1
	drum_note 3, 2
	drum_note 7, 2
	drum_note 7, 2
	drum_note 7, 2
	drum_note 7, 2
	drum_note 7, 2
	drum_note 7, 2
	drum_note 7, 1
	drum_note 1, 1
	drum_note 3, 2
	drum_note 7, 2
	drum_note 7, 2
	drum_note 7, 2
	drum_note 7, 2
	drum_note 7, 2
	drum_note 7, 2
	drum_note 7, 1
	drum_note 1, 1
	drum_note 3, 2
	drum_note 7, 2
	drum_note 7, 2
	drum_note 7, 2
	drum_note 7, 2
	drum_note 7, 2
	drum_note 7, 2
	drum_note 7, 1
	drum_note 1, 1
	drum_note 3, 1
	drum_note 3, 1
	drum_note 3, 1
	drum_note 3, 1
	drum_note 10, 4
	drum_note 7, 2
	drum_note 7, 2
	drum_note 7, 2
	drum_note 7, 1
	drum_note 7, 1
	drum_note 3, 2
	drum_note 7, 2
	drum_note 7, 2
	drum_note 7, 2
	drum_note 7, 2
	drum_note 7, 2
	drum_note 7, 2
	drum_note 7, 1
	drum_note 1, 1
	drum_note 3, 2
	drum_note 7, 2
	drum_note 7, 2
	drum_note 7, 2
	drum_note 7, 2
	drum_note 7, 2
	drum_note 7, 2
	drum_note 7, 1
	drum_note 1, 1
	drum_note 3, 2
	drum_note 7, 2
	drum_note 7, 2
	drum_note 7, 2
	drum_note 7, 2
	drum_note 7, 2
	drum_note 7, 2
	drum_note 7, 1
	drum_note 1, 1
	drum_note 3, 2
	drum_note 7, 2
	drum_note 7, 2
	drum_note 7, 2
	drum_note 7, 2
	drum_note 7, 2
	drum_note 7, 2
	drum_note 7, 1
	drum_note 7, 1
	drum_note 3, 2
	drum_note 7, 2
	drum_note 7, 2
	drum_note 7, 2
	drum_note 7, 2
	drum_note 7, 2
	drum_note 7, 2
	drum_note 7, 1
	drum_note 1, 1
	drum_note 3, 1
	drum_note 3, 1
	drum_note 3, 1
	drum_note 3, 1
	drum_note 10, 2
	drum_note 3, 1
	drum_note 3, 1
	drum_note 3, 1
	drum_note 3, 1
	drum_note 2, 2
	drum_note 3, 1
	drum_note 3, 1
	drum_note 3, 1
	drum_note 3, 1
	drum_note 10, 2
	drum_note 3, 1
	drum_note 3, 1
	drum_note 1, 1
	drum_note 10, 1
	drum_note 8, 1
	drum_note 6, 1
	drum_note 3, 1
	drum_note 1, 1
	drum_note 10, 2
	drum_note 1, 1
	drum_note 1, 1
	drum_note 10, 1
	drum_note 10, 1
	drum_note 3, 2
	drum_note 10, 6
	drum_note 1, 4
	drum_note 1, 2
	drum_note 1, 1
	drum_note 1, 1
	drum_note 3, 1
	drum_note 3, 1
	drum_note 3, 1
	drum_note 3, 1
	drum_note 3, 1
	drum_note 3, 2
	drum_note 3, 1
	drum_note 3, 2
	drum_note 3, 1
	drum_note 3, 1
	drum_note 3, 1
	drum_note 3, 1
	drum_note 1, 1
	drum_note 1, 1
	drum_note 10, 1
	drum_note 10, 1
	drum_note 8, 1
	drum_note 8, 1
	drum_note 10, 4
	drum_note 7, 2
	drum_note 7, 2
	drum_note 7, 2
	drum_note 7, 1
	drum_note 7, 1
	drum_note 3, 2
	drum_note 7, 2
	drum_note 7, 2
	drum_note 7, 2
	drum_note 7, 2
	drum_note 7, 2
	drum_note 7, 2
	drum_note 7, 1
	drum_note 1, 1
	drum_note 3, 2
	drum_note 7, 2
	drum_note 7, 2
	drum_note 7, 2
	drum_note 7, 2
	drum_note 7, 2
	drum_note 7, 2
	drum_note 7, 1
	drum_note 1, 1
	drum_note 3, 2
	drum_note 7, 2
	drum_note 7, 2
	drum_note 7, 2
	drum_note 7, 2
	drum_note 7, 2
	drum_note 7, 2
	drum_note 7, 1
	drum_note 1, 1
	drum_note 7, 2
	drum_note 3, 1
	drum_note 3, 1
	drum_note 10, 4
	drum_note 7, 2
	drum_note 7, 2
	drum_note 7, 2
	drum_note 7, 1
	drum_note 7, 1
	drum_note 3, 2
	drum_note 7, 2
	drum_note 7, 2
	drum_note 7, 2
	drum_note 7, 2
	drum_note 7, 2
	drum_note 7, 2
	drum_note 7, 1
	drum_note 1, 1
	drum_note 3, 2
	drum_note 7, 2
	drum_note 7, 2
	drum_note 7, 2
	drum_note 7, 2
	drum_note 7, 2
	drum_note 7, 2
	drum_note 7, 1
	drum_note 1, 1
	drum_note 3, 2
	drum_note 7, 2
	drum_note 7, 2
	drum_note 7, 2
	drum_note 7, 2
	drum_note 7, 2
	drum_note 7, 2
	drum_note 7, 1
	drum_note 1, 1
	drum_note 7, 2
	drum_note 3, 1
	drum_note 3, 1
	drum_note 10, 4
	drum_note 7, 2
	drum_note 7, 2
	drum_note 7, 2
	drum_note 7, 1
	drum_note 7, 1
	drum_note 3, 2
	drum_note 7, 2
	drum_note 7, 2
	drum_note 7, 2
	drum_note 7, 2
	drum_note 7, 2
	drum_note 7, 2
	drum_note 7, 1
	drum_note 1, 1
	drum_note 3, 2
	drum_note 7, 2
	drum_note 7, 2
	drum_note 7, 2
	drum_note 7, 2
	drum_note 7, 2
	drum_note 7, 2
	drum_note 7, 1
	drum_note 1, 1
	drum_note 3, 2
	drum_note 7, 2
	drum_note 7, 2
	drum_note 7, 2
	drum_note 7, 2
	drum_note 7, 2
	drum_note 7, 2
	drum_note 7, 1
	drum_note 1, 1
	drum_note 7, 2
	drum_note 3, 1
	drum_note 3, 1
	drum_note 10, 4
	drum_note 7, 2
	drum_note 7, 2
	drum_note 7, 2
	drum_note 7, 1
	drum_note 7, 1
	drum_note 3, 2
	drum_note 7, 2
	drum_note 1, 4
	drum_note 3, 4
	drum_note 1, 2
	drum_note 1, 1
	drum_note 1, 1
	drum_note 3, 1
	drum_note 1, 1
	drum_note 10, 1
	drum_note 6, 1
	drum_note 3, 2
	drum_note 1, 1
	drum_note 1, 1
	drum_note 1, 1
	drum_note 1, 1
	drum_note 10, 4
	drum_note 1, 1
	drum_note 1, 1
	drum_note 3, 2
	drum_note 1, 1
	drum_note 1, 1
	drum_note 1, 1
	drum_note 1, 1
	drum_note 2, 4
	drum_note 1, 1
	drum_note 1, 1
	drum_note 3, 2
	drum_note 1, 1
	drum_note 1, 1
	drum_note 10, 4
	drum_note 2, 2
	drum_note 7, 2
	drum_note 7, 2
	drum_note 7, 2
	drum_note 3, 2
	drum_note 7, 2
	drum_note 7, 2
	drum_note 7, 2
	drum_note 7, 2
	drum_note 7, 2
	drum_note 7, 2
	drum_note 7, 2
	drum_note 3, 2
	drum_note 7, 2
	drum_note 7, 2
	drum_note 7, 2
	drum_note 2, 2
	drum_note 7, 2
	drum_note 7, 2
	drum_note 7, 2
	drum_note 7, 2
	drum_note 7, 2
	drum_note 7, 2
	drum_note 7, 2
	drum_note 11, 2
	drum_note 7, 2
	drum_note 11, 2
	drum_note 7, 2
	drum_note 7, 2
	drum_note 7, 2
	drum_note 7, 2
	drum_note 10, 2
	drum_note 7, 2
	drum_note 7, 1
	drum_note 1, 1
	drum_note 7, 2
	drum_note 7, 2
	drum_note 7, 2
	drum_note 7, 2
	drum_note 7, 2
	drum_note 10, 2
	drum_note 7, 2
	drum_note 7, 1
	drum_note 1, 1
	drum_note 7, 2
	drum_note 7, 2
	drum_note 7, 2
	drum_note 7, 2
	drum_note 7, 2
	drum_note 10, 2
	drum_note 7, 2
	drum_note 7, 1
	drum_note 1, 1
	drum_note 7, 2
	drum_note 7, 2
	drum_note 7, 2
	drum_note 7, 2
	drum_note 7, 2
	drum_note 3, 1
	drum_note 3, 1
	drum_note 3, 1
	drum_note 3, 1
	drum_note 1, 2
	drum_note 3, 1
	drum_note 3, 1
	drum_note 1, 2
	drum_note 3, 2
	drum_note 3, 2
	drum_note 3, 1
	drum_note 3, 1
	drum_note 2, 2
	drum_note 10, 4
	drum_note 7, 2
	drum_note 7, 2
	drum_note 7, 2
	drum_note 7, 1
	drum_note 7, 1
	drum_note 3, 2
	drum_note 7, 2
	drum_note 7, 2
	drum_note 7, 2
	drum_note 7, 2
	drum_note 7, 2
	drum_note 7, 2
	drum_note 7, 1
	drum_note 1, 1
	drum_note 3, 2
	drum_note 7, 2
	drum_note 7, 2
	drum_note 7, 2
	drum_note 7, 2
	drum_note 7, 2
	drum_note 7, 2
	drum_note 7, 1
	drum_note 1, 1
	drum_note 3, 2
	drum_note 7, 2
	drum_note 7, 2
	drum_note 7, 2
	drum_note 7, 2
	drum_note 7, 2
	drum_note 7, 2
	drum_note 7, 1
	drum_note 1, 1
	drum_note 3, 2
	drum_note 7, 2
	drum_note 7, 2
	drum_note 7, 2
	drum_note 7, 2
	drum_note 7, 2
	drum_note 7, 2
	drum_note 7, 1
	drum_note 7, 1
	drum_note 3, 2
	drum_note 7, 2
	drum_note 7, 2
	drum_note 7, 2
	drum_note 7, 2
	drum_note 7, 2
	drum_note 7, 2
	drum_note 7, 1
	drum_note 1, 1
	drum_note 3, 2
	drum_note 7, 2
	drum_note 7, 2
	drum_note 7, 2
	drum_note 7, 2
	drum_note 7, 2
	drum_note 7, 2
	drum_note 7, 1
	drum_note 1, 1
	drum_note 3, 2
	drum_note 7, 2
	drum_note 7, 2
	drum_note 7, 2
	drum_note 7, 2
	drum_note 7, 2
	drum_note 7, 2
	drum_note 7, 1
	drum_note 1, 1
	drum_note 3, 1
	drum_note 3, 1
	drum_note 3, 1
	drum_note 3, 1
	drum_note 10, 4
	drum_note 7, 2
	drum_note 7, 2
	drum_note 7, 2
	drum_note 7, 1
	drum_note 7, 1
	drum_note 3, 2
	drum_note 7, 2
	drum_note 7, 2
	drum_note 7, 2
	drum_note 7, 2
	drum_note 7, 2
	drum_note 7, 2
	drum_note 7, 1
	drum_note 1, 1
	drum_note 3, 2
	drum_note 7, 2
	drum_note 7, 2
	drum_note 7, 2
	drum_note 7, 2
	drum_note 7, 2
	drum_note 7, 2
	drum_note 7, 1
	drum_note 1, 1
	drum_note 3, 2
	drum_note 7, 2
	drum_note 7, 2
	drum_note 7, 2
	drum_note 7, 2
	drum_note 7, 2
	drum_note 7, 2
	drum_note 7, 1
	drum_note 1, 1
	drum_note 3, 2
	drum_note 7, 2
	drum_note 7, 2
	drum_note 7, 2
	drum_note 7, 2
	drum_note 7, 2
	drum_note 7, 2
	drum_note 7, 1
	drum_note 7, 1
	drum_note 3, 2
	drum_note 7, 2
	drum_note 7, 2
	drum_note 7, 2
	drum_note 7, 2
	drum_note 7, 2
	drum_note 7, 2
	drum_note 7, 1
	drum_note 1, 1
	drum_note 3, 1
	drum_note 3, 1
	drum_note 3, 1
	drum_note 3, 1
	drum_note 10, 2
	drum_note 3, 1
	drum_note 3, 1
	drum_note 3, 1
	drum_note 3, 1
	drum_note 2, 2
	drum_note 3, 1
	drum_note 3, 1
	drum_note 3, 1
	drum_note 3, 1
	drum_note 10, 2
	drum_note 3, 1
	drum_note 3, 1
	drum_note 1, 1
	drum_note 10, 1
	drum_note 8, 1
	drum_note 6, 1
	drum_note 3, 1
	drum_note 1, 1
	drum_note 10, 2
	drum_note 1, 1
	drum_note 1, 1
	drum_note 10, 1
	drum_note 10, 1
	drum_note 3, 2
	drum_note 10, 6
	drum_note 1, 4
	drum_note 1, 2
	drum_note 1, 1
	drum_note 1, 1
	drum_note 3, 1
	drum_note 3, 1
	drum_note 3, 1
	drum_note 3, 1
	drum_note 3, 1
	drum_note 3, 2
	drum_note 3, 1
	drum_note 3, 2
	drum_note 3, 1
	drum_note 3, 1
	drum_note 3, 1
	drum_note 3, 1
	drum_note 1, 1
	drum_note 1, 1
	drum_note 10, 1
	drum_note 10, 1
	drum_note 8, 1
	drum_note 8, 1
	drum_note 10, 4
	drum_note 7, 2
	drum_note 7, 2
	drum_note 7, 2
	drum_note 7, 1
	drum_note 7, 1
	drum_note 3, 2
	drum_note 7, 2
	drum_note 7, 2
	drum_note 7, 2
	drum_note 7, 2
	drum_note 7, 2
	drum_note 7, 2
	drum_note 7, 1
	drum_note 1, 1
	drum_note 3, 2
	drum_note 7, 2
	drum_note 7, 2
	drum_note 7, 2
	drum_note 7, 2
	drum_note 7, 2
	drum_note 7, 2
	drum_note 7, 1
	drum_note 1, 1
	drum_note 3, 2
	drum_note 7, 2
	drum_note 7, 2
	drum_note 7, 2
	drum_note 7, 2
	drum_note 7, 2
	drum_note 7, 2
	drum_note 7, 1
	drum_note 1, 1
	drum_note 7, 2
	drum_note 3, 1
	drum_note 3, 1
	drum_note 10, 4
	drum_note 7, 2
	drum_note 7, 2
	drum_note 7, 2
	drum_note 7, 1
	drum_note 7, 1
	drum_note 3, 2
	drum_note 7, 2
	drum_note 7, 2
	drum_note 7, 2
	drum_note 7, 2
	drum_note 7, 2
	drum_note 7, 2
	drum_note 7, 1
	drum_note 1, 1
	drum_note 3, 2
	drum_note 7, 2
	drum_note 7, 2
	drum_note 7, 2
	drum_note 7, 2
	drum_note 7, 2
	drum_note 7, 2
	drum_note 7, 1
	drum_note 1, 1
	drum_note 3, 2
	drum_note 7, 2
	drum_note 7, 2
	drum_note 7, 2
	drum_note 7, 2
	drum_note 7, 2
	drum_note 7, 2
	drum_note 7, 1
	drum_note 1, 1
	drum_note 7, 2
	drum_note 3, 1
	drum_note 3, 1
	drum_note 10, 4
	drum_note 7, 2
	drum_note 7, 2
	drum_note 7, 2
	drum_note 7, 1
	drum_note 7, 1
	drum_note 3, 2
	drum_note 7, 2
	drum_note 7, 2
	drum_note 7, 2
	drum_note 7, 2
	drum_note 7, 2
	drum_note 7, 2
	drum_note 7, 1
	drum_note 1, 1
	drum_note 3, 2
	drum_note 7, 2
	drum_note 7, 2
	drum_note 7, 2
	drum_note 7, 2
	drum_note 7, 2
	drum_note 7, 2
	drum_note 7, 1
	drum_note 1, 1
	drum_note 3, 2
	drum_note 7, 2
	drum_note 7, 2
	drum_note 7, 2
	drum_note 7, 2
	drum_note 7, 2
	drum_note 7, 2
	drum_note 7, 1
	drum_note 1, 1
	drum_note 7, 2
	drum_note 3, 1
	drum_note 3, 1
	drum_note 10, 4
	drum_note 7, 2
	drum_note 7, 2
	drum_note 7, 2
	drum_note 7, 1
	drum_note 7, 1
	drum_note 3, 2
	drum_note 7, 2
	drum_note 1, 4
	drum_note 3, 4
	drum_note 1, 2
	drum_note 1, 1
	drum_note 1, 1
	drum_note 3, 1
	drum_note 1, 1
	drum_note 10, 1
	drum_note 6, 1
	drum_note 3, 2
	drum_note 1, 1
	drum_note 1, 1
	drum_note 1, 1
	drum_note 1, 1
	drum_note 10, 4
	drum_note 1, 1
	drum_note 1, 1
	drum_note 3, 2
	drum_note 1, 1
	drum_note 1, 1
	drum_note 1, 1
	drum_note 1, 1
	drum_note 2, 4
	drum_note 1, 1
	drum_note 1, 1
	drum_note 3, 2
	drum_note 1, 1
	drum_note 1, 1
	drum_note 10, 4
	drum_note 2, 2
	drum_note 7, 2
	drum_note 7, 2
	drum_note 7, 2
	drum_note 3, 2
	drum_note 7, 2
	drum_note 7, 2
	drum_note 7, 2
	drum_note 7, 2
	drum_note 7, 2
	drum_note 7, 2
	drum_note 7, 2
	drum_note 3, 2
	drum_note 7, 2
	drum_note 7, 2
	drum_note 7, 2
	drum_note 2, 2
	drum_note 7, 2
	drum_note 7, 2
	drum_note 7, 2
	drum_note 7, 2
	drum_note 7, 2
	drum_note 7, 2
	drum_note 7, 2
	drum_note 11, 2
	drum_note 7, 2
	drum_note 11, 2
	drum_note 7, 2
	drum_note 7, 2
	drum_note 7, 2
	drum_note 7, 2
	drum_note 10, 2
	drum_note 7, 2
	drum_note 7, 1
	drum_note 1, 1
	drum_note 7, 2
	drum_note 7, 2
	drum_note 7, 2
	drum_note 7, 2
	drum_note 7, 2
	drum_note 10, 2
	drum_note 7, 2
	drum_note 7, 1
	drum_note 1, 1
	drum_note 7, 2
	drum_note 7, 2
	drum_note 7, 2
	drum_note 7, 2
	drum_note 7, 2
	drum_note 10, 2
	drum_note 7, 2
	drum_note 7, 1
	drum_note 1, 1
	drum_note 7, 2
	drum_note 7, 2
	drum_note 7, 2
	drum_note 7, 2
	drum_note 7, 2
	drum_note 3, 1
	drum_note 3, 1
	drum_note 3, 1
	drum_note 3, 1
	drum_note 1, 2
	drum_note 3, 1
	drum_note 3, 1
	drum_note 1, 2
	drum_note 3, 2
	drum_note 3, 2
	drum_note 3, 1
	drum_note 3, 1
	drum_note 2, 2
	sound_loop 0, .mainloop
