Music_Hill:
	channel_count 4
	channel 1, Music_Hill_Ch1
	channel 2, Music_Hill_Ch2
	channel 3, Music_Hill_Ch3
	channel 4, Music_Hill_Ch4

Music_Hill_Ch1:
	volume 7, 7
	duty_cycle 0
	note_type 12, 10, 7
	tempo 140
.mainloop:
	rest 6
	octave 1
	volume_envelope 8, 7
	note G_, 2
	note G_, 1
	note G_, 1
	note G_, 2
	note G_, 1
	note G_, 1
	note G_, 2
	note G_, 1
	note G_, 1
	note G_, 2
	note G_, 1
	note G_, 1
	note F_, 2
	note F_, 1
	note F_, 1
	note F_, 2
	note F_, 1
	note F_, 1
	note F_, 2
	note F_, 1
	note F_, 1
	note F_, 2
	note F_, 1
	note F_, 1
	note G_, 2
	note G_, 1
	note G_, 1
	note G_, 2
	note G_, 1
	note G_, 1
	note G_, 2
	note G_, 1
	note G_, 1
	note G_, 2
	note G_, 1
	note G_, 1
	note G_, 2
	note G_, 1
	note G_, 1
	note G_, 2
	note G_, 1
	note G_, 1
	note G_, 2
	note G_, 1
	note G_, 1
	note G_, 2
	note G_, 1
	note G_, 1
	note G_, 2
	note G_, 1
	note G_, 1
	note G_, 2
	note G_, 1
	note G_, 1
	note G_, 2
	note G_, 1
	note G_, 1
	note G_, 2
	note G_, 1
	note G_, 1
	note F_, 2
	note F_, 1
	note F_, 1
	note F_, 2
	note F_, 1
	note F_, 1
	note F_, 2
	note F_, 1
	note F_, 1
	note F_, 2
	note F_, 1
	note F_, 1
	note G_, 2
	note G_, 1
	note G_, 1
	note G_, 2
	note G_, 1
	note G_, 1
	note G_, 2
	note G_, 1
	note G_, 1
	note G_, 2
	note G_, 1
	note G_, 1
	note G_, 2
	note G_, 1
	note G_, 1
	note G_, 2
	note G_, 1
	note G_, 1
	note G_, 2
	note G_, 1
	note G_, 1
	note G_, 2
	note G_, 1
	note G_, 1
	note D#, 3
	note D#, 3
	note D#, 3
	note D#, 1
	note G_, 1
	note A#, 1
	octave 2
	note D#, 1
	octave 1
	note A#, 1
	note G_, 1
	note A#, 1
	note F_, 3
	note F_, 3
	note F_, 3
	note F_, 1
	note A_, 1
	octave 2
	note C_, 1
	note F_, 1
	note C_, 1
	octave 1
	note A_, 1
	octave 2
	note C_, 1
	octave 1
	note G_, 2
	note G_, 1
	note G_, 1
	note G_, 2
	note G_, 1
	note G_, 1
	note G_, 2
	note G_, 1
	note G_, 1
	note G_, 2
	note G_, 1
	note G_, 1
	note D_, 2
	note D_, 1
	note D_, 1
	note D_, 2
	note D_, 1
	note D_, 1
	note D_, 2
	note D_, 1
	note D_, 1
	note D_, 2
	note D_, 1
	note D_, 1
	note D#, 3
	note D#, 3
	note D#, 3
	note D#, 1
	note G_, 1
	note A#, 1
	octave 2
	note D#, 1
	octave 1
	note A#, 1
	note G_, 1
	note A#, 1
	note F_, 3
	note F_, 3
	note F_, 3
	note F_, 1
	note A_, 1
	octave 2
	note C_, 1
	note F_, 1
	note C_, 1
	octave 1
	note A_, 1
	octave 2
	note C_, 1
	octave 1
	note D_, 2
	note D_, 1
	note D_, 1
	note D_, 2
	note D_, 1
	note D_, 1
	note D_, 2
	note D_, 1
	note D_, 1
	note D_, 2
	note D_, 1
	note D_, 1
	octave 2
	note D_, 2
	note D_, 1
	note D_, 1
	note D_, 2
	note D_, 1
	note D_, 1
	note D_, 2
	note D_, 1
	note D_, 1
	note D_, 2
	note D_, 1
	note D_, 1
	octave 1
	note G_, 2
	note G_, 1
	note G_, 2
	note G_, 1
	note G_, 2
	note F_, 2
	note F_, 1
	note F_, 2
	note F_, 1
	note F_, 2
	note D#, 2
	note D#, 1
	note D#, 2
	note D#, 1
	note D#, 2
	note F_, 2
	note F_, 1
	note F_, 2
	note F_, 1
	note F_, 2
	note G_, 2
	note G_, 1
	note G_, 2
	note G_, 1
	note G_, 2
	note F_, 2
	note F_, 1
	note F_, 2
	note F_, 1
	note F_, 2
	note D#, 2
	note D#, 1
	note D#, 2
	note D#, 1
	note D#, 2
	note F_, 2
	note F_, 1
	note F_, 2
	note F_, 1
	note F_, 2
	note D#, 2
	note D#, 1
	note D#, 1
	note D#, 2
	note D#, 1
	note D#, 1
	note D#, 2
	note D#, 1
	note D#, 1
	note D#, 2
	note D#, 1
	note D#, 1
	note F_, 2
	note F_, 1
	note F_, 1
	note F_, 2
	note F_, 1
	note F_, 1
	note F_, 2
	note F_, 1
	note F_, 1
	note F_, 2
	note F_, 1
	note F_, 1
	note G_, 2
	note G_, 1
	note G_, 1
	note G_, 2
	note G_, 1
	note G_, 1
	note G_, 2
	note G_, 1
	note G_, 1
	note G_, 2
	note G_, 1
	note G_, 1
	note G_, 2
	note G_, 1
	note G_, 1
	note G_, 2
	note G_, 1
	note G_, 1
	note G_, 2
	note G_, 1
	note G_, 1
	note G_, 2
	note G_, 1
	note G_, 1
	note G_, 2
	note G_, 1
	note G_, 1
	note G_, 2
	note G_, 1
	note G_, 1
	note G_, 2
	note G_, 1
	note G_, 1
	note G_, 2
	note G_, 1
	note G_, 1
	note F_, 2
	note F_, 1
	note F_, 1
	note F_, 2
	note F_, 1
	note F_, 1
	note F_, 2
	note F_, 1
	note F_, 1
	note F_, 2
	note F_, 1
	note F_, 1
	note G_, 2
	note G_, 1
	note G_, 1
	note G_, 2
	note G_, 1
	note G_, 1
	note G_, 2
	note G_, 1
	note G_, 1
	note G_, 2
	note G_, 1
	note G_, 1
	note G_, 2
	note G_, 1
	note G_, 1
	note G_, 2
	note G_, 1
	note G_, 1
	note G_, 2
	note G_, 1
	note G_, 1
	note G_, 2
	note G_, 1
	note G_, 1
	note G_, 2
	note G_, 1
	note G_, 1
	note G_, 2
	note G_, 1
	note G_, 1
	note G_, 2
	note G_, 1
	note G_, 1
	note G_, 2
	note G_, 1
	note G_, 1
	note F_, 2
	note F_, 1
	note F_, 1
	note F_, 2
	note F_, 1
	note F_, 1
	note F_, 2
	note F_, 1
	note F_, 1
	note F_, 2
	note F_, 1
	note F_, 1
	note G_, 2
	note G_, 1
	note G_, 1
	note G_, 2
	note G_, 1
	note G_, 1
	note G_, 2
	note G_, 1
	note G_, 1
	note G_, 2
	note G_, 1
	note G_, 1
	note G_, 2
	note G_, 1
	note G_, 1
	note G_, 2
	note G_, 1
	note G_, 1
	note G_, 2
	note G_, 1
	note G_, 1
	note G_, 2
	note G_, 1
	note G_, 1
	note D#, 3
	note D#, 3
	note D#, 3
	note D#, 1
	note G_, 1
	note A#, 1
	octave 2
	note D#, 1
	octave 1
	note A#, 1
	note G_, 1
	note A#, 1
	note F_, 3
	note F_, 3
	note F_, 3
	note F_, 1
	note A_, 1
	octave 2
	note C_, 1
	note F_, 1
	note C_, 1
	octave 1
	note A_, 1
	octave 2
	note C_, 1
	octave 1
	note G_, 2
	note G_, 1
	note G_, 1
	note G_, 2
	note G_, 1
	note G_, 1
	note G_, 2
	note G_, 1
	note G_, 1
	note G_, 2
	note G_, 1
	note G_, 1
	note D_, 2
	note D_, 1
	note D_, 1
	note D_, 2
	note D_, 1
	note D_, 1
	note D_, 2
	note D_, 1
	note D_, 1
	note D_, 2
	note D_, 1
	note D_, 1
	note D#, 3
	note D#, 3
	note D#, 3
	note D#, 1
	note G_, 1
	note A#, 1
	octave 2
	note D#, 1
	octave 1
	note A#, 1
	note G_, 1
	note A#, 1
	note F_, 3
	note F_, 3
	note F_, 3
	note F_, 1
	note A_, 1
	octave 2
	note C_, 1
	note F_, 1
	note C_, 1
	octave 1
	note A_, 1
	octave 2
	note C_, 1
	octave 1
	note D_, 2
	note D_, 1
	note D_, 1
	note D_, 2
	note D_, 1
	note D_, 1
	note D_, 2
	note D_, 1
	note D_, 1
	note D_, 2
	note D_, 1
	note D_, 1
	octave 2
	note D_, 2
	note D_, 1
	note D_, 1
	note D_, 2
	note D_, 1
	note D_, 1
	note D_, 2
	note D_, 1
	note D_, 1
	note D_, 2
	note D_, 1
	note D_, 1
	octave 1
	note G_, 2
	note G_, 1
	note G_, 2
	note G_, 1
	note G_, 2
	note F_, 2
	note F_, 1
	note F_, 2
	note F_, 1
	note F_, 2
	note D#, 2
	note D#, 1
	note D#, 2
	note D#, 1
	note D#, 2
	note F_, 2
	note F_, 1
	note F_, 2
	note F_, 1
	note F_, 2
	note G_, 2
	note G_, 1
	note G_, 2
	note G_, 1
	note G_, 2
	note F_, 2
	note F_, 1
	note F_, 2
	note F_, 1
	note F_, 2
	note D#, 2
	note D#, 1
	note D#, 2
	note D#, 1
	note D#, 2
	note F_, 2
	note F_, 1
	note F_, 2
	note F_, 1
	note F_, 2
	note D#, 2
	note D#, 1
	note D#, 1
	note D#, 2
	note D#, 1
	note D#, 1
	note D#, 2
	note D#, 1
	note D#, 1
	note D#, 2
	note D#, 1
	note D#, 1
	note F_, 2
	note F_, 1
	note F_, 1
	note F_, 2
	note F_, 1
	note F_, 1
	note F_, 2
	note F_, 1
	note F_, 1
	note F_, 2
	note F_, 1
	note F_, 1
	note G_, 2
	note G_, 1
	note G_, 1
	note G_, 2
	note G_, 1
	note G_, 1
	note G_, 2
	note G_, 1
	note G_, 1
	note G_, 2
	note G_, 1
	note G_, 1
	note G_, 2
	note G_, 1
	note G_, 1
	note G_, 2
	note G_, 1
	note G_, 1
	note G_, 2
	note G_, 1
	note G_, 1
	note G_, 2
	note G_, 1
	note G_, 1
	note D#, 14
	note F_, 16
	note F_, 2
	note G_, 6
	note F_, 10
	note D#, 6
	note F_, 10
	note G_, 4
	note G_, 2
	note F_, 4
	note F_, 2
	note F_, 2
	note F_, 2
	note D#, 4
	note D#, 2
	note F_, 4
	note D_, 2
	note F_, 2
	note A_, 2
	note G_, 16
	sound_loop 0, .mainloop

Music_Hill_Ch2:
	duty_cycle 1
	note_type 12, 10, 7
.mainloop:
	rest 6
	octave 4
	volume_envelope 12, 7
	note G_, 16
	note D_, 16
	note G_, 16
	note G_, 1
	octave 5
	note D_, 15
	octave 3
	note G_, 16
	note C_, 16
	note G_, 16
	octave 4
	note G_, 1
	note D_, 1
	octave 3
	note A#, 1
	note G_, 1
	note A#, 1
	note G_, 1
	note D_, 1
	note G_, 1
	note A#, 1
	note G_, 1
	note D_, 1
	octave 2
	note A#, 1
	octave 3
	note G_, 1
	note D_, 1
	octave 2
	note A#, 1
	note G_, 1
	octave 3
	note G_, 3
	note A_, 3
	note A#, 10
	note A_, 3
	note G_, 3
	note F_, 10
	note D#, 1
	octave 2
	note A#, 1
	octave 3
	note D#, 1
	note F_, 1
	note G_, 1
	note D#, 1
	note G_, 1
	note A_, 1
	note A#, 1
	note G_, 1
	note A#, 1
	octave 4
	note C_, 1
	note D_, 1
	note C_, 1
	note D_, 1
	note D#, 1
	note F#, 1
	note D_, 1
	octave 3
	note A_, 1
	octave 4
	note D_, 1
	octave 3
	note A_, 1
	note F#, 1
	note A_, 1
	note F#, 1
	note D_, 1
	note F#, 1
	note D_, 1
	octave 2
	note A_, 1
	octave 3
	note D_, 1
	octave 2
	note A_, 1
	note F#, 1
	note A_, 1
	octave 3
	note G_, 3
	note A_, 3
	note A#, 10
	note A_, 3
	note G_, 3
	note F_, 4
	note F_, 2
	note F_, 1
	note A_, 3
	octave 2
	note G_, 1
	note A#, 1
	octave 3
	note D_, 1
	note G_, 1
	octave 2
	note A#, 1
	octave 3
	note D_, 1
	note G_, 1
	note A#, 1
	note D_, 1
	note G_, 1
	note A#, 1
	octave 4
	note D_, 1
	octave 3
	note G_, 1
	note A#, 1
	octave 4
	note D_, 1
	note G_, 1
	note A_, 1
	note F#, 1
	note D_, 1
	octave 3
	note A_, 1
	octave 4
	note F#, 1
	note D_, 1
	octave 3
	note A_, 1
	note F#, 1
	octave 4
	note D_, 1
	octave 3
	note A_, 1
	note F#, 1
	note D_, 1
	note A_, 1
	note F#, 1
	note D_, 1
	octave 2
	note A_, 1
	octave 3
	note G_, 1
	note A#, 1
	octave 4
	note D_, 1
	note G_, 1
	note A#, 1
	note G_, 1
	note D_, 1
	octave 3
	note A#, 1
	note F_, 1
	note A_, 1
	octave 4
	note D_, 1
	note F_, 1
	note A_, 1
	note F_, 1
	note D_, 1
	octave 3
	note A_, 1
	note D#, 1
	note G_, 1
	note A#, 1
	octave 4
	note D#, 1
	note G_, 1
	note D#, 1
	octave 3
	note A#, 1
	note G_, 1
	note F_, 1
	note A_, 1
	octave 4
	note C_, 1
	note F_, 1
	note A_, 1
	note F_, 1
	note C_, 1
	octave 3
	note A_, 1
	note G_, 1
	note A#, 1
	octave 4
	note D_, 1
	note G_, 1
	note A#, 1
	note D_, 1
	note G_, 1
	note A#, 1
	octave 3
	note F_, 1
	note A_, 1
	octave 4
	note D_, 1
	note F_, 1
	note A_, 1
	note D_, 1
	note F_, 1
	note A_, 1
	octave 3
	note D#, 1
	note G_, 1
	note A#, 1
	octave 4
	note D#, 1
	note G_, 1
	octave 3
	note A#, 1
	octave 4
	note D#, 1
	note G_, 1
	octave 3
	note F_, 1
	note A_, 1
	octave 4
	note C_, 1
	note F_, 1
	note A_, 1
	note C_, 1
	note F_, 1
	note A_, 1
	octave 2
	note A#, 8
	note A#, 2
	octave 3
	note D#, 2
	note G_, 2
	note C_, 10
	note D_, 2
	note F_, 2
	note A_, 2
	octave 2
	note B_, 16
	note B_, 2
	octave 4
	note G_, 1
	note D_, 1
	octave 3
	note B_, 1
	note G_, 1
	note B_, 1
	note G_, 1
	note D_, 1
	octave 2
	note B_, 1
	octave 3
	note G_, 1
	note D_, 1
	octave 2
	note B_, 1
	note G_, 1
	octave 3
	note D_, 1
	octave 2
	note B_, 1
	note G_, 1
	note D_, 1
	octave 4
	note G_, 16
	note D_, 16
	note G_, 16
	note G_, 1
	octave 5
	note D_, 15
	octave 3
	note G_, 16
	note C_, 16
	note G_, 16
	octave 4
	note G_, 1
	note D_, 1
	octave 3
	note A#, 1
	note G_, 1
	note A#, 1
	note G_, 1
	note D_, 1
	note G_, 1
	note A#, 1
	note G_, 1
	note D_, 1
	octave 2
	note A#, 1
	octave 3
	note G_, 1
	note D_, 1
	octave 2
	note A#, 1
	note G_, 1
	octave 3
	note G_, 3
	note A_, 3
	note A#, 10
	note A_, 3
	note G_, 3
	note F_, 10
	note D#, 1
	octave 2
	note A#, 1
	octave 3
	note D#, 1
	note F_, 1
	note G_, 1
	note D#, 1
	note G_, 1
	note A_, 1
	note A#, 1
	note G_, 1
	note A#, 1
	octave 4
	note C_, 1
	note D_, 1
	note C_, 1
	note D_, 1
	note D#, 1
	note F#, 1
	note D_, 1
	octave 3
	note A_, 1
	octave 4
	note D_, 1
	octave 3
	note A_, 1
	note F#, 1
	note A_, 1
	note F#, 1
	note D_, 1
	note F#, 1
	note D_, 1
	octave 2
	note A_, 1
	octave 3
	note D_, 1
	octave 2
	note A_, 1
	note F#, 1
	note A_, 1
	octave 3
	note G_, 3
	note A_, 3
	note A#, 10
	note A_, 3
	note G_, 3
	note F_, 4
	note F_, 2
	note F_, 1
	note A_, 3
	octave 2
	note G_, 1
	note A#, 1
	octave 3
	note D_, 1
	note G_, 1
	octave 2
	note A#, 1
	octave 3
	note D_, 1
	note G_, 1
	note A#, 1
	note D_, 1
	note G_, 1
	note A#, 1
	octave 4
	note D_, 1
	octave 3
	note G_, 1
	note A#, 1
	octave 4
	note D_, 1
	note G_, 1
	note A_, 1
	note F#, 1
	note D_, 1
	octave 3
	note A_, 1
	octave 4
	note F#, 1
	note D_, 1
	octave 3
	note A_, 1
	note F#, 1
	octave 4
	note D_, 1
	octave 3
	note A_, 1
	note F#, 1
	note D_, 1
	note A_, 1
	note F#, 1
	note D_, 1
	octave 2
	note A_, 1
	octave 3
	note G_, 1
	note A#, 1
	octave 4
	note D_, 1
	note G_, 1
	note A#, 1
	note G_, 1
	note D_, 1
	octave 3
	note A#, 1
	note F_, 1
	note A_, 1
	octave 4
	note D_, 1
	note F_, 1
	note A_, 1
	note F_, 1
	note D_, 1
	octave 3
	note A_, 1
	note D#, 1
	note G_, 1
	note A#, 1
	octave 4
	note D#, 1
	note G_, 1
	note D#, 1
	octave 3
	note A#, 1
	note G_, 1
	note F_, 1
	note A_, 1
	octave 4
	note C_, 1
	note F_, 1
	note A_, 1
	note F_, 1
	note C_, 1
	octave 3
	note A_, 1
	note G_, 1
	note A#, 1
	octave 4
	note D_, 1
	note G_, 1
	note A#, 1
	note D_, 1
	note G_, 1
	note A#, 1
	octave 3
	note F_, 1
	note A_, 1
	octave 4
	note D_, 1
	note F_, 1
	note A_, 1
	note D_, 1
	note F_, 1
	note A_, 1
	octave 3
	note D#, 1
	note G_, 1
	note A#, 1
	octave 4
	note D#, 1
	note G_, 1
	octave 3
	note A#, 1
	octave 4
	note D#, 1
	note G_, 1
	octave 3
	note F_, 1
	note A_, 1
	octave 4
	note C_, 1
	note F_, 1
	note A_, 1
	note C_, 1
	note F_, 1
	note A_, 1
	octave 2
	note A#, 8
	note A#, 2
	octave 3
	note D#, 2
	note G_, 2
	note C_, 10
	note D_, 2
	note F_, 2
	note A_, 2
	octave 2
	note B_, 16
	note B_, 2
	octave 4
	note G_, 1
	note D_, 1
	octave 3
	note B_, 1
	note G_, 1
	note B_, 1
	note G_, 1
	note D_, 1
	octave 2
	note B_, 1
	octave 3
	note G_, 1
	note D_, 1
	octave 2
	note B_, 1
	note G_, 1
	octave 3
	note D_, 1
	octave 2
	note B_, 1
	note G_, 1
	note D_, 1
	note A#, 8
	note A#, 2
	octave 3
	note D#, 2
	note G_, 2
	note C_, 10
	note D_, 2
	note F_, 2
	note A_, 2
	octave 4
	note D_, 2
	octave 3
	note A#, 6
	note A_, 10
	note G_, 6
	note A_, 10
	note A#, 6
	note A_, 10
	note G_, 6
	note F_, 10
	note G_, 16
	sound_loop 0, .mainloop

Music_Hill_Ch3:
	note_type 12, 1, 0
.mainloop:
	rest 6
	octave 4
	volume_envelope 1, 0
	note A#, 1
	note G_, 1
	note A#, 1
	note G_, 1
	note A#, 1
	note G_, 1
	note A#, 1
	note G_, 1
	note A#, 1
	note G_, 1
	note A#, 1
	note G_, 1
	note A#, 1
	note G_, 1
	note A#, 1
	note G_, 1
	octave 5
	note D_, 1
	octave 4
	note A#, 1
	octave 5
	note D_, 1
	octave 4
	note A#, 1
	octave 5
	note D_, 1
	octave 4
	note A#, 1
	octave 5
	note D_, 1
	octave 4
	note A#, 1
	octave 5
	note C_, 1
	octave 4
	note F_, 1
	octave 5
	note C_, 1
	octave 4
	note F_, 1
	octave 5
	note C_, 1
	octave 4
	note F_, 1
	octave 5
	note C_, 1
	octave 4
	note F_, 1
	note A#, 1
	note G_, 1
	note A#, 1
	note G_, 1
	note A#, 1
	note G_, 1
	note A#, 1
	note G_, 1
	note A#, 1
	note G_, 1
	note A#, 1
	note G_, 1
	note A#, 1
	note G_, 1
	note A#, 1
	note G_, 1
	note A#, 1
	note G_, 1
	note A#, 1
	note G_, 1
	note A#, 1
	note G_, 1
	note A#, 1
	note G_, 1
	note A#, 1
	note G_, 1
	note A#, 1
	note G_, 1
	note A#, 1
	note G_, 1
	note A#, 1
	note G_, 1
	note A#, 1
	note G_, 1
	note A#, 1
	note G_, 1
	note A#, 1
	note G_, 1
	note A#, 1
	note G_, 1
	note A#, 1
	note G_, 1
	note A#, 1
	note G_, 1
	note A#, 1
	note G_, 1
	note A#, 1
	note G_, 1
	octave 5
	note D_, 1
	octave 4
	note A#, 1
	octave 5
	note D_, 1
	octave 4
	note A#, 1
	octave 5
	note D_, 1
	octave 4
	note A#, 1
	octave 5
	note D_, 1
	octave 4
	note A#, 1
	octave 5
	note C_, 1
	octave 4
	note F_, 1
	octave 5
	note C_, 1
	octave 4
	note F_, 1
	octave 5
	note C_, 1
	octave 4
	note F_, 1
	octave 5
	note C_, 1
	octave 4
	note F_, 1
	note A#, 1
	note G_, 1
	note A#, 1
	note G_, 1
	note A#, 1
	note G_, 1
	note A#, 1
	note G_, 1
	note A#, 1
	note G_, 1
	note A#, 1
	note G_, 1
	note A#, 1
	note G_, 1
	note A#, 1
	note G_, 1
	note A#, 1
	note G_, 1
	note A#, 1
	note G_, 1
	note A#, 1
	note G_, 1
	note A#, 1
	note G_, 1
	note A#, 1
	note G_, 1
	note A#, 1
	note G_, 1
	note A#, 1
	note G_, 1
	note A#, 1
	note G_, 1
	rest 16
	rest 16
	rest 16
	rest 16
	rest 16
	rest 16
	rest 16
	rest 16
	rest 16
	rest 16
	rest 16
	rest 16
	rest 16
	rest 16
	rest 16
	rest 16
	note A#, 1
	note G_, 1
	note A#, 1
	note G_, 1
	note A#, 1
	note G_, 1
	note A#, 1
	note G_, 1
	note A#, 1
	note G_, 1
	note A#, 1
	note G_, 1
	note A#, 1
	note G_, 1
	note A#, 1
	note G_, 1
	octave 5
	note D_, 1
	octave 4
	note A#, 1
	octave 5
	note D_, 1
	octave 4
	note A#, 1
	octave 5
	note D_, 1
	octave 4
	note A#, 1
	octave 5
	note D_, 1
	octave 4
	note A#, 1
	octave 5
	note C_, 1
	octave 4
	note F_, 1
	octave 5
	note C_, 1
	octave 4
	note F_, 1
	octave 5
	note C_, 1
	octave 4
	note F_, 1
	octave 5
	note C_, 1
	octave 4
	note F_, 1
	note A#, 1
	note G_, 1
	note A#, 1
	note G_, 1
	note A#, 1
	note G_, 1
	note A#, 1
	note G_, 1
	note A#, 1
	note G_, 1
	note A#, 1
	note G_, 1
	note A#, 1
	note G_, 1
	note A#, 1
	note G_, 1
	note A#, 1
	note G_, 1
	note A#, 1
	note G_, 1
	note A#, 1
	note G_, 1
	note A#, 1
	note G_, 1
	note A#, 1
	note G_, 1
	note A#, 1
	note G_, 1
	note A#, 1
	note G_, 1
	note A#, 1
	note G_, 1
	note A#, 1
	note G_, 1
	note A#, 1
	note G_, 1
	note A#, 1
	note G_, 1
	note A#, 1
	note G_, 1
	note A#, 1
	note G_, 1
	note A#, 1
	note G_, 1
	note A#, 1
	note G_, 1
	note A#, 1
	note G_, 1
	octave 5
	note D_, 1
	octave 4
	note A#, 1
	octave 5
	note D_, 1
	octave 4
	note A#, 1
	octave 5
	note D_, 1
	octave 4
	note A#, 1
	octave 5
	note D_, 1
	octave 4
	note A#, 1
	octave 5
	note C_, 1
	octave 4
	note F_, 1
	octave 5
	note C_, 1
	octave 4
	note F_, 1
	octave 5
	note C_, 1
	octave 4
	note F_, 1
	octave 5
	note C_, 1
	octave 4
	note F_, 1
	note A#, 1
	note G_, 1
	note A#, 1
	note G_, 1
	note A#, 1
	note G_, 1
	note A#, 1
	note G_, 1
	note A#, 1
	note G_, 1
	note A#, 1
	note G_, 1
	note A#, 1
	note G_, 1
	note A#, 1
	note G_, 1
	note A#, 1
	note G_, 1
	note A#, 1
	note G_, 1
	note A#, 1
	note G_, 1
	note A#, 1
	note G_, 1
	note A#, 1
	note G_, 1
	note A#, 1
	note G_, 1
	note A#, 1
	note G_, 1
	note A#, 1
	note G_, 1
	rest 16
	rest 16
	rest 16
	rest 16
	rest 16
	rest 16
	rest 16
	rest 16
	rest 16
	rest 16
	rest 16
	rest 16
	rest 16
	rest 16
	rest 16
	rest 16
	rest 16
	rest 16
	rest 16
	rest 16
	rest 16
	rest 16
	rest 16
	sound_loop 0, .mainloop

Music_Hill_Ch4:
	toggle_noise 8
	drum_speed 12
.mainloop:
	drum_note 1, 2
	drum_note 11, 1
	drum_note 3, 1
	drum_note 9, 1
	drum_note 9, 1
	drum_note 7, 2
	drum_note 9, 1
	drum_note 9, 1
	drum_note 7, 2
	drum_note 9, 1
	drum_note 9, 1
	drum_note 7, 2
	drum_note 9, 1
	drum_note 9, 1
	drum_note 7, 2
	drum_note 9, 1
	drum_note 9, 1
	drum_note 7, 2
	drum_note 9, 1
	drum_note 9, 1
	drum_note 7, 2
	drum_note 9, 1
	drum_note 9, 1
	drum_note 7, 2
	drum_note 9, 1
	drum_note 9, 1
	drum_note 7, 2
	drum_note 9, 1
	drum_note 9, 1
	drum_note 7, 2
	drum_note 9, 1
	drum_note 9, 1
	drum_note 7, 2
	drum_note 9, 1
	drum_note 9, 1
	drum_note 7, 2
	drum_note 9, 1
	drum_note 9, 1
	drum_note 7, 2
	drum_note 9, 1
	drum_note 9, 1
	drum_note 7, 2
	drum_note 9, 1
	drum_note 9, 1
	drum_note 7, 2
	drum_note 9, 1
	drum_note 9, 1
	drum_note 7, 1
	drum_note 12, 1
	drum_note 9, 1
	drum_note 9, 1
	drum_note 7, 1
	drum_note 9, 1
	drum_note 11, 2
	drum_note 7, 2
	drum_note 9, 1
	drum_note 9, 1
	drum_note 7, 2
	drum_note 9, 1
	drum_note 9, 1
	drum_note 7, 2
	drum_note 9, 1
	drum_note 9, 1
	drum_note 7, 2
	drum_note 9, 1
	drum_note 9, 1
	drum_note 7, 2
	drum_note 9, 1
	drum_note 9, 1
	drum_note 7, 2
	drum_note 9, 1
	drum_note 9, 1
	drum_note 7, 2
	drum_note 9, 1
	drum_note 9, 1
	drum_note 7, 2
	drum_note 9, 1
	drum_note 9, 1
	drum_note 7, 2
	drum_note 9, 1
	drum_note 9, 1
	drum_note 7, 2
	drum_note 9, 1
	drum_note 9, 1
	drum_note 7, 2
	drum_note 9, 1
	drum_note 9, 1
	drum_note 7, 2
	drum_note 11, 2
	drum_note 7, 2
	drum_note 9, 1
	drum_note 9, 1
	drum_note 7, 1
	drum_note 3, 1
	drum_note 9, 1
	drum_note 9, 1
	drum_note 7, 1
	drum_note 9, 1
	drum_note 11, 2
	drum_note 7, 1
	drum_note 9, 1
	drum_note 11, 1
	drum_note 3, 1
	drum_note 10, 3
	drum_note 8, 3
	drum_note 10, 4
	drum_note 12, 2
	drum_note 3, 4
	drum_note 8, 3
	drum_note 5, 3
	drum_note 2, 4
	drum_note 12, 1
	drum_note 12, 1
	drum_note 3, 1
	drum_note 3, 1
	drum_note 12, 2
	drum_note 7, 2
	drum_note 9, 1
	drum_note 9, 1
	drum_note 7, 2
	drum_note 9, 1
	drum_note 9, 1
	drum_note 7, 2
	drum_note 9, 1
	drum_note 9, 1
	drum_note 7, 2
	drum_note 9, 1
	drum_note 9, 1
	drum_note 7, 2
	drum_note 9, 1
	drum_note 9, 1
	drum_note 7, 2
	drum_note 9, 1
	drum_note 9, 1
	drum_note 7, 2
	drum_note 9, 1
	drum_note 9, 1
	drum_note 7, 1
	drum_note 7, 1
	drum_note 11, 1
	drum_note 6, 1
	drum_note 12, 3
	drum_note 8, 3
	drum_note 10, 4
	drum_note 12, 2
	drum_note 3, 4
	drum_note 12, 3
	drum_note 12, 3
	drum_note 2, 3
	drum_note 12, 1
	drum_note 12, 2
	drum_note 3, 2
	drum_note 3, 1
	drum_note 3, 1
	drum_note 7, 2
	drum_note 9, 1
	drum_note 9, 1
	drum_note 7, 2
	drum_note 9, 1
	drum_note 9, 1
	drum_note 7, 2
	drum_note 9, 1
	drum_note 9, 1
	drum_note 7, 2
	drum_note 11, 2
	drum_note 7, 1
	drum_note 12, 1
	drum_note 9, 1
	drum_note 9, 1
	drum_note 7, 2
	drum_note 9, 1
	drum_note 9, 1
	drum_note 7, 1
	drum_note 3, 1
	drum_note 9, 1
	drum_note 9, 1
	drum_note 7, 1
	drum_note 3, 1
	drum_note 9, 1
	drum_note 9, 1
	drum_note 2, 2
	drum_note 4, 3
	drum_note 4, 1
	drum_note 4, 2
	drum_note 6, 2
	drum_note 4, 1
	drum_note 6, 2
	drum_note 4, 1
	drum_note 4, 2
	drum_note 4, 2
	drum_note 4, 1
	drum_note 4, 2
	drum_note 4, 1
	drum_note 4, 2
	drum_note 4, 2
	drum_note 6, 1
	drum_note 4, 2
	drum_note 6, 1
	drum_note 4, 2
	drum_note 4, 2
	drum_note 4, 3
	drum_note 4, 1
	drum_note 4, 2
	drum_note 6, 2
	drum_note 4, 1
	drum_note 6, 2
	drum_note 4, 1
	drum_note 4, 2
	drum_note 4, 2
	drum_note 4, 3
	drum_note 4, 1
	drum_note 4, 2
	drum_note 6, 2
	drum_note 4, 1
	drum_note 6, 1
	drum_note 3, 1
	drum_note 4, 1
	drum_note 4, 1
	drum_note 3, 1
	drum_note 7, 2
	drum_note 9, 1
	drum_note 9, 1
	drum_note 7, 2
	drum_note 9, 1
	drum_note 9, 1
	drum_note 7, 2
	drum_note 9, 1
	drum_note 9, 1
	drum_note 7, 2
	drum_note 9, 1
	drum_note 9, 1
	drum_note 7, 2
	drum_note 9, 1
	drum_note 9, 1
	drum_note 7, 2
	drum_note 9, 1
	drum_note 9, 1
	drum_note 7, 2
	drum_note 9, 1
	drum_note 9, 1
	drum_note 7, 2
	drum_note 9, 1
	drum_note 9, 1
	drum_note 7, 2
	drum_note 9, 1
	drum_note 9, 1
	drum_note 7, 2
	drum_note 9, 1
	drum_note 9, 1
	drum_note 7, 2
	drum_note 9, 1
	drum_note 9, 1
	drum_note 7, 2
	drum_note 9, 1
	drum_note 9, 1
	drum_note 7, 2
	drum_note 9, 1
	drum_note 9, 1
	drum_note 7, 2
	drum_note 11, 2
	drum_note 7, 2
	drum_note 9, 1
	drum_note 9, 1
	drum_note 7, 1
	drum_note 7, 1
	drum_note 11, 1
	drum_note 6, 1
	drum_note 7, 2
	drum_note 9, 1
	drum_note 9, 1
	drum_note 7, 2
	drum_note 9, 1
	drum_note 9, 1
	drum_note 7, 2
	drum_note 9, 1
	drum_note 9, 1
	drum_note 7, 2
	drum_note 9, 1
	drum_note 9, 1
	drum_note 7, 2
	drum_note 9, 1
	drum_note 9, 1
	drum_note 7, 2
	drum_note 9, 1
	drum_note 9, 1
	drum_note 7, 2
	drum_note 9, 1
	drum_note 9, 1
	drum_note 7, 2
	drum_note 9, 1
	drum_note 9, 1
	drum_note 7, 2
	drum_note 9, 1
	drum_note 9, 1
	drum_note 7, 2
	drum_note 9, 1
	drum_note 9, 1
	drum_note 7, 2
	drum_note 9, 1
	drum_note 9, 1
	drum_note 7, 2
	drum_note 9, 1
	drum_note 9, 1
	drum_note 7, 2
	drum_note 9, 1
	drum_note 9, 1
	drum_note 7, 2
	drum_note 9, 1
	drum_note 9, 1
	drum_note 7, 1
	drum_note 12, 1
	drum_note 9, 1
	drum_note 9, 1
	drum_note 7, 1
	drum_note 9, 1
	drum_note 11, 2
	drum_note 7, 2
	drum_note 9, 1
	drum_note 9, 1
	drum_note 7, 2
	drum_note 9, 1
	drum_note 9, 1
	drum_note 7, 2
	drum_note 9, 1
	drum_note 9, 1
	drum_note 7, 2
	drum_note 9, 1
	drum_note 9, 1
	drum_note 7, 2
	drum_note 9, 1
	drum_note 9, 1
	drum_note 7, 2
	drum_note 9, 1
	drum_note 9, 1
	drum_note 7, 2
	drum_note 9, 1
	drum_note 9, 1
	drum_note 7, 2
	drum_note 9, 1
	drum_note 9, 1
	drum_note 7, 2
	drum_note 9, 1
	drum_note 9, 1
	drum_note 7, 2
	drum_note 9, 1
	drum_note 9, 1
	drum_note 7, 2
	drum_note 9, 1
	drum_note 9, 1
	drum_note 7, 2
	drum_note 11, 2
	drum_note 7, 2
	drum_note 9, 1
	drum_note 9, 1
	drum_note 7, 1
	drum_note 3, 1
	drum_note 9, 1
	drum_note 9, 1
	drum_note 7, 1
	drum_note 9, 1
	drum_note 11, 2
	drum_note 7, 1
	drum_note 9, 1
	drum_note 11, 1
	drum_note 3, 1
	drum_note 10, 3
	drum_note 8, 3
	drum_note 10, 4
	drum_note 12, 2
	drum_note 3, 4
	drum_note 8, 3
	drum_note 5, 3
	drum_note 2, 4
	drum_note 12, 1
	drum_note 12, 1
	drum_note 3, 1
	drum_note 3, 1
	drum_note 12, 2
	drum_note 7, 2
	drum_note 9, 1
	drum_note 9, 1
	drum_note 7, 2
	drum_note 9, 1
	drum_note 9, 1
	drum_note 7, 2
	drum_note 9, 1
	drum_note 9, 1
	drum_note 7, 2
	drum_note 9, 1
	drum_note 9, 1
	drum_note 7, 2
	drum_note 9, 1
	drum_note 9, 1
	drum_note 7, 2
	drum_note 9, 1
	drum_note 9, 1
	drum_note 7, 2
	drum_note 9, 1
	drum_note 9, 1
	drum_note 7, 1
	drum_note 7, 1
	drum_note 11, 1
	drum_note 3, 1
	drum_note 12, 1
	drum_note 3, 1
	drum_note 3, 1
	drum_note 8, 2
	drum_note 3, 1
	drum_note 10, 4
	drum_note 12, 1
	drum_note 12, 1
	drum_note 3, 1
	drum_note 3, 1
	drum_note 10, 1
	drum_note 8, 1
	drum_note 12, 2
	drum_note 3, 1
	drum_note 12, 2
	drum_note 3, 1
	drum_note 2, 2
	drum_note 3, 1
	drum_note 3, 1
	drum_note 12, 2
	drum_note 3, 1
	drum_note 3, 1
	drum_note 3, 1
	drum_note 3, 1
	drum_note 7, 2
	drum_note 9, 1
	drum_note 9, 1
	drum_note 7, 2
	drum_note 9, 1
	drum_note 9, 1
	drum_note 7, 2
	drum_note 9, 1
	drum_note 9, 1
	drum_note 7, 2
	drum_note 11, 2
	drum_note 7, 1
	drum_note 3, 1
	drum_note 9, 1
	drum_note 9, 1
	drum_note 7, 2
	drum_note 9, 1
	drum_note 9, 1
	drum_note 7, 1
	drum_note 3, 1
	drum_note 9, 1
	drum_note 9, 1
	drum_note 7, 2
	drum_note 9, 1
	drum_note 9, 1
	drum_note 2, 2
	drum_note 4, 3
	drum_note 4, 1
	drum_note 4, 2
	drum_note 6, 2
	drum_note 4, 1
	drum_note 6, 2
	drum_note 4, 1
	drum_note 4, 2
	drum_note 4, 2
	drum_note 4, 1
	drum_note 4, 2
	drum_note 4, 1
	drum_note 4, 2
	drum_note 4, 2
	drum_note 6, 1
	drum_note 4, 2
	drum_note 6, 1
	drum_note 4, 2
	drum_note 4, 2
	drum_note 4, 3
	drum_note 4, 1
	drum_note 4, 2
	drum_note 6, 2
	drum_note 4, 1
	drum_note 6, 2
	drum_note 4, 1
	drum_note 4, 2
	drum_note 4, 2
	drum_note 4, 3
	drum_note 4, 1
	drum_note 4, 2
	drum_note 6, 2
	drum_note 4, 1
	drum_note 6, 1
	drum_note 3, 1
	drum_note 4, 1
	drum_note 4, 1
	drum_note 3, 1
	drum_note 7, 2
	drum_note 9, 1
	drum_note 9, 1
	drum_note 7, 2
	drum_note 9, 1
	drum_note 9, 1
	drum_note 7, 2
	drum_note 9, 1
	drum_note 9, 1
	drum_note 7, 2
	drum_note 9, 1
	drum_note 9, 1
	drum_note 7, 2
	drum_note 9, 1
	drum_note 9, 1
	drum_note 7, 2
	drum_note 9, 1
	drum_note 9, 1
	drum_note 7, 2
	drum_note 9, 1
	drum_note 9, 1
	drum_note 7, 2
	drum_note 9, 1
	drum_note 9, 1
	drum_note 7, 2
	drum_note 9, 1
	drum_note 9, 1
	drum_note 7, 2
	drum_note 9, 1
	drum_note 9, 1
	drum_note 7, 2
	drum_note 9, 1
	drum_note 9, 1
	drum_note 7, 2
	drum_note 9, 1
	drum_note 9, 1
	drum_note 7, 2
	drum_note 9, 1
	drum_note 9, 1
	drum_note 7, 1
	drum_note 3, 1
	drum_note 11, 1
	drum_note 12, 1
	drum_note 7, 1
	drum_note 3, 1
	drum_note 9, 1
	drum_note 9, 1
	drum_note 7, 1
	drum_note 7, 1
	drum_note 3, 2
	drum_note 7, 4
	drum_note 7, 4
	drum_note 7, 2
	drum_note 7, 1
	drum_note 7, 1
	drum_note 7, 2
	drum_note 10, 2
	drum_note 7, 4
	drum_note 7, 4
	drum_note 7, 2
	drum_note 7, 1
	drum_note 12, 1
	drum_note 11, 2
	drum_note 7, 1
	drum_note 3, 1
	drum_note 7, 2
	drum_note 9, 1
	drum_note 9, 1
	drum_note 7, 2
	drum_note 9, 1
	drum_note 9, 1
	drum_note 7, 2
	drum_note 9, 1
	drum_note 9, 1
	drum_note 7, 2
	drum_note 9, 1
	drum_note 9, 1
	drum_note 7, 2
	drum_note 9, 1
	drum_note 9, 1
	drum_note 7, 2
	drum_note 11, 2
	drum_note 7, 2
	drum_note 9, 1
	drum_note 9, 1
	drum_note 7, 1
	drum_note 7, 1
	drum_note 11, 2
	drum_note 10, 4
	drum_note 3, 2
	drum_note 2, 4
	drum_note 3, 2
	drum_note 3, 1
	drum_note 3, 1
	drum_note 8, 1
	drum_note 6, 1
	drum_note 8, 2
	drum_note 3, 1
	drum_note 3, 1
	drum_note 6, 2
	drum_note 5, 2
	drum_note 3, 1
	drum_note 3, 1
	drum_note 12, 2
	drum_note 3, 1
	drum_note 3, 1
	drum_note 3, 1
	drum_note 3, 1
	drum_note 2, 14
	rest 2
	sound_loop 0, .mainloop
