Music_LawOrder:
	channel_count 4
	channel 1, Music_LawOrder_Ch1
	channel 2, Music_LawOrder_Ch2
	channel 3, Music_LawOrder_Ch3
	channel 4, Music_LawOrder_Ch4

Music_LawOrder_Ch1:
	volume 7, 7
	note_type 12, 10, 7
	tempo 147
.mainloop:
	rest 2
	octave 1
	duty_cycle 0
	volume_envelope 11, 7
	note G_, 10
	note A_, 4
	note G_, 16
	note G_, 2
	note G_, 10
	note A_, 4
	note G_, 8
	note A_, 16
	note A_, 14
	note G_, 6
	note A_, 4
	note G_, 16
	note G_, 2
	note G_, 10
	note A_, 4
	note G_, 8
	note A_, 16
	note A_, 10
	note A_, 6
	note A#, 10
	note A_, 6
	note A#, 10
	note G#, 6
	note A#, 10
	note G#, 6
	note A#, 10
	note A_, 12
	note B_, 16
	note B_, 4
	note A_, 12
	note B_, 8
	note A_, 12
	note A_, 12
	note B_, 16
	note B_, 4
	note A_, 12
	note B_, 8
	note A_, 16
	note A_, 12
	note A_, 16
	note A_, 16
	note G_, 10
	note A_, 4
	note G_, 16
	note G_, 2
	note G_, 10
	note A_, 4
	note G_, 8
	note A_, 16
	note A_, 10
	note A_, 16
	note G_, 10
	note A_, 4
	note G_, 16
	note G_, 16
	note G_, 10
	rest 4
	octave 3
	sound_loop 0, .mainloop

Music_LawOrder_Ch2:
	note_type 12, 9, 7
	duty_cycle 1
.mainloop:
	octave 1
	volume_envelope 11, 7
	note D_, 2
	note G_, 4
	octave 2
	note G_, 2
	note G_, 2
	note G_, 2
	note A_, 2
	rest 2
	note A#, 14
	rest 2
	octave 1
	note D_, 2
	note G_, 4
	octave 2
	note G_, 2
	note G_, 2
	note G_, 2
	note A_, 2
	rest 2
	note A#, 8
	note A_, 8
	octave 3
	note F_, 2
	rest 2
	note F_, 2
	rest 2
	note F_, 2
	rest 2
	note F_, 2
	rest 2
	note F_, 2
	note D_, 1
	note C_, 3
	octave 2
	note G_, 2
	note G_, 2
	note G_, 2
	note A_, 2
	rest 2
	note A#, 14
	rest 2
	octave 1
	note D_, 2
	note G_, 4
	octave 2
	note G_, 2
	note G_, 2
	note G_, 2
	note A_, 2
	rest 2
	note A#, 8
	note A_, 8
	octave 3
	note C#, 1
	note C_, 5
	note C_, 4
	note F_, 2
	note C_, 2
	note F_, 2
	note G_, 2
	note A_, 2
	note F_, 2
	note C_, 2
	note G_, 4
	note D#, 2
	note C_, 2
	note G_, 2
	note A_, 2
	note F_, 2
	note C_, 2
	note G_, 4
	note D#, 2
	note C_, 4
	octave 2
	note G#, 2
	octave 3
	note C_, 2
	note D#, 2
	octave 2
	note A#, 4
	octave 3
	note D_, 2
	note F_, 2
	octave 2
	note A#, 2
	note G#, 2
	octave 3
	note C_, 2
	note D#, 2
	octave 2
	note A#, 4
	octave 3
	note D_, 2
	note F_, 2
	note D_, 2
	note E_, 4
	note C_, 2
	note C_, 2
	note C_, 4
	octave 2
	note B_, 2
	note B_, 2
	octave 1
	note A_, 4
	octave 3
	note A_, 1
	note G_, 1
	note E_, 2
	note G_, 2
	note E_, 2
	note G_, 2
	note E_, 2
	octave 4
	note C_, 2
	octave 3
	note A_, 2
	note E_, 2
	note E_, 2
	note E_, 4
	note D_, 2
	note D_, 2
	octave 1
	note A_, 4
	octave 3
	note G_, 2
	note G_, 2
	rest 2
	octave 2
	note C_, 2
	octave 1
	note B_, 2
	note A_, 2
	note F_, 4
	octave 3
	note E_, 2
	note E_, 2
	note E_, 4
	note D_, 2
	note D_, 2
	octave 1
	note F_, 6
	note C_, 4
	note C_, 4
	note C_, 2
	note F_, 4
	octave 3
	note E_, 2
	note E_, 2
	note E_, 4
	note D_, 2
	note D_, 2
	octave 1
	note F_, 4
	octave 3
	note G_, 2
	note G_, 10
	octave 2
	note A_, 1
	note G_, 1
	note E_, 1
	octave 3
	note C_, 1
	octave 2
	note A_, 1
	note G_, 1
	octave 3
	note D_, 2
	note E_, 1
	note G_, 1
	note A_, 1
	note B_, 1
	note F_, 1
	note G_, 1
	note A_, 1
	octave 4
	note C_, 1
	note D_, 4
	octave 3
	note C_, 2
	octave 2
	note A_, 2
	octave 3
	note G_, 2
	note D_, 4
	note C_, 2
	octave 2
	note A_, 12
	rest 2
	octave 1
	note D_, 2
	note G_, 4
	octave 2
	note G_, 2
	note G_, 2
	note G_, 2
	note A_, 2
	rest 2
	note A#, 14
	rest 2
	octave 1
	note D_, 2
	note G_, 4
	octave 2
	note G_, 2
	note G_, 2
	note G_, 2
	note A_, 2
	rest 2
	note A#, 8
	note A_, 4
	octave 3
	note F_, 2
	rest 2
	note F_, 2
	rest 2
	note F_, 1
	rest 3
	note F_, 2
	note F_, 1
	note G_, 5
	note C#, 2
	note D_, 16
	octave 1
	note G_, 4
	octave 2
	note G_, 2
	note G_, 2
	note G_, 2
	note A_, 2
	rest 2
	note A#, 4
	octave 3
	note D_, 4
	note D_, 2
	note D_, 2
	note D_, 2
	note D_, 2
	note C#, 2
	note C_, 2
	octave 2
	note A#, 2
	octave 3
	note C_, 1
	octave 2
	note A#, 1
	note G_, 8
	note D_, 2
	note F_, 1
	note F_, 1
	note G_, 6
	rest 4
	sound_loop 0, .mainloop

Music_LawOrder_Ch3:
	note_type 12, 2, 0
.mainloop:
	rest 16
	rest 16
	rest 16
	rest 16
	octave 3
	volume_envelope 1, 0
	note F_, 1
	rest 3
	note F_, 1
	rest 3
	note F_, 2
	rest 2
	note F_, 2
	rest 2
	note F_, 1
	rest 1
	note F_, 12
	rest 16
	rest 16
	rest 16
	octave 4
	note D_, 8
	note D_, 1
	rest 1
	note D_, 1
	rest 1
	note D_, 1
	rest 1
	note D_, 1
	rest 1
	note D_, 2
	note C_, 1
	rest 1
	note D_, 1
	note C_, 1
	rest 16
	rest 16
	rest 16
	rest 16
	rest 16
	rest 2
	note A_, 1
	note G_, 1
	note E_, 2
	note G_, 2
	note E_, 1
	rest 1
	note G_, 2
	note E_, 1
	rest 1
	octave 5
	note C_, 2
	rest 2
	octave 4
	note A_, 8
	octave 5
	rest 8
	note E_, 2
	note G_, 4
	note G_, 1
	rest 1
	note D_, 1
	note C_, 1
	octave 4
	note A_, 1
	rest 1
	octave 5
	note C_, 2
	octave 4
	note A_, 2
	octave 5
	note C_, 2
	octave 4
	note A_, 1
	rest 1
	octave 5
	note A_, 2
	note C_, 2
	octave 4
	note A_, 12
	octave 3
	rest 10
	note C_, 1
	note D_, 1
	note F_, 2
	note A_, 2
	octave 4
	note C_, 2
	octave 3
	note A_, 2
	octave 4
	note C_, 2
	octave 3
	note A_, 14
	octave 4
	note D_, 8
	note D_, 1
	rest 1
	note D_, 2
	note D_, 1
	rest 1
	note D_, 1
	rest 1
	note D_, 2
	note C_, 1
	rest 1
	note D_, 1
	note C_, 1
	octave 3
	note A_, 1
	rest 1
	octave 4
	note C_, 2
	octave 3
	note A_, 1
	octave 4
	note G_, 1
	note C_, 4
	octave 3
	note A_, 16
	rest 16
	rest 8
	octave 4
	note C_, 12
	rest 16
	rest 2
	octave 3
	note F_, 2
	rest 2
	note F_, 2
	rest 2
	note F_, 2
	rest 2
	note F_, 2
	rest 2
	note F_, 2
	note G_, 4
	note D_, 16
	note D_, 4
	rest 16
	rest 16
	rest 16
	rest 16
	sound_loop 0, .mainloop

Music_LawOrder_Ch4:
	toggle_noise 1
.mainloop:
	octave 4
	toggle_noise
	toggle_noise 6
	drum_speed 12
	rest 16
	rest 16
	rest 16
	rest 16
	rest 16
	rest 6
	drum_note 9, 2
	drum_note 9, 2
	drum_note 9, 2
	drum_note 9, 2
	drum_note 9, 2
	drum_note 9, 2
	drum_note 9, 2
	drum_note 9, 2
	drum_note 9, 2
	drum_note 9, 2
	drum_note 9, 2
	drum_note 9, 2
	drum_note 9, 2
	drum_note 9, 2
	drum_note 9, 2
	drum_note 9, 2
	drum_note 9, 2
	drum_note 9, 2
	drum_note 9, 2
	drum_note 9, 2
	drum_note 9, 2
	drum_note 9, 2
	drum_note 9, 2
	drum_note 9, 2
	drum_note 9, 2
	drum_note 9, 2
	drum_note 9, 2
	drum_note 9, 2
	drum_note 9, 2
	drum_note 9, 2
	drum_note 9, 2
	drum_note 9, 2
	drum_note 9, 2
	drum_note 9, 2
	drum_note 9, 2
	drum_note 9, 2
	drum_note 9, 2
	drum_note 9, 2
	drum_note 1, 1
	drum_note 9, 1
	drum_note 9, 2
	drum_note 2, 2
	drum_note 9, 2
	drum_note 9, 2
	drum_note 9, 2
	drum_note 9, 2
	drum_note 9, 2
	drum_note 9, 2
	drum_note 9, 2
	drum_note 9, 2
	drum_note 9, 2
	drum_note 9, 2
	drum_note 9, 2
	drum_note 9, 2
	drum_note 9, 2
	drum_note 9, 2
	drum_note 9, 2
	drum_note 2, 2
	drum_note 9, 2
	drum_note 9, 2
	drum_note 9, 2
	drum_note 9, 2
	drum_note 9, 2
	drum_note 1, 2
	drum_note 9, 2
	drum_note 9, 2
	drum_note 9, 2
	drum_note 9, 2
	drum_note 9, 2
	drum_note 9, 2
	drum_note 9, 2
	drum_note 9, 2
	drum_note 9, 2
	drum_note 9, 2
	drum_note 9, 2
	drum_note 9, 2
	drum_note 9, 2
	drum_note 9, 2
	drum_note 9, 2
	drum_note 9, 2
	drum_note 9, 2
	drum_note 9, 2
	drum_note 9, 2
	drum_note 9, 2
	drum_note 9, 2
	drum_note 9, 2
	drum_note 9, 2
	drum_note 1, 1
	drum_note 9, 1
	drum_note 9, 2
	drum_note 9, 2
	drum_note 9, 2
	drum_note 9, 2
	drum_note 9, 2
	drum_note 9, 2
	drum_note 9, 2
	drum_note 9, 2
	drum_note 9, 2
	drum_note 9, 2
	drum_note 9, 2
	drum_note 9, 2
	drum_note 9, 2
	drum_note 9, 2
	drum_note 9, 3
	drum_note 9, 2
	drum_note 9, 2
	drum_note 9, 2
	drum_note 9, 2
	drum_note 9, 2
	drum_note 9, 2
	drum_note 9, 2
	drum_note 9, 2
	drum_note 9, 2
	drum_note 9, 2
	drum_note 9, 2
	drum_note 9, 2
	drum_note 9, 2
	drum_note 9, 2
	drum_note 9, 2
	drum_note 9, 2
	drum_note 9, 2
	drum_note 9, 2
	drum_note 2, 2
	drum_note 9, 2
	drum_note 9, 2
	drum_note 9, 2
	drum_note 9, 2
	drum_note 9, 2
	drum_note 9, 2
	drum_note 9, 2
	drum_note 9, 2
	drum_note 9, 2
	drum_note 9, 2
	drum_note 9, 2
	drum_note 9, 2
	drum_note 9, 2
	drum_note 9, 2
	drum_note 9, 2
	drum_note 9, 3
	drum_note 9, 1
	drum_note 9, 3
	drum_note 9, 1
	drum_note 2, 1
	drum_note 9, 1
	drum_note 9, 3
	drum_note 1, 1
	rest 16
	rest 12
	drum_speed 1
	rest 12
	drum_speed 12
	drum_note 1, 2
	drum_note 9, 2
	drum_note 9, 2
	drum_note 9, 2
	drum_note 9, 2
	drum_note 9, 2
	drum_note 9, 2
	drum_note 9, 2
	drum_note 9, 2
	drum_note 9, 2
	drum_note 9, 2
	drum_note 9, 2
	drum_note 9, 2
	drum_note 9, 2
	drum_note 9, 2
	drum_note 9, 2
	drum_note 9, 2
	drum_note 9, 2
	drum_note 9, 2
	drum_note 9, 2
	drum_note 9, 2
	drum_note 9, 2
	drum_note 9, 2
	drum_note 9, 2
	drum_note 9, 2
	drum_note 9, 2
	drum_note 9, 2
	drum_note 9, 2
	drum_note 9, 2
	drum_note 9, 2
	drum_note 9, 2
	drum_note 9, 2
	drum_note 9, 2
	drum_note 9, 2
	drum_note 9, 3
	drum_note 9, 2
	drum_note 9, 2
	drum_speed 7
	rest 1
	drum_speed 1
	rest 5
	drum_speed 8
	rest 1
	drum_speed 1
	rest 3
	drum_speed 12
	drum_note 9, 12
	octave 8
	rest 13
	drum_speed 1
	rest 1
	drum_speed 12
	rest 16
	rest 16
	rest 16
	rest 6
	sound_loop 0, .mainloop
