Music_Legrandito:
	channel_count 3
	channel 1, Music_Legrandito_Ch1
	channel 2, Music_Legrandito_Ch2
	channel 3, Music_Legrandito_Ch3

Music_Legrandito_Ch1:
	volume 7, 7
	note_type 12, 10, 7
	tempo 127
.mainloop:
	duty_cycle 0
	octave 3
	volume_envelope 12, 7
	note E_, 2
	note A_, 2
	note B_, 2
	octave 4
	note C#, 2
	note D_, 2
	note E_, 2
	rest 4
	note A_, 2
	note G#, 2
	note E_, 12
	octave 3
	note E_, 2
	note A_, 2
	note B_, 2
	octave 4
	note C#, 2
	note D_, 2
	note E_, 2
	rest 4
	note D_, 2
	note C#, 2
	note F#, 2
	rest 2
	note E_, 2
	rest 2
	note D_, 4
	note C#, 2
	note D_, 2
	note E_, 2
	rest 6
	note F#, 2
	note F#, 2
	note G#, 2
	note A_, 2
	note E_, 6
	note D_, 2
	note C#, 2
	rest 2
	octave 3
	note A_, 2
	rest 2
	note B_, 10
	note B_, 2
	octave 4
	note C#, 2
	note D_, 2
	octave 3
	note B_, 6
	note A_, 2
	note G#, 2
	rest 2
	note E_, 2
	note A_, 2
	note B_, 2
	octave 4
	note C#, 2
	note D_, 2
	note E_, 2
	rest 4
	note A_, 2
	note G#, 2
	note E_, 12
	octave 3
	note E_, 2
	note A_, 2
	note B_, 2
	octave 4
	note C#, 2
	note D_, 2
	note E_, 2
	rest 4
	note D_, 2
	note C#, 2
	note F#, 2
	rest 2
	note E_, 2
	rest 2
	note D_, 4
	note C#, 2
	note D_, 2
	note E_, 2
	rest 6
	note F#, 2
	note F#, 2
	note G#, 2
	note A_, 2
	note E_, 6
	note D_, 2
	note C#, 2
	rest 2
	note A_, 2
	rest 2
	note E_, 2
	note D_, 2
	note E_, 2
	note F_, 2
	rest 2
	note D_, 2
	note C#, 2
	octave 3
	note B_, 2
	note A_, 10
	rest 2
	note A_, 2
	octave 4
	note D_, 2
	note E_, 2
	note F#, 2
	note F_, 2
	note F#, 2
	rest 4
	note G#, 2
	rest 2
	note F#, 2
	note E_, 4
	note A_, 2
	note E_, 2
	rest 2
	note C#, 2
	rest 2
	octave 3
	note A_, 2
	octave 4
	note D_, 2
	note C#, 2
	note D_, 2
	rest 4
	note F#, 2
	rest 2
	note E_, 2
	note D_, 2
	note C#, 2
	octave 3
	note B_, 2
	octave 4
	note C#, 4
	octave 3
	note A_, 2
	octave 4
	note D_, 2
	note E_, 2
	note F#, 2
	note F_, 2
	note F#, 2
	rest 4
	note G#, 2
	rest 2
	note F#, 2
	note E_, 4
	note A_, 2
	note E_, 2
	rest 2
	note A_, 2
	rest 2
	octave 5
	note C#, 2
	note C_, 2
	octave 4
	note B_, 2
	octave 5
	note C_, 2
	octave 4
	note G#, 2
	rest 2
	octave 5
	note C_, 2
	rest 2
	note C#, 10
	octave 4
	note B_, 2
	note E_, 2
	note A_, 2
	note B_, 2
	octave 5
	note C#, 2
	note C_, 2
	note C#, 2
	note D_, 4
	note C#, 2
	note C_, 2
	note C#, 2
	octave 4
	note B_, 4
	note A_, 2
	note G#, 2
	rest 2
	note E_, 6
	note F#, 2
	note F_, 2
	note F#, 2
	note G#, 4
	note F#, 4
	note G#, 2
	note F#, 4
	note E_, 2
	note E_, 2
	rest 2
	note C#, 2
	rest 2
	note E_, 2
	note D_, 4
	note E_, 2
	note F#, 2
	rest 2
	note A_, 2
	rest 2
	note D_, 2
	note C#, 4
	note C_, 2
	note C#, 2
	rest 2
	note A_, 2
	rest 2
	note C#, 2
	octave 3
	note B_, 4
	octave 4
	note C#, 2
	note D#, 4
	note E_, 2
	note F#, 2
	note A_, 2
	note G#, 4
	note F#, 2
	note E_, 2
	rest 2
	note E_, 2
	note A_, 2
	note B_, 2
	octave 5
	note C#, 2
	note C_, 2
	note C#, 2
	note D_, 4
	note C#, 2
	note C_, 2
	note C#, 2
	octave 4
	note B_, 4
	note A_, 2
	note G#, 2
	rest 2
	note E_, 6
	note F#, 2
	note F_, 2
	note F#, 2
	note G#, 4
	note F#, 4
	note G#, 2
	note F#, 4
	note E_, 2
	note E_, 2
	rest 2
	note C#, 2
	rest 2
	note E_, 2
	note D_, 4
	note E_, 2
	note F#, 2
	rest 2
	note A_, 2
	rest 2
	note D_, 2
	note C#, 4
	note C_, 2
	note C#, 2
	rest 2
	note A_, 2
	rest 2
	note C#, 2
	octave 3
	note B_, 2
	octave 4
	note C#, 2
	note D_, 2
	note E_, 2
	rest 2
	octave 3
	note G#, 2
	rest 2
	note B_, 2
	note A_, 12
	note G#, 2
	note G_, 2
	note F#, 4
	note G#, 2
	note A_, 4
	note G#, 2
	note A_, 2
	note B_, 2
	octave 4
	note C#, 4
	octave 3
	note G#, 2
	note G#, 2
	rest 2
	note E_, 2
	rest 2
	note G#, 2
	note F#, 4
	note G#, 2
	note A_, 4
	note G#, 2
	note A_, 2
	note B_, 2
	octave 4
	note E_, 4
	note D_, 2
	note C#, 2
	rest 2
	note E_, 2
	rest 2
	note E_, 2
	note D_, 4
	note C#, 2
	octave 3
	note B_, 2
	rest 2
	note A_, 2
	rest 2
	note B_, 2
	octave 4
	note C#, 4
	octave 3
	note B_, 2
	note A_, 2
	rest 2
	note E_, 2
	rest 2
	note E_, 2
	note F#, 2
	note G#, 2
	note A_, 2
	note B_, 4
	note A_, 4
	note B_, 2
	octave 4
	note F#, 4
	note E_, 2
	note E_, 4
	note C#, 2
	rest 2
	note E_, 2
	note D_, 4
	note C#, 2
	octave 3
	note B_, 2
	rest 2
	note A_, 2
	rest 2
	note B_, 2
	octave 4
	note C#, 4
	octave 3
	note B_, 2
	note A_, 2
	rest 2
	note E_, 2
	rest 2
	note E_, 2
	note F#, 2
	note G#, 2
	note A_, 2
	note B_, 4
	note A_, 2
	note G#, 2
	note B_, 2
	rest 10
	note E_, 2
	note A_, 2
	note B_, 2
	octave 4
	note C#, 2
	note D_, 2
	note E_, 2
	rest 4
	note A_, 2
	note G#, 2
	note E_, 12
	octave 3
	note E_, 2
	note A_, 2
	note B_, 2
	octave 4
	note C#, 2
	note D_, 2
	note E_, 2
	rest 4
	note D_, 2
	note C#, 2
	note F#, 2
	rest 2
	note E_, 2
	rest 2
	note D_, 4
	note C#, 2
	note D_, 2
	note E_, 2
	rest 6
	note F#, 2
	note F#, 2
	note G#, 2
	note A_, 2
	note E_, 6
	note D_, 2
	note C#, 2
	rest 2
	note A_, 2
	rest 2
	note E_, 2
	note D_, 2
	note E_, 2
	note F_, 2
	rest 2
	note D_, 2
	note C#, 2
	octave 3
	note B_, 2
	note A_, 8
	rest 3
	sound_loop 0, .mainloop

Music_Legrandito_Ch2:
	note_type 12, 13, 7
.mainloop:
	rest 6
	octave 3
	duty_cycle 1
	volume_envelope 11, 7
	note A_, 10
	note B_, 4
	note A_, 2
	note G#, 8
	note E_, 8
	note F#, 10
	note G#, 4
	note A_, 2
	note G#, 8
	note C#, 8
	note D_, 10
	note E_, 4
	note F#, 2
	note A_, 8
	note E_, 8
	note F#, 10
	note G#, 4
	note A_, 2
	octave 4
	note C#, 8
	octave 3
	note B_, 8
	note A_, 10
	note B_, 4
	note A_, 2
	note G#, 8
	note E_, 8
	note F#, 10
	note G#, 4
	note A_, 2
	note G#, 8
	note C#, 8
	note D_, 10
	note E_, 4
	note F#, 2
	note A_, 8
	note E_, 8
	note A_, 8
	note F_, 2
	note E_, 2
	note D_, 2
	note C#, 16
	note C#, 2
	note D_, 10
	octave 2
	note A_, 4
	octave 3
	note D_, 2
	note C#, 8
	octave 2
	note A_, 8
	note B_, 10
	octave 3
	note C#, 4
	note D_, 2
	note E_, 8
	note C#, 8
	note D_, 10
	octave 2
	note A_, 4
	octave 3
	note D_, 2
	note C#, 8
	octave 2
	note A_, 8
	note G#, 4
	octave 3
	note C_, 2
	note D#, 4
	note F#, 4
	note F_, 10
	note E_, 8
	note A_, 10
	note B_, 4
	note A_, 2
	note G#, 8
	note E_, 8
	note F#, 10
	note G#, 4
	note A_, 2
	note G#, 8
	note C#, 8
	note D_, 10
	note E_, 4
	note F#, 2
	note A_, 8
	note E_, 8
	note F#, 10
	note G#, 4
	note A_, 2
	octave 4
	note C#, 8
	octave 3
	note B_, 8
	note A_, 10
	note B_, 4
	note A_, 2
	note G#, 8
	note E_, 8
	note F#, 10
	note G#, 4
	note A_, 2
	note G#, 8
	note C#, 8
	note D_, 10
	note E_, 4
	note F#, 2
	note A_, 8
	note E_, 8
	note F#, 10
	note G#, 4
	octave 4
	note D_, 2
	note C#, 16
	note D_, 16
	note C#, 16
	octave 3
	note B_, 16
	note A_, 16
	octave 4
	note D_, 16
	note C#, 16
	octave 3
	note B_, 16
	octave 4
	note E_, 16
	note D_, 16
	note C#, 16
	octave 3
	note B_, 8
	octave 4
	note D_, 6
	note C#, 16
	note C#, 2
	octave 3
	note A_, 10
	note B_, 4
	note A_, 2
	note G#, 8
	note E_, 8
	note F#, 10
	note G#, 4
	note A_, 2
	note G#, 8
	note C#, 8
	note D_, 10
	note E_, 4
	note F#, 2
	note A_, 8
	note E_, 8
	note A_, 8
	note F_, 2
	note E_, 2
	note D_, 2
	note C#, 8
	rest 3
	octave 4
	sound_loop 0, .mainloop

Music_Legrandito_Ch3:
	note_type 12, 2, 0
.mainloop:
	rest 6
	volume_envelope 1, 0
	octave 2
	note A_, 4
	rest 2
	note A_, 2
	note A_, 4
	rest 2
	note A_, 2
	note G#, 4
	rest 2
	note G#, 2
	note G#, 4
	rest 2
	note G#, 2
	note F#, 4
	rest 2
	note F#, 2
	note F#, 4
	rest 2
	note F#, 2
	note E_, 4
	rest 2
	note E_, 2
	note E_, 4
	rest 2
	note E_, 2
	note D_, 4
	rest 2
	note D_, 2
	note D_, 4
	rest 2
	note D_, 2
	note C#, 4
	rest 2
	note C#, 2
	note C#, 4
	rest 2
	note C#, 2
	octave 1
	note B_, 4
	rest 2
	note B_, 2
	note B_, 4
	rest 2
	note B_, 2
	octave 2
	note E_, 4
	rest 2
	note E_, 2
	note E_, 2
	note E_, 2
	note F#, 2
	note E_, 2
	note A_, 4
	rest 2
	note A_, 2
	note A_, 4
	rest 2
	note A_, 2
	note G#, 4
	rest 2
	note G#, 2
	note G#, 4
	rest 2
	note G#, 2
	note F#, 4
	rest 2
	note F#, 2
	note F#, 4
	rest 2
	note F#, 2
	note E_, 4
	rest 2
	note E_, 2
	note E_, 4
	rest 2
	note E_, 2
	note D_, 4
	rest 2
	note D_, 2
	note D_, 4
	rest 2
	note D_, 2
	note C#, 4
	rest 2
	note C#, 2
	note C#, 4
	rest 2
	note C#, 2
	note D_, 4
	rest 2
	note D_, 2
	note E_, 4
	note E_, 2
	note A_, 6
	rest 2
	note A_, 2
	note A_, 4
	rest 2
	note A_, 2
	octave 3
	note D_, 4
	rest 2
	note D_, 2
	note D_, 4
	rest 2
	note D_, 2
	octave 2
	note A_, 4
	rest 2
	note A_, 2
	note A_, 4
	rest 2
	note A_, 2
	note B_, 4
	rest 2
	note B_, 2
	note B_, 4
	rest 2
	note B_, 2
	note A_, 4
	rest 2
	note A_, 2
	note A_, 4
	rest 2
	note A_, 2
	octave 3
	note D_, 4
	rest 2
	note D_, 2
	note D_, 4
	rest 2
	note D_, 2
	octave 2
	note A_, 4
	rest 2
	note A_, 2
	note A_, 4
	rest 2
	note A_, 2
	note G#, 4
	rest 2
	note G#, 2
	note G#, 2
	octave 3
	note C_, 2
	rest 2
	note C#, 10
	octave 2
	note E_, 2
	note E_, 2
	note F#, 2
	note E_, 2
	note A_, 4
	rest 2
	note A_, 2
	note A_, 4
	rest 2
	note A_, 2
	note E_, 4
	rest 2
	note E_, 2
	note E_, 4
	rest 2
	note E_, 2
	note F#, 4
	rest 2
	note F#, 2
	note F#, 4
	rest 2
	note F#, 2
	note C#, 4
	rest 2
	note C#, 2
	note C#, 4
	rest 2
	note C#, 2
	note D_, 4
	rest 2
	note D_, 2
	note D_, 4
	rest 2
	note D_, 2
	note A_, 4
	rest 2
	note A_, 2
	note A_, 4
	rest 2
	note A_, 2
	note B_, 4
	rest 2
	note B_, 2
	note B_, 4
	rest 2
	note B_, 2
	note E_, 4
	rest 2
	note E_, 2
	note E_, 2
	note E_, 2
	note F#, 2
	note E_, 2
	note A_, 4
	rest 2
	note A_, 2
	note A_, 4
	rest 2
	note A_, 2
	note E_, 4
	rest 2
	note E_, 2
	note E_, 4
	rest 2
	note E_, 2
	note F#, 4
	rest 2
	note F#, 2
	note F#, 4
	rest 2
	note F#, 2
	note C#, 4
	rest 2
	note C#, 2
	note C#, 4
	rest 2
	note C#, 2
	note D_, 4
	rest 2
	note D_, 2
	note D_, 4
	rest 2
	note D_, 2
	note A_, 4
	rest 2
	note A_, 2
	note A_, 4
	rest 2
	note A_, 2
	note B_, 4
	rest 2
	note B_, 2
	note E_, 4
	rest 2
	note E_, 2
	note A_, 4
	rest 2
	note A_, 2
	note A_, 4
	rest 2
	note A_, 2
	note D_, 4
	rest 2
	note D_, 2
	note D_, 4
	rest 2
	note D_, 2
	note C#, 4
	rest 2
	note C#, 2
	note C#, 4
	rest 2
	note C#, 2
	note D_, 4
	rest 2
	note D_, 2
	note D_, 4
	rest 2
	note D_, 2
	note A_, 4
	rest 2
	note A_, 2
	note A_, 4
	rest 2
	note A_, 2
	note B_, 4
	rest 2
	note B_, 2
	note B_, 4
	rest 2
	note B_, 2
	note A_, 4
	rest 2
	note A_, 2
	note A_, 4
	rest 2
	note A_, 2
	note B_, 4
	rest 2
	note B_, 2
	note B_, 4
	rest 2
	note B_, 2
	note E_, 4
	rest 2
	note E_, 2
	note E_, 4
	rest 2
	note E_, 2
	note B_, 4
	rest 2
	note B_, 2
	note B_, 4
	rest 2
	note B_, 2
	note A_, 4
	rest 2
	note A_, 2
	note A_, 4
	rest 2
	note A_, 2
	note B_, 4
	rest 2
	note B_, 2
	note E_, 4
	rest 2
	note E_, 2
	note A_, 4
	rest 2
	note A_, 2
	note A_, 4
	rest 2
	note A_, 2
	note A_, 4
	rest 2
	note A_, 2
	note A_, 4
	rest 2
	note A_, 2
	note G#, 4
	rest 2
	note G#, 2
	note G#, 4
	rest 2
	note G#, 2
	note F#, 4
	rest 2
	note F#, 2
	note F#, 4
	rest 2
	note F#, 2
	note E_, 4
	rest 2
	note E_, 2
	note E_, 4
	rest 2
	note E_, 2
	note D_, 4
	rest 2
	note D_, 2
	note D_, 4
	rest 2
	note D_, 2
	note C#, 4
	rest 2
	note C#, 2
	note C#, 4
	rest 2
	note C#, 2
	note D_, 4
	rest 2
	note D_, 2
	note E_, 4
	note E_, 1
	rest 1
	octave 1
	note A_, 8
	rest 3
	sound_loop 0, .mainloop
