Music_MeetFemaleTrainer:
	channel_count 2
	channel 1, Music_MeetFemaleTrainer_Ch1
	channel 2, Music_MeetFemaleTrainer_Ch2

Music_MeetFemaleTrainer_Ch1:
	volume 7, 7
	note_type 12, 9, 7
	tempo 178
	rest 16
	rest 12
	octave 5
	duty_cycle 2
	note C#, 2
	octave 8
.mainloop:
	octave 3
	volume_envelope 12, 7
	duty_cycle 2
	note G#, 2
	octave 4
	note C_, 1
	note C#, 1
	note G#, 2
	note B_, 2
	octave 5
	note C#, 2
	octave 4
	note G#, 1
	note G_, 1
	note F#, 4
	note C#, 1
	note E_, 1
	note F_, 2
	note F#, 2
	note G#, 2
	note B_, 2
	note F_, 2
	rest 6
	note E_, 1
	note F_, 1
	note G#, 2
	note A#, 2
	note G#, 2
	octave 5
	note D_, 1
	octave 4
	note A#, 1
	note G#, 4
	note G#, 1
	note G_, 1
	note F#, 2
	note C#, 2
	note D#, 2
	note C#, 2
	note C_, 2
	rest 4
	octave 3
	note G#, 2
	note A_, 1
	note A#, 1
	octave 4
	note A#, 2
	octave 5
	note C#, 2
	note D#, 2
	octave 4
	note A#, 1
	note A_, 1
	note G#, 4
	note F#, 1
	note G#, 1
	note A_, 2
	note F#, 2
	octave 3
	note A_, 2
	note F#, 2
	rest 4
	octave 5
	note C#, 2
	octave 2
	rest 2
	note A#, 1
	octave 3
	note F#, 1
	note C#, 1
	note A#, 1
	note F#, 1
	octave 4
	note C#, 1
	octave 3
	note A#, 1
	octave 4
	note F#, 1
	octave 3
	note C#, 1
	note A_, 1
	note E_, 1
	octave 4
	note C#, 1
	octave 3
	note A_, 1
	octave 4
	note E_, 1
	note C#, 1
	note A_, 1
	octave 3
	note D#, 1
	note A#, 1
	note F#, 1
	octave 4
	note C#, 1
	octave 3
	note A#, 1
	octave 4
	note F#, 1
	note C#, 1
	note A#, 1
	octave 2
	note G#, 1
	octave 3
	note D#, 1
	note C_, 1
	note G#, 1
	note D#, 1
	octave 4
	note C_, 1
	octave 3
	note G#, 1
	octave 4
	note D#, 1
	note F_, 4
	note C#, 1
	note E_, 1
	note F_, 1
	note G#, 1
	note B_, 2
	octave 5
	note C#, 1
	octave 4
	note B_, 2
	octave 5
	note C#, 1
	octave 4
	note G#, 1
	note F#, 1
	note E_, 1
	note C#, 1
	octave 3
	note B_, 1
	note G#, 1
	note F#, 1
	note E_, 1
	note C#, 1
	octave 4
	note C#, 4
	note F_, 1
	octave 3
	note B_, 1
	note G#, 1
	note F#, 1
	note F_, 1
	note F_, 2
	note G#, 1
	note A#, 1
	octave 4
	note D#, 1
	rest 1
	note F_, 1
	note G#, 1
	note A#, 1
	rest 1
	octave 5
	note D#, 1
	note D_, 1
	octave 4
	note A#, 1
	note G#, 1
	note F_, 1
	note D_, 1
	note F#, 1
	rest 1
	note G#, 1
	note A#, 1
	octave 5
	note C#, 1
	note D#, 1
	note C#, 1
	octave 4
	note G#, 1
	note A#, 1
	rest 1
	octave 5
	note C_, 1
	octave 4
	note A#, 1
	note G#, 1
	note F#, 1
	note F_, 1
	note C#, 1
	note F#, 1
	rest 1
	note G#, 1
	note F#, 1
	note F_, 1
	note E_, 1
	note D#, 1
	note C#, 1
	note C#, 1
	note A#, 1
	octave 5
	note D#, 1
	note F_, 1
	note D#, 1
	note C#, 1
	octave 4
	note A#, 1
	note G#, 1
	note F#, 1
	rest 1
	note F_, 1
	note D#, 1
	note C#, 1
	note A#, 1
	note G#, 1
	note D#, 1
	note C#, 4
	octave 5
	note C#, 2
	octave 6
	sound_loop 0, .mainloop

Music_MeetFemaleTrainer_Ch2:
	note_type 12, 11, 3
	duty_cycle 1
	octave 2
	note C#, 2
	note F_, 2
	octave 1
	note G#, 2
	octave 2
	note F_, 1
	octave 1
	note G#, 1
	note C#, 2
	octave 2
	note F_, 2
	octave 1
	note G#, 2
	octave 2
	note F_, 1
	octave 1
	note G#, 1
	note C#, 2
	octave 2
	note F_, 2
	octave 1
	note G#, 2
	octave 2
	note F_, 2
	note G#, 4
	rest 2
.mainloop:
	rest 2
	octave 2
	volume_envelope 11, 3
	note C#, 2
	note G#, 2
	octave 1
	note G#, 2
	octave 2
	note G#, 1
	octave 1
	note G#, 1
	octave 2
	note C#, 2
	note G#, 2
	octave 1
	note G#, 2
	octave 2
	note G#, 1
	octave 1
	note G#, 1
	octave 2
	note C#, 2
	note G#, 2
	octave 1
	note G#, 2
	octave 2
	note G#, 1
	octave 1
	note G#, 1
	octave 2
	note C#, 2
	note G#, 2
	note C_, 2
	note G#, 2
	octave 1
	note A#, 2
	octave 2
	note F_, 2
	octave 1
	note F_, 2
	octave 2
	note F_, 1
	octave 1
	note F_, 1
	note A#, 2
	octave 2
	note F_, 2
	octave 1
	note F_, 2
	octave 2
	note F_, 1
	octave 1
	note F_, 1
	octave 2
	note D#, 2
	note A#, 2
	octave 1
	note A#, 2
	octave 2
	note A#, 1
	octave 1
	note A#, 1
	octave 2
	note C_, 2
	note G#, 2
	octave 1
	note G#, 2
	octave 2
	note G#, 1
	octave 1
	note G#, 1
	note A#, 2
	octave 2
	note A#, 2
	octave 1
	note F_, 2
	octave 2
	note A#, 1
	octave 1
	note F_, 1
	note A#, 2
	octave 2
	note A#, 2
	octave 1
	note F_, 2
	octave 2
	note A#, 1
	octave 1
	note F_, 1
	note F#, 2
	octave 2
	note F#, 2
	octave 1
	note C#, 2
	octave 2
	note F#, 2
	volume_envelope 13, 3
	note A_, 2
	rest 6
	volume_envelope 11, 3
	note F#, 8
	note A_, 8
	octave 3
	note C_, 8
	octave 2
	note G#, 8
	note C#, 2
	note G#, 2
	octave 1
	note G#, 2
	octave 2
	note G#, 1
	octave 1
	note G#, 1
	octave 2
	note C#, 2
	note G#, 2
	octave 1
	note G#, 2
	octave 2
	note G#, 1
	octave 1
	note G#, 1
	octave 2
	note C#, 2
	note G#, 2
	octave 1
	note G#, 2
	octave 2
	note G#, 1
	octave 1
	note G#, 1
	octave 2
	note C#, 2
	note G#, 2
	note C_, 2
	note G#, 2
	octave 1
	note A#, 2
	octave 2
	note F_, 2
	octave 1
	note F_, 2
	octave 2
	note F_, 1
	octave 1
	note F_, 1
	note A#, 2
	octave 2
	note F_, 2
	octave 1
	note F_, 2
	octave 2
	note F_, 1
	octave 1
	note F_, 1
	octave 2
	note D#, 2
	note A#, 2
	octave 1
	note A#, 2
	octave 2
	note A#, 1
	octave 1
	note A#, 1
	octave 2
	note D#, 2
	note G#, 2
	octave 1
	note G#, 2
	octave 2
	note G#, 1
	octave 1
	note G#, 1
	note F#, 2
	octave 2
	note A#, 2
	note C#, 2
	note A#, 1
	octave 1
	note F_, 1
	note F#, 2
	octave 2
	note A#, 2
	note C#, 2
	note A#, 1
	octave 1
	note F_, 1
	note A_, 2
	octave 2
	note A_, 2
	octave 1
	note C#, 2
	octave 2
	note A_, 2
	note G#, 2
	rest 2
	note C#, 2
	sound_loop 0, .mainloop
