Music_MeetEvilTrainer:
	channel_count 4
	channel 1, Music_MeetEvilTrainer_Ch1
	channel 2, Music_MeetEvilTrainer_Ch2
	channel 3, Music_MeetEvilTrainer_Ch3
	channel 4, Music_MeetEvilTrainer_Ch4

Music_MeetEvilTrainer_Ch1:
	volume 7, 7
	note_type 12, 12, 7
	tempo 112
	octave 3
	duty_cycle 0
	rest 14
.mainloop:
	note G_, 1
	rest 3
	note G_, 2
	note F_, 2
	note G_, 1
	rest 3
	note G_, 2
	note F_, 2
	note G_, 2
	note A_, 2
	note A#, 2
	note A_, 2
	note G_, 2
	rest 6
	note D#, 1
	rest 3
	note D#, 2
	note C_, 2
	note D#, 1
	rest 9
	note D_, 2
	note D#, 2
	note F_, 2
	note G_, 2
	note G#, 2
	note G_, 2
	note F_, 2
	note G_, 1
	rest 3
	note G_, 2
	note F_, 2
	note G_, 1
	rest 3
	note G_, 2
	note F_, 2
	note G_, 2
	note A_, 2
	note A#, 2
	note A_, 2
	note G_, 3
	rest 5
	note D#, 1
	rest 3
	note D#, 2
	rest 2
	note F_, 2
	rest 2
	note F_, 1
	rest 3
	note G_, 2
	rest 2
	note G_, 2
	rest 2
	note G_, 2
	rest 2
	octave 4
	note C_, 3
	rest 3
	note C_, 1
	rest 3
	note C_, 1
	rest 3
	note C_, 1
	rest 3
	note C_, 1
	rest 3
	octave 3
	note A#, 1
	rest 3
	note A#, 1
	rest 3
	note A#, 1
	rest 3
	note A#, 1
	rest 3
	note G_, 1
	rest 3
	note G_, 1
	rest 3
	note D#, 1
	rest 3
	note D#, 1
	rest 3
	note C_, 1
	rest 3
	note D_, 1
	rest 3
	note D#, 1
	rest 1
	note F_, 2
	note G_, 1
	rest 3
	octave 4
	note C_, 1
	rest 3
	note C_, 1
	rest 3
	note C_, 1
	rest 3
	note C_, 1
	rest 3
	octave 3
	note A#, 1
	rest 3
	note A#, 1
	rest 3
	note A#, 1
	rest 3
	note A#, 1
	rest 3
	note G_, 1
	rest 3
	note G_, 1
	rest 3
	note G_, 1
	rest 3
	note G_, 1
	rest 3
	note G_, 1
	rest 3
	note G_, 1
	rest 3
	note F_, 1
	rest 1
	note G_, 3
	octave 4
	rest 1
	octave 3
	sound_loop 0, .mainloop

Music_MeetEvilTrainer_Ch2:
	note_type 12, 12, 5
	octave 4
	duty_cycle 1
	note C#, 1
	note D_, 1
	note D#, 1
	note E_, 1
	note F_, 4
	note F#, 1
	note G_, 1
	note G#, 1
	note A_, 1
	note A#, 1
	note B_, 1
.mainloop:
	octave 5
	volume_envelope 12, 5
	note C_, 1
	rest 3
	note C_, 2
	octave 4
	note A#, 2
	octave 5
	note C_, 1
	rest 3
	note C_, 2
	octave 4
	note A#, 1
	rest 1
	octave 5
	note C_, 2
	note D_, 2
	note D_, 1
	rest 1
	note D_, 2
	note C_, 2
	octave 4
	note A#, 2
	note G_, 2
	note D#, 1
	rest 1
	note C_, 1
	rest 3
	note C_, 2
	octave 3
	note A#, 2
	octave 4
	note C_, 1
	rest 3
	note D_, 2
	note D#, 2
	note F_, 2
	note G_, 4
	note G#, 4
	note G_, 2
	note F_, 2
	note G_, 2
	octave 5
	note C_, 2
	rest 2
	note C_, 2
	octave 4
	note A#, 2
	octave 5
	note C_, 1
	rest 3
	note C_, 2
	octave 4
	note A#, 2
	octave 5
	note C_, 2
	note D_, 2
	note D#, 2
	note D_, 2
	note C_, 2
	octave 4
	note A#, 2
	note G_, 2
	note D#, 2
	note C_, 2
	note D#, 3
	rest 1
	note F_, 3
	rest 1
	note G_, 3
	rest 1
	note A#, 2
	note A#, 1
	rest 1
	note G_, 2
	note A#, 2
	note B_, 2
	octave 5
	note C_, 1
	rest 1
	note D#, 2
	note F_, 2
	note D#, 2
	note C_, 1
	rest 3
	note C_, 2
	octave 4
	note A#, 2
	octave 5
	note C_, 1
	rest 3
	note C_, 2
	octave 4
	note A#, 2
	octave 5
	note C_, 2
	note D_, 2
	rest 2
	note D#, 4
	note D_, 2
	note C_, 2
	octave 4
	note A#, 2
	note G_, 1
	rest 3
	note G_, 2
	note F_, 2
	note G_, 2
	rest 2
	note G_, 2
	note F_, 2
	note G_, 2
	note G#, 3
	rest 1
	note A#, 4
	note G#, 2
	note G_, 2
	note D#, 2
	octave 5
	note C_, 2
	rest 2
	note C_, 2
	octave 4
	note A#, 2
	octave 5
	note C_, 2
	rest 2
	note C_, 2
	octave 4
	note A#, 2
	octave 5
	note C_, 2
	note D_, 2
	note D#, 2
	note D_, 2
	note C_, 2
	octave 4
	note A#, 2
	note G_, 2
	note D#, 2
	note F_, 2
	note G_, 2
	rest 2
	note G#, 3
	rest 1
	octave 5
	note C_, 3
	rest 1
	octave 4
	note B_, 2
	note B_, 1
	rest 1
	octave 5
	note C_, 3
	rest 1
	note D_, 4
	note F_, 2
	note D#, 2
	note D_, 2
	octave 4
	sound_loop 0, .mainloop

Music_MeetEvilTrainer_Ch3:
	note_type 12, 1, 0
	rest 14
.mainloop:
	octave 1
	note C_, 2
	octave 2
	note C_, 1
	note C_, 1
	octave 1
	note A#, 2
	octave 2
	note C_, 2
	octave 1
	note C_, 2
	octave 2
	note C_, 1
	note C_, 1
	octave 1
	note A#, 2
	octave 2
	note C_, 2
	octave 1
	note C_, 2
	octave 2
	note C_, 1
	note C_, 1
	octave 1
	note A#, 2
	octave 2
	note C_, 2
	octave 1
	note C_, 2
	octave 2
	note C_, 1
	note C_, 1
	octave 1
	note A#, 2
	octave 2
	note C_, 2
	octave 1
	note G#, 2
	note G#, 1
	note G#, 1
	note G_, 2
	note G#, 2
	note G#, 2
	note G#, 1
	note G#, 1
	note G_, 2
	note G#, 2
	note A#, 2
	note A#, 1
	note A#, 1
	note G#, 2
	note A#, 2
	note A#, 2
	note A#, 1
	note A#, 1
	octave 2
	note C_, 2
	octave 1
	note A#, 2
	note C_, 2
	octave 2
	note C_, 1
	note C_, 1
	octave 1
	note A#, 2
	octave 2
	note C_, 2
	octave 1
	note C_, 2
	octave 2
	note C_, 1
	note C_, 1
	octave 1
	note A#, 2
	octave 2
	note C_, 2
	octave 1
	note C_, 2
	octave 2
	note C_, 1
	note C_, 1
	octave 1
	note A#, 2
	octave 2
	note C_, 1
	rest 1
	octave 1
	note C_, 2
	octave 2
	note C_, 2
	octave 1
	note A#, 2
	note A#, 2
	note G#, 2
	note G#, 1
	note G#, 1
	note G_, 2
	note G#, 2
	note C_, 1
	rest 1
	note A#, 1
	note A#, 2
	rest 1
	note A#, 2
	note C_, 2
	octave 2
	note C_, 1
	note C_, 2
	rest 1
	note C_, 1
	rest 1
	note C_, 2
	octave 1
	note A#, 2
	octave 2
	note C_, 2
	note D#, 2
	octave 1
	note G#, 2
	note G#, 1
	note G#, 1
	note G#, 2
	note G#, 1
	note G#, 1
	note G#, 2
	note G#, 1
	note G#, 1
	note G#, 2
	note G#, 1
	note G#, 1
	note A#, 2
	note A#, 1
	note A#, 1
	note A#, 2
	note A#, 1
	note A#, 1
	note A#, 2
	note A#, 1
	note A#, 1
	note A#, 2
	note A#, 1
	note A#, 1
	note C_, 2
	octave 2
	note C_, 1
	note C_, 1
	octave 1
	note C_, 2
	octave 2
	note C_, 1
	note C_, 1
	octave 1
	note C_, 2
	octave 2
	note C_, 1
	note C_, 1
	octave 1
	note C_, 2
	octave 2
	note C_, 1
	note C_, 1
	octave 1
	note A#, 2
	note A#, 1
	note A#, 1
	note A#, 2
	note A#, 1
	note A#, 1
	note A#, 2
	note A#, 1
	note A#, 1
	note A#, 2
	note A#, 1
	rest 1
	note G#, 2
	note G#, 1
	note G#, 1
	note G#, 2
	note G#, 1
	note G#, 1
	note G#, 2
	note G#, 1
	note G#, 1
	note G#, 2
	note G#, 1
	note G#, 1
	note A#, 2
	note A#, 1
	note A#, 1
	note A#, 2
	note A#, 1
	note A#, 1
	note A#, 2
	note A#, 1
	note A#, 1
	note A#, 2
	note A#, 1
	note A#, 1
	note C_, 2
	octave 2
	note C_, 1
	note C_, 1
	octave 1
	note C_, 2
	octave 2
	note C_, 1
	note C_, 1
	octave 1
	note C_, 2
	octave 2
	note C_, 1
	note C_, 1
	octave 1
	note C_, 2
	octave 2
	note C_, 1
	note C_, 1
	octave 1
	note G_, 2
	octave 2
	note G_, 1
	note G_, 1
	octave 1
	note F_, 2
	octave 2
	note F_, 1
	note F_, 1
	octave 1
	note D#, 2
	octave 2
	note D#, 1
	note D#, 1
	octave 1
	note D_, 2
	octave 2
	note D_, 1
	note D_, 1
	sound_loop 0, .mainloop

Music_MeetEvilTrainer_Ch4:
	toggle_noise 1
	drum_speed 12
	rest 14
.mainloop:
	drum_note 5, 2
	drum_note 5, 2
	drum_note 5, 2
	drum_note 5, 2
	drum_note 5, 2
	drum_note 5, 2
	drum_note 5, 2
	drum_note 5, 2
	drum_note 5, 2
	drum_note 5, 2
	drum_note 5, 2
	drum_note 5, 2
	drum_note 5, 2
	drum_note 5, 2
	drum_note 5, 2
	drum_note 5, 2
	drum_note 5, 2
	drum_note 5, 2
	drum_note 5, 2
	drum_note 5, 2
	drum_note 5, 2
	drum_note 5, 2
	drum_note 5, 2
	drum_note 5, 2
	drum_note 5, 2
	drum_note 5, 2
	drum_note 5, 2
	drum_note 5, 2
	drum_note 5, 2
	drum_note 5, 2
	drum_note 5, 2
	drum_note 5, 2
	drum_note 5, 2
	drum_note 5, 2
	drum_note 5, 2
	drum_note 5, 2
	drum_note 5, 2
	drum_note 5, 2
	drum_note 5, 2
	drum_note 5, 2
	drum_note 5, 2
	drum_note 5, 2
	drum_note 5, 2
	drum_note 5, 2
	drum_note 5, 2
	drum_note 5, 2
	drum_note 5, 2
	drum_note 5, 2
	drum_note 5, 2
	drum_note 5, 2
	drum_note 5, 2
	drum_note 5, 2
	drum_note 5, 2
	drum_note 5, 2
	drum_note 5, 2
	drum_note 5, 2
	drum_note 5, 2
	drum_note 5, 2
	drum_note 5, 2
	drum_note 5, 2
	drum_note 5, 2
	drum_note 5, 2
	drum_note 5, 2
	drum_note 5, 2
	drum_note 5, 2
	drum_note 5, 2
	drum_note 5, 2
	drum_note 5, 2
	drum_note 5, 2
	drum_note 5, 2
	drum_note 5, 2
	drum_note 5, 2
	drum_note 5, 2
	drum_note 5, 2
	drum_note 5, 2
	drum_note 5, 2
	drum_note 5, 2
	drum_note 5, 2
	drum_note 5, 2
	drum_note 5, 2
	drum_note 5, 2
	drum_note 5, 2
	drum_note 5, 2
	drum_note 5, 2
	drum_note 5, 2
	drum_note 5, 2
	drum_note 5, 2
	drum_note 5, 2
	drum_note 5, 2
	drum_note 5, 2
	drum_note 5, 2
	drum_note 5, 2
	drum_note 5, 2
	drum_note 5, 2
	drum_note 5, 2
	drum_note 5, 2
	drum_note 5, 2
	drum_note 5, 2
	drum_note 5, 2
	drum_note 5, 2
	drum_note 5, 2
	drum_note 5, 2
	drum_note 5, 2
	drum_note 5, 2
	drum_note 5, 2
	drum_note 5, 2
	drum_note 5, 2
	drum_note 5, 2
	drum_note 5, 2
	drum_note 5, 2
	drum_note 5, 2
	drum_note 5, 2
	drum_note 5, 2
	drum_note 5, 2
	drum_note 5, 2
	drum_note 5, 2
	drum_note 5, 2
	drum_note 5, 2
	drum_note 5, 2
	drum_note 5, 2
	drum_note 5, 2
	drum_note 5, 2
	drum_note 5, 2
	drum_note 5, 2
	drum_note 5, 2
	drum_note 5, 2
	drum_note 5, 2
	drum_note 5, 2
	sound_loop 0, .mainloop
