Music_Placeholder:
	channel_count 4
	channel 1, Music_Placeholder_Ch1
	channel 2, Music_Placeholder_Ch2
	channel 3, Music_Placeholder_Ch3
	channel 4, Music_Placeholder_Ch4

Music_Placeholder_Ch1:
	volume 7, 7
	note_type 12, 10, 7
	tempo 140
	octave 5
.mainloop
	duty_cycle 1
	note E_, 1
	rest 1
	octave 4
	note E_, 1
	rest 1
	note B_, 1
	rest 1
	octave 5
	note E_, 1
	rest 1
	note F#, 1
	rest 1
	octave 4
	note B_, 1
	rest 1
	octave 5
	note E_, 1
	rest 1
	note F#, 1
	rest 1
	note A_, 1
	rest 1
	octave 4
	note B_, 1
	rest 1
	octave 5
	note A_, 1
	rest 1
	note G#, 1
	rest 1
	octave 4
	note B_, 1
	rest 1
	octave 5
	note G_, 1
	rest 1
	note F#, 1
	rest 1
	note E_, 1
	rest 1
	note E_, 1
	rest 1
	octave 4
	note E_, 1
	rest 1
	note B_, 1
	rest 1
	octave 5
	note E_, 1
	rest 1
	note F#, 1
	rest 1
	octave 4
	note B_, 1
	rest 1
	octave 5
	note E_, 1
	rest 1
	note F#, 1
	rest 1
	note A_, 1
	rest 1
	octave 4
	note B_, 1
	rest 1
	octave 5
	note A_, 1
	rest 1
	note G#, 1
	rest 1
	octave 4
	note B_, 1
	rest 1
	octave 5
	note G#, 1
	rest 1
	note F#, 1
	rest 1
	note E_, 1
	rest 1
	note E_, 1
	rest 1
	octave 4
	note E_, 1
	rest 1
	note B_, 1
	rest 1
	octave 5
	note E_, 1
	rest 1
	note F#, 1
	rest 1
	octave 4
	note B_, 1
	rest 1
	octave 5
	note E_, 1
	rest 1
	note F#, 1
	rest 1
	note A_, 1
	rest 1
	octave 4
	note B_, 1
	rest 1
	octave 5
	note A_, 1
	rest 1
	note G#, 1
	rest 1
	octave 4
	note B_, 1
	rest 1
	octave 5
	note G#, 1
	rest 1
	note F#, 1
	rest 1
	note E_, 1
	rest 1
	note E_, 1
	rest 1
	octave 4
	note E_, 1
	rest 1
	note B_, 1
	rest 1
	octave 5
	note E_, 1
	rest 1
	note F#, 1
	rest 1
	octave 4
	note B_, 1
	rest 1
	octave 5
	note E_, 1
	rest 1
	note F#, 1
	rest 1
	note A_, 1
	rest 1
	octave 4
	note B_, 1
	rest 1
	octave 5
	note A_, 1
	rest 1
	note G#, 1
	rest 1
	octave 4
	note B_, 1
	rest 1
	octave 5
	note G#, 1
	rest 1
	note F#, 1
	rest 1
	note E_, 1
	rest 1
	note E_, 1
	rest 1
	octave 4
	note E_, 1
	rest 1
	note B_, 1
	rest 1
	octave 5
	note E_, 1
	rest 1
	note F#, 1
	rest 1
	octave 4
	note B_, 1
	rest 1
	octave 5
	note E_, 1
	rest 1
	note F#, 1
	rest 1
	note A_, 1
	rest 1
	octave 4
	note B_, 1
	rest 1
	octave 5
	note A_, 1
	rest 1
	note G#, 1
	rest 1
	octave 4
	note B_, 1
	rest 1
	octave 5
	note G#, 1
	rest 1
	note F#, 1
	rest 1
	note E_, 1
	rest 1
	note E_, 1
	rest 1
	octave 4
	note E_, 1
	rest 1
	note B_, 1
	rest 1
	octave 5
	note E_, 1
	rest 1
	note F#, 1
	rest 1
	octave 4
	note B_, 1
	rest 1
	octave 5
	note E_, 1
	rest 1
	note F#, 1
	rest 1
	note A_, 1
	rest 1
	octave 4
	note B_, 1
	rest 1
	octave 5
	note A_, 1
	rest 1
	note G#, 1
	rest 1
	octave 4
	note B_, 1
	rest 1
	octave 5
	note G#, 1
	rest 1
	note F#, 1
	rest 1
	note E_, 1
	rest 1
	note E_, 1
	rest 1
	octave 4
	note E_, 1
	rest 1
	note B_, 1
	rest 1
	octave 5
	note E_, 1
	rest 1
	note F#, 1
	rest 1
	octave 4
	note B_, 1
	rest 1
	octave 5
	note E_, 1
	rest 1
	note F#, 1
	rest 1
	note A_, 1
	rest 1
	octave 4
	note B_, 1
	rest 1
	octave 5
	note A_, 1
	rest 1
	note G#, 1
	rest 1
	octave 4
	note B_, 1
	rest 1
	octave 5
	note G#, 1
	rest 1
	note F#, 1
	rest 1
	note E_, 1
	rest 1
	note E_, 1
	rest 1
	octave 4
	note E_, 1
	rest 1
	note B_, 1
	rest 1
	octave 5
	note E_, 1
	rest 1
	note F#, 1
	rest 1
	octave 4
	note B_, 1
	rest 1
	octave 5
	note E_, 1
	rest 1
	note F#, 1
	rest 1
	note A_, 1
	rest 1
	octave 4
	note B_, 1
	rest 1
	octave 5
	note A_, 1
	rest 1
	note G#, 1
	rest 1
	octave 4
	note B_, 1
	rest 1
	octave 5
	note G#, 1
	rest 1
	note F#, 1
	rest 1
	note E_, 1
	rest 1
	note E_, 1
	rest 1
	octave 4
	note E_, 1
	rest 1
	note B_, 1
	rest 1
	octave 5
	note E_, 1
	rest 1
	note F#, 1
	rest 1
	octave 4
	note B_, 1
	rest 1
	octave 5
	note E_, 1
	rest 1
	note F#, 1
	rest 1
	note A_, 1
	rest 1
	octave 4
	note B_, 1
	rest 1
	octave 5
	note A_, 1
	rest 1
	note G#, 1
	rest 1
	octave 4
	note B_, 1
	rest 1
	octave 5
	note G#, 1
	rest 1
	note F#, 1
	rest 1
	note E_, 1
	rest 1
	note E_, 1
	rest 1
	octave 4
	note E_, 1
	rest 1
	note B_, 1
	rest 1
	octave 5
	note E_, 1
	rest 1
	note F#, 1
	rest 1
	octave 4
	note B_, 1
	rest 1
	octave 5
	note E_, 1
	rest 1
	note F#, 1
	rest 1
	note A_, 1
	rest 1
	octave 4
	note B_, 1
	rest 1
	octave 5
	note A_, 1
	rest 1
	note G#, 1
	rest 1
	octave 4
	note B_, 1
	rest 1
	octave 5
	note G#, 1
	rest 1
	note F#, 1
	rest 1
	note E_, 1
	rest 1
	note E_, 1
	rest 1
	octave 4
	note E_, 1
	rest 1
	note B_, 1
	rest 1
	octave 5
	note E_, 1
	rest 1
	note F#, 1
	rest 1
	octave 4
	note B_, 1
	rest 1
	octave 5
	note E_, 1
	rest 1
	note F#, 1
	rest 1
	note A_, 1
	rest 1
	octave 4
	note B_, 1
	rest 1
	octave 5
	note A_, 1
	rest 1
	note G#, 1
	rest 1
	octave 4
	note B_, 1
	rest 1
	octave 5
	note G#, 1
	rest 1
	note F#, 1
	rest 1
	note E_, 1
	rest 1
	note E_, 1
	rest 1
	octave 4
	note E_, 1
	rest 1
	note B_, 1
	rest 1
	octave 5
	note E_, 1
	rest 1
	note F#, 1
	rest 1
	octave 4
	note B_, 1
	rest 1
	octave 5
	note E_, 1
	rest 1
	note F#, 1
	rest 1
	note A_, 1
	rest 1
	octave 4
	note B_, 1
	rest 1
	octave 5
	note A_, 1
	rest 1
	note G#, 1
	rest 1
	octave 4
	note B_, 1
	rest 1
	octave 5
	note G#, 1
	rest 1
	note F#, 1
	rest 1
	note E_, 1
	rest 1
	note E_, 1
	rest 1
	octave 4
	note E_, 1
	rest 1
	note B_, 1
	rest 1
	octave 5
	note E_, 1
	rest 1
	note F#, 1
	rest 1
	octave 4
	note B_, 1
	rest 1
	octave 5
	note E_, 1
	rest 1
	note F#, 1
	rest 1
	note A_, 1
	rest 1
	octave 4
	note B_, 1
	rest 1
	octave 5
	note A_, 1
	rest 1
	note G#, 1
	rest 1
	octave 4
	note B_, 1
	rest 1
	octave 5
	note G#, 1
	rest 1
	note F#, 1
	rest 1
	note E_, 1
	rest 1
	note E_, 1
	rest 1
	octave 4
	note G_, 1
	rest 1
	octave 5
	note C_, 1
	rest 1
	note F#, 1
	rest 1
	octave 4
	note A_, 1
	rest 1
	octave 5
	note F#, 1
	rest 1
	note A_, 1
	rest 1
	note G#, 1
	rest 1
	note E_, 1
	rest 1
	octave 4
	note B_, 1
	rest 1
	note A_, 1
	rest 1
	note G#, 1
	rest 1
	note E_, 1
	rest 1
	octave 3
	note B_, 1
	rest 1
	note A_, 1
	rest 1
	note G#, 1
	rest 1
	volume_envelope 8, 7
	note G_, 2
	note G_, 2
	rest 4
	note A_, 2
	note A_, 1
	note A_, 2
	rest 1
	note G_, 4
	octave 4
	note F#, 1
	rest 1
	note G_, 1
	rest 1
	octave 5
	note D_, 1
	rest 3
	note F#, 1
	rest 1
	note G_, 1
	rest 1
	octave 6
	note D_, 1
	rest 1
	octave 3
	note C_, 4
	note C_, 2
	note C_, 2
	rest 2
	note C_, 2
	rest 2
	note D#, 16
	rest 2
	octave 4
	note C_, 2
	note C_, 2
	rest 4
	octave 3
	note A_, 2
	note A_, 2
	rest 2
	note B_, 4
	note B_, 4
	note B_, 4
	note B_, 2
	octave 4
	note D_, 2
	volume_envelope 10, 7
	note E_, 14
	note E_, 4
	note D#, 10
	note D#, 2
	note D#, 2
	note E_, 2
	volume_envelope 8, 7
	octave 5
	note E_, 1
	rest 1
	octave 4
	note E_, 1
	rest 1
	note B_, 1
	rest 1
	octave 5
	note E_, 1
	rest 1
	note F#, 1
	rest 1
	octave 4
	note B_, 1
	rest 1
	octave 5
	note E_, 1
	rest 1
	note F#, 1
	rest 1
	note A_, 1
	rest 1
	octave 4
	note B_, 1
	rest 1
	octave 5
	note A_, 1
	rest 1
	note G#, 1
	rest 1
	octave 4
	note B_, 1
	rest 1
	octave 5
	note G_, 1
	rest 1
	note F#, 1
	rest 1
	note E_, 1
	rest 1
	volume_envelope 10, 7
	note E_, 1
	rest 1
	octave 4
	note E_, 1
	rest 1
	note B_, 1
	rest 1
	octave 5
	note E_, 1
	rest 1
	note F#, 1
	rest 1
	octave 4
	note B_, 1
	rest 1
	octave 5
	note E_, 1
	rest 1
	note F#, 1
	rest 1
	note A_, 1
	rest 1
	octave 4
	note B_, 1
	rest 1
	octave 5
	note A_, 1
	rest 1
	note G#, 1
	rest 1
	octave 4
	note B_, 1
	rest 1
	octave 5
	note G#, 1
	rest 1
	note F#, 1
	rest 1
	note E_, 1
	rest 1
	note E_, 1
	rest 1
	octave 4
	note E_, 1
	rest 1
	note B_, 1
	rest 1
	octave 5
	note E_, 1
	rest 1
	note F#, 1
	rest 1
	octave 4
	note B_, 1
	rest 1
	octave 5
	note E_, 1
	rest 1
	note F#, 1
	rest 1
	note A_, 1
	rest 1
	octave 4
	note B_, 1
	rest 1
	octave 5
	note A_, 1
	rest 1
	note G#, 1
	rest 1
	octave 4
	note B_, 1
	rest 1
	octave 5
	note G#, 1
	rest 1
	note F#, 1
	rest 1
	note E_, 1
	rest 1
	note E_, 1
	rest 1
	octave 4
	note E_, 1
	rest 1
	note B_, 1
	rest 1
	octave 5
	note E_, 1
	rest 1
	note F#, 1
	rest 1
	octave 4
	note B_, 1
	rest 1
	octave 5
	note E_, 1
	rest 1
	note F#, 1
	rest 1
	note A_, 1
	rest 1
	octave 4
	note B_, 1
	rest 1
	octave 5
	note A_, 1
	rest 1
	note G#, 1
	rest 1
	octave 4
	note B_, 1
	rest 1
	octave 5
	note G#, 1
	rest 1
	note F#, 1
	rest 1
	note E_, 1
	rest 1
	note E_, 1
	rest 1
	octave 4
	note E_, 1
	rest 1
	note B_, 1
	rest 1
	octave 5
	note E_, 1
	rest 1
	note F#, 1
	rest 1
	octave 4
	note B_, 1
	rest 1
	octave 5
	note E_, 1
	rest 1
	note F#, 1
	rest 1
	note A_, 1
	rest 1
	octave 4
	note B_, 1
	rest 1
	octave 5
	note A_, 1
	rest 1
	note G#, 1
	rest 1
	octave 4
	note B_, 1
	rest 1
	octave 5
	note G#, 1
	rest 1
	note F#, 1
	rest 1
	note E_, 1
	rest 1
	note E_, 1
	rest 1
	octave 4
	note E_, 1
	rest 1
	note B_, 1
	rest 1
	octave 5
	note E_, 1
	rest 1
	note F#, 1
	rest 1
	octave 4
	note B_, 1
	rest 1
	octave 5
	note E_, 1
	rest 1
	note F#, 1
	rest 1
	note A_, 1
	rest 1
	octave 4
	note B_, 1
	rest 1
	octave 5
	note A_, 1
	rest 1
	note G#, 1
	rest 1
	octave 4
	note B_, 1
	rest 1
	octave 5
	note G#, 1
	rest 1
	note F#, 1
	rest 1
	note E_, 1
	rest 1
	note E_, 1
	rest 1
	octave 4
	note E_, 1
	rest 1
	note B_, 1
	rest 1
	octave 5
	note E_, 1
	rest 1
	note F#, 1
	rest 1
	octave 4
	note B_, 1
	rest 1
	octave 5
	note E_, 1
	rest 1
	note F#, 1
	rest 1
	note A_, 1
	rest 1
	octave 4
	note B_, 1
	rest 1
	octave 5
	note A_, 1
	rest 1
	note G#, 1
	rest 1
	octave 4
	note B_, 1
	rest 1
	octave 5
	note G#, 1
	rest 1
	note F#, 1
	rest 1
	note E_, 1
	rest 1
	note E_, 1
	rest 1
	octave 4
	note E_, 1
	rest 1
	note B_, 1
	rest 1
	octave 5
	note E_, 1
	rest 1
	note F#, 1
	rest 1
	octave 4
	note B_, 1
	rest 1
	octave 5
	note E_, 1
	rest 1
	note F#, 1
	rest 1
	note A_, 1
	rest 1
	octave 4
	note B_, 1
	rest 1
	octave 5
	note A_, 1
	rest 1
	note G#, 1
	rest 1
	octave 4
	note B_, 1
	rest 1
	octave 5
	note G#, 1
	rest 1
	note F#, 1
	rest 1
	note E_, 1
	rest 1
	note E_, 1
	rest 1
	octave 4
	note G_, 1
	rest 1
	octave 5
	note C_, 1
	rest 1
	note F#, 1
	rest 1
	octave 4
	note A_, 1
	rest 1
	octave 5
	note F#, 1
	rest 1
	note A_, 1
	rest 1
	note G#, 1
	rest 1
	note E_, 1
	rest 1
	octave 4
	note B_, 1
	rest 1
	note A_, 1
	rest 1
	note G#, 1
	rest 1
	note E_, 1
	rest 1
	octave 3
	note B_, 1
	rest 1
	note A_, 1
	rest 1
	note G#, 1
	octave 5
	rest 1
	sound_loop 0, .mainloop

Music_Placeholder_Ch2:
	duty_cycle 1
	note_type 12, 15, 7
.mainloop
	rest 16
	rest 16
	rest 16
	rest 16
	rest 16
	rest 16
	rest 16
	rest 16
	rest 16
	rest 16
	rest 16
	rest 16
	rest 8
	octave 2
	note G#, 2
	note A_, 2
	note B_, 2
	note B_, 6
	octave 3
	note E_, 4
	note D#, 4
	note E_, 4
	note F#, 4
	note G#, 2
	note E_, 16
	note E_, 6
	note D#, 2
	note E_, 2
	note B_, 6
	note E_, 2
	note E_, 16
	note E_, 4
	note E_, 2
	note E_, 2
	note E_, 10
	note F#, 2
	note E_, 2
	note D#, 16
	note D#, 2
	octave 2
	note G#, 8
	rest 2
	note F#, 2
	note E_, 2
	note B_, 8
	rest 2
	octave 3
	note E_, 4
	note F#, 4
	note A_, 6
	note G#, 2
	note G#, 16
	note B_, 4
	note A_, 4
	note G#, 2
	note A_, 2
	note G#, 2
	note E_, 4
	octave 2
	note B_, 8
	octave 3
	note F#, 2
	note E_, 2
	note D#, 2
	note C#, 2
	note D#, 6
	note E_, 3
	rest 3
	note E_, 3
	rest 3
	note E_, 4
	rest 16
	note E_, 2
	note E_, 2
	rest 4
	note F#, 2
	note F#, 2
	rest 2
	note D_, 8
	octave 2
	note B_, 4
	octave 3
	note D_, 2
	octave 2
	note A_, 1
	note A#, 1
	note A_, 1
	note G_, 1
	note A_, 4
	note G_, 2
	note A_, 2
	rest 2
	note G_, 2
	rest 2
	note B_, 16
	note B_, 2
	octave 3
	note E_, 2
	note E_, 2
	rest 4
	note F#, 2
	note F#, 2
	rest 2
	note G_, 4
	note D_, 4
	note D_, 4
	note D_, 2
	note G_, 2
	note A_, 12
	rest 2
	note G_, 2
	note B_, 16
	note B_, 16
	note B_, 10
	rest 16
	octave 2
	note G#, 2
	note A_, 2
	note B_, 2
	note B_, 6
	octave 3
	note E_, 4
	note D#, 4
	note E_, 4
	note F#, 4
	note G#, 2
	note E_, 16
	note E_, 6
	note D#, 2
	note E_, 2
	note B_, 6
	note E_, 2
	note E_, 16
	note E_, 4
	note E_, 2
	note E_, 2
	note E_, 10
	note F#, 2
	note E_, 2
	note D#, 16
	note D#, 2
	octave 2
	note G#, 8
	rest 2
	note F#, 2
	note E_, 2
	note B_, 8
	rest 2
	octave 3
	note E_, 4
	note F#, 4
	note A_, 6
	note G#, 2
	note G#, 16
	note B_, 4
	note A_, 4
	note G#, 2
	note A_, 2
	note G#, 2
	note E_, 4
	octave 2
	note B_, 8
	octave 3
	note F#, 2
	note E_, 2
	note D#, 2
	note C#, 2
	note D#, 6
	note E_, 3
	rest 3
	note E_, 3
	rest 3
	note E_, 4
	rest 16
	sound_loop 0, .mainloop

Music_Placeholder_Ch3:
	note_type 12, 1, 0
.mainloop
	rest 16
	rest 16
	octave 1
	note E_, 6
	note B_, 6
	octave 2
	note E_, 16
	note E_, 4
	octave 1
	note D_, 6
	note A_, 6
	octave 2
	note D_, 16
	note D_, 4
	octave 1
	note C#, 6
	note G#, 6
	octave 2
	note C#, 16
	note C#, 4
	octave 1
	note C_, 6
	note G_, 6
	octave 2
	note C_, 16
	note C_, 4
	note E_, 2
	note E_, 4
	note E_, 2
	note E_, 2
	note E_, 2
	note E_, 2
	note E_, 4
	note E_, 2
	note E_, 2
	note E_, 2
	note E_, 2
	note E_, 2
	note E_, 2
	note E_, 2
	note E_, 2
	note E_, 2
	note E_, 2
	note E_, 2
	note E_, 2
	note E_, 2
	note E_, 2
	note E_, 2
	note D#, 2
	note D#, 2
	note D#, 2
	note D#, 2
	note D#, 2
	note D#, 2
	note D#, 4
	note C#, 2
	note C#, 2
	note C#, 4
	note C#, 2
	note C#, 2
	note C#, 2
	note C#, 2
	octave 1
	note B_, 2
	note B_, 2
	note B_, 2
	note B_, 2
	note B_, 2
	note B_, 2
	note B_, 2
	note B_, 2
	note A_, 2
	note A_, 2
	note A_, 2
	note A_, 2
	note A_, 2
	note A_, 2
	note A_, 2
	note A_, 2
	note A#, 2
	note A#, 2
	note A#, 2
	note A#, 2
	note A#, 2
	note A#, 2
	note A#, 2
	note A#, 2
	note B_, 2
	note B_, 2
	note B_, 2
	note B_, 2
	note B_, 2
	note B_, 2
	note B_, 2
	note B_, 2
	note B_, 2
	note B_, 2
	note B_, 2
	note B_, 2
	note B_, 2
	note B_, 2
	note B_, 2
	note B_, 2
	octave 2
	note E_, 4
	note E_, 2
	note E_, 2
	note E_, 2
	note E_, 2
	note E_, 2
	note E_, 2
	note D_, 2
	note D_, 2
	note D_, 2
	note D_, 2
	note D_, 2
	note D_, 2
	note D_, 2
	note D_, 2
	note C#, 2
	note C#, 2
	note C#, 2
	note C#, 2
	note C#, 2
	note C#, 2
	note C#, 2
	note C#, 2
	note C_, 2
	note C_, 2
	note C_, 2
	note C_, 2
	note C_, 6
	note C_, 2
	octave 1
	note B_, 2
	note B_, 2
	note B_, 2
	note B_, 2
	note B_, 2
	note B_, 2
	note B_, 2
	note B_, 2
	note A#, 2
	note A#, 2
	note A#, 2
	note A#, 2
	note B_, 2
	note B_, 2
	note B_, 2
	note B_, 2
	octave 2
	note C_, 3
	rest 3
	note D_, 3
	rest 3
	note E_, 6
	octave 1
	note E_, 2
	note E_, 2
	note E_, 2
	note E_, 2
	note E_, 2
	note E_, 2
	note E_, 2
	note A_, 2
	note A_, 2
	rest 4
	octave 2
	note D_, 2
	note D_, 2
	rest 2
	octave 1
	note G_, 4
	note G_, 2
	note G_, 2
	note G_, 2
	note G_, 2
	note G_, 2
	note G_, 2
	note G_, 2
	note A_, 2
	note A_, 2
	note A_, 2
	note A_, 2
	note A_, 2
	note A_, 2
	note A_, 2
	note A_, 2
	note B_, 2
	note B_, 2
	note B_, 2
	note B_, 2
	note B_, 2
	note B_, 2
	note B_, 2
	note B_, 2
	note A_, 2
	note A_, 2
	rest 4
	octave 2
	note D_, 2
	note D_, 2
	rest 2
	octave 1
	note G_, 4
	note G_, 2
	note G_, 2
	note G_, 2
	note G_, 2
	note G_, 2
	note G_, 2
	note G_, 2
	note A_, 2
	note A_, 2
	note A_, 2
	note A_, 2
	note A_, 2
	note A_, 2
	note A_, 2
	note A_, 2
	note B_, 2
	note B_, 2
	note B_, 2
	note B_, 2
	note B_, 2
	note B_, 2
	note B_, 2
	note B_, 2
	octave 2
	note C_, 2
	note C_, 2
	note C_, 2
	note C_, 2
	note C_, 6
	note C_, 2
	note C_, 2
	rest 6
	note C_, 4
	note D_, 4
	note E_, 2
	note E_, 2
	note E_, 2
	note E_, 2
	note E_, 2
	note E_, 2
	note E_, 2
	note E_, 2
	note D#, 2
	note D#, 2
	note D#, 2
	note D#, 2
	note D#, 2
	note D#, 2
	note D#, 4
	note C#, 2
	note C#, 2
	note C#, 4
	note C#, 2
	note C#, 2
	note C#, 2
	note C#, 2
	octave 1
	note B_, 2
	note B_, 2
	note B_, 2
	note B_, 2
	note B_, 2
	note B_, 2
	note B_, 2
	note B_, 2
	note A_, 2
	note A_, 2
	note A_, 2
	note A_, 2
	note A_, 2
	note A_, 2
	note A_, 2
	note A_, 2
	note A#, 2
	note A#, 2
	note A#, 2
	note A#, 2
	note A#, 2
	note A#, 2
	note A#, 2
	note A#, 2
	note B_, 2
	note B_, 2
	note B_, 2
	note B_, 2
	note B_, 2
	note B_, 2
	note B_, 2
	note B_, 2
	note B_, 2
	note B_, 2
	note B_, 2
	note B_, 2
	note B_, 2
	note B_, 2
	note B_, 2
	note B_, 2
	octave 2
	note E_, 4
	note E_, 2
	note E_, 2
	note E_, 2
	note E_, 2
	note E_, 2
	note E_, 2
	note D_, 2
	note D_, 2
	note D_, 2
	note D_, 2
	note D_, 2
	note D_, 2
	note D_, 2
	note D_, 2
	note C#, 2
	note C#, 2
	note C#, 2
	note C#, 2
	note C#, 2
	note C#, 2
	note C#, 2
	note C#, 2
	note C_, 2
	note C_, 2
	note C_, 2
	note C_, 2
	note C_, 6
	note C_, 2
	octave 1
	note B_, 2
	note B_, 2
	note B_, 2
	note B_, 2
	note B_, 2
	note B_, 2
	note B_, 2
	note B_, 2
	note A#, 2
	note A#, 2
	note A#, 2
	note A#, 2
	note B_, 2
	note B_, 2
	note B_, 2
	note B_, 2
	octave 2
	note C_, 3
	rest 3
	note D_, 3
	rest 3
	note E_, 6
	octave 1
	note E_, 2
	note E_, 2
	note E_, 2
	note E_, 2
	note E_, 2
	note E_, 2
	note E_, 2
	sound_loop 0, .mainloop

Music_Placeholder_Ch4:
	toggle_noise 1
	drum_speed 12
	toggle_noise
	toggle_noise 3
.mainloop
	drum_note 9, 2
	drum_note 9, 2
	drum_note 9, 2
	drum_note 9, 2
	drum_note 9, 2
	drum_note 9, 2
	drum_note 9, 2
	drum_note 9, 2
	drum_note 9, 2
	drum_note 9, 2
	drum_note 9, 2
	drum_note 9, 2
	drum_note 9, 2
	drum_note 9, 2
	drum_note 9, 2
	drum_note 9, 2
	drum_note 9, 2
	drum_note 9, 2
	drum_note 9, 2
	drum_note 9, 2
	drum_note 9, 2
	drum_note 9, 2
	drum_note 9, 2
	drum_note 9, 2
	drum_note 9, 2
	drum_note 9, 2
	drum_note 9, 2
	drum_note 9, 2
	drum_note 9, 2
	drum_note 9, 2
	drum_note 9, 2
	drum_note 9, 2
	drum_note 9, 2
	drum_note 9, 2
	drum_note 9, 2
	drum_note 9, 2
	drum_note 9, 2
	drum_note 9, 2
	drum_note 9, 2
	drum_note 9, 2
	drum_note 9, 2
	drum_note 9, 2
	drum_note 9, 2
	drum_note 9, 2
	drum_note 9, 2
	drum_note 9, 2
	drum_note 9, 2
	drum_note 9, 2
	drum_note 9, 2
	drum_note 9, 2
	drum_note 9, 2
	drum_note 9, 2
	drum_note 9, 2
	drum_note 9, 2
	drum_note 7, 2
	drum_note 9, 2
	drum_note 9, 2
	drum_note 9, 2
	drum_note 9, 2
	drum_note 9, 2
	drum_note 9, 2
	drum_note 9, 2
	drum_note 7, 2
	drum_note 9, 2
	drum_note 9, 1
	drum_note 9, 1
	drum_note 9, 1
	drum_note 9, 1
	drum_note 7, 1
	drum_note 9, 1
	drum_note 9, 1
	drum_note 9, 1
	drum_note 9, 1
	drum_note 9, 1
	drum_note 9, 1
	drum_note 9, 1
	drum_note 7, 1
	drum_note 9, 1
	drum_note 9, 1
	drum_note 9, 1
	drum_note 9, 1
	drum_note 9, 1
	drum_note 9, 1
	drum_note 9, 1
	drum_note 7, 1
	drum_note 9, 1
	drum_note 9, 1
	drum_note 9, 1
	drum_note 9, 1
	drum_note 9, 1
	drum_note 9, 1
	drum_note 9, 1
	drum_note 7, 1
	drum_note 9, 1
	drum_note 9, 1
	drum_note 9, 1
	drum_note 1, 1
	drum_note 9, 1
	drum_note 1, 1
	drum_note 9, 1
	drum_note 9, 1
	drum_note 9, 1
	drum_note 1, 1
	drum_note 9, 1
	drum_note 1, 1
	drum_note 9, 1
	drum_note 1, 1
	drum_note 9, 1
	drum_note 9, 1
	drum_note 9, 1
	drum_note 1, 1
	drum_note 9, 1
	drum_note 1, 1
	drum_note 9, 1
	drum_note 1, 1
	drum_note 9, 1
	drum_note 9, 1
	drum_note 9, 1
	drum_note 1, 1
	drum_note 9, 1
	drum_note 1, 1
	drum_note 9, 1
	drum_note 1, 1
	drum_note 9, 1
	drum_note 9, 1
	drum_note 1, 1
	drum_note 9, 1
	drum_note 9, 1
	drum_note 1, 1
	drum_note 9, 1
	drum_note 9, 1
	drum_note 9, 1
	drum_note 1, 1
	drum_note 9, 1
	drum_note 9, 1
	drum_note 9, 1
	drum_note 1, 1
	drum_note 9, 1
	drum_note 9, 1
	drum_note 9, 1
	drum_note 1, 1
	drum_note 9, 1
	drum_note 9, 1
	drum_note 9, 1
	drum_note 1, 1
	drum_note 9, 1
	drum_note 9, 1
	drum_note 9, 1
	drum_note 1, 1
	drum_note 9, 1
	drum_note 9, 1
	drum_note 9, 1
	drum_note 1, 1
	drum_note 9, 1
	drum_note 9, 1
	drum_note 9, 1
	drum_note 1, 1
	drum_note 9, 1
	drum_note 9, 1
	drum_note 9, 1
	drum_note 1, 1
	drum_note 9, 1
	drum_note 9, 1
	drum_note 9, 1
	drum_note 1, 1
	drum_note 9, 1
	drum_note 9, 1
	drum_note 9, 1
	drum_note 1, 1
	drum_note 9, 1
	drum_note 9, 1
	drum_note 9, 1
	drum_note 1, 1
	drum_note 9, 1
	drum_note 9, 1
	drum_note 9, 1
	drum_note 1, 1
	drum_note 9, 1
	drum_note 9, 1
	drum_note 9, 1
	drum_note 1, 1
	drum_note 9, 1
	drum_note 9, 1
	drum_note 9, 1
	drum_note 1, 1
	drum_note 9, 1
	drum_note 9, 1
	drum_note 9, 1
	drum_note 1, 1
	drum_note 9, 1
	drum_note 9, 1
	drum_note 1, 1
	drum_note 1, 1
	drum_note 9, 1
	drum_note 9, 1
	drum_note 9, 1
	drum_note 1, 1
	drum_note 9, 1
	drum_note 9, 1
	drum_note 9, 1
	drum_note 1, 1
	drum_note 9, 1
	drum_note 9, 1
	drum_note 9, 1
	drum_note 1, 1
	drum_note 9, 1
	drum_note 9, 1
	drum_note 9, 1
	drum_note 1, 1
	drum_note 9, 1
	drum_note 9, 1
	drum_note 9, 1
	drum_note 1, 1
	drum_note 9, 1
	drum_note 9, 1
	drum_note 9, 1
	drum_note 1, 1
	drum_note 9, 1
	drum_note 9, 1
	drum_note 9, 1
	drum_note 1, 1
	drum_note 9, 1
	drum_note 1, 1
	drum_note 9, 1
	drum_note 1, 1
	drum_note 9, 1
	drum_note 9, 1
	drum_note 9, 1
	drum_note 1, 1
	drum_note 9, 1
	drum_note 9, 1
	drum_note 9, 1
	drum_note 12, 1
	drum_note 9, 1
	drum_note 9, 1
	drum_note 9, 1
	drum_note 1, 1
	drum_note 9, 1
	drum_note 9, 1
	drum_note 9, 1
	drum_note 1, 1
	drum_note 9, 1
	drum_note 9, 1
	drum_note 9, 1
	drum_note 1, 1
	drum_note 9, 1
	drum_note 9, 1
	drum_note 9, 1
	drum_note 1, 1
	drum_note 9, 1
	drum_note 9, 1
	drum_note 9, 1
	drum_note 1, 1
	drum_note 9, 1
	drum_note 9, 1
	drum_note 1, 1
	drum_note 1, 1
	drum_note 9, 1
	drum_note 9, 1
	drum_note 9, 1
	drum_note 1, 1
	drum_note 9, 1
	drum_note 9, 1
	drum_note 9, 1
	drum_note 1, 1
	drum_note 9, 1
	drum_note 9, 1
	drum_note 9, 1
	drum_note 1, 1
	drum_note 9, 1
	drum_note 9, 1
	drum_note 9, 1
	drum_note 1, 1
	drum_note 9, 1
	drum_note 9, 1
	drum_note 9, 1
	drum_note 1, 1
	drum_note 9, 1
	drum_note 9, 1
	drum_note 9, 1
	drum_note 1, 1
	drum_note 9, 1
	drum_note 9, 1
	drum_note 9, 1
	drum_note 1, 1
	drum_note 9, 1
	drum_note 9, 1
	drum_note 1, 1
	drum_note 1, 1
	drum_note 9, 1
	drum_note 9, 1
	drum_note 9, 1
	drum_note 1, 1
	drum_note 9, 1
	drum_note 9, 1
	drum_note 9, 1
	drum_note 1, 1
	drum_note 9, 1
	drum_note 9, 1
	drum_note 9, 1
	drum_note 1, 1
	drum_note 9, 1
	drum_note 9, 1
	drum_note 9, 1
	drum_note 1, 1
	drum_note 9, 1
	drum_note 9, 1
	drum_note 9, 1
	drum_note 1, 1
	drum_note 9, 1
	drum_note 9, 1
	drum_note 9, 1
	drum_note 1, 1
	drum_note 9, 1
	drum_note 9, 1
	drum_note 9, 1
	drum_note 1, 1
	drum_note 9, 1
	drum_note 1, 1
	drum_note 9, 1
	drum_note 1, 1
	drum_note 9, 1
	drum_note 9, 1
	drum_note 9, 1
	drum_note 1, 1
	drum_note 9, 1
	drum_note 9, 1
	drum_note 9, 1
	drum_note 1, 1
	drum_note 9, 1
	drum_note 9, 1
	drum_note 9, 1
	drum_note 1, 1
	drum_note 9, 1
	drum_note 9, 1
	drum_note 9, 1
	drum_note 1, 1
	drum_note 9, 1
	drum_note 9, 1
	drum_note 9, 1
	drum_note 1, 1
	drum_note 9, 1
	drum_note 9, 1
	drum_note 9, 1
	drum_note 1, 1
	drum_note 9, 1
	drum_note 9, 1
	drum_note 9, 1
	drum_note 1, 1
	drum_note 9, 1
	drum_note 9, 1
	drum_note 1, 1
	drum_note 1, 1
	drum_note 9, 1
	drum_note 9, 1
	drum_note 1, 1
	drum_note 9, 1
	drum_note 9, 1
	drum_note 1, 1
	drum_note 9, 1
	drum_note 9, 1
	drum_note 1, 1
	drum_note 9, 1
	drum_note 9, 1
	drum_note 1, 1
	drum_note 9, 1
	drum_note 9, 1
	drum_note 1, 1
	drum_note 1, 1
	drum_note 9, 1
	drum_note 9, 1
	drum_note 9, 1
	drum_note 1, 1
	drum_note 9, 1
	drum_note 9, 1
	drum_note 9, 1
	drum_note 1, 1
	drum_note 9, 1
	drum_note 9, 1
	drum_note 9, 1
	drum_note 1, 1
	drum_note 9, 1
	drum_note 1, 1
	drum_note 9, 1
	drum_note 1, 1
	drum_note 9, 1
	drum_note 11, 2
	drum_note 1, 1
	drum_note 9, 1
	drum_note 11, 2
	drum_note 1, 1
	drum_note 9, 1
	drum_note 11, 2
	drum_note 1, 1
	drum_note 9, 1
	drum_note 11, 2
	drum_note 1, 1
	drum_note 9, 1
	drum_note 11, 2
	drum_note 1, 1
	drum_note 9, 1
	drum_note 11, 2
	drum_note 1, 1
	drum_note 9, 1
	drum_note 11, 2
	drum_note 1, 1
	drum_note 9, 1
	drum_note 1, 1
	drum_note 3, 1
	drum_note 1, 1
	drum_note 9, 1
	drum_note 11, 2
	drum_note 1, 1
	drum_note 9, 1
	drum_note 11, 2
	drum_note 1, 1
	drum_note 9, 1
	drum_note 11, 2
	drum_note 1, 1
	drum_note 9, 1
	drum_note 11, 2
	drum_note 1, 1
	drum_note 9, 1
	drum_note 11, 2
	drum_note 1, 1
	drum_note 9, 1
	drum_note 11, 2
	drum_note 1, 1
	drum_note 9, 1
	drum_note 11, 2
	drum_note 1, 1
	drum_note 9, 1
	drum_note 11, 2
	drum_note 1, 1
	drum_note 9, 1
	drum_note 11, 2
	drum_note 1, 1
	drum_note 9, 1
	drum_note 11, 2
	drum_note 1, 1
	drum_note 9, 1
	drum_note 11, 2
	drum_note 1, 1
	drum_note 9, 1
	drum_note 11, 2
	drum_note 1, 1
	drum_note 9, 1
	drum_note 11, 2
	drum_note 1, 1
	drum_note 9, 1
	drum_note 11, 2
	drum_note 1, 1
	drum_note 9, 1
	drum_note 11, 2
	drum_note 1, 1
	drum_note 9, 1
	drum_note 11, 1
	drum_note 1, 1
	drum_note 1, 1
	drum_note 9, 1
	drum_note 11, 2
	drum_note 1, 1
	drum_note 9, 1
	drum_note 11, 2
	drum_note 1, 1
	drum_note 9, 1
	drum_note 11, 2
	drum_note 1, 1
	drum_note 9, 1
	drum_note 11, 2
	drum_note 1, 1
	drum_note 9, 1
	drum_note 11, 2
	drum_note 1, 1
	drum_note 9, 1
	drum_note 11, 2
	drum_note 1, 1
	drum_note 9, 1
	drum_note 11, 2
	drum_note 1, 1
	drum_note 9, 1
	drum_note 1, 1
	drum_note 3, 1
	drum_note 1, 1
	drum_note 9, 1
	drum_note 11, 2
	drum_note 1, 1
	drum_note 9, 1
	drum_note 11, 2
	drum_note 1, 1
	drum_note 9, 1
	drum_note 11, 2
	drum_note 1, 1
	drum_note 9, 1
	drum_note 11, 2
	drum_note 1, 1
	drum_note 9, 1
	drum_note 11, 2
	drum_note 1, 1
	drum_note 9, 1
	drum_note 11, 2
	drum_note 1, 1
	drum_note 9, 1
	drum_note 11, 2
	drum_note 1, 1
	drum_note 9, 1
	drum_note 1, 2
	drum_note 1, 1
	drum_note 9, 1
	drum_note 9, 1
	drum_note 9, 1
	drum_note 1, 1
	drum_note 9, 1
	drum_note 9, 1
	drum_note 9, 1
	drum_note 1, 1
	drum_note 9, 1
	drum_note 9, 1
	drum_note 9, 1
	drum_note 1, 1
	drum_note 9, 1
	drum_note 9, 1
	drum_note 9, 1
	drum_note 1, 1
	drum_note 9, 1
	drum_note 9, 1
	drum_note 9, 1
	drum_note 1, 1
	drum_note 9, 1
	drum_note 9, 1
	drum_note 9, 1
	drum_note 1, 1
	drum_note 9, 1
	drum_note 9, 1
	drum_note 9, 1
	drum_note 1, 1
	drum_note 9, 1
	drum_note 9, 1
	drum_note 9, 1
	drum_note 1, 1
	drum_note 9, 1
	drum_note 9, 1
	drum_note 9, 1
	drum_note 1, 1
	drum_note 9, 1
	drum_note 9, 1
	drum_note 9, 1
	drum_note 1, 1
	drum_note 9, 1
	drum_note 9, 1
	drum_note 9, 1
	drum_note 1, 1
	drum_note 9, 1
	drum_note 9, 1
	drum_note 9, 1
	drum_note 1, 1
	drum_note 9, 1
	drum_note 9, 1
	drum_note 9, 1
	drum_note 1, 1
	drum_note 9, 1
	drum_note 9, 1
	drum_note 9, 1
	drum_note 1, 1
	drum_note 9, 1
	drum_note 9, 1
	drum_note 9, 1
	drum_note 1, 1
	drum_note 9, 1
	drum_note 9, 1
	drum_note 1, 1
	drum_note 1, 1
	drum_note 9, 1
	drum_note 9, 1
	drum_note 9, 1
	drum_note 1, 1
	drum_note 9, 1
	drum_note 9, 1
	drum_note 9, 1
	drum_note 1, 1
	drum_note 9, 1
	drum_note 9, 1
	drum_note 9, 1
	drum_note 1, 1
	drum_note 9, 1
	drum_note 9, 1
	drum_note 9, 1
	drum_note 1, 1
	drum_note 9, 1
	drum_note 9, 1
	drum_note 9, 1
	drum_note 1, 1
	drum_note 9, 1
	drum_note 9, 1
	drum_note 9, 1
	drum_note 1, 1
	drum_note 9, 1
	drum_note 9, 1
	drum_note 9, 1
	drum_note 1, 1
	drum_note 9, 1
	drum_note 1, 1
	drum_note 9, 1
	drum_note 1, 1
	drum_note 9, 1
	drum_note 9, 1
	drum_note 9, 1
	drum_note 1, 1
	drum_note 9, 1
	drum_note 9, 1
	drum_note 9, 1
	drum_note 12, 1
	drum_note 9, 1
	drum_note 9, 1
	drum_note 9, 1
	drum_note 1, 1
	drum_note 9, 1
	drum_note 9, 1
	drum_note 9, 1
	drum_note 1, 1
	drum_note 9, 1
	drum_note 9, 1
	drum_note 9, 1
	drum_note 1, 1
	drum_note 9, 1
	drum_note 9, 1
	drum_note 9, 1
	drum_note 1, 1
	drum_note 9, 1
	drum_note 9, 1
	drum_note 9, 1
	drum_note 1, 1
	drum_note 9, 1
	drum_note 9, 1
	drum_note 1, 1
	drum_note 1, 1
	drum_note 9, 1
	drum_note 9, 1
	drum_note 9, 1
	drum_note 1, 1
	drum_note 9, 1
	drum_note 9, 1
	drum_note 9, 1
	drum_note 1, 1
	drum_note 9, 1
	drum_note 9, 1
	drum_note 9, 1
	drum_note 1, 1
	drum_note 9, 1
	drum_note 9, 1
	drum_note 9, 1
	drum_note 1, 1
	drum_note 9, 1
	drum_note 9, 1
	drum_note 9, 1
	drum_note 1, 1
	drum_note 9, 1
	drum_note 9, 1
	drum_note 9, 1
	drum_note 1, 1
	drum_note 9, 1
	drum_note 9, 1
	drum_note 9, 1
	drum_note 1, 1
	drum_note 9, 1
	drum_note 9, 1
	drum_note 1, 1
	drum_note 1, 1
	drum_note 9, 1
	drum_note 9, 1
	drum_note 9, 1
	drum_note 1, 1
	drum_note 9, 1
	drum_note 9, 1
	drum_note 9, 1
	drum_note 1, 1
	drum_note 9, 1
	drum_note 9, 1
	drum_note 9, 1
	drum_note 1, 1
	drum_note 9, 1
	drum_note 9, 1
	drum_note 9, 1
	drum_note 1, 1
	drum_note 9, 1
	drum_note 9, 1
	drum_note 9, 1
	drum_note 1, 1
	drum_note 9, 1
	drum_note 9, 1
	drum_note 9, 1
	drum_note 1, 1
	drum_note 9, 1
	drum_note 9, 1
	drum_note 9, 1
	drum_note 1, 1
	drum_note 9, 1
	drum_note 1, 1
	drum_note 9, 1
	drum_note 1, 1
	drum_note 9, 1
	drum_note 9, 1
	drum_note 9, 1
	drum_note 1, 1
	drum_note 9, 1
	drum_note 9, 1
	drum_note 9, 1
	drum_note 1, 1
	drum_note 9, 1
	drum_note 9, 1
	drum_note 9, 1
	drum_note 1, 1
	drum_note 9, 1
	drum_note 9, 1
	drum_note 9, 1
	drum_note 1, 1
	drum_note 9, 1
	drum_note 9, 1
	drum_note 9, 1
	drum_note 1, 1
	drum_note 9, 1
	drum_note 9, 1
	drum_note 9, 1
	drum_note 1, 1
	drum_note 9, 1
	drum_note 9, 1
	drum_note 9, 1
	drum_note 1, 1
	drum_note 9, 1
	drum_note 9, 1
	drum_note 1, 1
	drum_note 1, 1
	drum_note 9, 1
	drum_note 9, 1
	drum_note 1, 1
	drum_note 9, 1
	drum_note 9, 1
	drum_note 1, 1
	drum_note 9, 1
	drum_note 9, 1
	drum_note 1, 1
	drum_note 9, 1
	drum_note 9, 1
	drum_note 1, 1
	drum_note 9, 1
	drum_note 9, 1
	drum_note 1, 1
	drum_note 1, 1
	drum_note 9, 1
	drum_note 9, 1
	drum_note 9, 1
	drum_note 1, 1
	drum_note 9, 1
	drum_note 9, 1
	drum_note 9, 1
	drum_note 1, 1
	drum_note 9, 1
	drum_note 9, 1
	drum_note 9, 1
	drum_note 1, 1
	drum_note 9, 1
	drum_note 1, 1
	drum_note 9, 1
	sound_loop 0, .mainloop
