Music_Miserite:
	channel_count 4
	channel 1, Music_Miserite_Ch1
	channel 2, Music_Miserite_Ch2
	channel 3, Music_Miserite_Ch3
	channel 4, Music_Miserite_Ch4

Music_Miserite_Ch1:
	volume 7, 7
	duty_cycle 1
	note_type 12, 10, 7
	tempo 165
.mainloop:
	rest 16
	rest 16
	rest 16
	rest 16
	octave 4
	volume_envelope 12, 7
	note A_, 8
	octave 5
	note A_, 4
	note G_, 4
	note F_, 8
	note E_, 4
	note D_, 4
	note E_, 16
	note E_, 16
	note D_, 8
	note E_, 4
	note D_, 4
	note C_, 8
	octave 4
	note B_, 4
	octave 5
	note C_, 4
	octave 4
	note A_, 16
	note A_, 12
	note A_, 4
	note G_, 12
	note E_, 4
	note A_, 8
	note B_, 4
	octave 5
	note C_, 4
	note D_, 8
	note C_, 4
	note D_, 4
	octave 4
	note B_, 8
	octave 5
	note F_, 8
	note E_, 16
	note E_, 4
	note D_, 4
	note C_, 4
	octave 4
	note B_, 4
	note A_, 8
	octave 5
	note A_, 4
	note G_, 4
	note F_, 8
	note E_, 4
	note D_, 4
	note E_, 16
	note E_, 16
	note D_, 8
	note E_, 4
	note D_, 4
	note C_, 8
	octave 4
	note B_, 4
	octave 5
	note C_, 4
	octave 4
	note A_, 8
	rest 3
	sound_loop 0, .mainloop

Music_Miserite_Ch2:
	duty_cycle 1
	note_type 12, 10, 7
.mainloop:
	octave 1
	volume_envelope 11, 7
	note A_, 14
	note E_, 2
	note A_, 15
	rest 1
	note A_, 14
	note E_, 2
	note A_, 15
	rest 1
	note A_, 15
	rest 1
	note A_, 15
	rest 1
	note A_, 15
	rest 1
	note A_, 15
	rest 1
	note D_, 15
	rest 1
	note D_, 15
	rest 1
	note A_, 15
	rest 1
	note A_, 15
	rest 1
	note G_, 15
	rest 1
	note F_, 15
	rest 1
	note D_, 15
	rest 1
	note F_, 15
	rest 1
	note E_, 15
	rest 1
	note E_, 15
	rest 1
	note A_, 15
	rest 1
	note A_, 15
	rest 1
	note A_, 15
	rest 1
	note A_, 15
	rest 1
	note D_, 15
	rest 1
	note D_, 15
	rest 1
	note A_, 8
	rest 3
	sound_loop 0, .mainloop

Music_Miserite_Ch3:
	note_type 12, 1, 0
.mainloop:
	octave 4
	volume_envelope 1, 0
	note E_, 4
	note A_, 4
	octave 5
	note C_, 6
	rest 2
	note E_, 2
	rest 2
	note C_, 4
	octave 4
	note A_, 6
	note F_, 2
	note E_, 2
	rest 2
	note A_, 4
	octave 5
	note C_, 6
	rest 2
	note E_, 2
	rest 2
	note C_, 4
	volume_envelope 1, 0
	note A_, 6
	rest 4
	octave 4
	rest 2
	note E_, 1
	rest 1
	octave 5
	note C_, 10
	rest 2
	octave 4
	note A_, 2
	note E_, 1
	rest 1
	octave 5
	note C_, 10
	rest 2
	octave 4
	note A_, 2
	note E_, 1
	rest 1
	octave 5
	note C_, 10
	rest 2
	octave 4
	note A_, 2
	note E_, 1
	rest 1
	octave 5
	note C_, 10
	rest 2
	note D_, 2
	octave 4
	note A_, 1
	rest 1
	octave 5
	note F_, 10
	rest 2
	note D_, 2
	octave 4
	note A_, 1
	rest 1
	octave 5
	note F_, 10
	rest 2
	octave 4
	note A_, 2
	note E_, 1
	rest 1
	octave 5
	note C_, 10
	rest 2
	octave 4
	note A_, 2
	note E_, 1
	rest 1
	octave 5
	note C_, 10
	rest 2
	octave 4
	note G_, 2
	note D_, 1
	rest 1
	note B_, 10
	rest 2
	note F_, 2
	note C_, 1
	rest 1
	note A_, 10
	rest 2
	octave 5
	note D_, 2
	octave 4
	note A_, 1
	rest 1
	octave 5
	note F_, 10
	rest 2
	note D_, 2
	octave 4
	note A_, 1
	rest 1
	octave 5
	note F_, 10
	rest 2
	note E_, 2
	octave 4
	note B_, 1
	rest 1
	octave 5
	note G_, 10
	rest 2
	note E_, 2
	octave 4
	note B_, 1
	rest 1
	octave 5
	note G_, 10
	rest 2
	octave 4
	note A_, 2
	note E_, 1
	rest 1
	octave 5
	note C_, 10
	rest 2
	octave 4
	note A_, 2
	note E_, 1
	rest 1
	octave 5
	note C_, 10
	rest 2
	octave 4
	note A_, 2
	note E_, 1
	rest 1
	octave 5
	note C_, 10
	rest 2
	octave 4
	note A_, 2
	note E_, 1
	rest 1
	octave 5
	note C_, 10
	rest 2
	note D_, 2
	octave 4
	note A_, 1
	rest 1
	octave 5
	note F_, 10
	rest 2
	note D_, 2
	octave 4
	note A_, 1
	rest 1
	octave 5
	note F_, 10
	rest 4
	rest 7
	sound_loop 0, .mainloop

Music_Miserite_Ch4:
	toggle_noise 7
	drum_speed 12
.mainloop:
	rest 8
	drum_note 8, 16
	drum_note 8, 16
	drum_note 8, 16
	drum_note 8, 16
	drum_note 8, 16
	drum_note 8, 16
	drum_note 8, 16
	drum_note 8, 16
	drum_note 8, 16
	drum_note 8, 16
	drum_note 8, 16
	drum_note 8, 16
	drum_note 8, 16
	drum_note 8, 16
	drum_note 8, 16
	drum_note 8, 16
	drum_note 8, 16
	drum_note 8, 16
	drum_note 8, 16
	drum_note 8, 16
	drum_note 8, 16
	drum_note 8, 16
	drum_note 8, 16
	drum_note 8, 14
	rest 5
	sound_loop 0, .mainloop
