;Coverted using MIDI2ASM
;Code by TriteHexagon
;Version 5.2.0 (16-Nov-2022)
;Visit github.com/TriteHexagon/Midi2ASM-Converter for up-to-date versions.

; ============================================================================================================

Music_Placeholder:
	channel_count 2
	channel 1, Music_Placeholder_Ch1
	channel 2, Music_Placeholder_Ch2

Music_Placeholder_Ch1:
	volume 7, 7
	duty_cycle 2
	note_type 12, 10, 7
	tempo 116
;Bar 1
	octave 2
	volume_envelope 12, 7
	note C#, 1
	rest 1
	note A_, 1
	rest 1
	note G_, 1
	note A_, 1
	rest 1
	note E_, 1
	rest 1
	note F_, 1
	rest 1
	note A_, 1
	note G_, 1
	note F_, 1
	note E_, 1
	note D_, 2
;Bar 2
	note A_, 1
	rest 1
	note G_, 1
	note A_, 1
	rest 1
	note E_, 1
	rest 1
	note F_, 1
	rest 1
	note A_, 1
	note C_, 1
	rest 1
	note C#, 1
	rest 1
	note D_, 1
;Bar 3
	rest 1
	note A_, 1
	rest 1
	note G_, 1
	note A_, 1
	rest 1
	note E_, 1
	rest 1
	note F_, 1
	rest 1
	note A_, 1
	note G_, 1
	note F_, 1
	note E_, 1
	note D_, 2 ; WARNING: Auto-Sync says: Rounded up!
;Bar 4
	note A_, 1 ; WARNING: Auto-Sync says: Rounded up!
	rest 1
	note G_, 1 ; WARNING: Auto-Sync says: Rounded up!
	note A_, 1
	rest 1
	note E_, 1
	rest 1
	note F_, 1
	rest 1
	note A_, 1
	note C_, 1
	rest 1
	note C#, 1
	rest 1
	note D_, 1
	rest 1
;Bar 5
	note A_, 1
	rest 1
	note G_, 1
	note A_, 1
	rest 1
	note E_, 1
	rest 1
	note F_, 1
	rest 1
	note A_, 1
	note G_, 1
	note F_, 1
	note E_, 1
	note D_, 1
	rest 2
;Bar 6
	note A_, 1
	rest 1
	note G_, 1
	note A_, 1
	rest 1
	note E_, 1
	rest 1
	note F_, 1
	rest 1
	note A_, 1
	note C_, 1
	rest 1
	note C#, 1
	rest 1
	note D_, 1
	rest 1
;Bar 7
	note A_, 1
	rest 1
	note G_, 1
	note A_, 1
	rest 1
	note E_, 1
	rest 1
	note F_, 1
	rest 1
	note A_, 1
	note G_, 1
	note F_, 1
	note E_, 1
	note D_, 2
	rest 1
;Bar 8
	note A_, 1
	rest 1
	note G_, 1
	note A_, 1
	rest 1
	octave 3
	note C_, 1
	rest 1
	note C_, 1
	octave 2
	note A_, 2
	octave 3
	;note C_, 0 | WARNING: Rounded down to 0
	note E_, 2
	note C_, 1
	note C#, 1
	octave 2
	;note A_, 0 | WARNING: Rounded down to 0
	octave 3
	note D_, 1
	rest 1
;Bar 9
	;note F_, 0 | WARNING: Rounded down to 0
	note A_, 1
	rest 1
	note G_, 1
	note A_, 1
	rest 1
	;note C_, 0 | WARNING: Rounded down to 0
	note E_, 1
	rest 1
	;note D_, 0 | WARNING: Rounded down to 0
	note F_, 1
	rest 1
	note A_, 1
	note G_, 1
	note F_, 1
	note E_, 1
	note D_, 1
	rest 2
;Bar 10
	;note F_, 0 | WARNING: Rounded down to 0
	note A_, 1
	rest 1
	note G_, 1
	note A_, 1
	rest 1
	;note C_, 0 | WARNING: Rounded down to 0
	note E_, 2
	;note D_, 0 | WARNING: Rounded down to 0
	note F_, 1
	note A_, 1
	rest 1
	octave 2
	;note A_, 0 | WARNING: Rounded down to 0
	octave 3
	note C_, 1
	rest 1
	octave 2
	;note A_, 0 | WARNING: Rounded down to 0
	octave 3
	note C#, 1
	rest 1
	octave 2
	;note A_, 0 | WARNING: Rounded down to 0
	octave 3
	note D_, 1
	rest 1
;Bar 11
	;note F_, 0 | WARNING: Rounded down to 0
	note A_, 1
	rest 1
	note G_, 1
	note A_, 1
	rest 1
	;note C_, 0 | WARNING: Rounded down to 0
	note E_, 1
	rest 1
	;note D_, 0 | WARNING: Rounded down to 0
	note F_, 1
	rest 1
	note A_, 1
	note G_, 1
	note F_, 1
	note E_, 1
	note D_, 1
	rest 2
;Bar 12
	;note F_, 0 | WARNING: Rounded down to 0
	note A_, 1
	rest 1
	note G_, 1
	note A_, 1
	rest 1
	;note C_, 0 | WARNING: Rounded down to 0
	note E_, 2
	;note D_, 0 | WARNING: Rounded down to 0
	note F_, 1
	note A_, 1
	rest 1
	octave 2
	;note A_, 0 | WARNING: Rounded down to 0
	octave 3
	note C_, 1
	rest 1
	octave 2
	;note A_, 0 | WARNING: Rounded down to 0
	octave 3
	note C#, 1
	rest 1
	octave 2
	;note A_, 0 | WARNING: Rounded down to 0
	octave 3
	note D_, 1
	rest 1
;Bar 13
	;note F_, 0 | WARNING: Rounded down to 0
	note A_, 1
	rest 1
	note G_, 1
	note A_, 1
	rest 1
	;note C_, 0 | WARNING: Rounded down to 0
	note E_, 1
	rest 1
	;note D_, 0 | WARNING: Rounded down to 0
	note F_, 1 ; WARNING: Auto-Sync says: Rounded up!
	rest 1
	note A_, 1
	note G_, 1
	note F_, 1
	note E_, 1
	note D_, 1
	rest 2
;Bar 14
	;note F_, 0 | WARNING: Rounded down to 0
	note A_, 1
	rest 1
	note G_, 1
	note A_, 1
	rest 1
	;note C_, 0 | WARNING: Rounded down to 0
	note E_, 2
	;note D_, 0 | WARNING: Rounded down to 0
	note F_, 1
	note A_, 1
	rest 1
	octave 2
	;note A_, 0 | WARNING: Rounded down to 0
	octave 3
	note C_, 1
	rest 1
	octave 2
	;note A_, 0 | WARNING: Rounded down to 0
	octave 3
	note C#, 1
	rest 1
	octave 2
	;note A_, 0 | WARNING: Rounded down to 0
	octave 3
	note D_, 1
	rest 1
;Bar 15
	;note F_, 0 | WARNING: Rounded down to 0
	note A_, 1
	rest 1
	note G_, 1
	note A_, 1
	rest 1
	;note C_, 0 | WARNING: Rounded down to 0
	note E_, 1
	rest 1
	;note D_, 0 | WARNING: Rounded down to 0
	note F_, 1
	rest 1
	note A_, 1
	note G_, 1
	note F_, 1
	note E_, 1
	note D_, 1
	octave 2
	note A_, 1
	note B_, 1
;Bar 16
	octave 3
	;note C_, 0 | WARNING: Rounded down to 0
	note D_, 1
	;note E_, 0 | WARNING: Rounded down to 0
	note F_, 1
	;note G_, 0 | WARNING: Rounded down to 0
	note A_, 1
	;note B_, 0 | WARNING: Rounded down to 0
	octave 4
	note C_, 1
	;note D_, 0 | WARNING: Rounded down to 0
	note E_, 1
	;note F_, 0 | WARNING: Rounded down to 0
	note G_, 1
	;note A_, 0 | WARNING: Rounded down to 0
	note B_, 1
	octave 5
	;note C_, 0 | WARNING: Rounded down to 0
	note D_, 1
	;note E_, 0 | WARNING: Rounded down to 0
	note F_, 1
	;note G_, 0 | WARNING: Rounded down to 0
	note A_, 1
	;note B_, 0 | WARNING: Rounded down to 0
	octave 6
	note C_, 1
	;note D_, 0 | WARNING: Rounded down to 0
	rest 3
	octave 3
	;note F_, 0 | WARNING: Rounded down to 0
	note A_, 2
;Bar 17
	octave 4
	;note D_, 0 | WARNING: Rounded down to 0
	note F_, 2
	note E_, 1
	note F_, 1
	note E_, 2
	;note C_, 0 | WARNING: Rounded down to 0
	note G_, 2
	note F_, 2
	note E_, 1
	note F_, 1
	note E_, 1
	note C_, 1
	note D_, 2
;Bar 18
	;note F_, 0 | WARNING: Rounded down to 0
	note A_, 2
	note G_, 1
	note A_, 1
	note G_, 1
	note A_, 1
	;note F_, 0 | WARNING: Rounded down to 0
	octave 5
	note C_, 2
	octave 4
	note A_, 2
	note G_, 2
	note A_, 2
	octave 3
	;note F_, 0 | WARNING: Rounded down to 0
	note A_, 2
;Bar 19
	octave 4
	;note D_, 0 | WARNING: Rounded down to 0
	note F_, 2
	note E_, 1
	note F_, 1
	note E_, 2
	;note C_, 0 | WARNING: Rounded down to 0
	note G_, 2
	note F_, 2
	note E_, 1
	note F_, 1
	note E_, 1
	note C_, 1
	note D_, 2
;Bar 20
	;note F_, 0 | WARNING: Rounded down to 0
	note A_, 2
	note G_, 1
	note A_, 1
	note G_, 1
	note A_, 1 ; WARNING: Auto-Sync says: Rounded up!
	;note F_, 0 | WARNING: Rounded down to 0
	octave 5
	note C#, 2 ; WARNING: Auto-Sync says: Rounded up!
	octave 4
	note A_, 2 ; WARNING: Auto-Sync says: Rounded up!
	note G_, 2
	note A_, 2
	octave 3
	;note F_, 0 | WARNING: Rounded down to 0
	note A_, 2
;Bar 21
	octave 4
	;note D_, 0 | WARNING: Rounded down to 0
	note F_, 2
	note E_, 1
	note F_, 1
	note E_, 2
	;note C_, 0 | WARNING: Rounded down to 0
	note G_, 2
	note F_, 2
	note E_, 1
	note F_, 1
	note E_, 1
	note C_, 1
	note D_, 2
;Bar 22
	;note F_, 0 | WARNING: Rounded down to 0
	note A_, 2
	note G_, 1
	note A_, 1
	note G_, 1
	note A_, 1
	;note F_, 0 | WARNING: Rounded down to 0
	octave 5
	note C_, 2
	octave 4
	note A_, 2
	note F_, 2
	note F#, 2
	octave 3
	;note G_, 0 | WARNING: Rounded down to 0
	octave 4
	;note D_, 0 | WARNING: Rounded down to 0
	note G_, 2
;Bar 23
	octave 3
	note A#, 1
	octave 4
	note D_, 1
	octave 3
	note A#, 2
	octave 4
	;note D_, 0 | WARNING: Rounded down to 0
	note G_, 2
	;note E_, 0 | WARNING: Rounded down to 0
	note A_, 2
	octave 3
	note A_, 1
	octave 4
	;note E_, 0 | WARNING: Rounded down to 0
	note A_, 1
	octave 3
	note A_, 2
	octave 4
	;note E_, 0 | WARNING: Rounded down to 0
	note A_, 2
	;note F_, 0 | WARNING: Rounded down to 0
	note A#, 2
;Bar 24
	note D_, 2
	;note F_, 0 | WARNING: Rounded down to 0
	note B_, 2
	note D_, 2
	;note E_, 0 | WARNING: Rounded down to 0
	;note G_, 0 | WARNING: Rounded down to 0
	octave 5
	note C_, 7
	rest 1
	octave 3
	;note F_, 0 | WARNING: Rounded down to 0
	note A_, 2
;Bar 25
	octave 4
	;note D_, 0 | WARNING: Rounded down to 0
	note F_, 2
	note E_, 1
	note F_, 1
	note E_, 2
	;note C_, 0 | WARNING: Rounded down to 0
	note G_, 2
	note F_, 2
	note E_, 1
	note F_, 1
	note E_, 1
	note C_, 1
	note D_, 2
;Bar 26
	;note F_, 0 | WARNING: Rounded down to 0
	note A_, 2
	note G_, 1
	note A_, 1
	note G_, 1
	note A_, 1
	;note F_, 0 | WARNING: Rounded down to 0
	octave 5
	note C_, 2
	octave 4
	note A_, 2
	note G_, 2
	note A_, 2
	octave 3
	;note F_, 0 | WARNING: Rounded down to 0
	note A_, 2
;Bar 27
	octave 4
	;note D_, 0 | WARNING: Rounded down to 0
	note F_, 2
	note E_, 1
	note F_, 1
	note E_, 2
	;note C_, 0 | WARNING: Rounded down to 0
	note G_, 2
	note F_, 2
	note E_, 1
	note F_, 1
	note E_, 1
	note C_, 1
	note D_, 2
;Bar 28
	;note F_, 0 | WARNING: Rounded down to 0
	note A_, 2
	note G_, 1
	note A_, 1
	note G_, 1
	note A_, 1
	;note F_, 0 | WARNING: Rounded down to 0
	octave 5
	note C#, 2
	octave 4
	note A_, 2
	note G_, 2
	note A_, 2
	octave 3
	;note F_, 0 | WARNING: Rounded down to 0
	note A_, 2
;Bar 29
	octave 4
	;note D_, 0 | WARNING: Rounded down to 0
	note F_, 2
	note E_, 1
	note F_, 1
	note E_, 2
	;note C_, 0 | WARNING: Rounded down to 0
	note G_, 2
	note F_, 2
	note E_, 1
	note F_, 1
	note E_, 1
	note C_, 1
	note D_, 2
;Bar 30
	;note F_, 0 | WARNING: Rounded down to 0
	note A_, 2
	note G_, 1
	note A_, 1
	note G_, 1
	note A_, 1
	;note F_, 0 | WARNING: Rounded down to 0
	octave 5
	note C_, 2
	octave 4
	note A_, 2
	note F_, 2
	note F#, 2
	octave 3
	;note G_, 0 | WARNING: Rounded down to 0
	octave 4
	;note D_, 0 | WARNING: Rounded down to 0
	note G_, 2
;Bar 31
	octave 3
	note A#, 1
	octave 4
	note D_, 1
	octave 3
	note A#, 2
	octave 4
	;note D_, 0 | WARNING: Rounded down to 0
	note G_, 2
	;note C_, 0 | WARNING: Rounded down to 0
	;note E_, 0 | WARNING: Rounded down to 0
	note A_, 2
	note G_, 2
	note F_, 2
	note E_, 2
	octave 3
	;note F_, 0 | WARNING: Rounded down to 0
	;note A_, 0 | WARNING: Rounded down to 0
	octave 4
	note D_, 13
;Bar 32
	rest 3
	octave 2
	note A_, 2
;Bar 33
	octave 3
	note F_, 2
	note E_, 1
	note F_, 1
	note E_, 2
	note G_, 2
	note F_, 2
	note E_, 1
	note F_, 1
	note E_, 1
	note C_, 1
	note D_, 2
;Bar 34
	note A_, 2
	note G_, 1
	note A_, 1
	note G_, 1
	note A_, 1
	octave 4
	note C_, 2
	octave 3
	note A_, 2
	note G_, 2
	note A_, 2
	octave 2
	note A_, 2
;Bar 35
	octave 3
	note F_, 2
	note E_, 1
	note F_, 1
	note E_, 2
	note G_, 2
	note F_, 2
	note E_, 1
	note F_, 1
	note E_, 1
	note C_, 1
	note D_, 2
;Bar 36
	note A_, 2
	note G_, 1
	note A_, 1
	note G_, 1
	note A_, 1
	octave 4
	note C_, 2
	octave 3
	note A_, 2
	note G_, 2
	note E_, 2
	note F_, 2
;Bar 37
	note E_, 1
	note F_, 1
	note E_, 2
	note C_, 2
	note D_, 2
	note C_, 2
	octave 2
	note G_, 2
	note E_, 2
	note D_, 2
;Bar 38
	note E_, 2
	note F_, 2
	note G_, 2
	note A_, 2 ; WARNING: Auto-Sync says: Rounded up!
	octave 3
	note C#, 2
	note D_, 2
	note E_, 2
	octave 2
	;note A_, 0 | WARNING: Rounded down to 0
	octave 3
	note C#, 2
;Bar 39
	note A_, 2
	note G_, 1
	note A_, 1
	note G_, 1
	note A_, 1
	;note E_, 0 | WARNING: Rounded down to 0
	octave 4
	note C#, 2
	octave 3
	note A_, 2
	note G_, 1
	note A_, 1
	note G_, 2
	octave 2
	;note A_, 0 | WARNING: Rounded down to 0
	octave 3
	note C#, 2
;Bar 40
	octave 4
	note C#, 2
	octave 3
	note A_, 1
	octave 4
	note D_, 1
	octave 3
	note A_, 1
	octave 4
	note D_, 1
	note E_, 2
	octave 3
	note G_, 2
	note F_, 2
	note E_, 2
	octave 2
	note A_, 2
;Bar 41
	octave 3
	note F_, 2
	note E_, 1
	note F_, 1
	note E_, 2
	note G_, 2
	note F_, 2
	note E_, 1
	note F_, 1
	note E_, 1
	note C_, 1
	note D_, 2
;Bar 42
	note A_, 2
	note G_, 1
	note A_, 1
	note G_, 1
	note A_, 1
	octave 4
	note C_, 2
	octave 3
	note A_, 2
	note G_, 2
	note A_, 2
	octave 2
	note A_, 2
;Bar 43
	octave 3
	note F_, 2
	note E_, 1
	note F_, 1
	note E_, 2
	note G_, 2
	note F_, 2
	note E_, 1
	note F_, 1
	note E_, 1
	note C_, 1
	note D_, 2
;Bar 44
	note A_, 2
	note G_, 1
	note A_, 1
	note G_, 1
	note A_, 1
	octave 4
	note C_, 2
	octave 3
	note A_, 2
	note G_, 2
	note E_, 2
	note F_, 2
;Bar 45
	note E_, 1
	note F_, 1
	note E_, 2
	note C_, 2
	note D_, 2
	note C_, 2
	octave 2
	note G_, 2
	note E_, 2
	note D_, 2
;Bar 46
	note E_, 2
	note F_, 2
	note G_, 2
	note A_, 2
	octave 3
	note C#, 2
	note D_, 2
	note E_, 2
	octave 2
	;note A_, 0 | WARNING: Rounded down to 0
	octave 3
	note C#, 2
;Bar 47
	note A_, 2
	note G_, 1
	note A_, 1
	note G_, 1
	note A_, 1
	;note E_, 0 | WARNING: Rounded down to 0
	octave 4
	note C#, 2
	octave 3
	note A_, 2
	note G_, 1
	note A_, 1
	note G_, 2
	octave 2
	;note A_, 0 | WARNING: Rounded down to 0
	octave 3
	note C#, 2
;Bar 48
	octave 4
	note C#, 2
	octave 3
	note A_, 1
	octave 4
	note D_, 1
	octave 3
	note A_, 1
	octave 4
	note D_, 1
	note E_, 2
	note D_, 2
	octave 3
	;note A_, 0 | WARNING: Rounded down to 0
	octave 4
	note A_, 4
	note D_, 4
;Bar 49
	note F_, 4
	note E_, 4
	note D_, 2
	note C_, 6
;Bar 50
	note A_, 4
	note E_, 4
	note C_, 2
	note C#, 2
	note D_, 4
;Bar 51
	note F_, 4
	note E_, 4
	note D_, 2
	note C_, 6
;Bar 52
	note A_, 4
	note E_, 2
	note D_, 2
	note C_, 4
	note D_, 4
;Bar 53
	note F_, 4
	note E_, 4
	note D_, 2
	note C_, 6
;Bar 54
	note A_, 4
	note E_, 4
	note C_, 2
	note C#, 2
	note D_, 4
;Bar 55
	note F_, 4
	note E_, 4
	note F_, 2
	note G_, 6
;Bar 56
	note F_, 4
	note E_, 4
	note C_, 2
	note C#, 2
	octave 3
	;note F_, 0 | WARNING: Rounded down to 0
	octave 4
	;note D_, 0 | WARNING: Rounded down to 0
	note F_, 4
;Bar 57
	octave 3
	;note A_, 0 | WARNING: Rounded down to 0
	octave 4
	;note F_, 0 | WARNING: Rounded down to 0
	note A_, 4
	octave 3
	;note G_, 0 | WARNING: Rounded down to 0
	octave 4
	;note E_, 0 | WARNING: Rounded down to 0
	note G_, 2
	octave 3
	;note F_, 0 | WARNING: Rounded down to 0
	octave 4
	;note D_, 0 | WARNING: Rounded down to 0
	note F_, 4
	octave 3
	;note E_, 0 | WARNING: Rounded down to 0
	octave 4
	;note C_, 0 | WARNING: Rounded down to 0
	note E_, 6
;Bar 58
	;note C_, 0 | WARNING: Rounded down to 0
	;note A_, 0 | WARNING: Rounded down to 0
	octave 5
	note C_, 4
	octave 3
	;note G_, 0 | WARNING: Rounded down to 0
	octave 4
	;note E_, 0 | WARNING: Rounded down to 0
	note G_, 4
	octave 3
	;note E_, 0 | WARNING: Rounded down to 0
	octave 4
	;note C_, 0 | WARNING: Rounded down to 0
	note E_, 4
	octave 3
	;note F_, 0 | WARNING: Rounded down to 0
	octave 4
	;note D_, 0 | WARNING: Rounded down to 0
	note F_, 4
;Bar 59
	octave 3
	;note A_, 0 | WARNING: Rounded down to 0
	octave 4
	;note F_, 0 | WARNING: Rounded down to 0
	note A_, 4
	octave 3
	;note G_, 0 | WARNING: Rounded down to 0
	octave 4
	;note E_, 0 | WARNING: Rounded down to 0
	note G_, 2
	octave 3
	;note A_, 0 | WARNING: Rounded down to 0
	octave 4
	;note F_, 0 | WARNING: Rounded down to 0
	note A_, 4
	octave 3
	;note A#, 0 | WARNING: Rounded down to 0
	octave 4
	;note G_, 0 | WARNING: Rounded down to 0
	note A#, 6
;Bar 60
	octave 3
	;note A_, 0 | WARNING: Rounded down to 0
	octave 4
	;note F_, 0 | WARNING: Rounded down to 0
	note A_, 4
	octave 3
	;note G_, 0 | WARNING: Rounded down to 0
	octave 4
	;note E_, 0 | WARNING: Rounded down to 0
	note G_, 4
	octave 3
	;note E_, 0 | WARNING: Rounded down to 0
	octave 4
	;note C_, 0 | WARNING: Rounded down to 0
	note E_, 4
	octave 3
	;note D_, 0 | WARNING: Rounded down to 0
	;note A#, 0 | WARNING: Rounded down to 0
	octave 4
	note D_, 4
;Bar 61
	octave 3
	;note F_, 0 | WARNING: Rounded down to 0
	octave 4
	;note D_, 0 | WARNING: Rounded down to 0
	note F_, 4
	octave 3
	;note E_, 0 | WARNING: Rounded down to 0
	octave 4
	;note C_, 0 | WARNING: Rounded down to 0
	note E_, 4
	octave 3
	;note D_, 0 | WARNING: Rounded down to 0
	;note A#, 0 | WARNING: Rounded down to 0
	octave 4
	note D_, 4
	octave 3
	;note D_, 0 | WARNING: Rounded down to 0
	;note A#, 0 | WARNING: Rounded down to 0
	octave 4
	note D_, 4
;Bar 62
	octave 3
	;note A#, 0 | WARNING: Rounded down to 0
	octave 4
	;note G_, 0 | WARNING: Rounded down to 0
	note A#, 4
	octave 3
	;note A_, 0 | WARNING: Rounded down to 0
	octave 4
	;note E_, 0 | WARNING: Rounded down to 0
	note A_, 4
	octave 3
	;note G_, 0 | WARNING: Rounded down to 0
	octave 4
	;note D_, 0 | WARNING: Rounded down to 0
	note G_, 4
	octave 3
	;note A_, 0 | WARNING: Rounded down to 0
	octave 4
	;note E_, 0 | WARNING: Rounded down to 0
	note A_, 2
;Bar 63
	note E_, 1
	note C#, 1
	octave 3
	note A_, 2
	octave 4
	note C#, 2
	;note C#, 0 | WARNING: Rounded down to 0
	note B_, 2
	octave 3
	note B_, 2
	octave 4
	;note C#, 0 | WARNING: Rounded down to 0
	note A#, 2
	;note C#, 0 | WARNING: Rounded down to 0
	;note G_, 0 | WARNING: Rounded down to 0
	octave 5
	note C#, 6
;Bar 64
	octave 4
	;note C#, 0 | WARNING: Rounded down to 0
	octave 5
	note C#, 2
	octave 4
	;note D_, 0 | WARNING: Rounded down to 0
	octave 5
	note D_, 2
	octave 4
	;note E_, 0 | WARNING: Rounded down to 0
	;note A_, 0 | WARNING: Rounded down to 0
	octave 5
	;note C#, 0 | WARNING: Rounded down to 0
	note E_, 3
	octave 3
	;note C_, 0 | WARNING: Rounded down to 0
	;note D_, 0 | WARNING: Rounded down to 0
	;note E_, 0 | WARNING: Rounded down to 0
	note F_, 1
	;note G_, 0 | WARNING: Rounded down to 0
	;note A_, 0 | WARNING: Rounded down to 0
	;note B_, 0 | WARNING: Rounded down to 0
	octave 4
	note C_, 1
	;note D_, 0 | WARNING: Rounded down to 0
	;note E_, 0 | WARNING: Rounded down to 0
	;note F_, 0 | WARNING: Rounded down to 0
	note G_, 1
	;note A_, 0 | WARNING: Rounded down to 0
	;note B_, 0 | WARNING: Rounded down to 0
	octave 5
	;note C_, 0 | WARNING: Rounded down to 0
	;note D_, 0 | WARNING: Rounded down to 0
	rest 2
	octave 3
	;note F_, 0 | WARNING: Rounded down to 0
	note A_, 2
;Bar 65
	octave 4
	;note D_, 0 | WARNING: Rounded down to 0
	note F_, 2
	note E_, 1
	note F_, 1
	note E_, 2
	;note C_, 0 | WARNING: Rounded down to 0
	note G_, 2
	note F_, 2
	note E_, 1
	note F_, 1
	note E_, 1
	note C_, 1
	note D_, 2
;Bar 66
	;note F_, 0 | WARNING: Rounded down to 0
	note A_, 2
	note G_, 1
	note A_, 1
	note G_, 1
	note A_, 1
	;note F_, 0 | WARNING: Rounded down to 0
	octave 5
	note C_, 2
	octave 4
	note A_, 2
	note G_, 2
	note A_, 2
	octave 3
	;note F_, 0 | WARNING: Rounded down to 0
	note A_, 2
;Bar 67
	octave 4
	;note D_, 0 | WARNING: Rounded down to 0
	note F_, 2
	note E_, 1
	note F_, 1
	note E_, 2
	;note C_, 0 | WARNING: Rounded down to 0
	note G_, 2
	note F_, 2
	note E_, 1
	note F_, 1
	note E_, 1
	note C_, 1
	note D_, 2
;Bar 68
	;note F_, 0 | WARNING: Rounded down to 0
	note A_, 2
	note G_, 1
	note A_, 1
	note G_, 1
	note A_, 1
	;note F_, 0 | WARNING: Rounded down to 0
	octave 5
	note C#, 2
	octave 4
	note A_, 2
	note G_, 2
	note A_, 2
	octave 3
	;note F_, 0 | WARNING: Rounded down to 0
	note A_, 2
;Bar 69
	octave 4
	;note D_, 0 | WARNING: Rounded down to 0
	note F_, 2
	note E_, 1
	note F_, 1
	note E_, 2
	;note C_, 0 | WARNING: Rounded down to 0
	note G_, 2
	note F_, 2
	note E_, 1
	note F_, 1
	note E_, 1
	note C_, 1
	note D_, 2
;Bar 70
	;note F_, 0 | WARNING: Rounded down to 0
	note A_, 2
	note G_, 1
	note A_, 1
	note G_, 1
	note A_, 1
	;note F_, 0 | WARNING: Rounded down to 0
	octave 5
	note C_, 2
	octave 4
	note A_, 2
	note F_, 2
	note F#, 2
	octave 3
	;note G_, 0 | WARNING: Rounded down to 0
	octave 4
	;note D_, 0 | WARNING: Rounded down to 0
	note G_, 2
;Bar 71
	octave 3
	note A#, 1
	octave 4
	note D_, 1
	octave 3
	note A#, 2
	octave 4
	;note D_, 0 | WARNING: Rounded down to 0
	note G_, 2
	;note E_, 0 | WARNING: Rounded down to 0
	note A_, 2
	octave 3
	note A_, 1
	octave 4
	;note E_, 0 | WARNING: Rounded down to 0
	note A_, 1
	octave 3
	note A_, 2
	octave 4
	;note E_, 0 | WARNING: Rounded down to 0
	note A_, 2
	;note F_, 0 | WARNING: Rounded down to 0
	note A#, 2
;Bar 72
	note D_, 2
	;note F_, 0 | WARNING: Rounded down to 0
	note B_, 2
	note D_, 2
	;note E_, 0 | WARNING: Rounded down to 0
	;note G_, 0 | WARNING: Rounded down to 0
	octave 5
	note C_, 7
	rest 1
	octave 3
	;note F_, 0 | WARNING: Rounded down to 0
	note A_, 2
;Bar 73
	octave 4
	;note D_, 0 | WARNING: Rounded down to 0
	note F_, 2
	note E_, 1
	note F_, 1
	note E_, 2
	;note C_, 0 | WARNING: Rounded down to 0
	note G_, 2
	note F_, 2
	note E_, 1
	note F_, 1
	note E_, 1
	note C_, 1
	note D_, 2
;Bar 74
	;note F_, 0 | WARNING: Rounded down to 0
	note A_, 2
	note G_, 1
	note A_, 1
	note G_, 1
	note A_, 1
	;note F_, 0 | WARNING: Rounded down to 0
	octave 5
	note C_, 2
	octave 4
	note A_, 2
	note G_, 2
	note A_, 2
	octave 3
	;note F_, 0 | WARNING: Rounded down to 0
	note A_, 2
;Bar 75
	octave 4
	;note D_, 0 | WARNING: Rounded down to 0
	note F_, 2
	note E_, 1
	note F_, 1
	note E_, 2
	;note C_, 0 | WARNING: Rounded down to 0
	note G_, 2
	note F_, 2
	note E_, 1
	note F_, 1
	note E_, 1
	note C_, 1
	note D_, 2
;Bar 76
	;note F_, 0 | WARNING: Rounded down to 0
	note A_, 2
	note G_, 1
	note A_, 1
	note G_, 1
	note A_, 1
	;note F_, 0 | WARNING: Rounded down to 0
	octave 5
	note C#, 2
	octave 4
	note A_, 2
	note G_, 2
	note A_, 2
	octave 3
	;note F_, 0 | WARNING: Rounded down to 0
	note A_, 2
;Bar 77
	octave 4
	;note D_, 0 | WARNING: Rounded down to 0
	note F_, 2
	note E_, 1
	note F_, 1
	note E_, 2
	;note C_, 0 | WARNING: Rounded down to 0
	note G_, 2
	note F_, 2
	note E_, 1
	note F_, 1
	note E_, 1
	note C_, 1
	note D_, 2
;Bar 78
	;note F_, 0 | WARNING: Rounded down to 0
	note A_, 2
	note G_, 1
	note A_, 1
	note G_, 1
	note A_, 1
	;note F_, 0 | WARNING: Rounded down to 0
	octave 5
	note C_, 2
	octave 4
	note A_, 2
	note F_, 2
	note F#, 2
	octave 3
	;note G_, 0 | WARNING: Rounded down to 0
	octave 4
	;note D_, 0 | WARNING: Rounded down to 0
	note G_, 2
;Bar 79
	octave 3
	note A#, 1
	octave 4
	note D_, 1
	octave 3
	note A#, 2
	octave 4
	;note D_, 0 | WARNING: Rounded down to 0
	note G_, 2
	;note C_, 0 | WARNING: Rounded down to 0
	;note E_, 0 | WARNING: Rounded down to 0
	note A_, 2
	note G_, 2
	note F_, 2
	note E_, 2
	octave 3
	;note F_, 0 | WARNING: Rounded down to 0
	;note A_, 0 | WARNING: Rounded down to 0
	octave 4
	note D_, 13
;Bar 80
	rest 3
	octave 2
	note D_, 1
	rest 1
;Bar 81
	note A_, 1
	rest 1
	note G_, 1
	note A_, 1
	rest 1
	note E_, 1
	rest 1
	note F_, 1
	rest 1
	note A_, 1
	note G_, 1
	note F_, 1
	note E_, 1
	note D_, 1
	rest 2
;Bar 82
	note A_, 1
	rest 1
	note G_, 1
	note A_, 1
	rest 1
	note E_, 1
	rest 1
	note F_, 1
	rest 1
	note A_, 1
	note C_, 1
	rest 1
	note C#, 1
	rest 1
	note D_, 1
	rest 1
;Bar 83
	note A_, 1
	rest 1
	note G_, 1
	note A_, 1
	rest 1
	note E_, 1
	rest 1
	note F_, 1
	rest 1
	note A_, 1
	note G_, 1
	note F_, 1
	note E_, 1
	note D_, 1
	rest 2
;Bar 84
	note A_, 1
	rest 1
	note G_, 1
	note A_, 1
	rest 1
	note E_, 1
	rest 1
	note F_, 1
	rest 1
	note A_, 1
	note C_, 1
	rest 1
	note C#, 1
	rest 1
	note D_, 1
	rest 1
;Bar 85
	note A_, 1
	rest 1
	note G_, 1
	note A_, 1
	rest 1
	note E_, 1
	rest 1
	note F_, 1
	rest 1
	note A_, 1
	note G_, 1
	note F_, 1
	note E_, 1
	note D_, 1
	rest 2
;Bar 86
	note A_, 1
	rest 1
	note G_, 1
	note A_, 1
	rest 1
	note E_, 1
	rest 1
	note F_, 1
	rest 1
	note A_, 1
	note C_, 1
	rest 1
	note C#, 1
	rest 1
	note D_, 1
	rest 1
;Bar 87
	note A_, 1
	rest 1
	note G_, 1
	note A_, 1
	rest 1
	note E_, 1
	rest 1
	note F_, 1
	rest 1
	note A_, 1
	note G_, 1
	note F_, 1
	note E_, 1
	note D_, 2
	rest 1
;Bar 88
	note A_, 1
	rest 1
	note G_, 1
	note A_, 1
	rest 1
	octave 3
	note C_, 1
	rest 1
	note C_, 1
	octave 2
	note A_, 2
	octave 3
	;note C_, 0 | WARNING: Rounded down to 0
	note E_, 2
	note C_, 1
	note C#, 1
	octave 2
	;note A_, 0 | WARNING: Rounded down to 0
	octave 3
	note D_, 1
	rest 1
;Bar 89
	;note F_, 0 | WARNING: Rounded down to 0
	note A_, 1
	rest 1
	note G_, 1
	note A_, 1
	rest 1
	;note C_, 0 | WARNING: Rounded down to 0
	note E_, 1
	rest 1
	;note D_, 0 | WARNING: Rounded down to 0
	note F_, 1
	rest 1
	note A_, 1
	note G_, 1
	note F_, 1
	note E_, 1
	note D_, 1
	rest 2
;Bar 90
	;note F_, 0 | WARNING: Rounded down to 0
	note A_, 1
	rest 1
	note G_, 1
	note A_, 1
	rest 1
	;note C_, 0 | WARNING: Rounded down to 0
	note E_, 2
	;note D_, 0 | WARNING: Rounded down to 0
	note F_, 1
	note A_, 1
	rest 1
	octave 2
	;note A_, 0 | WARNING: Rounded down to 0
	octave 3
	note C_, 1
	rest 1
	octave 2
	;note A_, 0 | WARNING: Rounded down to 0
	octave 3
	note C#, 1
	rest 1
	octave 2
	;note A_, 0 | WARNING: Rounded down to 0
	octave 3
	note D_, 1
	rest 1
;Bar 91
	;note F_, 0 | WARNING: Rounded down to 0
	note A_, 1
	rest 1
	note G_, 1
	note A_, 1
	rest 1
	;note C_, 0 | WARNING: Rounded down to 0
	note E_, 1
	rest 1
	;note D_, 0 | WARNING: Rounded down to 0
	note F_, 1
	rest 1
	note A_, 1
	note G_, 1
	note F_, 1
	note E_, 1
	note D_, 1
	rest 2
;Bar 92
	;note F_, 0 | WARNING: Rounded down to 0
	note A_, 1
	rest 1
	note G_, 1
	note A_, 1
	rest 1
	;note C_, 0 | WARNING: Rounded down to 0
	note E_, 2
	;note D_, 0 | WARNING: Rounded down to 0
	note F_, 1
	note A_, 1
	rest 1
	octave 2
	;note A_, 0 | WARNING: Rounded down to 0
	octave 3
	note C_, 1
	rest 1
	octave 2
	;note A_, 0 | WARNING: Rounded down to 0
	octave 3
	note C#, 1
	rest 1
	octave 2
	;note A_, 0 | WARNING: Rounded down to 0
	octave 3
	note D_, 1
	rest 1
;Bar 93
	;note F_, 0 | WARNING: Rounded down to 0
	note A_, 1
	rest 1
	note G_, 1
	note A_, 1
	rest 1
	;note C_, 0 | WARNING: Rounded down to 0
	note E_, 1
	rest 1
	;note D_, 0 | WARNING: Rounded down to 0
	note F_, 1
	rest 1
	note A_, 1
	note G_, 1
	note F_, 1
	note E_, 1
	note D_, 1
	rest 2
;Bar 94
	;note F_, 0 | WARNING: Rounded down to 0
	note A_, 1
	rest 1
	note G_, 1
	note A_, 1
	rest 1
	;note C_, 0 | WARNING: Rounded down to 0
	note E_, 2
	;note D_, 0 | WARNING: Rounded down to 0
	note F_, 1
	note A_, 1
	rest 1
	octave 2
	;note A_, 0 | WARNING: Rounded down to 0
	octave 3
	note C_, 1
	rest 1
	octave 2
	;note A_, 0 | WARNING: Rounded down to 0
	octave 3
	note C#, 1
	rest 1
	octave 2
	;note A_, 0 | WARNING: Rounded down to 0
	octave 3
	note D_, 1
	rest 1
;Bar 95
	;note F_, 0 | WARNING: Rounded down to 0
	note A_, 1
	rest 1
	note G_, 1
	note A_, 1
	rest 1
	;note C_, 0 | WARNING: Rounded down to 0
	note E_, 1
	rest 1
	;note D_, 0 | WARNING: Rounded down to 0
	note F_, 1
	rest 1
	note A_, 1
	note G_, 1
	note F_, 1
	note E_, 1
	note D_, 1
	octave 2
	note A_, 1
	note B_, 1
;Bar 96
	octave 3
	;note C_, 0 | WARNING: Rounded down to 0
	note D_, 1
	;note E_, 0 | WARNING: Rounded down to 0
	note F_, 1
	;note G_, 0 | WARNING: Rounded down to 0
	note A_, 1
	;note B_, 0 | WARNING: Rounded down to 0
	octave 4
	note C_, 1
	;note D_, 0 | WARNING: Rounded down to 0
	note E_, 1
	;note F_, 0 | WARNING: Rounded down to 0
	note G_, 1
	;note A_, 0 | WARNING: Rounded down to 0
	note B_, 1
	octave 5
	;note C_, 0 | WARNING: Rounded down to 0
	note D_, 1
	;note E_, 0 | WARNING: Rounded down to 0
	note F_, 1
	;note G_, 0 | WARNING: Rounded down to 0
	note A_, 1
	;note B_, 0 | WARNING: Rounded down to 0
	octave 6
	note C_, 1
	;note D_, 0 | WARNING: Rounded down to 0
	rest 3
	octave 3
	;note F_, 0 | WARNING: Rounded down to 0
	note A_, 2
;Bar 97
	octave 4
	;note D_, 0 | WARNING: Rounded down to 0
	note F_, 2
	note E_, 1
	note F_, 1
	note E_, 2
	;note C_, 0 | WARNING: Rounded down to 0
	note G_, 2
	note F_, 2
	note E_, 1
	note F_, 1
	note E_, 1
	note C_, 1
	note D_, 2
;Bar 98
	;note F_, 0 | WARNING: Rounded down to 0
	note A_, 2
	note G_, 1
	note A_, 1
	note G_, 1
	note A_, 1
	;note F_, 0 | WARNING: Rounded down to 0
	octave 5
	note C_, 2
	octave 4
	note A_, 2
	note G_, 2
	note A_, 2
	octave 3
	;note F_, 0 | WARNING: Rounded down to 0
	note A_, 2
;Bar 99
	octave 4
	;note D_, 0 | WARNING: Rounded down to 0
	note F_, 2
	note E_, 1
	note F_, 1
	note E_, 2
	;note C_, 0 | WARNING: Rounded down to 0
	note G_, 2
	note F_, 2
	note E_, 1
	note F_, 1
	note E_, 1
	note C_, 1
	note D_, 2
;Bar 100
	;note F_, 0 | WARNING: Rounded down to 0
	note A_, 2
	note G_, 1
	note A_, 1
	note G_, 1
	note A_, 1
	;note F_, 0 | WARNING: Rounded down to 0
	octave 5
	note C#, 2
	octave 4
	note A_, 2
	note G_, 2
	note A_, 2
	octave 3
	;note F_, 0 | WARNING: Rounded down to 0
	note A_, 2
;Bar 101
	octave 4
	;note D_, 0 | WARNING: Rounded down to 0
	note F_, 2
	note E_, 1
	note F_, 1
	note E_, 2
	;note C_, 0 | WARNING: Rounded down to 0
	note G_, 2
	note F_, 2
	note E_, 1
	note F_, 1
	note E_, 1
	note C_, 1
	note D_, 2
;Bar 102
	;note F_, 0 | WARNING: Rounded down to 0
	note A_, 2
	note G_, 1
	note A_, 1
	note G_, 1
	note A_, 1
	;note F_, 0 | WARNING: Rounded down to 0
	octave 5
	note C_, 2
	octave 4
	note A_, 2
	note F_, 2
	note F#, 2
	octave 3
	;note G_, 0 | WARNING: Rounded down to 0
	octave 4
	;note D_, 0 | WARNING: Rounded down to 0
	note G_, 2
;Bar 103
	octave 3
	note A#, 1
	octave 4
	note D_, 1
	octave 3
	note A#, 2
	octave 4
	;note D_, 0 | WARNING: Rounded down to 0
	note G_, 2
	;note E_, 0 | WARNING: Rounded down to 0
	note A_, 2
	octave 3
	note A_, 1
	octave 4
	;note E_, 0 | WARNING: Rounded down to 0
	note A_, 1
	octave 3
	note A_, 2
	octave 4
	;note E_, 0 | WARNING: Rounded down to 0
	note A_, 2
	;note F_, 0 | WARNING: Rounded down to 0
	note A#, 2
;Bar 104
	note D_, 2
	;note F_, 0 | WARNING: Rounded down to 0
	note B_, 2
	note D_, 2
	;note E_, 0 | WARNING: Rounded down to 0
	;note G_, 0 | WARNING: Rounded down to 0
	octave 5
	note C_, 7
	rest 1
	octave 3
	;note F_, 0 | WARNING: Rounded down to 0
	note A_, 2
;Bar 105
	octave 4
	;note D_, 0 | WARNING: Rounded down to 0
	note F_, 2
	note E_, 1
	note F_, 1
	note E_, 2
	;note C_, 0 | WARNING: Rounded down to 0
	note G_, 2
	note F_, 2
	note E_, 1
	note F_, 1
	note E_, 1
	note C_, 1
	note D_, 2
;Bar 106
	;note F_, 0 | WARNING: Rounded down to 0
	note A_, 2
	note G_, 1
	note A_, 1
	note G_, 1
	note A_, 1
	;note F_, 0 | WARNING: Rounded down to 0
	octave 5
	note C_, 2
	octave 4
	note A_, 2
	note G_, 2
	note A_, 2
	octave 3
	;note F_, 0 | WARNING: Rounded down to 0
	note A_, 2
;Bar 107
	octave 4
	;note D_, 0 | WARNING: Rounded down to 0
	note F_, 2
	note E_, 1
	note F_, 1
	note E_, 2
	;note C_, 0 | WARNING: Rounded down to 0
	note G_, 2
	note F_, 2
	note E_, 1
	note F_, 1
	note E_, 1
	note C_, 1
	note D_, 2
;Bar 108
	;note F_, 0 | WARNING: Rounded down to 0
	note A_, 2
	note G_, 1
	note A_, 1
	note G_, 1
	note A_, 1
	;note F_, 0 | WARNING: Rounded down to 0
	octave 5
	note C#, 2
	octave 4
	note A_, 2
	note G_, 2
	note A_, 2
	octave 3
	;note F_, 0 | WARNING: Rounded down to 0
	note A_, 2
;Bar 109
	octave 4
	;note D_, 0 | WARNING: Rounded down to 0
	note F_, 2
	note E_, 1
	note F_, 1
	note E_, 2
	;note C_, 0 | WARNING: Rounded down to 0
	note G_, 2
	note F_, 2
	note E_, 1
	note F_, 1
	note E_, 1
	note C_, 1
	note D_, 2
;Bar 110
	;note F_, 0 | WARNING: Rounded down to 0
	note A_, 2
	note G_, 1
	note A_, 1
	note G_, 1
	note A_, 1
	;note F_, 0 | WARNING: Rounded down to 0
	octave 5
	note C_, 2
	octave 4
	note A_, 2
	note F_, 2
	note F#, 2
	octave 3
	;note G_, 0 | WARNING: Rounded down to 0
	octave 4
	;note D_, 0 | WARNING: Rounded down to 0
	note G_, 2
;Bar 111
	octave 3
	note A#, 1
	octave 4
	note D_, 1
	octave 3
	note A#, 2
	octave 4
	;note D_, 0 | WARNING: Rounded down to 0
	note G_, 2
	octave 3
	;note A_, 0 | WARNING: Rounded down to 0
	octave 4
	;note E_, 0 | WARNING: Rounded down to 0
	note A_, 2
	octave 3
	note A_, 1
	octave 4
	;note E_, 0 | WARNING: Rounded down to 0
	note A_, 2
	octave 3
	note A_, 1
	octave 4
	;note D_, 0 | WARNING: Rounded down to 0
	;note F_, 0 | WARNING: Rounded down to 0
	note A#, 4
;Bar 112
	;note A_, 0 | WARNING: Rounded down to 0
	octave 5
	;note C_, 0 | WARNING: Rounded down to 0
	note F_, 2
	note E_, 2
	note D_, 2
	;note C_, 0 | WARNING: Rounded down to 0
	note E_, 7
	rest 1
	octave 3
	;note F#, 0 | WARNING: Rounded down to 0
	note A#, 2
;Bar 113
	octave 4
	;note D#, 0 | WARNING: Rounded down to 0
	note F#, 2
	note F_, 1
	note F#, 1
	note F_, 1
	note F#, 1
	;note C#, 0 | WARNING: Rounded down to 0
	note G#, 2
	note F#, 2
	note F_, 1
	note F#, 1
	note F_, 1
	note C#, 1
	note D#, 2
;Bar 114
	;note F#, 0 | WARNING: Rounded down to 0
	note A#, 2
	note G#, 1
	note A#, 1
	note G#, 1
	note A#, 1
	;note F#, 0 | WARNING: Rounded down to 0
	octave 5
	note C#, 2
	octave 4
	note A#, 2
	note G#, 2
	note A#, 2
	octave 3
	;note F#, 0 | WARNING: Rounded down to 0
	note A#, 2
;Bar 115
	octave 4
	note F#, 2
	note F_, 1
	note F#, 1
	note F_, 1
	note F#, 1
	;note C#, 0 | WARNING: Rounded down to 0
	note G#, 2
	note F#, 2
	note F_, 1
	note F#, 1
	note F_, 1
	note C#, 1
	note D#, 2
;Bar 116
	;note F#, 0 | WARNING: Rounded down to 0
	note A#, 2
	note G#, 1
	note A#, 1
	note G#, 1
	note A#, 1
	;note D_, 0 | WARNING: Rounded down to 0
	octave 5
	note D_, 2
	octave 4
	note A#, 2
	note G#, 2
	note A#, 2
	octave 3
	;note F#, 0 | WARNING: Rounded down to 0
	note A#, 2
;Bar 117
	octave 4
	note F#, 2
	note F_, 1
	note F#, 1
	note F_, 1
	note F#, 1
	;note C#, 0 | WARNING: Rounded down to 0
	note G#, 2
	note F#, 2
	note F_, 1
	note F#, 1
	note F_, 1
	note C#, 1
	note D#, 2
;Bar 118
	;note F#, 0 | WARNING: Rounded down to 0
	note A#, 2
	note G#, 1
	note A#, 1
	note G#, 1
	note A#, 1
	;note F#, 0 | WARNING: Rounded down to 0
	octave 5
	note C#, 2
	octave 4
	note A#, 2
	;note F#, 0 | WARNING: Rounded down to 0
	note G#, 2
	note G_, 2
	;note D#, 0 | WARNING: Rounded down to 0
	note G#, 2
;Bar 119
	octave 3
	note B_, 1
	octave 4
	;note D#, 0 | WARNING: Rounded down to 0
	note G#, 1
	octave 3
	note A#, 2
	octave 4
	;note D#, 0 | WARNING: Rounded down to 0
	note G#, 2
	;note F_, 0 | WARNING: Rounded down to 0
	note A#, 2
	note C#, 1
	;note F_, 0 | WARNING: Rounded down to 0
	note A#, 1
	note C#, 2
	;note F_, 0 | WARNING: Rounded down to 0
	note A#, 2
	;note F#, 0 | WARNING: Rounded down to 0
	note B_, 2
;Bar 120
	note D#, 2
	;note F#, 0 | WARNING: Rounded down to 0
	octave 5
	note C_, 2
	octave 4
	note D#, 2
	;note F_, 0 | WARNING: Rounded down to 0
	;note G#, 0 | WARNING: Rounded down to 0
	octave 5
	note C#, 7
	rest 1
	octave 3
	;note F#, 0 | WARNING: Rounded down to 0
	note A#, 2
;Bar 121
	octave 4
	;note D#, 0 | WARNING: Rounded down to 0
	note F#, 2
	note F_, 1
	note F#, 1
	note F_, 1
	note F#, 1
	;note C#, 0 | WARNING: Rounded down to 0
	note G#, 2
	note F#, 2
	note F_, 1
	note F#, 1
	note F_, 1
	note C#, 1
	note D#, 2
;Bar 122
	;note F#, 0 | WARNING: Rounded down to 0
	note A#, 2
	note G#, 1
	note A#, 1
	note G#, 1
	note A#, 1
	;note F#, 0 | WARNING: Rounded down to 0
	octave 5
	note C#, 2
	octave 4
	note A#, 2
	note G#, 2
	note A#, 2
	octave 3
	;note F#, 0 | WARNING: Rounded down to 0
	note A#, 2
;Bar 123
	octave 4
	note F#, 2
	note F_, 1
	note F#, 1
	note F_, 1
	note F#, 1
	;note C#, 0 | WARNING: Rounded down to 0
	note G#, 2
	note F#, 2
	note F_, 1
	note F#, 1
	note F_, 1
	note C#, 1
	note D#, 2
;Bar 124
	;note F#, 0 | WARNING: Rounded down to 0
	note A#, 2
	note G#, 1
	note A#, 1
	note G#, 1
	note A#, 1
	;note D_, 0 | WARNING: Rounded down to 0
	octave 5
	note D_, 2
	octave 4
	note A#, 2
	;note C#, 0 | WARNING: Rounded down to 0
	octave 5
	note C#, 2
	octave 4
	;note F_, 0 | WARNING: Rounded down to 0
	octave 5
	note F_, 2
	octave 4
	;note F#, 0 | WARNING: Rounded down to 0
	;note A#, 0 | WARNING: Rounded down to 0
	octave 5
	note D#, 5
;Bar 125
	rest 1
	octave 4
	;note F#, 0 | WARNING: Rounded down to 0
	;note A#, 0 | WARNING: Rounded down to 0
	octave 5
	note D#, 2
	octave 4
	;note F#, 0 | WARNING: Rounded down to 0
	;note A#, 0 | WARNING: Rounded down to 0
	octave 5
	note D#, 2
	octave 4
	;note F_, 0 | WARNING: Rounded down to 0
	;note G#, 0 | WARNING: Rounded down to 0
	octave 5
	note C#, 4
	octave 4
	;note F#, 0 | WARNING: Rounded down to 0
	;note A#, 0 | WARNING: Rounded down to 0
	octave 5
	note D#, 4
;Bar 126
	octave 4
	;note F#, 0 | WARNING: Rounded down to 0
	;note A#, 0 | WARNING: Rounded down to 0
	octave 5
	note D#, 2
	octave 4
	;note F_, 0 | WARNING: Rounded down to 0
	;note G#, 0 | WARNING: Rounded down to 0
	octave 5
	note C#, 2
	rest 2
	octave 4
	note A#, 1
	octave 5
	note C#, 1
	octave 4
	note A#, 2
	note G#, 2
	note A#, 2
	octave 3
	;note B_, 0 | WARNING: Rounded down to 0
	octave 4
	;note D#, 0 | WARNING: Rounded down to 0
	note G#, 4
;Bar 127
	octave 3
	;note A#, 0 | WARNING: Rounded down to 0
	octave 4
	;note D#, 0 | WARNING: Rounded down to 0
	note G#, 2
	;note C#, 0 | WARNING: Rounded down to 0
	;note F#, 0 | WARNING: Rounded down to 0
	note A#, 2
	rest 2
	;note G#, 0 | WARNING: Rounded down to 0
	octave 5
	;note C#, 0 | WARNING: Rounded down to 0
	note F#, 1
	octave 4
	;note G#, 0 | WARNING: Rounded down to 0
	octave 5
	;note C#, 0 | WARNING: Rounded down to 0
	note F#, 1
	note F_, 2
	octave 4
	;note G#, 0 | WARNING: Rounded down to 0
	octave 5
	note C#, 2
	octave 4
	;note F#, 0 | WARNING: Rounded down to 0
	;note A#, 0 | WARNING: Rounded down to 0
	octave 5
	note D#, 13
;Bar 128
	rest 3
	octave 3
	;note F#, 0 | WARNING: Rounded down to 0
	note A#, 4
;Bar 129
	octave 4
	note F#, 4
	note F_, 2
	note F#, 4
	;note C#, 0 | WARNING: Rounded down to 0
	note G#, 6
;Bar 130
	note F#, 4
	note F_, 4
	octave 3
	;note G#, 0 | WARNING: Rounded down to 0
	octave 4
	note C#, 2
	note D_, 2
	octave 3
	;note A#, 0 | WARNING: Rounded down to 0
	octave 4
	note D#, 4
;Bar 131
	;note F#, 0 | WARNING: Rounded down to 0
	note A#, 4
	;note F_, 0 | WARNING: Rounded down to 0
	note G#, 2
	;note F#, 0 | WARNING: Rounded down to 0
	note A#, 4
	;note A#, 0 | WARNING: Rounded down to 0
	octave 5
	note C#, 6
;Bar 132
	octave 4
	;note G#, 0 | WARNING: Rounded down to 0
	note B_, 4
	;note F#, 0 | WARNING: Rounded down to 0
	note A#, 4
	;note F_, 0 | WARNING: Rounded down to 0
	note G#, 4
	;note D#, 0 | WARNING: Rounded down to 0
	note F#, 7
;Bar 133
	rest 1
	;note C#, 0 | WARNING: Rounded down to 0
	note F_, 2
	;note D#, 0 | WARNING: Rounded down to 0
	note F#, 4
	;note F_, 0 | WARNING: Rounded down to 0
	note G#, 6
;Bar 134
	;note D#, 0 | WARNING: Rounded down to 0
	note F#, 4
	;note C#, 0 | WARNING: Rounded down to 0
	note F_, 4
	octave 3
	;note G#, 0 | WARNING: Rounded down to 0
	octave 4
	note C#, 2
	note D_, 2
	octave 3
	;note A#, 0 | WARNING: Rounded down to 0
	octave 4
	note D#, 2
;Bar 135
	note C#, 2
	note F_, 2
	note F#, 4
	note C#, 2
	;note F_, 0 | WARNING: Rounded down to 0
	note G#, 2
	;note F#, 0 | WARNING: Rounded down to 0
	note A#, 4
;Bar 136
	octave 5
	note C#, 2
	note D#, 2
	note F#, 2
	octave 4
	;note G#, 0 | WARNING: Rounded down to 0
	octave 5
	note F_, 2
	note D#, 2
	note C#, 4
	octave 4
	;note A#, 0 | WARNING: Rounded down to 0
	octave 5
	note D#, 4
;Bar 137
	;note D#, 0 | WARNING: Rounded down to 0
	note F#, 4
	;note C#, 0 | WARNING: Rounded down to 0
	note F_, 2
	octave 4
	;note A#, 0 | WARNING: Rounded down to 0
	octave 5
	note D#, 4
	octave 4
	;note A#, 0 | WARNING: Rounded down to 0
	octave 5
	note D#, 12
;Bar 138
	rest 4
	octave 4
	;note A#, 0 | WARNING: Rounded down to 0
	octave 5
	note D#, 6
;Bar 139
	;note F#, 0 | WARNING: Rounded down to 0
	note A#, 4
	note G#, 2
	;note D#, 0 | WARNING: Rounded down to 0
	note F#, 2
	;note C#, 0 | WARNING: Rounded down to 0
	note F_, 2
	;note D#, 0 | WARNING: Rounded down to 0
	note F#, 12
;Bar 140
	rest 4
	;note D#, 0 | WARNING: Rounded down to 0
	note F#, 6
;Bar 141
	;note C#, 0 | WARNING: Rounded down to 0
	note F_, 4
	octave 4
	;note A#, 0 | WARNING: Rounded down to 0
	octave 5
	note D#, 2
	;note C#, 0 | WARNING: Rounded down to 0
	note F_, 4
	;note D#, 0 | WARNING: Rounded down to 0
	note F#, 6
;Bar 142
	;note C#, 0 | WARNING: Rounded down to 0
	note F_, 4
	octave 4
	;note A#, 0 | WARNING: Rounded down to 0
	octave 5
	note D#, 2
	;note C#, 0 | WARNING: Rounded down to 0
	note F_, 4
	octave 4
	;note G_, 0 | WARNING: Rounded down to 0
	;note A#, 0 | WARNING: Rounded down to 0
	octave 5
	;note D#, 0 | WARNING: Rounded down to 0
	note G_, 9
;Bar 143
	rest 3
	octave 2
	note A#, 1
	octave 3
	note D#, 1
	note A#, 1
	octave 4
	note D#, 1
	note A#, 1
	octave 5
	note D#, 1
	note G_, 1
	note A#, 1
;Bar 144
	octave 6
	note D#, 1
	note G_, 11
	rest 15
;Bar 145
	octave 4
	;note A#, 0 | WARNING: Rounded down to 0
	note B_, 2
	octave 5
	note G_, 2
	note F#, 1
;Bar 146
	note G_, 1
	note F#, 2
	note A_, 2
	note G_, 2
	note F#, 1
	note G_, 1
	note F#, 1
	note D_, 2
	note E_, 2
	note B_, 2
;Bar 147
	note A_, 1
	note B_, 1
	note A_, 1
	note B_, 1
	octave 6
	note D_, 2
	octave 5
	note B_, 2
	note A_, 2
	note B_, 2
	rest 5
;Bar 148
	octave 4
	note B_, 2
	octave 5
	note G_, 2
	note F#, 1
	note G_, 1
	note F#, 2
	note A_, 2
	note G_, 2
	note F#, 1
	note G_, 1
	note F#, 1
;Bar 149
	note D_, 2
	note E_, 2
	note B_, 2
	note A_, 1
	note B_, 1
	note A_, 1
	note B_, 1
	octave 6
	note D_, 2
	octave 5
	note B_, 2
	note A_, 2
;Bar 150
	note B_, 16
	sound_ret

; ============================================================================================================

Music_Placeholder_Ch2:
	duty_cycle 1
	note_type 12, 10, 7
;Bar 1
	octave 1
	volume_envelope 12, 7
	note D_, 16
	note D_, 16
	note D_, 16
	note D_, 9
;Bar 4
	rest 3
	octave 1
	note D_, 2
	octave 1
	note D_, 13
;Bar 5
	rest 1
	octave 1
	note D_, 2
	octave 1
	note D_, 13
;Bar 6
	rest 1
	octave 1
	note D_, 2
	octave 1
	note D_, 7
;Bar 7
	rest 1
	note D_, 7
	rest 1
	;note D_, 0 | WARNING: Rounded down to 0
	note A_, 4
;Bar 8
	;note D_, 0 | WARNING: Rounded down to 0
	;note A_, 0 | WARNING: Rounded down to 0
	octave 2
	note D_, 4
	octave 1
	;note D_, 0 | WARNING: Rounded down to 0
	;note A_, 0 | WARNING: Rounded down to 0
	octave 2
	note D_, 4
	octave 1
	;note D_, 0 | WARNING: Rounded down to 0
	;note A_, 0 | WARNING: Rounded down to 0
	octave 2
	note D_, 2
	octave 1
	;note D_, 0 | WARNING: Rounded down to 0
	;note A_, 0 | WARNING: Rounded down to 0
	octave 2
	note D_, 2
	octave 1
	note D_, 2
;Bar 9
	octave 2
	;note D_, 0 | WARNING: Rounded down to 0
	note F_, 2
	octave 1
	note D_, 2
	octave 2
	;note D_, 0 | WARNING: Rounded down to 0
	note F_, 2
	octave 1
	note D_, 2
	octave 2
	;note D_, 0 | WARNING: Rounded down to 0
	note F_, 2
	octave 1
	note D_, 2
	octave 2
	;note D_, 0 | WARNING: Rounded down to 0
	note F_, 2
	octave 1
	note D_, 2
;Bar 10
	octave 2
	;note D_, 0 | WARNING: Rounded down to 0
	note F_, 2
	octave 1
	note D_, 2
	octave 2
	;note D_, 0 | WARNING: Rounded down to 0
	note F_, 2
	octave 1
	note D_, 2
	octave 2
	;note D_, 0 | WARNING: Rounded down to 0
	note F_, 2
	octave 1
	note D_, 2
	octave 2
	;note D_, 0 | WARNING: Rounded down to 0
	note F_, 2
	octave 1
	note D_, 2
;Bar 11
	octave 2
	;note D_, 0 | WARNING: Rounded down to 0
	note F_, 2
	octave 1
	note D_, 2
	octave 2
	;note D_, 0 | WARNING: Rounded down to 0
	note F_, 2
	octave 1
	note D_, 2
	octave 2
	;note D_, 0 | WARNING: Rounded down to 0
	note F_, 2
	octave 1
	note D_, 2
	octave 2
	;note D_, 0 | WARNING: Rounded down to 0
	note F_, 2
	octave 1
	note D_, 2
;Bar 12
	octave 2
	;note D_, 0 | WARNING: Rounded down to 0
	note F_, 2
	octave 1
	note D_, 2
	octave 2
	;note D_, 0 | WARNING: Rounded down to 0
	note F_, 2
	octave 1
	note D_, 2
	octave 2
	;note D_, 0 | WARNING: Rounded down to 0
	note F_, 2
	octave 1
	note D_, 2
	octave 2
	;note D_, 0 | WARNING: Rounded down to 0
	note F_, 2
	octave 1
	note D_, 2
;Bar 13
	octave 2
	;note D_, 0 | WARNING: Rounded down to 0
	note F_, 2
	octave 1
	note D_, 2
	octave 2
	;note D_, 0 | WARNING: Rounded down to 0
	note F_, 2
	octave 1
	note D_, 2
	octave 2
	;note D_, 0 | WARNING: Rounded down to 0
	note F_, 2
	octave 1
	note D_, 2
	octave 2
	;note D_, 0 | WARNING: Rounded down to 0
	note F_, 2
	octave 1
	note D_, 2
;Bar 14
	octave 2
	;note D_, 0 | WARNING: Rounded down to 0
	note F_, 2
	octave 1
	note D_, 2
	octave 2
	;note D_, 0 | WARNING: Rounded down to 0
	note F_, 2
	octave 1
	note D_, 2
	octave 2
	;note D_, 0 | WARNING: Rounded down to 0
	note F_, 2
	octave 1
	note D_, 2
	octave 2
	;note D_, 0 | WARNING: Rounded down to 0
	note F_, 2
	octave 1
	note D_, 2
;Bar 15
	octave 2
	;note D_, 0 | WARNING: Rounded down to 0
	note F_, 2
	octave 1
	note D_, 2
	octave 2
	;note D_, 0 | WARNING: Rounded down to 0
	note F_, 2
	octave 1
	note D_, 2
	octave 2
	;note D_, 0 | WARNING: Rounded down to 0
	note F_, 2
	octave 1
	note D_, 2
	octave 2
	;note D_, 0 | WARNING: Rounded down to 0
	note F_, 2
	octave 1
	note D_, 2
;Bar 16
	octave 2
	;note D_, 0 | WARNING: Rounded down to 0
	note F_, 2
	octave 1
	note D_, 2
	octave 2
	;note D_, 0 | WARNING: Rounded down to 0
	note F_, 2
	octave 1
	note D_, 2
	octave 2
	;note D_, 0 | WARNING: Rounded down to 0
	note F_, 2
	octave 1
	note D_, 2
	octave 2
	;note D_, 0 | WARNING: Rounded down to 0
	note F_, 2
	octave 1
	note A#, 2
;Bar 17
	octave 1
	;note A#, 0 | WARNING: Rounded down to 0
	octave 2
	note D_, 2
	octave 1
	note A#, 2
	octave 1
	;note A#, 0 | WARNING: Rounded down to 0
	octave 2
	note D_, 2
	octave 1
	note C_, 2
	octave 2
	;note C_, 0 | WARNING: Rounded down to 0
	note E_, 2
	octave 1
	note C_, 2
	octave 2
	;note C_, 0 | WARNING: Rounded down to 0
	note E_, 2
	octave 1
	note D_, 2
;Bar 18
	octave 2
	;note D_, 0 | WARNING: Rounded down to 0
	note F_, 2
	octave 1
	note D_, 2
	octave 2
	;note D_, 0 | WARNING: Rounded down to 0
	note F_, 2
	octave 1
	note D_, 2
	octave 2
	;note D_, 0 | WARNING: Rounded down to 0
	note F_, 2
	octave 1
	note D_, 2
	octave 2
	;note D_, 0 | WARNING: Rounded down to 0
	note F_, 2
	octave 1
	note A#, 2
;Bar 19
	octave 1
	;note A#, 0 | WARNING: Rounded down to 0
	octave 2
	note D_, 2
	octave 1
	note A#, 2
	octave 1
	;note A#, 0 | WARNING: Rounded down to 0
	octave 2
	note D_, 2
	octave 1
	note C_, 2
	octave 2
	;note C_, 0 | WARNING: Rounded down to 0
	note E_, 2
	octave 1
	note C_, 2
	octave 2
	;note C_, 0 | WARNING: Rounded down to 0
	note E_, 2
	octave 1
	note D_, 2
;Bar 20
	octave 2
	note D_, 2
	octave 1
	note E_, 2
	octave 2
	note E_, 2
	octave 1
	note F_, 2
	octave 2
	note F_, 2
	octave 1
	note G_, 2
	octave 2
	note G_, 2
	octave 1
	note A#, 2
;Bar 21
	octave 1
	;note A#, 0 | WARNING: Rounded down to 0
	octave 2
	note D_, 2
	octave 1
	note A#, 2
	octave 1
	;note A#, 0 | WARNING: Rounded down to 0
	octave 2
	note D_, 2
	octave 1
	note C_, 2
	octave 2
	;note C_, 0 | WARNING: Rounded down to 0
	note E_, 2
	octave 1
	note C_, 2
	octave 2
	;note C_, 0 | WARNING: Rounded down to 0
	note E_, 2
	octave 1
	note D_, 2
;Bar 22
	octave 2
	;note D_, 0 | WARNING: Rounded down to 0
	note F_, 2
	octave 1
	note D_, 2
	octave 2
	;note D_, 0 | WARNING: Rounded down to 0
	note F_, 2
	octave 1
	note D_, 2
	octave 2
	;note D_, 0 | WARNING: Rounded down to 0
	note F_, 2
	octave 1
	note D_, 2
	octave 2
	;note D_, 0 | WARNING: Rounded down to 0
	note F_, 2
	octave 1
	note G_, 2
;Bar 23
	octave 1
	note A#, 2
	octave 1
	note G_, 2
	octave 1
	note A#, 2
	octave 1
	note A_, 2
	octave 1
	;note A_, 0 | WARNING: Rounded down to 0
	octave 2
	note C_, 2
	octave 1
	note A_, 2
	octave 1
	;note A_, 0 | WARNING: Rounded down to 0
	octave 2
	note C_, 2
	octave 1
	note A#, 2
;Bar 24
	octave 1
	;note A#, 0 | WARNING: Rounded down to 0
	octave 2
	note D_, 2
	octave 1
	note B_, 2
	octave 1
	;note B_, 0 | WARNING: Rounded down to 0
	octave 2
	note D_, 2
	octave 1
	note C_, 2
	octave 2
	;note C_, 0 | WARNING: Rounded down to 0
	note E_, 2
	octave 1
	note C_, 2
	octave 2
	;note C_, 0 | WARNING: Rounded down to 0
	note E_, 2
	octave 1
	note A#, 2
;Bar 25
	octave 1
	;note A#, 0 | WARNING: Rounded down to 0
	octave 2
	note D_, 2
	octave 1
	note A#, 2
	octave 1
	;note A#, 0 | WARNING: Rounded down to 0
	octave 2
	note D_, 2
	octave 1
	note C_, 2
	octave 2
	;note C_, 0 | WARNING: Rounded down to 0
	note E_, 2
	octave 1
	note C_, 2
	octave 2
	;note C_, 0 | WARNING: Rounded down to 0
	note E_, 2
	octave 1
	note D_, 2
;Bar 26
	octave 2
	;note D_, 0 | WARNING: Rounded down to 0
	note F_, 2
	octave 1
	note D_, 2
	octave 2
	;note D_, 0 | WARNING: Rounded down to 0
	note F_, 2
	octave 1
	note D_, 2
	octave 2
	;note D_, 0 | WARNING: Rounded down to 0
	note F_, 2
	octave 1
	note D_, 2
	octave 2
	;note D_, 0 | WARNING: Rounded down to 0
	note F_, 2
	octave 1
	note A#, 2
;Bar 27
	octave 1
	;note A#, 0 | WARNING: Rounded down to 0
	octave 2
	note D_, 2
	octave 1
	note A#, 2
	octave 1
	;note A#, 0 | WARNING: Rounded down to 0
	octave 2
	note D_, 2
	octave 1
	note C_, 2
	octave 2
	;note C_, 0 | WARNING: Rounded down to 0
	note E_, 2
	octave 1
	note C_, 2
	octave 2
	;note C_, 0 | WARNING: Rounded down to 0
	note E_, 2
	octave 1
	note D_, 2
;Bar 28
	octave 2
	note D_, 2
	octave 1
	note E_, 2
	octave 2
	note E_, 2
	octave 1
	note F_, 2
	octave 2
	note F_, 2
	octave 1
	note G_, 2
	octave 2
	note G_, 2
	octave 1
	note A#, 2
;Bar 29
	octave 1
	;note A#, 0 | WARNING: Rounded down to 0
	octave 2
	note D_, 2
	octave 1
	note A#, 2
	octave 1
	;note A#, 0 | WARNING: Rounded down to 0
	octave 2
	note D_, 2
	octave 1
	note C_, 2
	octave 2
	;note C_, 0 | WARNING: Rounded down to 0
	note E_, 2
	octave 1
	note C_, 2
	octave 2
	;note C_, 0 | WARNING: Rounded down to 0
	note E_, 2
	octave 1
	note D_, 2
;Bar 30
	octave 2
	;note D_, 0 | WARNING: Rounded down to 0
	note F_, 2
	octave 1
	note D_, 2
	octave 2
	;note D_, 0 | WARNING: Rounded down to 0
	note F_, 2
	octave 1
	note D_, 2
	octave 2
	;note D_, 0 | WARNING: Rounded down to 0
	note F_, 2
	octave 1
	note D_, 2
	octave 2
	;note D_, 0 | WARNING: Rounded down to 0
	note F_, 2
	octave 1
	note G_, 2
;Bar 31
	octave 1
	note A#, 2
	octave 1
	note G_, 2
	octave 1
	note A#, 2
	octave 1
	note A_, 2
	octave 1
	;note A_, 0 | WARNING: Rounded down to 0
	octave 2
	note C_, 2
	octave 1
	note A_, 2
	octave 1
	;note A_, 0 | WARNING: Rounded down to 0
	octave 2
	note C_, 2
	octave 1
	note D_, 2
;Bar 32
	octave 2
	;note D_, 0 | WARNING: Rounded down to 0
	note F_, 2
	octave 1
	note D_, 2
	octave 2
	;note D_, 0 | WARNING: Rounded down to 0
	note F_, 2
	octave 1
	note D_, 2
	octave 2
	;note D_, 0 | WARNING: Rounded down to 0
	note F_, 2
	octave 1
	note D_, 2
	octave 2
	;note D_, 0 | WARNING: Rounded down to 0
	note F_, 2
	octave 1
	note D_, 2
;Bar 33
	octave 2
	;note D_, 0 | WARNING: Rounded down to 0
	note F_, 2
	octave 1
	note D_, 2
	octave 2
	;note D_, 0 | WARNING: Rounded down to 0
	note F_, 2
	octave 1
	note D_, 2
	octave 2
	;note D_, 0 | WARNING: Rounded down to 0
	note F_, 2
	octave 1
	note D_, 2
	octave 2
	;note D_, 0 | WARNING: Rounded down to 0
	note F_, 2
	octave 1
	note D_, 2
;Bar 34
	octave 2
	;note D_, 0 | WARNING: Rounded down to 0
	note F_, 2
	octave 1
	note D_, 2
	octave 2
	;note D_, 0 | WARNING: Rounded down to 0
	note F_, 2
	octave 1
	note D_, 2
	octave 2
	;note D_, 0 | WARNING: Rounded down to 0
	note F_, 2
	octave 1
	note D_, 2
	octave 2
	;note D_, 0 | WARNING: Rounded down to 0
	note F_, 2
	octave 1
	note A#, 2
;Bar 35
	octave 1
	;note A#, 0 | WARNING: Rounded down to 0
	octave 2
	note D_, 2
	octave 1
	note A#, 2
	octave 1
	;note A#, 0 | WARNING: Rounded down to 0
	octave 2
	note D_, 2
	octave 1
	note A#, 2
	octave 1
	;note A#, 0 | WARNING: Rounded down to 0
	octave 2
	note D_, 2
	octave 1
	note A#, 2
	octave 1
	;note A#, 0 | WARNING: Rounded down to 0
	octave 2
	note D_, 2
	octave 1
	note A#, 2
;Bar 36
	octave 1
	;note A#, 0 | WARNING: Rounded down to 0
	octave 2
	note D_, 2
	octave 1
	note A#, 2
	octave 1
	;note A#, 0 | WARNING: Rounded down to 0
	octave 2
	note D_, 2
	octave 1
	note A#, 2
	octave 1
	;note A#, 0 | WARNING: Rounded down to 0
	octave 2
	note D_, 2
	octave 1
	note A#, 2
	octave 1
	;note A#, 0 | WARNING: Rounded down to 0
	octave 2
	note D_, 2
	octave 1
	note G_, 2
;Bar 37
	octave 1
	;note G_, 0 | WARNING: Rounded down to 0
	note A#, 2
	octave 1
	note G_, 2
	octave 1
	note A#, 2
	octave 1
	note G_, 2
	octave 1
	note A#, 2
	octave 1
	note G_, 2
	octave 1
	note A#, 2
	octave 1
	note G_, 2
;Bar 38
	octave 1
	note A#, 2
	octave 1
	note G_, 2
	octave 1
	note A#, 2
	octave 1
	note G_, 2
	octave 1
	note A#, 2
	octave 1
	note G_, 2
	octave 1
	note A#, 2
	octave 1
	note A_, 2
;Bar 39
	octave 1
	;note A_, 0 | WARNING: Rounded down to 0
	octave 2
	note C#, 2
	octave 1
	note A_, 2
	octave 2
	note D_, 2
	octave 1
	note A_, 2
	octave 2
	note D_, 2
	octave 1
	note A_, 2
	octave 2
	note D_, 2
	octave 1
	note A_, 2
;Bar 40
	octave 2
	note C#, 2
	octave 1
	note A_, 2
	octave 2
	note D_, 2
	octave 1
	note A_, 2
	octave 2
	note D_, 2
	octave 1
	note A_, 2
	octave 2
	note D_, 2
	octave 1
	note D_, 2
;Bar 41
	octave 2
	;note D_, 0 | WARNING: Rounded down to 0
	note F_, 2
	octave 1
	note D_, 2
	octave 2
	;note D_, 0 | WARNING: Rounded down to 0
	note F_, 2
	octave 1
	note D_, 2
	octave 2
	;note D_, 0 | WARNING: Rounded down to 0
	note F_, 2
	octave 1
	note D_, 2
	octave 2
	;note D_, 0 | WARNING: Rounded down to 0
	note F_, 2
	octave 1
	note D_, 2
;Bar 42
	octave 2
	;note D_, 0 | WARNING: Rounded down to 0
	note F_, 2
	octave 1
	note D_, 2
	octave 2
	;note D_, 0 | WARNING: Rounded down to 0
	note F_, 2
	octave 1
	note D_, 2
	octave 2
	;note D_, 0 | WARNING: Rounded down to 0
	note F_, 2
	octave 1
	note D_, 2
	octave 2
	;note D_, 0 | WARNING: Rounded down to 0
	note F_, 2
	octave 1
	note A#, 2
;Bar 43
	octave 1
	;note A#, 0 | WARNING: Rounded down to 0
	octave 2
	note D_, 2
	octave 1
	note A#, 2
	octave 1
	;note A#, 0 | WARNING: Rounded down to 0
	octave 2
	note D_, 2
	octave 1
	note A#, 2
	octave 1
	;note A#, 0 | WARNING: Rounded down to 0
	octave 2
	note D_, 2
	octave 1
	note A#, 2
	octave 1
	;note A#, 0 | WARNING: Rounded down to 0
	octave 2
	note D_, 2
	octave 1
	note A#, 2
;Bar 44
	octave 1
	;note A#, 0 | WARNING: Rounded down to 0
	octave 2
	note D_, 2
	octave 1
	note A#, 2
	octave 1
	;note A#, 0 | WARNING: Rounded down to 0
	octave 2
	note D_, 2
	octave 1
	note A#, 2
	octave 1
	;note A#, 0 | WARNING: Rounded down to 0
	octave 2
	note D_, 2
	octave 1
	note A#, 2
	octave 1
	;note A#, 0 | WARNING: Rounded down to 0
	octave 2
	note D_, 2
	octave 1
	note G_, 2
;Bar 45
	octave 1
	;note G_, 0 | WARNING: Rounded down to 0
	note A#, 2
	octave 1
	note G_, 2
	octave 1
	note A#, 2
	octave 1
	note G_, 2
	octave 1
	note A#, 2
	octave 1
	note G_, 2
	octave 1
	note A#, 2
	octave 1
	note G#, 2
;Bar 46
	octave 1
	;note G#, 0 | WARNING: Rounded down to 0
	note B_, 2
	octave 1
	note A_, 2
	octave 1
	;note A_, 0 | WARNING: Rounded down to 0
	note B_, 2
	octave 1
	note A_, 2
	octave 1
	;note A_, 0 | WARNING: Rounded down to 0
	note B_, 2
	octave 1
	note A_, 2
	octave 1
	;note A_, 0 | WARNING: Rounded down to 0
	note B_, 2
	octave 1
	note A_, 2
;Bar 47
	octave 1
	;note A_, 0 | WARNING: Rounded down to 0
	octave 2
	note C#, 2
	octave 1
	note A_, 2
	octave 2
	note D_, 2
	octave 1
	note A_, 2
	octave 2
	note D_, 2
	octave 1
	note A_, 2
	octave 2
	note D_, 2
	octave 1
	note A_, 2
;Bar 48
	octave 2
	note C#, 2
	octave 1
	note A_, 2
	octave 2
	note D_, 2
	octave 1
	note A_, 2
	octave 2
	note D_, 2
	octave 1
	note A_, 2
	octave 2
	note D_, 2
	octave 1
	note A#, 2
;Bar 49
	octave 1
	note F_, 2
	note A#, 2
	octave 2
	note D_, 2
	note F_, 2
	note A#, 2
	octave 3
	note D_, 4
	octave 1
	note C_, 2
;Bar 50
	note G_, 2
	octave 2
	note C_, 2
	note E_, 2
	note G_, 2
	octave 3
	note C_, 2
	note E_, 4
	octave 1
	note D_, 2
;Bar 51
	note A_, 2
	octave 2
	note D_, 2
	note F_, 2
	note A_, 2
	octave 3
	note D_, 2
	note F_, 4
	octave 1
	note D_, 2
;Bar 52
	note A_, 2
	octave 2
	note D_, 2
	note F_, 2
	note A_, 2
	octave 3
	note D_, 2
	note F_, 4
	octave 1
	note A#, 2
;Bar 53
	octave 1
	note F_, 2
	note A#, 2
	octave 2
	note D_, 2
	note F_, 2
	note A#, 2
	octave 3
	note D_, 4
	octave 1
	note C_, 2
;Bar 54
	note G_, 2
	octave 2
	note C_, 2
	note E_, 2
	note G_, 2
	octave 3
	note C_, 2
	note E_, 4
	octave 1
	note D_, 2
;Bar 55
	note A_, 2
	octave 2
	note D_, 2
	note F_, 2
	note A_, 2
	octave 3
	note D_, 2
	note F_, 4
	octave 1
	note D_, 2
;Bar 56
	octave 2
	;note D_, 0 | WARNING: Rounded down to 0
	note F_, 2
	octave 1
	note D_, 2
	octave 2
	;note D_, 0 | WARNING: Rounded down to 0
	note F_, 2
	octave 1
	note D_, 2
	octave 2
	;note D_, 0 | WARNING: Rounded down to 0
	note F_, 2
	octave 1
	note D_, 2
	octave 2
	;note D_, 0 | WARNING: Rounded down to 0
	note F_, 2
	octave 1
	note A#, 2
;Bar 57
	octave 1
	;note A#, 0 | WARNING: Rounded down to 0
	octave 2
	note D_, 2
	octave 1
	note A#, 2
	octave 1
	;note A#, 0 | WARNING: Rounded down to 0
	octave 2
	note D_, 2
	octave 1
	note A#, 2
	octave 1
	;note A#, 0 | WARNING: Rounded down to 0
	octave 2
	note D_, 2
	octave 1
	note A#, 2
	octave 1
	;note A#, 0 | WARNING: Rounded down to 0
	octave 2
	note D_, 2
	octave 1
	note C_, 2
;Bar 58
	octave 2
	;note C_, 0 | WARNING: Rounded down to 0
	note E_, 2
	octave 1
	note C_, 2
	octave 2
	;note C_, 0 | WARNING: Rounded down to 0
	note E_, 2
	octave 1
	note C_, 2
	octave 2
	;note C_, 0 | WARNING: Rounded down to 0
	note E_, 2
	octave 1
	note C_, 2
	octave 2
	;note C_, 0 | WARNING: Rounded down to 0
	note E_, 2
	octave 1
	note D_, 2
;Bar 59
	octave 2
	;note D_, 0 | WARNING: Rounded down to 0
	note F_, 2
	octave 1
	note D_, 2
	octave 2
	;note D_, 0 | WARNING: Rounded down to 0
	note F_, 2
	octave 1
	note D_, 2
	octave 2
	;note D_, 0 | WARNING: Rounded down to 0
	note F_, 2
	octave 1
	note D_, 2
	octave 2
	;note D_, 0 | WARNING: Rounded down to 0
	note F_, 2
	octave 1
	note D_, 2
;Bar 60
	octave 2
	;note D_, 0 | WARNING: Rounded down to 0
	note F_, 2
	octave 1
	note D_, 2
	octave 2
	;note D_, 0 | WARNING: Rounded down to 0
	note F_, 2
	octave 1
	note D_, 2
	octave 2
	;note D_, 0 | WARNING: Rounded down to 0
	note F_, 2
	octave 1
	note C_, 2
	octave 2
	;note C_, 0 | WARNING: Rounded down to 0
	note E_, 2
	octave 1
	note A#, 2
;Bar 61
	octave 1
	;note A#, 0 | WARNING: Rounded down to 0
	octave 2
	note D_, 2
	octave 1
	note A#, 2
	octave 1
	;note A#, 0 | WARNING: Rounded down to 0
	octave 2
	note D_, 2
	octave 1
	note A#, 2
	octave 1
	;note A#, 0 | WARNING: Rounded down to 0
	octave 2
	note D_, 2
	octave 1
	note A#, 2
	octave 1
	;note A#, 0 | WARNING: Rounded down to 0
	octave 2
	note D_, 2
	octave 1
	note A#, 2
;Bar 62
	octave 1
	;note A#, 0 | WARNING: Rounded down to 0
	octave 2
	note D_, 2
	octave 1
	note A#, 2
	octave 1
	;note A#, 0 | WARNING: Rounded down to 0
	octave 2
	note D_, 2
	octave 1
	note A#, 2
	octave 1
	;note A#, 0 | WARNING: Rounded down to 0
	octave 2
	note D_, 2
	octave 1
	note A#, 2
	octave 1
	;note A#, 0 | WARNING: Rounded down to 0
	octave 2
	note D_, 2
	octave 1
	;note A_, 0 | WARNING: Rounded down to 0
	octave 1
	note A_, 7
;Bar 63
	rest 1
	octave 1
	;note A_, 0 | WARNING: Rounded down to 0
	octave 1
	note A_, 5
	rest 1
	octave 1
	;note A_, 0 | WARNING: Rounded down to 0
	octave 1
	note A_, 2
	octave 1
	note A_, 4
;Bar 64
	octave 1
	note A_, 2
	octave 1
	note A_, 2
	;note A_, 0 | WARNING: Rounded down to 0
	octave 1
	note A_, 5
	rest 1
	octave 1
	note A_, 2
	note A#, 2
;Bar 65
	octave 1
	;note A#, 0 | WARNING: Rounded down to 0
	octave 2
	note D_, 2
	octave 1
	note A#, 2
	octave 1
	;note A#, 0 | WARNING: Rounded down to 0
	octave 2
	note D_, 2
	octave 1
	note C_, 2
	octave 2
	;note C_, 0 | WARNING: Rounded down to 0
	note E_, 2
	octave 1
	note C_, 2
	octave 2
	;note C_, 0 | WARNING: Rounded down to 0
	note E_, 2
	octave 1
	note D_, 2
;Bar 66
	octave 2
	;note D_, 0 | WARNING: Rounded down to 0
	note F_, 2
	octave 1
	note D_, 2
	octave 2
	;note D_, 0 | WARNING: Rounded down to 0
	note F_, 2
	octave 1
	note D_, 2
	octave 2
	;note D_, 0 | WARNING: Rounded down to 0
	note F_, 2
	octave 1
	note D_, 2
	octave 2
	;note D_, 0 | WARNING: Rounded down to 0
	note F_, 2
	octave 1
	note A#, 2
;Bar 67
	octave 1
	;note A#, 0 | WARNING: Rounded down to 0
	octave 2
	note D_, 2
	octave 1
	note A#, 2
	octave 1
	;note A#, 0 | WARNING: Rounded down to 0
	octave 2
	note D_, 2
	octave 1
	note C_, 2
	octave 2
	;note C_, 0 | WARNING: Rounded down to 0
	note E_, 2
	octave 1
	note C_, 2
	octave 2
	;note C_, 0 | WARNING: Rounded down to 0
	note E_, 2
	octave 1
	note D_, 2
;Bar 68
	octave 2
	note D_, 2
	octave 1
	note E_, 2
	octave 2
	note E_, 2
	octave 1
	note F_, 2
	octave 2
	note F_, 2
	octave 1
	note G_, 2
	octave 2
	note G_, 2
	octave 1
	note A#, 2
;Bar 69
	octave 1
	;note A#, 0 | WARNING: Rounded down to 0
	octave 2
	note D_, 2
	octave 1
	note A#, 2
	octave 1
	;note A#, 0 | WARNING: Rounded down to 0
	octave 2
	note D_, 2
	octave 1
	note C_, 2
	octave 2
	;note C_, 0 | WARNING: Rounded down to 0
	note E_, 2
	octave 1
	note C_, 2
	octave 2
	;note C_, 0 | WARNING: Rounded down to 0
	note E_, 2
	octave 1
	note D_, 2
;Bar 70
	octave 2
	;note D_, 0 | WARNING: Rounded down to 0
	note F_, 2
	octave 1
	note D_, 2
	octave 2
	;note D_, 0 | WARNING: Rounded down to 0
	note F_, 2
	octave 1
	note D_, 2
	octave 2
	;note D_, 0 | WARNING: Rounded down to 0
	note F_, 2
	octave 1
	note D_, 2
	octave 2
	;note D_, 0 | WARNING: Rounded down to 0
	note F_, 2
	octave 1
	note G_, 2
;Bar 71
	octave 1
	note A#, 2
	octave 1
	note G_, 2
	octave 1
	note A#, 2
	octave 1
	note A_, 2
	octave 1
	;note A_, 0 | WARNING: Rounded down to 0
	octave 2
	note C_, 2
	octave 1
	note A_, 2
	octave 1
	;note A_, 0 | WARNING: Rounded down to 0
	octave 2
	note C_, 2
	octave 1
	note A#, 2
;Bar 72
	octave 1
	;note A#, 0 | WARNING: Rounded down to 0
	octave 2
	note D_, 2
	octave 1
	note B_, 2
	octave 1
	;note B_, 0 | WARNING: Rounded down to 0
	octave 2
	note D_, 2
	octave 1
	note C_, 2
	octave 2
	;note C_, 0 | WARNING: Rounded down to 0
	note E_, 2
	octave 1
	note C_, 2
	octave 2
	;note C_, 0 | WARNING: Rounded down to 0
	note E_, 2
	octave 1
	note A#, 2
;Bar 73
	octave 1
	;note A#, 0 | WARNING: Rounded down to 0
	octave 2
	note D_, 2
	octave 1
	note A#, 2
	octave 1
	;note A#, 0 | WARNING: Rounded down to 0
	octave 2
	note D_, 2
	octave 1
	note C_, 2
	octave 2
	;note C_, 0 | WARNING: Rounded down to 0
	note E_, 2
	octave 1
	note C_, 2
	octave 2
	;note C_, 0 | WARNING: Rounded down to 0
	note E_, 2
	octave 1
	note D_, 2
;Bar 74
	octave 2
	;note D_, 0 | WARNING: Rounded down to 0
	note F_, 2
	octave 1
	note D_, 2
	octave 2
	;note D_, 0 | WARNING: Rounded down to 0
	note F_, 2
	octave 1
	note D_, 2
	octave 2
	;note D_, 0 | WARNING: Rounded down to 0
	note F_, 2
	octave 1
	note D_, 2
	octave 2
	;note D_, 0 | WARNING: Rounded down to 0
	note F_, 2
	octave 1
	note A#, 2
;Bar 75
	octave 1
	;note A#, 0 | WARNING: Rounded down to 0
	octave 2
	note D_, 2
	octave 1
	note A#, 2
	octave 1
	;note A#, 0 | WARNING: Rounded down to 0
	octave 2
	note D_, 2
	octave 1
	note C_, 2
	octave 2
	;note C_, 0 | WARNING: Rounded down to 0
	note E_, 2
	octave 1
	note C_, 2
	octave 2
	;note C_, 0 | WARNING: Rounded down to 0
	note E_, 2
	octave 1
	note D_, 2
;Bar 76
	octave 2
	note D_, 2
	octave 1
	note E_, 2
	octave 2
	note E_, 2
	octave 1
	note F_, 2
	octave 2
	note F_, 2
	octave 1
	note G_, 2
	octave 2
	note G_, 2
	octave 1
	note A#, 2
;Bar 77
	octave 1
	;note A#, 0 | WARNING: Rounded down to 0
	octave 2
	note D_, 2
	octave 1
	note A#, 2
	octave 1
	;note A#, 0 | WARNING: Rounded down to 0
	octave 2
	note D_, 2
	octave 1
	note C_, 2
	octave 2
	;note C_, 0 | WARNING: Rounded down to 0
	note E_, 2
	octave 1
	note C_, 2
	octave 2
	;note C_, 0 | WARNING: Rounded down to 0
	note E_, 2
	octave 1
	note D_, 2
;Bar 78
	octave 2
	;note D_, 0 | WARNING: Rounded down to 0
	note F_, 2
	octave 1
	note D_, 2
	octave 2
	;note D_, 0 | WARNING: Rounded down to 0
	note F_, 2
	octave 1
	note D_, 2
	octave 2
	;note D_, 0 | WARNING: Rounded down to 0
	note F_, 2
	octave 1
	note D_, 2
	octave 2
	;note D_, 0 | WARNING: Rounded down to 0
	note F_, 2
	octave 1
	note G_, 2
;Bar 79
	octave 1
	note A#, 2
	octave 1
	note G_, 2
	octave 1
	note A#, 2
	octave 1
	note A_, 2
	octave 1
	;note A_, 0 | WARNING: Rounded down to 0
	octave 2
	note C_, 2
	octave 1
	note A_, 2
	octave 1
	;note A_, 0 | WARNING: Rounded down to 0
	octave 2
	note C_, 2
	octave 1
	note D_, 2
;Bar 80
	octave 2
	;note D_, 0 | WARNING: Rounded down to 0
	note F_, 2
	octave 1
	note D_, 2
	octave 2
	;note D_, 0 | WARNING: Rounded down to 0
	note F_, 2
	octave 1
	note D_, 2
	octave 2
	;note D_, 0 | WARNING: Rounded down to 0
	note F_, 2
	octave 1
	note D_, 2
	octave 2
	;note D_, 0 | WARNING: Rounded down to 0
	note F_, 2
	octave 1
	note D_, 2
;Bar 81
	;note A_, 0 | WARNING: Rounded down to 0
	octave 2
	note D_, 2
	octave 1
	note D_, 2
	;note A_, 0 | WARNING: Rounded down to 0
	octave 2
	note D_, 2
	octave 1
	note D_, 2
	;note A_, 0 | WARNING: Rounded down to 0
	octave 2
	note D_, 2
	octave 1
	note D_, 2
	note A_, 2
	note D_, 2
;Bar 82
	;note A_, 0 | WARNING: Rounded down to 0
	octave 2
	note D_, 2
	octave 1
	note D_, 2
	;note A_, 0 | WARNING: Rounded down to 0
	octave 2
	note D_, 2
	octave 1
	note D_, 2
	;note A_, 0 | WARNING: Rounded down to 0
	octave 2
	note D_, 2
	octave 1
	note D_, 2
	;note A_, 0 | WARNING: Rounded down to 0
	octave 2
	note D_, 2
	octave 1
	note D_, 2
;Bar 83
	;note A_, 0 | WARNING: Rounded down to 0
	octave 2
	note D_, 2
	octave 1
	note D_, 2
	;note A_, 0 | WARNING: Rounded down to 0
	octave 2
	note D_, 2
	octave 1
	note D_, 2
	;note A_, 0 | WARNING: Rounded down to 0
	octave 2
	note D_, 2
	octave 1
	note D_, 2
	note A_, 2
	note D_, 2
;Bar 84
	;note A_, 0 | WARNING: Rounded down to 0
	octave 2
	note D_, 2
	octave 1
	note D_, 2
	;note A_, 0 | WARNING: Rounded down to 0
	octave 2
	note D_, 2
	octave 1
	note D_, 2
	;note A_, 0 | WARNING: Rounded down to 0
	octave 2
	note D_, 2
	octave 1
	note D_, 2
	;note A_, 0 | WARNING: Rounded down to 0
	octave 2
	note D_, 2
	octave 1
	note D_, 2
;Bar 85
	;note A_, 0 | WARNING: Rounded down to 0
	octave 2
	note D_, 2
	octave 1
	note D_, 2
	;note A_, 0 | WARNING: Rounded down to 0
	octave 2
	note D_, 2
	octave 1
	note D_, 2
	;note A_, 0 | WARNING: Rounded down to 0
	octave 2
	note D_, 2
	octave 1
	note D_, 2
	note A_, 2
	note D_, 2
;Bar 86
	;note A_, 0 | WARNING: Rounded down to 0
	octave 2
	note D_, 2
	octave 1
	note D_, 2
	;note A_, 0 | WARNING: Rounded down to 0
	octave 2
	note D_, 2
	octave 1
	note D_, 2
	;note A_, 0 | WARNING: Rounded down to 0
	octave 2
	note D_, 2
	octave 1
	note D_, 2
	;note A_, 0 | WARNING: Rounded down to 0
	octave 2
	note D_, 2
	octave 1
	note D_, 2
;Bar 87
	;note A_, 0 | WARNING: Rounded down to 0
	octave 2
	note D_, 2
	octave 1
	note D_, 2
	;note A_, 0 | WARNING: Rounded down to 0
	octave 2
	note D_, 2
	octave 1
	note D_, 2
	;note A_, 0 | WARNING: Rounded down to 0
	octave 2
	note D_, 2
	octave 1
	note D_, 2
	note A_, 2
	note D_, 2
;Bar 88
	octave 2
	;note D_, 0 | WARNING: Rounded down to 0
	note F_, 2
	octave 1
	note D_, 2
	octave 2
	;note D_, 0 | WARNING: Rounded down to 0
	note F_, 2
	octave 1
	note D_, 2
	octave 2
	;note D_, 0 | WARNING: Rounded down to 0
	note F_, 2
	octave 1
	note D_, 2
	octave 2
	;note D_, 0 | WARNING: Rounded down to 0
	note F_, 2
	octave 1
	note D_, 2
;Bar 89
	octave 2
	;note D_, 0 | WARNING: Rounded down to 0
	note F_, 2
	octave 1
	note D_, 2
	octave 2
	;note D_, 0 | WARNING: Rounded down to 0
	note F_, 2
	octave 1
	note D_, 2
	octave 2
	;note D_, 0 | WARNING: Rounded down to 0
	note F_, 2
	octave 1
	note D_, 2
	octave 2
	;note D_, 0 | WARNING: Rounded down to 0
	note F_, 2
	octave 1
	note D_, 2
;Bar 90
	octave 2
	;note D_, 0 | WARNING: Rounded down to 0
	note F_, 2
	octave 1
	note D_, 2
	octave 2
	;note D_, 0 | WARNING: Rounded down to 0
	note F_, 2
	octave 1
	note D_, 2
	octave 2
	;note D_, 0 | WARNING: Rounded down to 0
	note F_, 2
	octave 1
	note D_, 2
	octave 2
	;note D_, 0 | WARNING: Rounded down to 0
	note F_, 2
	octave 1
	note D_, 2
;Bar 91
	octave 2
	;note D_, 0 | WARNING: Rounded down to 0
	note F_, 2 ; WARNING: Auto-Sync says: Rounded up!
	octave 1
	note D_, 2 ; WARNING: Auto-Sync says: Rounded up!
	octave 2
	;note D_, 0 | WARNING: Rounded down to 0
	note F_, 2
	octave 1
	note D_, 2
	octave 2
	;note D_, 0 | WARNING: Rounded down to 0
	note F_, 2
	octave 1
	note D_, 2
	octave 2
	;note D_, 0 | WARNING: Rounded down to 0
	note F_, 2
	octave 1
	note D_, 2
;Bar 92
	octave 2
	;note D_, 0 | WARNING: Rounded down to 0
	note F_, 2
	octave 1
	note D_, 2
	octave 2
	;note D_, 0 | WARNING: Rounded down to 0
	note F_, 2
	octave 1
	note D_, 2
	octave 2
	;note D_, 0 | WARNING: Rounded down to 0
	note F_, 2
	octave 1
	note D_, 2
	octave 2
	;note D_, 0 | WARNING: Rounded down to 0
	note F_, 2
	octave 1
	note D_, 2
;Bar 93
	octave 2
	;note D_, 0 | WARNING: Rounded down to 0
	note F_, 2
	octave 1
	note D_, 2
	octave 2
	;note D_, 0 | WARNING: Rounded down to 0
	note F_, 2
	octave 1
	note D_, 2
	octave 2
	;note D_, 0 | WARNING: Rounded down to 0
	note F_, 2
	octave 1
	note D_, 2
	octave 2
	;note D_, 0 | WARNING: Rounded down to 0
	note F_, 2
	octave 1
	note D_, 2
;Bar 94
	octave 2
	;note D_, 0 | WARNING: Rounded down to 0
	note F_, 2
	octave 1
	note D_, 2
	octave 2
	;note D_, 0 | WARNING: Rounded down to 0
	note F_, 2
	octave 1
	note D_, 2
	octave 2
	;note D_, 0 | WARNING: Rounded down to 0
	note F_, 2
	octave 1
	note D_, 2
	octave 2
	;note D_, 0 | WARNING: Rounded down to 0
	note F_, 2
	octave 1
	note D_, 2
;Bar 95
	octave 2
	;note D_, 0 | WARNING: Rounded down to 0
	note F_, 2
	octave 1
	note D_, 2
	octave 2
	;note D_, 0 | WARNING: Rounded down to 0
	note F_, 2
	octave 1
	note D_, 2
	octave 2
	;note D_, 0 | WARNING: Rounded down to 0
	note F_, 2
	octave 1
	note D_, 2
	octave 2
	;note D_, 0 | WARNING: Rounded down to 0
	note F_, 2
	octave 1
	note D_, 2
;Bar 96
	octave 2
	;note D_, 0 | WARNING: Rounded down to 0
	note F_, 2
	octave 1
	note D_, 2
	octave 2
	;note D_, 0 | WARNING: Rounded down to 0
	note F_, 2
	octave 1
	note D_, 2
	octave 2
	;note D_, 0 | WARNING: Rounded down to 0
	note F_, 2
	octave 1
	note D_, 2
	octave 2
	;note D_, 0 | WARNING: Rounded down to 0
	note F_, 2
	octave 1
	note A#, 2
;Bar 97
	octave 1
	;note A#, 0 | WARNING: Rounded down to 0
	octave 2
	note D_, 2
	octave 1
	note A#, 2
	octave 1
	;note A#, 0 | WARNING: Rounded down to 0
	octave 2
	note D_, 2
	octave 1
	note C_, 2
	octave 2
	;note C_, 0 | WARNING: Rounded down to 0
	note E_, 2
	octave 1
	note C_, 2
	octave 2
	;note C_, 0 | WARNING: Rounded down to 0
	note E_, 2
	octave 1
	note D_, 2
;Bar 98
	octave 2
	;note D_, 0 | WARNING: Rounded down to 0
	note F_, 2
	octave 1
	note D_, 2
	octave 2
	;note D_, 0 | WARNING: Rounded down to 0
	note F_, 2
	octave 1
	note D_, 2
	octave 2
	;note D_, 0 | WARNING: Rounded down to 0
	note F_, 2
	octave 1
	note D_, 2
	octave 2
	;note D_, 0 | WARNING: Rounded down to 0
	note F_, 2
	octave 1
	note A#, 2
;Bar 99
	octave 1
	;note A#, 0 | WARNING: Rounded down to 0
	octave 2
	note D_, 2
	octave 1
	note A#, 2
	octave 1
	;note A#, 0 | WARNING: Rounded down to 0
	octave 2
	note D_, 2
	octave 1
	note C_, 2
	octave 2
	;note C_, 0 | WARNING: Rounded down to 0
	note E_, 2
	octave 1
	note C_, 2
	octave 2
	;note C_, 0 | WARNING: Rounded down to 0
	note E_, 2
	octave 1
	note D_, 2
;Bar 100
	octave 2
	note D_, 2
	octave 1
	note E_, 2
	octave 2
	note E_, 2
	octave 1
	note F_, 2
	octave 2
	note F_, 2
	octave 1
	note G_, 2
	octave 2
	note G_, 2
	octave 1
	note A#, 2
;Bar 101
	octave 1
	;note A#, 0 | WARNING: Rounded down to 0
	octave 2
	note D_, 2
	octave 1
	note A#, 2
	octave 1
	;note A#, 0 | WARNING: Rounded down to 0
	octave 2
	note D_, 2
	octave 1
	note C_, 2
	octave 2
	;note C_, 0 | WARNING: Rounded down to 0
	note E_, 2
	octave 1
	note C_, 2
	octave 2
	;note C_, 0 | WARNING: Rounded down to 0
	note E_, 2
	octave 1
	note D_, 2
;Bar 102
	octave 2
	;note D_, 0 | WARNING: Rounded down to 0
	note F_, 2
	octave 1
	note D_, 2
	octave 2
	;note D_, 0 | WARNING: Rounded down to 0
	note F_, 2
	octave 1
	note D_, 2
	octave 2
	;note D_, 0 | WARNING: Rounded down to 0
	note F_, 2
	octave 1
	note D_, 2
	octave 2
	;note D_, 0 | WARNING: Rounded down to 0
	note F_, 2
	octave 1
	note G_, 2
;Bar 103
	octave 1
	note A#, 2
	octave 1
	note G_, 2
	octave 1
	note A#, 2
	octave 1
	note A_, 2
	octave 1
	;note A_, 0 | WARNING: Rounded down to 0
	octave 2
	note C_, 2
	octave 1
	note A_, 2
	octave 1
	;note A_, 0 | WARNING: Rounded down to 0
	octave 2
	note C_, 2
	octave 1
	note A#, 2
;Bar 104
	octave 1
	;note A#, 0 | WARNING: Rounded down to 0
	octave 2
	note D_, 2
	octave 1
	note B_, 2
	octave 1
	;note B_, 0 | WARNING: Rounded down to 0
	octave 2
	note D_, 2
	octave 1
	note C_, 2
	octave 2
	;note C_, 0 | WARNING: Rounded down to 0
	note E_, 2
	octave 1
	note C_, 2
	octave 2
	;note C_, 0 | WARNING: Rounded down to 0
	note E_, 2
	octave 1
	note A#, 2
;Bar 105
	octave 1
	;note A#, 0 | WARNING: Rounded down to 0
	octave 2
	note D_, 2
	octave 1
	note A#, 2
	octave 1
	;note A#, 0 | WARNING: Rounded down to 0
	octave 2
	note D_, 2
	octave 1
	note C_, 2
	octave 2
	;note C_, 0 | WARNING: Rounded down to 0
	note E_, 2
	octave 1
	note C_, 2
	octave 2
	;note C_, 0 | WARNING: Rounded down to 0
	note E_, 2
	octave 1
	note D_, 2
;Bar 106
	octave 2
	;note D_, 0 | WARNING: Rounded down to 0
	note F_, 2
	octave 1
	note D_, 2
	octave 2
	;note D_, 0 | WARNING: Rounded down to 0
	note F_, 2
	octave 1
	note D_, 2
	octave 2
	;note D_, 0 | WARNING: Rounded down to 0
	note F_, 2
	octave 1
	note D_, 2
	octave 2
	;note D_, 0 | WARNING: Rounded down to 0
	note F_, 2
	octave 1
	note A#, 2
;Bar 107
	octave 1
	;note A#, 0 | WARNING: Rounded down to 0
	octave 2
	note D_, 2
	octave 1
	note A#, 2
	octave 1
	;note A#, 0 | WARNING: Rounded down to 0
	octave 2
	note D_, 2
	octave 1
	note C_, 2
	octave 2
	;note C_, 0 | WARNING: Rounded down to 0
	note E_, 2
	octave 1
	note C_, 2
	octave 2
	;note C_, 0 | WARNING: Rounded down to 0
	note E_, 2
	octave 1
	note D_, 2
;Bar 108
	octave 2
	note D_, 2
	octave 1
	note E_, 2
	octave 2
	note E_, 2
	octave 1
	note F_, 2
	octave 2
	note F_, 2
	octave 1
	note G_, 2
	octave 2
	note G_, 2
	octave 1
	note A#, 2
;Bar 109
	octave 1
	;note A#, 0 | WARNING: Rounded down to 0
	octave 2
	note D_, 2
	octave 1
	note A#, 2
	octave 1
	;note A#, 0 | WARNING: Rounded down to 0
	octave 2
	note D_, 2
	octave 1
	note C_, 2
	octave 2
	;note C_, 0 | WARNING: Rounded down to 0
	note E_, 2
	octave 1
	note C_, 2
	octave 2
	;note C_, 0 | WARNING: Rounded down to 0
	note E_, 2
	octave 1
	note D_, 2
;Bar 110
	octave 2
	;note D_, 0 | WARNING: Rounded down to 0
	note F_, 2
	octave 1
	note D_, 2
	octave 2
	;note D_, 0 | WARNING: Rounded down to 0
	note F_, 2
	octave 1
	note D_, 2
	octave 2
	;note D_, 0 | WARNING: Rounded down to 0
	note F_, 2
	octave 1
	note D_, 2
	octave 2
	;note D_, 0 | WARNING: Rounded down to 0
	note F_, 2
	octave 1
	note G_, 2
;Bar 111
	octave 1
	note A#, 2
	octave 1
	note G_, 2
	octave 1
	note A#, 2
	octave 1
	note A_, 2
	octave 1
	;note A_, 0 | WARNING: Rounded down to 0
	octave 2
	note C_, 2
	octave 1
	note A_, 2
	;note A#, 0 | WARNING: Rounded down to 0
	octave 1
	note A#, 6
;Bar 112
	octave 1
	;note B_, 0 | WARNING: Rounded down to 0
	octave 1
	note B_, 4
	;note C_, 0 | WARNING: Rounded down to 0
	octave 2
	note C_, 7
	rest 1
	octave 1
	note B_, 2
;Bar 113
	octave 1
	;note B_, 0 | WARNING: Rounded down to 0
	octave 2
	note D#, 2
	octave 1
	note A#, 2
	octave 2
	note D#, 2
	octave 1
	note C#, 2
	octave 2
	;note C#, 0 | WARNING: Rounded down to 0
	note F_, 2
	octave 1
	note C#, 2
	octave 2
	;note C#, 0 | WARNING: Rounded down to 0
	note F_, 2
	octave 1
	note D#, 2
;Bar 114
	octave 2
	;note D#, 0 | WARNING: Rounded down to 0
	note F#, 2
	octave 1
	note D#, 2
	octave 2
	;note D#, 0 | WARNING: Rounded down to 0
	note F#, 2
	octave 1
	note D#, 2
	octave 2
	;note D#, 0 | WARNING: Rounded down to 0
	note F#, 2
	octave 1
	note D#, 2
	octave 2
	;note D#, 0 | WARNING: Rounded down to 0
	note F#, 2
	octave 1
	note B_, 2
;Bar 115
	octave 2
	note D#, 2
	octave 1
	note A#, 2
	octave 2
	note D#, 2
	octave 1
	note C#, 2
	octave 2
	;note C#, 0 | WARNING: Rounded down to 0
	note F_, 2
	octave 1
	note C#, 2
	octave 2
	;note C#, 0 | WARNING: Rounded down to 0
	note F_, 2
	octave 1
	note D#, 2
;Bar 116
	octave 2
	note D#, 2
	octave 1
	note F_, 2
	octave 2
	note F_, 2
	octave 1
	note F#, 2
	octave 2
	note F#, 2
	octave 1
	note G#, 2
	octave 2
	note G#, 2
	octave 1
	note B_, 2
;Bar 117
	octave 2
	note D#, 2
	octave 1
	note A#, 2
	octave 2
	note D#, 2
	octave 1
	note C#, 2
	octave 2
	;note C#, 0 | WARNING: Rounded down to 0
	note F_, 2
	octave 1
	note C#, 2
	octave 2
	;note C#, 0 | WARNING: Rounded down to 0
	note F_, 2
	octave 1
	note D#, 2
;Bar 118
	octave 2
	;note D#, 0 | WARNING: Rounded down to 0
	note F#, 2
	octave 1
	note D#, 2
	octave 2
	;note D#, 0 | WARNING: Rounded down to 0
	note F#, 2
	octave 1
	note D#, 2
	octave 2
	;note D#, 0 | WARNING: Rounded down to 0
	note F#, 2
	octave 1
	note D#, 2
	octave 2
	;note D#, 0 | WARNING: Rounded down to 0
	note F#, 2
	octave 1
	note G#, 2
;Bar 119
	octave 1
	;note A_, 0 | WARNING: Rounded down to 0
	note A#, 2
	octave 1
	note G#, 2
	octave 1
	;note G#, 0 | WARNING: Rounded down to 0
	note A#, 2
	octave 1
	note A#, 2
	octave 1
	;note A#, 0 | WARNING: Rounded down to 0
	octave 2
	note C#, 2
	octave 1
	note B_, 2
	octave 1
	;note B_, 0 | WARNING: Rounded down to 0
	octave 2
	note C#, 2
	octave 1
	note B_, 2
;Bar 120
	octave 1
	note B_, 2
	note C_, 2
	octave 2
	note C_, 2
	octave 1
	note C#, 2
	octave 2
	;note C#, 0 | WARNING: Rounded down to 0
	note E_, 2
	octave 1
	note C#, 2
	octave 2
	;note C#, 0 | WARNING: Rounded down to 0
	note E_, 2
	octave 1
	note B_, 2
;Bar 121
	octave 2
	note D#, 2
	octave 1
	note A#, 2
	octave 2
	note D#, 2
	octave 1
	note C#, 2
	octave 2
	;note C#, 0 | WARNING: Rounded down to 0
	note F_, 2
	octave 1
	note C#, 2
	octave 2
	;note C#, 0 | WARNING: Rounded down to 0
	note F_, 2
	octave 1
	note D#, 2
;Bar 122
	octave 2
	;note D#, 0 | WARNING: Rounded down to 0
	note F#, 2
	octave 1
	note D#, 2
	octave 2
	;note D#, 0 | WARNING: Rounded down to 0
	note F#, 2
	octave 1
	note D#, 2
	octave 2
	;note D#, 0 | WARNING: Rounded down to 0
	note F#, 2
	octave 1
	note D#, 2
	octave 2
	;note D#, 0 | WARNING: Rounded down to 0
	note F#, 2
	octave 1
	note B_, 2
;Bar 123
	octave 2
	note D#, 2
	octave 1
	note A#, 2
	octave 2
	note D#, 2
	octave 1
	note C#, 2
	octave 2
	;note C#, 0 | WARNING: Rounded down to 0
	note F_, 2
	octave 1
	note C#, 2
	octave 2
	;note C#, 0 | WARNING: Rounded down to 0
	note F_, 2
	octave 1
	note D#, 2
;Bar 124
	octave 2
	note D#, 2
	octave 1
	note F_, 2
	octave 2
	note F_, 2
	octave 1
	note F#, 2
	octave 2
	note F#, 2
	octave 1
	note G#, 2
	octave 2
	note G#, 2
	octave 1
	note B_, 2
;Bar 125
	octave 2
	note D#, 2
	octave 1
	note A#, 2
	octave 2
	note D#, 2
	octave 1
	note C#, 2
	octave 2
	;note C#, 0 | WARNING: Rounded down to 0
	note F_, 2
	octave 1
	note C#, 2
	octave 2
	;note C#, 0 | WARNING: Rounded down to 0
	note F_, 2
	octave 1
	note D#, 2
;Bar 126
	octave 2
	;note D#, 0 | WARNING: Rounded down to 0
	note F#, 2
	octave 1
	note D#, 2
	octave 2
	;note D#, 0 | WARNING: Rounded down to 0
	note F#, 2
	octave 1
	note D#, 2
	octave 2
	;note D#, 0 | WARNING: Rounded down to 0
	note F#, 2
	octave 1
	note D#, 2
	octave 2
	;note D#, 0 | WARNING: Rounded down to 0
	note F#, 2
	octave 1
	note A#, 2
;Bar 127
	octave 1
	note B_, 2
	octave 1
	note B_, 2
	octave 1
	note A#, 2
	note C#, 2
	octave 2
	note C#, 2
	octave 1
	note C#, 2
	octave 2
	note C#, 2
	octave 1
	note D#, 2
;Bar 128
	octave 2
	;note D#, 0 | WARNING: Rounded down to 0
	note F#, 2
	octave 1
	note D#, 2
	octave 2
	;note D#, 0 | WARNING: Rounded down to 0
	note F#, 2
	octave 1
	note D#, 2
	octave 2
	;note D#, 0 | WARNING: Rounded down to 0
	note F#, 2
	octave 1
	note D#, 2
	octave 2
	;note D#, 0 | WARNING: Rounded down to 0
	note F#, 2
	octave 1
	note B_, 2
;Bar 129
	octave 2
	note D#, 2
	octave 1
	note A#, 2
	octave 2
	note D#, 2
	octave 1
	note A#, 2
	octave 2
	note D#, 2
	octave 1
	note A#, 2
	octave 2
	note D#, 2
	octave 1
	note C#, 2
;Bar 130
	octave 2
	;note C#, 0 | WARNING: Rounded down to 0
	note F_, 2
	octave 1
	note C#, 2
	octave 2
	;note C#, 0 | WARNING: Rounded down to 0
	note F_, 2
	octave 1
	note C#, 2
	octave 2
	;note C#, 0 | WARNING: Rounded down to 0
	note F_, 2
	octave 1
	note C#, 2
	octave 2
	;note C#, 0 | WARNING: Rounded down to 0
	note F_, 2
	octave 1
	note D#, 2
;Bar 131
	octave 2
	;note D#, 0 | WARNING: Rounded down to 0
	note F#, 2
	octave 1
	note D#, 2
	octave 2
	;note D#, 0 | WARNING: Rounded down to 0
	note F#, 2
	octave 1
	note D#, 2
	octave 2
	;note D#, 0 | WARNING: Rounded down to 0
	note F#, 2
	octave 1
	note D#, 2
	octave 2
	;note D#, 0 | WARNING: Rounded down to 0
	note F#, 2
	octave 1
	note D#, 2
;Bar 132
	octave 2
	;note D#, 0 | WARNING: Rounded down to 0
	note F#, 2
	octave 1
	note D#, 2
	octave 2
	;note D#, 0 | WARNING: Rounded down to 0
	note F#, 2
	octave 1
	note C#, 2
	octave 2
	;note C#, 0 | WARNING: Rounded down to 0
	note F_, 2
	octave 1
	note C#, 2
	octave 2
	;note C#, 0 | WARNING: Rounded down to 0
	note F_, 2
	octave 1
	note B_, 2
;Bar 133
	octave 2
	note D#, 2
	octave 1
	note A#, 2
	octave 2
	note D#, 2
	octave 1
	note A#, 2
	octave 2
	note D#, 2
	octave 1
	note A#, 2
	octave 2
	note D#, 2
	octave 1
	note C#, 2
;Bar 134
	octave 2
	;note C#, 0 | WARNING: Rounded down to 0
	note F_, 2
	octave 1
	note C#, 2
	octave 2
	;note C#, 0 | WARNING: Rounded down to 0
	note F_, 2
	octave 1
	note C#, 2
	octave 2
	;note C#, 0 | WARNING: Rounded down to 0
	note F_, 2
	octave 1
	note C#, 2
	octave 2
	;note C#, 0 | WARNING: Rounded down to 0
	note F_, 2
	octave 1
	note D#, 2
;Bar 135
	octave 2
	;note D#, 0 | WARNING: Rounded down to 0
	note F#, 2
	octave 1
	note D#, 2
	octave 2
	;note D#, 0 | WARNING: Rounded down to 0
	note F#, 2
	octave 1
	note D#, 2
	octave 2
	;note D#, 0 | WARNING: Rounded down to 0
	note F#, 2
	octave 1
	note D#, 2
	octave 2
	;note D#, 0 | WARNING: Rounded down to 0
	note F#, 2
	octave 1
	note D#, 2
;Bar 136
	octave 2
	;note D#, 0 | WARNING: Rounded down to 0
	note F#, 2
	octave 1
	note D#, 2
	octave 2
	;note D#, 0 | WARNING: Rounded down to 0
	note F#, 2
	octave 1
	note C#, 2
	octave 2
	;note C#, 0 | WARNING: Rounded down to 0
	note F_, 2
	octave 1
	note C#, 2
	octave 2
	;note C#, 0 | WARNING: Rounded down to 0
	note F_, 2
	octave 1
	note B_, 2
;Bar 137
	octave 2
	note D#, 2
	octave 1
	note A#, 2
	octave 2
	note D#, 2
	octave 1
	note A#, 2
	octave 2
	note D#, 2
	octave 1
	note A#, 2
	octave 2
	note D#, 2
	octave 1
	note C#, 2
;Bar 138
	octave 2
	;note C#, 0 | WARNING: Rounded down to 0
	note F_, 2
	octave 1
	note C#, 2
	octave 2
	;note C#, 0 | WARNING: Rounded down to 0
	note F_, 2
	octave 1
	note C#, 2
	octave 2
	;note C#, 0 | WARNING: Rounded down to 0
	note F_, 2
	octave 1
	note C#, 2
	octave 2
	;note C#, 0 | WARNING: Rounded down to 0
	note F_, 2
	octave 1
	note D#, 2
;Bar 139
	octave 2
	;note D#, 0 | WARNING: Rounded down to 0
	note F#, 2
	octave 1
	note D#, 2
	octave 2
	;note D#, 0 | WARNING: Rounded down to 0
	note F#, 2
	octave 1
	note D#, 2
	octave 2
	;note D#, 0 | WARNING: Rounded down to 0
	note F#, 2
	octave 1
	note D#, 2
	octave 2
	;note D#, 0 | WARNING: Rounded down to 0
	note F#, 2
	octave 1
	note D#, 2
;Bar 140
	octave 2
	;note D#, 0 | WARNING: Rounded down to 0
	note F#, 2
	octave 1
	note D#, 2
	octave 2
	;note D#, 0 | WARNING: Rounded down to 0
	note F#, 2
	octave 1
	note C#, 2
	octave 2
	;note C#, 0 | WARNING: Rounded down to 0
	note F_, 2
	octave 1
	note C#, 2
	octave 2
	;note C#, 0 | WARNING: Rounded down to 0
	note F_, 2
	octave 1
	note B_, 2
;Bar 141
	octave 2
	note D#, 2
	octave 1
	note A#, 2
	octave 2
	note D#, 2
	octave 1
	note A#, 2
	octave 2
	note D#, 2
	octave 1
	note A#, 2
	octave 2
	note D#, 2
	octave 1
	note C#, 2
;Bar 142
	octave 2
	;note C#, 0 | WARNING: Rounded down to 0
	note F_, 2
	octave 1
	note C#, 2
	octave 2
	;note C#, 0 | WARNING: Rounded down to 0
	note F_, 2
	octave 1
	note C#, 2
	octave 2
	;note C#, 0 | WARNING: Rounded down to 0
	note F_, 2
	octave 1
	note C#, 2
	rest 2
	octave 1
	note D#, 4
;Bar 143
	octave 1
	note D#, 3
	note A#, 1
	octave 2
	note D#, 1
	note G_, 12
;Bar 144
	rest 16
	rest 7
;Bar 145
	octave 4
	;note E_, 0 | WARNING: Rounded down to 0
	note G_, 7
;Bar 146
	rest 2
	;note D_, 0 | WARNING: Rounded down to 0
	;note F#, 0 | WARNING: Rounded down to 0
	note A_, 7
	rest 1
	note C#, 1
	;note E_, 0 | WARNING: Rounded down to 0
	note G_, 6
;Bar 147
	rest 2
	;note C_, 0 | WARNING: Rounded down to 0
	;note E_, 0 | WARNING: Rounded down to 0
	note G_, 7
	rest 5
;Bar 148
	octave 3
	note A_, 1
	octave 4
	;note C_, 0 | WARNING: Rounded down to 0
	note E_, 6
	rest 2
	octave 3
	;note B_, 0 | WARNING: Rounded down to 0
	octave 4
	;note D_, 0 | WARNING: Rounded down to 0
	note F#, 7
;Bar 149
	rest 1
	note C_, 1
	;note E_, 0 | WARNING: Rounded down to 0
	note G_, 6
	rest 2
	;note D_, 0 | WARNING: Rounded down to 0
	;note F#, 0 | WARNING: Rounded down to 0
	note A_, 7
	sound_ret

; ============================================================================================================

