;Coverted using MIDI2ASM
;Code by TriteHexagon
;Version 5.2.0 (16-Nov-2022)
;Visit github.com/TriteHexagon/Midi2ASM-Converter for up-to-date versions.

; ============================================================================================================

Music_Placeholder:
	channel_count 1
	channel 1, Music_Placeholder_Ch1

Music_Placeholder_Ch1:
	volume 7, 7
	duty_cycle 2
	note_type 12, 10, 7
	tempo 185
;Bar 5
	octave 5
	volume_envelope 12, 7
	note A_, 8
	octave 6
	note A_, 4
	note G_, 4
;Bar 6
	note F_, 8
	note E_, 4
	note D_, 4
;Bar 7
	note E_, 16
	note E_, 16
;Bar 9
	note D_, 8
	note E_, 4
	note D_, 4
;Bar 10
	note C_, 8
	octave 5
	note B_, 4
	octave 6
	note C_, 4
;Bar 11
	octave 5
	note A_, 16
	note A_, 12
;Bar 12
	note A_, 4
;Bar 13
	note G_, 12
	note E_, 4
;Bar 14
	note A_, 8
	note B_, 4
	octave 6
	note C_, 4
;Bar 15
	note D_, 8
	note C_, 4
	note D_, 4
;Bar 16
	octave 5
	note B_, 8
	octave 6
	note F_, 8
;Bar 17
	note E_, 16
;Bar 18
	note E_, 4
	note D_, 4
	note C_, 4
	octave 5
	note B_, 4
;Bar 19
	note A_, 8
	octave 6
	note A_, 4
	note G_, 4
;Bar 20
	note F_, 8
	note E_, 4
	note D_, 4
;Bar 21
	note E_, 16
	note E_, 16
;Bar 23
	note D_, 8
	note E_, 4
	note D_, 4
;Bar 24
	note C_, 8
	octave 5
	note B_, 4
	octave 6
	note C_, 4
;Bar 25
	octave 5
	note A_, 16
	note A_, 16
	sound_ret