Music_OuttaTouch:
	channel_count 3
	channel 1, Music_OuttaTouch_Ch1
	channel 2, Music_OuttaTouch_Ch2
	channel 3, Music_OuttaTouch_Ch3

Music_OuttaTouch_Ch1:
	volume 7, 7
	note_type 12, 7, 7
	tempo 132
.mainloop:
	rest 4
	octave 3
	duty_cycle 1
	volume_envelope 12, 7
	note E_, 2
	note D_, 2
	rest 2
	note E_, 2
	note D_, 4
	rest 4
	note C_, 2
	note D_, 2
	rest 2
	note C_, 2
	note E_, 4
	rest 4
	octave 2
	note A_, 2
	note A_, 2
	octave 3
	note C_, 2
	note C_, 2
	note D_, 4
	note E_, 4
	note D_, 2
	note D_, 2
	note C_, 2
	octave 2
	note B_, 4
	note A_, 4
	rest 2
	octave 3
	note E_, 2
	note D_, 2
	rest 2
	note E_, 2
	note D_, 4
	rest 4
	note C_, 2
	note D_, 2
	rest 2
	note C_, 2
	note E_, 4
	rest 4
	octave 2
	note A_, 2
	note A_, 2
	octave 3
	note C_, 2
	note C_, 2
	note D_, 4
	note E_, 4
	note D_, 2
	note D_, 2
	note C_, 2
	octave 2
	note B_, 4
	note A_, 4
	rest 8
	note G_, 2
	note A_, 2
	octave 3
	note D_, 4
	rest 8
	note C_, 2
	note D_, 2
	note E_, 2
	rest 16
	rest 4
	note E_, 2
	note G_, 2
	note G_, 2
	note E_, 2
	rest 2
	note E_, 2
	note E_, 2
	note G_, 2
	note E_, 2
	note A_, 2
	note E_, 4
	rest 4
	note F_, 2
	note F_, 2
	note E_, 2
	note E_, 2
	note C_, 2
	octave 2
	note A_, 2
	note A_, 2
	note A_, 2
	octave 3
	note F_, 2
	note G_, 2
	note E_, 2
	note C_, 2
	note D_, 4
	rest 6
	note D_, 2
	note D_, 2
	note G_, 2
	note G_, 4
	note D_, 4
	note E_, 2
	note G_, 2
	note A_, 2
	note E_, 2
	rest 6
	note E_, 2
	note F_, 2
	note F_, 2
	note E_, 2
	note E_, 2
	note C_, 2
	octave 2
	note A_, 2
	note A_, 2
	note A_, 2
	octave 3
	note F_, 2
	note G_, 2
	note E_, 2
	note C_, 2
	octave 2
	note A_, 2
	octave 3
	note E_, 2
	note D_, 4
	rest 2
	note G_, 2
	note A_, 2
	note G_, 2
	note G_, 2
	note E_, 2
	rest 2
	note E_, 2
	note E_, 2
	note G_, 2
	note E_, 2
	note A_, 2
	rest 2
	note G_, 2
	rest 2
	note E_, 2
	note F_, 4
	note E_, 2
	note C_, 2
	note C_, 2
	note C_, 2
	octave 2
	note A_, 4
	octave 3
	note F_, 2
	note G_, 2
	note E_, 2
	note C_, 2
	octave 2
	note A_, 2
	octave 3
	note E_, 2
	note D_, 4
	rest 2
	note C_, 2
	note E_, 2
	note G_, 2
	note G_, 2
	note E_, 2
	rest 2
	note E_, 2
	note A_, 4
	note G_, 2
	note E_, 2
	note C_, 2
	note D_, 2
	note E_, 2
	note D_, 2
	octave 2
	note A_, 8
	rest 4
	sound_loop 0, .mainloop

Music_OuttaTouch_Ch2:
	duty_cycle 1
	note_type 12, 7, 7
.mainloop:
	octave 4
	volume_envelope 12, 7
	note F_, 2
	octave 3
	note F_, 2
	octave 4
	note E_, 2
	note D_, 2
	octave 3
	note F_, 2
	octave 4
	note E_, 2
	note D_, 2
	octave 3
	note F_, 2
	octave 4
	note D_, 4
	note C_, 2
	note D_, 2
	octave 3
	note G_, 2
	octave 4
	note C_, 2
	note E_, 2
	octave 3
	note G_, 2
	octave 4
	note A_, 2
	octave 3
	note A_, 2
	note A_, 2
	note A_, 2
	octave 4
	note C_, 2
	note C_, 2
	note D_, 2
	octave 3
	note G_, 2
	octave 4
	note E_, 2
	octave 3
	note A_, 2
	octave 4
	note D_, 2
	note D_, 2
	note C_, 2
	octave 3
	note B_, 4
	note A_, 4
	note F_, 2
	octave 4
	note E_, 2
	note D_, 2
	octave 3
	note F_, 2
	octave 4
	note E_, 2
	note D_, 2
	octave 3
	note F_, 2
	octave 4
	note D_, 4
	note C_, 2
	note D_, 2
	octave 3
	note G_, 2
	octave 4
	note C_, 2
	note E_, 2
	octave 3
	note G_, 2
	octave 4
	note A_, 2
	octave 3
	note A_, 2
	note A_, 2
	note A_, 2
	octave 4
	note C_, 2
	note C_, 2
	note D_, 2
	octave 3
	note G_, 2
	octave 4
	note E_, 2
	octave 3
	note A_, 2
	octave 4
	note D_, 2
	note D_, 2
	note C_, 2
	octave 3
	note B_, 4
	note A_, 4
	note F_, 2
	octave 4
	note F_, 2
	octave 3
	note F_, 2
	note F_, 2
	note G_, 2
	note A_, 2
	octave 4
	note D_, 2
	note D_, 4
	note G_, 4
	octave 3
	note G_, 2
	octave 4
	note C_, 2
	note D_, 2
	note E_, 2
	rest 16
	octave 3
	note D_, 2
	octave 2
	note G_, 2
	octave 3
	note E_, 2
	note G_, 2
	note G_, 2
	note E_, 2
	note F_, 2
	note E_, 2
	note D_, 2
	note G_, 2
	note E_, 2
	note A_, 2
	note E_, 2
	octave 2
	note G_, 2
	note E_, 2
	octave 3
	note E_, 2
	note F_, 2
	note F_, 2
	note E_, 2
	octave 2
	note D_, 2
	octave 3
	note C_, 2
	octave 2
	note A_, 2
	octave 3
	note D_, 2
	octave 2
	note D_, 2
	octave 3
	note F_, 2
	note G_, 2
	note E_, 2
	note C_, 2
	note D_, 4
	note E_, 2
	octave 2
	note E_, 2
	octave 3
	note D_, 2
	note D_, 2
	note D_, 2
	note G_, 2
	note G_, 2
	note D_, 2
	note D_, 2
	octave 2
	note G_, 2
	octave 3
	note E_, 2
	note G_, 2
	note A_, 2
	note E_, 2
	note D_, 4
	note E_, 2
	note E_, 2
	note F_, 2
	octave 2
	note D_, 2
	octave 3
	note E_, 2
	note C_, 2
	note C_, 4
	octave 2
	note A_, 2
	note A_, 2
	octave 3
	note F_, 2
	note G_, 2
	note E_, 2
	note C_, 2
	octave 2
	note A_, 2
	octave 3
	note E_, 2
	note D_, 2
	octave 2
	note G_, 2
	octave 3
	note E_, 2
	note G_, 2
	note A_, 2
	note G_, 2
	note G_, 2
	note E_, 2
	note C_, 2
	note E_, 2
	note E_, 2
	note G_, 2
	note E_, 2
	note A_, 2
	octave 2
	note G_, 2
	octave 3
	note G_, 2
	octave 2
	note G_, 2
	octave 3
	note E_, 2
	note F_, 2
	octave 2
	note F_, 2
	octave 3
	note E_, 2
	note C_, 2
	note C_, 2
	note C_, 2
	octave 2
	note A_, 2
	note E_, 2
	octave 3
	note F_, 2
	note G_, 2
	note E_, 2
	note C_, 2
	octave 2
	note A_, 2
	octave 3
	note E_, 2
	note D_, 2
	octave 2
	note A_, 2
	octave 3
	note C_, 2
	note C_, 2
	note E_, 2
	note G_, 2
	note G_, 2
	note E_, 4
	note E_, 2
	note A_, 4
	note G_, 2
	note E_, 2
	octave 2
	note F_, 2
	octave 3
	note D_, 2
	note E_, 2
	octave 2
	rest 14
	sound_loop 0, .mainloop

Music_OuttaTouch_Ch3:
	note_type 12, 2, 0
	octave 3
.mainloop:
	note A_, 16
	note A_, 4
	note B_, 12
	note A_, 8
	note B_, 8
	note A_, 10
	note B_, 4
	note A_, 16
	note A_, 2
	note A_, 4
	note B_, 12
	note A_, 8
	note B_, 8
	note A_, 10
	note B_, 4
	note A_, 16
	note A_, 2
	note A_, 4
	note B_, 8
	note A_, 6
	rest 14
	note B_, 16
	note B_, 12
	note B_, 4
	note A_, 16
	note A_, 12
	note B_, 4
	note B_, 16
	note B_, 12
	note B_, 4
	note A_, 16
	note A_, 16
	note G_, 16
	note A_, 8
	note B_, 8
	note A_, 8
	note B_, 8
	note A_, 6
	note B_, 10
	note G_, 16
	note A#, 8
	note A_, 6
	note A_, 10
	rest 4
	sound_loop 0, .mainloop
