Music_PepperSteak:
	channel_count 4
	channel 1, Music_PepperSteak_Ch1
	channel 2, Music_PepperSteak_Ch2
	channel 3, Music_PepperSteak_Ch3
	channel 4, Music_PepperSteak_Ch4

Music_PepperSteak_Ch1:
	volume 7, 7
	duty_cycle 2
	note_type 12, 11, 7
	tempo 170
	octave 3
	note G#, 1
	note D#, 1
	rest 1
	note D#, 2
	note D#, 1
	note D#, 1
	note D_, 1
	note G#, 1
	note D#, 1
	rest 1
	note D#, 2
	note D#, 1
	note D#, 1
	note B_, 1
	note G#, 1
	note D#, 1
	rest 1
	note D#, 1
	rest 1
	note D#, 1
	note D#, 1
	note D_, 1
	note G#, 1
	note D#, 1
	rest 1
	note B_, 1
	rest 2
	note B_, 1
	note D_, 1
	note G#, 1
	note D#, 1
	rest 1
	note D#, 2
	note D#, 1
	note D#, 1
	note D_, 1
	note G#, 1
	note D#, 1
	rest 1
	note D#, 1
	note B_, 1
	note B_, 1
	note B_, 1
	note G#, 2
	rest 1
	note G#, 2
	rest 1
	note B_, 3
	note G#, 2
	rest 1
	note E_, 2
	rest 1
	note B_, 1
	note G#, 1
.mainloop:
	octave 2
	duty_cycle 2
	vibrato 0, 0, 0
	volume_envelope 6, 7
	note A#, 1
	note A_, 1
	note D#, 1
	note A#, 4
	note D#, 1
	note G#, 1
	note G_, 1
	note G#, 1
	note D#, 1
	note G_, 1
	note C_, 1
	note D#, 1
	note F#, 1
	note A#, 1
	note A_, 1
	note D#, 1
	note A#, 4
	note D#, 1
	note G#, 1
	note G_, 1
	note G#, 1
	note D#, 1
	note G_, 1
	note C_, 1
	note D#, 1
	note F#, 1
	note A#, 1
	note A_, 1
	note D#, 1
	note A#, 4
	note D#, 1
	note G#, 1
	note G_, 1
	note G#, 1
	note D#, 1
	note G_, 1
	note C_, 1
	note D#, 1
	note F#, 1
	note A#, 1
	note A_, 1
	note D#, 1
	note A#, 4
	note D#, 1
	note G#, 1
	note A#, 1
	note A#, 1
	note A#, 1
	note A#, 1
	note A#, 1
	note A#, 1
	note A#, 1
	note A#, 2
	note A#, 1
	note A_, 2
	note A#, 1
	note A#, 2
	note A#, 2
	note A#, 1
	note A_, 2
	note A#, 1
	note A#, 2
	note A#, 2
	note A#, 1
	note A_, 2
	note A#, 1
	note A#, 2
	note A#, 2
	note A#, 1
	note A_, 2
	note A#, 1
	note A#, 2
	note F#, 1
	note D#, 1
	note F#, 1
	note D#, 1
	note F#, 1
	note D#, 1
	note F#, 1
	note D#, 1
	note A#, 2
	note A#, 2
	note A#, 2
	note A#, 2
	note F#, 1
	note D#, 1
	note G#, 1
	note D_, 1
	note D#, 1
	note C_, 1
	octave 1
	note A#, 1
	octave 2
	note C#, 1
	note A#, 1
	note A_, 1
	note A#, 1
	note A_, 1
	note A#, 1
	note A_, 1
	note A#, 1
	note A_, 1
	octave 3
	volume_envelope 11, 7
	note G#, 1
	note D#, 1
	rest 1
	note D#, 2
	note D#, 1
	note D#, 1
	note D_, 1
	note G#, 1
	note D#, 1
	rest 1
	note D#, 2
	note D#, 1
	note D#, 1
	note D_, 1
	note G#, 1
	note D#, 1
	rest 1
	note D#, 2
	note D#, 1
	note D#, 1
	note D_, 1
	note G#, 1
	note D#, 1
	rest 1
	note D#, 2
	note D#, 1
	note D#, 1
	note D_, 1
	note G#, 1
	note D#, 1
	rest 1
	note D#, 2
	note D#, 1
	note D#, 1
	note D_, 1
	note G#, 1
	note D#, 1
	rest 1
	note D#, 2
	note D#, 1
	note D#, 1
	note D_, 1
	rest 16
	note G#, 1
	note D#, 1
	rest 1
	note D#, 2
	note D#, 1
	note D#, 1
	note D_, 1
	note G#, 1
	note D#, 1
	rest 1
	note D#, 2
	note D#, 1
	note D#, 1
	note D_, 1
	note G#, 1
	note D#, 1
	rest 1
	note D#, 2
	note D#, 1
	note D#, 1
	note D_, 1
	note G#, 1
	note D#, 1
	rest 1
	note D#, 2
	note D#, 1
	note D#, 1
	note D_, 1
	note G#, 1
	note D#, 1
	rest 1
	note D#, 2
	note B_, 1
	note B_, 1
	note B_, 1
	rest 1
	note B_, 1
	note G#, 1
	rest 1
	note B_, 1
	note B_, 1
	rest 16
	rest 2
	sound_loop 0, .mainloop

Music_PepperSteak_Ch2:
	note_type 12, 8, 8
	octave 1
	duty_cycle 0
	note G#, 2
	note G#, 2
	rest 2
	note G#, 2
	note G#, 2
	note G#, 1
	note G#, 1
	note G#, 2
	note G#, 2
	note G#, 2
	note G#, 2
	rest 2
	note G#, 2
	note G#, 2
	note G#, 1
	note G#, 1
	note G#, 2
	note G#, 2
	note G#, 2
	note G#, 2
	rest 2
	note G#, 2
	note G#, 2
	note G#, 1
	note G#, 1
	note G#, 2
	note G#, 2
	rest 16
.mainloop:
	octave 3
	duty_cycle 1
	volume_envelope 12, 8
	note A#, 1
	note A_, 1
	note D#, 1
	note A#, 4
	note D#, 1
	note G#, 1
	note G_, 1
	note G#, 1
	note D#, 1
	note G_, 1
	note C_, 1
	note D#, 1
	note F#, 1
	note A#, 1
	note A_, 1
	note D#, 1
	note A#, 4
	note D#, 1
	note G#, 1
	note G_, 1
	note G#, 1
	note D#, 1
	note G_, 1
	note C_, 1
	note D#, 1
	note F#, 1
	note A#, 1
	note A_, 1
	note D#, 1
	note A#, 4
	note D#, 1
	note G#, 1
	note G_, 1
	note G#, 1
	note D#, 1
	note G_, 1
	note C_, 1
	note D#, 1
	note F#, 1
	note A#, 1
	note A_, 1
	note D#, 1
	note A#, 4
	note D#, 1
	note G#, 1
	note A#, 1
	note A#, 1
	note A#, 1
	note A#, 1
	note A#, 1
	note A#, 1
	note A#, 1
	note A#, 2
	note A#, 1
	note A_, 2
	note A#, 1
	note A#, 2
	note A#, 2
	note A#, 1
	note A_, 2
	note A#, 1
	note A#, 2
	note A#, 2
	note A#, 1
	note A_, 2
	note A#, 1
	note A#, 2
	note A#, 2
	note A#, 1
	note A_, 2
	note A#, 1
	note A#, 2
	note F#, 1
	note D#, 1
	note F#, 1
	note D#, 1
	note F#, 1
	note D#, 1
	note F#, 1
	note D#, 1
	note A#, 2
	note A#, 2
	note A#, 2
	note A#, 2
	note F#, 1
	note D#, 1
	note G#, 1
	note D_, 1
	note D#, 1
	note C_, 1
	octave 2
	note A#, 1
	octave 3
	note C#, 1
	note A#, 1
	note A_, 1
	note A#, 1
	note A_, 1
	note A#, 1
	note A_, 1
	note A#, 1
	note A_, 1
	octave 1
	duty_cycle 0
	note G#, 2
	note G#, 2
	rest 2
	note G#, 2
	note G#, 2
	note G#, 1
	note G#, 1
	note G#, 2
	note G#, 2
	note G#, 2
	note G#, 2
	rest 2
	note G#, 2
	note G#, 2
	note G#, 1
	note G#, 1
	note G#, 2
	note G#, 2
	note G#, 2
	note G#, 2
	rest 2
	note G#, 2
	note G#, 2
	note G#, 1
	note G#, 1
	note G#, 2
	note G#, 2
	note G#, 2
	note G#, 2
	rest 2
	note G#, 2
	note G#, 2
	note G#, 1
	note G#, 1
	note G#, 2
	note G#, 2
	note G#, 2
	note G#, 2
	rest 2
	note G#, 2
	note G#, 2
	note G#, 1
	note G#, 1
	note G#, 2
	note G#, 2
	note G#, 2
	note G#, 2
	rest 2
	note G#, 2
	note G#, 2
	note G#, 1
	note G#, 1
	note G#, 2
	note G#, 2
	note G#, 2
	note G#, 2
	rest 2
	note G#, 2
	note G#, 2
	note G#, 1
	note G#, 1
	note G#, 2
	note G#, 2
	note G#, 2
	note G#, 2
	rest 2
	note G#, 2
	note G#, 2
	note G#, 1
	note G#, 1
	note G#, 2
	note G#, 2
	octave 3
	sound_loop 0, .mainloop

Music_PepperSteak_Ch3:
	note_type 12, 1, 0
	octave 1
	note C#, 2
	note G#, 2
	note C#, 2
	note G#, 2
	note C#, 2
	note G#, 2
	note C#, 2
	note G#, 2
	note C#, 2
	note G#, 2
	note C#, 2
	note G#, 2
	note C#, 2
	note G#, 2
	rest 4
	note C#, 2
	note G#, 2
	note C#, 2
	note G#, 2
	note C#, 2
	note G#, 2
	note C#, 2
	note G#, 2
	rest 16
.mainloop:
	note C#, 2
	note G#, 2
	note C#, 2
	note G#, 2
	note C#, 2
	note G#, 2
	note C#, 2
	note G#, 2
	note C#, 2
	note G#, 2
	note C#, 2
	note G#, 2
	note C#, 2
	note G#, 2
	note C#, 2
	note G#, 2
	note C#, 2
	note G#, 2
	note C#, 2
	note G#, 2
	note C#, 2
	note G#, 2
	note C#, 2
	note G#, 2
	note C#, 2
	note G#, 2
	note C#, 2
	note G#, 2
	note C#, 2
	note G#, 2
	note C#, 2
	note G#, 2
	note C#, 2
	note G#, 2
	note C#, 2
	note G#, 2
	note C#, 2
	note G#, 2
	note C#, 2
	note G#, 2
	note C#, 2
	note G#, 2
	note C#, 2
	note G#, 2
	note C#, 2
	note G#, 2
	note C#, 2
	note G#, 2
	note C#, 2
	note G#, 2
	note C#, 2
	note G#, 2
	note C#, 2
	note G#, 2
	note C#, 2
	note G#, 2
	note C#, 2
	note G#, 2
	note C#, 2
	note G#, 2
	note C#, 2
	note G#, 2
	note C#, 2
	note G#, 2
	note C#, 2
	note G#, 2
	note C#, 2
	note G#, 2
	note C#, 2
	note G#, 2
	note C#, 2
	note G#, 2
	note C#, 2
	note G#, 2
	note C#, 2
	note G#, 2
	note C#, 2
	note G#, 2
	note C#, 2
	note G#, 2
	note C#, 2
	note G#, 2
	note C#, 2
	note G#, 2
	note C#, 2
	note G#, 2
	note C#, 2
	note G#, 2
	rest 16
	note C#, 2
	note G#, 2
	note C#, 2
	note G#, 2
	note C#, 2
	note G#, 2
	note C#, 2
	note G#, 2
	note C#, 2
	note G#, 2
	note C#, 2
	note G#, 2
	note C#, 2
	note G#, 2
	note C#, 2
	note G#, 2
	note C#, 2
	note G#, 2
	note C#, 2
	note G#, 2
	note C#, 2
	note G#, 2
	note C#, 2
	note G#, 2
	rest 16
	sound_loop 0, .mainloop

Music_PepperSteak_Ch4:
	toggle_noise 1
	drum_speed 12
	rest 16
	rest 16
	rest 16
	rest 16
.mainloop:
	drum_note 1, 2
	drum_note 9, 2
	drum_note 1, 2
	drum_note 9, 2
	drum_note 1, 2
	drum_note 9, 2
	drum_note 1, 2
	drum_note 9, 2
	drum_note 1, 2
	drum_note 9, 2
	drum_note 1, 2
	drum_note 9, 2
	drum_note 1, 2
	drum_note 9, 2
	drum_note 1, 2
	drum_note 9, 2
	drum_note 1, 2
	drum_note 9, 2
	drum_note 1, 2
	drum_note 9, 2
	drum_note 1, 2
	drum_note 9, 2
	drum_note 1, 2
	drum_note 9, 2
	drum_note 1, 2
	drum_note 9, 2
	drum_note 1, 2
	drum_note 9, 2
	drum_note 1, 2
	drum_note 9, 2
	drum_note 1, 2
	drum_note 9, 2
	drum_note 1, 2
	drum_note 9, 2
	drum_note 1, 2
	drum_note 9, 2
	drum_note 1, 2
	drum_note 9, 2
	drum_note 1, 2
	drum_note 9, 2
	drum_note 1, 2
	drum_note 9, 2
	drum_note 1, 2
	drum_note 9, 2
	drum_note 1, 2
	drum_note 9, 2
	drum_note 1, 2
	drum_note 9, 2
	drum_note 1, 2
	drum_note 9, 2
	drum_note 1, 2
	drum_note 9, 2
	drum_note 1, 2
	drum_note 9, 2
	drum_note 1, 2
	drum_note 9, 2
	drum_note 1, 2
	drum_note 9, 2
	drum_note 1, 2
	drum_note 9, 2
	drum_note 1, 2
	drum_note 9, 2
	drum_note 1, 2
	drum_note 9, 2
	drum_note 1, 1
	drum_note 5, 1
	drum_note 5, 2
	drum_note 5, 2
	drum_note 5, 2
	drum_note 1, 1
	drum_note 5, 1
	drum_note 5, 2
	drum_note 5, 2
	drum_note 5, 1
	drum_note 5, 1
	drum_note 5, 1
	drum_note 5, 1
	drum_note 5, 2
	drum_note 3, 2
	drum_note 5, 2
	drum_note 5, 1
	drum_note 5, 1
	drum_note 5, 2
	drum_note 3, 2
	drum_note 5, 1
	drum_note 5, 1
	drum_note 5, 1
	drum_note 5, 1
	drum_note 5, 2
	drum_note 3, 2
	drum_note 5, 2
	drum_note 5, 1
	drum_note 5, 1
	drum_note 5, 1
	drum_note 1, 1
	drum_note 1, 1
	drum_note 3, 1
	drum_note 5, 1
	drum_note 5, 1
	drum_note 5, 1
	drum_note 5, 1
	drum_note 5, 2
	drum_note 3, 2
	drum_note 5, 1
	drum_note 5, 1
	drum_note 5, 1
	drum_note 5, 1
	drum_note 1, 2
	drum_note 3, 2
	drum_note 5, 1
	drum_note 5, 1
	drum_note 1, 1
	drum_note 5, 1
	drum_note 5, 2
	drum_note 5, 2
	drum_note 5, 2
	drum_note 1, 1
	drum_note 5, 1
	drum_note 5, 2
	drum_note 5, 2
	drum_note 5, 1
	drum_note 5, 1
	drum_note 5, 1
	drum_note 5, 1
	drum_note 5, 2
	drum_note 3, 2
	drum_note 5, 2
	drum_note 5, 1
	drum_note 5, 1
	drum_note 5, 2
	drum_note 3, 2
	drum_note 5, 1
	drum_note 5, 1
	drum_note 5, 1
	drum_note 5, 1
	drum_note 5, 2
	drum_note 3, 2
	drum_note 5, 2
	drum_note 5, 1
	drum_note 5, 1
	drum_note 5, 1
	drum_note 1, 1
	drum_note 1, 1
	drum_note 3, 1
	drum_note 5, 1
	drum_note 5, 1
	drum_note 5, 1
	drum_note 5, 1
	drum_note 5, 2
	drum_note 3, 2
	drum_note 5, 1
	drum_note 5, 1
	drum_note 5, 1
	drum_note 5, 1
	drum_note 1, 2
	drum_note 3, 2
	drum_note 5, 1
	rest 1
	sound_loop 0, .mainloop
