Music_Placeholder:
	channel_count 4
	channel 1, Music_Placeholder_Ch1
	channel 2, Music_Placeholder_Ch2
	channel 3, Music_Placeholder_Ch3
	channel 4, Music_Placeholder_Ch4

Music_Placeholder_Ch1:
	volume 7, 7
	note_type 12, 5, 7
	tempo 127
	octave 1
	duty_cycle 1
	note E_, 1
	octave 2
	note E_, 1
	octave 1
	note B_, 1
	octave 2
	note E_, 1
	octave 1
	note A_, 1
	octave 2
	note D_, 1
	octave 1
	note E_, 1
	octave 2
	note E_, 1
	note B_, 1
	note E_, 1
	note A_, 1
	note D_, 1
	octave 3
	note E_, 1
	octave 2
	note E_, 1
	octave 1
	note B_, 1
	note A_, 1
	note E_, 1
	octave 2
	note E_, 1
	octave 1
	note B_, 1
	octave 2
	note E_, 1
	octave 1
	note A_, 1
	octave 2
	note D_, 1
	octave 1
	note E_, 1
	octave 2
	note E_, 1
	note B_, 1
	note E_, 1
	note A_, 1
	note D_, 1
	octave 3
	note E_, 1
	octave 2
	note E_, 1
	octave 1
	note B_, 1
	note A_, 1
	note E_, 1
	octave 2
	note E_, 1
	octave 1
	note B_, 1
	octave 2
	note E_, 1
	octave 1
	note A_, 1
	octave 2
	note D_, 1
	octave 1
	note E_, 1
	octave 2
	note E_, 1
	note B_, 1
	note E_, 1
	note A_, 1
	note D_, 1
	octave 3
	note E_, 1
	octave 2
	note E_, 1
	octave 1
	note B_, 1
	note A_, 1
	note E_, 1
	octave 2
	note E_, 1
	octave 1
	note B_, 1
	octave 2
	note E_, 1
	octave 1
	note A_, 1
	octave 2
	note D_, 1
	octave 1
	note E_, 1
	octave 2
	note E_, 1
	note B_, 1
	note E_, 1
	note A_, 1
	note D_, 1
	octave 3
	note E_, 1
	octave 2
	note E_, 1
	octave 1
	note B_, 1
	note A_, 1
	note E_, 1
	octave 2
	note E_, 1
	octave 1
	note B_, 1
	octave 2
	note E_, 1
	octave 1
	note A_, 1
	octave 2
	note D_, 1
	octave 1
	note E_, 1
	octave 2
	note E_, 1
	note B_, 1
	note E_, 1
	note A_, 1
	note D_, 1
	octave 3
	note E_, 1
	octave 2
	note E_, 1
	octave 1
	note B_, 1
	note A_, 1
	note E_, 1
	octave 2
	note E_, 1
	octave 1
	note B_, 1
	octave 2
	note E_, 1
	octave 1
	note A_, 1
	octave 2
	note D_, 1
	octave 1
	note E_, 1
	octave 2
	note E_, 1
	note B_, 1
	note E_, 1
	note A_, 1
	note D_, 1
	octave 3
	note E_, 1
	octave 2
	note E_, 1
	octave 1
	note B_, 1
	note A_, 1
	note E_, 1
	octave 2
	note E_, 1
	octave 1
	note B_, 1
	octave 2
	note E_, 1
	octave 1
	note A_, 1
	octave 2
	note D_, 1
	octave 1
	note E_, 1
	octave 2
	note E_, 1
	note B_, 1
	note E_, 1
	note A_, 1
	note D_, 1
	octave 3
	note E_, 1
	octave 2
	note E_, 1
	octave 1
	note B_, 1
	note A_, 1
	note E_, 1
	octave 2
	note E_, 1
	octave 1
	note B_, 1
	octave 2
	note E_, 1
	octave 1
	note A_, 1
	octave 2
	note D_, 1
	octave 1
	note E_, 1
	octave 2
	note E_, 1
	note B_, 1
	note E_, 1
	note A_, 1
	note D_, 1
	octave 3
	note E_, 1
	octave 2
	note E_, 1
	octave 1
	note B_, 1
	note A_, 1
	note E_, 1
	octave 2
	note E_, 1
	octave 1
	note B_, 1
	octave 2
	note E_, 1
	octave 1
	note A_, 1
	octave 2
	note D_, 1
	octave 1
	note E_, 1
	octave 2
	note E_, 1
	note B_, 1
	note E_, 1
	note A_, 1
	note D_, 1
	octave 3
	note E_, 1
	octave 2
	note E_, 1
	octave 1
	note B_, 1
	note A_, 1
	note E_, 1
	octave 2
	note E_, 1
	octave 1
	note B_, 1
	octave 2
	note E_, 1
	octave 1
	note A_, 1
	octave 2
	note D_, 1
	octave 1
	note E_, 1
	octave 2
	note E_, 1
	note B_, 1
	note E_, 1
	note A_, 1
	note D_, 1
	octave 3
	note E_, 1
	octave 2
	note E_, 1
	octave 1
	note B_, 1
	note A_, 1
	note E_, 1
	octave 2
	note E_, 1
	octave 1
	note B_, 1
	octave 2
	note E_, 1
	octave 1
	note A_, 1
	octave 2
	note D_, 1
	octave 1
	note E_, 1
	octave 2
	note E_, 1
	note B_, 1
	note E_, 1
	note A_, 1
	note D_, 1
	octave 3
	note E_, 1
	octave 2
	note E_, 1
	octave 1
	note B_, 1
	note A_, 1
	note E_, 1
	octave 2
	note E_, 1
	octave 1
	note B_, 1
	octave 2
	note E_, 1
	octave 1
	note A_, 1
	octave 2
	note D_, 1
	octave 1
	note E_, 1
	octave 2
	note E_, 1
	note B_, 1
	note E_, 1
	note A_, 1
	note D_, 1
	octave 3
	note E_, 1
	octave 2
	note E_, 1
	octave 1
	note B_, 1
	note A_, 1
	note E_, 1
	octave 2
	note E_, 1
	octave 1
	note B_, 1
	octave 2
	note E_, 1
	octave 1
	note A_, 1
	octave 2
	note D_, 1
	octave 1
	note E_, 1
	octave 2
	note E_, 1
	note B_, 1
	note E_, 1
	note A_, 1
	note D_, 1
	octave 3
	note E_, 1
	octave 2
	note E_, 1
	octave 1
	note B_, 1
	note A_, 1
	note E_, 1
	octave 2
	note E_, 1
	octave 1
	note B_, 1
	octave 2
	note E_, 1
	octave 1
	note A_, 1
	octave 2
	note D_, 1
	octave 1
	note E_, 1
	octave 2
	note E_, 1
	note B_, 1
	note E_, 1
	note A_, 1
	note D_, 1
	octave 3
	note E_, 1
	octave 2
	note E_, 1
	octave 1
	note B_, 1
	note A_, 1
	note E_, 1
	octave 2
	note E_, 1
	octave 1
	note B_, 1
	octave 2
	note E_, 1
	octave 1
	note A_, 1
	octave 2
	note D_, 1
	octave 1
	note E_, 1
	octave 2
	note E_, 1
	note B_, 1
	note E_, 1
	note A_, 1
	note D_, 1
	octave 3
	note E_, 1
	octave 2
	note E_, 1
	octave 1
	note B_, 1
	note A_, 1
	note E_, 1
	octave 2
	note E_, 1
	octave 1
	note B_, 1
	octave 2
	note E_, 1
	octave 1
	note A_, 1
	octave 2
	note D_, 1
	octave 1
	note E_, 1
	octave 2
	note E_, 1
	note B_, 1
	note E_, 1
	note A_, 1
	note D_, 1
	octave 3
	note E_, 1
	octave 2
	note E_, 1
	octave 1
	note B_, 1
	note A_, 1
	note E_, 1
	octave 2
	note E_, 1
	octave 1
	note B_, 1
	octave 2
	note E_, 1
	octave 1
	note A_, 1
	octave 2
	note D_, 1
	octave 1
	note E_, 1
	octave 2
	note E_, 1
	note B_, 1
	note E_, 1
	note A_, 1
	note D_, 1
	octave 3
	note E_, 1
	octave 2
	note E_, 1
	octave 1
	note B_, 1
	note A_, 1
	note E_, 1
	octave 2
	note E_, 1
	octave 1
	note B_, 1
	octave 2
	note E_, 1
	octave 1
	note A_, 1
	octave 2
	note D_, 1
	octave 1
	note E_, 1
	octave 2
	note E_, 1
	note B_, 1
	note E_, 1
	note A_, 1
	note D_, 1
	octave 3
	note E_, 1
	octave 2
	note E_, 1
	octave 1
	note B_, 1
	note A_, 1
	note E_, 1
	octave 2
	note E_, 1
	octave 1
	note B_, 1
	octave 2
	note E_, 1
	octave 1
	note A_, 1
	octave 2
	note D_, 1
	octave 1
	note E_, 1
	octave 2
	note E_, 1
	note B_, 1
	note E_, 1
	note A_, 1
	note D_, 1
	octave 3
	note E_, 1
	octave 2
	note E_, 1
	octave 1
	note B_, 1
	note A_, 1
	note E_, 1
	octave 2
	note E_, 1
	octave 1
	note B_, 1
	octave 2
	note E_, 1
	octave 1
	note A_, 1
	octave 2
	note D_, 1
	octave 1
	note E_, 1
	octave 2
	note E_, 1
	note B_, 1
	note E_, 1
	note A_, 1
	note D_, 1
	octave 3
	note E_, 1
	octave 2
	note E_, 1
	octave 1
	note B_, 1
	note A_, 1
	note E_, 1
	octave 2
	note E_, 1
	octave 1
	note B_, 1
	octave 2
	note E_, 1
	octave 1
	note A_, 1
	octave 2
	note D_, 1
	octave 1
	note E_, 1
	octave 2
	note E_, 1
	note B_, 1
	note E_, 1
	note A_, 1
	note D_, 1
	octave 3
	note E_, 1
	octave 2
	note E_, 1
	octave 1
	note B_, 1
	note A_, 1
	note E_, 1
	octave 2
	note E_, 1
	octave 1
	note B_, 1
	octave 2
	note E_, 1
	octave 1
	note A_, 1
	octave 2
	note D_, 1
	octave 1
	note E_, 1
	octave 2
	note E_, 1
	note B_, 1
	note E_, 1
	note A_, 1
	note D_, 1
	octave 3
	note E_, 1
	octave 2
	note E_, 1
	octave 1
	note B_, 1
	note A_, 1
	note E_, 1
	octave 2
	note E_, 1
	octave 1
	note B_, 1
	octave 2
	note E_, 1
	octave 1
	note A_, 1
	octave 2
	note D_, 1
	octave 1
	note E_, 1
	octave 2
	note E_, 1
	note B_, 1
	note E_, 1
	note A_, 1
	note D_, 1
	octave 3
	note E_, 1
	octave 2
	note E_, 1
	octave 1
	note B_, 1
	note A_, 1
	note E_, 1
	octave 2
	note E_, 1
	octave 1
	note B_, 1
	octave 2
	note E_, 1
	octave 1
	note A_, 1
	octave 2
	note D_, 1
	octave 1
	note E_, 1
	octave 2
	note E_, 1
	note B_, 1
	note E_, 1
	note A_, 1
	note D_, 1
	octave 3
	note E_, 1
	octave 2
	note E_, 1
	octave 1
	note B_, 1
	note A_, 1
	note E_, 1
	octave 2
	note E_, 1
	octave 1
	note B_, 1
	octave 2
	note E_, 1
	octave 1
	note A_, 1
	octave 2
	note D_, 1
	octave 1
	note E_, 1
	octave 2
	note E_, 1
	note B_, 1
	note E_, 1
	note A_, 1
	note D_, 1
	octave 3
	note E_, 1
	octave 2
	note E_, 1
	octave 1
	note B_, 1
	note A_, 1
	note E_, 1
	octave 2
	note E_, 1
	octave 1
	note B_, 1
	octave 2
	note E_, 1
	octave 1
	note A_, 1
	octave 2
	note D_, 1
	octave 1
	note E_, 1
	octave 2
	note E_, 1
	note B_, 1
	note E_, 1
	note A_, 1
	note D_, 1
	octave 3
	note E_, 1
	octave 2
	note E_, 1
	octave 1
	note B_, 1
	note A_, 1
	note E_, 1
	octave 2
	note E_, 1
	octave 1
	note B_, 1
	octave 2
	note E_, 1
	octave 1
	note A_, 1
	octave 2
	note D_, 1
	octave 1
	note E_, 1
	octave 2
	note E_, 1
	note B_, 1
	note E_, 1
	note A_, 1
	note D_, 1
	octave 3
	note E_, 1
	octave 2
	note E_, 1
	octave 1
	note B_, 1
	note A_, 1
	note E_, 1
	octave 2
	note E_, 1
	octave 1
	note B_, 1
	octave 2
	note E_, 1
	octave 1
	note A_, 1
	octave 2
	note D_, 1
	octave 1
	note E_, 1
	octave 2
	note E_, 1
	note B_, 1
	note E_, 1
	note A_, 1
	note D_, 1
	octave 3
	note E_, 1
	octave 2
	note E_, 1
	octave 1
	note B_, 1
	note A_, 1
	note E_, 1
	octave 2
	note E_, 1
	octave 1
	note B_, 1
	octave 2
	note E_, 1
	octave 1
	note A_, 1
	octave 2
	note D_, 1
	octave 1
	note E_, 1
	octave 2
	note E_, 1
	note B_, 1
	note E_, 1
	note A_, 1
	note D_, 1
	octave 3
	note E_, 1
	octave 2
	note E_, 1
	octave 1
	note B_, 1
	note A_, 1
	note E_, 1
	octave 2
	note E_, 1
	octave 1
	note B_, 1
	octave 2
	note E_, 1
	octave 1
	note A_, 1
	octave 2
	note D_, 1
	octave 1
	note E_, 1
	octave 2
	note E_, 1
	note B_, 1
	note E_, 1
	note A_, 1
	note D_, 1
	octave 3
	note E_, 1
	octave 2
	note E_, 1
	octave 1
	note B_, 1
	note A_, 1
	note E_, 1
	octave 2
	note E_, 1
	octave 1
	note B_, 1
	octave 2
	note E_, 1
	octave 1
	note A_, 1
	octave 2
	note D_, 1
	octave 1
	note E_, 1
	octave 2
	note E_, 1
	note B_, 1
	note E_, 1
	note A_, 1
	note D_, 1
	octave 3
	note E_, 1
	octave 2
	note E_, 1
	octave 1
	note B_, 1
	note A_, 1
	note E_, 1
	octave 2
	note E_, 1
	octave 1
	note B_, 1
	octave 2
	note E_, 1
	octave 1
	note A_, 1
	octave 2
	note D_, 1
	octave 1
	note E_, 1
	octave 2
	note E_, 1
	note B_, 1
	note E_, 1
	note A_, 1
	note D_, 1
	octave 3
	note E_, 1
	octave 2
	note E_, 1
	octave 1
	note B_, 1
	note A_, 1
	note E_, 1
	octave 2
	note E_, 1
	octave 1
	note B_, 1
	octave 2
	note E_, 1
	octave 1
	note A_, 1
	octave 2
	note D_, 1
	octave 1
	note E_, 1
	octave 2
	note E_, 1
	note B_, 1
	note E_, 1
	note A_, 1
	note D_, 1
	octave 3
	note E_, 1
	octave 2
	note E_, 1
	octave 1
	note B_, 1
	note A_, 1
	note E_, 1
	octave 2
	note E_, 1
	octave 1
	note B_, 1
	octave 2
	note E_, 1
	octave 1
	note A_, 1
	octave 2
	note D_, 1
	octave 1
	note E_, 1
	octave 2
	note E_, 1
	note B_, 1
	note E_, 1
	note A_, 1
	note D_, 1
	octave 3
	note E_, 1
	octave 2
	note E_, 1
	octave 1
	note B_, 1
	note A_, 1
	note E_, 1
	octave 2
	note E_, 1
	octave 1
	note B_, 1
	octave 2
	note E_, 1
	octave 1
	note A_, 1
	octave 2
	note D_, 1
	octave 1
	note E_, 1
	octave 2
	note E_, 1
	note B_, 1
	note E_, 1
	note A_, 1
	note D_, 1
	octave 3
	note E_, 1
	octave 2
	note E_, 1
	octave 1
	note B_, 1
	note A_, 1
	note E_, 1
	octave 2
	note E_, 1
	octave 1
	note B_, 1
	octave 2
	note E_, 1
	octave 1
	note A_, 1
	octave 2
	note D_, 1
	octave 1
	note E_, 1
	octave 2
	note E_, 1
	note B_, 1
	note E_, 1
	note A_, 1
	note D_, 1
	octave 3
	note E_, 1
	octave 2
	note E_, 1
	octave 1
	note B_, 1
	note A_, 1
	rest 16
	rest 16
	note E_, 1
	octave 2
	note E_, 1
	octave 1
	note B_, 1
	octave 2
	note E_, 1
	octave 1
	note A_, 1
	octave 2
	note D_, 1
	octave 1
	note E_, 1
	octave 2
	note E_, 1
	note B_, 1
	note E_, 1
	note A_, 1
	note D_, 1
	octave 3
	note E_, 1
	octave 2
	note E_, 1
	octave 1
	note B_, 1
	note A_, 1
	note E_, 1
	octave 2
	note E_, 1
	octave 1
	note B_, 1
	octave 2
	note E_, 1
	octave 1
	note A_, 1
	octave 2
	note D_, 1
	octave 1
	note E_, 1
	octave 2
	note E_, 1
	note B_, 1
	note E_, 1
	note A_, 1
	note D_, 1
	octave 3
	note E_, 1
	octave 2
	note E_, 1
	octave 1
	note B_, 1
	note A_, 1
	note E_, 1
	octave 2
	note E_, 1
	octave 1
	note B_, 1
	octave 2
	note E_, 1
	octave 1
	note A_, 1
	octave 2
	note D_, 1
	octave 1
	note E_, 1
	octave 2
	note E_, 1
	note B_, 1
	note E_, 1
	note A_, 1
	note D_, 1
	octave 3
	note E_, 1
	octave 2
	note E_, 1
	octave 1
	note B_, 1
	note A_, 1
	note E_, 1
	octave 2
	note E_, 1
	octave 1
	note B_, 1
	octave 2
	note E_, 1
	octave 1
	note A_, 1
	octave 2
	note D_, 1
	octave 1
	note E_, 1
	octave 2
	note E_, 1
	note B_, 1
	note E_, 1
	note A_, 1
	note D_, 1
	octave 3
	note E_, 1
	octave 2
	note E_, 1
	octave 1
	note B_, 1
	note A_, 1
	note E_, 1
	octave 2
	note E_, 1
	octave 1
	note B_, 1
	octave 2
	note E_, 1
	octave 1
	note A_, 1
	octave 2
	note D_, 1
	octave 1
	note E_, 1
	octave 2
	note E_, 1
	note B_, 1
	note E_, 1
	note A_, 1
	note D_, 1
	octave 3
	note E_, 1
	octave 2
	note E_, 1
	octave 1
	note B_, 1
	note A_, 1
	note E_, 1
	octave 2
	note E_, 1
	octave 1
	note B_, 1
	octave 2
	note E_, 1
	octave 1
	note A_, 1
	octave 2
	note D_, 1
	octave 1
	note E_, 1
	octave 2
	note E_, 1
	note B_, 1
	note E_, 1
	note A_, 1
	note D_, 1
	octave 3
	note E_, 1
	octave 2
	note E_, 1
	octave 1
	note B_, 1
	note A_, 1
	note E_, 1
	octave 2
	note E_, 1
	octave 1
	note B_, 1
	octave 2
	note E_, 1
	octave 1
	note A_, 1
	octave 2
	note D_, 1
	octave 1
	note E_, 1
	octave 2
	note E_, 1
	note B_, 1
	note E_, 1
	note A_, 1
	note D_, 1
	octave 3
	note E_, 1
	octave 2
	note E_, 1
	octave 1
	note B_, 1
	note A_, 1
	note E_, 1
	octave 2
	note E_, 1
	octave 1
	note B_, 1
	octave 2
	note E_, 1
	octave 1
	note A_, 1
	octave 2
	note D_, 1
	octave 1
	note E_, 1
	octave 2
	note E_, 1
	note B_, 1
	note E_, 1
	note A_, 1
	note D_, 1
	octave 3
	note E_, 1
	octave 2
	note E_, 1
	octave 1
	note B_, 1
	note A_, 1
	note E_, 1
	octave 2
	note E_, 1
	octave 1
	note B_, 1
	octave 2
	note E_, 1
	octave 1
	note A_, 1
	octave 2
	note D_, 1
	octave 1
	note E_, 1
	octave 2
	note E_, 1
	note B_, 1
	note E_, 1
	note A_, 1
	note D_, 1
	octave 3
	note E_, 1
	octave 2
	note E_, 1
	octave 1
	note B_, 1
	note A_, 1
	note E_, 1
	octave 2
	note E_, 1
	octave 1
	note B_, 1
	octave 2
	note E_, 1
	octave 1
	note A_, 1
	octave 2
	note D_, 1
	octave 1
	note E_, 1
	octave 2
	note E_, 1
	note B_, 1
	note E_, 1
	note A_, 1
	note D_, 1
	octave 3
	note E_, 1
	octave 2
	note E_, 1
	octave 1
	note B_, 1
	note A_, 1
	note E_, 1
	octave 2
	note E_, 1
	octave 1
	note B_, 1
	octave 2
	note E_, 1
	octave 1
	note A_, 1
	octave 2
	note D_, 1
	octave 1
	note E_, 1
	octave 2
	note E_, 1
	note B_, 1
	note E_, 1
	note A_, 1
	note D_, 1
	octave 3
	note E_, 1
	octave 2
	note E_, 1
	octave 1
	note B_, 1
	note A_, 1
	note E_, 1
	octave 2
	note E_, 1
	octave 1
	note B_, 1
	octave 2
	note E_, 1
	octave 1
	note A_, 1
	octave 2
	note D_, 1
	octave 1
	note E_, 1
	octave 2
	note E_, 1
	note B_, 1
	note E_, 1
	note A_, 1
	note D_, 1
	octave 3
	note E_, 1
	octave 2
	note E_, 1
	octave 1
	note B_, 1
	note A_, 1
	note E_, 1
	octave 2
	note E_, 1
	octave 1
	note B_, 1
	octave 2
	note E_, 1
	octave 1
	note A_, 1
	octave 2
	note D_, 1
	octave 1
	note E_, 1
	octave 2
	note E_, 1
	note B_, 1
	note E_, 1
	note A_, 1
	note D_, 1
	octave 3
	note E_, 1
	octave 2
	note E_, 1
	octave 1
	note B_, 1
	note A_, 1
	note E_, 1
	octave 2
	note E_, 1
	octave 1
	note B_, 1
	octave 2
	note E_, 1
	octave 1
	note A_, 1
	octave 2
	note D_, 1
	octave 1
	note E_, 1
	octave 2
	note E_, 1
	note B_, 1
	note E_, 1
	note A_, 1
	note D_, 1
	octave 3
	note E_, 1
	octave 2
	note E_, 1
	octave 1
	note B_, 1
	note A_, 1
	note E_, 1
	octave 2
	note E_, 1
	octave 1
	note B_, 1
	octave 2
	note E_, 1
	octave 1
	note A_, 1
	octave 2
	note D_, 1
	octave 1
	note E_, 1
	octave 2
	note E_, 1
	note B_, 1
	note E_, 1
	note A_, 1
	note D_, 1
	octave 3
	note E_, 1
	octave 2
	note E_, 1
	octave 1
	note B_, 1
	note A_, 1
	note E_, 1
	octave 2
	note E_, 1
	octave 1
	note B_, 1
	octave 2
	note E_, 1
	octave 1
	note A_, 1
	octave 2
	note D_, 1
	octave 1
	note E_, 1
	octave 2
	note E_, 1
	note B_, 1
	note E_, 1
	note A_, 1
	note D_, 1
	octave 3
	note E_, 1
	octave 2
	note E_, 1
	octave 1
	note B_, 1
	note A_, 1
	note E_, 1
	octave 2
	note E_, 1
	octave 1
	note B_, 1
	octave 2
	note E_, 1
	octave 1
	note A_, 1
	octave 2
	note D_, 1
	octave 1
	note E_, 1
	octave 2
	note E_, 1
	note B_, 1
	note E_, 1
	note A_, 1
	note D_, 1
	octave 3
	note E_, 1
	octave 2
	note E_, 1
	octave 1
	note B_, 1
	note A_, 1
	note E_, 1
	octave 2
	note E_, 1
	octave 1
	note B_, 1
	octave 2
	note E_, 1
	octave 1
	note A_, 1
	octave 2
	note D_, 1
	octave 1
	note E_, 1
	octave 2
	note E_, 1
	note B_, 1
	note E_, 1
	note A_, 1
	note D_, 1
	octave 3
	note E_, 1
	octave 2
	note E_, 1
	octave 1
	note B_, 1
	note A_, 1
	note E_, 1
	octave 2
	note E_, 1
	octave 1
	note B_, 1
	octave 2
	note E_, 1
	octave 1
	note A_, 1
	octave 2
	note D_, 1
	octave 1
	note E_, 1
	octave 2
	note E_, 1
	note B_, 1
	note E_, 1
	note A_, 1
	note D_, 1
	octave 3
	note E_, 1
	octave 2
	note E_, 1
	octave 1
	note B_, 1
	note A_, 1
	note E_, 1
	octave 2
	note E_, 1
	octave 1
	note B_, 1
	octave 2
	note E_, 1
	octave 1
	note A_, 1
	octave 2
	note D_, 1
	octave 1
	note E_, 1
	octave 2
	note E_, 1
	note B_, 1
	note E_, 1
	note A_, 1
	note D_, 1
	octave 3
	note E_, 1
	octave 2
	note E_, 1
	octave 1
	note B_, 1
	note A_, 1
	note E_, 1
	octave 2
	note E_, 1
	octave 1
	note B_, 1
	octave 2
	note E_, 1
	octave 1
	note A_, 1
	octave 2
	note D_, 1
	octave 1
	note E_, 1
	octave 2
	note E_, 1
	note B_, 1
	note E_, 1
	note A_, 1
	note D_, 1
	octave 3
	note E_, 1
	octave 2
	note E_, 1
	octave 1
	note B_, 1
	note A_, 1
	note E_, 1
	octave 2
	note E_, 1
	octave 1
	note B_, 1
	octave 2
	note E_, 1
	octave 1
	note A_, 1
	octave 2
	note D_, 1
	octave 1
	note E_, 1
	octave 2
	note E_, 1
	note B_, 1
	note E_, 1
	note A_, 1
	note D_, 1
	octave 3
	note E_, 1
	octave 2
	note E_, 1
	octave 1
	note B_, 1
	note A_, 1
	note E_, 1
	octave 2
	note E_, 1
	octave 1
	note B_, 1
	octave 2
	note E_, 1
	octave 1
	note A_, 1
	octave 2
	note D_, 1
	octave 1
	note E_, 1
	octave 2
	note E_, 1
	note B_, 1
	note E_, 1
	note A_, 1
	note D_, 1
	octave 3
	note E_, 1
	octave 2
	note E_, 1
	octave 1
	note B_, 1
	note A_, 1
	note E_, 1
	octave 2
	note E_, 1
	octave 1
	note B_, 1
	octave 2
	note E_, 1
	octave 1
	note A_, 1
	octave 2
	note D_, 1
	octave 1
	note E_, 1
	octave 2
	note E_, 1
	note B_, 1
	note E_, 1
	note A_, 1
	note D_, 1
	octave 3
	note E_, 1
	octave 2
	note E_, 1
	octave 1
	note B_, 1
	note A_, 1
	note E_, 1
	octave 2
	note E_, 1
	octave 1
	note B_, 1
	octave 2
	note E_, 1
	octave 1
	note A_, 1
	octave 2
	note D_, 1
	octave 1
	note E_, 1
	octave 2
	note E_, 1
	note B_, 1
	note E_, 1
	note A_, 1
	note D_, 1
	octave 3
	note E_, 1
	octave 2
	note E_, 1
	octave 1
	note B_, 1
	note A_, 1
	note E_, 1
	octave 2
	note E_, 1
	octave 1
	note B_, 1
	octave 2
	note E_, 1
	octave 1
	note A_, 1
	octave 2
	note D_, 1
	octave 1
	note E_, 1
	octave 2
	note E_, 1
	note B_, 1
	note E_, 1
	note A_, 1
	note D_, 1
	octave 3
	note E_, 1
	octave 2
	note E_, 1
	octave 1
	note B_, 1
	note A_, 1
	note E_, 1
	octave 2
	note E_, 1
	octave 1
	note B_, 1
	octave 2
	note E_, 1
	octave 1
	note A_, 1
	octave 2
	note D_, 1
	octave 1
	note E_, 1
	octave 2
	note E_, 1
	note B_, 1
	note E_, 1
	note A_, 1
	note D_, 1
	octave 3
	note E_, 1
	octave 2
	note E_, 1
	octave 1
	note B_, 1
	note A_, 1
	note E_, 1
	octave 2
	note E_, 1
	octave 1
	note B_, 1
	octave 2
	note E_, 1
	octave 1
	note A_, 1
	octave 2
	note D_, 1
	octave 1
	note E_, 1
	octave 2
	note E_, 1
	note B_, 1
	note E_, 1
	note A_, 1
	note D_, 1
	octave 3
	note E_, 1
	octave 2
	note E_, 1
	octave 1
	note B_, 1
	note A_, 1
	note E_, 1
	octave 2
	note E_, 1
	octave 1
	note B_, 1
	octave 2
	note E_, 1
	octave 1
	note A_, 1
	octave 2
	note D_, 1
	octave 1
	note E_, 1
	octave 2
	note E_, 1
	note B_, 1
	note E_, 1
	note A_, 1
	note D_, 1
	octave 3
	note E_, 1
	octave 2
	note E_, 1
	octave 1
	note B_, 1
	note A_, 1
	note E_, 1
	octave 2
	note E_, 1
	octave 1
	note B_, 1
	octave 2
	note E_, 1
	octave 1
	note A_, 1
	octave 2
	note D_, 1
	octave 1
	note E_, 1
	octave 2
	note E_, 1
	note B_, 1
	note E_, 1
	note A_, 1
	note D_, 1
	octave 3
	note E_, 1
	octave 2
	note E_, 1
	octave 1
	note B_, 1
	note A_, 1
	note E_, 1
	octave 2
	note E_, 1
	octave 1
	note B_, 1
	octave 2
	note E_, 1
	octave 1
	note A_, 1
	octave 2
	note D_, 1
	octave 1
	note E_, 1
	octave 2
	note E_, 1
	note B_, 1
	note E_, 1
	note A_, 1
	note D_, 1
	octave 3
	note E_, 1
	octave 2
	note E_, 1
	octave 1
	note B_, 1
	note A_, 1
	note E_, 1
	octave 2
	note E_, 1
	octave 1
	note B_, 1
	octave 2
	note E_, 1
	octave 1
	note A_, 1
	octave 2
	note D_, 1
	octave 1
	note E_, 1
	octave 2
	note E_, 1
	note B_, 1
	note E_, 1
	note A_, 1
	note D_, 1
	octave 3
	note E_, 1
	octave 2
	note E_, 1
	octave 1
	note B_, 1
	note A_, 1
	note E_, 1
	octave 2
	note E_, 1
	octave 1
	note B_, 1
	octave 2
	note E_, 1
	octave 1
	note A_, 1
	octave 2
	note D_, 1
	octave 1
	note E_, 1
	octave 2
	note E_, 1
	note B_, 1
	note E_, 1
	note A_, 1
	note D_, 1
	octave 3
	note E_, 1
	octave 2
	note E_, 1
	octave 1
	note B_, 1
	note A_, 1
	note E_, 1
	octave 2
	note E_, 1
	octave 1
	note B_, 1
	octave 2
	note E_, 1
	octave 1
	note A_, 1
	octave 2
	note D_, 1
	octave 1
	note E_, 1
	octave 2
	note E_, 1
	note B_, 1
	note E_, 1
	note A_, 1
	note D_, 1
	octave 3
	note E_, 1
	octave 2
	note E_, 1
	octave 1
	note B_, 1
	note A_, 1
	note E_, 1
	octave 2
	note E_, 1
	octave 1
	note B_, 1
	octave 2
	note E_, 1
	octave 1
	note A_, 1
	octave 2
	note D_, 1
	octave 1
	note E_, 1
	octave 2
	note E_, 1
	note B_, 1
	note E_, 1
	note A_, 1
	note D_, 1
	octave 3
	note E_, 1
	octave 2
	note E_, 1
	octave 1
	note B_, 1
	note A_, 1
	note E_, 1
	octave 2
	note E_, 1
	octave 1
	note B_, 1
	octave 2
	note E_, 1
	octave 1
	note A_, 1
	octave 2
	note D_, 1
	octave 1
	note E_, 1
	octave 2
	note E_, 1
	note B_, 1
	note E_, 1
	note A_, 1
	note D_, 1
	octave 3
	note E_, 1
	octave 2
	note E_, 1
	octave 1
	note B_, 1
	note A_, 1
	note E_, 1
	octave 2
	note E_, 1
	octave 1
	note B_, 1
	octave 2
	note E_, 1
	octave 1
	note A_, 1
	octave 2
	note D_, 1
	octave 1
	note E_, 1
	octave 2
	note E_, 1
	note B_, 1
	note E_, 1
	note A_, 1
	note D_, 1
	octave 3
	note E_, 1
	octave 2
	note E_, 1
	octave 1
	note B_, 1
	note A_, 1
	note E_, 1
	octave 2
	note E_, 1
	octave 1
	note B_, 1
	octave 2
	note E_, 1
	octave 1
	note A_, 1
	octave 2
	note D_, 1
	octave 1
	note E_, 1
	octave 2
	note E_, 1
	note B_, 1
	note E_, 1
	note A_, 1
	note D_, 1
	octave 3
	note E_, 1
	octave 2
	note E_, 1
	octave 1
	note B_, 1
	note A_, 1
	note E_, 1
	octave 2
	note E_, 1
	octave 1
	note B_, 1
	octave 2
	note E_, 1
	octave 1
	note A_, 1
	octave 2
	note D_, 1
	octave 1
	note E_, 1
	octave 2
	note E_, 1
	note B_, 1
	note E_, 1
	note A_, 1
	note D_, 1
	octave 3
	note E_, 1
	octave 2
	note E_, 1
	octave 1
	note B_, 1
	note A_, 1
	note E_, 1
	octave 2
	note E_, 1
	octave 1
	note B_, 1
	octave 2
	note E_, 1
	octave 1
	note A_, 1
	octave 2
	note D_, 1
	octave 1
	note E_, 1
	octave 2
	note E_, 1
	note B_, 1
	note E_, 1
	note A_, 1
	note D_, 1
	octave 3
	note E_, 1
	octave 2
	note E_, 1
	octave 1
	note B_, 1
	note A_, 1
	note E_, 1
	octave 2
	note E_, 1
	octave 1
	note B_, 1
	octave 2
	note E_, 1
	octave 1
	note A_, 1
	octave 2
	note D_, 1
	octave 1
	note E_, 1
	octave 2
	note E_, 1
	note B_, 1
	note E_, 1
	note A_, 1
	note D_, 1
	octave 3
	note E_, 1
	octave 2
	note E_, 1
	octave 1
	note B_, 1
	note A_, 1
	note E_, 1
	octave 2
	note E_, 1
	octave 1
	note B_, 1
	octave 2
	note E_, 1
	octave 1
	note A_, 1
	octave 2
	note D_, 1
	octave 1
	note E_, 1
	octave 2
	note E_, 1
	note B_, 1
	note E_, 1
	note A_, 1
	note D_, 1
	octave 3
	note E_, 1
	octave 2
	note E_, 1
	octave 1
	note B_, 1
	note A_, 1
	note E_, 1
	octave 2
	note E_, 1
	octave 1
	note B_, 1
	octave 2
	note E_, 1
	octave 1
	note A_, 1
	octave 2
	note D_, 1
	octave 1
	note E_, 1
	octave 2
	note E_, 1
	note B_, 1
	note E_, 1
	note A_, 1
	note D_, 1
	octave 3
	note E_, 1
	octave 2
	note E_, 1
	octave 1
	note B_, 1
	note A_, 1
	note E_, 1
	octave 2
	note E_, 1
	octave 1
	note B_, 1
	octave 2
	note E_, 1
	octave 1
	note A_, 1
	octave 2
	note D_, 1
	octave 1
	note E_, 1
	octave 2
	note E_, 1
	note B_, 1
	note E_, 1
	note A_, 1
	note D_, 1
	octave 3
	note E_, 1
	octave 2
	note E_, 1
	octave 1
	note B_, 1
	note A_, 1
	note E_, 1
	octave 2
	note E_, 1
	octave 1
	note B_, 1
	octave 2
	note E_, 1
	octave 1
	note A_, 1
	octave 2
	note D_, 1
	octave 1
	note E_, 1
	octave 2
	note E_, 1
	note B_, 1
	note E_, 1
	note A_, 1
	note D_, 1
	octave 3
	note E_, 1
	octave 2
	note E_, 1
	octave 1
	note B_, 1
	note A_, 1
	note E_, 1
	octave 2
	note E_, 1
	octave 1
	note B_, 1
	octave 2
	note E_, 1
	octave 1
	note A_, 1
	octave 2
	note D_, 1
	octave 1
	note E_, 1
	octave 2
	note E_, 1
	note B_, 1
	note E_, 1
	note A_, 1
	note D_, 1
	octave 3
	note E_, 1
	octave 2
	note E_, 1
	octave 1
	note B_, 1
	note A_, 1
	note E_, 1
	octave 2
	note E_, 1
	octave 1
	note B_, 1
	octave 2
	note E_, 1
	octave 1
	note A_, 1
	octave 2
	note D_, 1
	octave 1
	note E_, 1
	octave 2
	note E_, 1
	note B_, 1
	note E_, 1
	note A_, 1
	note D_, 1
	octave 3
	note E_, 1
	octave 2
	note E_, 1
	octave 1
	note B_, 1
	note A_, 1
	note E_, 1
	octave 2
	note E_, 1
	octave 1
	note B_, 1
	octave 2
	note E_, 1
	octave 1
	note A_, 1
	octave 2
	note D_, 1
	octave 1
	note E_, 1
	octave 2
	note E_, 1
	note B_, 1
	note E_, 1
	note A_, 1
	note D_, 1
	octave 3
	note E_, 1
	octave 2
	note E_, 1
	octave 1
	note B_, 1
	note A_, 1
	note E_, 1
	octave 2
	note E_, 1
	octave 1
	note B_, 1
	octave 2
	note E_, 1
	octave 1
	note A_, 1
	octave 2
	note D_, 1
	octave 1
	note E_, 1
	octave 2
	note E_, 1
	note B_, 1
	note E_, 1
	note A_, 1
	note D_, 1
	octave 3
	note E_, 1
	octave 2
	note E_, 1
	octave 1
	note B_, 1
	note A_, 1
	note E_, 1
	octave 2
	note E_, 1
	octave 1
	note B_, 1
	octave 2
	note E_, 1
	octave 1
	note A_, 1
	octave 2
	note D_, 1
	octave 1
	note E_, 1
	octave 2
	note E_, 1
	note B_, 1
	note E_, 1
	note A_, 1
	note D_, 1
	octave 3
	note E_, 1
	octave 2
	note E_, 1
	octave 1
	note B_, 1
	note A_, 1
	note E_, 1
	octave 2
	note E_, 1
	octave 1
	note B_, 1
	octave 2
	note E_, 1
	octave 1
	note A_, 1
	octave 2
	note D_, 1
	octave 1
	note E_, 1
	octave 2
	note E_, 1
	note B_, 1
	note E_, 1
	note A_, 1
	note D_, 1
	octave 3
	note E_, 1
	octave 2
	note E_, 1
	octave 1
	note B_, 1
	note A_, 1
	note E_, 1
	octave 2
	note E_, 1
	octave 1
	note B_, 1
	octave 2
	note E_, 1
	octave 1
	note A_, 1
	octave 2
	note D_, 1
	octave 1
	note E_, 1
	octave 2
	note E_, 1
	note B_, 1
	note E_, 1
	note A_, 1
	note D_, 1
	octave 3
	note E_, 1
	octave 2
	note E_, 1
	octave 1
	note B_, 1
	note A_, 1
	rest 16
	rest 16
	note E_, 1
	octave 2
	note E_, 1
	octave 1
	note B_, 1
	octave 2
	note E_, 1
	octave 1
	note A_, 1
	octave 2
	note D_, 1
	octave 1
	note E_, 1
	octave 2
	note E_, 1
	note B_, 1
	note E_, 1
	note A_, 1
	note D_, 1
	octave 3
	note E_, 1
	octave 2
	note E_, 1
	octave 1
	note B_, 1
	note A_, 1
	note E_, 1
	octave 2
	note E_, 1
	octave 1
	note B_, 1
	octave 2
	note E_, 1
	octave 1
	note A_, 1
	octave 2
	note D_, 1
	octave 1
	note E_, 1
	octave 2
	note E_, 1
	note B_, 1
	note E_, 1
	note A_, 1
	note D_, 1
	octave 3
	note E_, 1
	octave 2
	note E_, 1
	octave 1
	note B_, 1
	note A_, 1
	note E_, 1
	octave 2
	note E_, 1
	octave 1
	note B_, 1
	octave 2
	note E_, 1
	octave 1
	note A_, 1
	octave 2
	note D_, 1
	octave 1
	note E_, 1
	octave 2
	note E_, 1
	note B_, 1
	note E_, 1
	note A_, 1
	note D_, 1
	octave 3
	note E_, 1
	octave 2
	note E_, 1
	octave 1
	note B_, 1
	note A_, 1
	note E_, 1
	octave 2
	note E_, 1
	octave 1
	note B_, 1
	octave 2
	note E_, 1
	octave 1
	note A_, 1
	octave 2
	note D_, 1
	octave 1
	note E_, 1
	octave 2
	note E_, 1
	note B_, 1
	note E_, 1
	note A_, 1
	note D_, 1
	octave 3
	note E_, 1
	octave 2
	note E_, 1
	octave 1
	note B_, 1
	note A_, 1
	note E_, 1
	octave 2
	note E_, 1
	octave 1
	note B_, 1
	octave 2
	note E_, 1
	octave 1
	note A_, 1
	octave 2
	note D_, 1
	octave 1
	note E_, 1
	octave 2
	note E_, 1
	note B_, 1
	note E_, 1
	note A_, 1
	note D_, 1
	octave 3
	note E_, 1
	octave 2
	note E_, 1
	octave 1
	note B_, 1
	note A_, 1
	note E_, 1
	octave 2
	note E_, 1
	octave 1
	note B_, 1
	octave 2
	note E_, 1
	octave 1
	note A_, 1
	octave 2
	note D_, 1
	octave 1
	note E_, 1
	octave 2
	note E_, 1
	note B_, 1
	note E_, 1
	note A_, 1
	note D_, 1
	octave 3
	note E_, 1
	octave 2
	note E_, 1
	octave 1
	note B_, 1
	note A_, 1
	note E_, 1
	octave 2
	note E_, 1
	octave 1
	note B_, 1
	octave 2
	note E_, 1
	octave 1
	note A_, 1
	octave 2
	note D_, 1
	octave 1
	note E_, 1
	octave 2
	note E_, 1
	note B_, 1
	note E_, 1
	note A_, 1
	note D_, 1
	octave 3
	note E_, 1
	octave 2
	note E_, 1
	octave 1
	note B_, 1
	note A_, 1
	note E_, 1
	octave 2
	note E_, 1
	octave 1
	note B_, 1
	octave 2
	note E_, 1
	octave 1
	note A_, 1
	octave 2
	note D_, 1
	octave 1
	note E_, 1
	octave 2
	note E_, 1
	note B_, 1
	note E_, 1
	note A_, 1
	note D_, 1
	octave 3
	note E_, 1
	octave 2
	note E_, 1
	octave 1
	note B_, 1
	note A_, 1
	note E_, 1
	octave 2
	note E_, 1
	octave 1
	note B_, 1
	octave 2
	note E_, 1
	octave 1
	note A_, 1
	octave 2
	note D_, 1
	octave 1
	note E_, 1
	octave 2
	note E_, 1
	note B_, 1
	note E_, 1
	note A_, 1
	note D_, 1
	octave 3
	note E_, 1
	octave 2
	note E_, 1
	octave 1
	note B_, 1
	note A_, 1
	note E_, 1
	octave 2
	note E_, 1
	octave 1
	note B_, 1
	octave 2
	note E_, 1
	octave 1
	note A_, 1
	octave 2
	note D_, 1
	octave 1
	note E_, 1
	octave 2
	note E_, 1
	note B_, 1
	note E_, 1
	note A_, 1
	note D_, 1
	octave 3
	note E_, 1
	octave 2
	note E_, 1
	octave 1
	note B_, 1
	note A_, 1
	note E_, 1
	octave 2
	note E_, 1
	octave 1
	note B_, 1
	octave 2
	note E_, 1
	octave 1
	note A_, 1
	octave 2
	note D_, 1
	octave 1
	note E_, 1
	octave 2
	note E_, 1
	note B_, 1
	note E_, 1
	note A_, 1
	note D_, 1
	octave 3
	note E_, 1
	octave 2
	note E_, 1
	octave 1
	note B_, 1
	note A_, 1
	note E_, 1
	octave 2
	note E_, 1
	octave 1
	note B_, 1
	octave 2
	note E_, 1
	octave 1
	note A_, 1
	octave 2
	note D_, 1
	octave 1
	note E_, 1
	octave 2
	note E_, 1
	note B_, 1
	note E_, 1
	note A_, 1
	note D_, 1
	octave 3
	note E_, 1
	octave 2
	note E_, 1
	octave 1
	note B_, 1
	note A_, 1
	note E_, 1
	octave 2
	note E_, 1
	octave 1
	note B_, 1
	octave 2
	note E_, 1
	octave 1
	note A_, 1
	octave 2
	note D_, 1
	octave 1
	note E_, 1
	octave 2
	note E_, 1
	note B_, 1
	note E_, 1
	note A_, 1
	note D_, 1
	octave 3
	note E_, 1
	octave 2
	note E_, 1
	octave 1
	note B_, 1
	note A_, 1
	note E_, 1
	octave 2
	note E_, 1
	octave 1
	note B_, 1
	octave 2
	note E_, 1
	octave 1
	note A_, 1
	octave 2
	note D_, 1
	octave 1
	note E_, 1
	octave 2
	note E_, 1
	note B_, 1
	note E_, 1
	note A_, 1
	note D_, 1
	octave 3
	note E_, 1
	octave 2
	note E_, 1
	octave 1
	note B_, 1
	note A_, 1
	note E_, 1
	octave 2
	note E_, 1
	octave 1
	note B_, 1
	octave 2
	note E_, 1
	octave 1
	note A_, 1
	octave 2
	note D_, 1
	octave 1
	note E_, 1
	octave 2
	note E_, 1
	note B_, 1
	note E_, 1
	note A_, 1
	note D_, 1
	octave 3
	note E_, 1
	octave 2
	note E_, 1
	octave 1
	note B_, 1
	note A_, 1
	note E_, 1
	octave 2
	note E_, 1
	octave 1
	note B_, 1
	octave 2
	note E_, 1
	octave 1
	note A_, 1
	octave 2
	note D_, 1
	octave 1
	note E_, 1
	octave 2
	note E_, 1
	note B_, 1
	note E_, 1
	note A_, 1
	note D_, 1
	octave 3
	note E_, 1
	octave 2
	note E_, 1
	octave 1
	note B_, 1
	note A_, 1
	note E_, 1
	octave 2
	note E_, 1
	octave 1
	note B_, 1
	octave 2
	note E_, 1
	octave 1
	note A_, 1
	octave 2
	note D_, 1
	octave 1
	note E_, 1
	octave 2
	note E_, 1
	note B_, 1
	note E_, 1
	note A_, 1
	note D_, 1
	octave 3
	note E_, 1
	octave 2
	note E_, 1
	octave 1
	note B_, 1
	note A_, 1
	note E_, 1
	octave 2
	note E_, 1
	octave 1
	note B_, 1
	octave 2
	note E_, 1
	octave 1
	note A_, 1
	octave 2
	note D_, 1
	octave 1
	note E_, 1
	octave 2
	note E_, 1
	note B_, 1
	note E_, 1
	note A_, 1
	note D_, 1
	octave 3
	note E_, 1
	octave 2
	note E_, 1
	octave 1
	note B_, 1
	note A_, 1
	rest 16
	volume_envelope 4, 7
	octave 2
	note D#, 1
	note D#, 1
	note D#, 1
	volume_envelope 5, 7
	note D#, 1
	note D#, 1
	note D#, 1
	volume_envelope 6, 7
	note D#, 1
	note D#, 1
	note D#, 1
	note D#, 1
	volume_envelope 7, 7
	note D#, 1
	note D#, 1
	note D#, 1
	volume_envelope 8, 7
	note D#, 1
	note D#, 1
	note D#, 1
	octave 3
	note E_, 16
	octave 4
	sound_ret

Music_Placeholder_Ch2:
	note_type 12, 8, 7
	rest 16
	rest 16
	rest 16
	rest 16
	volume_envelope 1, 7
	octave 4
	duty_cycle 2
	note B_, 1
	note G_, 1
	note B_, 1
	note G_, 1
	note B_, 1
	note G_, 1
	note B_, 1
	note G_, 1
	note B_, 1
	volume_envelope 2, 7
	note G_, 1
	note B_, 1
	note G_, 1
	note B_, 1
	note G_, 1
	note B_, 1
	note G_, 1
	note B_, 1
	note G_, 1
	note B_, 1
	note G_, 1
	note B_, 1
	note G_, 1
	note B_, 1
	note G_, 1
	volume_envelope 3, 7
	note B_, 1
	note G_, 1
	note B_, 1
	note G_, 1
	note B_, 1
	note G_, 1
	note B_, 1
	note G_, 1
	note B_, 1
	note G_, 1
	note B_, 1
	note G_, 1
	note B_, 1
	volume_envelope 4, 7
	note G_, 1
	note B_, 1
	note G_, 1
	note B_, 1
	note G_, 1
	note B_, 1
	note G_, 1
	note B_, 1
	note G_, 1
	note B_, 1
	note G_, 1
	note B_, 1
	note G_, 1
	note B_, 1
	note G_, 1
	volume_envelope 5, 7
	note B_, 1
	note G_, 1
	note B_, 1
	note G_, 1
	note B_, 1
	note G_, 1
	note B_, 1
	note G_, 1
	note B_, 1
	note G_, 1
	note B_, 1
	note G_, 1
	note B_, 1
	note G_, 1
	note B_, 1
	note G_, 1
	note B_, 1
	note G_, 1
	note B_, 1
	note G_, 1
	note B_, 1
	note G_, 1
	note B_, 1
	note G_, 1
	note B_, 1
	note G_, 1
	note B_, 1
	note G_, 1
	note B_, 1
	note G_, 1
	note B_, 1
	note G_, 1
	note B_, 1
	note G_, 1
	volume_envelope 4, 7
	note B_, 1
	note G_, 1
	note B_, 1
	note G_, 1
	note B_, 1
	note G_, 1
	note B_, 1
	note G_, 1
	note B_, 1
	note G_, 1
	note B_, 1
	note G_, 1
	note B_, 1
	note G_, 1
	note B_, 1
	note G_, 1
	note B_, 1
	note G_, 1
	note B_, 1
	volume_envelope 3, 7
	note G_, 1
	note B_, 1
	note G_, 1
	note B_, 1
	note G_, 1
	note B_, 1
	note G_, 1
	note B_, 1
	note G_, 1
	note B_, 1
	note G_, 1
	note B_, 1
	note G_, 1
	note B_, 1
	note G_, 1
	note B_, 1
	note G_, 1
	note B_, 1
	note G_, 1
	note B_, 1
	note G_, 1
	note B_, 1
	note G_, 1
	volume_envelope 1, 7
	note A_, 1
	note F#, 1
	note A_, 1
	note F#, 1
	note A_, 1
	note F#, 1
	note A_, 1
	note F#, 1
	note A_, 1
	volume_envelope 2, 7
	note F#, 1
	note A_, 1
	note F#, 1
	note A_, 1
	note F#, 1
	note A_, 1
	note F#, 1
	note A_, 1
	note F#, 1
	note A_, 1
	note F#, 1
	note A_, 1
	note F#, 1
	note A_, 1
	note F#, 1
	volume_envelope 3, 7
	note A_, 1
	note F#, 1
	note A_, 1
	note F#, 1
	note A_, 1
	note F#, 1
	note A_, 1
	note F#, 1
	note A_, 1
	note F#, 1
	note A_, 1
	note F#, 1
	note A_, 1
	volume_envelope 4, 7
	note F#, 1
	note A_, 1
	note F#, 1
	note A_, 1
	note F#, 1
	note A_, 1
	note F#, 1
	note A_, 1
	note F#, 1
	note A_, 1
	note F#, 1
	note A_, 1
	note F#, 1
	note A_, 1
	note F#, 1
	volume_envelope 5, 7
	note A_, 1
	note F#, 1
	note A_, 1
	note F#, 1
	note A_, 1
	note F#, 1
	note A_, 1
	note F#, 1
	note A_, 1
	note F#, 1
	note A_, 1
	note F#, 1
	note A_, 1
	note F#, 1
	note A_, 1
	note F#, 1
	note A_, 1
	note F#, 1
	note A_, 1
	note F#, 1
	note A_, 1
	note F#, 1
	note A_, 1
	note F#, 1
	note A_, 1
	note F#, 1
	note A_, 1
	note F#, 1
	note A_, 1
	note F#, 1
	note A_, 1
	note F#, 1
	note A_, 1
	note F#, 1
	volume_envelope 4, 7
	note A_, 1
	note F#, 1
	note A_, 1
	note F#, 1
	note A_, 1
	note F#, 1
	note A_, 1
	note F#, 1
	note A_, 1
	note F#, 1
	note A_, 1
	note F#, 1
	note A_, 1
	note F#, 1
	note A_, 1
	note F#, 1
	note A_, 1
	note F#, 1
	note A_, 1
	volume_envelope 3, 7
	note F#, 1
	note A_, 1
	note F#, 1
	note A_, 1
	note F#, 1
	note A_, 1
	note F#, 1
	note A_, 1
	note F#, 1
	note A_, 1
	note F#, 1
	note A_, 1
	note F#, 1
	note A_, 1
	note F#, 1
	note A_, 1
	note F#, 1
	note A_, 1
	note F#, 1
	note A_, 1
	note F#, 1
	note A_, 1
	note F#, 1
	volume_envelope 1, 7
	note G_, 1
	note E_, 1
	note G_, 1
	note E_, 1
	note G_, 1
	note E_, 1
	note G_, 1
	note E_, 1
	note G_, 1
	volume_envelope 2, 7
	note E_, 1
	note G_, 1
	note E_, 1
	note G_, 1
	note E_, 1
	note G_, 1
	note E_, 1
	note G_, 1
	note E_, 1
	note G_, 1
	note E_, 1
	note G_, 1
	note E_, 1
	note G_, 1
	note E_, 1
	volume_envelope 3, 7
	note G_, 1
	note E_, 1
	note G_, 1
	note E_, 1
	note G_, 1
	note E_, 1
	note G_, 1
	note E_, 1
	note G_, 1
	note E_, 1
	note G_, 1
	note E_, 1
	note G_, 1
	volume_envelope 4, 7
	note E_, 1
	note G_, 1
	note E_, 1
	note G_, 1
	note E_, 1
	note G_, 1
	note E_, 1
	note G_, 1
	note E_, 1
	note G_, 1
	note E_, 1
	note G_, 1
	note E_, 1
	note G_, 1
	note E_, 1
	volume_envelope 5, 7
	note G_, 1
	note E_, 1
	note G_, 1
	note E_, 1
	note G_, 1
	note E_, 1
	note G_, 1
	note E_, 1
	note G_, 1
	note E_, 1
	note G_, 1
	note E_, 1
	note G_, 1
	note E_, 1
	note G_, 1
	note E_, 1
	note G_, 1
	note E_, 1
	note G_, 1
	note E_, 1
	note G_, 1
	note E_, 1
	note G_, 1
	note E_, 1
	note G_, 1
	note E_, 1
	note G_, 1
	note E_, 1
	note G_, 1
	note E_, 1
	note G_, 1
	note E_, 1
	note G_, 1
	note E_, 1
	volume_envelope 4, 7
	note G_, 1
	note E_, 1
	note G_, 1
	note E_, 1
	note G_, 1
	note E_, 1
	note G_, 1
	note E_, 1
	note G_, 1
	note E_, 1
	note G_, 1
	note E_, 1
	note G_, 1
	note E_, 1
	note G_, 1
	note E_, 1
	note G_, 1
	note E_, 1
	note G_, 1
	volume_envelope 3, 7
	note E_, 1
	note G_, 1
	note E_, 1
	note G_, 1
	note E_, 1
	note G_, 1
	note E_, 1
	note G_, 1
	note E_, 1
	note G_, 1
	note E_, 1
	note G_, 1
	note E_, 1
	note G_, 1
	note E_, 1
	note G_, 1
	note E_, 1
	note G_, 1
	note E_, 1
	note G_, 1
	note E_, 1
	note G_, 1
	note E_, 1
	volume_envelope 1, 7
	note F#, 1
	note D_, 1
	note F#, 1
	note D_, 1
	note F#, 1
	note D_, 1
	note F#, 1
	note D_, 1
	volume_envelope 2, 7
	note F#, 1
	note D_, 1
	note F#, 1
	note D_, 1
	note F#, 1
	note D_, 1
	note F#, 1
	note D_, 1
	note F#, 1
	note D_, 1
	note F#, 1
	note D_, 1
	note F#, 1
	note D_, 1
	note F#, 1
	volume_envelope 3, 7
	note D_, 1
	note F#, 1
	note D_, 1
	note F#, 1
	note D_, 1
	note F#, 1
	note D_, 1
	note F#, 1
	note D_, 1
	note F#, 1
	note D_, 1
	note F#, 1
	note D_, 1
	volume_envelope 4, 7
	note F#, 1
	note D_, 1
	note F#, 1
	note D_, 1
	note F#, 1
	note D_, 1
	note F#, 1
	note D_, 1
	note F#, 1
	note D_, 1
	note F#, 1
	note D_, 1
	note F#, 1
	note D_, 1
	note F#, 1
	volume_envelope 5, 7
	note D_, 1
	note F#, 1
	note D_, 1
	note F#, 1
	note D_, 1
	note F#, 1
	note D_, 1
	note F#, 1
	note D_, 1
	note F#, 1
	note D_, 1
	note F#, 1
	note D_, 1
	note F#, 1
	note D_, 1
	note F#, 1
	note D_, 1
	note F#, 1
	note D_, 1
	note F#, 1
	note D_, 1
	note F#, 1
	note D_, 1
	note F#, 1
	note D_, 1
	note F#, 1
	note D_, 1
	note F#, 1
	note D_, 1
	note F#, 1
	note D_, 1
	note F#, 1
	note D_, 1
	note F#, 1
	note D_, 1
	volume_envelope 4, 7
	note F#, 1
	note D_, 1
	note F#, 1
	note D_, 1
	note F#, 1
	note D_, 1
	note F#, 1
	note D_, 1
	note F#, 1
	note D_, 1
	note F#, 1
	note D_, 1
	note F#, 1
	note D_, 1
	note F#, 1
	note D_, 1
	note F#, 1
	note D_, 1
	note F#, 1
	volume_envelope 3, 7
	note D_, 1
	note F#, 1
	note D_, 1
	note F#, 1
	note D_, 1
	note F#, 1
	note D_, 1
	note F#, 1
	note D_, 1
	note F#, 1
	note D_, 1
	note F#, 1
	note D_, 1
	note F#, 1
	note D_, 1
	note F#, 1
	note D_, 1
	note F#, 1
	note D_, 1
	note F#, 1
	note D_, 1
	note F#, 1
	note D_, 1
	rest 16
	rest 16
	rest 16
	rest 16
	volume_envelope 1, 7
	octave 5
	note G_, 1
	note G_, 1
	note G_, 1
	note G_, 1
	volume_envelope 2, 7
	note G_, 1
	note G_, 1
	note G_, 1
	note G_, 1
	note G_, 1
	volume_envelope 3, 7
	note G_, 1
	note G_, 1
	note G_, 1
	note G_, 1
	note G_, 1
	volume_envelope 4, 7
	note G_, 1
	note G_, 1
	note G_, 1
	note G_, 1
	note G_, 1
	note G_, 1
	volume_envelope 5, 7
	note G_, 1
	note G_, 1
	note G_, 1
	note G_, 1
	note G_, 1
	volume_envelope 6, 7
	note G_, 1
	note G_, 1
	note G_, 1
	note F#, 1
	note F#, 1
	note F#, 1
	volume_envelope 7, 7
	note F#, 1
	note F#, 1
	note F#, 1
	note F#, 1
	note F#, 1
	volume_envelope 6, 7
	note F#, 1
	note F#, 1
	note F#, 1
	note F#, 1
	volume_envelope 5, 7
	note F#, 1
	note F#, 1
	note F#, 1
	note F#, 1
	note F#, 1
	volume_envelope 4, 7
	note F#, 1
	note F#, 1
	note F#, 1
	note F#, 1
	note F#, 1
	volume_envelope 3, 7
	note F#, 1
	note F#, 1
	note F#, 1
	note F#, 1
	volume_envelope 2, 7
	note F#, 1
	note F#, 1
	note F#, 1
	note F#, 1
	volume_envelope 1, 7
	note F#, 1
	note F#, 1
	note F#, 1
	note F#, 1
	note F#, 1
	note F#, 1
	note D_, 1
	note D_, 1
	note D_, 1
	note D_, 1
	volume_envelope 2, 7
	note D_, 1
	note D_, 1
	note D_, 1
	note D_, 1
	note D_, 1
	volume_envelope 3, 7
	note D_, 1
	note D_, 1
	note D_, 1
	note D_, 1
	note D_, 1
	volume_envelope 4, 7
	note D_, 1
	note D_, 1
	note D_, 1
	note D_, 1
	note D_, 1
	note D_, 1
	volume_envelope 5, 7
	note D_, 1
	note D_, 1
	note D_, 1
	note D_, 1
	note D_, 1
	volume_envelope 6, 7
	note D_, 1
	note D_, 1
	note D_, 1
	note D#, 1
	note D#, 1
	note D#, 1
	volume_envelope 7, 7
	note D#, 1
	note E_, 1
	note E_, 1
	note E_, 1
	volume_envelope 6, 7
	note E_, 1
	note E_, 1
	note E_, 1
	note E_, 1
	note E_, 1
	volume_envelope 5, 7
	note E_, 1
	note E_, 1
	note E_, 1
	note E_, 1
	note E_, 1
	volume_envelope 4, 7
	note E_, 1
	note E_, 1
	note E_, 1
	note E_, 1
	volume_envelope 3, 7
	note E_, 1
	note E_, 1
	note E_, 1
	note E_, 1
	note E_, 1
	volume_envelope 2, 7
	note E_, 1
	note E_, 1
	note E_, 1
	note E_, 1
	volume_envelope 1, 7
	note E_, 1
	note E_, 1
	note E_, 1
	note E_, 1
	note E_, 1
	note E_, 1
	rest 16
	rest 16
	rest 16
	rest 16
	rest 4
	volume_envelope 7, 7
	octave 4
	note D#, 4
	note A_, 4
	octave 5
	note C_, 16
	note C_, 3
	rest 3
	volume_envelope 8, 7
	octave 4
	note B_, 2
	octave 5
	note E_, 2
	note F#, 2
	note G_, 8
	rest 2
	octave 4
	note B_, 2
	octave 5
	note E_, 2
	note F#, 2
	note G_, 6
	note F#, 1
	note E_, 1
	note F#, 12
	note D_, 4
	octave 4
	note A_, 15
	rest 3
	octave 5
	note C_, 2
	note E_, 2
	note F#, 2
	note G_, 8
	rest 2
	note C_, 2
	note E_, 2
	note F#, 2
	note G_, 6
	note F#, 1
	note E_, 1
	note F#, 12
	note G_, 4
	note A_, 16
	note B_, 4
	note G_, 2
	note E_, 9
	rest 3
	note B_, 4
	note B_, 2
	note B_, 3
	note A_, 3
	note G_, 2
	note A_, 4
	note F#, 2
	note D_, 9
	rest 3
	note A_, 4
	note A_, 2
	note A_, 3
	note G_, 3
	note F#, 2
	note G_, 4
	octave 6
	note E_, 11
	rest 3
	octave 5
	note G_, 4
	note G_, 2
	note G_, 3
	note A_, 3
	note G_, 2
	note F#, 4
	octave 6
	note D#, 11
	rest 3
	octave 5
	note F#, 4
	note F#, 2
	note F#, 3
	note G_, 3
	note F#, 2
	rest 16
	rest 16
	rest 16
	rest 16
	volume_envelope 1, 7
	octave 4
	note B_, 1
	note G_, 1
	note B_, 1
	note G_, 1
	note B_, 1
	note G_, 1
	note B_, 1
	note G_, 1
	note B_, 1
	volume_envelope 2, 7
	note G_, 1
	note B_, 1
	note G_, 1
	note B_, 1
	note G_, 1
	note B_, 1
	note G_, 1
	note B_, 1
	note G_, 1
	note B_, 1
	note G_, 1
	note B_, 1
	note G_, 1
	note B_, 1
	note G_, 1
	volume_envelope 3, 7
	note B_, 1
	note G_, 1
	note B_, 1
	note G_, 1
	note B_, 1
	note G_, 1
	note B_, 1
	note G_, 1
	note B_, 1
	note G_, 1
	note B_, 1
	note G_, 1
	note B_, 1
	volume_envelope 4, 7
	note G_, 1
	note B_, 1
	note G_, 1
	note B_, 1
	note G_, 1
	note B_, 1
	note G_, 1
	note B_, 1
	note G_, 1
	note B_, 1
	note G_, 1
	note B_, 1
	note G_, 1
	note B_, 1
	note G_, 1
	volume_envelope 5, 7
	note B_, 1
	note G_, 1
	note B_, 1
	note G_, 1
	note B_, 1
	note G_, 1
	note B_, 1
	note G_, 1
	note B_, 1
	note G_, 1
	note B_, 1
	note G_, 1
	note B_, 1
	note G_, 1
	note B_, 1
	note G_, 1
	note B_, 1
	note G_, 1
	note B_, 1
	note G_, 1
	note B_, 1
	note G_, 1
	note B_, 1
	note G_, 1
	note B_, 1
	note G_, 1
	note B_, 1
	note G_, 1
	note B_, 1
	note G_, 1
	note B_, 1
	note G_, 1
	note B_, 1
	note G_, 1
	volume_envelope 4, 7
	note B_, 1
	note G_, 1
	note B_, 1
	note G_, 1
	note B_, 1
	note G_, 1
	note B_, 1
	note G_, 1
	note B_, 1
	note G_, 1
	note B_, 1
	note G_, 1
	note B_, 1
	note G_, 1
	note B_, 1
	note G_, 1
	note B_, 1
	note G_, 1
	note B_, 1
	volume_envelope 3, 7
	note G_, 1
	note B_, 1
	note G_, 1
	note B_, 1
	note G_, 1
	note B_, 1
	note G_, 1
	note B_, 1
	note G_, 1
	note B_, 1
	note G_, 1
	note B_, 1
	note G_, 1
	note B_, 1
	note G_, 1
	note B_, 1
	note G_, 1
	note B_, 1
	note G_, 1
	note B_, 1
	note G_, 1
	note B_, 1
	note G_, 1
	volume_envelope 1, 7
	note A_, 1
	note F#, 1
	note A_, 1
	note F#, 1
	note A_, 1
	note F#, 1
	note A_, 1
	note F#, 1
	note A_, 1
	volume_envelope 2, 7
	note F#, 1
	note A_, 1
	note F#, 1
	note A_, 1
	note F#, 1
	note A_, 1
	note F#, 1
	note A_, 1
	note F#, 1
	note A_, 1
	note F#, 1
	note A_, 1
	note F#, 1
	note A_, 1
	note F#, 1
	volume_envelope 3, 7
	note A_, 1
	note F#, 1
	note A_, 1
	note F#, 1
	note A_, 1
	note F#, 1
	note A_, 1
	note F#, 1
	note A_, 1
	note F#, 1
	note A_, 1
	note F#, 1
	note A_, 1
	volume_envelope 4, 7
	note F#, 1
	note A_, 1
	note F#, 1
	note A_, 1
	note F#, 1
	note A_, 1
	note F#, 1
	note A_, 1
	note F#, 1
	note A_, 1
	note F#, 1
	note A_, 1
	note F#, 1
	note A_, 1
	note F#, 1
	volume_envelope 5, 7
	note A_, 1
	note F#, 1
	note A_, 1
	note F#, 1
	note A_, 1
	note F#, 1
	note A_, 1
	note F#, 1
	note A_, 1
	note F#, 1
	note A_, 1
	note F#, 1
	note A_, 1
	note F#, 1
	note A_, 1
	note F#, 1
	note A_, 1
	note F#, 1
	note A_, 1
	note F#, 1
	note A_, 1
	note F#, 1
	note A_, 1
	note F#, 1
	note A_, 1
	note F#, 1
	note A_, 1
	note F#, 1
	note A_, 1
	note F#, 1
	note A_, 1
	note F#, 1
	note A_, 1
	note F#, 1
	volume_envelope 4, 7
	note A_, 1
	note F#, 1
	note A_, 1
	note F#, 1
	note A_, 1
	note F#, 1
	note A_, 1
	note F#, 1
	note A_, 1
	note F#, 1
	note A_, 1
	note F#, 1
	note A_, 1
	note F#, 1
	note A_, 1
	note F#, 1
	note A_, 1
	note F#, 1
	note A_, 1
	volume_envelope 3, 7
	note F#, 1
	note A_, 1
	note F#, 1
	note A_, 1
	note F#, 1
	note A_, 1
	note F#, 1
	note A_, 1
	note F#, 1
	note A_, 1
	note F#, 1
	note A_, 1
	note F#, 1
	note A_, 1
	note F#, 1
	note A_, 1
	note F#, 1
	note A_, 1
	note F#, 1
	note A_, 1
	note F#, 1
	note A_, 1
	note F#, 1
	volume_envelope 1, 7
	note G_, 1
	note E_, 1
	note G_, 1
	note E_, 1
	note G_, 1
	note E_, 1
	note G_, 1
	note E_, 1
	note G_, 1
	volume_envelope 2, 7
	note E_, 1
	note G_, 1
	note E_, 1
	note G_, 1
	note E_, 1
	note G_, 1
	note E_, 1
	note G_, 1
	note E_, 1
	note G_, 1
	note E_, 1
	note G_, 1
	note E_, 1
	note G_, 1
	note E_, 1
	volume_envelope 3, 7
	note G_, 1
	note E_, 1
	note G_, 1
	note E_, 1
	note G_, 1
	note E_, 1
	note G_, 1
	note E_, 1
	note G_, 1
	note E_, 1
	note G_, 1
	note E_, 1
	note G_, 1
	volume_envelope 4, 7
	note E_, 1
	note G_, 1
	note E_, 1
	note G_, 1
	note E_, 1
	note G_, 1
	note E_, 1
	note G_, 1
	note E_, 1
	note G_, 1
	note E_, 1
	note G_, 1
	note E_, 1
	note G_, 1
	note E_, 1
	volume_envelope 5, 7
	note G_, 1
	note E_, 1
	note G_, 1
	note E_, 1
	note G_, 1
	note E_, 1
	note G_, 1
	note E_, 1
	note G_, 1
	note E_, 1
	note G_, 1
	note E_, 1
	note G_, 1
	note E_, 1
	note G_, 1
	note E_, 1
	note G_, 1
	note E_, 1
	note G_, 1
	note E_, 1
	note G_, 1
	note E_, 1
	note G_, 1
	note E_, 1
	note G_, 1
	note E_, 1
	note G_, 1
	note E_, 1
	note G_, 1
	note E_, 1
	note G_, 1
	note E_, 1
	note G_, 1
	note E_, 1
	volume_envelope 4, 7
	note G_, 1
	note E_, 1
	note G_, 1
	note E_, 1
	note G_, 1
	note E_, 1
	note G_, 1
	note E_, 1
	note G_, 1
	note E_, 1
	note G_, 1
	note E_, 1
	note G_, 1
	note E_, 1
	note G_, 1
	note E_, 1
	note G_, 1
	note E_, 1
	note G_, 1
	volume_envelope 3, 7
	note E_, 1
	note G_, 1
	note E_, 1
	note G_, 1
	note E_, 1
	note G_, 1
	note E_, 1
	note G_, 1
	note E_, 1
	note G_, 1
	note E_, 1
	note G_, 1
	note E_, 1
	note G_, 1
	note E_, 1
	note G_, 1
	note E_, 1
	note G_, 1
	note E_, 1
	note G_, 1
	note E_, 1
	note G_, 1
	note E_, 1
	volume_envelope 1, 7
	note F#, 1
	note D_, 1
	note F#, 1
	note D_, 1
	note F#, 1
	note D_, 1
	note F#, 1
	note D_, 1
	volume_envelope 2, 7
	note F#, 1
	note D_, 1
	note F#, 1
	note D_, 1
	note F#, 1
	note D_, 1
	note F#, 1
	note D_, 1
	note F#, 1
	note D_, 1
	note F#, 1
	note D_, 1
	note F#, 1
	note D_, 1
	note F#, 1
	volume_envelope 3, 7
	note D_, 1
	note F#, 1
	note D_, 1
	note F#, 1
	note D_, 1
	note F#, 1
	note D_, 1
	note F#, 1
	note D_, 1
	note F#, 1
	note D_, 1
	note F#, 1
	note D_, 1
	volume_envelope 4, 7
	note F#, 1
	note D_, 1
	note F#, 1
	note D_, 1
	note F#, 1
	note D_, 1
	note F#, 1
	note D_, 1
	note F#, 1
	note D_, 1
	note F#, 1
	note D_, 1
	note F#, 1
	note D_, 1
	note F#, 1
	volume_envelope 5, 7
	note D_, 1
	note F#, 1
	note D_, 1
	note F#, 1
	note D_, 1
	note F#, 1
	note D_, 1
	note F#, 1
	note D_, 1
	note F#, 1
	note D_, 1
	note F#, 1
	note D_, 1
	note F#, 1
	note D_, 1
	note F#, 1
	note D_, 1
	note F#, 1
	note D_, 1
	note F#, 1
	note D_, 1
	note F#, 1
	note D_, 1
	note F#, 1
	note D_, 1
	note F#, 1
	note D_, 1
	note F#, 1
	note D_, 1
	note F#, 1
	note D_, 1
	note F#, 1
	note D_, 1
	note F#, 1
	note D_, 1
	volume_envelope 4, 7
	note F#, 1
	note D_, 1
	note F#, 1
	note D_, 1
	note F#, 1
	note D_, 1
	note F#, 1
	note D_, 1
	note F#, 1
	note D_, 1
	note F#, 1
	note D_, 1
	note F#, 1
	note D_, 1
	note F#, 1
	note D_, 1
	note F#, 1
	note D_, 1
	note F#, 1
	volume_envelope 3, 7
	note D_, 1
	note F#, 1
	note D_, 1
	note F#, 1
	note D_, 1
	note F#, 1
	note D_, 1
	note F#, 1
	note D_, 1
	note F#, 1
	note D_, 1
	note F#, 1
	note D_, 1
	note F#, 1
	note D_, 1
	note F#, 1
	note D_, 1
	note F#, 1
	note D_, 1
	note F#, 1
	note D_, 1
	note F#, 1
	note D_, 1
	rest 16
	rest 16
	rest 16
	rest 16
	volume_envelope 1, 7
	octave 5
	note G_, 1
	note G_, 1
	note G_, 1
	note G_, 1
	volume_envelope 2, 7
	note G_, 1
	note G_, 1
	note G_, 1
	note G_, 1
	note G_, 1
	volume_envelope 3, 7
	note G_, 1
	note G_, 1
	note G_, 1
	note G_, 1
	note G_, 1
	volume_envelope 4, 7
	note G_, 1
	note G_, 1
	note G_, 1
	note G_, 1
	note G_, 1
	note G_, 1
	volume_envelope 5, 7
	note G_, 1
	note G_, 1
	note G_, 1
	note G_, 1
	note G_, 1
	volume_envelope 6, 7
	note G_, 1
	note G_, 1
	note G_, 1
	note F#, 1
	note F#, 1
	note F#, 1
	volume_envelope 7, 7
	note F#, 1
	note F#, 1
	note F#, 1
	note F#, 1
	note F#, 1
	volume_envelope 6, 7
	note F#, 1
	note F#, 1
	note F#, 1
	note F#, 1
	volume_envelope 5, 7
	note F#, 1
	note F#, 1
	note F#, 1
	note F#, 1
	note F#, 1
	volume_envelope 4, 7
	note F#, 1
	note F#, 1
	note F#, 1
	note F#, 1
	note F#, 1
	volume_envelope 3, 7
	note F#, 1
	note F#, 1
	note F#, 1
	note F#, 1
	volume_envelope 2, 7
	note F#, 1
	note F#, 1
	note F#, 1
	note F#, 1
	volume_envelope 1, 7
	note F#, 1
	note F#, 1
	note F#, 1
	note F#, 1
	note F#, 1
	note F#, 1
	note D_, 1
	note D_, 1
	note D_, 1
	note D_, 1
	volume_envelope 2, 7
	note D_, 1
	note D_, 1
	note D_, 1
	note D_, 1
	note D_, 1
	volume_envelope 3, 7
	note D_, 1
	note D_, 1
	note D_, 1
	note D_, 1
	note D_, 1
	volume_envelope 4, 7
	note D_, 1
	note D_, 1
	note D_, 1
	note D_, 1
	note D_, 1
	note D_, 1
	volume_envelope 5, 7
	note D_, 1
	note D_, 1
	note D_, 1
	note D_, 1
	note D_, 1
	volume_envelope 6, 7
	note D_, 1
	note D_, 1
	note D_, 1
	note D#, 1
	note D#, 1
	note D#, 1
	volume_envelope 7, 7
	note D#, 1
	note E_, 1
	note E_, 1
	note E_, 1
	volume_envelope 6, 7
	note E_, 1
	note E_, 1
	note E_, 1
	note E_, 1
	note E_, 1
	volume_envelope 5, 7
	note E_, 1
	note E_, 1
	note E_, 1
	note E_, 1
	note E_, 1
	volume_envelope 4, 7
	note E_, 1
	note E_, 1
	note E_, 1
	note E_, 1
	volume_envelope 3, 7
	note E_, 1
	note E_, 1
	note E_, 1
	note E_, 1
	note E_, 1
	volume_envelope 2, 7
	note E_, 1
	note E_, 1
	note E_, 1
	note E_, 1
	volume_envelope 1, 7
	note E_, 1
	note E_, 1
	note E_, 1
	note E_, 1
	note E_, 1
	note E_, 1
	rest 16
	rest 16
	rest 16
	rest 16
	rest 4
	volume_envelope 7, 7
	octave 4
	note D#, 4
	note A_, 4
	octave 5
	note C_, 16
	note C_, 3
	rest 3
	volume_envelope 8, 7
	octave 4
	note B_, 2
	octave 5
	note E_, 2
	note F#, 2
	note G_, 8
	rest 2
	octave 4
	note B_, 2
	octave 5
	note E_, 2
	note F#, 2
	note G_, 6
	note F#, 1
	note E_, 1
	note F#, 12
	note D_, 4
	octave 4
	note A_, 15
	rest 3
	octave 5
	note C_, 2
	note E_, 2
	note F#, 2
	note G_, 8
	rest 2
	note C_, 2
	note E_, 2
	note F#, 2
	note G_, 6
	note F#, 1
	note E_, 1
	note F#, 12
	note G_, 4
	note A_, 16
	note B_, 4
	note G_, 2
	note E_, 9
	rest 3
	note B_, 4
	note B_, 2
	note B_, 3
	note A_, 3
	note G_, 2
	note A_, 4
	note F#, 2
	note D_, 9
	rest 3
	note A_, 4
	note A_, 2
	note A_, 3
	note G_, 3
	note F#, 2
	note G_, 4
	octave 6
	note E_, 11
	rest 3
	octave 5
	note G_, 4
	note G_, 2
	note G_, 3
	note A_, 3
	note G_, 2
	note F#, 4
	octave 6
	note D#, 11
	rest 3
	octave 5
	note F#, 4
	note F#, 2
	note F#, 3
	note G_, 3
	note F#, 2
	note E_, 15
	rest 16
	rest 5
	volume_envelope 7, 7
	octave 4
	note D#, 4
	note A_, 4
	octave 5
	note C_, 4
	note D#, 16
	volume_envelope 8, 7
	octave 4
	note G_, 15
	octave 3
	sound_ret

Music_Placeholder_Ch3:
	note_type 12, 1, 0
	octave 1
	note E_, 16
	note E_, 14
	rest 2
	note E_, 16
	note E_, 14
	rest 2
	note E_, 16
	note E_, 16
	note E_, 16
	note E_, 13
	rest 3
	note E_, 16
	note E_, 16
	note E_, 16
	note E_, 13
	rest 3
	note E_, 16
	note E_, 16
	note E_, 16
	note E_, 13
	rest 3
	note E_, 16
	note E_, 16
	note E_, 16
	note E_, 13
	rest 3
	octave 2
	note E_, 2
	octave 1
	note E_, 2
	octave 2
	note E_, 2
	octave 1
	note E_, 2
	octave 2
	note E_, 2
	octave 1
	note E_, 2
	octave 2
	note E_, 2
	octave 1
	note E_, 2
	octave 2
	note E_, 2
	octave 1
	note E_, 2
	octave 2
	note E_, 2
	octave 1
	note E_, 2
	octave 2
	note E_, 2
	octave 1
	note E_, 2
	octave 2
	note E_, 2
	octave 1
	note E_, 2
	octave 2
	note E_, 2
	octave 1
	note E_, 2
	octave 2
	note E_, 2
	octave 1
	note E_, 2
	octave 2
	note E_, 2
	octave 1
	note E_, 2
	octave 2
	note E_, 2
	octave 1
	note E_, 2
	octave 2
	note E_, 2
	octave 1
	note E_, 2
	octave 2
	note E_, 2
	octave 1
	note E_, 2
	octave 2
	note E_, 2
	octave 1
	note E_, 2
	octave 2
	note E_, 2
	octave 1
	note E_, 2
	octave 2
	note E_, 2
	octave 1
	note E_, 2
	octave 2
	note E_, 2
	octave 1
	note E_, 2
	octave 2
	note E_, 2
	octave 1
	note E_, 2
	octave 2
	note E_, 2
	octave 1
	note E_, 2
	octave 2
	note E_, 2
	octave 1
	note E_, 2
	octave 2
	note E_, 2
	octave 1
	note E_, 2
	octave 2
	note E_, 2
	octave 1
	note E_, 2
	octave 2
	note E_, 2
	octave 1
	note E_, 2
	octave 2
	note E_, 2
	octave 1
	note E_, 2
	octave 2
	note E_, 2
	octave 1
	note E_, 2
	octave 2
	note E_, 2
	octave 1
	note E_, 2
	octave 2
	note E_, 2
	octave 1
	note E_, 2
	octave 2
	note E_, 2
	octave 1
	note E_, 2
	octave 2
	note E_, 2
	octave 1
	note E_, 2
	octave 2
	note E_, 2
	octave 1
	note E_, 2
	octave 2
	note E_, 2
	octave 1
	note E_, 2
	octave 2
	note E_, 2
	octave 1
	note E_, 2
	octave 2
	note E_, 2
	octave 1
	note E_, 2
	octave 2
	note E_, 2
	octave 1
	note E_, 2
	octave 2
	note E_, 2
	octave 1
	note E_, 2
	octave 2
	note E_, 2
	octave 1
	note E_, 2
	octave 2
	note E_, 2
	octave 1
	note E_, 2
	octave 2
	note E_, 2
	octave 1
	note E_, 2
	octave 2
	note E_, 2
	octave 1
	note E_, 2
	octave 2
	note E_, 2
	octave 1
	note E_, 2
	octave 2
	note E_, 2
	octave 1
	note E_, 2
	octave 2
	note E_, 2
	octave 1
	note E_, 2
	octave 2
	note E_, 2
	octave 1
	note E_, 2
	octave 2
	note E_, 2
	octave 1
	note E_, 2
	octave 2
	note E_, 2
	octave 1
	note E_, 2
	octave 2
	note E_, 2
	octave 1
	note E_, 2
	octave 2
	note E_, 2
	octave 1
	note E_, 2
	octave 2
	note E_, 2
	octave 1
	note E_, 2
	octave 2
	note E_, 2
	octave 1
	note E_, 2
	octave 2
	note E_, 2
	octave 1
	note E_, 2
	octave 2
	note E_, 2
	octave 1
	note E_, 2
	octave 2
	note E_, 2
	octave 1
	note E_, 2
	octave 2
	note E_, 2
	octave 1
	note E_, 2
	octave 2
	note E_, 2
	octave 1
	note E_, 2
	octave 2
	note E_, 2
	octave 1
	note E_, 2
	octave 2
	note E_, 2
	octave 1
	note E_, 2
	octave 2
	note E_, 2
	octave 1
	note E_, 2
	octave 2
	note E_, 2
	octave 1
	note E_, 2
	octave 2
	note E_, 2
	octave 1
	note E_, 2
	octave 2
	note E_, 2
	octave 1
	note E_, 2
	octave 2
	note E_, 2
	octave 1
	note E_, 2
	octave 2
	note E_, 2
	octave 1
	note E_, 2
	octave 2
	note E_, 2
	octave 1
	note E_, 2
	note B_, 16
	note B_, 14
	rest 2
	octave 2
	note E_, 2
	octave 1
	note E_, 2
	octave 2
	note E_, 2
	octave 1
	note E_, 2
	octave 2
	note E_, 2
	octave 1
	note E_, 2
	octave 2
	note E_, 2
	octave 1
	note E_, 2
	octave 2
	note E_, 2
	octave 1
	note E_, 2
	octave 2
	note E_, 2
	octave 1
	note E_, 2
	octave 2
	note E_, 2
	octave 1
	note E_, 2
	octave 2
	note E_, 2
	octave 1
	note E_, 2
	octave 2
	note F#, 2
	octave 1
	note F#, 2
	octave 2
	note F#, 2
	octave 1
	note F#, 2
	octave 2
	note F#, 2
	octave 1
	note F#, 2
	octave 2
	note F#, 2
	octave 1
	note F#, 2
	octave 2
	note F#, 2
	octave 1
	note F#, 2
	octave 2
	note F#, 2
	octave 1
	note F#, 2
	octave 2
	note F#, 2
	octave 1
	note F#, 2
	octave 2
	note F#, 2
	octave 1
	note F#, 2
	octave 2
	note A_, 2
	octave 1
	note A_, 2
	octave 2
	note A_, 2
	octave 1
	note A_, 2
	octave 2
	note A_, 2
	octave 1
	note A_, 2
	octave 2
	note A_, 2
	octave 1
	note A_, 2
	octave 2
	note A_, 2
	octave 1
	note A_, 2
	octave 2
	note A_, 2
	octave 1
	note A_, 2
	octave 2
	note A_, 2
	octave 1
	note A_, 2
	octave 2
	note A_, 2
	octave 1
	note A_, 2
	octave 2
	note B_, 2
	octave 1
	note B_, 2
	octave 2
	note B_, 2
	octave 1
	note B_, 2
	octave 2
	note B_, 2
	octave 1
	note B_, 2
	octave 2
	note B_, 2
	octave 1
	note B_, 2
	octave 3
	note D#, 2
	octave 2
	note D#, 2
	octave 3
	note D#, 2
	octave 2
	note D#, 2
	octave 3
	note D#, 2
	octave 2
	note D#, 2
	octave 3
	note D#, 2
	octave 2
	note D#, 2
	note E_, 2
	octave 1
	note E_, 2
	octave 2
	note E_, 2
	octave 1
	note E_, 2
	octave 2
	note E_, 2
	octave 1
	note E_, 2
	octave 2
	note E_, 2
	octave 1
	note E_, 2
	octave 2
	note E_, 2
	octave 1
	note E_, 2
	octave 2
	note E_, 2
	octave 1
	note E_, 2
	octave 2
	note E_, 2
	octave 1
	note E_, 2
	octave 2
	note E_, 2
	octave 1
	note E_, 2
	octave 2
	note F#, 2
	octave 1
	note F#, 2
	octave 2
	note F#, 2
	octave 1
	note F#, 2
	octave 2
	note F#, 2
	octave 1
	note F#, 2
	octave 2
	note F#, 2
	octave 1
	note F#, 2
	octave 2
	note F#, 2
	octave 1
	note F#, 2
	octave 2
	note F#, 2
	octave 1
	note F#, 2
	octave 2
	note F#, 2
	octave 1
	note F#, 2
	octave 2
	note F#, 2
	octave 1
	note F#, 2
	octave 2
	note A_, 2
	octave 1
	note A_, 2
	octave 2
	note A_, 2
	octave 1
	note A_, 2
	octave 2
	note A_, 2
	octave 1
	note A_, 2
	octave 2
	note A_, 2
	octave 1
	note A_, 2
	octave 2
	note A_, 2
	octave 1
	note A_, 2
	octave 2
	note A_, 2
	octave 1
	note A_, 2
	octave 2
	note A_, 2
	octave 1
	note A_, 2
	octave 2
	note A_, 2
	octave 1
	note A_, 2
	octave 2
	note B_, 2
	octave 1
	note B_, 2
	octave 2
	note B_, 2
	octave 1
	note B_, 2
	octave 2
	note B_, 2
	octave 1
	note B_, 2
	octave 2
	note B_, 2
	octave 1
	note B_, 2
	octave 3
	note D#, 2
	octave 2
	note D#, 2
	octave 3
	note D#, 2
	octave 2
	note D#, 2
	octave 3
	note D#, 2
	octave 2
	note D#, 2
	octave 3
	note D#, 2
	octave 2
	note D#, 2
	octave 1
	note E_, 16
	note E_, 14
	rest 2
	note E_, 16
	note E_, 14
	rest 2
	note E_, 16
	note E_, 16
	note E_, 16
	note E_, 13
	rest 3
	note E_, 16
	note E_, 16
	note E_, 16
	note E_, 13
	rest 3
	note E_, 16
	note E_, 16
	note E_, 16
	note E_, 13
	rest 3
	note E_, 16
	note E_, 16
	note E_, 16
	note E_, 13
	rest 3
	octave 2
	note E_, 2
	octave 1
	note E_, 2
	octave 2
	note E_, 2
	octave 1
	note E_, 2
	octave 2
	note E_, 2
	octave 1
	note E_, 2
	octave 2
	note E_, 2
	octave 1
	note E_, 2
	octave 2
	note E_, 2
	octave 1
	note E_, 2
	octave 2
	note E_, 2
	octave 1
	note E_, 2
	octave 2
	note E_, 2
	octave 1
	note E_, 2
	octave 2
	note E_, 2
	octave 1
	note E_, 2
	octave 2
	note E_, 2
	octave 1
	note E_, 2
	octave 2
	note E_, 2
	octave 1
	note E_, 2
	octave 2
	note E_, 2
	octave 1
	note E_, 2
	octave 2
	note E_, 2
	octave 1
	note E_, 2
	octave 2
	note E_, 2
	octave 1
	note E_, 2
	octave 2
	note E_, 2
	octave 1
	note E_, 2
	octave 2
	note E_, 2
	octave 1
	note E_, 2
	octave 2
	note E_, 2
	octave 1
	note E_, 2
	octave 2
	note E_, 2
	octave 1
	note E_, 2
	octave 2
	note E_, 2
	octave 1
	note E_, 2
	octave 2
	note E_, 2
	octave 1
	note E_, 2
	octave 2
	note E_, 2
	octave 1
	note E_, 2
	octave 2
	note E_, 2
	octave 1
	note E_, 2
	octave 2
	note E_, 2
	octave 1
	note E_, 2
	octave 2
	note E_, 2
	octave 1
	note E_, 2
	octave 2
	note E_, 2
	octave 1
	note E_, 2
	octave 2
	note E_, 2
	octave 1
	note E_, 2
	octave 2
	note E_, 2
	octave 1
	note E_, 2
	octave 2
	note E_, 2
	octave 1
	note E_, 2
	octave 2
	note E_, 2
	octave 1
	note E_, 2
	octave 2
	note E_, 2
	octave 1
	note E_, 2
	octave 2
	note E_, 2
	octave 1
	note E_, 2
	octave 2
	note E_, 2
	octave 1
	note E_, 2
	octave 2
	note E_, 2
	octave 1
	note E_, 2
	octave 2
	note E_, 2
	octave 1
	note E_, 2
	octave 2
	note E_, 2
	octave 1
	note E_, 2
	octave 2
	note E_, 2
	octave 1
	note E_, 2
	octave 2
	note E_, 2
	octave 1
	note E_, 2
	octave 2
	note E_, 2
	octave 1
	note E_, 2
	octave 2
	note E_, 2
	octave 1
	note E_, 2
	octave 2
	note E_, 2
	octave 1
	note E_, 2
	octave 2
	note E_, 2
	octave 1
	note E_, 2
	octave 2
	note E_, 2
	octave 1
	note E_, 2
	octave 2
	note E_, 2
	octave 1
	note E_, 2
	octave 2
	note E_, 2
	octave 1
	note E_, 2
	octave 2
	note E_, 2
	octave 1
	note E_, 2
	octave 2
	note E_, 2
	octave 1
	note E_, 2
	octave 2
	note E_, 2
	octave 1
	note E_, 2
	octave 2
	note E_, 2
	octave 1
	note E_, 2
	octave 2
	note E_, 2
	octave 1
	note E_, 2
	octave 2
	note E_, 2
	octave 1
	note E_, 2
	octave 2
	note E_, 2
	octave 1
	note E_, 2
	octave 2
	note E_, 2
	octave 1
	note E_, 2
	octave 2
	note E_, 2
	octave 1
	note E_, 2
	octave 2
	note E_, 2
	octave 1
	note E_, 2
	octave 2
	note E_, 2
	octave 1
	note E_, 2
	octave 2
	note E_, 2
	octave 1
	note E_, 2
	octave 2
	note E_, 2
	octave 1
	note E_, 2
	octave 2
	note E_, 2
	octave 1
	note E_, 2
	octave 2
	note E_, 2
	octave 1
	note E_, 2
	octave 2
	note E_, 2
	octave 1
	note E_, 2
	octave 2
	note E_, 2
	octave 1
	note E_, 2
	octave 2
	note E_, 2
	octave 1
	note E_, 2
	octave 2
	note E_, 2
	octave 1
	note E_, 2
	octave 2
	note E_, 2
	octave 1
	note E_, 2
	octave 2
	note E_, 2
	octave 1
	note E_, 2
	note B_, 16
	note B_, 14
	rest 2
	octave 2
	note E_, 2
	octave 1
	note E_, 2
	octave 2
	note E_, 2
	octave 1
	note E_, 2
	octave 2
	note E_, 2
	octave 1
	note E_, 2
	octave 2
	note E_, 2
	octave 1
	note E_, 2
	octave 2
	note E_, 2
	octave 1
	note E_, 2
	octave 2
	note E_, 2
	octave 1
	note E_, 2
	octave 2
	note E_, 2
	octave 1
	note E_, 2
	octave 2
	note E_, 2
	octave 1
	note E_, 2
	octave 2
	note F#, 2
	octave 1
	note F#, 2
	octave 2
	note F#, 2
	octave 1
	note F#, 2
	octave 2
	note F#, 2
	octave 1
	note F#, 2
	octave 2
	note F#, 2
	octave 1
	note F#, 2
	octave 2
	note F#, 2
	octave 1
	note F#, 2
	octave 2
	note F#, 2
	octave 1
	note F#, 2
	octave 2
	note F#, 2
	octave 1
	note F#, 2
	octave 2
	note F#, 2
	octave 1
	note F#, 2
	octave 2
	note A_, 2
	octave 1
	note A_, 2
	octave 2
	note A_, 2
	octave 1
	note A_, 2
	octave 2
	note A_, 2
	octave 1
	note A_, 2
	octave 2
	note A_, 2
	octave 1
	note A_, 2
	octave 2
	note A_, 2
	octave 1
	note A_, 2
	octave 2
	note A_, 2
	octave 1
	note A_, 2
	octave 2
	note A_, 2
	octave 1
	note A_, 2
	octave 2
	note A_, 2
	octave 1
	note A_, 2
	octave 2
	note B_, 2
	octave 1
	note B_, 2
	octave 2
	note B_, 2
	octave 1
	note B_, 2
	octave 2
	note B_, 2
	octave 1
	note B_, 2
	octave 2
	note B_, 2
	octave 1
	note B_, 2
	octave 3
	note D#, 2
	octave 2
	note D#, 2
	octave 3
	note D#, 2
	octave 2
	note D#, 2
	octave 3
	note D#, 2
	octave 2
	note D#, 2
	octave 3
	note D#, 2
	octave 2
	note D#, 2
	note E_, 2
	octave 1
	note E_, 2
	octave 2
	note E_, 2
	octave 1
	note E_, 2
	octave 2
	note E_, 2
	octave 1
	note E_, 2
	octave 2
	note E_, 2
	octave 1
	note E_, 2
	octave 2
	note E_, 2
	octave 1
	note E_, 2
	octave 2
	note E_, 2
	octave 1
	note E_, 2
	octave 2
	note E_, 2
	octave 1
	note E_, 2
	octave 2
	note E_, 2
	octave 1
	note E_, 2
	octave 2
	note F#, 2
	octave 1
	note F#, 2
	octave 2
	note F#, 2
	octave 1
	note F#, 2
	octave 2
	note F#, 2
	octave 1
	note F#, 2
	octave 2
	note F#, 2
	octave 1
	note F#, 2
	octave 2
	note F#, 2
	octave 1
	note F#, 2
	octave 2
	note F#, 2
	octave 1
	note F#, 2
	octave 2
	note F#, 2
	octave 1
	note F#, 2
	octave 2
	note F#, 2
	octave 1
	note F#, 2
	octave 2
	note A_, 2
	octave 1
	note A_, 2
	octave 2
	note A_, 2
	octave 1
	note A_, 2
	octave 2
	note A_, 2
	octave 1
	note A_, 2
	octave 2
	note A_, 2
	octave 1
	note A_, 2
	octave 2
	note A_, 2
	octave 1
	note A_, 2
	octave 2
	note A_, 2
	octave 1
	note A_, 2
	octave 2
	note A_, 2
	octave 1
	note A_, 2
	octave 2
	note A_, 2
	octave 1
	note A_, 2
	octave 2
	note B_, 2
	octave 1
	note B_, 2
	octave 2
	note B_, 2
	octave 1
	note B_, 2
	octave 2
	note B_, 2
	octave 1
	note B_, 2
	octave 2
	note B_, 2
	octave 1
	note B_, 2
	octave 3
	note D#, 2
	octave 2
	note D#, 2
	octave 3
	note D#, 2
	octave 2
	note D#, 2
	octave 3
	note D#, 2
	octave 2
	note D#, 2
	octave 3
	note D#, 2
	octave 2
	note D#, 2
	rest 16
	rest 16
	octave 1
	note B_, 16
	note B_, 14
	rest 2
	octave 3
	note E_, 15
	sound_ret

Music_Placeholder_Ch4:
	toggle_noise 1
	drum_speed 12
	rest 16
	rest 14
	drum_note 5, 1
	drum_note 5, 1
	drum_note 5, 14
	drum_note 12, 1
	drum_note 12, 1
	drum_note 12, 6
	drum_note 5, 1
	drum_note 5, 1
	drum_note 5, 8
	rest 16
	rest 16
	rest 16
	rest 16
	rest 16
	rest 16
	rest 16
	rest 16
	rest 16
	rest 16
	rest 16
	rest 16
	rest 16
	rest 16
	rest 16
	rest 16
	drum_note 5, 16
	drum_note 5, 2
	drum_note 5, 14
	drum_note 5, 16
	drum_note 5, 2
	drum_note 5, 14
	drum_note 5, 16
	drum_note 5, 2
	drum_note 5, 14
	drum_note 5, 16
	drum_note 5, 2
	drum_note 5, 14
	drum_note 5, 16
	drum_note 5, 2
	drum_note 5, 14
	drum_note 5, 16
	drum_note 5, 2
	drum_note 5, 14
	drum_note 5, 8
	drum_note 5, 8
	drum_note 5, 2
	drum_note 5, 6
	drum_note 5, 4
	drum_note 5, 1
	drum_note 5, 1
	drum_note 5, 1
	drum_note 5, 1
	drum_note 5, 8
	drum_note 5, 8
	drum_note 5, 2
	drum_note 5, 6
	drum_note 5, 4
	drum_note 5, 1
	drum_note 5, 1
	drum_note 5, 1
	drum_note 5, 1
	drum_note 7, 16
	drum_note 7, 16
	drum_note 5, 16
	drum_note 5, 2
	drum_note 5, 14
	drum_note 7, 16
	drum_note 7, 2
	drum_note 7, 14
	drum_note 10, 16
	drum_note 10, 2
	drum_note 10, 14
	drum_note 12, 16
	drum_note 4, 2
	drum_note 4, 14
	drum_note 5, 16
	drum_note 5, 2
	drum_note 5, 14
	drum_note 7, 16
	drum_note 7, 2
	drum_note 7, 14
	drum_note 10, 16
	drum_note 10, 2
	drum_note 10, 14
	drum_note 12, 16
	drum_note 4, 2
	drum_note 4, 13
	rest 16
	rest 15
	drum_note 5, 1
	drum_note 5, 1
	drum_note 5, 14
	drum_note 12, 1
	drum_note 12, 1
	drum_note 12, 6
	drum_note 5, 1
	drum_note 5, 1
	drum_note 5, 8
	rest 16
	rest 16
	rest 16
	rest 16
	rest 16
	rest 16
	rest 16
	rest 16
	rest 16
	rest 16
	rest 16
	rest 16
	rest 16
	rest 16
	rest 16
	rest 16
	drum_note 5, 16
	drum_note 5, 2
	drum_note 5, 14
	drum_note 5, 16
	drum_note 5, 2
	drum_note 5, 14
	drum_note 5, 16
	drum_note 5, 2
	drum_note 5, 14
	drum_note 5, 16
	drum_note 5, 2
	drum_note 5, 14
	drum_note 5, 16
	drum_note 5, 2
	drum_note 5, 14
	drum_note 5, 16
	drum_note 5, 2
	drum_note 5, 14
	drum_note 5, 8
	drum_note 5, 8
	drum_note 5, 2
	drum_note 5, 6
	drum_note 5, 4
	drum_note 5, 1
	drum_note 5, 1
	drum_note 5, 1
	drum_note 5, 1
	drum_note 5, 8
	drum_note 5, 8
	drum_note 5, 2
	drum_note 5, 6
	drum_note 5, 4
	drum_note 5, 1
	drum_note 5, 1
	drum_note 5, 1
	drum_note 5, 1
	drum_note 7, 16
	drum_note 7, 16
	drum_note 5, 16
	drum_note 5, 2
	drum_note 5, 14
	drum_note 7, 16
	drum_note 7, 2
	drum_note 7, 14
	drum_note 10, 16
	drum_note 10, 2
	drum_note 10, 14
	drum_note 12, 16
	drum_note 4, 2
	drum_note 4, 14
	drum_note 5, 16
	drum_note 5, 2
	drum_note 5, 14
	drum_note 7, 16
	drum_note 7, 2
	drum_note 7, 14
	drum_note 10, 16
	drum_note 10, 2
	drum_note 10, 14
	drum_note 12, 16
	drum_note 4, 2
	drum_note 4, 14
	drum_note 5, 15
	rest 16
	rest 1
	drum_note 7, 16
	drum_note 7, 16
	drum_note 12, 8
	drum_note 12, 8
	drum_note 5, 4
	sound_ret
