Music_QuartzQuarry:
	channel_count 4
	channel 1, Music_QuartzQuarry_Ch1
	channel 2, Music_QuartzQuarry_Ch2
	channel 3, Music_QuartzQuarry_Ch3
	channel 4, Music_QuartzQuarry_Ch4

Music_QuartzQuarry_Ch1:
	volume 7, 7
	note_type 12, 7, 7
	tempo 128
.mainloop:
	octave 2
	duty_cycle 0
	volume_envelope 10, 7
	note F_, 2
	rest 2
	note C_, 2
	rest 2
	note G_, 2
	rest 2
	note C_, 2
	rest 2
	note G#, 2
	rest 2
	note C_, 2
	rest 2
	note C_, 2
	rest 2
	note C_, 2
	rest 2
	note F_, 2
	rest 2
	note C_, 2
	rest 2
	note G_, 2
	rest 2
	note C_, 2
	rest 2
	note G#, 2
	rest 2
	note C_, 2
	rest 2
	note C_, 2
	rest 2
	note C_, 2
	rest 2
	note F_, 2
	rest 2
	note C_, 2
	rest 2
	note G_, 2
	rest 2
	note C_, 2
	rest 2
	note G#, 2
	rest 2
	note C_, 2
	rest 2
	note C_, 2
	rest 2
	note C_, 2
	rest 2
	note F_, 2
	rest 2
	note C_, 2
	rest 2
	note G_, 2
	rest 2
	note C_, 2
	rest 2
	note G#, 2
	rest 2
	note C_, 2
	rest 2
	note C_, 2
	rest 2
	note C_, 2
	rest 2
	note F_, 14
	note D#, 16
	rest 2
	note C#, 16
	octave 3
	rest 16
	note F_, 14
	note D#, 16
	rest 2
	note C#, 16
	rest 16
	rest 16
	volume_envelope 7, 7
	note G#, 14
	note A#, 14
	rest 2
	note A#, 2
	rest 2
	note G#, 2
	note G#, 8
	rest 16
	rest 4
	note G#, 14
	note A#, 14
	rest 2
	note A#, 2
	rest 2
	note G#, 2
	note G#, 8
	rest 16
	rest 16
	rest 8
	octave 4
	duty_cycle 1
	volume_envelope 9, 7
	note A#, 2
	rest 2
	note G#, 6
	note G_, 1
	rest 3
	note F_, 14
	rest 4
	note A#, 2
	rest 2
	note G#, 6
	note G_, 1
	rest 3
	note F_, 14
	rest 4
	note A#, 2
	rest 2
	note G#, 6
	note G_, 1
	rest 3
	note F_, 14
	note F_, 16
	note A#, 8
	octave 5
	note C_, 8
	rest 4
	octave 4
	note A#, 2
	rest 2
	note G#, 6
	note G_, 1
	rest 3
	note F_, 14
	rest 4
	note A#, 2
	rest 2
	note G#, 6
	note G_, 1
	rest 3
	note F_, 14
	rest 4
	note A#, 2
	rest 2
	note G#, 6
	note G_, 1
	rest 3
	note F_, 14
	note F_, 16
	note A#, 8
	octave 5
	rest 4
	note C_, 4
	rest 4
	octave 4
	note A#, 2
	rest 2
	note G#, 6
	note G_, 1
	rest 3
	note F_, 14
	rest 4
	note A#, 2
	rest 2
	note G#, 6
	note G_, 1
	rest 3
	note F_, 14
	rest 4
	note A#, 2
	rest 2
	note G#, 6
	note G_, 1
	rest 3
	note F_, 14
	note F_, 16
	note A#, 8
	octave 5
	note C_, 8
	rest 4
	octave 4
	note A#, 2
	rest 2
	note G#, 6
	note G_, 1
	rest 3
	note F_, 14
	rest 4
	note A#, 2
	rest 2
	note G#, 6
	note G_, 1
	rest 3
	note F_, 14
	rest 4
	note A#, 2
	rest 2
	note G#, 6
	note G_, 1
	rest 3
	note F_, 14
	note F_, 16
	note A#, 8
	octave 5
	note C_, 8
	octave 3
	sound_loop 0, .mainloop

Music_QuartzQuarry_Ch2:
	note_type 12, 5, 7
.mainloop:
	rest 2
	octave 2
	duty_cycle 1
	volume_envelope 10, 7
	note F_, 2
	rest 2
	note F_, 2
	rest 2
	note F_, 2
	rest 2
	note F_, 2
	rest 2
	note F_, 2
	rest 2
	note F_, 2
	rest 2
	note F_, 2
	rest 2
	note F_, 2
	rest 2
	note F_, 2
	rest 2
	note F_, 2
	rest 2
	note F_, 2
	rest 2
	note F_, 2
	rest 2
	note F_, 2
	rest 2
	note F_, 2
	rest 2
	note F_, 2
	rest 2
	note F_, 2
	rest 2
	note F_, 2
	rest 2
	note F_, 2
	rest 2
	note F_, 2
	rest 2
	note F_, 2
	rest 2
	note F_, 2
	rest 2
	note F_, 2
	rest 2
	note F_, 2
	rest 2
	note F_, 2
	rest 2
	note F_, 2
	rest 2
	note F_, 2
	rest 2
	note F_, 2
	rest 2
	note F_, 2
	rest 2
	note F_, 2
	rest 2
	note F_, 2
	rest 2
	note F_, 2
	rest 2
	note F_, 2
	rest 16
	rest 16
	rest 16
	rest 16
	rest 16
	rest 16
	rest 16
	rest 16
	rest 16
	note F_, 14
	note G_, 14
	rest 2
	note G_, 2
	rest 2
	note F_, 2
	note F_, 8
	rest 16
	rest 4
	note F_, 14
	note G_, 14
	rest 2
	note G_, 2
	rest 2
	note F_, 2
	note F_, 12
	note G#, 8
	rest 16
	rest 12
	octave 3
	note C_, 2
	rest 2
	note C_, 6
	note C_, 1
	rest 3
	note C_, 14
	rest 4
	note C_, 2
	rest 2
	note C_, 6
	note C_, 1
	rest 3
	note C_, 14
	rest 4
	note C_, 2
	rest 2
	note C_, 6
	note C_, 1
	rest 3
	note C_, 14
	note C#, 16
	note G_, 8
	note G_, 8
	rest 4
	note C_, 2
	rest 2
	note C_, 6
	note C_, 1
	rest 3
	note C_, 14
	rest 4
	note C_, 2
	rest 2
	note C_, 6
	note C_, 1
	rest 3
	note C_, 14
	rest 4
	note C_, 2
	rest 2
	note C_, 6
	note C_, 1
	rest 3
	note C_, 14
	note C#, 16
	note C#, 8
	note C#, 8
	rest 4
	note C_, 2
	rest 2
	note C_, 6
	note C_, 1
	rest 3
	note C_, 14
	rest 4
	note C_, 2
	rest 2
	note C_, 6
	note C_, 1
	rest 3
	note C_, 14
	rest 4
	note C_, 2
	rest 2
	note C_, 6
	note C_, 1
	rest 3
	note C_, 14
	note C#, 16
	note G_, 8
	note G_, 8
	rest 4
	note C_, 2
	rest 2
	note C_, 6
	note C_, 1
	rest 3
	note C_, 14
	rest 4
	note C_, 2
	rest 2
	note C_, 6
	note C_, 1
	rest 3
	note C_, 14
	rest 4
	note C_, 2
	rest 2
	note C_, 6
	note C_, 1
	rest 3
	note C_, 14
	note C#, 16
	note C#, 8
	note C#, 8
	octave 2
	sound_loop 0, .mainloop

Music_QuartzQuarry_Ch3:
	note_type 12, 2, 0
.mainloop:
	rest 16
	rest 16
	rest 16
	rest 16
	octave 3
	volume_envelope 1, 0
	note F_, 2
	rest 2
	note F_, 2
	note F_, 1
	note F_, 1
	note F_, 2
	note F_, 2
	rest 2
	note F_, 2
	rest 2
	note F_, 2
	rest 2
	note F_, 2
	rest 2
	note F_, 1
	note F_, 1
	note F_, 1
	note F_, 1
	note F_, 2
	note F_, 2
	rest 2
	note F_, 2
	note F_, 1
	note F_, 1
	note F_, 2
	note F_, 2
	rest 2
	note F_, 2
	rest 2
	note F_, 2
	rest 2
	note F_, 2
	rest 2
	note F_, 1
	note F_, 1
	note F_, 1
	note F_, 1
	note F_, 2
	note F_, 2
	rest 2
	note F_, 2
	note F_, 1
	note F_, 1
	note F_, 2
	note F_, 2
	rest 2
	note F_, 2
	rest 2
	note F_, 2
	rest 2
	note F_, 2
	rest 2
	note F_, 1
	note F_, 1
	note F_, 1
	note F_, 1
	note F_, 2
	note F_, 2
	rest 2
	note F_, 2
	note F_, 1
	note F_, 1
	note F_, 2
	note F_, 2
	rest 2
	note F_, 2
	rest 2
	note F_, 2
	rest 2
	note F_, 2
	rest 2
	note F_, 1
	note F_, 1
	note F_, 1
	note F_, 1
	note F_, 2
	note F_, 2
	rest 2
	note F_, 2
	note F_, 1
	note F_, 1
	note F_, 2
	note F_, 2
	rest 2
	note F_, 2
	rest 2
	note F_, 2
	rest 2
	note F_, 2
	rest 2
	note F_, 1
	note F_, 1
	note F_, 1
	note F_, 1
	note F_, 2
	note F_, 2
	rest 2
	note F_, 2
	note F_, 1
	note F_, 1
	note F_, 2
	note F_, 2
	rest 2
	note F_, 2
	rest 2
	note F_, 2
	rest 2
	note F_, 2
	rest 16
	note A#, 4
	octave 4
	note C_, 4
	octave 3
	note F_, 2
	note F_, 2
	note F_, 2
	note F_, 2
	note F_, 2
	note F_, 2
	note F_, 2
	note G_, 2
	rest 2
	note G_, 2
	note G_, 2
	note G_, 2
	note G_, 2
	note G_, 2
	note G_, 2
	note G_, 2
	rest 2
	octave 4
	note C#, 2
	note C#, 8
	rest 12
	octave 3
	note A#, 4
	octave 4
	note C_, 4
	octave 3
	note F_, 2
	note F_, 2
	note F_, 2
	note F_, 2
	note F_, 2
	note F_, 2
	note F_, 2
	note G_, 2
	rest 2
	note G_, 2
	note G_, 2
	note G_, 2
	note G_, 2
	note G_, 2
	note G_, 2
	note G_, 2
	rest 2
	octave 4
	note C#, 2
	note C#, 2
	rest 8
	note D#, 2
	rest 2
	note F_, 2
	note F_, 8
	rest 16
	rest 4
	octave 3
	note F_, 2
	rest 2
	note F_, 2
	note F_, 1
	note F_, 1
	note F_, 2
	note F_, 2
	rest 2
	note F_, 2
	rest 2
	note F_, 2
	rest 2
	note F_, 2
	rest 2
	note F_, 1
	note F_, 1
	note F_, 1
	note F_, 1
	note F_, 2
	note D#, 2
	rest 2
	note D#, 2
	note D#, 1
	note D#, 1
	note D#, 2
	note D#, 2
	rest 2
	note D#, 2
	rest 2
	note D#, 2
	rest 2
	note D#, 2
	rest 2
	note D#, 1
	note D#, 1
	note D#, 1
	note D#, 1
	note D#, 2
	note C#, 2
	rest 2
	note C#, 2
	note C#, 1
	note C#, 1
	note C#, 2
	note C#, 2
	rest 2
	note C#, 2
	rest 2
	note C#, 2
	rest 2
	note C#, 2
	rest 2
	note C#, 1
	note C#, 1
	note C#, 1
	note C#, 1
	note C#, 2
	note A#, 2
	rest 2
	note A#, 2
	note A#, 1
	note A#, 1
	note A#, 2
	note A#, 2
	rest 2
	note D#, 2
	rest 2
	note D#, 2
	rest 2
	note E_, 2
	rest 2
	note E_, 1
	note E_, 1
	note E_, 1
	note E_, 1
	note E_, 2
	note F_, 2
	rest 2
	note F_, 2
	note F_, 1
	note F_, 1
	note F_, 2
	note F_, 2
	rest 2
	note F_, 2
	rest 2
	note F_, 2
	rest 2
	note F_, 2
	rest 2
	note F_, 1
	note F_, 1
	note F_, 1
	note F_, 1
	note F_, 2
	note D#, 2
	rest 2
	note D#, 2
	note D#, 1
	note D#, 1
	note D#, 2
	note D#, 2
	rest 2
	note D#, 2
	rest 2
	note D#, 2
	rest 2
	note D#, 2
	rest 2
	note D#, 1
	note D#, 1
	note D#, 1
	note D#, 1
	note D#, 2
	note C#, 2
	rest 2
	note C#, 2
	note C#, 1
	note C#, 1
	note C#, 2
	note C#, 2
	rest 2
	note C#, 2
	rest 2
	note C#, 2
	rest 2
	note C#, 2
	rest 2
	note C#, 1
	note C#, 1
	note C#, 1
	note C#, 1
	note C#, 2
	note A#, 2
	rest 2
	note A#, 2
	note A#, 1
	note A#, 1
	note A#, 2
	note A#, 2
	rest 2
	note D#, 2
	rest 2
	note D#, 2
	rest 2
	note E_, 2
	rest 2
	note E_, 1
	note E_, 1
	note E_, 1
	note E_, 1
	note E_, 2
	note F_, 2
	rest 2
	note F_, 2
	note F_, 1
	note F_, 1
	note F_, 2
	note F_, 2
	rest 2
	note F_, 2
	rest 2
	note F_, 2
	rest 2
	note F_, 2
	rest 2
	note F_, 1
	note F_, 1
	note F_, 1
	note F_, 1
	note F_, 2
	note D#, 2
	rest 2
	note D#, 2
	note D#, 1
	note D#, 1
	note D#, 2
	note D#, 2
	rest 2
	note D#, 2
	rest 2
	note D#, 2
	rest 2
	note D#, 2
	rest 2
	note D#, 1
	note D#, 1
	note D#, 1
	note D#, 1
	note D#, 2
	note C#, 2
	rest 2
	note C#, 2
	note C#, 1
	note C#, 1
	note C#, 2
	note C#, 2
	rest 2
	note C#, 2
	rest 2
	note C#, 2
	rest 2
	note C#, 2
	rest 2
	note C#, 1
	note C#, 1
	note C#, 1
	note C#, 1
	note C#, 2
	note A#, 2
	rest 2
	note A#, 2
	note A#, 1
	note A#, 1
	note A#, 2
	note A#, 2
	rest 2
	note D#, 2
	rest 2
	note D#, 2
	rest 2
	note E_, 2
	rest 2
	note E_, 1
	note E_, 1
	note E_, 1
	note E_, 1
	note E_, 2
	note F_, 2
	rest 2
	note F_, 2
	note F_, 1
	note F_, 1
	note F_, 2
	note F_, 2
	rest 2
	note F_, 2
	rest 2
	note F_, 2
	rest 2
	note F_, 2
	rest 2
	note F_, 1
	note F_, 1
	note F_, 1
	note F_, 1
	note F_, 2
	note D#, 2
	rest 2
	note D#, 2
	note D#, 1
	note D#, 1
	note D#, 2
	note D#, 2
	rest 2
	note D#, 2
	rest 2
	note D#, 2
	rest 2
	note D#, 2
	rest 2
	note D#, 1
	note D#, 1
	note D#, 1
	note D#, 1
	note D#, 2
	note C#, 2
	rest 2
	note C#, 2
	note C#, 1
	note C#, 1
	note C#, 2
	note C#, 2
	rest 2
	note C#, 2
	rest 2
	note C#, 2
	rest 2
	note C#, 2
	rest 2
	note C#, 1
	note C#, 1
	note C#, 1
	note C#, 1
	note C#, 2
	note A#, 2
	rest 2
	note A#, 2
	note A#, 1
	note A#, 1
	note A#, 2
	note A#, 2
	rest 2
	note D#, 2
	rest 2
	note D#, 2
	rest 2
	note E_, 2
	rest 2
	note E_, 1
	note E_, 1
	note E_, 1
	note E_, 1
	note E_, 2
	sound_loop 0, .mainloop

Music_QuartzQuarry_Ch4:
	toggle_noise 1
	drum_speed 12
.mainloop:
	rest 16
	rest 16
	rest 16
	rest 16
	toggle_noise
	toggle_noise 2
	drum_note 12, 4
	drum_note 12, 4
	drum_note 12, 2
	drum_note 1, 2
	drum_note 12, 2
	drum_note 1, 2
	drum_note 12, 2
	drum_note 1, 2
	drum_note 12, 4
	drum_note 12, 4
	drum_note 12, 4
	drum_note 12, 4
	drum_note 12, 4
	drum_note 12, 2
	drum_note 1, 2
	drum_note 12, 2
	drum_note 1, 2
	drum_note 12, 2
	drum_note 1, 2
	drum_note 12, 4
	drum_note 12, 4
	drum_note 12, 4
	drum_note 12, 4
	drum_note 12, 4
	drum_note 12, 2
	drum_note 1, 2
	drum_note 12, 2
	drum_note 1, 2
	drum_note 12, 2
	drum_note 1, 2
	drum_note 12, 4
	drum_note 12, 4
	drum_note 12, 4
	drum_note 12, 4
	drum_note 12, 4
	drum_note 12, 2
	drum_note 1, 2
	drum_note 12, 2
	drum_note 1, 2
	drum_note 12, 2
	drum_note 1, 2
	drum_note 12, 4
	drum_note 12, 4
	drum_note 12, 4
	drum_note 12, 4
	drum_note 12, 4
	drum_note 12, 2
	drum_note 1, 2
	drum_note 12, 2
	drum_note 1, 2
	drum_note 12, 2
	drum_note 1, 2
	drum_note 12, 4
	drum_note 12, 4
	drum_note 12, 4
	drum_note 12, 4
	drum_note 12, 4
	drum_note 12, 2
	drum_note 1, 2
	drum_note 12, 2
	drum_note 1, 2
	drum_note 12, 2
	drum_note 1, 2
	drum_note 12, 4
	drum_note 12, 4
	drum_note 12, 4
	drum_note 12, 4
	drum_note 12, 4
	drum_note 11, 2
	drum_note 12, 2
	drum_note 11, 2
	drum_note 12, 2
	drum_note 12, 2
	drum_note 4, 2
	drum_note 4, 2
	drum_note 4, 2
	drum_note 12, 2
	drum_note 12, 2
	drum_note 4, 2
	drum_note 12, 2
	drum_note 4, 2
	drum_note 12, 2
	drum_note 4, 2
	drum_note 12, 2
	drum_note 4, 2
	drum_note 12, 2
	drum_note 4, 2
	drum_note 12, 2
	drum_note 4, 2
	drum_note 12, 2
	drum_note 4, 2
	drum_note 4, 2
	drum_note 12, 2
	drum_note 12, 2
	drum_note 4, 2
	drum_note 12, 2
	drum_note 4, 2
	drum_note 12, 2
	drum_note 4, 2
	drum_note 4, 2
	drum_note 11, 2
	drum_note 12, 2
	drum_note 11, 2
	drum_note 12, 2
	drum_note 12, 2
	drum_note 4, 2
	drum_note 4, 2
	drum_note 4, 2
	drum_note 12, 2
	drum_note 12, 2
	drum_note 4, 2
	drum_note 12, 2
	drum_note 4, 2
	drum_note 12, 2
	drum_note 4, 2
	drum_note 12, 2
	drum_note 4, 2
	drum_note 12, 2
	drum_note 4, 2
	drum_note 12, 2
	drum_note 4, 2
	drum_note 12, 2
	drum_note 4, 2
	drum_note 12, 2
	drum_note 4, 2
	drum_note 12, 2
	drum_note 4, 2
	drum_note 12, 2
	drum_note 12, 4
	drum_note 12, 4
	drum_note 12, 4
	drum_note 12, 4
	drum_note 11, 2
	drum_note 12, 2
	drum_note 11, 2
	drum_note 12, 2
	drum_note 11, 2
	drum_note 12, 2
	drum_note 11, 2
	drum_note 12, 2
	drum_note 12, 2
	drum_note 4, 2
	drum_note 4, 2
	drum_note 4, 2
	drum_note 12, 2
	drum_note 12, 2
	drum_note 4, 2
	drum_note 4, 2
	drum_note 12, 2
	drum_note 4, 2
	drum_note 4, 2
	drum_note 4, 2
	drum_note 12, 2
	drum_note 12, 2
	drum_note 4, 2
	drum_note 4, 2
	drum_note 12, 2
	drum_note 4, 2
	drum_note 4, 2
	drum_note 4, 2
	drum_note 12, 2
	drum_note 12, 2
	drum_note 4, 2
	drum_note 4, 2
	drum_note 12, 2
	drum_note 4, 2
	drum_note 4, 2
	drum_note 4, 2
	drum_note 12, 2
	drum_note 12, 2
	drum_note 4, 2
	drum_note 4, 2
	drum_note 12, 2
	drum_note 4, 2
	drum_note 4, 2
	drum_note 4, 2
	drum_note 12, 2
	drum_note 12, 2
	drum_note 4, 2
	drum_note 4, 2
	drum_note 12, 2
	drum_note 4, 2
	drum_note 4, 2
	drum_note 4, 2
	drum_note 12, 2
	drum_note 12, 2
	drum_note 4, 2
	drum_note 4, 2
	drum_note 12, 2
	drum_note 4, 2
	drum_note 4, 2
	drum_note 4, 2
	drum_note 12, 2
	drum_note 12, 2
	drum_note 4, 2
	drum_note 4, 2
	drum_note 12, 2
	drum_note 4, 2
	drum_note 4, 2
	drum_note 4, 2
	drum_note 12, 2
	drum_note 12, 2
	drum_note 4, 2
	drum_note 4, 2
	drum_note 12, 2
	drum_note 4, 2
	drum_note 4, 2
	drum_note 4, 2
	drum_note 12, 2
	drum_note 12, 2
	drum_note 4, 2
	drum_note 4, 2
	drum_note 12, 2
	drum_note 4, 2
	drum_note 4, 2
	drum_note 4, 2
	drum_note 12, 2
	drum_note 12, 2
	drum_note 4, 2
	drum_note 4, 2
	drum_note 12, 2
	drum_note 4, 2
	drum_note 4, 2
	drum_note 4, 2
	drum_note 12, 2
	drum_note 12, 2
	drum_note 4, 2
	drum_note 4, 2
	drum_note 12, 2
	drum_note 4, 2
	drum_note 4, 2
	drum_note 4, 2
	drum_note 12, 2
	drum_note 12, 2
	drum_note 4, 2
	drum_note 4, 2
	drum_note 12, 2
	drum_note 4, 2
	drum_note 4, 2
	drum_note 4, 2
	drum_note 12, 2
	drum_note 12, 2
	drum_note 4, 2
	drum_note 4, 2
	drum_note 12, 2
	drum_note 4, 2
	drum_note 4, 2
	drum_note 4, 2
	drum_note 12, 2
	drum_note 12, 2
	drum_note 4, 2
	drum_note 4, 2
	drum_note 12, 2
	drum_note 4, 2
	drum_note 4, 2
	drum_note 4, 2
	drum_note 12, 2
	drum_note 12, 2
	drum_note 4, 2
	drum_note 4, 2
	drum_note 12, 2
	drum_note 4, 2
	drum_note 4, 2
	drum_note 4, 2
	drum_note 12, 2
	drum_note 12, 2
	drum_note 4, 2
	drum_note 4, 2
	rest 16
	rest 16
	rest 16
	rest 16
	rest 16
	rest 16
	rest 16
	rest 16
	rest 16
	rest 16
	rest 16
	rest 16
	rest 16
	rest 16
	rest 16
	rest 16
	sound_loop 0, .mainloop
