Music_Sewers:
	channel_count 4
	channel 1, Music_Sewers_Ch1
	channel 2, Music_Sewers_Ch2
	channel 3, Music_Sewers_Ch3
	channel 4, Music_Sewers_Ch4

Music_Sewers_Ch1:
	volume 7, 7
	duty_cycle 0
	note_type 12, 10, 7
	tempo 130
.mainloop
	rest 6
	octave 5
	volume_envelope 5, 7
	note G_, 3
	note G_, 1
	note C_, 1
	note C_, 1
	note F_, 1
	note F_, 1
	note C_, 1
	note C_, 1
	note D#, 1
	note D#, 1
	note C_, 1
	note C_, 1
	rest 2
	note C_, 1
	note C_, 1
	note G_, 1
	note G_, 1
	note C_, 1
	note C_, 1
	note D#, 1
	note D#, 1
	note C_, 1
	note C_, 1
	rest 2
	note C_, 1
	note C_, 1
	note D#, 1
	note D#, 1
	note F_, 1
	note F_, 1
	note G_, 1
	note G_, 1
	note C_, 1
	note C_, 1
	note F_, 1
	note F_, 1
	note C_, 1
	note C_, 1
	note D#, 1
	note D#, 1
	note C_, 1
	note C_, 1
	rest 2
	note C_, 1
	note C_, 1
	note G_, 1
	note G_, 1
	note C_, 1
	note C_, 1
	note D#, 1
	note D#, 1
	note C_, 1
	note C_, 1
	rest 2
	note C_, 1
	note C_, 1
	note D#, 1
	note D#, 1
	note F_, 1
	note F_, 1
	note G_, 1
	note G_, 1
	note C_, 1
	note C_, 1
	note F_, 1
	note F_, 1
	note C_, 1
	note C_, 1
	note D#, 1
	note D#, 1
	note C_, 1
	note C_, 1
	rest 2
	note C_, 1
	note C_, 1
	note G_, 1
	note G_, 1
	note C_, 1
	note C_, 1
	note D#, 1
	note D#, 1
	note C_, 1
	note C_, 1
	rest 2
	note C_, 1
	note C_, 1
	note D#, 1
	note D#, 1
	note F_, 1
	note F_, 1
	note G_, 1
	note G_, 1
	note C_, 1
	note C_, 1
	note F_, 1
	note F_, 1
	note C_, 1
	note C_, 1
	note D#, 1
	note D#, 1
	note C_, 1
	note C_, 1
	rest 2
	note C_, 1
	note C_, 1
	note G_, 1
	note G_, 1
	octave 4
	note B_, 1
	note B_, 1
	octave 5
	note D_, 1
	note D_, 1
	octave 4
	note B_, 1
	note B_, 1
	rest 2
	note B_, 1
	note B_, 1
	octave 5
	note D_, 1
	note D_, 1
	note F_, 1
	note F_, 1
	note G_, 1
	note G_, 1
	note C_, 1
	note C_, 1
	note F_, 1
	note F_, 1
	note C_, 1
	note C_, 1
	note D#, 1
	note D#, 1
	note C_, 1
	note C_, 1
	rest 2
	note C_, 1
	note C_, 1
	note G_, 1
	note G_, 1
	note C_, 1
	note C_, 1
	note D#, 1
	note D#, 1
	note C_, 1
	note C_, 1
	rest 2
	note C_, 1
	note C_, 1
	note D#, 1
	note D#, 1
	note F_, 1
	note F_, 1
	note G_, 1
	note G_, 1
	note C_, 1
	note C_, 1
	note F_, 1
	note F_, 1
	note C_, 1
	note C_, 1
	note D#, 1
	note D#, 1
	note C_, 1
	note C_, 1
	rest 2
	note C_, 1
	note C_, 1
	note G_, 1
	note G_, 1
	note C_, 1
	note C_, 1
	note D#, 1
	note D#, 1
	note C_, 1
	note C_, 1
	rest 2
	note C_, 1
	note C_, 1
	note D#, 1
	note D#, 1
	note F_, 1
	note F_, 1
	note G_, 1
	note G_, 1
	note C_, 1
	note C_, 1
	note F_, 1
	note F_, 1
	note C_, 1
	note C_, 1
	note D#, 1
	note D#, 1
	note C_, 1
	note C_, 1
	rest 2
	note C_, 1
	note C_, 1
	note G_, 1
	note G_, 1
	note C_, 1
	note C_, 1
	note D#, 1
	note D#, 1
	note C_, 1
	note C_, 1
	rest 2
	note C_, 1
	note C_, 1
	note D#, 1
	note D#, 1
	note F_, 1
	note F_, 1
	note G_, 1
	note G_, 1
	note C_, 1
	note C_, 1
	note F_, 1
	note F_, 1
	note C_, 1
	note C_, 1
	note D#, 1
	note D#, 1
	note C_, 1
	note C_, 1
	rest 2
	note C_, 1
	note C_, 1
	note G_, 1
	note G_, 1
	octave 4
	note B_, 1
	note B_, 1
	octave 5
	note D_, 1
	note D_, 1
	octave 4
	note B_, 1
	note B_, 1
	rest 2
	note B_, 1
	note B_, 1
	octave 5
	note D_, 1
	note D_, 1
	note F_, 1
	note F_, 1
	rest 16
	rest 16
	rest 16
	rest 16
	rest 16
	rest 16
	rest 16
	rest 16
	rest 16
	rest 16
	rest 16
	rest 16
	note G_, 1
	note G_, 1
	note C_, 1
	note C_, 1
	note F_, 1
	note F_, 1
	note C_, 1
	note C_, 1
	note D#, 1
	note D#, 1
	note C_, 1
	note C_, 1
	rest 2
	note C_, 1
	note C_, 1
	note G_, 1
	note G_, 1
	note C_, 1
	note C_, 1
	note D#, 1
	note D#, 1
	note C_, 1
	note C_, 1
	rest 2
	note C_, 1
	note C_, 1
	note D#, 1
	note D#, 1
	note F_, 1
	note F_, 1
	note G_, 1
	note G_, 1
	note C_, 1
	note C_, 1
	note F_, 1
	note F_, 1
	note C_, 1
	note C_, 1
	note D#, 1
	note D#, 1
	note C_, 1
	note C_, 1
	rest 2
	note C_, 1
	note C_, 1
	note G_, 1
	note G_, 1
	note C_, 1
	note C_, 1
	note D#, 1
	note D#, 1
	note C_, 1
	note C_, 1
	rest 2
	note C_, 1
	note C_, 1
	note D#, 1
	note D#, 1
	note F_, 1
	note F_, 1
	note G_, 1
	note G_, 1
	note C_, 1
	note C_, 1
	note F_, 1
	note F_, 1
	note C_, 1
	note C_, 1
	note D#, 1
	note D#, 1
	note C_, 1
	note C_, 1
	rest 2
	note C_, 1
	note C_, 1
	note G_, 1
	note G_, 1
	note C_, 1
	note C_, 1
	note D#, 1
	note D#, 1
	note C_, 1
	note C_, 1
	rest 2
	note C_, 1
	note C_, 1
	note D#, 1
	note D#, 1
	note F_, 1
	note F_, 1
	note G_, 1
	note G_, 1
	note C_, 1
	note C_, 1
	note F_, 1
	note F_, 1
	note C_, 1
	note C_, 1
	note D#, 1
	note D#, 1
	note C_, 1
	note C_, 1
	rest 2
	note C_, 1
	note C_, 1
	note G_, 1
	note G_, 1
	octave 4
	note B_, 1
	note B_, 1
	octave 5
	note D_, 1
	note D_, 1
	octave 4
	note B_, 1
	note B_, 1
	rest 2
	note B_, 1
	note B_, 1
	octave 5
	note D_, 1
	note D_, 1
	note F_, 1
	note F_, 1
	note G_, 1
	note G_, 1
	note C_, 1
	note C_, 1
	note F_, 1
	note F_, 1
	note C_, 1
	note C_, 1
	note D#, 1
	note D#, 1
	note C_, 1
	note C_, 1
	rest 2
	note C_, 1
	note C_, 1
	note G_, 1
	note G_, 1
	note C_, 1
	note C_, 1
	note D#, 1
	note D#, 1
	note C_, 1
	note C_, 1
	rest 2
	note C_, 1
	note C_, 1
	note D#, 1
	note D#, 1
	note F_, 1
	note F_, 1
	note G_, 1
	note G_, 1
	note C_, 1
	note C_, 1
	note F_, 1
	note F_, 1
	note C_, 1
	note C_, 1
	note D#, 1
	note D#, 1
	note C_, 1
	note C_, 1
	rest 2
	note C_, 1
	note C_, 1
	note G_, 1
	note G_, 1
	note C_, 1
	note C_, 1
	note D#, 1
	note D#, 1
	note C_, 1
	note C_, 1
	rest 2
	note C_, 1
	note C_, 1
	note D#, 1
	note D#, 1
	note F_, 1
	note F_, 1
	note G_, 1
	note G_, 1
	note C_, 1
	note C_, 1
	note F_, 1
	note F_, 1
	note C_, 1
	note C_, 1
	note D#, 1
	note D#, 1
	note C_, 1
	note C_, 1
	rest 2
	note C_, 1
	note C_, 1
	note G_, 1
	note G_, 1
	note C_, 1
	note C_, 1
	note D#, 1
	note D#, 1
	note C_, 1
	note C_, 1
	rest 2
	note C_, 1
	note C_, 1
	note D#, 1
	note D#, 1
	note F_, 1
	note F_, 1
	note G_, 1
	note G_, 1
	note C_, 1
	note C_, 1
	note F_, 1
	note F_, 1
	note C_, 1
	note C_, 1
	note D#, 1
	note D#, 1
	note C_, 1
	note C_, 1
	rest 2
	note C_, 1
	note C_, 1
	note G_, 1
	note G_, 1
	octave 4
	note B_, 1
	note B_, 1
	octave 5
	note D_, 1
	note D_, 1
	octave 4
	note B_, 1
	note B_, 1
	rest 2
	note B_, 1
	note B_, 1
	octave 5
	note D_, 1
	note D_, 1
	note F_, 2
	rest 16
	rest 16
	rest 16
	rest 16
	rest 16
	rest 16
	rest 16
	rest 16
	rest 16
	rest 16
	rest 16
	rest 16
	sound_loop 0, .mainloop

Music_Sewers_Ch2:
	duty_cycle 0
	note_type 12, 10, 7
.mainloop
	rest 6
	octave 2
	volume_envelope 11, 7
	note C_, 16
	note C_, 6
	octave 1
	note G_, 4
	octave 2
	note C_, 2
	note D_, 2
	rest 2
	note D#, 8
	note D_, 16
	note D_, 2
	note C_, 4
	note D_, 4
	note D_, 6
	note D#, 16
	note D#, 4
	note F_, 2
	note D#, 2
	note D_, 14
	note C_, 4
	octave 1
	note B_, 4
	octave 2
	note C_, 2
	note D_, 4
	note D#, 6
	note D_, 16
	note D#, 10
	note F_, 2
	note D#, 2
	note D_, 14
	note C_, 2
	octave 1
	note A#, 10
	octave 2
	note C_, 4
	note D_, 4
	note D#, 4
	note D_, 2
	note F_, 4
	note D#, 2
	note D_, 2
	note C_, 6
	note C_, 4
	note D_, 4
	note D#, 4
	note D_, 4
	octave 1
	note A#, 2
	octave 2
	note G_, 10
	octave 1
	note B_, 4
	note B_, 4
	octave 2
	note D_, 4
	note G_, 4
	note G#, 16
	note G#, 6
	note A#, 6
	note G#, 4
	note G_, 12
	note F_, 2
	note D#, 10
	note C_, 4
	note D_, 4
	note D#, 10
	note G#, 2
	octave 3
	note C_, 2
	octave 2
	note A#, 6
	note G#, 4
	note G_, 4
	note F_, 4
	note G_, 16
	note G_, 6
	note F_, 6
	note D#, 4
	note D_, 6
	note D#, 6
	note C_, 4
	note D_, 6
	note D#, 6
	octave 1
	note B_, 4
	octave 2
	note C_, 16
	note D#, 6
	note D_, 4
	octave 1
	note G_, 2
	note B_, 2
	octave 2
	note C_, 16
	note C_, 6
	octave 1
	note G_, 4
	octave 2
	note C_, 2
	note D_, 2
	rest 2
	note D#, 8
	note D_, 16
	note D_, 2
	note C_, 4
	note D_, 4
	note D_, 6
	note D#, 16
	note D#, 4
	note F_, 2
	note D#, 2
	note D_, 14
	note C_, 4
	octave 1
	note B_, 4
	octave 2
	note C_, 2
	note D_, 4
	note D#, 6
	note D_, 16
	note D#, 10
	note F_, 2
	note D#, 2
	note D_, 14
	note C_, 2
	octave 1
	note A#, 10
	octave 2
	note C_, 4
	note D_, 4
	note D#, 4
	note D_, 2
	note F_, 4
	note D#, 2
	note D_, 2
	note C_, 6
	note C_, 4
	note D_, 4
	note D#, 4
	note D_, 4
	octave 1
	note A#, 2
	octave 2
	note G_, 10
	octave 3
	note B_, 4
	note B_, 4
	octave 4
	note D_, 4
	note G_, 4
	note G#, 16
	note G#, 6
	note A#, 6
	note G#, 4
	note G_, 12
	note F_, 2
	note D#, 10
	note C_, 4
	note D_, 4
	note D#, 10
	note G#, 2
	octave 5
	note C_, 2
	octave 4
	note A#, 6
	note G#, 4
	note G_, 4
	note F_, 4
	note G_, 16
	note G_, 6
	note F_, 6
	note D#, 4
	note D_, 6
	note D#, 6
	note C_, 4
	note D_, 6
	note D#, 6
	octave 3
	note B_, 4
	octave 4
	note C_, 16
	rest 2
	note D#, 13
	rest 1
	sound_loop 0, .mainloop

Music_Sewers_Ch3:
	note_type 12, 2, 0
.mainloop
	rest 2
	octave 1
	note G_, 4
	octave 2
	note C_, 4
	rest 4
	note D#, 6
	octave 1
	note G#, 2
	note A#, 2
	octave 2
	note C_, 1
	rest 3
	note C_, 2
	note D#, 6
	note G_, 4
	octave 1
	note A#, 1
	rest 5
	octave 2
	note D_, 6
	octave 1
	note F_, 2
	note G_, 2
	note A#, 2
	rest 2
	note A#, 2
	octave 2
	note D_, 6
	note F_, 4
	octave 1
	note G#, 1
	rest 5
	octave 2
	note C_, 6
	octave 1
	note F_, 2
	note G_, 2
	note G#, 1
	rest 3
	note G#, 2
	octave 2
	note C_, 6
	note D#, 4
	octave 1
	note A#, 1
	rest 5
	octave 2
	note D_, 6
	octave 1
	note F_, 2
	note G_, 2
	note B_, 1
	rest 3
	note G_, 2
	octave 2
	note D_, 4
	octave 1
	note G_, 2
	note A#, 2
	note B_, 2
	octave 2
	note C_, 4
	rest 2
	note D#, 6
	octave 1
	note G#, 2
	note A#, 2
	octave 2
	note C_, 1
	rest 3
	note C_, 2
	note D#, 6
	note G_, 4
	octave 1
	note A#, 1
	rest 5
	octave 2
	note D_, 6
	octave 1
	note F_, 2
	note G_, 2
	note A#, 1
	rest 3
	note A#, 2
	octave 2
	note D_, 6
	note F_, 4
	octave 1
	note G#, 1
	rest 5
	octave 2
	note C_, 6
	octave 1
	note F_, 2
	note G_, 2
	note G#, 2
	rest 2
	note G#, 2
	octave 2
	note C_, 6
	note D#, 4
	octave 1
	note A#, 1
	rest 5
	octave 2
	note D_, 6
	octave 1
	note F_, 2
	note G_, 2
	note B_, 1
	rest 3
	note G_, 2
	octave 2
	note D_, 4
	octave 1
	note G_, 2
	note A#, 2
	note B_, 2
	note G#, 1
	rest 5
	octave 2
	note C_, 6
	octave 1
	note F_, 2
	note G_, 2
	note G#, 2
	rest 2
	note G#, 2
	octave 2
	note C_, 6
	note D#, 4
	octave 1
	note G_, 1
	rest 5
	note B_, 4
	note G_, 2
	note B_, 2
	octave 2
	note D_, 2
	note C_, 2
	rest 2
	note C_, 2
	note D#, 4
	note C_, 2
	octave 3
	note C_, 4
	octave 1
	note G#, 1
	rest 5
	octave 2
	note C_, 6
	octave 1
	note F_, 2
	note G#, 2
	note A#, 2
	rest 2
	note A#, 2
	octave 2
	note D_, 4
	octave 1
	note A#, 2
	octave 2
	note F_, 4
	note C_, 1
	rest 5
	note D#, 6
	octave 1
	note G#, 2
	note A#, 2
	octave 2
	note C_, 1
	rest 3
	note C_, 2
	note D#, 6
	note G_, 4
	octave 1
	note G#, 1
	rest 5
	octave 2
	note C_, 4
	octave 1
	note G#, 2
	octave 2
	note D#, 4
	octave 1
	note G_, 1
	rest 3
	note G_, 2
	note B_, 4
	note G_, 2
	octave 2
	note D_, 4
	note C_, 1
	rest 3
	note C_, 2
	note D#, 6
	octave 1
	note G_, 2
	note G#, 2
	note A#, 2
	note A#, 2
	note G#, 2
	note G_, 4
	note G_, 2
	note B_, 2
	octave 2
	note C_, 4
	rest 4
	note D#, 6
	octave 1
	note G#, 2
	note A#, 2
	octave 2
	note C_, 1
	rest 3
	note C_, 2
	note D#, 6
	note G_, 4
	octave 1
	note A#, 1
	rest 5
	octave 2
	note D_, 6
	octave 1
	note F_, 2
	note G_, 2
	note A#, 2
	rest 2
	note A#, 2
	octave 2
	note D_, 6
	note F_, 4
	octave 1
	note G#, 1
	rest 5
	octave 2
	note C_, 6
	octave 1
	note F_, 2
	note G_, 2
	note G#, 2
	rest 2
	note G#, 2
	octave 2
	note C_, 6
	note D#, 4
	octave 1
	note A#, 1
	rest 5
	octave 2
	note D_, 6
	octave 1
	note F_, 2
	note G_, 2
	note B_, 1
	rest 3
	note G_, 2
	octave 2
	note D_, 4
	octave 1
	note G_, 2
	note A#, 2
	note B_, 2
	octave 2
	note C_, 4
	rest 2
	note D#, 6
	octave 1
	note G#, 2
	note A#, 2
	octave 2
	note C_, 1
	rest 3
	note C_, 2
	note D#, 6
	note G_, 4
	octave 1
	note A#, 1
	rest 5
	octave 2
	note D_, 6
	octave 1
	note F_, 2
	note G_, 2
	note A#, 1
	rest 3
	note A#, 2
	octave 2
	note D_, 6
	note F_, 4
	octave 1
	note G#, 1
	rest 5
	octave 2
	note C_, 6
	octave 1
	note F_, 2
	note G_, 2
	note G#, 1
	rest 3
	note G#, 2
	octave 2
	note C_, 6
	note D#, 4
	octave 1
	note A#, 1
	rest 5
	octave 2
	note D_, 6
	octave 1
	note F_, 2
	note G_, 2
	note B_, 1
	rest 3
	note G_, 2
	octave 2
	note D_, 4
	octave 1
	note G_, 2
	note A#, 2
	note B_, 2
	note G#, 1
	rest 5
	octave 2
	note C_, 6
	octave 1
	note F_, 2
	note G_, 2
	note G#, 1
	rest 3
	note G#, 2
	octave 2
	note C_, 6
	note D#, 4
	octave 1
	note G_, 1
	rest 5
	note B_, 4
	note G_, 2
	note B_, 2
	octave 2
	note D_, 2
	note C_, 1
	rest 3
	note C_, 2
	note D#, 4
	note C_, 2
	octave 3
	note C_, 4
	octave 1
	note G#, 1
	rest 5
	octave 2
	note C_, 6
	octave 1
	note F_, 2
	note G#, 2
	note A#, 1
	rest 3
	note A#, 2
	octave 2
	note D_, 4
	octave 1
	note A#, 2
	octave 2
	note F_, 4
	note C_, 1
	rest 5
	note D#, 6
	octave 1
	note G#, 2
	note A#, 2
	octave 2
	note C_, 1
	rest 3
	note C_, 2
	note D#, 6
	note G_, 4
	octave 1
	note G#, 1
	rest 5
	octave 2
	note C_, 4
	octave 1
	note G#, 2
	octave 2
	note D#, 4
	octave 1
	note G_, 1
	rest 3
	note G_, 2
	note B_, 4
	note G_, 2
	octave 2
	note D_, 4
	note C_, 1
	rest 3
	note C_, 2
	note D#, 6
	octave 1
	note A#, 2
	note B_, 2
	octave 2
	note C_, 2
	note C_, 2
	note C_, 2
	note C_, 2
	rest 2
	note C_, 2
	note C_, 1
	note C_, 1
	note C_, 1
	rest 1
	sound_loop 0, .mainloop

Music_Sewers_Ch4:
	toggle_noise 4
	drum_speed 12
.mainloop
	octave 6
	drum_note 3, 1
	drum_note 3, 1
	drum_note 1, 2
	drum_note 3, 2
	drum_note 3, 2
	drum_note 7, 2
	drum_note 7, 2
	drum_note 3, 2
	drum_note 7, 1
	drum_note 7, 1
	drum_note 7, 2
	drum_note 7, 2
	drum_note 3, 2
	drum_note 7, 2
	drum_note 7, 2
	drum_note 7, 2
	drum_note 3, 2
	drum_note 7, 1
	drum_note 7, 1
	drum_note 7, 2
	drum_note 7, 2
	drum_note 3, 2
	drum_note 7, 2
	drum_note 7, 2
	drum_note 7, 2
	drum_note 3, 2
	drum_note 7, 1
	drum_note 7, 1
	drum_note 7, 2
	drum_note 7, 2
	drum_note 3, 2
	drum_note 7, 2
	drum_note 7, 2
	drum_note 7, 2
	drum_note 3, 2
	drum_note 7, 1
	drum_note 7, 1
	drum_note 7, 2
	drum_note 7, 2
	drum_note 7, 2
	drum_note 3, 1
	drum_note 3, 1
	drum_note 7, 2
	drum_note 7, 2
	drum_note 3, 2
	drum_note 7, 1
	drum_note 7, 1
	drum_note 7, 2
	drum_note 7, 2
	drum_note 3, 2
	drum_note 7, 2
	drum_note 7, 2
	drum_note 7, 2
	drum_note 3, 2
	drum_note 7, 1
	drum_note 7, 1
	drum_note 7, 2
	drum_note 7, 2
	drum_note 3, 2
	drum_note 7, 2
	drum_note 7, 2
	drum_note 7, 2
	drum_note 3, 2
	drum_note 7, 1
	drum_note 7, 1
	drum_note 7, 2
	drum_note 7, 2
	drum_note 3, 2
	drum_note 7, 2
	drum_note 7, 2
	drum_note 7, 2
	drum_note 3, 2
	drum_note 7, 1
	drum_note 7, 1
	drum_note 7, 2
	drum_note 7, 2
	drum_note 7, 2
	drum_note 3, 1
	drum_note 3, 1
	drum_note 7, 2
	drum_note 7, 2
	drum_note 3, 2
	drum_note 7, 1
	drum_note 7, 1
	drum_note 7, 2
	drum_note 7, 2
	drum_note 3, 2
	drum_note 7, 2
	drum_note 7, 2
	drum_note 7, 2
	drum_note 3, 2
	drum_note 7, 1
	drum_note 7, 1
	drum_note 7, 2
	drum_note 7, 2
	drum_note 3, 2
	drum_note 7, 2
	drum_note 7, 2
	drum_note 7, 2
	drum_note 3, 2
	drum_note 7, 1
	drum_note 7, 1
	drum_note 7, 2
	drum_note 7, 2
	drum_note 3, 2
	drum_note 7, 2
	drum_note 7, 2
	drum_note 7, 2
	drum_note 3, 2
	drum_note 7, 1
	drum_note 7, 1
	drum_note 7, 2
	drum_note 7, 2
	drum_note 7, 2
	drum_note 3, 1
	drum_note 3, 1
	drum_note 7, 2
	drum_note 7, 2
	drum_note 3, 2
	drum_note 7, 1
	drum_note 7, 1
	drum_note 7, 2
	drum_note 7, 2
	drum_note 3, 2
	drum_note 7, 2
	drum_note 7, 2
	drum_note 7, 2
	drum_note 3, 2
	drum_note 7, 1
	drum_note 7, 1
	drum_note 7, 2
	drum_note 7, 2
	drum_note 3, 2
	drum_note 7, 2
	drum_note 7, 2
	drum_note 7, 2
	drum_note 3, 2
	drum_note 7, 1
	drum_note 7, 1
	drum_note 7, 2
	drum_note 7, 2
	drum_note 3, 2
	drum_note 7, 2
	drum_note 7, 2
	drum_note 7, 2
	drum_note 3, 2
	drum_note 10, 4
	drum_note 7, 1
	drum_note 1, 1
	drum_note 3, 2
	drum_note 3, 1
	drum_note 3, 1
	drum_note 7, 2
	drum_note 7, 2
	drum_note 7, 2
	drum_note 7, 1
	drum_note 7, 1
	drum_note 7, 2
	drum_note 7, 2
	drum_note 7, 2
	drum_note 7, 2
	drum_note 7, 2
	drum_note 7, 2
	drum_note 7, 2
	drum_note 7, 1
	drum_note 7, 1
	drum_note 7, 2
	drum_note 7, 2
	drum_note 7, 2
	drum_note 7, 2
	drum_note 7, 2
	drum_note 7, 2
	drum_note 7, 2
	drum_note 7, 1
	drum_note 7, 1
	drum_note 7, 2
	drum_note 7, 2
	drum_note 7, 2
	drum_note 7, 2
	drum_note 7, 2
	drum_note 7, 2
	drum_note 7, 2
	drum_note 7, 1
	drum_note 7, 1
	drum_note 7, 2
	drum_note 7, 2
	drum_note 9, 2
	drum_note 3, 1
	drum_note 3, 1
	drum_note 7, 2
	drum_note 7, 2
	drum_note 7, 2
	drum_note 7, 1
	drum_note 7, 1
	drum_note 7, 2
	drum_note 7, 2
	drum_note 7, 2
	drum_note 7, 2
	drum_note 7, 2
	drum_note 7, 2
	drum_note 7, 2
	drum_note 7, 1
	drum_note 7, 1
	drum_note 7, 2
	drum_note 7, 2
	drum_note 7, 2
	drum_note 7, 2
	drum_note 7, 2
	drum_note 7, 2
	drum_note 7, 2
	drum_note 7, 1
	drum_note 7, 1
	drum_note 7, 2
	drum_note 7, 2
	drum_note 7, 2
	drum_note 7, 2
	drum_note 7, 2
	drum_note 7, 2
	drum_note 7, 2
	drum_note 7, 1
	drum_note 7, 1
	drum_note 7, 2
	drum_note 7, 2
	drum_note 9, 2
	drum_note 3, 1
	drum_note 3, 1
	drum_note 7, 2
	drum_note 7, 2
	drum_note 7, 2
	drum_note 7, 1
	drum_note 7, 1
	drum_note 7, 2
	drum_note 7, 2
	drum_note 7, 2
	drum_note 7, 2
	drum_note 7, 2
	drum_note 7, 2
	drum_note 7, 2
	drum_note 7, 1
	drum_note 7, 1
	drum_note 7, 2
	drum_note 7, 2
	drum_note 7, 2
	drum_note 7, 2
	drum_note 7, 2
	drum_note 7, 2
	drum_note 7, 2
	drum_note 7, 1
	drum_note 7, 1
	drum_note 7, 2
	drum_note 7, 2
	drum_note 9, 2
	drum_note 3, 1
	drum_note 3, 1
	drum_note 1, 1
	drum_note 10, 1
	drum_note 6, 2
	drum_note 9, 2
	drum_note 10, 2
	drum_note 9, 2
	drum_note 1, 1
	drum_note 1, 1
	drum_note 9, 2
	drum_note 3, 1
	drum_note 3, 1
	drum_note 7, 2
	drum_note 7, 2
	drum_note 3, 2
	drum_note 7, 1
	drum_note 7, 1
	drum_note 7, 2
	drum_note 7, 2
	drum_note 3, 2
	drum_note 7, 2
	drum_note 7, 2
	drum_note 7, 2
	drum_note 3, 2
	drum_note 7, 1
	drum_note 7, 1
	drum_note 7, 2
	drum_note 7, 2
	drum_note 3, 2
	drum_note 7, 2
	drum_note 7, 2
	drum_note 7, 2
	drum_note 3, 2
	drum_note 7, 1
	drum_note 7, 1
	drum_note 7, 2
	drum_note 7, 2
	drum_note 3, 2
	drum_note 7, 2
	drum_note 7, 2
	drum_note 7, 2
	drum_note 3, 2
	drum_note 7, 1
	drum_note 7, 1
	drum_note 7, 2
	drum_note 7, 2
	drum_note 7, 2
	drum_note 3, 1
	drum_note 3, 1
	drum_note 7, 2
	drum_note 7, 2
	drum_note 3, 2
	drum_note 7, 1
	drum_note 7, 1
	drum_note 7, 2
	drum_note 7, 2
	drum_note 3, 2
	drum_note 7, 2
	drum_note 7, 2
	drum_note 7, 2
	drum_note 3, 2
	drum_note 7, 1
	drum_note 7, 1
	drum_note 7, 2
	drum_note 7, 2
	drum_note 3, 2
	drum_note 7, 2
	drum_note 7, 2
	drum_note 7, 2
	drum_note 3, 2
	drum_note 7, 1
	drum_note 7, 1
	drum_note 7, 2
	drum_note 7, 2
	drum_note 3, 2
	drum_note 7, 2
	drum_note 7, 2
	drum_note 7, 2
	drum_note 3, 2
	drum_note 7, 1
	drum_note 7, 1
	drum_note 7, 2
	drum_note 7, 2
	drum_note 7, 2
	drum_note 3, 1
	drum_note 3, 1
	drum_note 7, 2
	drum_note 7, 2
	drum_note 3, 2
	drum_note 7, 1
	drum_note 7, 1
	drum_note 7, 2
	drum_note 7, 2
	drum_note 3, 2
	drum_note 7, 2
	drum_note 7, 2
	drum_note 7, 2
	drum_note 3, 2
	drum_note 7, 1
	drum_note 7, 1
	drum_note 7, 2
	drum_note 7, 2
	drum_note 3, 2
	drum_note 7, 2
	drum_note 7, 2
	drum_note 7, 2
	drum_note 3, 2
	drum_note 7, 1
	drum_note 7, 1
	drum_note 7, 2
	drum_note 7, 2
	drum_note 3, 2
	drum_note 7, 2
	drum_note 7, 2
	drum_note 7, 2
	drum_note 3, 2
	drum_note 7, 1
	drum_note 7, 1
	drum_note 7, 2
	drum_note 7, 2
	drum_note 7, 2
	drum_note 3, 1
	drum_note 3, 1
	drum_note 7, 2
	drum_note 7, 2
	drum_note 3, 2
	drum_note 7, 1
	drum_note 7, 1
	drum_note 7, 2
	drum_note 7, 2
	drum_note 3, 2
	drum_note 7, 2
	drum_note 7, 2
	drum_note 7, 2
	drum_note 3, 2
	drum_note 7, 1
	drum_note 7, 1
	drum_note 7, 2
	drum_note 7, 2
	drum_note 3, 2
	drum_note 7, 2
	drum_note 7, 2
	drum_note 7, 2
	drum_note 3, 2
	drum_note 7, 1
	drum_note 7, 1
	drum_note 7, 2
	drum_note 7, 2
	drum_note 3, 2
	drum_note 7, 2
	drum_note 7, 2
	drum_note 7, 2
	drum_note 3, 2
	drum_note 10, 4
	drum_note 7, 1
	drum_note 1, 1
	drum_note 3, 2
	drum_note 3, 1
	drum_note 3, 1
	drum_note 7, 2
	drum_note 7, 2
	drum_note 7, 2
	drum_note 7, 1
	drum_note 7, 1
	drum_note 7, 2
	drum_note 7, 2
	drum_note 7, 2
	drum_note 7, 2
	drum_note 7, 2
	drum_note 7, 2
	drum_note 7, 2
	drum_note 7, 1
	drum_note 7, 1
	drum_note 7, 2
	drum_note 7, 2
	drum_note 7, 2
	drum_note 7, 2
	drum_note 7, 2
	drum_note 7, 2
	drum_note 7, 2
	drum_note 7, 1
	drum_note 7, 1
	drum_note 7, 2
	drum_note 7, 2
	drum_note 7, 2
	drum_note 7, 2
	drum_note 7, 2
	drum_note 7, 2
	drum_note 7, 2
	drum_note 7, 1
	drum_note 7, 1
	drum_note 7, 2
	drum_note 7, 2
	drum_note 9, 2
	drum_note 3, 1
	drum_note 3, 1
	drum_note 7, 2
	drum_note 7, 2
	drum_note 7, 2
	drum_note 7, 1
	drum_note 7, 1
	drum_note 7, 2
	drum_note 7, 2
	drum_note 7, 2
	drum_note 7, 2
	drum_note 7, 2
	drum_note 7, 2
	drum_note 7, 2
	drum_note 7, 1
	drum_note 7, 1
	drum_note 7, 2
	drum_note 7, 2
	drum_note 7, 2
	drum_note 7, 2
	drum_note 7, 2
	drum_note 7, 2
	drum_note 7, 2
	drum_note 7, 1
	drum_note 7, 1
	drum_note 7, 2
	drum_note 7, 2
	drum_note 7, 2
	drum_note 7, 2
	drum_note 7, 2
	drum_note 7, 2
	drum_note 7, 2
	drum_note 7, 1
	drum_note 7, 1
	drum_note 7, 2
	drum_note 7, 2
	drum_note 9, 2
	drum_note 3, 1
	drum_note 3, 1
	drum_note 7, 2
	drum_note 7, 2
	drum_note 7, 2
	drum_note 7, 1
	drum_note 7, 1
	drum_note 7, 2
	drum_note 7, 2
	drum_note 7, 2
	drum_note 7, 2
	drum_note 7, 2
	drum_note 7, 2
	drum_note 7, 2
	drum_note 7, 1
	drum_note 7, 1
	drum_note 7, 2
	drum_note 7, 2
	drum_note 7, 2
	drum_note 7, 2
	drum_note 7, 2
	drum_note 7, 2
	drum_note 7, 2
	drum_note 7, 1
	drum_note 7, 1
	drum_note 7, 2
	drum_note 7, 2
	drum_note 9, 2
	drum_note 3, 1
	drum_note 3, 1
	drum_note 1, 1
	drum_note 10, 1
	drum_note 6, 2
	drum_note 9, 2
	drum_note 10, 2
	drum_note 9, 2
	drum_note 1, 1
	drum_note 1, 1
	drum_note 9, 2
	drum_note 9, 1
	rest 1
	octave 8
	sound_loop 0, .mainloop
