Music_Techno:
	channel_count 3
	channel 1, Music_Techno_Ch1
	channel 2, Music_Techno_Ch2
	channel 3, Music_Techno_Ch3

Music_Techno_Ch1:
	volume 7, 7
	duty_cycle 2
	note_type 12, 9, 7
	tempo 163
.mainloop:
	octave 3
	note C_, 4
	note A#, 1
	note A_, 1
	note G_, 1
	note A_, 1
	rest 1
	note F_, 6
	rest 1
	note C_, 4
	note A#, 1
	note A_, 1
	note G_, 1
	note A_, 1
	rest 1
	note F_, 6
	rest 5
	note A#, 1
	note A_, 1
	note G_, 1
	note A_, 1
	rest 1
	note F_, 6
	rest 5
	note A#, 1
	note A_, 1
	note G_, 1
	note A_, 1
	rest 1
	note F_, 6
	rest 5
	note A#, 1
	note A_, 1
	note G_, 1
	note A_, 1
	rest 1
	note F_, 6
	rest 5
	note A#, 1
	note A_, 1
	note G_, 1
	note A_, 1
	rest 1
	note F_, 6
	rest 5
	note A#, 1
	note A_, 1
	note G_, 1
	note A_, 1
	rest 1
	note F_, 6
	rest 5
	note A#, 1
	note A_, 1
	note G_, 1
	note A_, 1
	rest 1
	note F_, 6
	rest 5
	note A#, 1
	note A_, 1
	note G_, 1
	note A_, 1
	rest 1
	note F_, 6
	rest 5
	note A#, 1
	note A_, 1
	note G_, 1
	note A_, 1
	rest 1
	note F_, 6
	rest 5
	note A_, 1
	note G#, 1
	note F#, 1
	note G#, 1
	rest 1
	note E_, 6
	rest 5
	note A_, 1
	note G#, 1
	note F#, 1
	note G#, 1
	rest 1
	note E_, 6
	rest 5
	note A_, 1
	note G#, 1
	note F#, 1
	note G#, 1
	rest 1
	note E_, 6
	rest 5
	note A_, 1
	note G#, 1
	note F#, 1
	note G#, 1
	rest 1
	note E_, 6
	rest 5
	note A_, 1
	note G#, 1
	note F#, 1
	note G#, 1
	rest 1
	note E_, 6
	rest 5
	note A_, 1
	note G#, 1
	note F#, 1
	note G#, 1
	rest 1
	note E_, 6
	rest 5
	note A_, 1
	note G#, 1
	note F#, 1
	note G#, 1
	rest 1
	note E_, 6
	rest 5
	note A_, 1
	note G#, 1
	note F#, 1
	note G#, 1
	rest 1
	note E_, 6
	rest 1
	note D#, 2
	rest 1
	note F_, 2
	rest 1
	note D#, 2
	rest 1
	note G_, 2
	note F_, 2
	note D#, 2
	rest 1
	octave 4
	note F_, 1
	note D#, 1
	note D_, 1
	rest 1
	note D_, 1
	note D#, 1
	note F_, 1
	rest 1
	note G_, 2
	note F_, 1
	note G_, 4
	rest 1
	octave 2
	note G#, 8
	note A#, 7
	rest 9
	octave 3
	note D_, 8
	note D#, 2
	rest 1
	note F_, 2
	rest 1
	note D#, 2
	rest 1
	note G_, 2
	note F_, 2
	note D#, 2
	rest 1
	octave 4
	note F_, 1
	note D#, 1
	note D_, 1
	rest 1
	note D_, 1
	note D#, 1
	note F_, 1
	rest 1
	note C_, 2
	octave 3
	note A#, 1
	octave 4
	note C_, 4
	rest 16
	rest 9
	octave 3
	note G_, 8
	sound_loop 0, .mainloop

Music_Techno_Ch2:
	duty_cycle 1
	note_type 12, 9, 7
.mainloop:
	rest 16
	rest 16
	octave 3
	note C_, 3
	rest 1
	octave 2
	note G_, 3
	rest 1
	note F#, 3
	rest 1
	octave 3
	note C_, 1
	note D_, 1
	rest 2
	octave 2
	note D#, 1
	note D#, 1
	note D_, 1
	note D#, 1
	rest 8
	octave 3
	note C_, 1
	note D_, 1
	rest 2
	octave 2
	note D#, 1
	note D#, 1
	note D_, 1
	note D#, 1
	rest 8
	octave 3
	note C_, 1
	octave 2
	note B_, 1
	rest 2
	octave 3
	note C_, 14
	rest 2
	note C_, 3
	rest 1
	octave 2
	note G_, 3
	rest 1
	note F#, 3
	rest 1
	octave 3
	note C_, 1
	note D_, 1
	rest 2
	octave 2
	note D#, 1
	note D#, 1
	note D_, 1
	note D#, 1
	rest 8
	octave 3
	note C_, 1
	note D_, 1
	rest 2
	octave 2
	note D#, 1
	note D#, 1
	note D_, 1
	note D#, 1
	rest 8
	octave 3
	note C_, 1
	octave 2
	note B_, 1
	rest 2
	octave 3
	note C_, 16
	octave 2
	note B_, 3
	rest 1
	note F#, 3
	rest 1
	note F_, 3
	rest 1
	note B_, 1
	octave 3
	note C#, 1
	rest 2
	octave 2
	note D_, 1
	note D_, 1
	note C#, 1
	note D_, 1
	rest 8
	note B_, 1
	octave 3
	note C#, 1
	rest 2
	octave 2
	note D_, 1
	note D_, 1
	note C#, 1
	note D_, 1
	rest 8
	note B_, 1
	note A#, 1
	rest 2
	note B_, 16
	note B_, 3
	rest 1
	note F#, 3
	rest 1
	note F_, 3
	rest 1
	note B_, 1
	octave 3
	note C#, 1
	rest 2
	octave 2
	note D_, 1
	note D_, 1
	note C#, 1
	note D_, 1
	rest 8
	note B_, 1
	octave 3
	note C#, 1
	rest 2
	octave 2
	note D_, 1
	note D_, 1
	note C#, 1
	note D_, 1
	rest 8
	note B_, 1
	note A#, 1
	rest 2
	note B_, 15
	rest 16
	rest 16
	rest 16
	rest 16
	rest 1
	note G_, 1
	note F_, 1
	note D#, 1
	note F_, 1
	note D#, 1
	note D_, 1
	note D#, 1
	note F_, 1
	note G_, 1
	note F_, 1
	note D#, 1
	note F_, 1
	note D#, 1
	note D_, 1
	note D#, 1
	note F_, 1
	note G_, 1
	note F_, 1
	note D#, 1
	note F_, 1
	note D#, 1
	note D_, 1
	note D#, 1
	note F_, 1
	rest 1
	note F_, 1
	note G_, 1
	note A#, 2
	octave 3
	note C_, 1
	octave 2
	note F#, 1
	note F_, 1
	octave 3
	note D#, 3
	rest 1
	note C_, 3
	rest 1
	note D#, 3
	rest 1
	note D_, 3
	rest 1
	octave 2
	note B_, 1
	octave 3
	note C_, 1
	rest 1
	note D_, 2
	note F_, 2
	note G_, 4
	rest 5
	sound_loop 0, .mainloop

Music_Techno_Ch3:
	note_type 12, 2, 0
.mainloop:
	octave 2
	note C_, 4
	octave 1
	note G#, 4
	note G_, 4
	note F_, 4
	octave 2
	note C_, 4
	octave 1
	note G#, 4
	note G_, 4
	note F_, 4
	octave 2
	note C_, 4
	octave 1
	note G#, 4
	note G_, 4
	note F_, 4
	octave 2
	note C_, 4
	octave 1
	note G#, 4
	note G_, 4
	note F_, 4
	octave 2
	note C_, 4
	octave 1
	note G#, 4
	note G_, 4
	note F_, 4
	octave 2
	note C_, 4
	octave 1
	note G#, 4
	note G_, 4
	note F_, 4
	octave 2
	note C_, 4
	octave 1
	note G#, 4
	note G_, 4
	note F_, 4
	octave 2
	note C_, 4
	octave 1
	note G#, 4
	note G_, 4
	note F_, 4
	octave 2
	note C_, 4
	octave 1
	note G#, 4
	note G_, 4
	note F_, 4
	octave 2
	note C_, 4
	octave 1
	note G#, 4
	note G_, 4
	note F_, 4
	note B_, 4
	note F#, 4
	note F_, 4
	note D#, 4
	note B_, 4
	note F#, 4
	note F_, 4
	note D#, 4
	note B_, 4
	note F#, 4
	note F_, 4
	note D#, 4
	note B_, 4
	note F#, 4
	note F_, 4
	note D#, 4
	note B_, 4
	note F#, 4
	note F_, 4
	note D#, 4
	note B_, 4
	note F#, 4
	note F_, 4
	note D#, 4
	note B_, 4
	note F#, 4
	note F_, 4
	note D#, 4
	note B_, 4
	note F#, 4
	note F_, 4
	note D#, 4
	octave 3
	note C_, 8
	octave 2
	note B_, 8
	note A#, 8
	note A_, 8
	note G#, 8
	note A#, 8
	note B_, 16
	octave 3
	note C_, 8
	octave 2
	note B_, 8
	note A#, 8
	note A_, 8
	note G#, 8
	note A#, 8
	note B_, 8
	octave 3
	note G_, 8
	sound_loop 0, .mainloop
