Music_Bridge:
	channel_count 4
	channel 1, Music_Bridge_Ch1
	channel 2, Music_Bridge_Ch2
	channel 3, Music_Bridge_Ch3
	channel 4, Music_Bridge_Ch4

Music_Bridge_Ch1:
	volume 7, 7
	note_type 12, 10, 7
	tempo 117
.mainloop:
	rest 16
	rest 16
	rest 16
	rest 16
	rest 16
	octave 4
	duty_cycle 2
	volume_envelope 11, 7
	note D_, 2
	note F_, 2
	octave 5
	note D_, 2
	octave 4
	note D_, 2
	note F_, 2
	octave 5
	note D_, 2
	note E_, 2
	note F_, 2
	note E_, 2
	note C_, 2
	octave 4
	note A_, 2
	octave 5
	note C_, 2
	octave 4
	note A_, 2
	note G_, 2
	note E_, 2
	note A_, 2
	note G_, 4
	note D_, 4
	note D_, 2
	note F_, 2
	octave 5
	note D_, 2
	octave 4
	note D_, 2
	note F_, 2
	octave 5
	note D_, 2
	note E_, 2
	note F_, 2
	note E_, 2
	note C_, 2
	octave 4
	note A_, 2
	octave 5
	note C_, 2
	octave 4
	note A_, 2
	note G_, 2
	note E_, 2
	note A_, 2
	note G_, 4
	note D_, 4
	note G_, 2
	note A_, 2
	note G_, 2
	note D_, 2
	note A_, 2
	note G_, 2
	octave 3
	note A_, 4
	octave 4
	note C_, 4
	note G_, 2
	note A_, 2
	note G_, 2
	note D_, 2
	note A_, 2
	note G_, 2
	octave 3
	note A_, 4
	octave 4
	note C#, 4
	note D_, 2
	note F_, 2
	octave 5
	note D_, 2
	octave 4
	note D_, 2
	note F_, 2
	octave 5
	note D_, 2
	note E_, 2
	note F_, 2
	note E_, 2
	note C_, 2
	octave 4
	note A_, 2
	octave 5
	note C_, 2
	octave 4
	note A_, 2
	note G_, 2
	note E_, 2
	note A_, 2
	note G_, 4
	note D_, 4
	note D_, 2
	note F_, 2
	octave 5
	note D_, 2
	octave 4
	note D_, 2
	note F_, 2
	octave 5
	note D_, 2
	note E_, 2
	note F_, 2
	note E_, 2
	note C_, 2
	octave 4
	note A_, 2
	octave 5
	note C_, 2
	octave 4
	note A_, 2
	note G_, 2
	note E_, 2
	note A_, 2
	note G_, 4
	note D_, 4
	note G_, 2
	note A_, 2
	note G_, 2
	note D_, 2
	note A_, 2
	note G_, 2
	octave 3
	note A_, 4
	octave 4
	note C_, 4
	note G_, 2
	note A_, 2
	note G_, 2
	note D_, 2
	note A_, 2
	note G_, 2
	octave 3
	note A_, 4
	octave 4
	note C#, 4
	octave 3
	note A_, 2
	rest 4
	octave 4
	note C_, 2
	rest 4
	octave 3
	note A_, 8
	rest 4
	octave 4
	note D_, 4
	octave 3
	note A_, 4
	note A_, 2
	octave 4
	note D_, 2
	rest 2
	note E_, 2
	rest 2
	note G_, 2
	rest 2
	note G_, 1
	note A_, 5
	note E_, 4
	note D_, 2
	octave 3
	note F_, 2
	octave 4
	note D_, 4
	note D_, 1
	note E_, 3
	octave 3
	note A_, 2
	octave 4
	note C_, 2
	rest 2
	note D_, 2
	rest 2
	note D_, 6
	rest 4
	note E_, 4
	note D_, 4
	note E_, 6
	octave 3
	note A_, 2
	rest 4
	note A_, 2
	octave 4
	note D_, 2
	note C_, 4
	octave 3
	note A_, 4
	note G_, 4
	note A_, 4
	note A_, 8
	rest 4
	octave 2
	note A_, 2
	octave 3
	note C_, 2
	note D_, 4
	note G_, 1
	note A_, 3
	note A_, 4
	note A_, 4
	note A_, 8
	rest 6
	note G_, 6
	note A_, 4
	octave 4
	note D_, 8
	octave 3
	note A_, 8
	rest 4
	octave 4
	note C#, 2
	note D_, 4
	rest 2
	note C#, 4
	note F_, 4
	note G_, 4
	note D_, 8
	octave 5
	note D_, 10
	sound_loop 0, .mainloop

Music_Bridge_Ch2:
	note_type 12, 9, 7
	octave 3
	duty_cycle 1
.mainloop:
	octave 2
	volume_envelope 11, 7
	note A_, 2
	octave 3
	note C_, 2
	rest 2
	octave 2
	note D_, 2
	octave 3
	note C_, 2
	rest 2
	octave 2
	note E_, 4
	octave 3
	note D_, 4
	octave 2
	note F_, 2
	octave 3
	note E_, 2
	rest 2
	octave 2
	note F_, 2
	octave 3
	note E_, 2
	rest 2
	octave 2
	note E_, 4
	octave 3
	note D_, 4
	octave 2
	note D_, 2
	octave 3
	note C_, 2
	rest 2
	octave 2
	note D_, 2
	octave 3
	note C_, 2
	rest 2
	octave 2
	note E_, 4
	octave 3
	note D_, 4
	octave 2
	note F_, 2
	octave 3
	note E_, 2
	rest 2
	octave 2
	note F_, 2
	octave 3
	note E_, 2
	rest 2
	octave 2
	note E_, 4
	octave 3
	note D_, 4
	octave 2
	note D_, 2
	octave 3
	note C_, 2
	rest 2
	octave 2
	note D_, 2
	octave 3
	note C_, 2
	rest 2
	octave 2
	note E_, 4
	octave 3
	note D_, 4
	octave 2
	note F_, 2
	octave 3
	note E_, 2
	rest 2
	octave 2
	note F_, 2
	octave 3
	note E_, 2
	rest 2
	octave 2
	note E_, 4
	octave 3
	note D_, 4
	octave 2
	note D_, 2
	octave 3
	note C_, 2
	rest 2
	octave 2
	note D_, 2
	octave 3
	note C_, 2
	rest 2
	octave 2
	note E_, 4
	octave 3
	note D_, 4
	octave 2
	note F_, 2
	octave 3
	note E_, 2
	rest 2
	octave 2
	note F_, 2
	octave 3
	note E_, 2
	rest 2
	octave 2
	note E_, 4
	octave 3
	note D_, 4
	octave 1
	note A#, 2
	octave 2
	note A_, 2
	rest 2
	octave 1
	note A#, 2
	octave 2
	note A_, 2
	rest 2
	octave 1
	note F_, 4
	octave 2
	note F_, 4
	octave 1
	note A#, 2
	octave 2
	note A_, 2
	rest 2
	octave 1
	note A#, 2
	octave 2
	note A_, 2
	rest 2
	octave 1
	note A_, 4
	octave 2
	note A_, 4
	note D_, 2
	octave 3
	note C_, 2
	rest 2
	octave 2
	note D_, 2
	octave 3
	note C_, 2
	rest 2
	octave 2
	note E_, 4
	octave 3
	note D_, 4
	octave 2
	note F_, 2
	octave 3
	note E_, 2
	rest 2
	octave 2
	note F_, 2
	octave 3
	note E_, 2
	rest 2
	octave 2
	note E_, 4
	octave 3
	note D_, 4
	octave 2
	note D_, 2
	octave 3
	note C_, 2
	rest 2
	octave 2
	note D_, 2
	octave 3
	note C_, 2
	rest 2
	octave 2
	note E_, 4
	octave 3
	note D_, 4
	octave 2
	note F_, 2
	octave 3
	note E_, 2
	rest 2
	octave 2
	note F_, 2
	octave 3
	note E_, 2
	rest 2
	octave 2
	note E_, 4
	octave 3
	note D_, 4
	octave 1
	note A#, 2
	octave 2
	note A_, 2
	rest 2
	octave 1
	note A#, 2
	octave 2
	note A_, 2
	rest 2
	octave 1
	note F_, 4
	octave 2
	note F_, 4
	octave 1
	note A#, 2
	octave 2
	note A_, 2
	rest 2
	octave 1
	note A#, 2
	octave 2
	note A_, 2
	rest 2
	octave 1
	note A_, 4
	octave 2
	note A_, 4
	note A_, 2
	rest 4
	octave 3
	note D_, 2
	rest 12
	note E_, 4
	rest 2
	note E_, 5
	rest 1
	note F_, 4
	rest 10
	note F_, 16
	note F_, 2
	note E_, 4
	rest 2
	note E_, 2
	rest 6
	note D_, 6
	note D_, 6
	octave 2
	note B_, 6
	octave 1
	note A#, 6
	octave 2
	note A_, 2
	rest 16
	rest 2
	note A_, 4
	rest 2
	octave 1
	note F_, 6
	octave 2
	note F_, 4
	note F_, 2
	note C_, 4
	rest 16
	note F_, 6
	note A_, 2
	rest 2
	note F_, 2
	note F_, 1
	rest 15
	note A_, 4
	note A_, 6
	note G_, 4
	note G_, 6
	rest 2
	note A_, 8
	rest 2
	note A_, 4
	note F_, 1
	octave 3
	note D_, 15
	rest 2
	sound_loop 0, .mainloop

Music_Bridge_Ch3:
	note_type 12, 1, 0
.mainloop:
	octave 2
	note D_, 2
	octave 3
	note C_, 2
	rest 2
	octave 2
	note D_, 2
	octave 3
	note C_, 2
	rest 2
	octave 2
	note E_, 4
	octave 3
	note D_, 4
	octave 2
	note F_, 2
	octave 3
	note E_, 2
	rest 2
	octave 2
	note F_, 2
	octave 3
	note E_, 2
	rest 2
	octave 2
	note E_, 4
	octave 3
	note D_, 4
	octave 2
	note D_, 2
	octave 3
	note C_, 2
	rest 2
	octave 2
	note D_, 2
	octave 3
	note C_, 2
	rest 2
	octave 2
	note E_, 4
	octave 3
	note D_, 4
	octave 2
	note F_, 2
	octave 3
	note E_, 2
	rest 2
	octave 2
	note F_, 2
	octave 3
	note E_, 2
	rest 2
	octave 2
	note E_, 4
	octave 3
	note D_, 4
	octave 2
	note D_, 2
	octave 3
	note C_, 2
	rest 2
	octave 2
	note D_, 2
	octave 3
	note C_, 2
	rest 2
	octave 2
	note E_, 4
	octave 3
	note D_, 4
	octave 2
	note F_, 2
	octave 3
	note E_, 2
	rest 2
	octave 2
	note F_, 2
	octave 3
	note E_, 2
	rest 2
	octave 2
	note E_, 4
	octave 3
	note D_, 4
	octave 2
	note D_, 2
	octave 3
	note C_, 2
	rest 2
	octave 2
	note D_, 2
	octave 3
	note C_, 2
	rest 2
	octave 2
	note E_, 4
	octave 3
	note D_, 4
	octave 2
	note F_, 2
	octave 3
	note E_, 2
	rest 2
	octave 2
	note F_, 2
	octave 3
	note E_, 2
	rest 2
	octave 2
	note E_, 4
	octave 3
	note D_, 4
	octave 1
	note A#, 2
	octave 2
	note A_, 2
	rest 2
	octave 1
	note A#, 2
	octave 2
	note A_, 2
	rest 2
	octave 1
	note F_, 4
	octave 2
	note F_, 4
	octave 1
	note A#, 2
	octave 2
	note A_, 2
	rest 2
	octave 1
	note A#, 2
	octave 2
	note A_, 2
	rest 2
	octave 1
	note A_, 4
	octave 2
	note A_, 4
	note D_, 2
	octave 3
	note C_, 2
	rest 2
	octave 2
	note D_, 2
	octave 3
	note C_, 2
	rest 2
	octave 2
	note E_, 4
	octave 3
	note D_, 4
	octave 2
	note F_, 2
	octave 3
	note E_, 2
	rest 2
	octave 2
	note F_, 2
	octave 3
	note E_, 2
	rest 2
	octave 2
	note E_, 4
	octave 3
	note D_, 4
	octave 2
	note D_, 2
	octave 3
	note C_, 2
	rest 2
	octave 2
	note D_, 2
	octave 3
	note C_, 2
	rest 2
	octave 2
	note E_, 4
	octave 3
	note D_, 4
	octave 2
	note F_, 2
	octave 3
	note E_, 2
	rest 2
	octave 2
	note F_, 2
	octave 3
	note E_, 2
	rest 2
	octave 2
	note E_, 4
	octave 3
	note D_, 4
	octave 1
	note A#, 2
	octave 2
	note A_, 2
	rest 2
	octave 1
	note A#, 2
	octave 2
	note A_, 2
	rest 2
	octave 1
	note F_, 4
	octave 2
	note F_, 4
	octave 1
	note A#, 2
	octave 2
	note A_, 2
	rest 2
	octave 1
	note A#, 2
	octave 2
	note A_, 2
	rest 2
	octave 1
	note A_, 4
	octave 2
	note A_, 4
	note A_, 2
	rest 4
	octave 3
	note D_, 2
	rest 12
	note E_, 4
	rest 2
	note E_, 5
	rest 1
	note F_, 4
	rest 10
	note F_, 16
	note F_, 2
	note E_, 4
	rest 2
	note E_, 2
	rest 6
	note D_, 6
	note D_, 6
	octave 2
	note B_, 6
	octave 1
	note A#, 6
	octave 2
	note A_, 2
	rest 16
	rest 2
	note A_, 4
	rest 2
	octave 1
	note F_, 6
	octave 2
	note F_, 4
	note F_, 2
	note C_, 4
	rest 16
	note F_, 6
	note A_, 2
	rest 2
	note F_, 2
	note F_, 1
	rest 15
	note A_, 4
	note A_, 6
	note G_, 4
	note G_, 6
	rest 2
	note A_, 8
	rest 2
	note A_, 4
	note F_, 1
	octave 3
	note D_, 15
	octave 4
	rest 2
	sound_loop 0, .mainloop

Music_Bridge_Ch4:
	toggle_noise 1
	drum_speed 12
	toggle_noise
	toggle_noise 9
.mainloop:
	drum_note 1, 2
	drum_note 1, 4
	drum_note 1, 2
	drum_note 1, 4
	drum_note 5, 4
	drum_note 5, 4
	drum_note 5, 2
	drum_note 5, 4
	drum_note 5, 2
	drum_note 5, 4
	drum_note 5, 4
	drum_note 1, 4
	drum_note 1, 2
	drum_note 1, 4
	drum_note 1, 2
	drum_note 1, 4
	drum_note 5, 4
	drum_note 5, 4
	drum_note 5, 2
	drum_note 5, 4
	drum_note 5, 2
	drum_note 5, 4
	drum_note 5, 4
	drum_note 1, 4
	drum_note 1, 2
	drum_note 1, 4
	drum_note 1, 2
	drum_note 1, 4
	drum_note 5, 4
	drum_note 5, 4
	drum_note 5, 2
	drum_note 5, 4
	drum_note 5, 2
	drum_note 5, 4
	drum_note 5, 4
	drum_note 1, 4
	drum_note 1, 2
	drum_note 1, 4
	drum_note 1, 2
	drum_note 1, 4
	drum_note 5, 4
	drum_note 5, 4
	drum_note 5, 2
	drum_note 5, 4
	drum_note 5, 2
	drum_note 5, 4
	drum_note 5, 4
	drum_note 3, 4
	drum_note 11, 2
	drum_note 10, 4
	drum_note 11, 2
	drum_note 10, 4
	drum_note 6, 4
	drum_note 6, 4
	drum_note 11, 2
	drum_note 10, 4
	drum_note 11, 2
	drum_note 10, 4
	drum_note 10, 4
	drum_note 10, 4
	drum_note 3, 2
	drum_note 1, 4
	drum_note 3, 2
	drum_note 1, 4
	drum_note 5, 4
	drum_note 3, 4
	drum_note 6, 2
	drum_note 5, 4
	drum_note 6, 2
	drum_note 5, 4
	drum_note 5, 4
	drum_note 3, 4
	drum_note 3, 2
	drum_note 1, 4
	drum_note 3, 2
	drum_note 1, 4
	drum_note 5, 4
	drum_note 3, 4
	drum_note 6, 2
	drum_note 5, 4
	drum_note 6, 2
	drum_note 5, 4
	drum_note 5, 4
	drum_note 3, 4
	drum_note 11, 2
	drum_note 10, 4
	drum_note 11, 2
	drum_note 10, 4
	drum_note 6, 4
	drum_note 6, 4
	drum_note 11, 2
	drum_note 10, 4
	drum_note 11, 2
	drum_note 10, 4
	drum_note 10, 4
	drum_note 10, 4
	drum_note 10, 6
	drum_note 3, 6
	drum_note 12, 8
	drum_note 5, 6
	drum_note 5, 6
	drum_note 6, 14
	drum_note 6, 16
	drum_note 6, 2
	drum_note 5, 6
	drum_note 5, 8
	drum_note 3, 6
	drum_note 3, 6
	drum_note 12, 6
	drum_note 11, 6
	drum_note 10, 2
	rest 16
	rest 2
	drum_note 10, 6
	drum_note 6, 6
	drum_note 6, 4
	drum_note 6, 2
	drum_note 1, 4
	rest 16
	drum_note 6, 6
	drum_note 10, 4
	drum_note 6, 2
	drum_note 6, 16
	drum_note 10, 4
	drum_note 10, 6
	drum_note 8, 4
	drum_note 8, 8
	drum_note 10, 10
	drum_note 10, 4
	drum_note 6, 1
	drum_note 3, 15
	rest 2
	sound_loop 0, .mainloop
