Music_Dojo:
	channel_count 4
	channel 1, Music_Dojo_Ch1
	channel 2, Music_Dojo_Ch2
	channel 3, Music_Dojo_Ch3
	channel 4, Music_Dojo_Ch4

Music_Dojo_Ch1:
	volume 7, 7
	duty_cycle 2
	note_type 12, 10, 7
.mainloop:
	tempo 125
	octave 3
	duty_cycle 1
	volume_envelope 7, 7
	note A_, 2
	octave 4
	note C_, 2
	octave 3
	note A_, 2
	note G_, 2
	note E_, 2
	note G_, 2
	note A_, 4
	note A_, 2
	octave 4
	note C_, 2
	octave 3
	note A_, 2
	note G_, 2
	note E_, 2
	note G_, 2
	note A_, 4
	note A_, 2
	octave 4
	note C_, 2
	octave 3
	note A_, 2
	note G_, 2
	note E_, 2
	note G_, 2
	note A_, 2
	note A_, 1
	octave 4
	note C_, 1
	octave 3
	note A_, 2
	octave 4
	note C_, 2
	octave 3
	note A_, 2
	note G_, 2
	note E_, 2
	note G_, 2
	note A_, 4
	tempo 115
	note A_, 2
	octave 4
	note C_, 2
	octave 3
	note A_, 2
	note G_, 2
	note E_, 2
	note G_, 2
	note A_, 4
	note A_, 2
	octave 4
	note C_, 2
	octave 3
	note A_, 2
	note G_, 2
	note E_, 2
	note G_, 2
	note A_, 4
	note A_, 2
	octave 4
	note C_, 2
	octave 3
	note A_, 2
	note G_, 2
	note E_, 2
	note G_, 2
	note A_, 2
	note A_, 1
	octave 4
	note C_, 1
	octave 3
	note A_, 2
	note A_, 1
	note E_, 1
	note G_, 2
	note G_, 1
	note E_, 1
	note D_, 1
	note E_, 1
	note D_, 1
	note C_, 1
	octave 2
	note A_, 4
	tempo 105
	octave 3
	note A_, 2
	octave 4
	note C_, 2
	octave 3
	note A_, 2
	note G_, 2
	note E_, 2
	note G_, 2
	note A_, 4
	note A_, 2
	octave 4
	note C_, 2
	octave 3
	note A_, 2
	note G_, 2
	note E_, 2
	note G_, 2
	note A_, 4
	note A_, 2
	octave 4
	note C_, 2
	octave 3
	note A_, 2
	note G_, 2
	note E_, 2
	note G_, 2
	note A_, 2
	note A_, 1
	octave 4
	note C_, 1
	octave 3
	note A_, 2
	note A_, 1
	note E_, 1
	note G_, 2
	note G_, 1
	note E_, 1
	note D_, 1
	note E_, 1
	note D_, 1
	note C_, 1
	octave 2
	note A_, 4
	tempo 95
	octave 3
	note A_, 2
	note E_, 2
	note A_, 2
	note E_, 2
	note B_, 2
	note E_, 2
	note B_, 4
	octave 4
	note C_, 2
	octave 3
	note E_, 2
	octave 4
	note C_, 2
	octave 3
	note E_, 2
	octave 4
	note C_, 2
	octave 3
	note B_, 2
	note A_, 4
	note F_, 2
	note C_, 2
	note F_, 2
	note C_, 2
	note G_, 2
	note C_, 2
	note G_, 4
	note G_, 2
	note D_, 2
	note G_, 2
	note B_, 2
	octave 4
	note D_, 2
	note C_, 2
	octave 3
	note B_, 4
	note A_, 2
	note E_, 2
	note A_, 2
	note E_, 2
	note B_, 2
	note E_, 2
	note B_, 4
	octave 4
	note C_, 2
	octave 3
	note E_, 2
	octave 4
	note C_, 2
	octave 3
	note E_, 2
	octave 4
	note C_, 2
	octave 3
	note B_, 2
	note A_, 4
	note F_, 2
	note C_, 2
	note F_, 2
	note C_, 2
	note G_, 2
	note C_, 2
	note G_, 4
	note G_, 2
	note D_, 2
	note G_, 2
	note B_, 2
	octave 4
	note D_, 2
	note C_, 2
	octave 3
	note B_, 4
	note A_, 2
	note E_, 2
	note A_, 2
	note E_, 2
	note B_, 2
	note E_, 2
	note B_, 4
	octave 4
	note C_, 2
	octave 3
	note E_, 2
	octave 4
	note C_, 2
	octave 3
	note E_, 2
	octave 4
	note C_, 2
	octave 3
	note B_, 2
	note A_, 4
	note F_, 2
	note C_, 2
	note F_, 2
	note C_, 2
	note G_, 2
	note C_, 2
	note G_, 4
	note G_, 2
	note D_, 2
	note G_, 2
	note B_, 2
	octave 4
	note D_, 2
	note C_, 2
	octave 3
	note B_, 4
	note A_, 2
	note E_, 2
	note A_, 2
	note E_, 2
	note B_, 2
	note E_, 2
	note B_, 4
	octave 4
	note C_, 2
	octave 3
	note E_, 2
	octave 4
	note C_, 2
	octave 3
	note E_, 2
	octave 4
	note C_, 2
	octave 3
	note B_, 2
	note A_, 4
	note F_, 2
	note C_, 2
	note F_, 2
	note C_, 2
	note G_, 2
	note C_, 2
	note G_, 4
	note G_, 2
	note D_, 2
	note G_, 2
	note B_, 2
	octave 4
	note D_, 2
	note C_, 2
	octave 3
	note B_, 4
	note A_, 2
	note E_, 2
	note A_, 2
	note E_, 2
	note B_, 2
	note E_, 2
	note B_, 4
	octave 4
	note C_, 2
	octave 3
	note E_, 2
	octave 4
	note C_, 2
	octave 3
	note E_, 2
	octave 4
	note C_, 2
	octave 3
	note B_, 2
	note A_, 4
	note F_, 2
	note C_, 2
	note F_, 2
	note C_, 2
	note G_, 2
	note C_, 2
	note G_, 4
	note G_, 2
	note D_, 2
	note G_, 2
	note B_, 2
	octave 4
	note D_, 2
	note C_, 2
	octave 3
	note B_, 4
	note A_, 2
	note E_, 2
	note A_, 2
	note E_, 2
	note B_, 2
	note E_, 2
	note B_, 4
	octave 4
	note C_, 2
	octave 3
	note E_, 2
	octave 4
	note C_, 2
	octave 3
	note E_, 2
	octave 4
	note C_, 2
	octave 3
	note B_, 2
	note A_, 4
	note F_, 2
	note C_, 2
	note F_, 2
	note C_, 2
	note G_, 2
	note C_, 2
	note G_, 4
	note G_, 2
	note D_, 2
	note G_, 2
	note B_, 2
	octave 4
	note D_, 2
	note C_, 2
	octave 3
	note B_, 4
	note A_, 2
	note E_, 2
	note A_, 2
	note E_, 2
	note B_, 2
	note E_, 2
	note B_, 4
	rest 2
	octave 4
	note C_, 2
	octave 3
	note B_, 2
	note A_, 2
	note E_, 2
	note C_, 2
	octave 2
	note B_, 2
	note A_, 2
	octave 3
	note F_, 2
	note C_, 2
	note F_, 2
	note C_, 2
	note G_, 2
	note C_, 2
	note G_, 4
	rest 2
	note G_, 2
	octave 2
	note G_, 2
	note B_, 2
	octave 3
	note D_, 2
	note G_, 2
	note A_, 2
	note B_, 2
	note A_, 2
	note E_, 2
	note A_, 2
	note E_, 2
	note B_, 2
	note E_, 2
	note B_, 4
	rest 2
	octave 4
	note C_, 2
	octave 3
	note B_, 2
	note A_, 2
	note E_, 2
	note C_, 2
	octave 2
	note B_, 2
	note A_, 2
	octave 3
	note F_, 2
	note C_, 2
	note F_, 2
	note C_, 2
	note G_, 2
	note C_, 2
	note G_, 2
	octave 2
	note G_, 2
	note B_, 2
	octave 3
	note D_, 2
	note G_, 2
	note B_, 2
	octave 4
	note D_, 2
	note G_, 4
	octave 2
	note G_, 2
	note B_, 2
	octave 3
	note D_, 2
	note G_, 2
	note B_, 2
	octave 4
	note D_, 2
	note G_, 4
	octave 2
	note G_, 2
	note B_, 2
	octave 3
	note D_, 2
	note G_, 2
	note B_, 2
	octave 4
	note D_, 2
	note G_, 3
	rest 16
	rest 16
	rest 7
	octave 3
	note A_, 2
	octave 4
	note C_, 2
	octave 3
	note A_, 2
	note G_, 2
	note E_, 2
	note D_, 2
	octave 2
	note A_, 4
	octave 3
	rest 8
	sound_loop 0, .mainloop

Music_Dojo_Ch2:
	duty_cycle 1
	note_type 12, 12, 7
.mainloop:
	octave 4
	volume_envelope 11, 7
	note A_, 2
	octave 5
	note C_, 2
	octave 4
	note A_, 2
	note G_, 2
	note E_, 2
	note G_, 2
	note A_, 4
	note A_, 2
	octave 5
	note C_, 2
	octave 4
	note A_, 2
	note G_, 2
	note E_, 2
	note G_, 2
	note A_, 4
	note A_, 2
	octave 5
	note C_, 2
	octave 4
	note A_, 2
	note G_, 2
	note E_, 2
	note G_, 2
	note A_, 2
	note A_, 1
	octave 5
	note C_, 1
	octave 4
	note A_, 2
	octave 5
	note C_, 2
	octave 4
	note A_, 2
	note G_, 2
	note E_, 2
	note G_, 2
	note A_, 4
	note A_, 2
	octave 5
	note C_, 2
	octave 4
	note A_, 2
	note G_, 2
	note E_, 2
	note G_, 2
	note A_, 4
	note A_, 2
	octave 5
	note C_, 2
	octave 4
	note A_, 2
	note G_, 2
	note E_, 2
	note G_, 2
	note A_, 4
	note A_, 2
	octave 5
	note C_, 2
	octave 4
	note A_, 2
	note G_, 2
	note E_, 2
	note G_, 2
	note A_, 2
	note A_, 1
	octave 5
	note C_, 1
	octave 4
	note A_, 2
	note A_, 1
	note E_, 1
	note G_, 2
	note G_, 1
	note E_, 1
	note D_, 1
	note E_, 1
	note D_, 1
	note C_, 1
	octave 3
	note A_, 4
	octave 4
	note A_, 2
	octave 5
	note C_, 2
	octave 4
	note A_, 2
	note G_, 2
	note E_, 2
	note G_, 2
	note A_, 4
	note A_, 2
	octave 5
	note C_, 2
	octave 4
	note A_, 2
	note G_, 2
	note E_, 2
	note G_, 2
	note A_, 4
	note A_, 2
	octave 5
	note C_, 2
	octave 4
	note A_, 2
	note G_, 2
	note E_, 2
	note G_, 2
	note A_, 2
	note A_, 1
	octave 5
	note C_, 1
	octave 4
	note A_, 2
	note A_, 1
	note E_, 1
	note G_, 2
	note G_, 1
	note E_, 1
	note D_, 1
	note E_, 1
	note D_, 1
	note C_, 1
	octave 3
	note A_, 4
	octave 4
	note A_, 2
	note E_, 2
	note A_, 2
	note E_, 2
	note B_, 2
	note E_, 2
	note B_, 4
	octave 5
	note C_, 2
	octave 4
	note E_, 2
	octave 5
	note C_, 2
	octave 4
	note E_, 2
	octave 5
	note C_, 2
	octave 4
	note B_, 2
	note A_, 4
	note F_, 2
	note C_, 2
	note F_, 2
	note C_, 2
	note G_, 2
	note C_, 2
	note G_, 4
	note G_, 2
	note D_, 2
	note G_, 2
	note B_, 2
	octave 5
	note D_, 2
	note C_, 2
	octave 4
	note B_, 4
	note A_, 2
	note E_, 2
	note A_, 2
	note E_, 2
	note B_, 2
	note E_, 2
	note B_, 4
	octave 5
	note C_, 2
	octave 4
	note E_, 2
	octave 5
	note C_, 2
	octave 4
	note E_, 2
	octave 5
	note C_, 2
	octave 4
	note B_, 2
	note A_, 4
	note F_, 2
	note C_, 2
	note F_, 2
	note C_, 2
	note G_, 2
	note C_, 2
	note G_, 4
	note G_, 2
	note D_, 2
	note G_, 2
	note B_, 2
	octave 5
	note D_, 2
	note C_, 2
	octave 4
	note B_, 4
	note A_, 2
	note E_, 2
	note A_, 2
	note E_, 2
	note B_, 2
	note E_, 2
	note B_, 4
	octave 5
	note C_, 2
	octave 4
	note E_, 2
	octave 5
	note C_, 2
	octave 4
	note E_, 2
	octave 5
	note C_, 2
	octave 4
	note B_, 2
	note A_, 4
	note F_, 2
	note C_, 2
	note F_, 2
	note C_, 2
	note G_, 2
	note C_, 2
	note G_, 4
	note G_, 2
	note D_, 2
	note G_, 2
	note B_, 2
	octave 5
	note D_, 2
	note C_, 2
	octave 4
	note B_, 4
	note A_, 2
	note E_, 2
	note A_, 2
	note E_, 2
	note B_, 2
	note E_, 2
	note B_, 4
	octave 5
	note C_, 2
	octave 4
	note E_, 2
	octave 5
	note C_, 2
	octave 4
	note E_, 2
	octave 5
	note C_, 2
	octave 4
	note B_, 2
	note A_, 4
	note F_, 2
	note C_, 2
	note F_, 2
	note C_, 2
	note G_, 2
	note C_, 2
	note G_, 4
	note G_, 2
	note D_, 2
	note G_, 2
	note B_, 2
	octave 5
	note D_, 2
	note C_, 2
	octave 4
	note B_, 4
	note A_, 2
	note E_, 2
	note A_, 2
	note E_, 2
	note B_, 2
	note E_, 2
	note B_, 4
	octave 5
	note C_, 2
	octave 4
	note E_, 2
	octave 5
	note C_, 2
	octave 4
	note E_, 2
	octave 5
	note C_, 2
	octave 4
	note B_, 2
	note A_, 4
	note F_, 2
	note C_, 2
	note F_, 2
	note C_, 2
	note G_, 2
	note C_, 2
	note G_, 4
	note G_, 2
	note D_, 2
	note G_, 2
	note B_, 2
	octave 5
	note D_, 2
	note C_, 2
	octave 4
	note B_, 4
	note A_, 2
	note E_, 2
	note A_, 2
	note E_, 2
	note B_, 2
	note E_, 2
	note B_, 4
	octave 5
	note C_, 2
	octave 4
	note E_, 2
	octave 5
	note C_, 2
	octave 4
	note E_, 2
	octave 5
	note C_, 2
	octave 4
	note B_, 2
	note A_, 4
	note F_, 2
	note C_, 2
	note F_, 2
	note C_, 2
	note G_, 2
	note C_, 2
	note G_, 4
	note G_, 2
	note D_, 2
	note G_, 2
	note B_, 2
	octave 5
	note D_, 2
	note C_, 2
	octave 4
	note B_, 4
	note A_, 2
	note E_, 2
	note A_, 2
	note E_, 2
	note B_, 2
	note E_, 2
	note B_, 4
	rest 2
	octave 5
	note C_, 2
	octave 4
	note B_, 2
	note A_, 2
	note E_, 2
	note C_, 2
	octave 3
	note B_, 2
	note A_, 2
	octave 4
	note F_, 2
	note C_, 2
	note F_, 2
	note C_, 2
	note G_, 2
	note C_, 2
	note G_, 4
	rest 2
	note G_, 2
	octave 3
	note G_, 2
	note B_, 2
	octave 4
	note D_, 2
	note G_, 2
	note A_, 2
	note B_, 2
	note A_, 2
	note E_, 2
	note A_, 2
	note E_, 2
	note B_, 2
	note E_, 2
	note B_, 4
	rest 2
	octave 5
	note C_, 2
	octave 4
	note B_, 2
	note A_, 2
	note E_, 2
	note C_, 2
	octave 3
	note B_, 2
	note A_, 2
	octave 4
	note F_, 2
	note C_, 2
	note F_, 2
	note C_, 2
	note G_, 2
	note C_, 2
	note G_, 2
	octave 3
	note G_, 2
	note B_, 2
	octave 4
	note D_, 2
	note G_, 2
	note B_, 2
	octave 5
	note D_, 2
	note G_, 4
	octave 3
	note G_, 2
	note B_, 2
	octave 4
	note D_, 2
	note G_, 2
	note B_, 2
	octave 5
	note D_, 2
	note G_, 4
	octave 3
	note G_, 2
	note B_, 2
	octave 4
	note D_, 2
	note G_, 2
	note B_, 2
	octave 5
	note D_, 2
	note G_, 3
	rest 16
	rest 16
	rest 7
	octave 4
	note A_, 2
	octave 5
	note C_, 2
	octave 4
	note A_, 2
	note G_, 2
	note E_, 2
	note D_, 2
	octave 3
	note A_, 4
	rest 8
	sound_loop 0, .mainloop

Music_Dojo_Ch3:
	note_type 12, 1, 0
	octave 3
.mainloop:
	volume_envelope 2, 0
	note E_, 16
	note D_, 16
	note C_, 16
	note D_, 16
	note E_, 16
	note D_, 16
	note C_, 16
	note D_, 16
	note E_, 16
	note D_, 16
	note C_, 16
	note D_, 16
	octave 4
	note C_, 4
	rest 2
	note C_, 4
	rest 2
	note C_, 4
	note C_, 4
	rest 2
	note C_, 4
	rest 2
	note C_, 4
	note C_, 4
	rest 2
	note C_, 4
	rest 2
	note C_, 4
	note D_, 4
	rest 2
	note D_, 4
	rest 2
	note D_, 4
	note C_, 4
	rest 2
	note C_, 4
	rest 2
	note C_, 4
	note C_, 4
	rest 2
	note C_, 4
	rest 2
	note C_, 4
	note C_, 4
	rest 2
	note C_, 4
	rest 2
	note C_, 4
	note D_, 4
	rest 2
	note D_, 4
	rest 2
	note D_, 4
	note C_, 4
	rest 2
	note C_, 4
	rest 2
	note C_, 4
	note C_, 4
	rest 2
	note C_, 4
	rest 2
	note C_, 4
	note C_, 4
	rest 2
	note C_, 4
	rest 2
	note C_, 4
	note D_, 4
	rest 2
	note D_, 4
	rest 2
	note D_, 4
	note C_, 4
	rest 2
	note C_, 4
	rest 2
	note C_, 4
	note C_, 4
	rest 2
	note C_, 4
	rest 2
	note C_, 4
	note C_, 4
	rest 2
	note C_, 4
	rest 2
	note C_, 4
	note D_, 4
	rest 2
	note D_, 4
	rest 2
	note D_, 4
	octave 3
	rest 16
	rest 16
	rest 16
	rest 16
	rest 16
	rest 16
	rest 16
	rest 16
	rest 16
	rest 16
	rest 16
	rest 16
	rest 16
	rest 16
	rest 16
	rest 16
	rest 16
	rest 16
	rest 16
	rest 16
	rest 16
	rest 12
	sound_loop 0, .mainloop

Music_Dojo_Ch4:
	toggle_noise 1
	drum_speed 12
.mainloop:
	rest 16
	rest 16
	rest 16
	rest 16
	toggle_noise
	toggle_noise 7
	drum_note 1, 4
	drum_note 1, 4
	drum_note 1, 4
	drum_note 1, 4
	drum_note 1, 4
	drum_note 1, 4
	drum_note 1, 4
	drum_note 1, 4
	drum_note 1, 2
	drum_note 1, 2
	drum_note 1, 2
	drum_note 1, 2
	drum_note 1, 2
	drum_note 1, 2
	drum_note 1, 2
	drum_note 1, 2
	drum_note 1, 2
	drum_note 1, 2
	drum_note 1, 2
	drum_note 1, 2
	drum_note 1, 2
	drum_note 1, 2
	drum_note 1, 2
	drum_note 1, 2
	drum_note 1, 16
	drum_note 1, 16
	drum_note 1, 4
	drum_note 1, 4
	drum_note 1, 4
	drum_note 1, 4
	drum_note 1, 3
	drum_note 1, 1
	drum_note 2, 4
	drum_note 1, 8
	drum_note 1, 2
	drum_note 7, 2
	drum_note 7, 2
	drum_note 1, 2
	drum_note 1, 4
	drum_note 7, 2
	drum_note 7, 2
	drum_note 1, 4
	drum_note 7, 2
	drum_note 1, 2
	drum_note 1, 4
	drum_note 7, 2
	drum_note 7, 2
	drum_note 1, 4
	drum_note 7, 2
	drum_note 1, 2
	drum_note 1, 4
	drum_note 7, 2
	drum_note 7, 2
	drum_note 1, 4
	drum_note 7, 2
	drum_note 1, 2
	drum_note 1, 2
	drum_note 7, 4
	drum_note 7, 2
	drum_note 1, 2
	drum_note 7, 2
	drum_note 7, 2
	drum_note 1, 2
	drum_note 1, 4
	drum_note 7, 2
	drum_note 7, 2
	drum_note 1, 4
	drum_note 7, 2
	drum_note 1, 2
	drum_note 1, 4
	drum_note 7, 2
	drum_note 7, 2
	drum_note 1, 4
	drum_note 7, 2
	drum_note 1, 2
	drum_note 1, 4
	drum_note 7, 2
	drum_note 7, 2
	drum_note 1, 4
	drum_note 7, 2
	drum_note 1, 2
	drum_note 1, 2
	drum_note 7, 4
	drum_note 7, 2
	drum_note 1, 2
	drum_note 7, 2
	drum_note 7, 2
	drum_note 1, 2
	drum_note 1, 4
	drum_note 7, 2
	drum_note 7, 2
	drum_note 1, 4
	drum_note 7, 2
	drum_note 1, 2
	drum_note 1, 4
	drum_note 7, 2
	drum_note 7, 2
	drum_note 1, 4
	drum_note 7, 2
	drum_note 1, 2
	drum_note 1, 4
	drum_note 7, 2
	drum_note 7, 2
	drum_note 1, 4
	drum_note 7, 2
	drum_note 1, 2
	drum_note 1, 2
	drum_note 7, 4
	drum_note 7, 2
	drum_note 1, 2
	drum_note 7, 2
	drum_note 7, 2
	drum_note 1, 2
	drum_note 1, 4
	drum_note 7, 2
	drum_note 7, 2
	drum_note 1, 4
	drum_note 7, 2
	drum_note 1, 2
	drum_note 1, 4
	drum_note 7, 2
	drum_note 7, 2
	drum_note 1, 4
	drum_note 7, 2
	drum_note 1, 2
	drum_note 1, 4
	drum_note 7, 2
	drum_note 7, 2
	drum_note 1, 4
	drum_note 7, 2
	drum_note 1, 2
	drum_note 1, 2
	drum_note 7, 4
	drum_note 7, 2
	drum_note 1, 2
	drum_note 7, 2
	drum_note 7, 2
	drum_note 1, 2
	drum_note 1, 4
	drum_note 7, 2
	drum_note 7, 2
	drum_note 1, 4
	drum_note 7, 2
	drum_note 1, 2
	drum_note 1, 4
	drum_note 7, 2
	drum_note 7, 2
	drum_note 1, 4
	drum_note 7, 2
	drum_note 1, 2
	drum_note 1, 4
	drum_note 7, 2
	drum_note 7, 2
	drum_note 1, 4
	drum_note 7, 2
	drum_note 1, 2
	drum_note 1, 2
	drum_note 7, 4
	drum_note 7, 2
	drum_note 1, 2
	drum_note 7, 2
	drum_note 7, 2
	drum_note 1, 2
	drum_note 1, 4
	drum_note 7, 2
	drum_note 7, 2
	drum_note 1, 4
	drum_note 7, 2
	drum_note 1, 2
	drum_note 1, 4
	drum_note 7, 2
	drum_note 7, 2
	drum_note 1, 4
	drum_note 7, 2
	drum_note 1, 2
	drum_note 1, 4
	drum_note 7, 2
	drum_note 7, 2
	drum_note 1, 4
	drum_note 7, 2
	drum_note 1, 2
	drum_note 1, 2
	drum_note 7, 4
	drum_note 7, 2
	drum_note 1, 8
	drum_note 1, 8
	drum_note 1, 8
	drum_note 1, 8
	drum_note 1, 8
	drum_note 1, 8
	drum_note 1, 8
	drum_note 1, 8
	drum_note 1, 4
	drum_note 1, 4
	drum_note 1, 4
	drum_note 1, 4
	drum_note 1, 4
	drum_note 1, 4
	drum_note 1, 4
	drum_note 1, 4
	drum_note 1, 4
	drum_note 1, 4
	drum_note 1, 4
	drum_note 1, 4
	drum_note 1, 2
	drum_note 1, 2
	drum_note 1, 2
	drum_note 1, 2
	drum_note 1, 2
	drum_note 1, 2
	drum_note 1, 2
	drum_note 1, 2
	drum_note 1, 2
	drum_note 1, 2
	drum_note 1, 2
	drum_note 1, 2
	drum_note 1, 2
	drum_note 1, 2
	drum_note 1, 2
	drum_note 1, 2
	drum_note 1, 2
	drum_note 1, 2
	drum_note 1, 2
	drum_note 1, 2
	drum_note 1, 2
	drum_note 1, 2
	drum_note 1, 2
	drum_note 1, 2
	drum_note 1, 2
	drum_note 1, 2
	drum_note 1, 2
	drum_note 1, 2
	drum_note 1, 2
	drum_note 1, 2
	drum_note 1, 2
	drum_note 1, 2
	rest 16
	rest 4
	drum_note 1, 2
	drum_note 1, 2
	drum_note 1, 2
	drum_note 1, 2
	drum_note 1, 2
	drum_note 1, 2
	drum_note 1, 4
	rest 8
	sound_loop 0, .mainloop
