Music_Jason:
	channel_count 3
	channel 1, Music_Jason_Ch1
	channel 2, Music_Jason_Ch2
	channel 3, Music_Jason_Ch3

Music_Jason_Ch1:
	tempo 152
	volume 7, 7
	duty_cycle 1
	toggle_perfect_pitch
	vibrato 0, 8, 8
	note_type 12, 8, 7
	rest 16
	rest 16
	rest 16
	rest 16
	note_type 12, 10, 7
Music_Jason_branch_bb6b:
	octave 2
	duty_cycle 1
	tempo 156
	volume_envelope 4, 6
	note F#, 2
	octave 1
	note B_, 2
	octave 2
	note D_, 2
	note F#, 2
	octave 1
	note B_, 2
	octave 2
	note D_, 2
	note E_, 2
	octave 1
	note A#, 2
	octave 2
	note C#, 2
	note E_, 2
	octave 1
	note A#, 2
	octave 2
	note C#, 2
	note F#, 2
	octave 1
	note B_, 2
	octave 2
	note D_, 2
	note F#, 2
	octave 1
	note B_, 2
	octave 2
	note D_, 2
	note E_, 2
	octave 1
	note A#, 2
	octave 2
	note C#, 2
	note E_, 2
	octave 1
	note A#, 2
	octave 2
	note C#, 2
	note E_, 2
	octave 1
	note A_, 2
	octave 2
	note C#, 2
	note E_, 2
	octave 1
	note A_, 2
	octave 2
	note C#, 2
	note D#, 2
	octave 1
	note A_, 2
	octave 2
	note C_, 2
	note D#, 2
	octave 1
	note A_, 2
	octave 2
	note C_, 2
	note D#, 2
	octave 1
	note G#, 2
	octave 2
	note C_, 2
	note D#, 2
	octave 1
	note G#, 2
	octave 2
	note C_, 2
	note C#, 2
	octave 1
	note G_, 2
	octave 2
	note C_, 2
	note C#, 2
	octave 1
	note G_, 2
	octave 2
	note C_, 2
	note F#, 2
	octave 1
	note B_, 2
	octave 2
	note D_, 2
	note F#, 2
	octave 1
	note B_, 2
	octave 2
	note D_, 2
	note E_, 2
	octave 1
	note A#, 2
	octave 2
	note C#, 2
	note E_, 2
	octave 1
	note A#, 2
	octave 2
	note C#, 2
	note F#, 2
	octave 1
	note B_, 2
	octave 2
	note D_, 2
	note F#, 2
	octave 1
	note B_, 2
	octave 2
	note D_, 2
	note E_, 2
	octave 1
	note A#, 2
	octave 2
	note C#, 2
	note E_, 2
	octave 1
	note A#, 2
	octave 2
	note C#, 2
	note E_, 2
	octave 1
	note A_, 2
	octave 2
	note C#, 2
	note E_, 2
	octave 1
	note A_, 2
	octave 2
	note C#, 2
	note D#, 2
	octave 1
	note A_, 2
	octave 2
	note C_, 2
	note D#, 2
	octave 1
	note A_, 2
	octave 2
	note C_, 2
	note D#, 2
	octave 1
	note G#, 2
	octave 2
	note C_, 2
	note D#, 2
	octave 1
	note G#, 2
	octave 2
	note C_, 2
	note C#, 2
	octave 1
	note G_, 2
	octave 2
	note C_, 2
	note C#, 2
	octave 1
	note G_, 2
	octave 2
	note C_, 2
	octave 1
	note A#, 2
	note G_, 2
	note A_, 2
	note A#, 2
	note G_, 2
	note A_, 2
	note A#, 2
	note G_, 2
	note A_, 2
	note A#, 2
	note G_, 2
	note A_, 2
	note A#, 2
	note G_, 2
	note A_, 2
	note A#, 2
	note G_, 2
	note A_, 2
	note A#, 2
	note G_, 2
	note A_, 2
	note A#, 2
	note G_, 2
	note A_, 2
	octave 2
	note G_, 2
	octave 1
	note G#, 2
	octave 2
	note C_, 2
	note F_, 2
	octave 1
	note G#, 2
	octave 2
	note C_, 2
	note F_, 2
	octave 1
	note G_, 2
	note A#, 2
	octave 2
	note D#, 2
	octave 1
	note G_, 2
	note A#, 2
	octave 2
	note D#, 2
	octave 1
	note F_, 2
	note G#, 2
	octave 2
	note D_, 2
	octave 1
	note F_, 2
	note G#, 2
	octave 2
	note D_, 2
	octave 1
	note D#, 2
	note G_, 2
	octave 2
	note C_, 2
	octave 1
	note D#, 2
	note G_, 2
	octave 2
	note G_, 2
	octave 1
	note G#, 2
	octave 2
	note C_, 2
	note F_, 2
	octave 1
	note G#, 2
	octave 2
	note C_, 2
	note F_, 2
	octave 1
	note G_, 2
	note A#, 2
	octave 2
	note D#, 2
	octave 1
	note G_, 2
	note A#, 2
	octave 2
	note D#, 2
	octave 1
	note F_, 2
	note G#, 2
	octave 2
	note D_, 2
	octave 1
	note F_, 2
	note G#, 2
	octave 2
	note D_, 2
	octave 1
	note D#, 2
	note G_, 2
	octave 2
	note C_, 2
	octave 1
	note D#, 2
	note G_, 2
	octave 2
	note F#, 2
	octave 1
	note B_, 2
	octave 2
	note D_, 2
	note F#, 2
	octave 1
	note B_, 2
	octave 2
	note D_, 2
	note E_, 2
	octave 1
	note A#, 2
	octave 2
	note C#, 2
	note E_, 2
	octave 1
	note A#, 2
	octave 2
	note C#, 2
	note F#, 2
	octave 1
	note B_, 2
	octave 2
	note D_, 2
	note F#, 2
	octave 1
	note B_, 2
	octave 2
	note D_, 2
	note E_, 2
	octave 1
	note A#, 2
	octave 2
	note C#, 2
	note E_, 2
	octave 1
	note A#, 2
	octave 2
	note C#, 2
	note E_, 2
	octave 1
	note A_, 2
	octave 2
	note C#, 2
	note E_, 2
	octave 1
	note A_, 2
	octave 2
	note C#, 2
	note D#, 2
	octave 1
	note A_, 2
	octave 2
	note C_, 2
	note D#, 2
	octave 1
	note A_, 2
	octave 2
	note C_, 2
	note D#, 2
	octave 1
	note G#, 2
	octave 2
	note C_, 2
	note D#, 2
	octave 1
	note G#, 2
	octave 2
	note C_, 2
	note C#, 2
	octave 1
	note G_, 2
	octave 2
	note C_, 2
	note C#, 2
	octave 1
	note G_, 2
	octave 2
	note C_, 2
	note F#, 2
	octave 1
	note B_, 2
	octave 2
	note D_, 2
	note F#, 2
	octave 1
	note B_, 2
	octave 2
	note D_, 2
	note E_, 2
	octave 1
	note A#, 2
	octave 2
	note C#, 2
	note E_, 2
	octave 1
	note A#, 2
	octave 2
	note C#, 2
	note F#, 2
	octave 1
	note B_, 2
	octave 2
	note D_, 2
	note F#, 2
	octave 1
	note B_, 2
	octave 2
	note D_, 2
	note E_, 2
	octave 1
	note A#, 2
	octave 2
	note C#, 2
	note E_, 2
	octave 1
	note A#, 2
	octave 2
	note C#, 2
	note E_, 2
	octave 1
	note A_, 2
	octave 2
	note C#, 2
	note E_, 2
	octave 1
	note A_, 2
	octave 2
	note C#, 2
	note D#, 2
	octave 1
	note A_, 2
	octave 2
	note C_, 2
	note D#, 2
	octave 1
	note A_, 2
	octave 2
	note C_, 2
	note D#, 2
	octave 1
	note G#, 2
	octave 2
	note C_, 2
	note D#, 2
	octave 1
	note G#, 2
	octave 2
	note C_, 2
	note C#, 2
	octave 1
	note G_, 2
	octave 2
	note C_, 2
	note C#, 2
	octave 1
	note G_, 2
	octave 2
	note C_, 2
	octave 1
	note A#, 2
	note G_, 2
	note A_, 2
	note A#, 2
	note G_, 2
	note A_, 2
	note A#, 2
	note G_, 2
	note A_, 2
	note A#, 2
	note G_, 2
	note A_, 2
	note A#, 2
	note G_, 2
	note A_, 2
	note A#, 2
	note G_, 2
	note A_, 2
	note A#, 2
	note G_, 2
	note A_, 2
	note A#, 2
	note G_, 2
	note A_, 2
	octave 2
	note G_, 2
	octave 1
	note G#, 2
	octave 2
	note C_, 2
	note F_, 2
	octave 1
	note G#, 2
	octave 2
	note C_, 2
	note F_, 2
	octave 1
	note G_, 2
	note A#, 2
	octave 2
	note D#, 2
	octave 1
	note G_, 2
	note A#, 2
	octave 2
	note D#, 2
	octave 1
	note F_, 2
	note G#, 2
	octave 2
	note D_, 2
	octave 1
	note F_, 2
	note G#, 2
	octave 2
	note D_, 2
	octave 1
	note D#, 2
	note G_, 2
	octave 2
	note C_, 2
	octave 1
	note D#, 2
	note G_, 2
	octave 2
	note G_, 2
	octave 1
	note G#, 2
	octave 2
	note C_, 2
	note F_, 2
	octave 1
	note G#, 2
	octave 2
	note C_, 2
	note F_, 2
	octave 1
	note G_, 2
	note A#, 2
	octave 2
	note D#, 2
	octave 1
	note G_, 2
	note A#, 2
	octave 2
	note D#, 2
	octave 1
	note F_, 2
	note G#, 2
	octave 2
	note D_, 2
	octave 1
	note F_, 2
	note G#, 2
	octave 2
	note D_, 2
	octave 1
	note D#, 2
	note G_, 2
	octave 2
	note C_, 2
	octave 1
	note D#, 2
	note G_, 2
	octave 3
	sound_loop 0, Music_Jason_branch_bb6b

Music_Jason_Ch2:
	vibrato 0, 3, 4
	duty_cycle 3
	note_type 12, 9, 1
	octave 5
	note C_, 4
	note G_, 4
	note B_, 4
	note F#, 4
	note C_, 4
	note G_, 4
	note B_, 4
	note F#, 4
	note C_, 4
	note G_, 4
	note B_, 4
	note F#, 4
	note C_, 4
	note G_, 4
	note B_, 4
	note F#, 4
Music_Jason_branch_bba5:
	volume_envelope 11, 1
	note F#, 2
	note B_, 2
	octave 5
	note D_, 2
	note F#, 2
	octave 4
	note B_, 2
	octave 5
	note D_, 2
	note E_, 2
	octave 4
	note A#, 2
	octave 5
	note C#, 2
	note E_, 2
	octave 4
	note A#, 2
	octave 5
	note C#, 2
	note F#, 2
	octave 4
	note B_, 2
	octave 5
	note D_, 2
	note F#, 2
	octave 4
	note B_, 2
	octave 5
	note D_, 2
	note E_, 2
	octave 4
	note A#, 2
	octave 5
	note C#, 2
	note E_, 2
	octave 4
	note A#, 2
	octave 5
	note C#, 2
	note E_, 2
	octave 4
	note A_, 2
	octave 5
	note C#, 2
	note E_, 2
	octave 4
	note A_, 2
	octave 5
	note C#, 2
	note D#, 2
	octave 4
	note A_, 2
	octave 5
	note C_, 2
	note D#, 2
	octave 4
	note A_, 2
	octave 5
	note C_, 2
	note D#, 2
	octave 4
	note G#, 2
	octave 5
	note C_, 2
	note D#, 2
	octave 4
	note G#, 2
	octave 5
	note C_, 2
	note C#, 2
	octave 4
	note G_, 2
	octave 5
	note C_, 2
	note C#, 2
	octave 4
	note G_, 2
	octave 5
	note C_, 2
	note F#, 2
	octave 4
	note B_, 2
	octave 5
	note D_, 2
	note F#, 2
	octave 4
	note B_, 2
	octave 5
	note D_, 2
	note E_, 2
	octave 4
	note A#, 2
	octave 5
	note C#, 2
	note E_, 2
	octave 4
	note A#, 2
	octave 5
	note C#, 2
	note F#, 2
	octave 4
	note B_, 2
	octave 5
	note D_, 2
	note F#, 2
	octave 4
	note B_, 2
	octave 5
	note D_, 2
	note E_, 2
	octave 4
	note A#, 2
	octave 5
	note C#, 2
	note E_, 2
	octave 4
	note A#, 2
	octave 5
	note C#, 2
	note E_, 2
	octave 4
	note A_, 2
	octave 5
	note C#, 2
	note E_, 2
	octave 4
	note A_, 2
	octave 5
	note C#, 2
	note D#, 2
	octave 4
	note A_, 2
	octave 5
	note C_, 2
	note D#, 2
	octave 4
	note A_, 2
	octave 5
	note C_, 2
	note D#, 2
	octave 4
	note G#, 2
	octave 5
	note C_, 2
	note D#, 2
	octave 4
	note G#, 2
	octave 5
	note C_, 2
	note C#, 2
	octave 4
	note G_, 2
	octave 5
	note C_, 2
	note C#, 2
	octave 4
	note G_, 2
	octave 5
	note C_, 2
	octave 4
	note A#, 2
	note G_, 2
	note A_, 2
	note A#, 2
	note G_, 2
	note A_, 2
	note A#, 2
	note G_, 2
	note A_, 2
	note A#, 2
	note G_, 2
	note A_, 2
	note A#, 2
	note G_, 2
	note A_, 2
	note A#, 2
	note G_, 2
	note A_, 2
	note A#, 2
	note G_, 2
	note A_, 2
	note A#, 2
	note G_, 2
	note A_, 2
	octave 5
	note G_, 2
	octave 4
	note G#, 2
	octave 5
	note C_, 2
	note F_, 2
	octave 4
	note G#, 2
	octave 5
	note C_, 2
	note F_, 2
	octave 4
	note G_, 2
	note A#, 2
	octave 5
	note D#, 2
	octave 4
	note G_, 2
	note A#, 2
	octave 5
	note D#, 2
	octave 4
	note F_, 2
	note G#, 2
	octave 5
	note D_, 2
	octave 4
	note F_, 2
	note G#, 2
	octave 5
	note D_, 2
	octave 4
	note D#, 2
	note G_, 2
	octave 5
	note C_, 2
	octave 4
	note D#, 2
	note G_, 2
	octave 5
	note G_, 2
	octave 4
	note G#, 2
	octave 5
	note C_, 2
	note F_, 2
	octave 4
	note G#, 2
	octave 5
	note C_, 2
	note F_, 2
	octave 4
	note G_, 2
	note A#, 2
	octave 5
	note D#, 2
	octave 4
	note G_, 2
	note A#, 2
	octave 5
	note D#, 2
	octave 4
	note F_, 2
	note G#, 2
	octave 5
	note D_, 2
	octave 4
	note F_, 2
	note G#, 2
	octave 5
	note D_, 2
	octave 4
	note D#, 2
	note G_, 2
	octave 5
	note C_, 2
	octave 4
	note D#, 2
	note G_, 2
	octave 5
	note F#, 2
	octave 4
	note B_, 2
	octave 5
	note D_, 2
	note F#, 2
	octave 4
	note B_, 2
	octave 5
	note D_, 2
	note E_, 2
	octave 4
	note A#, 2
	octave 5
	note C#, 2
	note E_, 2
	octave 4
	note A#, 2
	octave 5
	note C#, 2
	note F#, 2
	octave 4
	note B_, 2
	octave 5
	note D_, 2
	note F#, 2
	octave 4
	note B_, 2
	octave 5
	note D_, 2
	note E_, 2
	octave 4
	note A#, 2
	octave 5
	note C#, 2
	note E_, 2
	octave 4
	note A#, 2
	octave 5
	note C#, 2
	note E_, 2
	octave 4
	note A_, 2
	octave 5
	note C#, 2
	note E_, 2
	octave 4
	note A_, 2
	octave 5
	note C#, 2
	note D#, 2
	octave 4
	note A_, 2
	octave 5
	note C_, 2
	note D#, 2
	octave 4
	note A_, 2
	octave 5
	note C_, 2
	note D#, 2
	octave 4
	note G#, 2
	octave 5
	note C_, 2
	note D#, 2
	octave 4
	note G#, 2
	octave 5
	note C_, 2
	note C#, 2
	octave 4
	note G_, 2
	octave 5
	note C_, 2
	note C#, 2
	octave 4
	note G_, 2
	octave 5
	note C_, 2
	note F#, 2
	octave 4
	note B_, 2
	octave 5
	note D_, 2
	note F#, 2
	octave 4
	note B_, 2
	octave 5
	note D_, 2
	note E_, 2
	octave 4
	note A#, 2
	octave 5
	note C#, 2
	note E_, 2
	octave 4
	note A#, 2
	octave 5
	note C#, 2
	note F#, 2
	octave 4
	note B_, 2
	octave 5
	note D_, 2
	note F#, 2
	octave 4
	note B_, 2
	octave 5
	note D_, 2
	note E_, 2
	octave 4
	note A#, 2
	octave 5
	note C#, 2
	note E_, 2
	octave 4
	note A#, 2
	octave 5
	note C#, 2
	note E_, 2
	octave 4
	note A_, 2
	octave 5
	note C#, 2
	note E_, 2
	octave 4
	note A_, 2
	octave 5
	note C#, 2
	note D#, 2
	octave 4
	note A_, 2
	octave 5
	note C_, 2
	note D#, 2
	octave 4
	note A_, 2
	octave 5
	note C_, 2
	note D#, 2
	octave 4
	note G#, 2
	octave 5
	note C_, 2
	note D#, 2
	octave 4
	note G#, 2
	octave 5
	note C_, 2
	note C#, 2
	octave 4
	note G_, 2
	octave 5
	note C_, 2
	note C#, 2
	octave 4
	note G_, 2
	octave 5
	note C_, 2
	octave 4
	note A#, 2
	note G_, 2
	note A_, 2
	note A#, 2
	note G_, 2
	note A_, 2
	note A#, 2
	note G_, 2
	note A_, 2
	note A#, 2
	note G_, 2
	note A_, 2
	note A#, 2
	note G_, 2
	note A_, 2
	note A#, 2
	note G_, 2
	note A_, 2
	note A#, 2
	note G_, 2
	note A_, 2
	note A#, 2
	note G_, 2
	note A_, 2
	octave 5
	note G_, 2
	octave 4
	note G#, 2
	octave 5
	note C_, 2
	note F_, 2
	octave 4
	note G#, 2
	octave 5
	note C_, 2
	note F_, 2
	octave 4
	note G_, 2
	note A#, 2
	octave 5
	note D#, 2
	octave 4
	note G_, 2
	note A#, 2
	octave 5
	note D#, 2
	octave 4
	note F_, 2
	note G#, 2
	octave 5
	note D_, 2
	octave 4
	note F_, 2
	note G#, 2
	octave 5
	note D_, 2
	octave 4
	note D#, 2
	note G_, 2
	octave 5
	note C_, 2
	octave 4
	note D#, 2
	note G_, 2
	octave 5
	note G_, 2
	octave 4
	note G#, 2
	octave 5
	note C_, 2
	note F_, 2
	octave 4
	note G#, 2
	octave 5
	note C_, 2
	note F_, 2
	octave 4
	note G_, 2
	note A#, 2
	octave 5
	note D#, 2
	octave 4
	note G_, 2
	note A#, 2
	octave 5
	note D#, 2
	octave 4
	note F_, 2
	note G#, 2
	octave 5
	note D_, 2
	octave 4
	note F_, 2
	note G#, 2
	octave 5
	note D_, 2
	octave 4
	note D#, 2
	note G_, 2
	octave 5
	note C_, 2
	octave 4
	note D#, 2
	note G_, 2
	octave 5
	sound_loop 0, Music_Jason_branch_bba5

Music_Jason_Ch3:
	vibrato 4, 1, 1
	note_type 12, 3, 15
	rest 16
	rest 16
	rest 16
	rest 16
	note_type 12, 2, 15
	load_wave 2, 1, 14, 2, 3, 3, 2, 8, 14, 1, 2, 2, 15, 15, 14, 10, 1, 0, 1, 4, 13, 12, 1, 0, 14, 3, 4, 1, 5, 1, 7, 3
Music_Jason_branch_bbb9:
	octave 4
	volume_envelope 3, 15
	vibrato 0, 1, 1
	note F#, 2
	octave 3
	note B_, 2
	octave 4
	note D_, 2
	note F#, 2
	octave 3
	note B_, 2
	octave 4
	note D_, 2
	note E_, 2
	octave 3
	note A#, 2
	octave 4
	note C#, 2
	note E_, 2
	octave 3
	note A#, 2
	octave 4
	note C#, 2
	note F#, 2
	octave 3
	note B_, 2
	octave 4
	note D_, 2
	note F#, 2
	octave 3
	note B_, 2
	octave 4
	note D_, 2
	note E_, 2
	octave 3
	note A#, 2
	octave 4
	note C#, 2
	note E_, 2
	octave 3
	note A#, 2
	octave 4
	note C#, 2
	note E_, 2
	octave 3
	note A_, 2
	octave 4
	note C#, 2
	note E_, 2
	octave 3
	note A_, 2
	octave 4
	note C#, 2
	note D#, 2
	octave 3
	note A_, 2
	octave 4
	note C_, 2
	note D#, 2
	octave 3
	note A_, 2
	octave 4
	note C_, 2
	note D#, 2
	octave 3
	note G#, 2
	octave 4
	note C_, 2
	note D#, 2
	octave 3
	note G#, 2
	octave 4
	note C_, 2
	note C#, 2
	octave 3
	note G_, 2
	octave 4
	note C_, 2
	note C#, 2
	octave 3
	note G_, 2
	octave 4
	note C_, 2
	note F#, 2
	octave 3
	note B_, 2
	octave 4
	note D_, 2
	note F#, 2
	octave 3
	note B_, 2
	octave 4
	note D_, 2
	note E_, 2
	octave 3
	note A#, 2
	octave 4
	note C#, 2
	note E_, 2
	octave 3
	note A#, 2
	octave 4
	note C#, 2
	note F#, 2
	octave 3
	note B_, 2
	octave 4
	note D_, 2
	note F#, 2
	octave 3
	note B_, 2
	octave 4
	note D_, 2
	note E_, 2
	octave 3
	note A#, 2
	octave 4
	note C#, 2
	note E_, 2
	octave 3
	note A#, 2
	octave 4
	note C#, 2
	note E_, 2
	octave 3
	note A_, 2
	octave 4
	note C#, 2
	note E_, 2
	octave 3
	note A_, 2
	octave 4
	note C#, 2
	note D#, 2
	octave 3
	note A_, 2
	octave 4
	note C_, 2
	note D#, 2
	octave 3
	note A_, 2
	octave 4
	note C_, 2
	note D#, 2
	octave 3
	note G#, 2
	octave 4
	note C_, 2
	note D#, 2
	octave 3
	note G#, 2
	octave 4
	note C_, 2
	note C#, 2
	octave 3
	note G_, 2
	octave 4
	note C_, 2
	note C#, 2
	octave 3
	note G_, 2
	octave 4
	note C_, 2
	octave 3
	note A#, 2
	note G_, 2
	note A_, 2
	note A#, 2
	note G_, 2
	note A_, 2
	note A#, 2
	note G_, 2
	note A_, 2
	note A#, 2
	note G_, 2
	note A_, 2
	note A#, 2
	note G_, 2
	note A_, 2
	note A#, 2
	note G_, 2
	note A_, 2
	note A#, 2
	note G_, 2
	note A_, 2
	note A#, 2
	note G_, 2
	note A_, 2
	octave 4
	note G_, 2
	octave 3
	note G#, 2
	octave 4
	note C_, 2
	note F_, 2
	octave 3
	note G#, 2
	octave 4
	note C_, 2
	note F_, 2
	octave 3
	note G_, 2
	note A#, 2
	octave 4
	note D#, 2
	octave 3
	note G_, 2
	note A#, 2
	octave 4
	note D#, 2
	octave 3
	note F_, 2
	note G#, 2
	octave 4
	note D_, 2
	octave 3
	note F_, 2
	note G#, 2
	octave 4
	note D_, 2
	octave 3
	note D#, 2
	note G_, 2
	octave 4
	note C_, 2
	octave 3
	note D#, 2
	note G_, 2
	octave 4
	note G_, 2
	octave 3
	note G#, 2
	octave 4
	note C_, 2
	note F_, 2
	octave 3
	note G#, 2
	octave 4
	note C_, 2
	note F_, 2
	octave 3
	note G_, 2
	note A#, 2
	octave 4
	note D#, 2
	octave 3
	note G_, 2
	note A#, 2
	octave 4
	note D#, 2
	octave 3
	note F_, 2
	note G#, 2
	octave 4
	note D_, 2
	octave 3
	note F_, 2
	note G#, 2
	octave 4
	note D_, 2
	octave 3
	note D#, 2
	note G_, 2
	octave 4
	note C_, 2
	octave 3
	note D#, 2
	note G_, 2
	octave 4
	note F#, 2
	octave 3
	note B_, 2
	octave 4
	note D_, 2
	note F#, 2
	octave 3
	note B_, 2
	octave 4
	note D_, 2
	note E_, 2
	octave 3
	note A#, 2
	octave 4
	note C#, 2
	note E_, 2
	octave 3
	note A#, 2
	octave 4
	note C#, 2
	note F#, 2
	octave 3
	note B_, 2
	octave 4
	note D_, 2
	note F#, 2
	octave 3
	note B_, 2
	octave 4
	note D_, 2
	note E_, 2
	octave 3
	note A#, 2
	octave 4
	note C#, 2
	note E_, 2
	octave 3
	note A#, 2
	octave 4
	note C#, 2
	note E_, 2
	octave 3
	note A_, 2
	octave 4
	note C#, 2
	note E_, 2
	octave 3
	note A_, 2
	octave 4
	note C#, 2
	note D#, 2
	octave 3
	note A_, 2
	octave 4
	note C_, 2
	note D#, 2
	octave 3
	note A_, 2
	octave 4
	note C_, 2
	note D#, 2
	octave 3
	note G#, 2
	octave 4
	note C_, 2
	note D#, 2
	octave 3
	note G#, 2
	octave 4
	note C_, 2
	note C#, 2
	octave 3
	note G_, 2
	octave 4
	note C_, 2
	note C#, 2
	octave 3
	note G_, 2
	octave 4
	note C_, 2
	note F#, 2
	octave 3
	note B_, 2
	octave 4
	note D_, 2
	note F#, 2
	octave 3
	note B_, 2
	octave 4
	note D_, 2
	note E_, 2
	octave 3
	note A#, 2
	octave 4
	note C#, 2
	note E_, 2
	octave 3
	note A#, 2
	octave 4
	note C#, 2
	note F#, 2
	octave 3
	note B_, 2
	octave 4
	note D_, 2
	note F#, 2
	octave 3
	note B_, 2
	octave 4
	note D_, 2
	note E_, 2
	octave 3
	note A#, 2
	octave 4
	note C#, 2
	note E_, 2
	octave 3
	note A#, 2
	octave 4
	note C#, 2
	note E_, 2
	octave 3
	note A_, 2
	octave 4
	note C#, 2
	note E_, 2
	octave 3
	note A_, 2
	octave 4
	note C#, 2
	note D#, 2
	octave 3
	note A_, 2
	octave 4
	note C_, 2
	note D#, 2
	octave 3
	note A_, 2
	octave 4
	note C_, 2
	note D#, 2
	octave 3
	note G#, 2
	octave 4
	note C_, 2
	note D#, 2
	octave 3
	note G#, 2
	octave 4
	note C_, 2
	note C#, 2
	octave 3
	note G_, 2
	octave 4
	note C_, 2
	note C#, 2
	octave 3
	note G_, 2
	octave 4
	note C_, 2
	octave 3
	note A#, 2
	note G_, 2
	note A_, 2
	note A#, 2
	note G_, 2
	note A_, 2
	note A#, 2
	note G_, 2
	note A_, 2
	note A#, 2
	note G_, 2
	note A_, 2
	note A#, 2
	note G_, 2
	note A_, 2
	note A#, 2
	note G_, 2
	note A_, 2
	note A#, 2
	note G_, 2
	note A_, 2
	note A#, 2
	note G_, 2
	note A_, 2
	octave 4
	note G_, 2
	octave 3
	note G#, 2
	octave 4
	note C_, 2
	note F_, 2
	octave 3
	note G#, 2
	octave 4
	note C_, 2
	note F_, 2
	octave 3
	note G_, 2
	note A#, 2
	octave 4
	note D#, 2
	octave 3
	note G_, 2
	note A#, 2
	octave 4
	note D#, 2
	octave 3
	note F_, 2
	note G#, 2
	octave 4
	note D_, 2
	octave 3
	note F_, 2
	note G#, 2
	octave 4
	note D_, 2
	octave 3
	note D#, 2
	note G_, 2
	octave 4
	note C_, 2
	octave 3
	note D#, 2
	note G_, 2
	octave 4
	note G_, 2
	octave 3
	note G#, 2
	octave 4
	note C_, 2
	note F_, 2
	octave 3
	note G#, 2
	octave 4
	note C_, 2
	note F_, 2
	octave 3
	note G_, 2
	note A#, 2
	octave 4
	note D#, 2
	octave 3
	note G_, 2
	note A#, 2
	octave 4
	note D#, 2
	octave 3
	note F_, 2
	note G#, 2
	octave 4
	note D_, 2
	octave 3
	note F_, 2
	note G#, 2
	octave 4
	note D_, 2
	octave 3
	note D#, 2
	note G_, 2
	octave 4
	note C_, 2
	octave 3
	note D#, 2
	note G_, 2
	sound_loop 0, Music_Jason_branch_bbb9
