Music_Placeholder:
	channel_count 4
	channel 1, Music_Placeholder_Ch1
	channel 2, Music_Placeholder_Ch2
	channel 3, Music_Placeholder_Ch3
	channel 4, Music_Placeholder_Ch4

Music_Placeholder_Ch1:
	volume 7, 7
	duty_cycle 2
	note_type 12, 10, 7
	tempo 138
	rest 16
	octave 1
	volume_envelope 8, 7
	note C#, 2
	note C#, 1
	note C#, 1
	note C#, 2
	note C#, 1
	note C#, 2
	note C#, 2
	note C#, 1
	note C#, 2
	note C#, 2
	note C#, 2
	note C#, 1
	note C#, 1
	note C#, 2
	note C#, 1
	note C#, 2
	note C#, 2
	note C#, 1
	note C#, 2
	note C#, 2
	note C#, 2
	note C#, 1
	note C#, 1
	note C#, 2
	note C#, 1
	note C#, 2
	note C#, 2
	note C#, 1
	note C#, 2
	note C#, 2
	note C#, 2
	note C#, 1
	note C#, 1
	note C#, 2
	note C#, 1
	note C#, 2
	note C#, 2
	note C#, 1
	note C#, 2
	note C#, 2
	note C#, 2
	note C#, 1
	note C#, 1
	note C#, 2
	note C#, 1
	note C#, 2
	note C#, 2
	note C#, 1
	note C#, 2
	note C#, 2
	note C#, 2
	note C#, 1
	note C#, 1
	note C#, 2
	note C#, 1
	note C#, 2
	note C#, 2
	note C#, 1
	note C#, 2
	note C#, 2
	note C#, 2
	note C#, 1
	note C#, 1
	note C#, 2
	note C#, 1
	note C#, 2
	note C#, 2
	note C#, 1
	note C#, 2
	note C#, 2
	note C#, 2
	note C#, 1
	note C#, 1
	note C#, 2
	note C#, 1
	note C#, 2
	note C#, 2
	note C#, 1
	note C#, 2
	note C#, 2
	octave 2
	duty_cycle 1
	note C#, 2
	note C#, 1
	note C#, 1
	note C#, 2
	note C#, 1
	note C#, 2
	note C#, 2
	note C#, 1
	note C#, 2
	note C#, 2
	note C#, 2
	note C#, 1
	note C#, 1
	note C#, 2
	note C#, 1
	note C#, 2
	note C#, 2
	note C#, 1
	note C#, 2
	note C#, 2
	note C#, 2
	note C#, 1
	note C#, 1
	note C#, 2
	note C#, 1
	note C#, 2
	note C#, 2
	note C#, 1
	note C#, 2
	note C#, 2
	note C#, 2
	note C#, 1
	note C#, 1
	note C#, 2
	note C#, 1
	note C#, 2
	note C#, 2
	note C#, 1
	note C#, 2
	note C#, 2
	note C#, 2
	note C#, 1
	note C#, 1
	note C#, 2
	note C#, 1
	note C#, 2
	note C#, 2
	note C#, 1
	note C#, 2
	note C#, 2
	note C#, 2
	note C#, 1
	note C#, 1
	note C#, 2
	note C#, 1
	note C#, 2
	note C#, 2
	note C#, 1
	note C#, 2
	note C#, 2
	note C#, 2
	note C#, 1
	note C#, 1
	note C#, 2
	note C#, 1
	note C#, 2
	note C#, 2
	note C#, 1
	note C#, 2
	note C#, 2
	note C#, 2
	note C#, 1
	note C#, 1
	note C#, 2
	note C#, 1
	note C#, 2
	note C#, 2
	note C#, 1
	note C#, 2
	note C#, 2
	duty_cycle 2
	note C#, 2
	octave 1
	note C#, 1
	note C#, 1
	note C#, 2
	note C#, 1
	note C#, 2
	note C#, 2
	note C#, 1
	note C#, 2
	note C#, 2
	note C#, 2
	note C#, 1
	note C#, 1
	note C#, 2
	note C#, 1
	note C#, 2
	note C#, 2
	note C#, 1
	note C#, 2
	note C#, 2
	note C#, 2
	note C#, 1
	note C#, 1
	note C#, 2
	note C#, 1
	note C#, 2
	note C#, 2
	note C#, 1
	note C#, 2
	note C#, 2
	note C#, 2
	note C#, 1
	note C#, 1
	note C#, 2
	note C#, 1
	note C#, 2
	note C#, 2
	note C#, 1
	note C#, 2
	note C#, 2
	note C#, 2
	note C#, 1
	note C#, 1
	note C#, 2
	note C#, 1
	note C#, 2
	note C#, 2
	note C#, 1
	note C#, 2
	note C#, 2
	note C#, 2
	note C#, 1
	note C#, 1
	note C#, 2
	note C#, 1
	note C#, 2
	note C#, 2
	note C#, 1
	note C#, 2
	note C#, 2
	note C#, 2
	note C#, 1
	note C#, 1
	note C#, 2
	note C#, 1
	note C#, 2
	note C#, 2
	note C#, 1
	note C#, 2
	note C#, 2
	note C#, 2
	note C#, 1
	note C#, 1
	note C#, 2
	note C#, 1
	note C#, 2
	note C#, 2
	note C#, 1
	note C#, 2
	note C#, 2
	note C#, 2
	note C#, 1
	note C#, 1
	note C#, 2
	note C#, 1
	note C#, 2
	note C#, 2
	note C#, 1
	note C#, 2
	note C#, 2
	note C#, 2
	note C#, 1
	note C#, 1
	note C#, 2
	note C#, 1
	note C#, 2
	note C#, 2
	note C#, 1
	note C#, 2
	note C#, 2
	note C#, 2
	note C#, 1
	note C#, 1
	note C#, 2
	note C#, 1
	note C#, 2
	note C#, 2
	note C#, 1
	note C#, 2
	note C#, 2
	note C#, 2
	note C#, 1
	note C#, 1
	note C#, 2
	note C#, 1
	note C#, 2
	note C#, 2
	note C#, 1
	note C#, 2
	note C#, 2
	note C#, 2
	note C#, 1
	note C#, 1
	note C#, 2
	note C#, 1
	note C#, 2
	note C#, 2
	note C#, 1
	note C#, 2
	note C#, 2
	note C#, 2
	note C#, 1
	note C#, 1
	note C#, 2
	note C#, 1
	note C#, 2
	note C#, 2
	note C#, 1
	note C#, 2
	note C#, 2
	note C#, 2
	note C#, 1
	note C#, 1
	note C#, 2
	note C#, 1
	note C#, 2
	note C#, 2
	note C#, 1
	note C#, 2
	note C#, 2
	note C#, 2
	note C#, 1
	note C#, 1
	note C#, 2
	note C#, 1
	note C#, 2
	note C#, 2
	note C#, 1
	note C#, 2
	note C#, 2
	note C#, 2
	note C#, 1
	note C#, 1
	note C#, 2
	note C#, 1
	note C#, 2
	note C#, 2
	note C#, 1
	note C#, 2
	note C#, 2
	note C#, 2
	note C#, 1
	note C#, 1
	note C#, 2
	note C#, 1
	note C#, 2
	note C#, 2
	note C#, 1
	note C#, 2
	note C#, 2
	note C#, 2
	note C#, 1
	note C#, 1
	note C#, 2
	note C#, 1
	note C#, 2
	note C#, 2
	note C#, 1
	note C#, 2
	note C#, 2
	note C#, 2
	note C#, 1
	note C#, 1
	note C#, 2
	note C#, 1
	note C#, 2
	note C#, 2
	note C#, 1
	note C#, 2
	note C#, 2
	note C#, 2
	note C#, 1
	note C#, 1
	note C#, 2
	note C#, 1
	note C#, 2
	note C#, 2
	note C#, 1
	note C#, 2
	note C#, 2
	note C#, 2
	note C#, 1
	note C#, 1
	note C#, 2
	note C#, 1
	note C#, 2
	note C#, 2
	note C#, 1
	note C#, 2
	note C#, 2
	note C#, 2
	note C#, 1
	note C#, 1
	note C#, 2
	note C#, 1
	note C#, 2
	note C#, 2
	note C#, 1
	note C#, 2
	note C#, 2
	note C#, 2
	note C#, 1
	note C#, 1
	note C#, 2
	note C#, 1
	note C#, 2
	note C#, 2
	note C#, 1
	note C#, 2
	note C#, 2
	note C#, 2
	note C#, 1
	note C#, 1
	note C#, 2
	note C#, 1
	note C#, 2
	note C#, 2
	note C#, 1
	note C#, 2
	note C#, 2
	note C#, 2
	note C#, 1
	note C#, 1
	note C#, 2
	note C#, 1
	note C#, 2
	note C#, 2
	note C#, 1
	note C#, 2
	note C#, 2
	note C#, 2
	note C#, 1
	note C#, 1
	note C#, 2
	note C#, 1
	note C#, 2
	note C#, 2
	note C#, 1
	note C#, 2
	note C#, 2
	note C#, 2
	note C#, 1
	note C#, 1
	note C#, 2
	note C#, 1
	note C#, 2
	note C#, 2
	note C#, 1
	note C#, 2
	note C#, 2
	note C#, 2
	note C#, 1
	note C#, 1
	note C#, 2
	note C#, 1
	note C#, 2
	note C#, 2
	note C#, 1
	note C#, 2
	note C#, 2
	note C#, 2
	note C#, 1
	note C#, 1
	note C#, 2
	note C#, 1
	note C#, 2
	note C#, 2
	note C#, 1
	note C#, 2
	note C#, 2
	note C#, 2
	note C#, 1
	note C#, 1
	note C#, 2
	note C#, 1
	note C#, 2
	note C#, 2
	note C#, 1
	note C#, 2
	note C#, 2
	note C#, 2
	note C#, 1
	note C#, 1
	note C#, 2
	note C#, 1
	note C#, 2
	note C#, 2
	note C#, 1
	note C#, 2
	note C#, 2
	note C#, 2
	note C#, 1
	note C#, 1
	note C#, 2
	note C#, 1
	note C#, 2
	note C#, 2
	note C#, 1
	note C#, 2
	note C#, 2
	note C#, 2
	note C#, 1
	note C#, 1
	note C#, 2
	note C#, 1
	note C#, 2
	note C#, 2
	note C#, 1
	note C#, 2
	note C#, 2
	note C#, 2
	note C#, 1
	note C#, 1
	note C#, 2
	note C#, 1
	note C#, 2
	note C#, 2
	note C#, 1
	note C#, 2
	note C#, 2
	note C#, 2
	note C#, 1
	note C#, 1
	note C#, 2
	note C#, 1
	note C#, 2
	note C#, 2
	note C#, 1
	note C#, 2
	note C#, 2
	note C#, 2
	note C#, 1
	note C#, 1
	note C#, 2
	note C#, 1
	note C#, 2
	note C#, 2
	note C#, 1
	note C#, 2
	note C#, 2
	note C#, 2
	note C#, 1
	note C#, 1
	note C#, 2
	note C#, 1
	note C#, 2
	note C#, 2
	note C#, 1
	note C#, 2
	note C#, 2
	note C#, 2
	note C#, 1
	note C#, 1
	note C#, 2
	note C#, 1
	note C#, 2
	note C#, 2
	note C#, 1
	note C#, 2
	note C#, 2
	note C#, 2
	note C#, 1
	note C#, 1
	note C#, 2
	note C#, 1
	note C#, 2
	note C#, 2
	note C#, 1
	note C#, 2
	note C#, 2
	note C#, 2
	note C#, 1
	note C#, 1
	note C#, 2
	note C#, 1
	note C#, 2
	note C#, 2
	note C#, 1
	note C#, 2
	note C#, 2
	note C#, 2
	note C#, 1
	note C#, 1
	note C#, 2
	note C#, 1
	note C#, 2
	note C#, 2
	note C#, 1
	note C#, 2
	note C#, 2
	note C#, 2
	note C#, 1
	note C#, 1
	note C#, 2
	note C#, 1
	note C#, 2
	note C#, 2
	note C#, 1
	note C#, 2
	note C#, 2
	note C#, 2
	note C#, 1
	note C#, 1
	note C#, 2
	note C#, 1
	note C#, 2
	note C#, 2
	note C#, 1
	note C#, 2
	note C#, 2
	note C#, 2
	note C#, 1
	note C#, 1
	note C#, 2
	note C#, 1
	note C#, 2
	note C#, 2
	note C#, 1
	note C#, 2
	note C#, 2
	note C#, 2
	note C#, 1
	note C#, 1
	note C#, 2
	note C#, 1
	note C#, 2
	note C#, 2
	note C#, 1
	note C#, 2
	note C#, 2
	note C#, 2
	note C#, 1
	note C#, 1
	note C#, 2
	note C#, 1
	note C#, 2
	note C#, 2
	note C#, 1
	note C#, 2
	note C#, 2
	note C#, 2
	note C#, 1
	note C#, 1
	note C#, 2
	note C#, 1
	note C#, 2
	note C#, 2
	note C#, 1
	note C#, 2
	note C#, 2
	note C#, 2
	note C#, 1
	note C#, 1
	note C#, 2
	note C#, 1
	note C#, 2
	note C#, 2
	note C#, 1
	note C#, 2
	note C#, 2
	note C#, 2
	note C#, 1
	note C#, 1
	note C#, 2
	note C#, 1
	note C#, 2
	note C#, 2
	note C#, 1
	note C#, 2
	note C#, 2
	note C#, 2
	note C#, 1
	note C#, 1
	note C#, 2
	note C#, 1
	note C#, 2
	note C#, 2
	note C#, 1
	note C#, 2
	note C#, 2
	note C#, 2
	note C#, 1
	note C#, 1
	note C#, 2
	note C#, 1
	note C#, 2
	note C#, 2
	note C#, 1
	note C#, 2
	note C#, 2
	note C#, 2
	note C#, 1
	note C#, 1
	note C#, 2
	note C#, 1
	note C#, 2
	note C#, 2
	note C#, 1
	note C#, 2
	note C#, 2
	note C#, 2
	note C#, 1
	note C#, 1
	note C#, 2
	note C#, 1
	note C#, 2
	note C#, 2
	note C#, 1
	note C#, 2
	note C#, 2
	note C#, 2
	note C#, 1
	note C#, 1
	note C#, 2
	note C#, 1
	note C#, 2
	note C#, 2
	note C#, 1
	note C#, 2
	note C#, 2
	note C#, 2
	note C#, 1
	note C#, 1
	note C#, 2
	note C#, 1
	note C#, 2
	note C#, 2
	note C#, 1
	note C#, 2
	note C#, 2
	note C#, 2
	note C#, 1
	note C#, 1
	note C#, 2
	note C#, 1
	note C#, 2
	note C#, 2
	note C#, 1
	note C#, 2
	note C#, 2
	note C#, 2
	note C#, 1
	note C#, 1
	note C#, 2
	note C#, 1
	note C#, 2
	note C#, 2
	note C#, 1
	note C#, 2
	note C#, 2
	note C#, 2
	note C#, 1
	note C#, 1
	note C#, 2
	note C#, 1
	note C#, 2
	note C#, 2
	note C#, 1
	note C#, 2
	note C#, 2
	note C#, 2
	note C#, 1
	note C#, 1
	note C#, 2
	note C#, 1
	note C#, 2
	note C#, 2
	note C#, 1
	note C#, 2
	note C#, 2
	note C#, 2
	note C#, 1
	note C#, 1
	note C#, 2
	note C#, 1
	note C#, 2
	note C#, 2
	note C#, 1
	note C#, 2
	note C#, 2
	note C#, 2
	note C#, 1
	note C#, 1
	note C#, 2
	note C#, 1
	note C#, 2
	note C#, 2
	note C#, 1
	note C#, 2
	note C#, 2
	note C#, 2
	note C#, 1
	note C#, 1
	note C#, 2
	note C#, 1
	note C#, 2
	note C#, 2
	note C#, 1
	note C#, 2
	note C#, 2
	note C#, 2
	note C#, 1
	note C#, 1
	note C#, 2
	note C#, 1
	note C#, 2
	note C#, 2
	note C#, 1
	note C#, 2
	note C#, 2
	note C#, 2
	note C#, 1
	note C#, 1
	note C#, 2
	note C#, 1
	note C#, 2
	note C#, 2
	note C#, 1
	note C#, 2
	note C#, 2
	note C#, 2
	note C#, 1
	note C#, 1
	note C#, 2
	note C#, 1
	note C#, 2
	note C#, 2
	note C#, 1
	note C#, 2
	note C#, 2
	note C#, 2
	note C#, 1
	note C#, 1
	note C#, 2
	note C#, 1
	note C#, 2
	note C#, 2
	note C#, 1
	note C#, 2
	note C#, 2
	note C#, 2
	note C#, 1
	note C#, 1
	note C#, 2
	note C#, 1
	note C#, 2
	note C#, 2
	note C#, 1
	note C#, 2
	note C#, 2
	note C#, 2
	note C#, 1
	note C#, 1
	note C#, 2
	note C#, 1
	note C#, 2
	note C#, 2
	note C#, 1
	note C#, 2
	note C#, 2
	note C#, 2
	note C#, 1
	note C#, 1
	note C#, 2
	note C#, 1
	note C#, 2
	note C#, 2
	note C#, 1
	note C#, 2
	note C#, 2
	note C#, 2
	note C#, 1
	note C#, 1
	note C#, 2
	note C#, 1
	note C#, 2
	note C#, 2
	note C#, 1
	note C#, 2
	note C#, 2
	note C#, 2
	note C#, 1
	note C#, 1
	note C#, 2
	note C#, 1
	note C#, 2
	note C#, 2
	note C#, 1
	note C#, 2
	note C#, 2
	note C#, 2
	note C#, 1
	note C#, 1
	note C#, 2
	note C#, 1
	note C#, 2
	note C#, 2
	note C#, 1
	note C#, 2
	note C#, 2
	note C#, 2
	note C#, 1
	note C#, 1
	note C#, 2
	note C#, 1
	note C#, 2
	note C#, 2
	note C#, 1
	note C#, 2
	note C#, 2
	note C#, 2
	note C#, 1
	note C#, 1
	note C#, 2
	note C#, 1
	note C#, 2
	note C#, 2
	note C#, 1
	note C#, 2
	note C#, 2
	note C#, 2
	note C#, 1
	note C#, 1
	note C#, 2
	note C#, 1
	note C#, 2
	note C#, 2
	note C#, 1
	note C#, 2
	note C#, 2
	note C#, 2
	note C#, 1
	note C#, 1
	note C#, 2
	note C#, 1
	note C#, 2
	note C#, 2
	note C#, 1
	note C#, 2
	note C#, 2
	note C#, 2
	note C#, 1
	note C#, 1
	note C#, 2
	note C#, 1
	note C#, 2
	note C#, 2
	note C#, 1
	note C#, 2
	note C#, 2
	note C#, 2
	note C#, 1
	note C#, 1
	note C#, 2
	note C#, 1
	note C#, 2
	note C#, 2
	note C#, 1
	note C#, 2
	note C#, 2
	note C#, 2
	note C#, 1
	note C#, 1
	note C#, 2
	note C#, 1
	note C#, 2
	note C#, 2
	note C#, 1
	note C#, 2
	note C#, 2
	sound_ret

Music_Placeholder_Ch2:
	note_type 12, 5, 7
	rest 16
	octave 4
	duty_cycle 1
	note C#, 3
	note C#, 3
	note C#, 3
	note C#, 3
	note C#, 3
	note C#, 1
	octave 5
	note C#, 3
	note C#, 3
	note C#, 3
	note C#, 3
	note C#, 2
	note C#, 2
	octave 4
	note C#, 3
	note C#, 3
	note C#, 3
	note C#, 3
	note C#, 3
	note C#, 1
	octave 5
	note C#, 3
	note C#, 3
	note C#, 3
	note C#, 3
	note C#, 2
	octave 4
	note C#, 2
	note C#, 3
	note C#, 3
	note C#, 3
	note C#, 3
	note C#, 3
	note C#, 1
	octave 5
	note C#, 3
	note C#, 3
	note C#, 3
	note C#, 3
	note C#, 2
	note C#, 2
	octave 4
	note C#, 3
	note C#, 3
	note C#, 3
	note C#, 3
	note C#, 3
	note C#, 1
	octave 5
	note C#, 3
	note C#, 3
	note C#, 3
	note C#, 3
	note C#, 2
	note C#, 2
	octave 4
	rest 16
	rest 16
	rest 16
	rest 16
	rest 16
	rest 16
	rest 16
	rest 16
	note C#, 3
	note C#, 3
	note C#, 3
	note C#, 3
	note C#, 3
	note C#, 1
	octave 5
	note C#, 3
	note C#, 3
	note C#, 3
	note C#, 3
	note C#, 2
	octave 4
	note C#, 2
	note C#, 3
	note C#, 3
	note C#, 3
	note C#, 3
	note C#, 3
	note C#, 1
	octave 5
	note C#, 3
	note C#, 3
	note C#, 3
	note C#, 3
	note C#, 2
	octave 4
	note C#, 2
	note C#, 3
	note C#, 3
	note C#, 3
	note C#, 3
	note C#, 3
	note C#, 1
	octave 5
	note C#, 3
	note C#, 3
	note C#, 3
	note C#, 3
	note C#, 2
	octave 4
	note C#, 2
	note C#, 3
	note C#, 3
	note C#, 3
	note C#, 3
	note C#, 3
	note C#, 1
	octave 5
	note C#, 3
	note C#, 3
	note C#, 3
	note C#, 3
	note C#, 2
	note C#, 2
	octave 4
	rest 16
	rest 16
	rest 16
	rest 16
	rest 16
	rest 16
	rest 16
	rest 16
	note C#, 3
	note C#, 3
	note C#, 3
	note C#, 3
	note C#, 3
	note C#, 1
	note C#, 3
	note C#, 3
	note C#, 3
	note C#, 3
	note C#, 2
	note C#, 2
	note C#, 3
	note C#, 3
	note C#, 3
	note C#, 3
	note C#, 3
	note C#, 1
	note C#, 3
	note C#, 3
	note C#, 3
	note C#, 3
	note C#, 2
	note C#, 2
	note C#, 3
	note C#, 3
	note C#, 3
	note C#, 3
	note C#, 3
	note C#, 1
	note C#, 3
	note C#, 3
	note C#, 3
	note C#, 3
	note C#, 2
	note C#, 2
	note C#, 3
	note C#, 3
	note C#, 3
	note C#, 3
	note C#, 3
	note C#, 1
	note C#, 3
	note C#, 3
	note C#, 3
	note C#, 3
	note C#, 2
	note C#, 2
	rest 16
	rest 16
	rest 16
	rest 16
	rest 16
	rest 16
	rest 16
	rest 16
	note C#, 3
	note C#, 3
	note C#, 3
	note C#, 3
	note C#, 3
	note C#, 1
	note C#, 3
	note C#, 3
	note C#, 3
	note C#, 3
	note C#, 2
	note C#, 2
	note C#, 3
	note C#, 3
	note C#, 3
	note C#, 3
	note C#, 3
	note C#, 1
	note C#, 3
	note C#, 3
	note C#, 3
	note C#, 3
	note C#, 2
	note C#, 2
	note C#, 3
	note C#, 3
	note C#, 3
	note C#, 3
	note C#, 3
	note C#, 1
	note C#, 3
	note C#, 3
	note C#, 3
	note C#, 3
	note C#, 2
	note C#, 2
	note C#, 3
	note C#, 3
	note C#, 3
	note C#, 3
	note C#, 3
	note C#, 1
	note C#, 3
	note C#, 3
	note C#, 3
	note C#, 3
	note C#, 2
	note C#, 2
	rest 16
	rest 16
	rest 16
	rest 16
	rest 16
	rest 16
	rest 16
	rest 16
	note C#, 3
	note C#, 3
	note C#, 3
	note C#, 3
	note C#, 3
	note C#, 1
	note C#, 3
	note C#, 3
	note C#, 3
	note C#, 3
	note C#, 2
	note C#, 2
	note C#, 3
	note C#, 3
	note C#, 3
	note C#, 3
	note C#, 3
	note C#, 1
	note C#, 3
	note C#, 3
	note C#, 3
	note C#, 3
	note C#, 2
	note C#, 2
	note C#, 3
	note C#, 3
	note C#, 3
	note C#, 3
	note C#, 3
	note C#, 1
	note C#, 3
	note C#, 3
	note C#, 3
	note C#, 3
	note C#, 2
	note C#, 2
	note C#, 3
	note C#, 3
	note C#, 3
	note C#, 3
	note C#, 3
	note C#, 1
	note C#, 3
	note C#, 3
	note C#, 3
	note C#, 3
	note C#, 2
	note C#, 2
	rest 16
	rest 16
	rest 16
	rest 16
	rest 16
	rest 16
	rest 16
	rest 16
	note C#, 3
	note C#, 3
	note C#, 3
	note C#, 3
	note C#, 3
	note C#, 1
	note C#, 3
	note C#, 3
	note C#, 3
	note C#, 3
	note C#, 2
	note C#, 2
	note C#, 3
	note C#, 3
	note C#, 3
	note C#, 3
	note C#, 3
	note C#, 1
	note C#, 3
	note C#, 3
	note C#, 3
	note C#, 3
	note C#, 2
	note C#, 2
	note C#, 3
	note C#, 3
	note C#, 3
	note C#, 3
	note C#, 3
	note C#, 1
	note C#, 3
	note C#, 3
	note C#, 3
	note C#, 3
	note C#, 2
	note C#, 2
	note C#, 3
	note C#, 3
	note C#, 3
	note C#, 3
	note C#, 3
	note C#, 1
	note C#, 3
	note C#, 3
	note C#, 3
	note C#, 3
	note C#, 2
	volume_envelope 10, 7
	note C#, 16
	note C#, 16
	note C#, 16
	note C#, 16
	note C#, 16
	note C#, 16
	note C#, 16
	note C#, 16
	note C#, 2
	octave 3
	sound_ret

Music_Placeholder_Ch3:
	note_type 12, 2, 0
	rest 16
	octave 4
	note C#, 1
	note E_, 1
	note G_, 1
	octave 5
	note C#, 1
	octave 4
	note C#, 1
	note E_, 1
	note G_, 1
	octave 5
	note C#, 1
	octave 4
	note C#, 1
	note E_, 1
	note G_, 1
	octave 5
	note C#, 1
	octave 4
	note C#, 1
	note E_, 1
	note G_, 1
	octave 5
	note C#, 1
	octave 4
	note C#, 1
	note E_, 1
	note G#, 1
	octave 5
	note C#, 1
	octave 4
	note C#, 1
	note E_, 1
	note G#, 1
	octave 5
	note C#, 1
	octave 4
	note C#, 1
	note E_, 1
	note G#, 1
	octave 5
	note C#, 1
	octave 4
	note C#, 1
	note E_, 1
	note G#, 1
	octave 5
	note C#, 1
	octave 4
	note C#, 1
	note E_, 1
	note G_, 1
	octave 5
	note C#, 1
	octave 4
	note C#, 1
	note E_, 1
	note G_, 1
	octave 5
	note C#, 1
	octave 4
	note C#, 1
	note E_, 1
	note G_, 1
	octave 5
	note C#, 1
	octave 4
	note C#, 1
	note E_, 1
	note G_, 1
	octave 5
	note C#, 1
	octave 4
	note C#, 1
	note E_, 1
	note G#, 1
	octave 5
	note C#, 1
	octave 4
	note C#, 1
	note E_, 1
	note G#, 1
	octave 5
	note C#, 1
	octave 4
	note C#, 1
	note E_, 1
	note G#, 1
	octave 5
	note C#, 1
	octave 4
	note C#, 1
	note E_, 1
	note G#, 1
	octave 5
	note C#, 1
	octave 4
	note C#, 1
	note E_, 1
	note G_, 1
	octave 5
	note C#, 1
	octave 4
	note C#, 1
	note E_, 1
	note G_, 1
	octave 5
	note C#, 1
	octave 4
	note C#, 1
	note E_, 1
	note G_, 1
	octave 5
	note C#, 1
	octave 4
	note C#, 1
	note E_, 1
	note G_, 1
	octave 5
	note C#, 1
	octave 4
	note C#, 1
	note E_, 1
	note G#, 1
	octave 5
	note C#, 1
	octave 4
	note C#, 1
	note E_, 1
	note G#, 1
	octave 5
	note C#, 1
	octave 4
	note C#, 1
	note E_, 1
	note G#, 1
	octave 5
	note C#, 1
	octave 4
	note C#, 1
	note E_, 1
	note G#, 1
	octave 5
	note C#, 1
	octave 4
	note C#, 1
	note E_, 1
	note G_, 1
	octave 5
	note C#, 1
	octave 4
	note C#, 1
	note E_, 1
	note G_, 1
	octave 5
	note C#, 1
	octave 4
	note C#, 1
	note E_, 1
	note G_, 1
	octave 5
	note C#, 1
	octave 4
	note C#, 1
	note E_, 1
	note G_, 1
	octave 5
	note C#, 1
	octave 4
	note C#, 1
	note E_, 1
	note G#, 1
	octave 5
	note C#, 1
	octave 4
	note C#, 1
	note E_, 1
	note G#, 1
	octave 5
	note C#, 1
	octave 4
	note C#, 1
	note E_, 1
	note G#, 1
	octave 5
	note C#, 1
	octave 4
	note C#, 1
	note E_, 1
	note G#, 1
	octave 5
	note C#, 1
	octave 4
	note C#, 1
	note C#, 1
	note C#, 1
	note C#, 1
	note C#, 1
	note C#, 1
	note C#, 1
	note C#, 1
	note C#, 1
	note C#, 1
	note C#, 1
	note C#, 1
	note C#, 1
	note C#, 1
	note C#, 1
	note C#, 1
	note C#, 1
	note C#, 1
	note C#, 1
	note C#, 1
	note C#, 1
	note C#, 1
	note C#, 1
	note C#, 1
	note C#, 1
	note C#, 1
	note C#, 1
	note C#, 1
	note C#, 1
	note C#, 1
	note C#, 1
	note C#, 1
	note C#, 1
	note C#, 1
	note C#, 1
	note C#, 1
	note C#, 1
	note C#, 1
	note C#, 1
	note C#, 1
	note C#, 1
	note C#, 1
	note C#, 1
	note C#, 1
	note C#, 1
	note C#, 1
	note C#, 1
	note C#, 1
	note C#, 1
	note C#, 1
	note C#, 1
	note C#, 1
	note C#, 1
	note C#, 1
	note C#, 1
	note C#, 1
	note C#, 1
	note C#, 1
	note C#, 1
	note C#, 1
	note C#, 1
	note C#, 1
	note C#, 1
	note C#, 1
	note C#, 1
	note C#, 1
	note C#, 1
	note C#, 1
	note C#, 1
	note C#, 1
	note C#, 1
	note C#, 1
	note C#, 1
	note C#, 1
	note C#, 1
	note C#, 1
	note C#, 1
	note C#, 1
	note C#, 1
	note C#, 1
	note C#, 1
	note C#, 1
	note C#, 1
	note C#, 1
	note C#, 1
	note C#, 1
	note C#, 1
	note C#, 1
	note C#, 1
	note C#, 1
	note C#, 1
	note C#, 1
	note C#, 1
	note C#, 1
	note C#, 1
	note C#, 1
	note C#, 1
	note C#, 1
	note C#, 1
	note C#, 1
	note C#, 1
	note C#, 1
	note C#, 1
	note C#, 1
	note C#, 1
	note C#, 1
	note C#, 1
	note C#, 1
	note C#, 1
	note C#, 1
	note C#, 1
	note C#, 1
	note C#, 1
	note C#, 1
	note C#, 1
	note C#, 1
	note C#, 1
	note C#, 1
	note C#, 1
	note C#, 1
	note C#, 1
	note C#, 1
	note C#, 1
	note C#, 1
	note C#, 1
	note C#, 1
	note C#, 1
	note C#, 1
	note C#, 1
	note E_, 1
	note G_, 1
	octave 5
	note C#, 1
	octave 4
	note C#, 1
	note E_, 1
	note G_, 1
	octave 5
	note C#, 1
	octave 4
	note C#, 1
	note E_, 1
	note G_, 1
	octave 5
	note C#, 1
	octave 4
	note C#, 1
	note E_, 1
	note G_, 1
	octave 5
	note C#, 1
	octave 4
	note C#, 1
	note E_, 1
	note G#, 1
	octave 5
	note C#, 1
	octave 4
	note C#, 1
	note E_, 1
	note G#, 1
	octave 5
	note C#, 1
	octave 4
	note C#, 1
	note E_, 1
	note G#, 1
	octave 5
	note C#, 1
	octave 4
	note C#, 1
	note E_, 1
	note G#, 1
	octave 5
	note C#, 1
	octave 4
	note C#, 1
	note E_, 1
	note G_, 1
	octave 5
	note C#, 1
	octave 4
	note C#, 1
	note E_, 1
	note G_, 1
	octave 5
	note C#, 1
	octave 4
	note C#, 1
	note E_, 1
	note G_, 1
	octave 5
	note C#, 1
	octave 4
	note C#, 1
	note E_, 1
	note G_, 1
	octave 5
	note C#, 1
	octave 4
	note C#, 1
	note E_, 1
	note G#, 1
	octave 5
	note C#, 1
	octave 4
	note C#, 1
	note E_, 1
	note G#, 1
	octave 5
	note C#, 1
	octave 4
	note C#, 1
	note E_, 1
	note G#, 1
	octave 5
	note C#, 1
	octave 4
	note C#, 1
	note E_, 1
	note G#, 1
	octave 5
	note C#, 1
	octave 4
	note C#, 1
	note E_, 1
	note G_, 1
	octave 5
	note C#, 1
	octave 4
	note C#, 1
	note E_, 1
	note G_, 1
	octave 5
	note C#, 1
	octave 4
	note C#, 1
	note E_, 1
	note G_, 1
	octave 5
	note C#, 1
	octave 4
	note C#, 1
	note E_, 1
	note G_, 1
	octave 5
	note C#, 1
	octave 4
	note C#, 1
	note E_, 1
	note G#, 1
	octave 5
	note C#, 1
	octave 4
	note C#, 1
	note E_, 1
	note G#, 1
	octave 5
	note C#, 1
	octave 4
	note C#, 1
	note E_, 1
	note G#, 1
	octave 5
	note C#, 1
	octave 4
	note C#, 1
	note E_, 1
	note G#, 1
	octave 5
	note C#, 1
	octave 4
	note C#, 1
	note E_, 1
	note G_, 1
	octave 5
	note C#, 1
	octave 4
	note C#, 1
	note E_, 1
	note G_, 1
	octave 5
	note C#, 1
	octave 4
	note C#, 1
	note E_, 1
	note G_, 1
	octave 5
	note C#, 1
	octave 4
	note C#, 1
	note E_, 1
	note G_, 1
	octave 5
	note C#, 1
	octave 4
	note C#, 1
	note E_, 1
	note G#, 1
	octave 5
	note C#, 1
	octave 4
	note C#, 1
	note E_, 1
	note G#, 1
	octave 5
	note C#, 1
	octave 4
	note C#, 1
	note E_, 1
	note G#, 1
	octave 5
	note C#, 1
	octave 4
	note C#, 1
	note E_, 1
	note G#, 1
	octave 5
	note C#, 1
	octave 6
	note C#, 1
	note C#, 1
	note C#, 1
	note C#, 1
	note C#, 1
	note C#, 1
	note C#, 1
	note C#, 1
	note C#, 1
	note C#, 1
	note C#, 1
	note C#, 1
	note C#, 1
	note C#, 1
	note C#, 1
	note C#, 1
	note C#, 1
	note C#, 1
	note C#, 1
	note C#, 1
	note C#, 1
	note C#, 1
	note C#, 1
	note C#, 1
	note C#, 1
	note C#, 1
	note C#, 1
	note C#, 1
	note C#, 1
	note C#, 1
	note C#, 1
	note C#, 1
	note C#, 1
	note C#, 1
	note C#, 1
	note C#, 1
	note C#, 1
	note C#, 1
	note C#, 1
	note C#, 1
	note C#, 1
	note C#, 1
	note C#, 1
	note C#, 1
	note C#, 1
	note C#, 1
	note C#, 1
	note C#, 1
	note C#, 1
	note C#, 1
	note C#, 1
	note C#, 1
	note C#, 1
	note C#, 1
	note C#, 1
	note C#, 1
	note C#, 1
	note C#, 1
	note C#, 1
	note C#, 1
	note C#, 1
	note C#, 1
	note C#, 1
	note C#, 1
	note C#, 1
	note C#, 1
	note C#, 1
	note C#, 1
	note C#, 1
	note C#, 1
	note C#, 1
	note C#, 1
	note C#, 1
	note C#, 1
	note C#, 1
	note C#, 1
	note C#, 1
	note C#, 1
	note C#, 1
	note C#, 1
	note C#, 1
	note C#, 1
	note C#, 1
	note C#, 1
	note C#, 1
	note C#, 1
	note C#, 1
	note C#, 1
	note C#, 1
	note C#, 1
	note C#, 1
	note C#, 1
	note C#, 1
	note C#, 1
	note C#, 1
	note C#, 1
	note C#, 1
	note C#, 1
	note C#, 1
	note C#, 1
	note C#, 1
	note C#, 1
	note C#, 1
	note C#, 1
	note C#, 1
	note C#, 1
	note C#, 1
	note C#, 1
	note C#, 1
	note C#, 1
	note C#, 1
	note C#, 1
	note C#, 1
	note C#, 1
	note C#, 1
	note C#, 1
	note C#, 1
	note C#, 1
	note C#, 1
	note C#, 1
	note C#, 1
	note C#, 1
	note C#, 1
	note C#, 1
	note C#, 1
	note C#, 1
	note C#, 1
	note C#, 1
	octave 4
	note C#, 1
	note E_, 1
	note G_, 1
	octave 5
	note C#, 1
	octave 4
	note C#, 1
	note E_, 1
	note G_, 1
	octave 5
	note C#, 1
	octave 4
	note C#, 1
	note E_, 1
	note G_, 1
	octave 5
	note C#, 1
	octave 4
	note C#, 1
	note E_, 1
	note G_, 1
	octave 5
	note C#, 1
	octave 4
	note C#, 1
	note E_, 1
	note G#, 1
	octave 5
	note C#, 1
	octave 4
	note C#, 1
	note E_, 1
	note G#, 1
	octave 5
	note C#, 1
	octave 4
	note C#, 1
	note E_, 1
	note G#, 1
	octave 5
	note C#, 1
	octave 4
	note C#, 1
	note E_, 1
	note G#, 1
	octave 5
	note C#, 1
	octave 4
	note C#, 1
	note E_, 1
	note G_, 1
	octave 5
	note C#, 1
	octave 4
	note C#, 1
	note E_, 1
	note G_, 1
	octave 5
	note C#, 1
	octave 4
	note C#, 1
	note E_, 1
	note G_, 1
	octave 5
	note C#, 1
	octave 4
	note C#, 1
	note E_, 1
	note G_, 1
	octave 5
	note C#, 1
	octave 4
	note C#, 1
	note E_, 1
	note G#, 1
	octave 5
	note C#, 1
	octave 4
	note C#, 1
	note E_, 1
	note G#, 1
	octave 5
	note C#, 1
	octave 4
	note C#, 1
	note E_, 1
	note G#, 1
	octave 5
	note C#, 1
	octave 4
	note C#, 1
	note E_, 1
	note G#, 1
	octave 5
	note C#, 1
	octave 4
	note C#, 1
	note E_, 1
	note G_, 1
	octave 5
	note C#, 1
	octave 4
	note C#, 1
	note E_, 1
	note G_, 1
	octave 5
	note C#, 1
	octave 4
	note C#, 1
	note E_, 1
	note G_, 1
	octave 5
	note C#, 1
	octave 4
	note C#, 1
	note E_, 1
	note G_, 1
	octave 5
	note C#, 1
	octave 4
	note C#, 1
	note E_, 1
	note G#, 1
	octave 5
	note C#, 1
	octave 4
	note C#, 1
	note E_, 1
	note G#, 1
	octave 5
	note C#, 1
	octave 4
	note C#, 1
	note E_, 1
	note G#, 1
	octave 5
	note C#, 1
	octave 4
	note C#, 1
	note E_, 1
	note G#, 1
	octave 5
	note C#, 1
	octave 4
	note C#, 1
	note E_, 1
	note G_, 1
	octave 5
	note C#, 1
	octave 4
	note C#, 1
	note E_, 1
	note G_, 1
	octave 5
	note C#, 1
	octave 4
	note C#, 1
	note E_, 1
	note G_, 1
	octave 5
	note C#, 1
	octave 4
	note C#, 1
	note E_, 1
	note G_, 1
	octave 5
	note C#, 1
	octave 4
	note C#, 1
	note E_, 1
	note G#, 1
	octave 5
	note C#, 1
	octave 4
	note C#, 1
	note E_, 1
	note G#, 1
	octave 5
	note C#, 1
	octave 4
	note C#, 1
	note E_, 1
	note G#, 1
	octave 5
	note C#, 1
	octave 4
	note C#, 1
	note E_, 1
	note G#, 1
	octave 5
	note C#, 1
	octave 6
	note C#, 1
	note C#, 1
	note C#, 1
	note C#, 1
	note C#, 1
	note C#, 1
	note C#, 1
	note C#, 1
	note C#, 1
	note C#, 1
	note C#, 1
	note C#, 1
	note C#, 1
	note C#, 1
	note C#, 1
	note C#, 1
	note C#, 1
	note C#, 1
	note C#, 1
	note C#, 1
	note C#, 1
	note C#, 1
	note C#, 1
	note C#, 1
	note C#, 1
	note C#, 1
	note C#, 1
	note C#, 1
	note C#, 1
	note C#, 1
	note C#, 1
	note C#, 1
	note C#, 1
	note C#, 1
	note C#, 1
	note C#, 1
	note C#, 1
	note C#, 1
	note C#, 1
	note C#, 1
	note C#, 1
	note C#, 1
	note C#, 1
	note C#, 1
	note C#, 1
	note C#, 1
	note C#, 1
	note C#, 1
	note C#, 1
	note C#, 1
	note C#, 1
	note C#, 1
	note C#, 1
	note C#, 1
	note C#, 1
	note C#, 1
	note C#, 1
	note C#, 1
	note C#, 1
	note C#, 1
	note C#, 1
	note C#, 1
	note C#, 1
	note C#, 1
	note C#, 1
	note C#, 1
	note C#, 1
	note C#, 1
	note C#, 1
	note C#, 1
	note C#, 1
	note C#, 1
	note C#, 1
	note C#, 1
	note C#, 1
	note C#, 1
	note C#, 1
	note C#, 1
	note C#, 1
	note C#, 1
	note C#, 1
	note C#, 1
	note C#, 1
	note C#, 1
	note C#, 1
	note C#, 1
	note C#, 1
	note C#, 1
	note C#, 1
	note C#, 1
	note C#, 1
	note C#, 1
	note C#, 1
	note C#, 1
	note C#, 1
	note C#, 1
	note C#, 1
	note C#, 1
	note C#, 1
	note C#, 1
	note C#, 1
	note C#, 1
	note C#, 1
	note C#, 1
	note C#, 1
	note C#, 1
	note C#, 1
	note C#, 1
	note C#, 1
	note C#, 1
	note C#, 1
	note C#, 1
	note C#, 1
	note C#, 1
	note C#, 1
	note C#, 1
	note C#, 1
	note C#, 1
	note C#, 1
	note C#, 1
	note C#, 1
	note C#, 1
	note C#, 1
	note C#, 1
	note C#, 1
	note C#, 1
	note C#, 1
	note C#, 1
	octave 4
	note C#, 1
	note E_, 1
	note G_, 1
	octave 5
	note C#, 1
	octave 4
	note C#, 1
	note E_, 1
	note G_, 1
	octave 5
	note C#, 1
	octave 4
	note C#, 1
	note E_, 1
	note G_, 1
	octave 5
	note C#, 1
	octave 4
	note C#, 1
	note E_, 1
	note G_, 1
	octave 5
	note C#, 1
	octave 4
	note C#, 1
	note E_, 1
	note G#, 1
	octave 5
	note C#, 1
	octave 4
	note C#, 1
	note E_, 1
	note G#, 1
	octave 5
	note C#, 1
	octave 4
	note C#, 1
	note E_, 1
	note G#, 1
	octave 5
	note C#, 1
	octave 4
	note C#, 1
	note E_, 1
	note G#, 1
	octave 5
	note C#, 1
	octave 4
	note C#, 1
	note E_, 1
	note G_, 1
	octave 5
	note C#, 1
	octave 4
	note C#, 1
	note E_, 1
	note G_, 1
	octave 5
	note C#, 1
	octave 4
	note C#, 1
	note E_, 1
	note G_, 1
	octave 5
	note C#, 1
	octave 4
	note C#, 1
	note E_, 1
	note G_, 1
	octave 5
	note C#, 1
	octave 4
	note C#, 1
	note E_, 1
	note G#, 1
	octave 5
	note C#, 1
	octave 4
	note C#, 1
	note E_, 1
	note G#, 1
	octave 5
	note C#, 1
	octave 4
	note C#, 1
	note E_, 1
	note G#, 1
	octave 5
	note C#, 1
	octave 4
	note C#, 1
	note E_, 1
	note G#, 1
	octave 5
	note C#, 1
	octave 4
	note C#, 1
	note E_, 1
	note G_, 1
	octave 5
	note C#, 1
	octave 4
	note C#, 1
	note E_, 1
	note G_, 1
	octave 5
	note C#, 1
	octave 4
	note C#, 1
	note E_, 1
	note G_, 1
	octave 5
	note C#, 1
	octave 4
	note C#, 1
	note E_, 1
	note G_, 1
	octave 5
	note C#, 1
	octave 4
	note C#, 1
	note E_, 1
	note G#, 1
	octave 5
	note C#, 1
	octave 4
	note C#, 1
	note E_, 1
	note G#, 1
	octave 5
	note C#, 1
	octave 4
	note C#, 1
	note E_, 1
	note G#, 1
	octave 5
	note C#, 1
	octave 4
	note C#, 1
	note E_, 1
	note G#, 1
	octave 5
	note C#, 1
	octave 4
	note C#, 1
	note E_, 1
	note G_, 1
	octave 5
	note C#, 1
	octave 4
	note C#, 1
	note E_, 1
	note G_, 1
	octave 5
	note C#, 1
	octave 4
	note C#, 1
	note E_, 1
	note G_, 1
	octave 5
	note C#, 1
	octave 4
	note C#, 1
	note E_, 1
	note G_, 1
	octave 5
	note C#, 1
	octave 4
	note C#, 1
	note E_, 1
	note G#, 1
	octave 5
	note C#, 1
	octave 4
	note C#, 1
	note E_, 1
	note G#, 1
	octave 5
	note C#, 1
	octave 4
	note C#, 1
	note E_, 1
	note G#, 1
	octave 5
	note C#, 1
	octave 4
	note C#, 1
	note E_, 1
	note G#, 1
	octave 5
	note C#, 1
	octave 6
	note C#, 1
	note C#, 1
	note C#, 1
	note C#, 1
	note C#, 1
	note C#, 1
	note C#, 1
	note C#, 1
	note C#, 1
	note C#, 1
	note C#, 1
	note C#, 1
	note C#, 1
	note C#, 1
	note C#, 1
	note C#, 1
	note C#, 1
	note C#, 1
	note C#, 1
	note C#, 1
	note C#, 1
	note C#, 1
	note C#, 1
	note C#, 1
	note C#, 1
	note C#, 1
	note C#, 1
	note C#, 1
	note C#, 1
	note C#, 1
	note C#, 1
	note C#, 1
	note C#, 1
	note C#, 1
	note C#, 1
	note C#, 1
	note C#, 1
	note C#, 1
	note C#, 1
	note C#, 1
	note C#, 1
	note C#, 1
	note C#, 1
	note C#, 1
	note C#, 1
	note C#, 1
	note C#, 1
	note C#, 1
	note C#, 1
	note C#, 1
	note C#, 1
	note C#, 1
	note C#, 1
	note C#, 1
	note C#, 1
	note C#, 1
	note C#, 1
	note C#, 1
	note C#, 1
	note C#, 1
	note C#, 1
	note C#, 1
	note C#, 1
	note C#, 1
	note C#, 1
	note C#, 1
	note C#, 1
	note C#, 1
	note C#, 1
	note C#, 1
	note C#, 1
	note C#, 1
	note C#, 1
	note C#, 1
	note C#, 1
	note C#, 1
	note C#, 1
	note C#, 1
	note C#, 1
	note C#, 1
	note C#, 1
	note C#, 1
	note C#, 1
	note C#, 1
	note C#, 1
	note C#, 1
	note C#, 1
	note C#, 1
	note C#, 1
	note C#, 1
	note C#, 1
	note C#, 1
	note C#, 1
	note C#, 1
	note C#, 1
	note C#, 1
	note C#, 1
	note C#, 1
	note C#, 1
	note C#, 1
	note C#, 1
	note C#, 1
	note C#, 1
	note C#, 1
	note C#, 1
	note C#, 1
	note C#, 1
	note C#, 1
	note C#, 1
	note C#, 1
	note C#, 1
	note C#, 1
	note C#, 1
	note C#, 1
	note C#, 1
	note C#, 1
	note C#, 1
	note C#, 1
	note C#, 1
	note C#, 1
	note C#, 1
	note C#, 1
	note C#, 1
	note C#, 1
	note C#, 1
	note C#, 1
	note C#, 1
	note C#, 1
	octave 4
	note C#, 1
	note E_, 1
	note G_, 1
	octave 5
	note C#, 1
	octave 4
	note C#, 1
	note E_, 1
	note G_, 1
	octave 5
	note C#, 1
	octave 4
	note C#, 1
	note E_, 1
	note G_, 1
	octave 5
	note C#, 1
	octave 4
	note C#, 1
	note E_, 1
	note G_, 1
	octave 5
	note C#, 1
	octave 4
	note C#, 1
	note E_, 1
	note G#, 1
	octave 5
	note C#, 1
	octave 4
	note C#, 1
	note E_, 1
	note G#, 1
	octave 5
	note C#, 1
	octave 4
	note C#, 1
	note E_, 1
	note G#, 1
	octave 5
	note C#, 1
	octave 4
	note C#, 1
	note E_, 1
	note G#, 1
	octave 5
	note C#, 1
	octave 4
	note C#, 1
	note E_, 1
	note G_, 1
	octave 5
	note C#, 1
	octave 4
	note C#, 1
	note E_, 1
	note G_, 1
	octave 5
	note C#, 1
	octave 4
	note C#, 1
	note E_, 1
	note G_, 1
	octave 5
	note C#, 1
	octave 4
	note C#, 1
	note E_, 1
	note G_, 1
	octave 5
	note C#, 1
	octave 4
	note C#, 1
	note E_, 1
	note G#, 1
	octave 5
	note C#, 1
	octave 4
	note C#, 1
	note E_, 1
	note G#, 1
	octave 5
	note C#, 1
	octave 4
	note C#, 1
	note E_, 1
	note G#, 1
	octave 5
	note C#, 1
	octave 4
	note C#, 1
	note E_, 1
	note G#, 1
	octave 5
	note C#, 1
	octave 4
	note C#, 1
	note E_, 1
	note G_, 1
	octave 5
	note C#, 1
	octave 4
	note C#, 1
	note E_, 1
	note G_, 1
	octave 5
	note C#, 1
	octave 4
	note C#, 1
	note E_, 1
	note G_, 1
	octave 5
	note C#, 1
	octave 4
	note C#, 1
	note E_, 1
	note G_, 1
	octave 5
	note C#, 1
	octave 4
	note C#, 1
	note E_, 1
	note G#, 1
	octave 5
	note C#, 1
	octave 4
	note C#, 1
	note E_, 1
	note G#, 1
	octave 5
	note C#, 1
	octave 4
	note C#, 1
	note E_, 1
	note G#, 1
	octave 5
	note C#, 1
	octave 4
	note C#, 1
	note E_, 1
	note G#, 1
	octave 5
	note C#, 1
	octave 4
	note C#, 1
	note E_, 1
	note G_, 1
	octave 5
	note C#, 1
	octave 4
	note C#, 1
	note E_, 1
	note G_, 1
	octave 5
	note C#, 1
	octave 4
	note C#, 1
	note E_, 1
	note G_, 1
	octave 5
	note C#, 1
	octave 4
	note C#, 1
	note E_, 1
	note G_, 1
	octave 5
	note C#, 1
	octave 4
	note C#, 1
	note E_, 1
	note G#, 1
	octave 5
	note C#, 1
	octave 4
	note C#, 1
	note E_, 1
	note G#, 1
	octave 5
	note C#, 1
	octave 4
	note C#, 1
	note E_, 1
	note G#, 1
	octave 5
	note C#, 1
	octave 4
	note C#, 1
	note E_, 1
	note G#, 1
	octave 5
	note C#, 1
	octave 6
	note C#, 1
	note C#, 1
	note C#, 1
	note C#, 1
	note C#, 1
	note C#, 1
	note C#, 1
	note C#, 1
	note C#, 1
	note C#, 1
	note C#, 1
	note C#, 1
	note C#, 1
	note C#, 1
	note C#, 1
	note C#, 1
	note C#, 1
	note C#, 1
	note C#, 1
	note C#, 1
	note C#, 1
	note C#, 1
	note C#, 1
	note C#, 1
	note C#, 1
	note C#, 1
	note C#, 1
	note C#, 1
	note C#, 1
	note C#, 1
	note C#, 1
	note C#, 1
	note C#, 1
	note C#, 1
	note C#, 1
	note C#, 1
	note C#, 1
	note C#, 1
	note C#, 1
	note C#, 1
	note C#, 1
	note C#, 1
	note C#, 1
	note C#, 1
	note C#, 1
	note C#, 1
	note C#, 1
	note C#, 1
	note C#, 1
	note C#, 1
	note C#, 1
	note C#, 1
	note C#, 1
	note C#, 1
	note C#, 1
	note C#, 1
	note C#, 1
	note C#, 1
	note C#, 1
	note C#, 1
	note C#, 1
	note C#, 1
	note C#, 1
	note C#, 1
	note C#, 1
	note C#, 1
	note C#, 1
	note C#, 1
	note C#, 1
	note C#, 1
	note C#, 1
	note C#, 1
	note C#, 1
	note C#, 1
	note C#, 1
	note C#, 1
	note C#, 1
	note C#, 1
	note C#, 1
	note C#, 1
	note C#, 1
	note C#, 1
	note C#, 1
	note C#, 1
	note C#, 1
	note C#, 1
	note C#, 1
	note C#, 1
	note C#, 1
	note C#, 1
	note C#, 1
	note C#, 1
	note C#, 1
	note C#, 1
	note C#, 1
	note C#, 1
	note C#, 1
	note C#, 1
	note C#, 1
	note C#, 1
	note C#, 1
	note C#, 1
	note C#, 1
	note C#, 1
	note C#, 1
	note C#, 1
	note C#, 1
	note C#, 1
	note C#, 1
	note C#, 1
	note C#, 1
	note C#, 1
	note C#, 1
	note C#, 1
	note C#, 1
	note C#, 1
	note C#, 1
	note C#, 1
	note C#, 1
	note C#, 1
	note C#, 1
	note C#, 1
	note C#, 1
	note C#, 1
	note C#, 1
	note C#, 1
	note C#, 1
	note C#, 1
	octave 4
	note C#, 1
	note E_, 1
	note G_, 1
	octave 5
	note C#, 1
	octave 4
	note C#, 1
	note E_, 1
	note G_, 1
	octave 5
	note C#, 1
	octave 4
	note C#, 1
	note E_, 1
	note G_, 1
	octave 5
	note C#, 1
	octave 4
	note C#, 1
	note E_, 1
	note G_, 1
	octave 5
	note C#, 1
	octave 4
	note C#, 1
	note E_, 1
	note G#, 1
	octave 5
	note C#, 1
	octave 4
	note C#, 1
	note E_, 1
	note G#, 1
	octave 5
	note C#, 1
	octave 4
	note C#, 1
	note E_, 1
	note G#, 1
	octave 5
	note C#, 1
	octave 4
	note C#, 1
	note E_, 1
	note G#, 1
	octave 5
	note C#, 1
	octave 4
	note C#, 1
	note E_, 1
	note G_, 1
	octave 5
	note C#, 1
	octave 4
	note C#, 1
	note E_, 1
	note G_, 1
	octave 5
	note C#, 1
	octave 4
	note C#, 1
	note E_, 1
	note G_, 1
	octave 5
	note C#, 1
	octave 4
	note C#, 1
	note E_, 1
	note G_, 1
	octave 5
	note C#, 1
	octave 4
	note C#, 1
	note E_, 1
	note G#, 1
	octave 5
	note C#, 1
	octave 4
	note C#, 1
	note E_, 1
	note G#, 1
	octave 5
	note C#, 1
	octave 4
	note C#, 1
	note E_, 1
	note G#, 1
	octave 5
	note C#, 1
	octave 4
	note C#, 1
	note E_, 1
	note G#, 1
	octave 5
	note C#, 1
	octave 4
	note C#, 1
	note E_, 1
	note G_, 1
	octave 5
	note C#, 1
	octave 4
	note C#, 1
	note E_, 1
	note G_, 1
	octave 5
	note C#, 1
	octave 4
	note C#, 1
	note E_, 1
	note G_, 1
	octave 5
	note C#, 1
	octave 4
	note C#, 1
	note E_, 1
	note G_, 1
	octave 5
	note C#, 1
	octave 4
	note C#, 1
	note E_, 1
	note G#, 1
	octave 5
	note C#, 1
	octave 4
	note C#, 1
	note E_, 1
	note G#, 1
	octave 5
	note C#, 1
	octave 4
	note C#, 1
	note E_, 1
	note G#, 1
	octave 5
	note C#, 1
	octave 4
	note C#, 1
	note E_, 1
	note G#, 1
	octave 5
	note C#, 1
	octave 4
	note C#, 1
	note E_, 1
	note G_, 1
	octave 5
	note C#, 1
	octave 4
	note C#, 1
	note E_, 1
	note G_, 1
	octave 5
	note C#, 1
	octave 4
	note C#, 1
	note E_, 1
	note G_, 1
	octave 5
	note C#, 1
	octave 4
	note C#, 1
	note E_, 1
	note G_, 1
	octave 5
	note C#, 1
	octave 4
	note C#, 1
	note E_, 1
	note G#, 1
	octave 5
	note C#, 1
	octave 4
	note C#, 1
	note E_, 1
	note G#, 1
	octave 5
	note C#, 1
	octave 4
	note C#, 1
	note E_, 1
	note G#, 1
	octave 5
	note C#, 1
	octave 4
	note C#, 1
	note E_, 1
	note G#, 1
	octave 5
	note C#, 1
	octave 6
	note C#, 1
	note C#, 1
	note C#, 1
	note C#, 1
	note C#, 1
	note C#, 1
	note C#, 1
	note C#, 1
	note C#, 1
	note C#, 1
	note C#, 1
	note C#, 1
	note C#, 1
	note C#, 1
	note C#, 1
	note C#, 1
	note C#, 1
	note C#, 1
	note C#, 1
	note C#, 1
	note C#, 1
	note C#, 1
	note C#, 1
	note C#, 1
	note C#, 1
	note C#, 1
	note C#, 1
	note C#, 1
	note C#, 1
	note C#, 1
	note C#, 1
	note C#, 1
	note C#, 1
	note C#, 1
	note C#, 1
	note C#, 1
	note C#, 1
	note C#, 1
	note C#, 1
	note C#, 1
	note C#, 1
	note C#, 1
	note C#, 1
	note C#, 1
	note C#, 1
	note C#, 1
	note C#, 1
	note C#, 1
	note C#, 1
	note C#, 1
	note C#, 1
	note C#, 1
	note C#, 1
	note C#, 1
	note C#, 1
	note C#, 1
	note C#, 1
	note C#, 1
	note C#, 1
	note C#, 1
	note C#, 1
	note C#, 1
	note C#, 1
	note C#, 1
	note C#, 1
	note C#, 1
	note C#, 1
	note C#, 1
	note C#, 1
	note C#, 1
	note C#, 1
	note C#, 1
	note C#, 1
	note C#, 1
	note C#, 1
	note C#, 1
	note C#, 1
	note C#, 1
	note C#, 1
	note C#, 1
	note C#, 1
	note C#, 1
	note C#, 1
	note C#, 1
	note C#, 1
	note C#, 1
	note C#, 1
	note C#, 1
	note C#, 1
	note C#, 1
	note C#, 1
	note C#, 1
	note C#, 1
	note C#, 1
	note C#, 1
	note C#, 1
	note C#, 1
	note C#, 1
	note C#, 1
	note C#, 1
	note C#, 1
	note C#, 1
	note C#, 1
	note C#, 1
	note C#, 1
	note C#, 1
	note C#, 1
	note C#, 1
	note C#, 1
	note C#, 1
	note C#, 1
	note C#, 1
	note C#, 1
	note C#, 1
	note C#, 1
	note C#, 1
	note C#, 1
	note C#, 1
	note C#, 1
	note C#, 1
	note C#, 1
	note C#, 1
	note C#, 1
	note C#, 1
	note C#, 1
	note C#, 1
	note C#, 1
	note C#, 1
	sound_ret

Music_Placeholder_Ch4:
	toggle_noise 1
	drum_speed 12
	rest 16
	toggle_noise
	toggle_noise 2
	drum_note 2, 1
	rest 1
	drum_note 11, 1
	drum_note 1, 1
	drum_note 4, 1
	rest 1
	drum_note 11, 2
	drum_note 4, 1
	rest 1
	drum_note 11, 2
	drum_note 4, 1
	rest 1
	drum_note 11, 2
	drum_note 1, 1
	rest 1
	drum_note 11, 1
	drum_note 1, 1
	drum_note 4, 1
	rest 1
	drum_note 11, 2
	drum_note 4, 1
	rest 1
	drum_note 11, 2
	drum_note 4, 1
	rest 1
	drum_note 11, 2
	drum_note 1, 1
	rest 1
	drum_note 11, 1
	drum_note 1, 1
	drum_note 4, 1
	rest 1
	drum_note 11, 2
	drum_note 4, 1
	rest 1
	drum_note 11, 2
	drum_note 4, 1
	rest 1
	drum_note 11, 2
	drum_note 1, 1
	rest 1
	drum_note 11, 1
	drum_note 1, 1
	drum_note 4, 1
	rest 1
	drum_note 11, 2
	drum_note 4, 1
	rest 1
	drum_note 11, 2
	drum_note 4, 1
	rest 1
	drum_note 11, 2
	drum_note 1, 1
	rest 1
	drum_note 11, 1
	drum_note 1, 1
	drum_note 4, 1
	rest 1
	drum_note 11, 2
	drum_note 4, 1
	rest 1
	drum_note 11, 2
	drum_note 4, 1
	rest 1
	drum_note 11, 2
	drum_note 1, 1
	rest 1
	drum_note 11, 1
	drum_note 1, 1
	drum_note 4, 1
	rest 1
	drum_note 11, 2
	drum_note 4, 1
	rest 1
	drum_note 11, 2
	drum_note 4, 1
	rest 1
	drum_note 11, 2
	drum_note 1, 1
	rest 1
	drum_note 11, 1
	drum_note 1, 1
	drum_note 4, 1
	rest 1
	drum_note 11, 2
	drum_note 4, 1
	rest 1
	drum_note 11, 2
	drum_note 4, 1
	rest 1
	drum_note 11, 2
	drum_note 4, 1
	rest 1
	drum_note 11, 1
	drum_note 1, 1
	drum_note 4, 1
	rest 1
	drum_note 11, 1
	drum_note 3, 1
	drum_note 4, 1
	drum_note 3, 1
	drum_note 3, 1
	drum_note 3, 1
	drum_note 4, 1
	rest 1
	drum_note 10, 1
	drum_note 3, 1
	drum_note 2, 1
	rest 1
	drum_note 11, 1
	drum_note 1, 1
	drum_note 4, 1
	rest 1
	drum_note 11, 2
	drum_note 4, 1
	rest 1
	drum_note 11, 2
	drum_note 4, 1
	rest 1
	drum_note 11, 2
	drum_note 4, 1
	rest 1
	drum_note 11, 1
	drum_note 1, 1
	drum_note 4, 1
	rest 1
	drum_note 11, 2
	drum_note 4, 1
	rest 1
	drum_note 11, 2
	drum_note 4, 1
	rest 1
	drum_note 11, 2
	drum_note 4, 1
	rest 1
	drum_note 11, 1
	drum_note 1, 1
	drum_note 4, 1
	rest 1
	drum_note 11, 2
	drum_note 4, 1
	rest 1
	drum_note 11, 2
	drum_note 4, 1
	rest 1
	drum_note 11, 2
	drum_note 4, 1
	rest 1
	drum_note 11, 1
	drum_note 1, 1
	drum_note 4, 1
	rest 1
	drum_note 11, 2
	drum_note 4, 1
	rest 1
	drum_note 11, 2
	drum_note 4, 1
	rest 1
	drum_note 11, 2
	drum_note 4, 1
	rest 1
	drum_note 11, 1
	drum_note 1, 1
	drum_note 4, 1
	rest 1
	drum_note 11, 2
	drum_note 4, 1
	rest 1
	drum_note 11, 2
	drum_note 4, 1
	rest 1
	drum_note 11, 2
	drum_note 4, 1
	rest 1
	drum_note 11, 1
	drum_note 1, 1
	drum_note 4, 1
	rest 1
	drum_note 11, 2
	drum_note 4, 1
	rest 1
	drum_note 11, 2
	drum_note 4, 1
	rest 1
	drum_note 11, 2
	drum_note 4, 1
	rest 1
	drum_note 11, 1
	drum_note 1, 1
	drum_note 4, 1
	rest 1
	drum_note 11, 2
	drum_note 4, 1
	rest 1
	drum_note 11, 2
	drum_note 4, 1
	rest 1
	drum_note 11, 2
	drum_note 2, 1
	drum_note 3, 1
	drum_note 3, 1
	drum_note 3, 1
	drum_note 4, 1
	drum_note 3, 1
	drum_note 10, 1
	drum_note 3, 1
	drum_note 1, 1
	drum_note 1, 1
	drum_note 1, 1
	drum_note 12, 1
	drum_note 2, 1
	drum_note 12, 1
	drum_note 10, 1
	drum_note 8, 1
	drum_note 2, 1
	rest 1
	drum_note 11, 1
	drum_note 1, 1
	drum_note 4, 1
	rest 1
	drum_note 11, 2
	drum_note 4, 1
	rest 1
	drum_note 11, 2
	drum_note 4, 1
	rest 1
	drum_note 11, 2
	drum_note 1, 1
	rest 1
	drum_note 11, 1
	drum_note 1, 1
	drum_note 4, 1
	rest 1
	drum_note 11, 2
	drum_note 4, 1
	rest 1
	drum_note 11, 2
	drum_note 4, 1
	rest 1
	drum_note 11, 2
	drum_note 1, 1
	rest 1
	drum_note 11, 1
	drum_note 1, 1
	drum_note 4, 1
	rest 1
	drum_note 11, 2
	drum_note 4, 1
	rest 1
	drum_note 11, 2
	drum_note 4, 1
	rest 1
	drum_note 11, 2
	drum_note 1, 1
	rest 1
	drum_note 11, 1
	drum_note 1, 1
	drum_note 4, 1
	rest 1
	drum_note 11, 2
	drum_note 4, 1
	rest 1
	drum_note 11, 2
	drum_note 4, 1
	rest 1
	drum_note 11, 2
	drum_note 1, 1
	rest 1
	drum_note 11, 1
	drum_note 1, 1
	drum_note 4, 1
	rest 1
	drum_note 11, 2
	drum_note 4, 1
	rest 1
	drum_note 11, 2
	drum_note 4, 1
	rest 1
	drum_note 11, 2
	drum_note 1, 1
	rest 1
	drum_note 11, 1
	drum_note 1, 1
	drum_note 4, 1
	rest 1
	drum_note 11, 2
	drum_note 4, 1
	rest 1
	drum_note 11, 2
	drum_note 4, 1
	rest 1
	drum_note 11, 2
	drum_note 1, 1
	rest 1
	drum_note 11, 1
	drum_note 1, 1
	drum_note 4, 1
	rest 1
	drum_note 11, 2
	drum_note 4, 1
	rest 1
	drum_note 11, 2
	drum_note 4, 1
	rest 1
	drum_note 11, 2
	drum_note 4, 1
	rest 1
	drum_note 11, 1
	drum_note 1, 1
	drum_note 4, 1
	rest 1
	drum_note 11, 1
	drum_note 3, 1
	drum_note 4, 1
	drum_note 3, 1
	drum_note 3, 1
	drum_note 3, 1
	drum_note 4, 1
	drum_note 7, 1
	drum_note 10, 1
	drum_note 3, 1
	drum_note 2, 1
	drum_note 7, 1
	drum_note 11, 1
	drum_note 1, 1
	drum_note 4, 1
	drum_note 7, 1
	drum_note 11, 2
	drum_note 4, 1
	drum_note 7, 1
	drum_note 11, 2
	drum_note 4, 1
	drum_note 7, 1
	drum_note 11, 2
	drum_note 4, 1
	drum_note 7, 1
	drum_note 11, 1
	drum_note 1, 1
	drum_note 4, 1
	drum_note 7, 1
	drum_note 11, 2
	drum_note 4, 1
	drum_note 7, 1
	drum_note 11, 2
	drum_note 4, 1
	drum_note 7, 1
	drum_note 11, 2
	drum_note 4, 1
	drum_note 7, 1
	drum_note 11, 1
	drum_note 1, 1
	drum_note 4, 1
	drum_note 7, 1
	drum_note 11, 2
	drum_note 4, 1
	drum_note 7, 1
	drum_note 11, 2
	drum_note 4, 1
	drum_note 7, 1
	drum_note 11, 2
	drum_note 4, 1
	drum_note 7, 1
	drum_note 11, 1
	drum_note 1, 1
	drum_note 4, 1
	drum_note 7, 1
	drum_note 11, 2
	drum_note 4, 1
	drum_note 7, 1
	drum_note 11, 2
	drum_note 4, 1
	drum_note 7, 1
	drum_note 11, 2
	drum_note 4, 1
	drum_note 7, 1
	drum_note 11, 1
	drum_note 1, 1
	drum_note 4, 1
	drum_note 7, 1
	drum_note 11, 2
	drum_note 4, 1
	drum_note 7, 1
	drum_note 11, 2
	drum_note 4, 1
	drum_note 7, 1
	drum_note 11, 2
	drum_note 4, 1
	drum_note 7, 1
	drum_note 11, 1
	drum_note 1, 1
	drum_note 4, 1
	drum_note 7, 1
	drum_note 11, 2
	drum_note 4, 1
	drum_note 7, 1
	drum_note 11, 2
	drum_note 4, 1
	drum_note 7, 1
	drum_note 11, 2
	drum_note 4, 1
	drum_note 7, 1
	drum_note 11, 1
	drum_note 1, 1
	drum_note 4, 1
	drum_note 7, 1
	drum_note 11, 2
	drum_note 4, 1
	drum_note 7, 1
	drum_note 11, 2
	drum_note 4, 1
	drum_note 7, 1
	drum_note 11, 2
	drum_note 2, 1
	drum_note 3, 1
	drum_note 3, 1
	drum_note 3, 1
	drum_note 4, 1
	drum_note 3, 1
	drum_note 10, 1
	drum_note 3, 1
	drum_note 1, 1
	drum_note 1, 1
	drum_note 1, 1
	drum_note 12, 1
	drum_note 2, 1
	drum_note 12, 1
	drum_note 10, 1
	drum_note 8, 1
	drum_note 2, 1
	drum_note 7, 1
	drum_note 11, 1
	drum_note 1, 1
	drum_note 4, 1
	drum_note 7, 1
	drum_note 11, 2
	drum_note 4, 1
	drum_note 7, 1
	drum_note 11, 2
	drum_note 4, 1
	drum_note 7, 1
	drum_note 11, 2
	drum_note 1, 1
	drum_note 7, 1
	drum_note 11, 1
	drum_note 1, 1
	drum_note 4, 1
	drum_note 7, 1
	drum_note 11, 2
	drum_note 4, 1
	drum_note 7, 1
	drum_note 11, 2
	drum_note 4, 1
	drum_note 7, 1
	drum_note 11, 2
	drum_note 1, 1
	drum_note 7, 1
	drum_note 11, 1
	drum_note 1, 1
	drum_note 4, 1
	drum_note 7, 1
	drum_note 11, 2
	drum_note 4, 1
	drum_note 7, 1
	drum_note 11, 2
	drum_note 4, 1
	drum_note 7, 1
	drum_note 11, 2
	drum_note 1, 1
	drum_note 7, 1
	drum_note 11, 1
	drum_note 1, 1
	drum_note 4, 1
	drum_note 7, 1
	drum_note 11, 2
	drum_note 4, 1
	drum_note 7, 1
	drum_note 11, 2
	drum_note 4, 1
	drum_note 7, 1
	drum_note 11, 2
	drum_note 1, 1
	drum_note 7, 1
	drum_note 11, 1
	drum_note 1, 1
	drum_note 4, 1
	drum_note 7, 1
	drum_note 11, 2
	drum_note 4, 1
	drum_note 7, 1
	drum_note 11, 2
	drum_note 4, 1
	drum_note 7, 1
	drum_note 11, 2
	drum_note 1, 1
	drum_note 7, 1
	drum_note 11, 1
	drum_note 1, 1
	drum_note 4, 1
	drum_note 7, 1
	drum_note 11, 2
	drum_note 4, 1
	drum_note 7, 1
	drum_note 11, 2
	drum_note 4, 1
	drum_note 7, 1
	drum_note 11, 2
	drum_note 1, 1
	drum_note 7, 1
	drum_note 11, 1
	drum_note 1, 1
	drum_note 4, 1
	drum_note 7, 1
	drum_note 11, 2
	drum_note 4, 1
	drum_note 7, 1
	drum_note 11, 2
	drum_note 4, 1
	drum_note 7, 1
	drum_note 11, 2
	drum_note 4, 1
	drum_note 7, 1
	drum_note 11, 1
	drum_note 1, 1
	drum_note 4, 1
	drum_note 7, 1
	drum_note 11, 1
	drum_note 3, 1
	drum_note 4, 1
	drum_note 3, 1
	drum_note 3, 1
	drum_note 3, 1
	drum_note 4, 1
	drum_note 7, 1
	drum_note 10, 1
	drum_note 3, 1
	drum_note 2, 1
	drum_note 7, 1
	drum_note 11, 1
	drum_note 1, 1
	drum_note 4, 1
	drum_note 7, 1
	drum_note 11, 2
	drum_note 4, 1
	drum_note 7, 1
	drum_note 11, 2
	drum_note 4, 1
	drum_note 7, 1
	drum_note 11, 2
	drum_note 4, 1
	drum_note 7, 1
	drum_note 11, 1
	drum_note 1, 1
	drum_note 4, 1
	drum_note 7, 1
	drum_note 11, 2
	drum_note 4, 1
	drum_note 7, 1
	drum_note 11, 2
	drum_note 4, 1
	drum_note 7, 1
	drum_note 11, 2
	drum_note 4, 1
	drum_note 7, 1
	drum_note 11, 1
	drum_note 1, 1
	drum_note 4, 1
	drum_note 7, 1
	drum_note 11, 2
	drum_note 4, 1
	drum_note 7, 1
	drum_note 11, 2
	drum_note 4, 1
	drum_note 7, 1
	drum_note 11, 2
	drum_note 4, 1
	drum_note 7, 1
	drum_note 11, 1
	drum_note 1, 1
	drum_note 4, 1
	drum_note 7, 1
	drum_note 11, 2
	drum_note 4, 1
	drum_note 7, 1
	drum_note 11, 2
	drum_note 4, 1
	drum_note 7, 1
	drum_note 11, 2
	drum_note 4, 1
	drum_note 7, 1
	drum_note 11, 1
	drum_note 1, 1
	drum_note 4, 1
	drum_note 7, 1
	drum_note 11, 2
	drum_note 4, 1
	drum_note 7, 1
	drum_note 11, 2
	drum_note 4, 1
	drum_note 7, 1
	drum_note 11, 2
	drum_note 4, 1
	drum_note 7, 1
	drum_note 11, 1
	drum_note 1, 1
	drum_note 4, 1
	drum_note 7, 1
	drum_note 11, 2
	drum_note 4, 1
	drum_note 7, 1
	drum_note 11, 2
	drum_note 4, 1
	drum_note 7, 1
	drum_note 11, 2
	drum_note 4, 1
	drum_note 7, 1
	drum_note 11, 1
	drum_note 1, 1
	drum_note 4, 1
	drum_note 7, 1
	drum_note 11, 2
	drum_note 4, 1
	drum_note 7, 1
	drum_note 11, 2
	drum_note 4, 1
	drum_note 7, 1
	drum_note 11, 2
	drum_note 2, 1
	drum_note 3, 1
	drum_note 3, 1
	drum_note 3, 1
	drum_note 4, 1
	drum_note 3, 1
	drum_note 10, 1
	drum_note 3, 1
	drum_note 1, 1
	drum_note 1, 1
	drum_note 1, 1
	drum_note 12, 1
	drum_note 2, 1
	drum_note 12, 1
	drum_note 10, 1
	drum_note 8, 1
	drum_note 2, 1
	drum_note 7, 1
	drum_note 11, 1
	drum_note 1, 1
	drum_note 4, 1
	drum_note 7, 1
	drum_note 11, 2
	drum_note 4, 1
	drum_note 7, 1
	drum_note 11, 2
	drum_note 4, 1
	drum_note 7, 1
	drum_note 11, 2
	drum_note 1, 1
	drum_note 7, 1
	drum_note 11, 1
	drum_note 1, 1
	drum_note 4, 1
	drum_note 7, 1
	drum_note 11, 2
	drum_note 4, 1
	drum_note 7, 1
	drum_note 11, 2
	drum_note 4, 1
	drum_note 7, 1
	drum_note 11, 2
	drum_note 1, 1
	drum_note 7, 1
	drum_note 11, 1
	drum_note 1, 1
	drum_note 4, 1
	drum_note 7, 1
	drum_note 11, 2
	drum_note 4, 1
	drum_note 7, 1
	drum_note 11, 2
	drum_note 4, 1
	drum_note 7, 1
	drum_note 11, 2
	drum_note 1, 1
	drum_note 7, 1
	drum_note 11, 1
	drum_note 1, 1
	drum_note 4, 1
	drum_note 7, 1
	drum_note 11, 2
	drum_note 4, 1
	drum_note 7, 1
	drum_note 11, 2
	drum_note 4, 1
	drum_note 7, 1
	drum_note 11, 2
	drum_note 1, 1
	drum_note 7, 1
	drum_note 11, 1
	drum_note 1, 1
	drum_note 4, 1
	drum_note 7, 1
	drum_note 11, 2
	drum_note 4, 1
	drum_note 7, 1
	drum_note 11, 2
	drum_note 4, 1
	drum_note 7, 1
	drum_note 11, 2
	drum_note 1, 1
	drum_note 7, 1
	drum_note 11, 1
	drum_note 1, 1
	drum_note 4, 1
	drum_note 7, 1
	drum_note 11, 2
	drum_note 4, 1
	drum_note 7, 1
	drum_note 11, 2
	drum_note 4, 1
	drum_note 7, 1
	drum_note 11, 2
	drum_note 1, 1
	drum_note 7, 1
	drum_note 11, 1
	drum_note 1, 1
	drum_note 4, 1
	drum_note 7, 1
	drum_note 11, 2
	drum_note 4, 1
	drum_note 7, 1
	drum_note 11, 2
	drum_note 4, 1
	drum_note 7, 1
	drum_note 11, 2
	drum_note 4, 1
	drum_note 7, 1
	drum_note 11, 1
	drum_note 1, 1
	drum_note 4, 1
	drum_note 7, 1
	drum_note 11, 1
	drum_note 3, 1
	drum_note 4, 1
	drum_note 3, 1
	drum_note 3, 1
	drum_note 3, 1
	drum_note 4, 1
	drum_note 7, 1
	drum_note 10, 1
	drum_note 3, 1
	drum_note 2, 1
	drum_note 7, 1
	drum_note 11, 1
	drum_note 1, 1
	drum_note 4, 1
	drum_note 7, 1
	drum_note 11, 2
	drum_note 4, 1
	drum_note 7, 1
	drum_note 11, 2
	drum_note 4, 1
	drum_note 7, 1
	drum_note 11, 2
	drum_note 4, 1
	drum_note 7, 1
	drum_note 11, 1
	drum_note 1, 1
	drum_note 4, 1
	drum_note 7, 1
	drum_note 11, 2
	drum_note 4, 1
	drum_note 7, 1
	drum_note 11, 2
	drum_note 4, 1
	drum_note 7, 1
	drum_note 11, 2
	drum_note 4, 1
	drum_note 7, 1
	drum_note 11, 1
	drum_note 1, 1
	drum_note 4, 1
	drum_note 7, 1
	drum_note 11, 2
	drum_note 4, 1
	drum_note 7, 1
	drum_note 11, 2
	drum_note 4, 1
	drum_note 7, 1
	drum_note 11, 2
	drum_note 4, 1
	drum_note 7, 1
	drum_note 11, 1
	drum_note 1, 1
	drum_note 4, 1
	drum_note 7, 1
	drum_note 11, 2
	drum_note 4, 1
	drum_note 7, 1
	drum_note 11, 2
	drum_note 4, 1
	drum_note 7, 1
	drum_note 11, 2
	drum_note 4, 1
	drum_note 7, 1
	drum_note 11, 1
	drum_note 1, 1
	drum_note 4, 1
	drum_note 7, 1
	drum_note 11, 2
	drum_note 4, 1
	drum_note 7, 1
	drum_note 11, 2
	drum_note 4, 1
	drum_note 7, 1
	drum_note 11, 2
	drum_note 4, 1
	drum_note 7, 1
	drum_note 11, 1
	drum_note 1, 1
	drum_note 4, 1
	drum_note 7, 1
	drum_note 11, 2
	drum_note 4, 1
	drum_note 7, 1
	drum_note 11, 2
	drum_note 4, 1
	drum_note 7, 1
	drum_note 11, 2
	drum_note 4, 1
	drum_note 7, 1
	drum_note 11, 1
	drum_note 1, 1
	drum_note 4, 1
	drum_note 7, 1
	drum_note 11, 2
	drum_note 4, 1
	drum_note 7, 1
	drum_note 11, 2
	drum_note 4, 1
	drum_note 7, 1
	drum_note 11, 2
	drum_note 2, 1
	drum_note 3, 1
	drum_note 3, 1
	drum_note 3, 1
	drum_note 4, 1
	drum_note 3, 1
	drum_note 10, 1
	drum_note 3, 1
	drum_note 1, 1
	drum_note 1, 1
	drum_note 1, 1
	drum_note 12, 1
	drum_note 2, 1
	drum_note 12, 1
	drum_note 10, 1
	drum_note 8, 1
	drum_note 2, 1
	drum_note 7, 1
	drum_note 11, 1
	drum_note 1, 1
	drum_note 4, 1
	drum_note 7, 1
	drum_note 11, 2
	drum_note 4, 1
	drum_note 7, 1
	drum_note 11, 2
	drum_note 4, 1
	drum_note 7, 1
	drum_note 11, 2
	drum_note 1, 1
	drum_note 7, 1
	drum_note 11, 1
	drum_note 1, 1
	drum_note 4, 1
	drum_note 7, 1
	drum_note 11, 2
	drum_note 4, 1
	drum_note 7, 1
	drum_note 11, 2
	drum_note 4, 1
	drum_note 7, 1
	drum_note 11, 2
	drum_note 1, 1
	drum_note 7, 1
	drum_note 11, 1
	drum_note 1, 1
	drum_note 4, 1
	drum_note 7, 1
	drum_note 11, 2
	drum_note 4, 1
	drum_note 7, 1
	drum_note 11, 2
	drum_note 4, 1
	drum_note 7, 1
	drum_note 11, 2
	drum_note 1, 1
	drum_note 7, 1
	drum_note 11, 1
	drum_note 1, 1
	drum_note 4, 1
	drum_note 7, 1
	drum_note 11, 2
	drum_note 4, 1
	drum_note 7, 1
	drum_note 11, 2
	drum_note 4, 1
	drum_note 7, 1
	drum_note 11, 2
	drum_note 1, 1
	drum_note 7, 1
	drum_note 11, 1
	drum_note 1, 1
	drum_note 4, 1
	drum_note 7, 1
	drum_note 11, 2
	drum_note 4, 1
	drum_note 7, 1
	drum_note 11, 2
	drum_note 4, 1
	drum_note 7, 1
	drum_note 11, 2
	drum_note 1, 1
	drum_note 7, 1
	drum_note 11, 1
	drum_note 1, 1
	drum_note 4, 1
	drum_note 7, 1
	drum_note 11, 2
	drum_note 4, 1
	drum_note 7, 1
	drum_note 11, 2
	drum_note 4, 1
	drum_note 7, 1
	drum_note 11, 2
	drum_note 1, 1
	drum_note 7, 1
	drum_note 11, 1
	drum_note 1, 1
	drum_note 4, 1
	drum_note 7, 1
	drum_note 11, 2
	drum_note 4, 1
	drum_note 7, 1
	drum_note 11, 2
	drum_note 4, 1
	drum_note 7, 1
	drum_note 11, 2
	drum_note 4, 1
	drum_note 7, 1
	drum_note 11, 1
	drum_note 1, 1
	drum_note 4, 1
	drum_note 7, 1
	drum_note 11, 1
	drum_note 3, 1
	drum_note 4, 1
	drum_note 3, 1
	drum_note 3, 1
	drum_note 3, 1
	drum_note 4, 1
	drum_note 7, 1
	drum_note 10, 1
	drum_note 3, 1
	drum_note 2, 1
	drum_note 7, 1
	drum_note 11, 1
	drum_note 1, 1
	drum_note 4, 1
	drum_note 7, 1
	drum_note 11, 2
	drum_note 4, 1
	drum_note 7, 1
	drum_note 11, 2
	drum_note 4, 1
	drum_note 7, 1
	drum_note 11, 2
	drum_note 4, 1
	drum_note 7, 1
	drum_note 11, 1
	drum_note 1, 1
	drum_note 4, 1
	drum_note 7, 1
	drum_note 11, 2
	drum_note 4, 1
	drum_note 7, 1
	drum_note 11, 2
	drum_note 4, 1
	drum_note 7, 1
	drum_note 11, 2
	drum_note 4, 1
	drum_note 7, 1
	drum_note 11, 1
	drum_note 1, 1
	drum_note 4, 1
	drum_note 7, 1
	drum_note 11, 2
	drum_note 4, 1
	drum_note 7, 1
	drum_note 11, 2
	drum_note 4, 1
	drum_note 7, 1
	drum_note 11, 2
	drum_note 4, 1
	drum_note 7, 1
	drum_note 11, 1
	drum_note 1, 1
	drum_note 4, 1
	drum_note 7, 1
	drum_note 11, 2
	drum_note 4, 1
	drum_note 7, 1
	drum_note 11, 2
	drum_note 4, 1
	drum_note 7, 1
	drum_note 11, 2
	drum_note 4, 1
	drum_note 7, 1
	drum_note 11, 1
	drum_note 1, 1
	drum_note 4, 1
	drum_note 7, 1
	drum_note 11, 2
	drum_note 4, 1
	drum_note 7, 1
	drum_note 11, 2
	drum_note 4, 1
	drum_note 7, 1
	drum_note 11, 2
	drum_note 4, 1
	drum_note 7, 1
	drum_note 11, 1
	drum_note 1, 1
	drum_note 4, 1
	drum_note 7, 1
	drum_note 11, 2
	drum_note 4, 1
	drum_note 7, 1
	drum_note 11, 2
	drum_note 4, 1
	drum_note 7, 1
	drum_note 11, 2
	drum_note 4, 1
	drum_note 7, 1
	drum_note 11, 1
	drum_note 1, 1
	drum_note 4, 1
	drum_note 7, 1
	drum_note 11, 2
	drum_note 4, 1
	drum_note 7, 1
	drum_note 11, 2
	drum_note 4, 1
	drum_note 7, 1
	drum_note 11, 2
	drum_note 2, 1
	drum_note 3, 1
	drum_note 3, 1
	drum_note 3, 1
	drum_note 4, 1
	drum_note 3, 1
	drum_note 10, 1
	drum_note 3, 1
	drum_note 1, 1
	drum_note 1, 1
	drum_note 1, 1
	drum_note 12, 1
	drum_note 2, 1
	drum_note 12, 1
	drum_note 10, 1
	drum_note 8, 1
	drum_note 2, 1
	drum_note 7, 1
	drum_note 11, 1
	drum_note 1, 1
	drum_note 4, 1
	drum_note 7, 1
	drum_note 11, 2
	drum_note 4, 1
	drum_note 7, 1
	drum_note 11, 2
	drum_note 4, 1
	drum_note 7, 1
	drum_note 11, 2
	drum_note 1, 1
	drum_note 7, 1
	drum_note 11, 1
	drum_note 1, 1
	drum_note 4, 1
	drum_note 7, 1
	drum_note 11, 2
	drum_note 4, 1
	drum_note 7, 1
	drum_note 11, 2
	drum_note 4, 1
	drum_note 7, 1
	drum_note 11, 2
	drum_note 1, 1
	drum_note 7, 1
	drum_note 11, 1
	drum_note 1, 1
	drum_note 4, 1
	drum_note 7, 1
	drum_note 11, 2
	drum_note 4, 1
	drum_note 7, 1
	drum_note 11, 2
	drum_note 4, 1
	drum_note 7, 1
	drum_note 11, 2
	drum_note 1, 1
	drum_note 7, 1
	drum_note 11, 1
	drum_note 1, 1
	drum_note 4, 1
	drum_note 7, 1
	drum_note 11, 2
	drum_note 4, 1
	drum_note 7, 1
	drum_note 11, 2
	drum_note 4, 1
	drum_note 7, 1
	drum_note 11, 2
	drum_note 1, 1
	drum_note 7, 1
	drum_note 11, 1
	drum_note 1, 1
	drum_note 4, 1
	drum_note 7, 1
	drum_note 11, 2
	drum_note 4, 1
	drum_note 7, 1
	drum_note 11, 2
	drum_note 4, 1
	drum_note 7, 1
	drum_note 11, 2
	drum_note 1, 1
	drum_note 7, 1
	drum_note 11, 1
	drum_note 1, 1
	drum_note 4, 1
	drum_note 7, 1
	drum_note 11, 2
	drum_note 4, 1
	drum_note 7, 1
	drum_note 11, 2
	drum_note 4, 1
	drum_note 7, 1
	drum_note 11, 2
	drum_note 1, 1
	drum_note 7, 1
	drum_note 11, 1
	drum_note 1, 1
	drum_note 4, 1
	drum_note 7, 1
	drum_note 11, 2
	drum_note 4, 1
	drum_note 7, 1
	drum_note 11, 2
	drum_note 4, 1
	drum_note 7, 1
	drum_note 11, 2
	drum_note 4, 1
	drum_note 7, 1
	drum_note 11, 1
	drum_note 1, 1
	drum_note 4, 1
	drum_note 7, 1
	drum_note 11, 1
	drum_note 3, 1
	drum_note 4, 1
	drum_note 3, 1
	drum_note 3, 1
	drum_note 3, 1
	drum_note 4, 1
	drum_note 7, 1
	drum_note 10, 1
	drum_note 3, 1
	drum_note 2, 1
	drum_note 7, 1
	drum_note 11, 1
	drum_note 1, 1
	drum_note 4, 1
	drum_note 7, 1
	drum_note 11, 2
	drum_note 4, 1
	drum_note 7, 1
	drum_note 11, 2
	drum_note 4, 1
	drum_note 7, 1
	drum_note 11, 2
	drum_note 4, 1
	drum_note 7, 1
	drum_note 11, 1
	drum_note 1, 1
	drum_note 4, 1
	drum_note 7, 1
	drum_note 11, 2
	drum_note 4, 1
	drum_note 7, 1
	drum_note 11, 2
	drum_note 4, 1
	drum_note 7, 1
	drum_note 11, 2
	drum_note 4, 1
	drum_note 7, 1
	drum_note 11, 1
	drum_note 1, 1
	drum_note 4, 1
	drum_note 7, 1
	drum_note 11, 2
	drum_note 4, 1
	drum_note 7, 1
	drum_note 11, 2
	drum_note 4, 1
	drum_note 7, 1
	drum_note 11, 2
	drum_note 4, 1
	drum_note 7, 1
	drum_note 11, 1
	drum_note 1, 1
	drum_note 4, 1
	drum_note 7, 1
	drum_note 11, 2
	drum_note 4, 1
	drum_note 7, 1
	drum_note 11, 2
	drum_note 4, 1
	drum_note 7, 1
	drum_note 11, 2
	drum_note 4, 1
	drum_note 7, 1
	drum_note 11, 1
	drum_note 1, 1
	drum_note 4, 1
	drum_note 7, 1
	drum_note 11, 2
	drum_note 4, 1
	drum_note 7, 1
	drum_note 11, 2
	drum_note 4, 1
	drum_note 7, 1
	drum_note 11, 2
	drum_note 4, 1
	drum_note 7, 1
	drum_note 11, 1
	drum_note 1, 1
	drum_note 4, 1
	drum_note 7, 1
	drum_note 11, 2
	drum_note 4, 1
	drum_note 7, 1
	drum_note 11, 2
	drum_note 4, 1
	drum_note 7, 1
	drum_note 11, 2
	drum_note 4, 1
	drum_note 7, 1
	drum_note 11, 1
	drum_note 1, 1
	drum_note 4, 1
	drum_note 7, 1
	drum_note 11, 2
	drum_note 4, 1
	drum_note 7, 1
	drum_note 11, 2
	drum_note 4, 1
	drum_note 7, 1
	drum_note 11, 2
	drum_note 2, 1
	drum_note 3, 1
	drum_note 3, 1
	drum_note 3, 1
	drum_note 4, 1
	drum_note 3, 1
	drum_note 10, 1
	drum_note 3, 1
	drum_note 1, 1
	drum_note 1, 1
	drum_note 1, 1
	drum_note 12, 1
	drum_note 2, 1
	drum_note 12, 1
	drum_note 10, 1
	drum_note 8, 1
	sound_ret
