Music_Onward:
	channel_count 4
	channel 1, Music_Onward_Ch1
	channel 2, Music_Onward_Ch2
	channel 3, Music_Onward_Ch3
	channel 4, Music_Onward_Ch4

Music_Onward_Ch1:
	volume 7, 7
	note_type 12, 10, 7
	tempo 191
.mainloop:
	rest 16
	rest 16
	rest 16
	rest 16
	rest 2
	octave 4
	duty_cycle 2
	volume_envelope 11, 7
	note A_, 1
	note A_, 1
	note A_, 1
	note G_, 1
	note F_, 1
	note G_, 3
	note A_, 4
	rest 4
	note G_, 1
	note G_, 1
	note G_, 1
	note F_, 1
	note A_, 5
	rest 6
	note G_, 1
	note G_, 1
	note G_, 1
	note G_, 1
	note F_, 1
	note G_, 1
	note F_, 1
	note G_, 2
	note A_, 4
	note F_, 2
	note G_, 2
	note A_, 1
	note F_, 2
	note G_, 1
	note F_, 1
	note D_, 7
	rest 4
	note A_, 1
	note A_, 1
	note A_, 1
	note G_, 1
	note F_, 1
	note G_, 3
	note A_, 5
	note A_, 1
	octave 5
	note C_, 2
	octave 4
	note A_, 1
	note G_, 2
	note F_, 1
	note G_, 6
	rest 5
	note G_, 1
	note G_, 1
	note G_, 1
	note G_, 1
	note F_, 1
	note G_, 1
	note F_, 1
	note G_, 2
	note A_, 4
	note F_, 2
	note G_, 2
	note A_, 1
	note F_, 2
	note G_, 1
	note F_, 1
	note D_, 7
	rest 4
	note D_, 1
	note D_, 1
	note D_, 1
	note D_, 3
	note E_, 1
	note D_, 1
	note C_, 9
	rest 15
	octave 3
	note A_, 1
	note A_, 1
	octave 4
	note D_, 1
	note D_, 3
	note D_, 8
	rest 16
	rest 10
	note A_, 1
	note A_, 1
	note A_, 1
	note G_, 1
	note F_, 1
	note G_, 3
	note A_, 4
	rest 4
	note G_, 1
	note G_, 1
	note G_, 1
	note F_, 1
	note A_, 5
	rest 6
	note G_, 1
	note G_, 1
	note G_, 1
	note G_, 1
	note F_, 1
	note G_, 1
	note F_, 1
	note G_, 2
	note A_, 4
	note F_, 2
	note G_, 2
	note A_, 1
	note F_, 2
	note G_, 1
	note F_, 1
	note D_, 7
	rest 4
	note A_, 1
	note A_, 1
	note A_, 1
	note G_, 1
	note F_, 1
	note G_, 3
	note A_, 5
	note A_, 1
	octave 5
	note C_, 2
	octave 4
	note A_, 1
	note G_, 2
	note F_, 1
	note G_, 6
	rest 5
	note G_, 1
	note G_, 1
	note G_, 1
	note G_, 1
	note F_, 1
	note G_, 1
	note F_, 1
	note G_, 2
	note A_, 4
	note F_, 2
	note G_, 2
	note A_, 1
	note F_, 2
	note G_, 1
	note F_, 1
	note D_, 7
	rest 4
	note D_, 1
	note D_, 1
	note D_, 1
	note D_, 3
	note E_, 1
	note D_, 1
	note C_, 9
	rest 15
	octave 3
	note A_, 1
	note A_, 1
	octave 4
	note D_, 1
	note D_, 3
	note D_, 12
	note A_, 1
	octave 5
	note C_, 2
	rest 1
	note D_, 3
	note C_, 1
	octave 4
	note A#, 4
	rest 2
	octave 5
	note D_, 2
	note C_, 1
	note D_, 3
	octave 4
	note A_, 9
	note D_, 1
	note D_, 1
	note D_, 1
	note F_, 2
	note G_, 2
	note A_, 1
	note G_, 5
	rest 4
	note A_, 1
	note A_, 1
	note G_, 2
	note F_, 2
	note A_, 11
	rest 1
	note A_, 1
	octave 5
	note C_, 3
	note D_, 3
	note C_, 1
	octave 4
	note A#, 4
	rest 2
	octave 5
	note D_, 2
	note C_, 1
	note D_, 3
	octave 4
	note A_, 9
	note D_, 1
	note D_, 1
	note D_, 1
	note F_, 2
	note G_, 2
	note A_, 1
	note G_, 5
	rest 4
	note A_, 1
	note A_, 1
	note G_, 2
	note F_, 2
	note D_, 11
	rest 16
	rest 16
	rest 16
	rest 7
	note A_, 1
	note A_, 1
	note A_, 1
	note G_, 1
	note F_, 1
	note G_, 3
	note A_, 4
	rest 4
	note G_, 1
	note G_, 1
	note G_, 1
	note F_, 1
	note A_, 5
	rest 6
	note G_, 1
	note G_, 1
	note G_, 1
	note G_, 1
	note F_, 1
	note G_, 1
	note F_, 1
	note G_, 2
	note A_, 4
	note F_, 2
	note G_, 2
	note A_, 1
	note F_, 2
	note G_, 1
	note F_, 1
	note D_, 7
	rest 4
	note A_, 1
	note A_, 1
	note A_, 1
	note G_, 1
	note F_, 1
	note G_, 3
	note A_, 5
	note A_, 1
	octave 5
	note C_, 2
	octave 4
	note A_, 1
	note G_, 2
	note F_, 1
	note G_, 6
	rest 5
	note G_, 1
	note G_, 1
	note G_, 1
	note G_, 1
	note F_, 1
	note G_, 1
	note F_, 1
	note G_, 2
	note A_, 4
	note F_, 2
	note G_, 2
	note A_, 1
	note F_, 2
	note G_, 1
	note F_, 1
	note D_, 7
	rest 4
	note D_, 1
	note D_, 1
	note D_, 1
	note D_, 3
	note E_, 1
	note D_, 1
	note C_, 9
	rest 15
	octave 3
	note A_, 1
	note A_, 1
	octave 4
	note D_, 1
	note D_, 3
	note D_, 11
	rest 16
	note G_, 1
	note A_, 1
	octave 5
	note C_, 2
	rest 1
	note D_, 3
	note C_, 1
	octave 4
	note A#, 4
	rest 2
	octave 5
	note D_, 2
	note C_, 1
	note D_, 3
	octave 4
	note A_, 9
	note D_, 1
	note D_, 1
	note D_, 1
	note F_, 2
	note G_, 2
	note A_, 1
	note G_, 5
	rest 4
	note A_, 1
	note A_, 1
	note G_, 2
	note F_, 2
	note A_, 11
	rest 1
	note A_, 1
	octave 5
	note C_, 3
	note D_, 3
	note C_, 1
	octave 4
	note A#, 4
	rest 2
	octave 5
	note D_, 2
	note C_, 1
	note D_, 3
	octave 4
	note A_, 9
	note D_, 1
	note D_, 1
	note D_, 1
	note F_, 2
	note G_, 2
	note A_, 1
	note G_, 5
	rest 4
	note A_, 1
	note A_, 1
	note G_, 2
	note F_, 2
	note D_, 15
	rest 16
	rest 16
	rest 16
	rest 16
	rest 16
	rest 16
	rest 16
	rest 1
	sound_loop 0, .mainloop

Music_Onward_Ch2:
	note_type 12, 9, 7
.mainloop:
	octave 2
	duty_cycle 0
	volume_envelope 10, 7
	note D_, 1
	note A_, 1
	octave 3
	note D_, 1
	octave 2
	note D_, 1
	octave 3
	note D_, 1
	note D_, 1
	octave 2
	note D_, 1
	note A_, 1
	octave 3
	note D_, 1
	octave 2
	note D_, 1
	note A_, 1
	octave 3
	note E_, 1
	note C_, 1
	octave 2
	note D_, 1
	note A_, 1
	octave 3
	note C_, 1
	octave 2
	note D_, 1
	note A_, 1
	octave 3
	note D_, 1
	octave 2
	note D_, 1
	octave 3
	note D_, 1
	note D_, 1
	octave 2
	note D_, 1
	note A_, 1
	octave 3
	note D_, 1
	octave 2
	note A_, 1
	note D_, 1
	octave 3
	note D_, 1
	note C_, 1
	octave 2
	note D_, 1
	note A_, 1
	octave 3
	note C_, 1
	octave 2
	note D_, 1
	note A_, 1
	octave 3
	note D_, 1
	octave 2
	note D_, 1
	octave 3
	note D_, 1
	note D_, 1
	octave 2
	note D_, 1
	note A_, 1
	octave 3
	note D_, 1
	octave 2
	note D_, 1
	note A_, 1
	octave 3
	note D_, 1
	note C_, 1
	octave 2
	note D_, 1
	note A_, 1
	octave 3
	note C_, 1
	octave 2
	note D_, 1
	note A_, 1
	octave 3
	note D_, 1
	octave 2
	note D_, 1
	octave 3
	note D_, 1
	note D_, 1
	octave 2
	note D_, 1
	note A_, 1
	octave 3
	note D_, 1
	octave 2
	note D_, 1
	note A_, 1
	note D_, 1
	octave 3
	note C_, 1
	octave 1
	note A_, 1
	octave 3
	note C_, 1
	octave 1
	note A_, 1
	octave 2
	note D_, 1
	note A_, 1
	octave 3
	note D_, 1
	note E_, 1
	octave 2
	note A_, 1
	octave 3
	note D_, 1
	note F_, 1
	note E_, 1
	octave 2
	note A_, 1
	octave 3
	note D_, 1
	note E_, 1
	octave 2
	note D_, 1
	note A_, 1
	octave 3
	note D_, 1
	note E_, 1
	note D_, 1
	octave 1
	note A#, 1
	octave 2
	note F_, 1
	note A#, 1
	octave 3
	note D_, 1
	octave 1
	note A#, 1
	octave 2
	note A#, 1
	rest 1
	octave 1
	note A#, 1
	octave 2
	note F_, 1
	note A#, 1
	octave 1
	note A#, 1
	octave 3
	note D_, 1
	octave 2
	note A#, 1
	octave 1
	note A#, 1
	octave 2
	note A_, 1
	note A#, 1
	octave 1
	note A_, 1
	octave 2
	note E_, 1
	note A_, 1
	octave 3
	note C#, 1
	octave 2
	note E_, 1
	octave 3
	note C#, 1
	octave 2
	note A_, 1
	note B_, 1
	note E_, 1
	octave 3
	note C#, 1
	octave 2
	note A_, 1
	note E_, 1
	octave 3
	note D_, 1
	note C#, 1
	octave 2
	note A_, 1
	note E_, 1
	octave 1
	note A_, 1
	octave 2
	note E_, 1
	note A_, 1
	octave 3
	note C#, 1
	octave 2
	note E_, 1
	octave 3
	note E_, 1
	note C#, 1
	octave 2
	note A_, 1
	note D_, 1
	note F_, 1
	note A_, 1
	octave 3
	note D_, 1
	note E_, 1
	note F_, 1
	note E_, 1
	note D_, 1
	octave 2
	note D_, 1
	note A_, 1
	octave 3
	note D_, 1
	note E_, 1
	octave 2
	note A_, 1
	octave 3
	note D_, 1
	note F_, 1
	note E_, 1
	octave 2
	note A_, 1
	octave 3
	note D_, 1
	note E_, 1
	octave 2
	note D_, 1
	note A_, 1
	octave 3
	note D_, 1
	note E_, 1
	note D_, 1
	octave 1
	note A#, 1
	octave 2
	note F_, 1
	note A#, 1
	octave 3
	note D_, 1
	octave 1
	note A#, 1
	octave 2
	note A#, 1
	rest 1
	octave 1
	note A#, 1
	octave 2
	note F_, 1
	note A#, 1
	octave 1
	note A#, 1
	octave 3
	note D_, 1
	octave 2
	note A#, 1
	octave 1
	note A#, 1
	octave 2
	note A_, 1
	note A#, 1
	octave 1
	note A_, 1
	octave 2
	note E_, 1
	note A_, 1
	octave 3
	note C#, 1
	octave 2
	note E_, 1
	octave 3
	note C#, 1
	octave 2
	note A_, 1
	note B_, 1
	note E_, 1
	octave 3
	note C#, 1
	octave 2
	note A_, 1
	note E_, 1
	octave 3
	note D_, 1
	note C#, 1
	octave 2
	note A_, 1
	note E_, 1
	octave 1
	note A_, 1
	octave 2
	note E_, 1
	note A_, 1
	octave 3
	note C#, 1
	octave 2
	note E_, 1
	octave 3
	note E_, 1
	note C#, 1
	octave 2
	note A_, 1
	note D_, 1
	note F_, 1
	note A_, 1
	octave 3
	note D_, 1
	note E_, 1
	note F_, 1
	note E_, 1
	note D_, 1
	octave 2
	note D_, 1
	note A_, 1
	octave 3
	note D_, 1
	note E_, 1
	note F_, 1
	note E_, 1
	note D_, 1
	octave 2
	note A_, 1
	note C_, 1
	note G_, 1
	octave 3
	note C_, 1
	note E_, 1
	octave 2
	note G_, 1
	octave 3
	note C_, 1
	note D_, 1
	octave 2
	note G_, 1
	octave 3
	note C_, 1
	note E_, 1
	octave 2
	note G_, 1
	octave 3
	note C_, 1
	octave 1
	note B_, 2
	octave 3
	note C_, 1
	note D_, 1
	rest 2
	octave 2
	note G_, 1
	octave 3
	note D_, 1
	octave 1
	note A_, 1
	octave 2
	note G_, 1
	octave 3
	note D_, 1
	octave 2
	note G_, 1
	octave 1
	note A_, 7
	rest 1
	octave 2
	note D_, 1
	note A_, 1
	octave 3
	note D_, 1
	octave 2
	note D_, 1
	octave 3
	note D_, 1
	note D_, 1
	octave 2
	note D_, 1
	note A_, 1
	octave 3
	note D_, 1
	octave 2
	note D_, 1
	note A_, 1
	octave 3
	note D_, 1
	note C_, 1
	octave 2
	note D_, 1
	note A_, 1
	octave 3
	note C_, 1
	octave 2
	note D_, 1
	note A_, 1
	octave 3
	note D_, 1
	octave 2
	note D_, 1
	octave 3
	note D_, 1
	note D_, 1
	octave 2
	note D_, 1
	note A_, 1
	octave 3
	note D_, 1
	octave 2
	note D_, 1
	note A_, 1
	note D_, 1
	octave 3
	note C_, 1
	octave 1
	note A_, 1
	octave 3
	note C_, 1
	octave 1
	note A_, 1
	octave 2
	note D_, 1
	note A_, 1
	octave 3
	note D_, 1
	note E_, 1
	octave 2
	note A_, 1
	octave 3
	note D_, 1
	note F_, 1
	note E_, 1
	octave 2
	note A_, 1
	octave 3
	note D_, 1
	note E_, 1
	octave 2
	note D_, 1
	note A_, 1
	octave 3
	note D_, 1
	note E_, 1
	note D_, 1
	octave 1
	note A#, 1
	octave 2
	note F_, 1
	note A#, 1
	octave 3
	note D_, 1
	octave 1
	note A#, 1
	octave 2
	note A#, 1
	rest 1
	octave 1
	note A#, 1
	octave 2
	note F_, 1
	note A#, 1
	octave 1
	note A#, 1
	octave 3
	note D_, 1
	octave 2
	note A#, 1
	octave 1
	note A#, 1
	octave 2
	note A_, 1
	note A#, 1
	octave 1
	note A_, 1
	octave 2
	note E_, 1
	note A_, 1
	octave 3
	note C#, 1
	octave 2
	note E_, 1
	octave 3
	note C#, 1
	octave 2
	note A_, 1
	note B_, 1
	note E_, 1
	octave 3
	note C#, 1
	octave 2
	note A_, 1
	note E_, 1
	octave 3
	note D_, 1
	note C#, 1
	octave 2
	note A_, 1
	note E_, 1
	octave 1
	note A_, 1
	octave 2
	note E_, 1
	note A_, 1
	octave 3
	note C#, 1
	octave 2
	note E_, 1
	octave 3
	note E_, 1
	note C#, 1
	octave 2
	note A_, 1
	note D_, 1
	note F_, 1
	note A_, 1
	octave 3
	note D_, 1
	note E_, 1
	note F_, 1
	note E_, 1
	note D_, 1
	octave 2
	note D_, 1
	note A_, 1
	octave 3
	note D_, 1
	note E_, 1
	octave 2
	note A_, 1
	octave 3
	note D_, 1
	note F_, 1
	note E_, 1
	octave 2
	note A_, 1
	octave 3
	note D_, 1
	note E_, 1
	octave 2
	note D_, 1
	note A_, 1
	octave 3
	note D_, 1
	note E_, 1
	note D_, 1
	octave 1
	note A#, 1
	octave 2
	note F_, 1
	note A#, 1
	octave 3
	note D_, 1
	octave 1
	note A#, 1
	octave 2
	note A#, 1
	rest 1
	octave 1
	note A#, 1
	octave 2
	note F_, 1
	note A#, 1
	octave 1
	note A#, 1
	octave 3
	note D_, 1
	octave 2
	note A#, 1
	octave 1
	note A#, 1
	octave 2
	note A_, 1
	note A#, 1
	octave 1
	note A_, 1
	octave 2
	note E_, 1
	note A_, 1
	octave 3
	note C#, 1
	octave 2
	note E_, 1
	octave 3
	note C#, 1
	octave 2
	note A_, 1
	note B_, 1
	note E_, 1
	octave 3
	note C#, 1
	octave 2
	note A_, 1
	note E_, 1
	octave 3
	note D_, 1
	note C#, 1
	octave 2
	note A_, 1
	note E_, 1
	octave 1
	note A_, 1
	octave 2
	note E_, 1
	note A_, 1
	octave 3
	note C#, 1
	octave 2
	note E_, 1
	octave 3
	note E_, 1
	note C#, 1
	octave 2
	note A_, 1
	note D_, 1
	note F_, 1
	note A_, 1
	octave 3
	note D_, 1
	note E_, 1
	note F_, 1
	note E_, 1
	note D_, 1
	octave 2
	note D_, 1
	note A_, 1
	octave 3
	note D_, 1
	note E_, 1
	note F_, 1
	note E_, 1
	note D_, 1
	octave 2
	note A_, 1
	note C_, 1
	note G_, 1
	octave 3
	note C_, 1
	note E_, 1
	octave 2
	note G_, 1
	octave 3
	note C_, 1
	note D_, 1
	octave 2
	note G_, 1
	octave 3
	note C_, 1
	note E_, 1
	octave 2
	note G_, 1
	octave 3
	note C_, 1
	octave 1
	note B_, 2
	octave 3
	note C_, 1
	note D_, 1
	rest 2
	octave 2
	note G_, 1
	octave 3
	note D_, 1
	octave 1
	note A_, 1
	octave 2
	note G_, 1
	octave 3
	note D_, 1
	octave 2
	note G_, 1
	octave 1
	note A_, 7
	rest 3
	octave 3
	note D_, 1
	rest 2
	note C_, 1
	octave 2
	rest 2
	note A_, 3
	note D_, 1
	note A_, 1
	note A_, 1
	octave 3
	note D_, 1
	octave 2
	note A_, 1
	octave 1
	note A#, 2
	octave 2
	note A#, 1
	octave 1
	note A#, 1
	octave 2
	note A#, 1
	rest 1
	octave 3
	note D_, 1
	rest 1
	octave 2
	note C_, 2
	octave 3
	note C_, 1
	octave 2
	note G_, 1
	octave 3
	note C_, 1
	rest 1
	note E_, 1
	rest 3
	note D_, 1
	rest 2
	note D_, 1
	rest 2
	note D_, 4
	rest 4
	octave 1
	note A#, 1
	rest 3
	octave 2
	note F_, 1
	octave 1
	note A#, 1
	octave 3
	note D_, 1
	rest 1
	octave 2
	note C_, 2
	octave 3
	note E_, 1
	octave 2
	note G_, 1
	octave 3
	note E_, 1
	rest 3
	octave 2
	note E_, 1
	rest 3
	note G_, 1
	note E_, 1
	rest 1
	note E_, 1
	octave 3
	note E_, 1
	rest 2
	note E_, 1
	rest 2
	note E_, 1
	rest 1
	octave 1
	note A#, 2
	octave 2
	note A#, 1
	octave 1
	note A#, 1
	octave 2
	note A#, 1
	rest 1
	octave 3
	note D_, 1
	rest 1
	octave 2
	note C_, 2
	octave 3
	note C_, 1
	octave 2
	note G_, 1
	octave 3
	note C_, 1
	rest 1
	note E_, 1
	rest 3
	note D_, 1
	rest 2
	note D_, 1
	rest 2
	note D_, 4
	rest 4
	note D_, 2
	octave 2
	note F_, 1
	octave 1
	note A#, 1
	octave 3
	note D_, 1
	rest 3
	octave 2
	note C_, 6
	rest 2
	note D_, 1
	note A_, 1
	octave 3
	note D_, 1
	octave 2
	note D_, 1
	octave 3
	note D_, 1
	note D_, 1
	octave 2
	note D_, 1
	note A_, 1
	octave 3
	note D_, 1
	octave 2
	note D_, 1
	note A_, 1
	octave 3
	note D_, 1
	note C_, 1
	octave 2
	note D_, 1
	note A_, 1
	octave 3
	note C_, 1
	octave 2
	note D_, 1
	note A_, 1
	octave 3
	note D_, 1
	octave 2
	note D_, 1
	octave 3
	note D_, 1
	note D_, 1
	octave 2
	note D_, 1
	note A_, 1
	octave 3
	note D_, 1
	octave 2
	note D_, 1
	note A_, 1
	note D_, 1
	octave 3
	note C_, 1
	octave 1
	note A_, 1
	octave 3
	note C_, 1
	octave 1
	note A_, 1
	octave 2
	note D_, 1
	note A_, 1
	octave 3
	note D_, 1
	octave 2
	note D_, 1
	octave 3
	note D_, 1
	note D_, 1
	octave 2
	note D_, 1
	note A_, 1
	octave 3
	note D_, 1
	octave 2
	note D_, 1
	note A_, 1
	octave 3
	note D_, 1
	note C_, 1
	octave 2
	note D_, 1
	note A_, 1
	octave 3
	note C_, 1
	octave 2
	note D_, 1
	note A_, 1
	octave 3
	note D_, 1
	octave 2
	note D_, 1
	octave 3
	note D_, 1
	note D_, 1
	octave 2
	note D_, 1
	note A_, 1
	octave 3
	note D_, 1
	octave 2
	note D_, 1
	note A_, 1
	note D_, 1
	octave 3
	note C_, 1
	octave 1
	note A_, 1
	octave 3
	note C_, 1
	octave 1
	note A_, 1
	octave 2
	note D_, 1
	note A_, 1
	octave 3
	note D_, 1
	note E_, 1
	octave 2
	note A_, 1
	octave 3
	note D_, 1
	note F_, 1
	note E_, 1
	octave 2
	note A_, 1
	octave 3
	note D_, 1
	note E_, 1
	octave 2
	note D_, 1
	note A_, 1
	octave 3
	note D_, 1
	note E_, 1
	note D_, 1
	octave 1
	note A#, 1
	octave 2
	note F_, 1
	note A#, 1
	octave 3
	note D_, 1
	octave 1
	note A#, 1
	octave 2
	note A#, 1
	rest 1
	octave 1
	note A#, 1
	octave 2
	note F_, 1
	note A#, 1
	octave 1
	note A#, 1
	octave 3
	note D_, 1
	octave 2
	note A#, 1
	octave 1
	note A#, 1
	octave 2
	note A_, 1
	note A#, 1
	octave 1
	note A_, 1
	octave 2
	note E_, 1
	note A_, 1
	octave 3
	note C#, 1
	octave 2
	note E_, 1
	octave 3
	note C#, 1
	octave 2
	note A_, 1
	note B_, 1
	note E_, 1
	octave 3
	note C#, 1
	octave 2
	note A_, 1
	note E_, 1
	octave 3
	note D_, 1
	note C#, 1
	octave 2
	note A_, 1
	note E_, 1
	octave 1
	note A_, 1
	octave 2
	note E_, 1
	note A_, 1
	octave 3
	note C#, 1
	octave 2
	note E_, 1
	octave 3
	note E_, 1
	note C#, 1
	octave 2
	note A_, 1
	note D_, 1
	note F_, 1
	note A_, 1
	octave 3
	note D_, 1
	note E_, 1
	note F_, 1
	note E_, 1
	note D_, 1
	octave 2
	note D_, 1
	note A_, 1
	octave 3
	note D_, 1
	note E_, 1
	octave 2
	note A_, 1
	octave 3
	note D_, 1
	note F_, 1
	note E_, 1
	octave 2
	note A_, 1
	octave 3
	note D_, 1
	note E_, 1
	octave 2
	note D_, 1
	note A_, 1
	octave 3
	note D_, 1
	note E_, 1
	note D_, 1
	octave 1
	note A#, 1
	octave 2
	note F_, 1
	note A#, 1
	octave 3
	note D_, 1
	octave 1
	note A#, 1
	octave 2
	note A#, 1
	rest 1
	octave 1
	note A#, 1
	octave 2
	note F_, 1
	note A#, 1
	octave 1
	note A#, 1
	octave 3
	note D_, 1
	octave 2
	note A#, 1
	octave 1
	note A#, 1
	octave 2
	note A_, 1
	note A#, 1
	octave 1
	note A_, 1
	octave 2
	note E_, 1
	note A_, 1
	octave 3
	note C#, 1
	octave 2
	note E_, 1
	octave 3
	note C#, 1
	octave 2
	note A_, 1
	note B_, 1
	note E_, 1
	octave 3
	note C#, 1
	octave 2
	note A_, 1
	note E_, 1
	octave 3
	note D_, 1
	note C#, 1
	octave 2
	note A_, 1
	note E_, 1
	octave 1
	note A_, 1
	octave 2
	note E_, 1
	note A_, 1
	octave 3
	note C#, 1
	octave 2
	note E_, 1
	octave 3
	note E_, 1
	note C#, 1
	octave 2
	note A_, 1
	note D_, 1
	note F_, 1
	note A_, 1
	octave 3
	note D_, 1
	note E_, 1
	note F_, 1
	note E_, 1
	note D_, 1
	octave 2
	note D_, 1
	note A_, 1
	octave 3
	note D_, 1
	note E_, 1
	note F_, 1
	note E_, 1
	note D_, 1
	octave 2
	note A_, 1
	note C_, 1
	note G_, 1
	octave 3
	note C_, 1
	note E_, 1
	octave 2
	note G_, 1
	octave 3
	note C_, 1
	note D_, 1
	octave 2
	note G_, 1
	octave 3
	note C_, 1
	note E_, 1
	octave 2
	note G_, 1
	octave 3
	note C_, 1
	octave 1
	note B_, 2
	octave 3
	note C_, 1
	note D_, 1
	rest 2
	octave 2
	note G_, 1
	octave 3
	note D_, 1
	octave 1
	note A_, 1
	octave 2
	note G_, 1
	octave 3
	note D_, 1
	octave 2
	note G_, 1
	octave 1
	note A_, 7
	rest 3
	octave 3
	note D_, 1
	rest 2
	note C_, 1
	octave 2
	rest 2
	note A_, 3
	note D_, 1
	note A_, 1
	note A_, 1
	octave 3
	note D_, 1
	octave 2
	note A_, 1
	rest 2
	octave 3
	note D_, 1
	rest 2
	octave 2
	note A_, 1
	rest 2
	note D_, 2
	rest 6
	octave 1
	note A#, 2
	octave 2
	note A#, 1
	octave 1
	note A#, 1
	octave 2
	note A#, 1
	rest 1
	octave 3
	note D_, 1
	rest 1
	octave 2
	note C_, 2
	octave 3
	note C_, 1
	octave 2
	note G_, 1
	octave 3
	note C_, 1
	rest 1
	note E_, 1
	rest 3
	note D_, 1
	rest 2
	note D_, 1
	rest 2
	note D_, 4
	rest 4
	octave 1
	note A#, 1
	rest 3
	octave 2
	note F_, 1
	octave 1
	note A#, 1
	octave 3
	note D_, 1
	rest 1
	octave 2
	note C_, 2
	octave 3
	note E_, 1
	octave 2
	note G_, 1
	octave 3
	note E_, 1
	rest 3
	octave 2
	note E_, 1
	rest 3
	note G_, 1
	note E_, 1
	rest 1
	note E_, 1
	octave 3
	note E_, 1
	rest 2
	note E_, 1
	rest 2
	note E_, 1
	rest 1
	octave 1
	note A#, 2
	octave 2
	note A#, 1
	octave 1
	note A#, 1
	octave 2
	note A#, 1
	rest 1
	octave 3
	note D_, 1
	rest 1
	octave 2
	note C_, 2
	octave 3
	note C_, 1
	octave 2
	note G_, 1
	octave 3
	note C_, 1
	rest 1
	note E_, 1
	rest 3
	note D_, 1
	rest 2
	note D_, 1
	rest 2
	note D_, 4
	rest 4
	note D_, 2
	octave 2
	note F_, 1
	octave 1
	note A#, 1
	octave 3
	note D_, 1
	rest 3
	octave 2
	note C_, 6
	rest 2
	note D_, 1
	note A_, 1
	octave 3
	note D_, 1
	octave 2
	note D_, 1
	octave 3
	note D_, 1
	note D_, 1
	octave 2
	note D_, 1
	note A_, 1
	octave 3
	note D_, 1
	octave 2
	note D_, 1
	note A_, 1
	octave 3
	note D_, 1
	note C_, 1
	octave 2
	note D_, 1
	note A_, 1
	octave 3
	note C_, 1
	octave 2
	note D_, 1
	note A_, 1
	octave 3
	note D_, 1
	octave 2
	note D_, 1
	octave 3
	note D_, 1
	note D_, 1
	octave 2
	note D_, 1
	note A_, 1
	octave 3
	note D_, 1
	octave 2
	note D_, 1
	note A_, 1
	note D_, 1
	octave 3
	note C_, 1
	octave 1
	note A_, 1
	octave 3
	note C_, 1
	octave 1
	note A_, 1
	octave 2
	note D_, 1
	note A_, 1
	octave 3
	note D_, 1
	octave 2
	note D_, 1
	octave 3
	note D_, 1
	note D_, 1
	octave 2
	note D_, 1
	note A_, 1
	octave 3
	note D_, 1
	octave 2
	note D_, 1
	note A_, 1
	octave 3
	note D_, 1
	note C_, 1
	octave 2
	note D_, 1
	note A_, 1
	octave 3
	note C_, 1
	octave 2
	note D_, 1
	note A_, 1
	octave 3
	note D_, 1
	octave 2
	note D_, 1
	octave 3
	note D_, 1
	note D_, 1
	octave 2
	note D_, 1
	note A_, 1
	octave 3
	note D_, 1
	octave 2
	note D_, 1
	note A_, 1
	note D_, 1
	octave 3
	note C_, 1
	octave 1
	note A_, 1
	octave 3
	note C_, 1
	octave 1
	note A_, 1
	octave 2
	note D_, 1
	note A_, 1
	octave 3
	note D_, 1
	octave 2
	note D_, 1
	octave 3
	note D_, 1
	note D_, 1
	octave 2
	note D_, 1
	note A_, 1
	octave 3
	note D_, 1
	octave 2
	note D_, 1
	note A_, 1
	octave 3
	note D_, 1
	note C_, 1
	octave 2
	note D_, 1
	note A_, 1
	octave 3
	note C_, 1
	octave 2
	note D_, 1
	note A_, 1
	octave 3
	note D_, 1
	octave 2
	note D_, 1
	octave 3
	note D_, 1
	note D_, 1
	octave 2
	note D_, 1
	note A_, 1
	octave 3
	note D_, 1
	octave 2
	note D_, 1
	note A_, 1
	note D_, 1
	octave 3
	note C_, 1
	octave 1
	note A_, 1
	octave 3
	note C_, 1
	octave 1
	note A_, 1
	octave 2
	note D_, 1
	note A_, 1
	octave 3
	note D_, 1
	octave 2
	note D_, 1
	octave 3
	note D_, 1
	note D_, 1
	octave 2
	note D_, 1
	note A_, 1
	octave 3
	note D_, 1
	octave 2
	note D_, 1
	note A_, 1
	octave 3
	note D_, 1
	note C_, 1
	octave 2
	note D_, 1
	note A_, 1
	octave 3
	note C_, 1
	octave 2
	note D_, 1
	note A_, 1
	octave 3
	note D_, 1
	octave 2
	note D_, 1
	octave 3
	note D_, 1
	note D_, 1
	octave 2
	note D_, 1
	note A_, 1
	octave 3
	note D_, 1
	octave 2
	note D_, 1
	note A_, 1
	note D_, 1
	octave 3
	note C_, 1
	octave 1
	note A_, 1
	octave 3
	note C_, 1
	octave 1
	note A_, 1
	octave 2
	sound_loop 0, .mainloop

Music_Onward_Ch3:
	note_type 12, 2, 0
.mainloop:
	rest 16
	rest 16
	rest 16
	rest 16
	octave 2
	volume_envelope 1, 0
	note D_, 12
	rest 4
	note D_, 12
	rest 4
	note E_, 16
	volume_envelope 3, 0
	note E_, 3
	rest 5
	note D_, 8
	note D_, 12
	rest 4
	note D_, 12
	rest 4
	volume_envelope 2, 0
	note E_, 16
	note E_, 3
	rest 5
	note D_, 8
	octave 3
	rest 8
	note C_, 1
	rest 15
	octave 2
	note A_, 2
	rest 6
	note A_, 6
	rest 2
	octave 4
	note F_, 16
	note F_, 12
	rest 4
	octave 2
	note D_, 12
	rest 4
	octave 4
	note D_, 12
	rest 4
	octave 3
	note G_, 16
	note G_, 3
	rest 5
	octave 4
	note D_, 8
	octave 2
	note D_, 12
	rest 4
	octave 4
	note D_, 12
	rest 4
	octave 3
	note G_, 3
	rest 16
	rest 5
	octave 4
	note D_, 7
	rest 9
	octave 3
	note C_, 1
	rest 15
	octave 2
	note A_, 2
	rest 6
	note A_, 6
	rest 4
	octave 4
	note F_, 1
	rest 2
	note C_, 1
	rest 2
	note F_, 8
	octave 2
	note A#, 2
	rest 2
	octave 4
	note D_, 1
	rest 1
	note D_, 1
	rest 1
	octave 3
	note C_, 2
	rest 2
	octave 4
	note G_, 2
	note G_, 1
	rest 3
	note D_, 1
	rest 2
	note C_, 1
	rest 2
	octave 3
	note D_, 5
	rest 3
	note A#, 3
	rest 3
	note F_, 2
	note C_, 2
	rest 2
	octave 4
	note G_, 2
	note E_, 1
	rest 3
	note E_, 1
	rest 2
	note C#, 1
	rest 4
	octave 3
	note E_, 1
	octave 4
	note D_, 2
	octave 3
	note E_, 1
	octave 4
	note E_, 1
	rest 1
	octave 2
	note A#, 2
	rest 2
	octave 4
	note D_, 1
	rest 1
	note D_, 1
	rest 1
	octave 3
	note C_, 2
	rest 2
	octave 4
	note G_, 2
	note G_, 1
	rest 3
	note D_, 1
	rest 2
	note C_, 1
	rest 2
	octave 3
	note D_, 5
	rest 3
	octave 4
	note D_, 2
	rest 2
	note D_, 1
	rest 3
	note C_, 7
	rest 1
	note F_, 16
	note F_, 12
	rest 4
	note F_, 16
	note F_, 12
	rest 4
	octave 2
	note D_, 12
	rest 4
	octave 4
	note D_, 12
	rest 4
	note E_, 16
	note E_, 3
	rest 5
	note D_, 8
	octave 2
	note D_, 12
	rest 4
	octave 4
	note D_, 12
	rest 4
	note E_, 16
	note E_, 3
	rest 5
	note D_, 8
	rest 8
	octave 3
	note C_, 1
	rest 15
	octave 2
	note A_, 2
	rest 6
	note A_, 6
	rest 4
	octave 4
	note F_, 1
	rest 2
	note C_, 1
	rest 2
	note F_, 3
	note F_, 1
	note E_, 1
	note D_, 1
	note C_, 1
	rest 3
	note D_, 1
	rest 2
	note F_, 1
	rest 2
	note F_, 1
	rest 7
	octave 2
	note A#, 2
	rest 2
	octave 4
	note D_, 1
	rest 1
	note D_, 1
	rest 1
	octave 3
	note C_, 2
	rest 2
	octave 4
	note G_, 2
	note G_, 1
	rest 3
	note D_, 1
	rest 2
	note C_, 1
	rest 2
	octave 3
	note D_, 5
	rest 3
	note A#, 3
	rest 3
	note F_, 2
	note C_, 2
	rest 2
	octave 4
	note G_, 2
	note E_, 1
	rest 3
	note E_, 1
	rest 2
	note C#, 1
	rest 4
	octave 3
	note E_, 1
	octave 4
	note D_, 2
	octave 3
	note E_, 1
	octave 4
	note E_, 1
	rest 1
	octave 2
	note A#, 2
	rest 2
	octave 4
	note D_, 1
	rest 1
	note D_, 1
	rest 1
	octave 3
	note C_, 2
	rest 2
	octave 4
	note G_, 2
	note G_, 1
	rest 3
	note D_, 1
	rest 2
	note C_, 1
	rest 2
	octave 3
	note D_, 5
	rest 3
	octave 4
	note D_, 2
	rest 2
	note D_, 1
	rest 3
	note C_, 7
	rest 1
	note F_, 16
	note F_, 12
	rest 4
	note F_, 16
	note F_, 12
	rest 4
	note F_, 16
	note F_, 12
	rest 4
	note F_, 16
	note F_, 12
	rest 4
	sound_loop 0, .mainloop

Music_Onward_Ch4:
	toggle_noise 7
	drum_speed 12
.mainloop:
	rest 4
	toggle_noise
	toggle_noise 3
	drum_note 7, 8
	drum_note 7, 8
	drum_note 7, 8
	drum_note 7, 8
	drum_note 7, 8
	drum_note 7, 8
	drum_note 7, 8
	drum_note 7, 8
	drum_note 7, 8
	drum_note 7, 8
	drum_note 7, 8
	drum_note 7, 8
	drum_note 7, 8
	drum_note 7, 8
	drum_note 7, 8
	drum_note 7, 8
	drum_note 7, 8
	drum_note 7, 8
	drum_note 7, 8
	drum_note 7, 8
	drum_note 7, 8
	drum_note 7, 8
	drum_note 7, 8
	drum_note 7, 8
	drum_note 7, 8
	drum_note 7, 8
	drum_note 7, 8
	drum_note 7, 8
	drum_note 7, 8
	drum_note 7, 8
	drum_note 7, 8
	drum_note 7, 8
	drum_note 7, 4
	drum_note 7, 1
	drum_note 7, 1
	drum_note 7, 1
	drum_note 7, 1
	drum_note 7, 1
	drum_note 7, 1
	drum_note 7, 1
	drum_note 7, 1
	drum_note 7, 1
	drum_note 7, 1
	drum_note 7, 1
	drum_note 7, 1
	drum_note 7, 1
	drum_note 7, 1
	drum_note 7, 1
	drum_note 7, 1
	drum_note 7, 1
	drum_note 7, 1
	drum_note 7, 1
	drum_note 7, 1
	drum_note 7, 1
	drum_note 7, 1
	drum_note 7, 1
	drum_note 7, 1
	drum_note 7, 1
	drum_note 7, 1
	drum_note 7, 1
	drum_note 7, 1
	drum_note 7, 1
	drum_note 7, 1
	drum_note 7, 1
	drum_note 7, 1
	drum_note 7, 1
	drum_note 7, 1
	drum_note 7, 1
	drum_note 7, 1
	drum_note 7, 1
	drum_note 7, 1
	drum_note 7, 1
	drum_note 7, 1
	drum_note 7, 1
	drum_note 7, 1
	drum_note 7, 1
	drum_note 7, 1
	drum_note 7, 1
	drum_note 7, 1
	drum_note 7, 1
	drum_note 7, 1
	drum_note 7, 1
	drum_note 7, 1
	drum_note 7, 1
	drum_note 7, 1
	drum_note 7, 1
	drum_note 7, 1
	drum_note 7, 1
	drum_note 7, 1
	drum_note 7, 1
	drum_note 7, 1
	drum_note 7, 1
	drum_note 7, 1
	drum_note 7, 1
	drum_note 7, 1
	drum_note 7, 1
	drum_note 7, 1
	drum_note 7, 1
	drum_note 7, 1
	drum_note 7, 1
	drum_note 7, 1
	drum_note 7, 1
	drum_note 7, 1
	drum_note 7, 1
	drum_note 7, 1
	drum_note 7, 1
	drum_note 7, 1
	drum_note 7, 1
	drum_note 7, 1
	drum_note 7, 1
	drum_note 7, 1
	drum_note 7, 1
	drum_note 7, 1
	drum_note 7, 1
	drum_note 7, 1
	drum_note 7, 1
	drum_note 7, 1
	drum_note 7, 1
	drum_note 7, 1
	drum_note 7, 1
	drum_note 7, 1
	drum_note 7, 1
	drum_note 7, 1
	drum_note 7, 1
	drum_note 7, 1
	drum_note 7, 1
	drum_note 7, 1
	drum_note 7, 1
	drum_note 7, 1
	drum_note 7, 1
	drum_note 7, 1
	drum_note 7, 1
	drum_note 7, 1
	drum_note 7, 1
	drum_note 7, 1
	drum_note 7, 1
	drum_note 7, 1
	drum_note 7, 1
	drum_note 7, 1
	drum_note 7, 1
	drum_note 7, 1
	drum_note 7, 1
	drum_note 7, 1
	drum_note 7, 1
	drum_note 7, 1
	drum_note 7, 1
	drum_note 7, 1
	drum_note 7, 1
	drum_note 7, 1
	drum_note 7, 1
	drum_note 7, 1
	drum_note 7, 1
	drum_note 7, 1
	drum_note 7, 1
	drum_note 7, 1
	drum_note 7, 1
	drum_note 7, 1
	drum_note 7, 1
	drum_note 7, 1
	drum_note 7, 1
	drum_note 7, 4
	drum_note 7, 1
	drum_note 7, 1
	drum_note 7, 1
	drum_note 7, 1
	drum_note 7, 1
	drum_note 7, 1
	drum_note 7, 1
	drum_note 7, 1
	drum_note 7, 1
	drum_note 7, 1
	drum_note 7, 1
	drum_note 7, 1
	drum_note 7, 1
	drum_note 7, 1
	drum_note 7, 1
	drum_note 7, 1
	drum_note 7, 1
	drum_note 7, 1
	drum_note 7, 1
	drum_note 7, 1
	drum_note 7, 1
	drum_note 7, 1
	drum_note 7, 1
	drum_note 7, 1
	drum_note 7, 1
	drum_note 7, 2
	drum_note 7, 6
	rest 16
	rest 4
	drum_note 7, 2
	drum_note 7, 2
	drum_note 7, 2
	drum_note 7, 2
	drum_note 7, 2
	drum_note 7, 2
	drum_note 7, 2
	drum_note 7, 15
	drum_note 7, 1
	drum_note 7, 2
	drum_note 7, 1
	drum_note 7, 1
	drum_note 7, 1
	drum_note 7, 1
	drum_note 7, 1
	drum_note 7, 1
	drum_note 7, 1
	drum_note 7, 1
	drum_note 7, 1
	drum_note 7, 1
	drum_note 7, 1
	drum_note 7, 1
	drum_note 7, 1
	drum_note 7, 1
	drum_note 7, 1
	drum_note 7, 1
	drum_note 7, 1
	drum_note 7, 1
	drum_note 7, 1
	drum_note 7, 1
	drum_note 7, 1
	drum_note 7, 1
	drum_note 7, 1
	drum_note 7, 1
	drum_note 7, 1
	drum_note 7, 1
	drum_note 7, 1
	drum_note 7, 1
	drum_note 7, 1
	drum_note 7, 1
	drum_note 7, 1
	drum_note 7, 1
	drum_note 7, 2
	drum_note 7, 2
	drum_note 7, 2
	drum_note 7, 2
	drum_note 7, 2
	drum_note 7, 2
	drum_note 7, 2
	drum_note 7, 15
	drum_note 7, 1
	drum_note 7, 2
	drum_note 7, 1
	drum_note 7, 1
	drum_note 7, 1
	drum_note 7, 1
	drum_note 7, 1
	drum_note 7, 1
	drum_note 7, 6
	drum_note 7, 1
	drum_note 7, 7
	drum_note 7, 8
	drum_note 7, 8
	drum_note 7, 8
	drum_note 7, 8
	drum_note 7, 8
	drum_note 7, 8
	drum_note 7, 8
	drum_note 7, 4
	drum_note 7, 1
	drum_note 7, 1
	drum_note 7, 1
	drum_note 7, 1
	drum_note 7, 1
	drum_note 7, 1
	drum_note 7, 1
	drum_note 7, 1
	drum_note 7, 1
	drum_note 7, 1
	drum_note 7, 1
	drum_note 7, 1
	drum_note 7, 1
	drum_note 7, 1
	drum_note 7, 1
	drum_note 7, 1
	drum_note 7, 1
	drum_note 7, 1
	drum_note 7, 1
	drum_note 7, 1
	drum_note 7, 1
	drum_note 7, 1
	drum_note 7, 1
	drum_note 7, 1
	drum_note 7, 1
	drum_note 7, 1
	drum_note 7, 1
	drum_note 7, 1
	drum_note 7, 1
	drum_note 7, 1
	drum_note 7, 1
	drum_note 7, 1
	drum_note 7, 1
	drum_note 7, 1
	drum_note 7, 1
	drum_note 7, 1
	drum_note 7, 1
	drum_note 7, 1
	drum_note 7, 1
	drum_note 7, 1
	drum_note 7, 1
	drum_note 7, 1
	drum_note 7, 1
	drum_note 7, 1
	drum_note 7, 1
	drum_note 7, 1
	drum_note 7, 1
	drum_note 7, 1
	drum_note 7, 1
	drum_note 7, 1
	drum_note 7, 1
	drum_note 7, 1
	drum_note 7, 1
	drum_note 7, 1
	drum_note 7, 1
	drum_note 7, 1
	drum_note 7, 1
	drum_note 7, 1
	drum_note 7, 1
	drum_note 7, 1
	drum_note 7, 1
	drum_note 7, 1
	drum_note 7, 1
	drum_note 7, 1
	drum_note 7, 1
	drum_note 7, 1
	drum_note 7, 1
	drum_note 7, 1
	drum_note 7, 1
	drum_note 7, 1
	drum_note 7, 1
	drum_note 7, 1
	drum_note 7, 1
	drum_note 7, 1
	drum_note 7, 1
	drum_note 7, 1
	drum_note 7, 1
	drum_note 7, 1
	drum_note 7, 1
	drum_note 7, 1
	drum_note 7, 1
	drum_note 7, 1
	drum_note 7, 1
	drum_note 7, 1
	drum_note 7, 1
	drum_note 7, 1
	drum_note 7, 1
	drum_note 7, 1
	drum_note 7, 1
	drum_note 7, 1
	drum_note 7, 1
	drum_note 7, 1
	drum_note 7, 1
	drum_note 7, 1
	drum_note 7, 1
	drum_note 7, 1
	drum_note 7, 1
	drum_note 7, 1
	drum_note 7, 1
	drum_note 7, 1
	drum_note 7, 1
	drum_note 7, 1
	drum_note 7, 1
	drum_note 7, 1
	drum_note 7, 1
	drum_note 7, 1
	drum_note 7, 1
	drum_note 7, 1
	drum_note 7, 1
	drum_note 7, 1
	drum_note 7, 1
	drum_note 7, 1
	drum_note 7, 1
	drum_note 7, 1
	drum_note 7, 1
	drum_note 7, 1
	drum_note 7, 1
	drum_note 7, 1
	drum_note 7, 1
	drum_note 7, 1
	drum_note 7, 1
	drum_note 7, 1
	drum_note 7, 1
	drum_note 7, 1
	drum_note 7, 1
	drum_note 7, 1
	drum_note 7, 1
	drum_note 7, 4
	drum_note 7, 1
	drum_note 7, 1
	drum_note 7, 1
	drum_note 7, 1
	drum_note 7, 1
	drum_note 7, 1
	drum_note 7, 1
	drum_note 7, 1
	drum_note 7, 1
	drum_note 7, 1
	drum_note 7, 1
	drum_note 7, 1
	drum_note 7, 1
	drum_note 7, 1
	drum_note 7, 1
	drum_note 7, 1
	drum_note 7, 1
	drum_note 7, 1
	drum_note 7, 1
	drum_note 7, 1
	drum_note 7, 1
	drum_note 7, 1
	drum_note 7, 1
	drum_note 7, 1
	drum_note 7, 1
	drum_note 7, 2
	drum_note 7, 6
	rest 16
	rest 16
	rest 4
	drum_note 7, 2
	drum_note 7, 2
	drum_note 7, 2
	drum_note 7, 2
	drum_note 7, 2
	drum_note 7, 2
	drum_note 7, 2
	drum_note 7, 15
	drum_note 7, 1
	drum_note 7, 2
	drum_note 7, 1
	drum_note 7, 1
	drum_note 7, 1
	drum_note 7, 1
	drum_note 7, 1
	drum_note 7, 1
	drum_note 7, 1
	drum_note 7, 1
	drum_note 7, 1
	drum_note 7, 1
	drum_note 7, 1
	drum_note 7, 1
	drum_note 7, 1
	drum_note 7, 1
	drum_note 7, 1
	drum_note 7, 1
	drum_note 7, 1
	drum_note 7, 1
	drum_note 7, 1
	drum_note 7, 1
	drum_note 7, 1
	drum_note 7, 1
	drum_note 7, 1
	drum_note 7, 1
	drum_note 7, 1
	drum_note 7, 1
	drum_note 7, 1
	drum_note 7, 1
	drum_note 7, 1
	drum_note 7, 1
	drum_note 7, 1
	drum_note 7, 1
	drum_note 7, 2
	drum_note 7, 2
	drum_note 7, 2
	drum_note 7, 2
	drum_note 7, 2
	drum_note 7, 2
	drum_note 7, 2
	drum_note 7, 15
	drum_note 7, 1
	drum_note 7, 2
	drum_note 7, 1
	drum_note 7, 1
	drum_note 7, 1
	drum_note 7, 1
	drum_note 7, 1
	drum_note 7, 1
	drum_note 7, 6
	drum_note 7, 1
	drum_note 7, 7
	drum_note 7, 8
	drum_note 7, 8
	drum_note 7, 8
	drum_note 7, 8
	drum_note 7, 8
	drum_note 7, 8
	drum_note 7, 8
	drum_note 7, 8
	drum_note 7, 8
	drum_note 7, 8
	drum_note 7, 8
	drum_note 7, 8
	drum_note 7, 8
	drum_note 7, 8
	drum_note 7, 6
	drum_note 7, 1
	drum_note 7, 1
	drum_note 7, 1
	rest 3
	sound_loop 0, .mainloop
