Music_Reaper:
	channel_count 4
	channel 1, Music_Reaper_Ch1
	channel 2, Music_Reaper_Ch2
	channel 3, Music_Reaper_Ch3
	channel 4, Music_Reaper_Ch4

Music_Reaper_Ch1:
	volume 7, 7
	note_type 12, 10, 7
	tempo 120
.mainloop:
	rest 16
	rest 16
	rest 16
	rest 16
	rest 16
	rest 16
	rest 16
	rest 16
	rest 16
	rest 16
	rest 16
	rest 16
	rest 16
	rest 16
	rest 16
	rest 16
	rest 16
	rest 16
	rest 16
	rest 16
	rest 4
	octave 4
	duty_cycle 1
	volume_envelope 10, 5
	note C_, 12
	octave 3
	note B_, 4
	note A_, 8
	note G_, 8
	note G_, 4
	rest 16
	rest 12
	octave 4
	note C_, 12
	octave 3
	note B_, 4
	note A_, 8
	note G_, 8
	note G_, 4
	rest 16
	rest 12
	note A_, 2
	note A_, 2
	note A_, 2
	note A_, 2
	note B_, 2
	note B_, 4
	note B_, 2
	rest 2
	octave 4
	note C_, 2
	note C_, 4
	rest 2
	octave 3
	note C_, 2
	note C_, 2
	note C_, 2
	note A_, 2
	note A_, 2
	note A_, 2
	note A_, 2
	note B_, 2
	note B_, 2
	note B_, 2
	octave 4
	note C_, 4
	rest 10
	octave 3
	note C_, 2
	note C_, 2
	note A_, 2
	note A_, 2
	note A_, 2
	note A_, 2
	note B_, 2
	note B_, 2
	note B_, 2
	note B_, 2
	note B_, 2
	octave 4
	note C_, 2
	note C_, 4
	rest 6
	octave 3
	note C_, 2
	note A_, 2
	note A_, 2
	note A_, 2
	note A_, 2
	note B_, 2
	note B_, 2
	note B_, 2
	note B_, 2
	note B_, 2
	octave 4
	note C_, 2
	note C_, 4
	rest 6
	octave 3
	note C_, 2
	note A_, 2
	note A_, 2
	note A_, 2
	note A_, 2
	note B_, 2
	note B_, 2
	note B_, 2
	note B_, 2
	note B_, 2
	octave 4
	note C_, 2
	note C_, 4
	rest 16
	note C_, 2
	octave 3
	note B_, 4
	note B_, 2
	rest 2
	octave 4
	note C_, 2
	rest 16
	octave 3
	note A_, 2
	note A_, 2
	note B_, 2
	note B_, 4
	octave 4
	note C_, 4
	rest 16
	rest 2
	octave 3
	note A_, 2
	note A_, 2
	note B_, 2
	note B_, 2
	note B_, 2
	octave 4
	note C_, 2
	note C_, 2
	note C_, 2
	note C_, 4
	rest 12
	octave 3
	note A_, 2
	note A_, 2
	note B_, 2
	note B_, 2
	note B_, 2
	octave 4
	note C_, 2
	note C_, 16
	note C_, 8
	note C_, 2
	octave 3
	note B_, 4
	note B_, 4
	octave 4
	note C_, 2
	rest 16
	rest 16
	rest 16
	rest 16
	rest 16
	rest 16
	rest 16
	rest 16
	rest 16
	rest 16
	rest 12
	sound_loop 0, .mainloop

Music_Reaper_Ch2:
	note_type 12, 5, 7
.mainloop:
	octave 2
	duty_cycle 1
	volume_envelope 10, 4
	note F_, 2
	note G#, 2
	octave 3
	note C_, 2
	octave 2
	note F_, 2
	note G#, 2
	octave 3
	note C_, 2
	octave 2
	note F_, 2
	note G#, 2
	octave 3
	note C_, 2
	octave 2
	note F_, 2
	note G#, 2
	octave 3
	note C_, 2
	octave 2
	note F_, 2
	note G#, 2
	octave 3
	note C_, 2
	octave 2
	note F_, 2
	note G_, 2
	note B_, 2
	note F_, 2
	note G_, 2
	note B_, 2
	note F_, 2
	note G_, 2
	note B_, 2
	note F_, 2
	note G_, 2
	note B_, 2
	note F_, 2
	note G_, 2
	note B_, 2
	note F_, 2
	note G_, 2
	note B_, 2
	note F_, 2
	note G#, 2
	octave 3
	note C_, 2
	octave 2
	note F_, 2
	note G#, 2
	octave 3
	note C_, 2
	octave 2
	note F_, 2
	note G#, 2
	octave 3
	note C_, 2
	octave 2
	note F_, 2
	note G#, 2
	octave 3
	note C_, 2
	octave 2
	note F_, 2
	note G#, 2
	octave 3
	note C_, 2
	octave 2
	note F_, 2
	note G_, 2
	note B_, 2
	note F_, 2
	note G_, 2
	note B_, 2
	note F_, 2
	note G_, 2
	note B_, 2
	note F_, 2
	note G_, 2
	note B_, 2
	note F_, 2
	note G_, 2
	note B_, 2
	note F_, 2
	note G_, 2
	note B_, 2
	note F_, 2
	note G#, 2
	octave 3
	note C_, 2
	octave 2
	note F_, 2
	note G#, 2
	octave 3
	note C_, 2
	octave 2
	note F_, 2
	note G#, 2
	octave 3
	note C_, 2
	octave 2
	note F_, 2
	note G#, 2
	octave 3
	note C_, 2
	octave 2
	note F_, 2
	note G#, 2
	octave 3
	note C_, 2
	octave 2
	note F_, 2
	note G_, 2
	note B_, 2
	note F_, 2
	note G_, 2
	note B_, 2
	note F_, 2
	note G_, 2
	note B_, 2
	note F_, 2
	note G_, 2
	note B_, 2
	note F_, 2
	note G_, 2
	note B_, 2
	note F_, 2
	note G#, 2
	octave 3
	note C_, 2
	octave 2
	note F_, 2
	note G#, 2
	octave 3
	note C_, 2
	octave 2
	note F_, 2
	note G#, 2
	octave 3
	note C_, 2
	octave 2
	note F_, 2
	note G#, 2
	octave 3
	note C_, 2
	octave 2
	note F_, 2
	note G#, 2
	octave 3
	note C_, 2
	octave 2
	note F_, 2
	note G_, 2
	note B_, 2
	note F_, 2
	note G_, 2
	note B_, 2
	note F_, 2
	note G_, 2
	note B_, 2
	note F_, 2
	note G_, 2
	note B_, 16
	octave 1
	note A_, 2
	note E_, 2
	note A_, 2
	note G_, 2
	note G_, 2
	note B_, 2
	note D_, 2
	note G_, 2
	note F_, 2
	note C_, 2
	note D_, 2
	note G_, 2
	note G_, 2
	note B_, 2
	note D_, 2
	note G_, 2
	note A_, 2
	note E_, 2
	note A_, 2
	note G_, 2
	note G_, 2
	note B_, 2
	note D_, 2
	note G_, 2
	note F_, 2
	note C_, 2
	note D_, 2
	note G_, 2
	note G_, 2
	note B_, 2
	note D_, 2
	note G_, 2
	octave 3
	note C_, 2
	octave 1
	note E_, 2
	note A_, 2
	note G_, 2
	note G_, 2
	note B_, 2
	octave 2
	note B_, 2
	octave 1
	note G_, 2
	octave 2
	note A_, 2
	octave 1
	note C_, 2
	note D_, 2
	note G_, 2
	octave 2
	note G_, 2
	octave 1
	note B_, 2
	note D_, 2
	note G_, 2
	octave 2
	note G_, 2
	octave 1
	note E_, 2
	note A_, 2
	note G_, 2
	note G_, 2
	note B_, 2
	note D_, 2
	note G_, 2
	note F_, 2
	note C_, 2
	note D_, 2
	note G_, 2
	note G_, 2
	note B_, 2
	note D_, 2
	note G_, 2
	octave 3
	note C_, 2
	octave 1
	note E_, 2
	note A_, 2
	note G_, 2
	note G_, 2
	note B_, 2
	octave 2
	note B_, 2
	octave 1
	note G_, 2
	octave 2
	note A_, 2
	octave 1
	note C_, 2
	note D_, 2
	note G_, 2
	octave 2
	note G_, 2
	octave 1
	note B_, 2
	note D_, 2
	note G_, 2
	octave 2
	note G_, 2
	octave 1
	note E_, 2
	note A_, 2
	note G_, 2
	note G_, 2
	note B_, 2
	note D_, 2
	note G_, 2
	note F_, 2
	note C_, 2
	note D_, 2
	note G_, 2
	note G_, 2
	note B_, 2
	note D_, 2
	note G_, 2
	note F_, 4
	octave 2
	note A_, 2
	note A_, 2
	note B_, 2
	note B_, 2
	octave 1
	note G_, 2
	octave 2
	note B_, 2
	octave 1
	note A_, 2
	octave 3
	note C_, 2
	note C_, 4
	octave 1
	note A_, 4
	octave 2
	note C_, 2
	note C_, 2
	note A_, 2
	note A_, 2
	note A_, 2
	note A_, 2
	note B_, 2
	note B_, 2
	octave 1
	note E_, 2
	octave 3
	note C_, 2
	octave 1
	note A_, 4
	note A_, 4
	note G_, 4
	note G_, 4
	octave 2
	note A_, 2
	note A_, 2
	note A_, 2
	note A_, 2
	note B_, 2
	note B_, 2
	note B_, 2
	note B_, 2
	note B_, 2
	octave 3
	note C_, 2
	note C_, 4
	octave 1
	note G_, 4
	note G_, 4
	octave 2
	note A_, 2
	note A_, 2
	note A_, 2
	note A_, 2
	note B_, 2
	note B_, 2
	note B_, 2
	note B_, 2
	note B_, 2
	octave 3
	note C_, 2
	note C_, 4
	octave 1
	note G_, 4
	note G_, 2
	octave 2
	note C_, 2
	note A_, 2
	note A_, 2
	note A_, 2
	note A_, 2
	note B_, 2
	note B_, 2
	note B_, 2
	note B_, 2
	note B_, 2
	octave 3
	note C_, 2
	note C_, 2
	octave 2
	note A_, 2
	note B_, 2
	note B_, 2
	octave 1
	note G_, 2
	octave 2
	note B_, 2
	octave 1
	note F_, 2
	octave 3
	note C_, 2
	octave 1
	note D_, 2
	note G_, 2
	octave 3
	note C_, 2
	octave 2
	note B_, 2
	octave 1
	note D_, 2
	octave 2
	note B_, 2
	octave 1
	note A_, 2
	octave 3
	note C_, 2
	octave 2
	note A_, 2
	octave 1
	note G_, 2
	octave 2
	note B_, 2
	octave 1
	note B_, 2
	octave 2
	note B_, 2
	note B_, 2
	octave 1
	note F_, 2
	octave 3
	note C_, 2
	octave 2
	note A_, 2
	note A_, 2
	note B_, 2
	note B_, 2
	octave 1
	note D_, 2
	octave 3
	note C_, 2
	octave 1
	note A_, 2
	note E_, 2
	octave 2
	note A_, 2
	octave 1
	note G_, 2
	octave 2
	note B_, 2
	octave 1
	note B_, 2
	octave 2
	note B_, 2
	note B_, 2
	octave 1
	note F_, 2
	octave 3
	note C_, 2
	octave 2
	note A_, 2
	note A_, 2
	note B_, 2
	note B_, 2
	note B_, 2
	octave 3
	note C_, 2
	octave 1
	note A_, 2
	note E_, 2
	octave 2
	note A_, 2
	octave 1
	note G_, 2
	octave 2
	note B_, 2
	octave 1
	note B_, 2
	octave 2
	note B_, 2
	note B_, 2
	octave 1
	note F_, 2
	octave 3
	note C_, 2
	octave 2
	note A_, 2
	note A_, 2
	note B_, 2
	note B_, 2
	octave 1
	note D_, 2
	octave 3
	note C_, 2
	note C_, 2
	octave 2
	note A_, 2
	note A_, 2
	note A_, 2
	note B_, 2
	note B_, 2
	octave 1
	note D_, 2
	octave 2
	note B_, 2
	octave 1
	note F_, 2
	octave 3
	note C_, 2
	octave 1
	note D_, 2
	note G_, 2
	octave 3
	note C_, 2
	octave 2
	note B_, 2
	octave 1
	note D_, 2
	octave 2
	note B_, 2
	octave 1
	note A_, 2
	octave 3
	note C_, 2
	octave 2
	note A_, 2
	octave 1
	note G_, 2
	octave 2
	note B_, 2
	octave 1
	note B_, 2
	octave 2
	note B_, 2
	note B_, 2
	octave 1
	note F_, 2
	octave 3
	note C_, 2
	octave 1
	note D_, 2
	note G_, 2
	note G_, 2
	note B_, 2
	note D_, 2
	note G_, 2
	note A_, 2
	note E_, 2
	octave 2
	note G_, 2
	note G_, 2
	octave 1
	note G_, 2
	note B_, 2
	octave 2
	note G_, 2
	note G_, 2
	octave 1
	note F_, 2
	note C_, 2
	octave 2
	note G_, 2
	note G_, 2
	octave 1
	note G_, 2
	note B_, 2
	octave 2
	note G_, 2
	note G_, 2
	octave 1
	note A_, 2
	note E_, 2
	octave 2
	note G_, 2
	note G_, 2
	octave 1
	note G_, 2
	note B_, 2
	octave 2
	note G_, 2
	note G_, 2
	octave 1
	note F_, 2
	note C_, 2
	octave 2
	note G_, 2
	note G_, 2
	octave 1
	note G_, 2
	note B_, 2
	octave 2
	note G_, 2
	note G_, 2
	octave 1
	note A_, 2
	note E_, 2
	octave 2
	note G_, 2
	note G_, 2
	octave 1
	note G_, 2
	note B_, 2
	octave 2
	note G_, 2
	note G_, 2
	octave 1
	note F_, 2
	note C_, 2
	octave 2
	note G_, 2
	note G_, 2
	octave 1
	note G_, 2
	note B_, 2
	octave 2
	note G_, 2
	note G_, 2
	octave 1
	note A_, 2
	note E_, 2
	octave 2
	note G_, 2
	note G_, 2
	octave 1
	note G_, 2
	note B_, 2
	octave 2
	note G_, 2
	note G_, 2
	octave 1
	note F_, 2
	note C_, 2
	octave 2
	note G_, 2
	note G_, 2
	octave 1
	note G_, 2
	note B_, 2
	octave 2
	note G_, 2
	note G_, 2
	note E_, 1
	note A_, 15
	sound_loop 0, .mainloop

Music_Reaper_Ch3:
	note_type 12, 2, 0
.mainloop:
	rest 16
	rest 16
	rest 16
	rest 16
	rest 16
	rest 16
	rest 16
	rest 16
	rest 4
	octave 4
	vibrato 0, 15, 4
	volume_envelope 1, 0
	note G#, 16
	note G#, 16
	note B_, 16
	note B_, 16
	note G#, 16
	note G#, 16
	note B_, 16
	note B_, 16
	note A_, 8
	note B_, 8
	note A_, 8
	note B_, 8
	note A_, 8
	note B_, 8
	note A_, 8
	note B_, 8
	octave 1
	volume_envelope 2, 0
	note B_, 8
	note B_, 16
	note B_, 16
	note B_, 16
	note B_, 16
	transpose 0, 0
	vibrato 0, 4, 4
	note B_, 16
	note B_, 16
	note B_, 16
	note B_, 16
	note B_, 16
	note B_, 16
	note B_, 16
	note B_, 16
	note B_, 16
	note B_, 16
	note B_, 16
	note B_, 16
	note B_, 16
	note B_, 16
	note B_, 16
	note B_, 16
	note B_, 16
	note B_, 16
	note B_, 16
	note B_, 16
	note B_, 16
	note B_, 16
	note B_, 16
	note B_, 16
	note B_, 8
	octave 4
	volume_envelope 1, 0
	note B_, 8
	note B_, 8
	note A_, 8
	note B_, 8
	note A_, 8
	note B_, 8
	note A_, 8
	note B_, 16
	note B_, 8
	note A_, 8
	note B_, 8
	note A_, 8
	note B_, 8
	note A_, 8
	note B_, 8
	note A_, 16
	sound_loop 0, .mainloop

Music_Reaper_Ch4:
	toggle_noise 1
	drum_speed 12
.mainloop:
	rest 16
	rest 16
	rest 16
	rest 16
	rest 16
	rest 16
	rest 16
	rest 16
	rest 16
	rest 16
	rest 16
	rest 16
	rest 16
	rest 16
	rest 16
	rest 16
	rest 16
	rest 16
	rest 16
	rest 16
	rest 4
	toggle_noise
	toggle_noise 5
	drum_note 10, 8
	drum_note 12, 8
	drum_note 10, 8
	drum_note 12, 8
	drum_note 10, 8
	drum_note 12, 8
	drum_note 10, 8
	drum_note 12, 8
	drum_note 10, 8
	drum_note 12, 8
	drum_note 10, 8
	drum_note 12, 8
	drum_note 10, 8
	drum_note 12, 8
	drum_note 10, 8
	drum_note 12, 8
	drum_note 10, 8
	drum_note 12, 8
	drum_note 10, 16
	drum_note 10, 8
	drum_note 12, 8
	drum_note 10, 8
	drum_note 12, 8
	drum_note 10, 8
	drum_note 12, 8
	drum_note 10, 8
	drum_note 12, 8
	drum_note 10, 8
	drum_note 12, 8
	drum_note 10, 8
	drum_note 12, 8
	drum_note 10, 8
	drum_note 12, 8
	drum_note 10, 8
	drum_note 12, 8
	drum_note 10, 8
	drum_note 12, 8
	drum_note 10, 8
	drum_note 12, 8
	drum_note 10, 8
	drum_note 12, 8
	drum_note 10, 8
	drum_note 12, 8
	drum_note 10, 8
	drum_note 12, 8
	drum_note 10, 8
	drum_note 12, 8
	drum_note 10, 8
	drum_note 12, 8
	drum_note 10, 8
	drum_note 12, 8
	drum_note 10, 8
	drum_note 12, 8
	drum_note 10, 8
	drum_note 12, 8
	drum_note 10, 8
	drum_note 12, 8
	drum_note 10, 8
	drum_note 12, 16
	drum_note 12, 16
	drum_note 12, 16
	drum_note 12, 8
	drum_note 10, 8
	drum_note 12, 16
	drum_note 12, 16
	drum_note 12, 16
	drum_note 12, 16
	drum_note 12, 8
	sound_loop 0, .mainloop
