Music_Touhou:
	channel_count 3
	channel 1, Music_Touhou_Ch1
	channel 2, Music_Touhou_Ch2
	channel 3, Music_Touhou_Ch3

Music_Touhou_Ch1:
	volume 7, 7
	note_type 12, 12, 7
	tempo 116
.mainloop
	octave 3
	duty_cycle 1
	note C#, 1
	rest 1
	note A_, 1
	rest 1
	note G_, 1
	note A_, 1
	rest 1
	note E_, 1
	rest 1
	note F_, 1
	rest 1
	note A_, 1
	note G_, 1
	note F_, 1
	note E_, 1
	note D_, 2
	note A_, 1
	rest 1
	note G_, 1
	note A_, 1
	rest 1
	note E_, 1
	rest 1
	note F_, 1
	rest 1
	note A_, 1
	note C_, 1
	rest 1
	note C#, 1
	rest 1
	note D_, 1
	rest 1
	note A_, 1
	rest 1
	note G_, 1
	note A_, 1
	rest 1
	note E_, 1
	rest 1
	note F_, 1
	rest 1
	note A_, 1
	note G_, 1
	note F_, 1
	note E_, 1
	note D_, 2
	note A_, 1
	rest 1
	note G_, 1
	note A_, 1
	rest 1
	note E_, 1
	rest 1
	note F_, 1
	rest 1
	note A_, 1
	note C_, 1
	rest 1
	note C#, 1
	rest 1
	note D_, 1
	rest 1
	note A_, 1
	rest 1
	note G_, 1
	note A_, 1
	rest 1
	note E_, 1
	rest 1
	note F_, 1
	rest 1
	note A_, 1
	note G_, 1
	note F_, 1
	note E_, 1
	note D_, 1
	rest 2
	note A_, 1
	rest 1
	note G_, 1
	note A_, 1
	rest 1
	note E_, 1
	rest 1
	note F_, 1
	rest 1
	note A_, 1
	note C_, 1
	rest 1
	note C#, 1
	rest 1
	note D_, 1
	rest 1
	note A_, 1
	rest 1
	note G_, 1
	note A_, 1
	rest 1
	note E_, 1
	rest 1
	note F_, 1
	rest 1
	note A_, 1
	note G_, 1
	note F_, 1
	note E_, 1
	note D_, 2
	rest 1
	note A_, 1
	rest 1
	note G_, 1
	note A_, 1
	rest 1
	octave 4
	note C_, 1
	rest 1
	note C_, 1
	octave 3
	note A_, 2
	octave 4
	note E_, 2
	note C_, 1
	note C#, 1
	note D_, 1
	rest 1
	note A_, 1
	rest 1
	note G_, 1
	note A_, 1
	rest 1
	note E_, 1
	rest 1
	note F_, 1
	rest 1
	note A_, 1
	note G_, 1
	note F_, 1
	note E_, 1
	note D_, 1
	rest 2
	note A_, 1
	rest 1
	note G_, 1
	note A_, 1
	rest 1
	note E_, 2
	note F_, 1
	note A_, 1
	rest 1
	note C_, 1
	rest 1
	note C#, 1
	rest 1
	note D_, 1
	rest 1
	note A_, 1
	rest 1
	note G_, 1
	note A_, 1
	rest 1
	note E_, 1
	rest 1
	note F_, 1
	rest 1
	note A_, 1
	note G_, 1
	note F_, 1
	note E_, 1
	note D_, 1
	rest 2
	note A_, 1
	rest 1
	note G_, 1
	note A_, 1
	rest 1
	note E_, 2
	note F_, 1
	note A_, 1
	rest 1
	note C_, 1
	rest 1
	note C#, 1
	rest 1
	note D_, 1
	rest 1
	note A_, 1
	rest 1
	note G_, 1
	note A_, 1
	rest 1
	note E_, 1
	rest 1
	note F_, 1
	rest 1
	note A_, 1
	note G_, 1
	note F_, 1
	note E_, 1
	note D_, 1
	rest 2
	note A_, 1
	rest 1
	note G_, 1
	note A_, 1
	rest 1
	note E_, 2
	note F_, 1
	note A_, 1
	rest 1
	note C_, 1
	rest 1
	note C#, 1
	rest 1
	note D_, 1
	rest 1
	note A_, 1
	rest 1
	note G_, 1
	note A_, 1
	rest 1
	note E_, 1
	rest 1
	note F_, 1
	rest 1
	note A_, 1
	note G_, 1
	note F_, 1
	note E_, 1
	note D_, 1
	octave 3
	note A_, 1
	note B_, 1
	octave 4
	note D_, 1
	note F_, 1
	note A_, 1
	octave 5
	note C_, 1
	note E_, 1
	note G_, 1
	note B_, 1
	octave 6
	note D_, 1
	note F_, 1
	note A_, 1
	octave 7
	note C_, 1
	rest 3
	octave 2
	note A_, 2
	octave 3
	note F_, 2
	note E_, 1
	note F_, 1
	note E_, 2
	note G_, 2
	note F_, 2
	note E_, 1
	note F_, 1
	note E_, 1
	note C_, 1
	note D_, 2
	note A_, 2
	note G_, 1
	note A_, 1
	note G_, 1
	note A_, 1
	octave 4
	note C_, 2
	octave 3
	note A_, 2
	note G_, 2
	note A_, 2
	octave 2
	note A_, 2
	octave 3
	note F_, 2
	note E_, 1
	note F_, 1
	note E_, 2
	note G_, 2
	note F_, 2
	note E_, 1
	note F_, 1
	note E_, 1
	note C_, 1
	note D_, 2
	note A_, 2
	note G_, 1
	note A_, 1
	note G_, 1
	note A_, 1
	octave 4
	note C#, 2
	octave 3
	note A_, 2
	note G_, 2
	note A_, 2
	octave 2
	note A_, 2
	octave 3
	note F_, 2
	note E_, 1
	note F_, 1
	note E_, 2
	note G_, 2
	note F_, 2
	note E_, 1
	note F_, 1
	note E_, 1
	note C_, 1
	note D_, 2
	note A_, 2
	note G_, 1
	note A_, 1
	note G_, 1
	note A_, 1
	octave 4
	note C_, 2
	octave 3
	note A_, 2
	note F_, 2
	note F#, 2
	note G_, 2
	octave 2
	note A#, 1
	octave 3
	note D_, 1
	octave 2
	note A#, 2
	octave 3
	note G_, 2
	note A_, 2
	octave 2
	note A_, 1
	octave 3
	note A_, 1
	octave 2
	note A_, 2
	octave 3
	note A_, 2
	note A#, 2
	note D_, 2
	note B_, 2
	note D_, 2
	octave 4
	note C_, 7
	rest 1
	octave 2
	note A_, 2
	octave 3
	note F_, 2
	note E_, 1
	note F_, 1
	note E_, 2
	note G_, 2
	note F_, 2
	note E_, 1
	note F_, 1
	note E_, 1
	note C_, 1
	note D_, 2
	note A_, 2
	note G_, 1
	note A_, 1
	note G_, 1
	note A_, 1
	octave 4
	note C_, 2
	octave 3
	note A_, 2
	note G_, 2
	note A_, 2
	octave 2
	note A_, 2
	octave 3
	note F_, 2
	note E_, 1
	note F_, 1
	note E_, 2
	note G_, 2
	note F_, 2
	note E_, 1
	note F_, 1
	note E_, 1
	note C_, 1
	note D_, 2
	note A_, 2
	note G_, 1
	note A_, 1
	note G_, 1
	note A_, 1
	octave 4
	note C#, 2
	octave 3
	note A_, 2
	note G_, 2
	note A_, 2
	octave 2
	note A_, 2
	octave 3
	note F_, 2
	note E_, 1
	note F_, 1
	note E_, 2
	note G_, 2
	note F_, 2
	note E_, 1
	note F_, 1
	note E_, 1
	note C_, 1
	note D_, 2
	note A_, 2
	note G_, 1
	note A_, 1
	note G_, 1
	note A_, 1
	octave 4
	note C_, 2
	octave 3
	note A_, 2
	note F_, 2
	note F#, 2
	note G_, 2
	octave 2
	note A#, 1
	octave 3
	note D_, 1
	octave 2
	note A#, 2
	octave 3
	note G_, 2
	note A_, 2
	note G_, 2
	note F_, 2
	note E_, 2
	note D_, 13
	rest 3
	note A_, 2
	octave 4
	note F_, 2
	note E_, 1
	note F_, 1
	note E_, 2
	note G_, 2
	note F_, 2
	note E_, 1
	note F_, 1
	note E_, 1
	note C_, 1
	note D_, 2
	note A_, 2
	note G_, 1
	note A_, 1
	note G_, 1
	note A_, 1
	octave 5
	note C_, 2
	octave 4
	note A_, 2
	note G_, 2
	note A_, 2
	octave 3
	note A_, 2
	octave 4
	note F_, 2
	note E_, 1
	note F_, 1
	note E_, 2
	note G_, 2
	note F_, 2
	note E_, 1
	note F_, 1
	note E_, 1
	note C_, 1
	note D_, 2
	note A_, 2
	note G_, 1
	note A_, 1
	note G_, 1
	note A_, 1
	octave 5
	note C_, 2
	octave 4
	note A_, 2
	note G_, 2
	note E_, 2
	note F_, 2
	note E_, 1
	note F_, 1
	note E_, 2
	note C_, 2
	note D_, 2
	note C_, 2
	octave 3
	note G_, 2
	note E_, 2
	note D_, 2
	note E_, 2
	note F_, 2
	note G_, 2
	note A_, 2
	octave 4
	note C#, 2
	note D_, 2
	note E_, 2
	note C#, 2
	note A_, 2
	note G_, 1
	note A_, 1
	note G_, 1
	note A_, 1
	octave 5
	note C#, 2
	octave 4
	note A_, 2
	note G_, 1
	note A_, 1
	note G_, 2
	note C#, 2
	octave 5
	note C#, 2
	octave 4
	note A_, 1
	octave 5
	note D_, 1
	octave 4
	note A_, 1
	octave 5
	note D_, 1
	note E_, 2
	octave 4
	note G_, 2
	note F_, 2
	note E_, 2
	octave 3
	note A_, 2
	octave 4
	note F_, 2
	note E_, 1
	note F_, 1
	note E_, 2
	note G_, 2
	note F_, 2
	note E_, 1
	note F_, 1
	note E_, 1
	note C_, 1
	note D_, 2
	note A_, 2
	note G_, 1
	note A_, 1
	note G_, 1
	note A_, 1
	octave 5
	note C_, 2
	octave 4
	note A_, 2
	note G_, 2
	note A_, 2
	octave 3
	note A_, 2
	octave 4
	note F_, 2
	note E_, 1
	note F_, 1
	note E_, 2
	note G_, 2
	note F_, 2
	note E_, 1
	note F_, 1
	note E_, 1
	note C_, 1
	note D_, 2
	note A_, 2
	note G_, 1
	note A_, 1
	note G_, 1
	note A_, 1
	octave 5
	note C_, 2
	octave 4
	note A_, 2
	note G_, 2
	note E_, 2
	note F_, 2
	note E_, 1
	note F_, 1
	note E_, 2
	note C_, 2
	note D_, 2
	note C_, 2
	octave 3
	note G_, 2
	note E_, 2
	note D_, 2
	note E_, 2
	note F_, 2
	note G_, 2
	note A_, 2
	octave 4
	note C#, 2
	note D_, 2
	note E_, 2
	note C#, 2
	note A_, 2
	note G_, 1
	note A_, 1
	note G_, 1
	note A_, 1
	octave 5
	note C#, 2
	octave 4
	note A_, 2
	note G_, 1
	note A_, 1
	note G_, 2
	note C#, 2
	octave 5
	note C#, 2
	octave 4
	note A_, 1
	octave 5
	note D_, 1
	octave 4
	note A_, 1
	octave 5
	note D_, 1
	note E_, 2
	note D_, 2
	note A_, 4
	note D_, 4
	note F_, 4
	note E_, 4
	note D_, 2
	note C_, 6
	note A_, 4
	note E_, 4
	note C_, 2
	note C#, 2
	note D_, 4
	note F_, 4
	note E_, 4
	note D_, 2
	note C_, 6
	note A_, 4
	note E_, 2
	note D_, 2
	note C_, 4
	note D_, 4
	note F_, 4
	note E_, 4
	note D_, 2
	note C_, 6
	note A_, 4
	note E_, 4
	note C_, 2
	note C#, 2
	note D_, 4
	note F_, 4
	note E_, 4
	note F_, 2
	note G_, 6
	note F_, 4
	note E_, 4
	note C_, 2
	note C#, 2
	note F_, 4
	note A_, 4
	note G_, 2
	note F_, 4
	note E_, 6
	octave 6
	note C_, 4
	octave 5
	note G_, 4
	note E_, 4
	note F_, 4
	note A_, 4
	note G_, 2
	note A_, 4
	note A#, 6
	note A_, 4
	note G_, 4
	note E_, 4
	note D_, 4
	note F_, 4
	note E_, 4
	note D_, 4
	note D_, 4
	note A#, 4
	note A_, 4
	note G_, 4
	note A_, 2
	note E_, 1
	note C#, 1
	octave 4
	note A_, 2
	octave 5
	note C#, 2
	note B_, 2
	octave 4
	note B_, 2
	octave 5
	note A#, 2
	octave 6
	note C#, 6
	note C#, 2
	note D_, 2
	note E_, 3
	octave 4
	note F_, 1
	octave 5
	note C_, 1
	note G_, 1
	rest 2
	octave 4
	note A_, 2
	octave 5
	note F_, 2
	note E_, 1
	note F_, 1
	note E_, 2
	note G_, 2
	note F_, 2
	note E_, 1
	note F_, 1
	note E_, 1
	note C_, 1
	note D_, 2
	note A_, 2
	note G_, 1
	note A_, 1
	note G_, 1
	note A_, 1
	octave 6
	note C_, 2
	octave 5
	note A_, 2
	note G_, 2
	note A_, 2
	octave 4
	note A_, 2
	octave 5
	note F_, 2
	note E_, 1
	note F_, 1
	note E_, 2
	note G_, 2
	note F_, 2
	note E_, 1
	note F_, 1
	note E_, 1
	note C_, 1
	note D_, 2
	note A_, 2
	note G_, 1
	note A_, 1
	note G_, 1
	note A_, 1
	octave 6
	note C#, 2
	octave 5
	note A_, 2
	note G_, 2
	note A_, 2
	octave 4
	note A_, 2
	octave 5
	note F_, 2
	note E_, 1
	note F_, 1
	note E_, 2
	note G_, 2
	note F_, 2
	note E_, 1
	note F_, 1
	note E_, 1
	note C_, 1
	note D_, 2
	note A_, 2
	note G_, 1
	note A_, 1
	note G_, 1
	note A_, 1
	octave 6
	note C_, 2
	octave 5
	note A_, 2
	note F_, 2
	note F#, 2
	note G_, 2
	octave 4
	note A#, 1
	octave 5
	note D_, 1
	octave 4
	note A#, 2
	octave 5
	note G_, 2
	note A_, 2
	octave 4
	note A_, 1
	octave 5
	note A_, 1
	octave 4
	note A_, 2
	octave 5
	note A_, 2
	note A#, 2
	note D_, 2
	note B_, 2
	note D_, 2
	octave 6
	note C_, 7
	rest 1
	octave 4
	note A_, 2
	octave 5
	note F_, 2
	note E_, 1
	note F_, 1
	note E_, 2
	note G_, 2
	note F_, 2
	note E_, 1
	note F_, 1
	note E_, 1
	note C_, 1
	note D_, 2
	note A_, 2
	note G_, 1
	note A_, 1
	note G_, 1
	note A_, 1
	octave 6
	note C_, 2
	octave 5
	note A_, 2
	note G_, 2
	note A_, 2
	octave 4
	note A_, 2
	octave 5
	note F_, 2
	note E_, 1
	note F_, 1
	note E_, 2
	note G_, 2
	note F_, 2
	note E_, 1
	note F_, 1
	note E_, 1
	note C_, 1
	note D_, 2
	note A_, 2
	note G_, 1
	note A_, 1
	note G_, 1
	note A_, 1
	octave 6
	note C#, 2
	octave 5
	note A_, 2
	note G_, 2
	note A_, 2
	octave 4
	note A_, 2
	octave 5
	note F_, 2
	note E_, 1
	note F_, 1
	note E_, 2
	note G_, 2
	note F_, 2
	note E_, 1
	note F_, 1
	note E_, 1
	note C_, 1
	note D_, 2
	note A_, 2
	note G_, 1
	note A_, 1
	note G_, 1
	note A_, 1
	octave 6
	note C_, 2
	octave 5
	note A_, 2
	note F_, 2
	note F#, 2
	note G_, 2
	octave 4
	note A#, 1
	octave 5
	note D_, 1
	octave 4
	note A#, 2
	octave 5
	note G_, 2
	note A_, 2
	note G_, 2
	note F_, 2
	note E_, 2
	note D_, 13
	rest 3
	octave 3
	note D_, 1
	rest 1
	note A_, 1
	rest 1
	note G_, 1
	note A_, 1
	rest 1
	note E_, 1
	rest 1
	note F_, 1
	rest 1
	note A_, 1
	note G_, 1
	note F_, 1
	note E_, 1
	note D_, 1
	rest 2
	note A_, 1
	rest 1
	note G_, 1
	note A_, 1
	rest 1
	note E_, 1
	rest 1
	note F_, 1
	rest 1
	note A_, 1
	note C_, 1
	rest 1
	note C#, 1
	rest 1
	note D_, 1
	rest 1
	note A_, 1
	rest 1
	note G_, 1
	note A_, 1
	rest 1
	note E_, 1
	rest 1
	note F_, 1
	rest 1
	note A_, 1
	note G_, 1
	note F_, 1
	note E_, 1
	note D_, 1
	rest 2
	note A_, 1
	rest 1
	note G_, 1
	note A_, 1
	rest 1
	note E_, 1
	rest 1
	note F_, 1
	rest 1
	note A_, 1
	note C_, 1
	rest 1
	note C#, 1
	rest 1
	note D_, 1
	rest 1
	note A_, 1
	rest 1
	note G_, 1
	note A_, 1
	rest 1
	note E_, 1
	rest 1
	note F_, 1
	rest 1
	note A_, 1
	note G_, 1
	note F_, 1
	note E_, 1
	note D_, 1
	rest 2
	note A_, 1
	rest 1
	note G_, 1
	note A_, 1
	rest 1
	note E_, 1
	rest 1
	note F_, 1
	rest 1
	note A_, 1
	note C_, 1
	rest 1
	note C#, 1
	rest 1
	note D_, 1
	rest 1
	note A_, 1
	rest 1
	note G_, 1
	note A_, 1
	rest 1
	note E_, 1
	rest 1
	note F_, 1
	rest 1
	note A_, 1
	note G_, 1
	note F_, 1
	note E_, 1
	note D_, 2
	rest 1
	note A_, 1
	rest 1
	note G_, 1
	note A_, 1
	rest 1
	octave 4
	note C_, 1
	rest 1
	note C_, 1
	octave 3
	note A_, 2
	octave 4
	note E_, 2
	note C_, 1
	note C#, 1
	note D_, 1
	rest 1
	note A_, 1
	rest 1
	note G_, 1
	note A_, 1
	rest 1
	note E_, 1
	rest 1
	note F_, 1
	rest 1
	note A_, 1
	note G_, 1
	note F_, 1
	note E_, 1
	note D_, 1
	rest 2
	note A_, 1
	rest 1
	note G_, 1
	note A_, 1
	rest 1
	note E_, 2
	note F_, 1
	note A_, 1
	rest 1
	note C_, 1
	rest 1
	note C#, 1
	rest 1
	note D_, 1
	rest 1
	note A_, 1
	rest 1
	note G_, 1
	note A_, 1
	rest 1
	note E_, 1
	rest 1
	note F_, 1
	rest 1
	note A_, 1
	note G_, 1
	note F_, 1
	note E_, 1
	note D_, 1
	rest 2
	note A_, 1
	rest 1
	note G_, 1
	note A_, 1
	rest 1
	note E_, 2
	note F_, 1
	note A_, 1
	rest 1
	note C_, 1
	rest 1
	note C#, 1
	rest 1
	note D_, 1
	rest 1
	note A_, 1
	rest 1
	note G_, 1
	note A_, 1
	rest 1
	note E_, 1
	rest 1
	note F_, 1
	rest 1
	note A_, 1
	note G_, 1
	note F_, 1
	note E_, 1
	note D_, 1
	rest 2
	note A_, 1
	rest 1
	note G_, 1
	note A_, 1
	rest 1
	note E_, 2
	note F_, 1
	note A_, 1
	rest 1
	note C_, 1
	rest 1
	note C#, 1
	rest 1
	note D_, 1
	rest 1
	note A_, 1
	rest 1
	note G_, 1
	note A_, 1
	rest 1
	note E_, 1
	rest 1
	note F_, 1
	rest 1
	note A_, 1
	note G_, 1
	note F_, 1
	note E_, 1
	note D_, 1
	octave 3
	note A_, 1
	note B_, 1
	octave 4
	note D_, 1
	note F_, 1
	note A_, 1
	octave 5
	note C_, 1
	note E_, 1
	note G_, 1
	note B_, 1
	octave 6
	note D_, 1
	note F_, 1
	note A_, 1
	octave 7
	note C_, 1
	rest 3
	octave 3
	note A_, 2
	octave 4
	note F_, 2
	note E_, 1
	note F_, 1
	note E_, 2
	note G_, 2
	note F_, 2
	note E_, 1
	note F_, 1
	note E_, 1
	note C_, 1
	note D_, 2
	note A_, 2
	note G_, 1
	note A_, 1
	note G_, 1
	note A_, 1
	octave 5
	note C_, 2
	octave 4
	note A_, 2
	note G_, 2
	note A_, 2
	octave 3
	note A_, 2
	octave 4
	note F_, 2
	note E_, 1
	note F_, 1
	note E_, 2
	note G_, 2
	note F_, 2
	note E_, 1
	note F_, 1
	note E_, 1
	note C_, 1
	note D_, 2
	note A_, 2
	note G_, 1
	note A_, 1
	note G_, 1
	note A_, 1
	octave 5
	note C#, 2
	octave 4
	note A_, 2
	note G_, 2
	note A_, 2
	octave 3
	note A_, 2
	octave 4
	note F_, 2
	note E_, 1
	note F_, 1
	note E_, 2
	note G_, 2
	note F_, 2
	note E_, 1
	note F_, 1
	note E_, 1
	note C_, 1
	note D_, 2
	note A_, 2
	note G_, 1
	note A_, 1
	note G_, 1
	note A_, 1
	octave 5
	note C_, 2
	octave 4
	note A_, 2
	note F_, 2
	note F#, 2
	note G_, 2
	octave 3
	note A#, 1
	octave 4
	note D_, 1
	octave 3
	note A#, 2
	octave 4
	note G_, 2
	note A_, 2
	octave 3
	note A_, 1
	octave 4
	note A_, 1
	octave 3
	note A_, 2
	octave 4
	note A_, 2
	note A#, 2
	note D_, 2
	note B_, 2
	note D_, 2
	octave 5
	note C_, 7
	rest 1
	octave 3
	note A_, 2
	octave 4
	note F_, 2
	note E_, 1
	note F_, 1
	note E_, 2
	note G_, 2
	note F_, 2
	note E_, 1
	note F_, 1
	note E_, 1
	note C_, 1
	note D_, 2
	note A_, 2
	note G_, 1
	note A_, 1
	note G_, 1
	note A_, 1
	octave 5
	note C_, 2
	octave 4
	note A_, 2
	note G_, 2
	note A_, 2
	octave 3
	note A_, 2
	octave 4
	note F_, 2
	note E_, 1
	note F_, 1
	note E_, 2
	note G_, 2
	note F_, 2
	note E_, 1
	note F_, 1
	note E_, 1
	note C_, 1
	note D_, 2
	note A_, 2
	note G_, 1
	note A_, 1
	note G_, 1
	note A_, 1
	octave 5
	note C#, 2
	octave 4
	note A_, 2
	note G_, 2
	note A_, 2
	octave 3
	note A_, 2
	octave 4
	note F_, 2
	note E_, 1
	note F_, 1
	note E_, 2
	note G_, 2
	note F_, 2
	note E_, 1
	note F_, 1
	note E_, 1
	note C_, 1
	note D_, 2
	note A_, 2
	note G_, 1
	note A_, 1
	note G_, 1
	note A_, 1
	octave 5
	note C_, 2
	octave 4
	note A_, 2
	note F_, 2
	note F#, 2
	note G_, 2
	octave 3
	note A#, 1
	octave 4
	note D_, 1
	octave 3
	note A#, 2
	octave 4
	note G_, 2
	note A_, 2
	octave 3
	note A_, 1
	octave 4
	note A_, 2
	octave 3
	note A_, 1
	octave 4
	note A#, 4
	octave 5
	note F_, 2
	note E_, 2
	note D_, 2
	note E_, 7
	rest 1
	octave 4
	note A#, 2
	octave 5
	note F#, 2
	note F_, 1
	note F#, 1
	note F_, 1
	note F#, 1
	note G#, 2
	note F#, 2
	note F_, 1
	note F#, 1
	note F_, 1
	note C#, 1
	note D#, 2
	note A#, 2
	note G#, 1
	note A#, 1
	note G#, 1
	note A#, 1
	octave 6
	note C#, 2
	octave 5
	note A#, 2
	note G#, 2
	note A#, 2
	octave 4
	note A#, 2
	octave 5
	note F#, 2
	note F_, 1
	note F#, 1
	note F_, 1
	note F#, 1
	note G#, 2
	note F#, 2
	note F_, 1
	note F#, 1
	note F_, 1
	note C#, 1
	note D#, 2
	note A#, 2
	note G#, 1
	note A#, 1
	note G#, 1
	note A#, 1
	octave 6
	note D_, 2
	octave 5
	note A#, 2
	note G#, 2
	note A#, 2
	octave 4
	note A#, 2
	octave 5
	note F#, 2
	note F_, 1
	note F#, 1
	note F_, 1
	note F#, 1
	note G#, 2
	note F#, 2
	note F_, 1
	note F#, 1
	note F_, 1
	note C#, 1
	note D#, 2
	note A#, 2
	note G#, 1
	note A#, 1
	note G#, 1
	note A#, 1
	octave 6
	note C#, 2
	octave 5
	note A#, 2
	note G#, 2
	note G_, 2
	note G#, 2
	octave 4
	note B_, 1
	octave 5
	note G#, 1
	octave 4
	note A#, 2
	octave 5
	note G#, 2
	note A#, 2
	note C#, 1
	note A#, 1
	note C#, 2
	note A#, 2
	note B_, 2
	note D#, 2
	octave 6
	note C_, 2
	octave 5
	note D#, 2
	octave 6
	note C#, 7
	rest 1
	octave 4
	note A#, 2
	octave 5
	note F#, 2
	note F_, 1
	note F#, 1
	note F_, 1
	note F#, 1
	note G#, 2
	note F#, 2
	note F_, 1
	note F#, 1
	note F_, 1
	note C#, 1
	note D#, 2
	note A#, 2
	note G#, 1
	note A#, 1
	note G#, 1
	note A#, 1
	octave 6
	note C#, 2
	octave 5
	note A#, 2
	note G#, 2
	note A#, 2
	octave 4
	note A#, 2
	octave 5
	note F#, 2
	note F_, 1
	note F#, 1
	note F_, 1
	note F#, 1
	note G#, 2
	note F#, 2
	note F_, 1
	note F#, 1
	note F_, 1
	note C#, 1
	note D#, 2
	note A#, 2
	note G#, 1
	note A#, 1
	note G#, 1
	note A#, 1
	octave 6
	note D_, 2
	octave 5
	note A#, 2
	octave 6
	note C#, 2
	note F_, 2
	note D#, 5
	rest 1
	note D#, 2
	note D#, 2
	note C#, 4
	note D#, 4
	note D#, 2
	note C#, 2
	rest 2
	octave 5
	note A#, 1
	octave 6
	note C#, 1
	octave 5
	note A#, 2
	note G#, 2
	note A#, 2
	note G#, 4
	note G#, 2
	note A#, 2
	rest 2
	octave 6
	note F#, 1
	note F#, 1
	note F_, 2
	note C#, 2
	note D#, 13
	rest 3
	octave 3
	note A#, 4
	octave 4
	note F#, 4
	note F_, 2
	note F#, 4
	note G#, 6
	note F#, 4
	note F_, 4
	note C#, 2
	note D_, 2
	note D#, 4
	note A#, 4
	note G#, 2
	note A#, 4
	octave 5
	note C#, 6
	octave 4
	note B_, 4
	note A#, 4
	note G#, 4
	note F#, 7
	rest 1
	note F_, 2
	note F#, 4
	note G#, 6
	note F#, 4
	note F_, 4
	note C#, 2
	note D_, 2
	note D#, 2
	note C#, 2
	note F_, 2
	note F#, 4
	note C#, 2
	note G#, 2
	note A#, 4
	octave 5
	note C#, 2
	note D#, 2
	note F#, 2
	note F_, 2
	note D#, 2
	note C#, 4
	note D#, 4
	note F#, 4
	note F_, 2
	note D#, 4
	note D#, 12
	rest 4
	note D#, 6
	note A#, 4
	note G#, 2
	note F#, 2
	note F_, 2
	note F#, 12
	rest 4
	note F#, 6
	note F_, 4
	note D#, 2
	note F_, 4
	note F#, 6
	note F_, 4
	note D#, 2
	note F_, 4
	note G_, 9
	rest 3
	octave 3
	note A#, 1
	octave 4
	note D#, 1
	note A#, 1
	octave 5
	note D#, 1
	note A#, 1
	octave 6
	note D#, 1
	note G_, 1
	note A#, 1
	octave 7
	note D#, 1
	note G_, 15
	octave 6
	sound_loop 0, .mainloop

Music_Touhou_Ch2:
	note_type 12, 12, 7
	duty_cycle 0
.mainloop
	octave 1
	note C#, 1
	rest 1
	note A_, 1
	rest 1
	note G_, 1
	note A_, 1
	rest 1
	note E_, 1
	rest 1
	note F_, 1
	rest 1
	note A_, 1
	note G_, 1
	note F_, 1
	note E_, 1
	note D_, 2
	note A_, 1
	rest 1
	note G_, 1
	note A_, 1
	rest 1
	note E_, 1
	rest 1
	note F_, 1
	rest 1
	note A_, 1
	note C_, 1
	rest 1
	note C#, 1
	rest 1
	note D_, 1
	rest 1
	note A_, 1
	rest 1
	note G_, 1
	note A_, 1
	rest 1
	note E_, 1
	rest 1
	note F_, 1
	rest 1
	note A_, 1
	note G_, 1
	note F_, 1
	note E_, 1
	note D_, 2
	note A_, 1
	rest 1
	note G_, 1
	note A_, 1
	rest 1
	note E_, 1
	rest 1
	note F_, 1
	rest 1
	note A_, 1
	note C_, 1
	rest 1
	note C#, 1
	rest 1
	note D_, 1
	rest 1
	note A_, 1
	rest 1
	note G_, 1
	note A_, 1
	rest 1
	note E_, 1
	rest 1
	note F_, 1
	rest 1
	note A_, 1
	note G_, 1
	note F_, 1
	note E_, 1
	note D_, 1
	rest 2
	note A_, 1
	rest 1
	note G_, 1
	note A_, 1
	rest 1
	note E_, 1
	rest 1
	note F_, 1
	rest 1
	note A_, 1
	note C_, 1
	rest 1
	note C#, 1
	rest 1
	note D_, 1
	rest 1
	note A_, 1
	rest 1
	note G_, 1
	note A_, 1
	rest 1
	note E_, 1
	rest 1
	note F_, 1
	rest 1
	note A_, 1
	note G_, 1
	note F_, 1
	note E_, 1
	note D_, 2
	rest 1
	note A_, 1
	rest 1
	note G_, 1
	note A_, 1
	rest 1
	octave 2
	note C_, 1
	rest 1
	note C_, 1
	octave 1
	note A_, 2
	octave 2
	note E_, 2
	note C_, 1
	note C#, 1
	note D_, 1
	rest 1
	note A_, 1
	rest 1
	note G_, 1
	note A_, 1
	rest 1
	note E_, 1
	rest 1
	note F_, 1
	rest 1
	note A_, 1
	note G_, 1
	note F_, 1
	note E_, 1
	note D_, 1
	rest 2
	note A_, 1
	rest 1
	note G_, 1
	note A_, 1
	rest 1
	note E_, 2
	note F_, 1
	note A_, 1
	rest 1
	note C_, 1
	rest 1
	note C#, 1
	rest 1
	note D_, 1
	rest 1
	note A_, 1
	rest 1
	note G_, 1
	note A_, 1
	rest 1
	note E_, 1
	rest 1
	note F_, 1
	rest 1
	note A_, 1
	note G_, 1
	note F_, 1
	note E_, 1
	note D_, 1
	rest 2
	note A_, 1
	rest 1
	note G_, 1
	note A_, 1
	rest 1
	note E_, 2
	note F_, 1
	note A_, 1
	rest 1
	note C_, 1
	rest 1
	note C#, 1
	rest 1
	note D_, 1
	rest 1
	note A_, 1
	rest 1
	note G_, 1
	note A_, 1
	rest 1
	note E_, 1
	rest 1
	note F_, 1
	rest 1
	note A_, 1
	note G_, 1
	note F_, 1
	note E_, 1
	note D_, 1
	rest 2
	note A_, 1
	rest 1
	note G_, 1
	note A_, 1
	rest 1
	note E_, 2
	note F_, 1
	note A_, 1
	rest 1
	note C_, 1
	rest 1
	note C#, 1
	rest 1
	note D_, 1
	rest 1
	note A_, 1
	rest 1
	note G_, 1
	note A_, 1
	rest 1
	note E_, 1
	rest 1
	note F_, 1
	rest 1
	note A_, 1
	note G_, 1
	note F_, 1
	note E_, 1
	note D_, 1
	octave 1
	note A_, 1
	note B_, 1
	octave 2
	note D_, 1
	note F_, 1
	note A_, 1
	octave 3
	note C_, 1
	note E_, 1
	note G_, 1
	note B_, 1
	octave 4
	note D_, 1
	note F_, 1
	note A_, 1
	octave 5
	note C_, 1
	rest 3
	octave 1
	note A_, 2
	octave 2
	note F_, 2
	note E_, 1
	note F_, 1
	note E_, 2
	note G_, 2
	note F_, 2
	note E_, 1
	note F_, 1
	note E_, 1
	note C_, 1
	note D_, 2
	note A_, 2
	note G_, 1
	note A_, 1
	note G_, 1
	note A_, 1
	octave 3
	note C_, 2
	octave 2
	note A_, 2
	note G_, 2
	note A_, 2
	octave 1
	note A_, 2
	octave 2
	note F_, 2
	note E_, 1
	note F_, 1
	note E_, 2
	note G_, 2
	note F_, 2
	note E_, 1
	note F_, 1
	note E_, 1
	note C_, 1
	note D_, 2
	note A_, 2
	note G_, 1
	note A_, 1
	note G_, 1
	note A_, 1
	octave 3
	note C#, 2
	octave 2
	note A_, 2
	note G_, 2
	note A_, 2
	octave 1
	note A_, 2
	octave 2
	note F_, 2
	note E_, 1
	note F_, 1
	note E_, 2
	note G_, 2
	note F_, 2
	note E_, 1
	note F_, 1
	note E_, 1
	note C_, 1
	note D_, 2
	note A_, 2
	note G_, 1
	note A_, 1
	note G_, 1
	note A_, 1
	octave 3
	note C_, 2
	octave 2
	note A_, 2
	note F_, 2
	note F#, 2
	note G_, 2
	octave 1
	note A#, 1
	octave 2
	note D_, 1
	octave 1
	note A#, 2
	octave 2
	note G_, 2
	note A_, 2
	octave 1
	note A_, 1
	octave 2
	note A_, 1
	octave 1
	note A_, 2
	octave 2
	note A_, 2
	note A#, 2
	note D_, 2
	note B_, 2
	note D_, 2
	octave 3
	note C_, 7
	rest 1
	octave 1
	note A_, 2
	octave 2
	note F_, 2
	note E_, 1
	note F_, 1
	note E_, 2
	note G_, 2
	note F_, 2
	note E_, 1
	note F_, 1
	note E_, 1
	note C_, 1
	note D_, 2
	note A_, 2
	note G_, 1
	note A_, 1
	note G_, 1
	note A_, 1
	octave 3
	note C_, 2
	octave 2
	note A_, 2
	note G_, 2
	note A_, 2
	octave 1
	note A_, 2
	octave 2
	note F_, 2
	note E_, 1
	note F_, 1
	note E_, 2
	note G_, 2
	note F_, 2
	note E_, 1
	note F_, 1
	note E_, 1
	note C_, 1
	note D_, 2
	note A_, 2
	note G_, 1
	note A_, 1
	note G_, 1
	note A_, 1
	octave 3
	note C#, 2
	octave 2
	note A_, 2
	note G_, 2
	note A_, 2
	octave 1
	note A_, 2
	octave 2
	note F_, 2
	note E_, 1
	note F_, 1
	note E_, 2
	note G_, 2
	note F_, 2
	note E_, 1
	note F_, 1
	note E_, 1
	note C_, 1
	note D_, 2
	note A_, 2
	note G_, 1
	note A_, 1
	note G_, 1
	note A_, 1
	octave 3
	note C_, 2
	octave 2
	note A_, 2
	note F_, 2
	note F#, 2
	note G_, 2
	octave 1
	note A#, 1
	octave 2
	note D_, 1
	octave 1
	note A#, 2
	octave 2
	note G_, 2
	note A_, 2
	note G_, 2
	note F_, 2
	note E_, 2
	note D_, 13
	rest 3
	octave 1
	note A_, 2
	octave 2
	note F_, 2
	note E_, 1
	note F_, 1
	note E_, 2
	note G_, 2
	note F_, 2
	note E_, 1
	note F_, 1
	note E_, 1
	note C_, 1
	note D_, 2
	note A_, 2
	note G_, 1
	note A_, 1
	note G_, 1
	note A_, 1
	octave 3
	note C_, 2
	octave 2
	note A_, 2
	note G_, 2
	note A_, 2
	octave 1
	note A_, 2
	octave 2
	note F_, 2
	note E_, 1
	note F_, 1
	note E_, 2
	note G_, 2
	note F_, 2
	note E_, 1
	note F_, 1
	note E_, 1
	note C_, 1
	note D_, 2
	note A_, 2
	note G_, 1
	note A_, 1
	note G_, 1
	note A_, 1
	octave 3
	note C_, 2
	octave 2
	note A_, 2
	note G_, 2
	note E_, 2
	note F_, 2
	note E_, 1
	note F_, 1
	note E_, 2
	note C_, 2
	note D_, 2
	note C_, 2
	octave 1
	note G_, 2
	note E_, 2
	note D_, 2
	note E_, 2
	note F_, 2
	note G_, 2
	note A_, 2
	octave 2
	note C#, 2
	note D_, 2
	note E_, 2
	note C#, 2
	note A_, 2
	note G_, 1
	note A_, 1
	note G_, 1
	note A_, 1
	octave 3
	note C#, 2
	octave 2
	note A_, 2
	note G_, 1
	note A_, 1
	note G_, 2
	note C#, 2
	octave 3
	note C#, 2
	octave 2
	note A_, 1
	octave 3
	note D_, 1
	octave 2
	note A_, 1
	octave 3
	note D_, 1
	note E_, 2
	octave 2
	note G_, 2
	note F_, 2
	note E_, 2
	octave 1
	note A_, 2
	octave 2
	note F_, 2
	note E_, 1
	note F_, 1
	note E_, 2
	note G_, 2
	note F_, 2
	note E_, 1
	note F_, 1
	note E_, 1
	note C_, 1
	note D_, 2
	note A_, 2
	note G_, 1
	note A_, 1
	note G_, 1
	note A_, 1
	octave 3
	note C_, 2
	octave 2
	note A_, 2
	note G_, 2
	note A_, 2
	octave 1
	note A_, 2
	octave 2
	note F_, 2
	note E_, 1
	note F_, 1
	note E_, 2
	note G_, 2
	note F_, 2
	note E_, 1
	note F_, 1
	note E_, 1
	note C_, 1
	note D_, 2
	note A_, 2
	note G_, 1
	note A_, 1
	note G_, 1
	note A_, 1
	octave 3
	note C_, 2
	octave 2
	note A_, 2
	note G_, 2
	note E_, 2
	note F_, 2
	note E_, 1
	note F_, 1
	note E_, 2
	note C_, 2
	note D_, 2
	note C_, 2
	octave 1
	note G_, 2
	note E_, 2
	note D_, 2
	note E_, 2
	note F_, 2
	note G_, 2
	note A_, 2
	octave 2
	note C#, 2
	note D_, 2
	note E_, 2
	note C#, 2
	note A_, 2
	note G_, 1
	note A_, 1
	note G_, 1
	note A_, 1
	octave 3
	note C#, 2
	octave 2
	note A_, 2
	note G_, 1
	note A_, 1
	note G_, 2
	note C#, 2
	octave 3
	note C#, 2
	octave 2
	note A_, 1
	octave 3
	note D_, 1
	octave 2
	note A_, 1
	octave 3
	note D_, 1
	note E_, 2
	note D_, 2
	note A_, 4
	note D_, 4
	note F_, 4
	note E_, 4
	note D_, 2
	note C_, 6
	note A_, 4
	note E_, 4
	note C_, 2
	note C#, 2
	note D_, 4
	note F_, 4
	note E_, 4
	note D_, 2
	note C_, 6
	note A_, 4
	note E_, 2
	note D_, 2
	note C_, 4
	note D_, 4
	note F_, 4
	note E_, 4
	note D_, 2
	note C_, 6
	note A_, 4
	note E_, 4
	note C_, 2
	note C#, 2
	note D_, 4
	note F_, 4
	note E_, 4
	note F_, 2
	note G_, 6
	note F_, 4
	note E_, 4
	note C_, 2
	note C#, 2
	note F_, 4
	note A_, 4
	note G_, 2
	note F_, 4
	note E_, 6
	octave 4
	note C_, 4
	octave 3
	note G_, 4
	note E_, 4
	note F_, 4
	note A_, 4
	note G_, 2
	note A_, 4
	note A#, 6
	note A_, 4
	note G_, 4
	note E_, 4
	note D_, 4
	note F_, 4
	note E_, 4
	note D_, 4
	note D_, 4
	note A#, 4
	note A_, 4
	note G_, 4
	note A_, 2
	note E_, 1
	note C#, 1
	octave 2
	note A_, 2
	octave 3
	note C#, 2
	note B_, 2
	octave 2
	note B_, 2
	octave 3
	note A#, 2
	octave 4
	note C#, 6
	note C#, 2
	note D_, 2
	note E_, 3
	octave 2
	note F_, 1
	octave 3
	note C_, 1
	note G_, 1
	rest 2
	octave 2
	note A_, 2
	octave 3
	note F_, 2
	note E_, 1
	note F_, 1
	note E_, 2
	note G_, 2
	note F_, 2
	note E_, 1
	note F_, 1
	note E_, 1
	note C_, 1
	note D_, 2
	note A_, 2
	note G_, 1
	note A_, 1
	note G_, 1
	note A_, 1
	octave 4
	note C_, 2
	octave 3
	note A_, 2
	note G_, 2
	note A_, 2
	octave 2
	note A_, 2
	octave 3
	note F_, 2
	note E_, 1
	note F_, 1
	note E_, 2
	note G_, 2
	note F_, 2
	note E_, 1
	note F_, 1
	note E_, 1
	note C_, 1
	note D_, 2
	note A_, 2
	note G_, 1
	note A_, 1
	note G_, 1
	note A_, 1
	octave 4
	note C#, 2
	octave 3
	note A_, 2
	note G_, 2
	note A_, 2
	octave 2
	note A_, 2
	octave 3
	note F_, 2
	note E_, 1
	note F_, 1
	note E_, 2
	note G_, 2
	note F_, 2
	note E_, 1
	note F_, 1
	note E_, 1
	note C_, 1
	note D_, 2
	note A_, 2
	note G_, 1
	note A_, 1
	note G_, 1
	note A_, 1
	octave 4
	note C_, 2
	octave 3
	note A_, 2
	note F_, 2
	note F#, 2
	note G_, 2
	octave 2
	note A#, 1
	octave 3
	note D_, 1
	octave 2
	note A#, 2
	octave 3
	note G_, 2
	note A_, 2
	octave 2
	note A_, 1
	octave 3
	note A_, 1
	octave 2
	note A_, 2
	octave 3
	note A_, 2
	note A#, 2
	note D_, 2
	note B_, 2
	note D_, 2
	octave 4
	note C_, 7
	rest 1
	octave 2
	note A_, 2
	octave 3
	note F_, 2
	note E_, 1
	note F_, 1
	note E_, 2
	note G_, 2
	note F_, 2
	note E_, 1
	note F_, 1
	note E_, 1
	note C_, 1
	note D_, 2
	note A_, 2
	note G_, 1
	note A_, 1
	note G_, 1
	note A_, 1
	octave 4
	note C_, 2
	octave 3
	note A_, 2
	note G_, 2
	note A_, 2
	octave 2
	note A_, 2
	octave 3
	note F_, 2
	note E_, 1
	note F_, 1
	note E_, 2
	note G_, 2
	note F_, 2
	note E_, 1
	note F_, 1
	note E_, 1
	note C_, 1
	note D_, 2
	note A_, 2
	note G_, 1
	note A_, 1
	note G_, 1
	note A_, 1
	octave 4
	note C#, 2
	octave 3
	note A_, 2
	note G_, 2
	note A_, 2
	octave 2
	note A_, 2
	octave 3
	note F_, 2
	note E_, 1
	note F_, 1
	note E_, 2
	note G_, 2
	note F_, 2
	note E_, 1
	note F_, 1
	note E_, 1
	note C_, 1
	note D_, 2
	note A_, 2
	note G_, 1
	note A_, 1
	note G_, 1
	note A_, 1
	octave 4
	note C_, 2
	octave 3
	note A_, 2
	note F_, 2
	note F#, 2
	note G_, 2
	octave 2
	note A#, 1
	octave 3
	note D_, 1
	octave 2
	note A#, 2
	octave 3
	note G_, 2
	note A_, 2
	note G_, 2
	note F_, 2
	note E_, 2
	note D_, 13
	rest 3
	octave 1
	note D_, 1
	rest 1
	note A_, 1
	rest 1
	note G_, 1
	note A_, 1
	rest 1
	note E_, 1
	rest 1
	note F_, 1
	rest 1
	note A_, 1
	note G_, 1
	note F_, 1
	note E_, 1
	note D_, 1
	rest 2
	note A_, 1
	rest 1
	note G_, 1
	note A_, 1
	rest 1
	note E_, 1
	rest 1
	note F_, 1
	rest 1
	note A_, 1
	note C_, 1
	rest 1
	note C#, 1
	rest 1
	note D_, 1
	rest 1
	note A_, 1
	rest 1
	note G_, 1
	note A_, 1
	rest 1
	note E_, 1
	rest 1
	note F_, 1
	rest 1
	note A_, 1
	note G_, 1
	note F_, 1
	note E_, 1
	note D_, 1
	rest 2
	note A_, 1
	rest 1
	note G_, 1
	note A_, 1
	rest 1
	note E_, 1
	rest 1
	note F_, 1
	rest 1
	note A_, 1
	note C_, 1
	rest 1
	note C#, 1
	rest 1
	note D_, 1
	rest 1
	note A_, 1
	rest 1
	note G_, 1
	note A_, 1
	rest 1
	note E_, 1
	rest 1
	note F_, 1
	rest 1
	note A_, 1
	note G_, 1
	note F_, 1
	note E_, 1
	note D_, 1
	rest 2
	note A_, 1
	rest 1
	note G_, 1
	note A_, 1
	rest 1
	note E_, 1
	rest 1
	note F_, 1
	rest 1
	note A_, 1
	note C_, 1
	rest 1
	note C#, 1
	rest 1
	note D_, 1
	rest 1
	note A_, 1
	rest 1
	note G_, 1
	note A_, 1
	rest 1
	note E_, 1
	rest 1
	note F_, 1
	rest 1
	note A_, 1
	note G_, 1
	note F_, 1
	note E_, 1
	note D_, 2
	rest 1
	note A_, 1
	rest 1
	note G_, 1
	note A_, 1
	rest 1
	octave 2
	note C_, 1
	rest 1
	note C_, 1
	octave 1
	note A_, 2
	octave 2
	note E_, 2
	note C_, 1
	note C#, 1
	note D_, 1
	rest 1
	note A_, 1
	rest 1
	note G_, 1
	note A_, 1
	rest 1
	note E_, 1
	rest 1
	note F_, 1
	rest 1
	note A_, 1
	note G_, 1
	note F_, 1
	note E_, 1
	note D_, 1
	rest 2
	note A_, 1
	rest 1
	note G_, 1
	note A_, 1
	rest 1
	note E_, 2
	note F_, 1
	note A_, 1
	rest 1
	note C_, 1
	rest 1
	note C#, 1
	rest 1
	note D_, 1
	rest 1
	note A_, 1
	rest 1
	note G_, 1
	note A_, 1
	rest 1
	note E_, 1
	rest 1
	note F_, 1
	rest 1
	note A_, 1
	note G_, 1
	note F_, 1
	note E_, 1
	note D_, 1
	rest 2
	note A_, 1
	rest 1
	note G_, 1
	note A_, 1
	rest 1
	note E_, 2
	note F_, 1
	note A_, 1
	rest 1
	note C_, 1
	rest 1
	note C#, 1
	rest 1
	note D_, 1
	rest 1
	note A_, 1
	rest 1
	note G_, 1
	note A_, 1
	rest 1
	note E_, 1
	rest 1
	note F_, 1
	rest 1
	note A_, 1
	note G_, 1
	note F_, 1
	note E_, 1
	note D_, 1
	rest 2
	note A_, 1
	rest 1
	note G_, 1
	note A_, 1
	rest 1
	note E_, 2
	note F_, 1
	note A_, 1
	rest 1
	note C_, 1
	rest 1
	note C#, 1
	rest 1
	note D_, 1
	rest 1
	note A_, 1
	rest 1
	note G_, 1
	note A_, 1
	rest 1
	note E_, 1
	rest 1
	note F_, 1
	rest 1
	note A_, 1
	note G_, 1
	note F_, 1
	note E_, 1
	note D_, 1
	octave 1
	note A_, 1
	note B_, 1
	octave 2
	note D_, 1
	note F_, 1
	note A_, 1
	octave 3
	note C_, 1
	note E_, 1
	note G_, 1
	note B_, 1
	octave 4
	note D_, 1
	note F_, 1
	note A_, 1
	octave 5
	note C_, 1
	rest 3
	octave 2
	note A_, 2
	octave 3
	note F_, 2
	note E_, 1
	note F_, 1
	note E_, 2
	note G_, 2
	note F_, 2
	note E_, 1
	note F_, 1
	note E_, 1
	note C_, 1
	note D_, 2
	note A_, 2
	note G_, 1
	note A_, 1
	note G_, 1
	note A_, 1
	octave 4
	note C_, 2
	octave 3
	note A_, 2
	note G_, 2
	note A_, 2
	octave 2
	note A_, 2
	octave 3
	note F_, 2
	note E_, 1
	note F_, 1
	note E_, 2
	note G_, 2
	note F_, 2
	note E_, 1
	note F_, 1
	note E_, 1
	note C_, 1
	note D_, 2
	note A_, 2
	note G_, 1
	note A_, 1
	note G_, 1
	note A_, 1
	octave 4
	note C#, 2
	octave 3
	note A_, 2
	note G_, 2
	note A_, 2
	octave 2
	note A_, 2
	octave 3
	note F_, 2
	note E_, 1
	note F_, 1
	note E_, 2
	note G_, 2
	note F_, 2
	note E_, 1
	note F_, 1
	note E_, 1
	note C_, 1
	note D_, 2
	note A_, 2
	note G_, 1
	note A_, 1
	note G_, 1
	note A_, 1
	octave 4
	note C_, 2
	octave 3
	note A_, 2
	note F_, 2
	note F#, 2
	note G_, 2
	octave 2
	note A#, 1
	octave 3
	note D_, 1
	octave 2
	note A#, 2
	octave 3
	note G_, 2
	note A_, 2
	octave 2
	note A_, 1
	octave 3
	note A_, 1
	octave 2
	note A_, 2
	octave 3
	note A_, 2
	note A#, 2
	note D_, 2
	note B_, 2
	note D_, 2
	octave 4
	note C_, 7
	rest 1
	octave 2
	note A_, 2
	octave 3
	note F_, 2
	note E_, 1
	note F_, 1
	note E_, 2
	note G_, 2
	note F_, 2
	note E_, 1
	note F_, 1
	note E_, 1
	note C_, 1
	note D_, 2
	note A_, 2
	note G_, 1
	note A_, 1
	note G_, 1
	note A_, 1
	octave 4
	note C_, 2
	octave 3
	note A_, 2
	note G_, 2
	note A_, 2
	octave 2
	note A_, 2
	octave 3
	note F_, 2
	note E_, 1
	note F_, 1
	note E_, 2
	note G_, 2
	note F_, 2
	note E_, 1
	note F_, 1
	note E_, 1
	note C_, 1
	note D_, 2
	note A_, 2
	note G_, 1
	note A_, 1
	note G_, 1
	note A_, 1
	octave 4
	note C#, 2
	octave 3
	note A_, 2
	note G_, 2
	note A_, 2
	octave 2
	note A_, 2
	octave 3
	note F_, 2
	note E_, 1
	note F_, 1
	note E_, 2
	note G_, 2
	note F_, 2
	note E_, 1
	note F_, 1
	note E_, 1
	note C_, 1
	note D_, 2
	note A_, 2
	note G_, 1
	note A_, 1
	note G_, 1
	note A_, 1
	octave 4
	note C_, 2
	octave 3
	note A_, 2
	note F_, 2
	note F#, 2
	note G_, 2
	octave 2
	note A#, 1
	octave 3
	note D_, 1
	octave 2
	note A#, 2
	octave 3
	note G_, 2
	note A_, 2
	octave 2
	note A_, 1
	octave 3
	note A_, 2
	octave 2
	note A_, 1
	octave 3
	note A#, 4
	octave 4
	note F_, 2
	note E_, 2
	note D_, 2
	note E_, 7
	rest 1
	octave 2
	note A#, 2
	octave 3
	note F#, 2
	note F_, 1
	note F#, 1
	note F_, 1
	note F#, 1
	note G#, 2
	note F#, 2
	note F_, 1
	note F#, 1
	note F_, 1
	note C#, 1
	note D#, 2
	note A#, 2
	note G#, 1
	note A#, 1
	note G#, 1
	note A#, 1
	octave 4
	note C#, 2
	octave 3
	note A#, 2
	note G#, 2
	note A#, 2
	octave 2
	note A#, 2
	octave 3
	note F#, 2
	note F_, 1
	note F#, 1
	note F_, 1
	note F#, 1
	note G#, 2
	note F#, 2
	note F_, 1
	note F#, 1
	note F_, 1
	note C#, 1
	note D#, 2
	note A#, 2
	note G#, 1
	note A#, 1
	note G#, 1
	note A#, 1
	octave 4
	note D_, 2
	octave 3
	note A#, 2
	note G#, 2
	note A#, 2
	octave 2
	note A#, 2
	octave 3
	note F#, 2
	note F_, 1
	note F#, 1
	note F_, 1
	note F#, 1
	note G#, 2
	note F#, 2
	note F_, 1
	note F#, 1
	note F_, 1
	note C#, 1
	note D#, 2
	note A#, 2
	note G#, 1
	note A#, 1
	note G#, 1
	note A#, 1
	octave 4
	note C#, 2
	octave 3
	note A#, 2
	note G#, 2
	note G_, 2
	note G#, 2
	octave 2
	note B_, 1
	octave 3
	note G#, 1
	octave 2
	note A#, 2
	octave 3
	note G#, 2
	note A#, 2
	note C#, 1
	note A#, 1
	note C#, 2
	note A#, 2
	note B_, 2
	note D#, 2
	octave 4
	note C_, 2
	octave 3
	note D#, 2
	octave 4
	note C#, 7
	rest 1
	octave 2
	note A#, 2
	octave 3
	note F#, 2
	note F_, 1
	note F#, 1
	note F_, 1
	note F#, 1
	note G#, 2
	note F#, 2
	note F_, 1
	note F#, 1
	note F_, 1
	note C#, 1
	note D#, 2
	note A#, 2
	note G#, 1
	note A#, 1
	note G#, 1
	note A#, 1
	octave 4
	note C#, 2
	octave 3
	note A#, 2
	note G#, 2
	note A#, 2
	octave 2
	note A#, 2
	octave 3
	note F#, 2
	note F_, 1
	note F#, 1
	note F_, 1
	note F#, 1
	note G#, 2
	note F#, 2
	note F_, 1
	note F#, 1
	note F_, 1
	note C#, 1
	note D#, 2
	note A#, 2
	note G#, 1
	note A#, 1
	note G#, 1
	note A#, 1
	octave 4
	note D_, 2
	octave 3
	note A#, 2
	octave 4
	note C#, 2
	note F_, 2
	note D#, 5
	rest 1
	note D#, 2
	note D#, 2
	note C#, 4
	note D#, 4
	note D#, 2
	note C#, 2
	rest 2
	octave 3
	note A#, 1
	octave 4
	note C#, 1
	octave 3
	note A#, 2
	note G#, 2
	note A#, 2
	note G#, 4
	note G#, 2
	note A#, 2
	rest 2
	octave 4
	note F#, 1
	note F#, 1
	note F_, 2
	note C#, 2
	note D#, 13
	rest 3
	octave 2
	note A#, 4
	octave 3
	note F#, 4
	note F_, 2
	note F#, 4
	note G#, 6
	note F#, 4
	note F_, 4
	note C#, 2
	note D_, 2
	note D#, 4
	note A#, 4
	note G#, 2
	note A#, 4
	octave 4
	note C#, 6
	octave 3
	note B_, 4
	note A#, 4
	note G#, 4
	note F#, 7
	rest 1
	note F_, 2
	note F#, 4
	note G#, 6
	note F#, 4
	note F_, 4
	note C#, 2
	note D_, 2
	note D#, 2
	note C#, 2
	note F_, 2
	note F#, 4
	note C#, 2
	note G#, 2
	note A#, 4
	octave 4
	note C#, 2
	note D#, 2
	note F#, 2
	note F_, 2
	note D#, 2
	note C#, 4
	note D#, 4
	note F#, 4
	note F_, 2
	note D#, 4
	note D#, 12
	rest 4
	note D#, 6
	note A#, 4
	note G#, 2
	note F#, 2
	note F_, 2
	note F#, 12
	rest 4
	note F#, 6
	note F_, 4
	note D#, 2
	note F_, 4
	note F#, 6
	note F_, 4
	note D#, 2
	note F_, 4
	note G_, 9
	rest 3
	octave 1
	note A#, 1
	octave 2
	note D#, 1
	note A#, 1
	octave 3
	note D#, 1
	note A#, 1
	octave 4
	note D#, 1
	note G_, 1
	note A#, 1
	octave 5
	note D#, 1
	note G_, 15
	octave 6
	sound_loop 0, .mainloop

Music_Touhou_Ch3:
	note_type 12, 1, 0
.mainloop
	octave 2
	note D_, 16
	note D_, 16
	note D_, 16
	note D_, 9
	rest 3
	octave 1
	note D_, 2
	octave 2
	note D_, 13
	rest 1
	octave 1
	note D_, 2
	octave 2
	note D_, 13
	rest 1
	octave 1
	note D_, 2
	octave 2
	note D_, 7
	rest 1
	note D_, 7
	rest 1
	note A_, 4
	octave 3
	note D_, 4
	note D_, 4
	note D_, 2
	note D_, 2
	octave 2
	note D_, 2
	octave 3
	note F_, 2
	octave 2
	note D_, 2
	octave 3
	note F_, 2
	octave 2
	note D_, 2
	octave 3
	note F_, 2
	octave 2
	note D_, 2
	octave 3
	note F_, 2
	octave 2
	note D_, 2
	octave 3
	note F_, 2
	octave 2
	note D_, 2
	octave 3
	note F_, 2
	octave 2
	note D_, 2
	octave 3
	note F_, 2
	octave 2
	note D_, 2
	octave 3
	note F_, 2
	octave 2
	note D_, 2
	octave 3
	note F_, 2
	octave 2
	note D_, 2
	octave 3
	note F_, 2
	octave 2
	note D_, 2
	octave 3
	note F_, 2
	octave 2
	note D_, 2
	octave 3
	note F_, 2
	octave 2
	note D_, 2
	octave 3
	note F_, 2
	octave 2
	note D_, 2
	octave 3
	note F_, 2
	octave 2
	note D_, 2
	octave 3
	note F_, 2
	octave 2
	note D_, 2
	octave 3
	note F_, 2
	octave 2
	note D_, 2
	octave 3
	note F_, 2
	octave 2
	note D_, 2
	octave 3
	note F_, 2
	octave 2
	note D_, 2
	octave 3
	note F_, 2
	octave 2
	note D_, 2
	octave 3
	note F_, 2
	octave 2
	note D_, 2
	octave 3
	note F_, 2
	octave 2
	note D_, 2
	octave 3
	note F_, 2
	octave 2
	note D_, 2
	octave 3
	note F_, 2
	octave 2
	note D_, 2
	octave 3
	note F_, 2
	octave 2
	note D_, 2
	octave 3
	note F_, 2
	octave 2
	note D_, 2
	octave 3
	note F_, 2
	octave 2
	note D_, 2
	octave 3
	note F_, 2
	octave 2
	note D_, 2
	octave 3
	note F_, 2
	octave 2
	note D_, 2
	octave 3
	note F_, 2
	octave 2
	note D_, 2
	octave 3
	note F_, 2
	octave 2
	note D_, 2
	octave 3
	note F_, 2
	octave 2
	note D_, 2
	octave 3
	note F_, 2
	octave 1
	note A#, 2
	octave 3
	note D_, 2
	octave 1
	note A#, 2
	octave 3
	note D_, 2
	octave 2
	note C_, 2
	octave 3
	note E_, 2
	octave 2
	note C_, 2
	octave 3
	note E_, 2
	octave 2
	note D_, 2
	octave 3
	note F_, 2
	octave 2
	note D_, 2
	octave 3
	note F_, 2
	octave 2
	note D_, 2
	octave 3
	note F_, 2
	octave 2
	note D_, 2
	octave 3
	note F_, 2
	octave 1
	note A#, 2
	octave 3
	note D_, 2
	octave 1
	note A#, 2
	octave 3
	note D_, 2
	octave 2
	note C_, 2
	octave 3
	note E_, 2
	octave 2
	note C_, 2
	octave 3
	note E_, 2
	octave 2
	note D_, 2
	octave 3
	note D_, 2
	octave 2
	note E_, 2
	octave 3
	note E_, 2
	octave 2
	note F_, 2
	octave 3
	note F_, 2
	octave 2
	note G_, 2
	octave 3
	note G_, 2
	octave 1
	note A#, 2
	octave 3
	note D_, 2
	octave 1
	note A#, 2
	octave 3
	note D_, 2
	octave 2
	note C_, 2
	octave 3
	note E_, 2
	octave 2
	note C_, 2
	octave 3
	note E_, 2
	octave 2
	note D_, 2
	octave 3
	note F_, 2
	octave 2
	note D_, 2
	octave 3
	note F_, 2
	octave 2
	note D_, 2
	octave 3
	note F_, 2
	octave 2
	note D_, 2
	octave 3
	note F_, 2
	octave 1
	note G_, 2
	octave 2
	note A#, 2
	octave 1
	note G_, 2
	octave 2
	note A#, 2
	octave 1
	note A_, 2
	octave 3
	note C_, 2
	octave 1
	note A_, 2
	octave 3
	note C_, 2
	octave 1
	note A#, 2
	octave 3
	note D_, 2
	octave 1
	note B_, 2
	octave 3
	note D_, 2
	octave 2
	note C_, 2
	octave 3
	note E_, 2
	octave 2
	note C_, 2
	octave 3
	note E_, 2
	octave 1
	note A#, 2
	octave 3
	note D_, 2
	octave 1
	note A#, 2
	octave 3
	note D_, 2
	octave 2
	note C_, 2
	octave 3
	note E_, 2
	octave 2
	note C_, 2
	octave 3
	note E_, 2
	octave 2
	note D_, 2
	octave 3
	note F_, 2
	octave 2
	note D_, 2
	octave 3
	note F_, 2
	octave 2
	note D_, 2
	octave 3
	note F_, 2
	octave 2
	note D_, 2
	octave 3
	note F_, 2
	octave 1
	note A#, 2
	octave 3
	note D_, 2
	octave 1
	note A#, 2
	octave 3
	note D_, 2
	octave 2
	note C_, 2
	octave 3
	note E_, 2
	octave 2
	note C_, 2
	octave 3
	note E_, 2
	octave 2
	note D_, 2
	octave 3
	note D_, 2
	octave 2
	note E_, 2
	octave 3
	note E_, 2
	octave 2
	note F_, 2
	octave 3
	note F_, 2
	octave 2
	note G_, 2
	octave 3
	note G_, 2
	octave 1
	note A#, 2
	octave 3
	note D_, 2
	octave 1
	note A#, 2
	octave 3
	note D_, 2
	octave 2
	note C_, 2
	octave 3
	note E_, 2
	octave 2
	note C_, 2
	octave 3
	note E_, 2
	octave 2
	note D_, 2
	octave 3
	note F_, 2
	octave 2
	note D_, 2
	octave 3
	note F_, 2
	octave 2
	note D_, 2
	octave 3
	note F_, 2
	octave 2
	note D_, 2
	octave 3
	note F_, 2
	octave 1
	note G_, 2
	octave 2
	note A#, 2
	octave 1
	note G_, 2
	octave 2
	note A#, 2
	octave 1
	note A_, 2
	octave 3
	note C_, 2
	octave 1
	note A_, 2
	octave 3
	note C_, 2
	octave 2
	note D_, 2
	octave 3
	note F_, 2
	octave 2
	note D_, 2
	octave 3
	note F_, 2
	octave 2
	note D_, 2
	octave 3
	note F_, 2
	octave 2
	note D_, 2
	octave 3
	note F_, 2
	octave 2
	note D_, 2
	octave 3
	note F_, 2
	octave 2
	note D_, 2
	octave 3
	note F_, 2
	octave 2
	note D_, 2
	octave 3
	note F_, 2
	octave 2
	note D_, 2
	octave 3
	note F_, 2
	octave 2
	note D_, 2
	octave 3
	note F_, 2
	octave 2
	note D_, 2
	octave 3
	note F_, 2
	octave 2
	note D_, 2
	octave 3
	note F_, 2
	octave 2
	note D_, 2
	octave 3
	note F_, 2
	octave 1
	note A#, 2
	octave 3
	note D_, 2
	octave 1
	note A#, 2
	octave 3
	note D_, 2
	octave 1
	note A#, 2
	octave 3
	note D_, 2
	octave 1
	note A#, 2
	octave 3
	note D_, 2
	octave 1
	note A#, 2
	octave 3
	note D_, 2
	octave 1
	note A#, 2
	octave 3
	note D_, 2
	octave 1
	note A#, 2
	octave 3
	note D_, 2
	octave 1
	note A#, 2
	octave 3
	note D_, 2
	octave 1
	note G_, 2
	octave 2
	note A#, 2
	octave 1
	note G_, 2
	octave 2
	note A#, 2
	octave 1
	note G_, 2
	octave 2
	note A#, 2
	octave 1
	note G_, 2
	octave 2
	note A#, 2
	octave 1
	note G_, 2
	octave 2
	note A#, 2
	octave 1
	note G_, 2
	octave 2
	note A#, 2
	octave 1
	note G_, 2
	octave 2
	note A#, 2
	octave 1
	note G_, 2
	octave 2
	note A#, 2
	octave 1
	note A_, 2
	octave 3
	note C#, 2
	octave 1
	note A_, 2
	octave 3
	note D_, 2
	octave 1
	note A_, 2
	octave 3
	note D_, 2
	octave 1
	note A_, 2
	octave 3
	note D_, 2
	octave 1
	note A_, 2
	octave 3
	note C#, 2
	octave 1
	note A_, 2
	octave 3
	note D_, 2
	octave 1
	note A_, 2
	octave 3
	note D_, 2
	octave 1
	note A_, 2
	octave 3
	note D_, 2
	octave 2
	note D_, 2
	octave 3
	note F_, 2
	octave 2
	note D_, 2
	octave 3
	note F_, 2
	octave 2
	note D_, 2
	octave 3
	note F_, 2
	octave 2
	note D_, 2
	octave 3
	note F_, 2
	octave 2
	note D_, 2
	octave 3
	note F_, 2
	octave 2
	note D_, 2
	octave 3
	note F_, 2
	octave 2
	note D_, 2
	octave 3
	note F_, 2
	octave 2
	note D_, 2
	octave 3
	note F_, 2
	octave 1
	note A#, 2
	octave 3
	note D_, 2
	octave 1
	note A#, 2
	octave 3
	note D_, 2
	octave 1
	note A#, 2
	octave 3
	note D_, 2
	octave 1
	note A#, 2
	octave 3
	note D_, 2
	octave 1
	note A#, 2
	octave 3
	note D_, 2
	octave 1
	note A#, 2
	octave 3
	note D_, 2
	octave 1
	note A#, 2
	octave 3
	note D_, 2
	octave 1
	note A#, 2
	octave 3
	note D_, 2
	octave 1
	note G_, 2
	octave 2
	note A#, 2
	octave 1
	note G_, 2
	octave 2
	note A#, 2
	octave 1
	note G_, 2
	octave 2
	note A#, 2
	octave 1
	note G_, 2
	octave 2
	note A#, 2
	octave 1
	note G#, 2
	octave 2
	note B_, 2
	octave 1
	note A_, 2
	octave 2
	note B_, 2
	octave 1
	note A_, 2
	octave 2
	note B_, 2
	octave 1
	note A_, 2
	octave 2
	note B_, 2
	octave 1
	note A_, 2
	octave 3
	note C#, 2
	octave 1
	note A_, 2
	octave 3
	note D_, 2
	octave 1
	note A_, 2
	octave 3
	note D_, 2
	octave 1
	note A_, 2
	octave 3
	note D_, 2
	octave 1
	note A_, 2
	octave 3
	note C#, 2
	octave 1
	note A_, 2
	octave 3
	note D_, 2
	octave 1
	note A_, 2
	octave 3
	note D_, 2
	octave 1
	note A_, 2
	octave 3
	note D_, 2
	octave 1
	note A#, 2
	octave 2
	note F_, 2
	note A#, 2
	octave 3
	note D_, 2
	note F_, 2
	note A#, 2
	octave 4
	note D_, 4
	octave 2
	note C_, 2
	note G_, 2
	octave 3
	note C_, 2
	note E_, 2
	note G_, 2
	octave 4
	note C_, 2
	note E_, 4
	octave 2
	note D_, 2
	note A_, 2
	octave 3
	note D_, 2
	note F_, 2
	note A_, 2
	octave 4
	note D_, 2
	note F_, 4
	octave 2
	note D_, 2
	note A_, 2
	octave 3
	note D_, 2
	note F_, 2
	note A_, 2
	octave 4
	note D_, 2
	note F_, 4
	octave 1
	note A#, 2
	octave 2
	note F_, 2
	note A#, 2
	octave 3
	note D_, 2
	note F_, 2
	note A#, 2
	octave 4
	note D_, 4
	octave 2
	note C_, 2
	note G_, 2
	octave 3
	note C_, 2
	note E_, 2
	note G_, 2
	octave 4
	note C_, 2
	note E_, 4
	octave 2
	note D_, 2
	note A_, 2
	octave 3
	note D_, 2
	note F_, 2
	note A_, 2
	octave 4
	note D_, 2
	note F_, 4
	octave 2
	note D_, 2
	octave 3
	note F_, 2
	octave 2
	note D_, 2
	octave 3
	note F_, 2
	octave 2
	note D_, 2
	octave 3
	note F_, 2
	octave 2
	note D_, 2
	octave 3
	note F_, 2
	octave 1
	note A#, 2
	octave 3
	note D_, 2
	octave 1
	note A#, 2
	octave 3
	note D_, 2
	octave 1
	note A#, 2
	octave 3
	note D_, 2
	octave 1
	note A#, 2
	octave 3
	note D_, 2
	octave 2
	note C_, 2
	octave 3
	note E_, 2
	octave 2
	note C_, 2
	octave 3
	note E_, 2
	octave 2
	note C_, 2
	octave 3
	note E_, 2
	octave 2
	note C_, 2
	octave 3
	note E_, 2
	octave 2
	note D_, 2
	octave 3
	note F_, 2
	octave 2
	note D_, 2
	octave 3
	note F_, 2
	octave 2
	note D_, 2
	octave 3
	note F_, 2
	octave 2
	note D_, 2
	octave 3
	note F_, 2
	octave 2
	note D_, 2
	octave 3
	note F_, 2
	octave 2
	note D_, 2
	octave 3
	note F_, 2
	octave 2
	note D_, 2
	octave 3
	note F_, 2
	octave 2
	note C_, 2
	octave 3
	note E_, 2
	octave 1
	note A#, 2
	octave 3
	note D_, 2
	octave 1
	note A#, 2
	octave 3
	note D_, 2
	octave 1
	note A#, 2
	octave 3
	note D_, 2
	octave 1
	note A#, 2
	octave 3
	note D_, 2
	octave 1
	note A#, 2
	octave 3
	note D_, 2
	octave 1
	note A#, 2
	octave 3
	note D_, 2
	octave 1
	note A#, 2
	octave 3
	note D_, 2
	octave 1
	note A#, 2
	octave 3
	note D_, 2
	octave 2
	note A_, 7
	rest 1
	note A_, 5
	rest 1
	note A_, 2
	octave 1
	note A_, 4
	octave 2
	note A_, 2
	octave 1
	note A_, 2
	octave 2
	note A_, 5
	rest 1
	octave 1
	note A_, 2
	note A#, 2
	octave 3
	note D_, 2
	octave 1
	note A#, 2
	octave 3
	note D_, 2
	octave 2
	note C_, 2
	octave 3
	note E_, 2
	octave 2
	note C_, 2
	octave 3
	note E_, 2
	octave 2
	note D_, 2
	octave 3
	note F_, 2
	octave 2
	note D_, 2
	octave 3
	note F_, 2
	octave 2
	note D_, 2
	octave 3
	note F_, 2
	octave 2
	note D_, 2
	octave 3
	note F_, 2
	octave 1
	note A#, 2
	octave 3
	note D_, 2
	octave 1
	note A#, 2
	octave 3
	note D_, 2
	octave 2
	note C_, 2
	octave 3
	note E_, 2
	octave 2
	note C_, 2
	octave 3
	note E_, 2
	octave 2
	note D_, 2
	octave 3
	note D_, 2
	octave 2
	note E_, 2
	octave 3
	note E_, 2
	octave 2
	note F_, 2
	octave 3
	note F_, 2
	octave 2
	note G_, 2
	octave 3
	note G_, 2
	octave 1
	note A#, 2
	octave 3
	note D_, 2
	octave 1
	note A#, 2
	octave 3
	note D_, 2
	octave 2
	note C_, 2
	octave 3
	note E_, 2
	octave 2
	note C_, 2
	octave 3
	note E_, 2
	octave 2
	note D_, 2
	octave 3
	note F_, 2
	octave 2
	note D_, 2
	octave 3
	note F_, 2
	octave 2
	note D_, 2
	octave 3
	note F_, 2
	octave 2
	note D_, 2
	octave 3
	note F_, 2
	octave 1
	note G_, 2
	octave 2
	note A#, 2
	octave 1
	note G_, 2
	octave 2
	note A#, 2
	octave 1
	note A_, 2
	octave 3
	note C_, 2
	octave 1
	note A_, 2
	octave 3
	note C_, 2
	octave 1
	note A#, 2
	octave 3
	note D_, 2
	octave 1
	note B_, 2
	octave 3
	note D_, 2
	octave 2
	note C_, 2
	octave 3
	note E_, 2
	octave 2
	note C_, 2
	octave 3
	note E_, 2
	octave 1
	note A#, 2
	octave 3
	note D_, 2
	octave 1
	note A#, 2
	octave 3
	note D_, 2
	octave 2
	note C_, 2
	octave 3
	note E_, 2
	octave 2
	note C_, 2
	octave 3
	note E_, 2
	octave 2
	note D_, 2
	octave 3
	note F_, 2
	octave 2
	note D_, 2
	octave 3
	note F_, 2
	octave 2
	note D_, 2
	octave 3
	note F_, 2
	octave 2
	note D_, 2
	octave 3
	note F_, 2
	octave 1
	note A#, 2
	octave 3
	note D_, 2
	octave 1
	note A#, 2
	octave 3
	note D_, 2
	octave 2
	note C_, 2
	octave 3
	note E_, 2
	octave 2
	note C_, 2
	octave 3
	note E_, 2
	octave 2
	note D_, 2
	octave 3
	note D_, 2
	octave 2
	note E_, 2
	octave 3
	note E_, 2
	octave 2
	note F_, 2
	octave 3
	note F_, 2
	octave 2
	note G_, 2
	octave 3
	note G_, 2
	octave 1
	note A#, 2
	octave 3
	note D_, 2
	octave 1
	note A#, 2
	octave 3
	note D_, 2
	octave 2
	note C_, 2
	octave 3
	note E_, 2
	octave 2
	note C_, 2
	octave 3
	note E_, 2
	octave 2
	note D_, 2
	octave 3
	note F_, 2
	octave 2
	note D_, 2
	octave 3
	note F_, 2
	octave 2
	note D_, 2
	octave 3
	note F_, 2
	octave 2
	note D_, 2
	octave 3
	note F_, 2
	octave 1
	note G_, 2
	octave 2
	note A#, 2
	octave 1
	note G_, 2
	octave 2
	note A#, 2
	octave 1
	note A_, 2
	octave 3
	note C_, 2
	octave 1
	note A_, 2
	octave 3
	note C_, 2
	octave 2
	note D_, 2
	octave 3
	note F_, 2
	octave 2
	note D_, 2
	octave 3
	note F_, 2
	octave 2
	note D_, 2
	octave 3
	note F_, 2
	octave 2
	note D_, 2
	octave 3
	note F_, 2
	octave 2
	note D_, 2
	octave 3
	note D_, 2
	octave 2
	note D_, 2
	octave 3
	note D_, 2
	octave 2
	note D_, 2
	octave 3
	note D_, 2
	octave 2
	note D_, 2
	note A_, 2
	note D_, 2
	octave 3
	note D_, 2
	octave 2
	note D_, 2
	octave 3
	note D_, 2
	octave 2
	note D_, 2
	octave 3
	note D_, 2
	octave 2
	note D_, 2
	octave 3
	note D_, 2
	octave 2
	note D_, 2
	octave 3
	note D_, 2
	octave 2
	note D_, 2
	octave 3
	note D_, 2
	octave 2
	note D_, 2
	octave 3
	note D_, 2
	octave 2
	note D_, 2
	note A_, 2
	note D_, 2
	octave 3
	note D_, 2
	octave 2
	note D_, 2
	octave 3
	note D_, 2
	octave 2
	note D_, 2
	octave 3
	note D_, 2
	octave 2
	note D_, 2
	octave 3
	note D_, 2
	octave 2
	note D_, 2
	octave 3
	note D_, 2
	octave 2
	note D_, 2
	octave 3
	note D_, 2
	octave 2
	note D_, 2
	octave 3
	note D_, 2
	octave 2
	note D_, 2
	note A_, 2
	note D_, 2
	octave 3
	note D_, 2
	octave 2
	note D_, 2
	octave 3
	note D_, 2
	octave 2
	note D_, 2
	octave 3
	note D_, 2
	octave 2
	note D_, 2
	octave 3
	note D_, 2
	octave 2
	note D_, 2
	octave 3
	note D_, 2
	octave 2
	note D_, 2
	octave 3
	note D_, 2
	octave 2
	note D_, 2
	octave 3
	note D_, 2
	octave 2
	note D_, 2
	note A_, 2
	note D_, 2
	octave 3
	note F_, 2
	octave 2
	note D_, 2
	octave 3
	note F_, 2
	octave 2
	note D_, 2
	octave 3
	note F_, 2
	octave 2
	note D_, 2
	octave 3
	note F_, 2
	octave 2
	note D_, 2
	octave 3
	note F_, 2
	octave 2
	note D_, 2
	octave 3
	note F_, 2
	octave 2
	note D_, 2
	octave 3
	note F_, 2
	octave 2
	note D_, 2
	octave 3
	note F_, 2
	octave 2
	note D_, 2
	octave 3
	note F_, 2
	octave 2
	note D_, 2
	octave 3
	note F_, 2
	octave 2
	note D_, 2
	octave 3
	note F_, 2
	octave 2
	note D_, 2
	octave 3
	note F_, 2
	octave 2
	note D_, 2
	octave 3
	note F_, 2
	octave 2
	note D_, 2
	octave 3
	note F_, 2
	octave 2
	note D_, 2
	octave 3
	note F_, 2
	octave 2
	note D_, 2
	octave 3
	note F_, 2
	octave 2
	note D_, 2
	octave 3
	note F_, 2
	octave 2
	note D_, 2
	octave 3
	note F_, 2
	octave 2
	note D_, 2
	octave 3
	note F_, 2
	octave 2
	note D_, 2
	octave 3
	note F_, 2
	octave 2
	note D_, 2
	octave 3
	note F_, 2
	octave 2
	note D_, 2
	octave 3
	note F_, 2
	octave 2
	note D_, 2
	octave 3
	note F_, 2
	octave 2
	note D_, 2
	octave 3
	note F_, 2
	octave 2
	note D_, 2
	octave 3
	note F_, 2
	octave 2
	note D_, 2
	octave 3
	note F_, 2
	octave 2
	note D_, 2
	octave 3
	note F_, 2
	octave 2
	note D_, 2
	octave 3
	note F_, 2
	octave 2
	note D_, 2
	octave 3
	note F_, 2
	octave 2
	note D_, 2
	octave 3
	note F_, 2
	octave 2
	note D_, 2
	octave 3
	note F_, 2
	octave 2
	note D_, 2
	octave 3
	note F_, 2
	octave 2
	note D_, 2
	octave 3
	note F_, 2
	octave 2
	note D_, 2
	octave 3
	note F_, 2
	octave 2
	note D_, 2
	octave 3
	note F_, 2
	octave 2
	note D_, 2
	octave 3
	note F_, 2
	octave 1
	note A#, 2
	octave 3
	note D_, 2
	octave 1
	note A#, 2
	octave 3
	note D_, 2
	octave 2
	note C_, 2
	octave 3
	note E_, 2
	octave 2
	note C_, 2
	octave 3
	note E_, 2
	octave 2
	note D_, 2
	octave 3
	note F_, 2
	octave 2
	note D_, 2
	octave 3
	note F_, 2
	octave 2
	note D_, 2
	octave 3
	note F_, 2
	octave 2
	note D_, 2
	octave 3
	note F_, 2
	octave 1
	note A#, 2
	octave 3
	note D_, 2
	octave 1
	note A#, 2
	octave 3
	note D_, 2
	octave 2
	note C_, 2
	octave 3
	note E_, 2
	octave 2
	note C_, 2
	octave 3
	note E_, 2
	octave 2
	note D_, 2
	octave 3
	note D_, 2
	octave 2
	note E_, 2
	octave 3
	note E_, 2
	octave 2
	note F_, 2
	octave 3
	note F_, 2
	octave 2
	note G_, 2
	octave 3
	note G_, 2
	octave 1
	note A#, 2
	octave 3
	note D_, 2
	octave 1
	note A#, 2
	octave 3
	note D_, 2
	octave 2
	note C_, 2
	octave 3
	note E_, 2
	octave 2
	note C_, 2
	octave 3
	note E_, 2
	octave 2
	note D_, 2
	octave 3
	note F_, 2
	octave 2
	note D_, 2
	octave 3
	note F_, 2
	octave 2
	note D_, 2
	octave 3
	note F_, 2
	octave 2
	note D_, 2
	octave 3
	note F_, 2
	octave 1
	note G_, 2
	octave 2
	note A#, 2
	octave 1
	note G_, 2
	octave 2
	note A#, 2
	octave 1
	note A_, 2
	octave 3
	note C_, 2
	octave 1
	note A_, 2
	octave 3
	note C_, 2
	octave 1
	note A#, 2
	octave 3
	note D_, 2
	octave 1
	note B_, 2
	octave 3
	note D_, 2
	octave 2
	note C_, 2
	octave 3
	note E_, 2
	octave 2
	note C_, 2
	octave 3
	note E_, 2
	octave 1
	note A#, 2
	octave 3
	note D_, 2
	octave 1
	note A#, 2
	octave 3
	note D_, 2
	octave 2
	note C_, 2
	octave 3
	note E_, 2
	octave 2
	note C_, 2
	octave 3
	note E_, 2
	octave 2
	note D_, 2
	octave 3
	note F_, 2
	octave 2
	note D_, 2
	octave 3
	note F_, 2
	octave 2
	note D_, 2
	octave 3
	note F_, 2
	octave 2
	note D_, 2
	octave 3
	note F_, 2
	octave 1
	note A#, 2
	octave 3
	note D_, 2
	octave 1
	note A#, 2
	octave 3
	note D_, 2
	octave 2
	note C_, 2
	octave 3
	note E_, 2
	octave 2
	note C_, 2
	octave 3
	note E_, 2
	octave 2
	note D_, 2
	octave 3
	note D_, 2
	octave 2
	note E_, 2
	octave 3
	note E_, 2
	octave 2
	note F_, 2
	octave 3
	note F_, 2
	octave 2
	note G_, 2
	octave 3
	note G_, 2
	octave 1
	note A#, 2
	octave 3
	note D_, 2
	octave 1
	note A#, 2
	octave 3
	note D_, 2
	octave 2
	note C_, 2
	octave 3
	note E_, 2
	octave 2
	note C_, 2
	octave 3
	note E_, 2
	octave 2
	note D_, 2
	octave 3
	note F_, 2
	octave 2
	note D_, 2
	octave 3
	note F_, 2
	octave 2
	note D_, 2
	octave 3
	note F_, 2
	octave 2
	note D_, 2
	octave 3
	note F_, 2
	octave 1
	note G_, 2
	octave 2
	note A#, 2
	octave 1
	note G_, 2
	octave 2
	note A#, 2
	octave 1
	note A_, 2
	octave 3
	note C_, 2
	octave 1
	note A_, 2
	octave 2
	note A#, 6
	note B_, 4
	octave 3
	note C_, 7
	rest 1
	octave 1
	note B_, 2
	octave 3
	note D#, 2
	octave 1
	note A#, 2
	octave 3
	note D#, 2
	octave 2
	note C#, 2
	octave 3
	note F_, 2
	octave 2
	note C#, 2
	octave 3
	note F_, 2
	octave 2
	note D#, 2
	octave 3
	note F#, 2
	octave 2
	note D#, 2
	octave 3
	note F#, 2
	octave 2
	note D#, 2
	octave 3
	note F#, 2
	octave 2
	note D#, 2
	octave 3
	note F#, 2
	octave 1
	note B_, 2
	octave 3
	note D#, 2
	octave 1
	note A#, 2
	octave 3
	note D#, 2
	octave 2
	note C#, 2
	octave 3
	note F_, 2
	octave 2
	note C#, 2
	octave 3
	note F_, 2
	octave 2
	note D#, 2
	octave 3
	note D#, 2
	octave 2
	note F_, 2
	octave 3
	note F_, 2
	octave 2
	note F#, 2
	octave 3
	note F#, 2
	octave 2
	note G#, 2
	octave 3
	note G#, 2
	octave 1
	note B_, 2
	octave 3
	note D#, 2
	octave 1
	note A#, 2
	octave 3
	note D#, 2
	octave 2
	note C#, 2
	octave 3
	note F_, 2
	octave 2
	note C#, 2
	octave 3
	note F_, 2
	octave 2
	note D#, 2
	octave 3
	note F#, 2
	octave 2
	note D#, 2
	octave 3
	note F#, 2
	octave 2
	note D#, 2
	octave 3
	note F#, 2
	octave 2
	note D#, 2
	octave 3
	note F#, 2
	octave 1
	note G#, 2
	octave 2
	note A#, 2
	octave 1
	note G#, 2
	octave 2
	note A#, 2
	octave 1
	note A#, 2
	octave 3
	note C#, 2
	octave 1
	note B_, 2
	octave 3
	note C#, 2
	octave 1
	note B_, 2
	octave 2
	note B_, 2
	note C_, 2
	octave 3
	note C_, 2
	octave 2
	note C#, 2
	octave 3
	note E_, 2
	octave 2
	note C#, 2
	octave 3
	note E_, 2
	octave 1
	note B_, 2
	octave 3
	note D#, 2
	octave 1
	note A#, 2
	octave 3
	note D#, 2
	octave 2
	note C#, 2
	octave 3
	note F_, 2
	octave 2
	note C#, 2
	octave 3
	note F_, 2
	octave 2
	note D#, 2
	octave 3
	note F#, 2
	octave 2
	note D#, 2
	octave 3
	note F#, 2
	octave 2
	note D#, 2
	octave 3
	note F#, 2
	octave 2
	note D#, 2
	octave 3
	note F#, 2
	octave 1
	note B_, 2
	octave 3
	note D#, 2
	octave 1
	note A#, 2
	octave 3
	note D#, 2
	octave 2
	note C#, 2
	octave 3
	note F_, 2
	octave 2
	note C#, 2
	octave 3
	note F_, 2
	octave 2
	note D#, 2
	octave 3
	note D#, 2
	octave 2
	note F_, 2
	octave 3
	note F_, 2
	octave 2
	note F#, 2
	octave 3
	note F#, 2
	octave 2
	note G#, 2
	octave 3
	note G#, 2
	octave 1
	note B_, 2
	octave 3
	note D#, 2
	octave 1
	note A#, 2
	octave 3
	note D#, 2
	octave 2
	note C#, 2
	octave 3
	note F_, 2
	octave 2
	note C#, 2
	octave 3
	note F_, 2
	octave 2
	note D#, 2
	octave 3
	note F#, 2
	octave 2
	note D#, 2
	octave 3
	note F#, 2
	octave 2
	note D#, 2
	octave 3
	note F#, 2
	octave 2
	note D#, 2
	octave 3
	note F#, 2
	octave 1
	note A#, 2
	octave 2
	note B_, 2
	octave 1
	note B_, 2
	octave 2
	note A#, 2
	note C#, 2
	octave 3
	note C#, 2
	octave 2
	note C#, 2
	octave 3
	note C#, 2
	octave 2
	note D#, 2
	octave 3
	note F#, 2
	octave 2
	note D#, 2
	octave 3
	note F#, 2
	octave 2
	note D#, 2
	octave 3
	note F#, 2
	octave 2
	note D#, 2
	octave 3
	note F#, 2
	octave 1
	note B_, 2
	octave 3
	note D#, 2
	octave 1
	note A#, 2
	octave 3
	note D#, 2
	octave 1
	note A#, 2
	octave 3
	note D#, 2
	octave 1
	note A#, 2
	octave 3
	note D#, 2
	octave 2
	note C#, 2
	octave 3
	note F_, 2
	octave 2
	note C#, 2
	octave 3
	note F_, 2
	octave 2
	note C#, 2
	octave 3
	note F_, 2
	octave 2
	note C#, 2
	octave 3
	note F_, 2
	octave 2
	note D#, 2
	octave 3
	note F#, 2
	octave 2
	note D#, 2
	octave 3
	note F#, 2
	octave 2
	note D#, 2
	octave 3
	note F#, 2
	octave 2
	note D#, 2
	octave 3
	note F#, 2
	octave 2
	note D#, 2
	octave 3
	note F#, 2
	octave 2
	note D#, 2
	octave 3
	note F#, 2
	octave 2
	note C#, 2
	octave 3
	note F_, 2
	octave 2
	note C#, 2
	octave 3
	note F_, 2
	octave 1
	note B_, 2
	octave 3
	note D#, 2
	octave 1
	note A#, 2
	octave 3
	note D#, 2
	octave 1
	note A#, 2
	octave 3
	note D#, 2
	octave 1
	note A#, 2
	octave 3
	note D#, 2
	octave 2
	note C#, 2
	octave 3
	note F_, 2
	octave 2
	note C#, 2
	octave 3
	note F_, 2
	octave 2
	note C#, 2
	octave 3
	note F_, 2
	octave 2
	note C#, 2
	octave 3
	note F_, 2
	octave 2
	note D#, 2
	octave 3
	note F#, 2
	octave 2
	note D#, 2
	octave 3
	note F#, 2
	octave 2
	note D#, 2
	octave 3
	note F#, 2
	octave 2
	note D#, 2
	octave 3
	note F#, 2
	octave 2
	note D#, 2
	octave 3
	note F#, 2
	octave 2
	note D#, 2
	octave 3
	note F#, 2
	octave 2
	note C#, 2
	octave 3
	note F_, 2
	octave 2
	note C#, 2
	octave 3
	note F_, 2
	octave 1
	note B_, 2
	octave 3
	note D#, 2
	octave 1
	note A#, 2
	octave 3
	note D#, 2
	octave 1
	note A#, 2
	octave 3
	note D#, 2
	octave 1
	note A#, 2
	octave 3
	note D#, 2
	octave 2
	note C#, 2
	octave 3
	note F_, 2
	octave 2
	note C#, 2
	octave 3
	note F_, 2
	octave 2
	note C#, 2
	octave 3
	note F_, 2
	octave 2
	note C#, 2
	octave 3
	note F_, 2
	octave 2
	note D#, 2
	octave 3
	note F#, 2
	octave 2
	note D#, 2
	octave 3
	note F#, 2
	octave 2
	note D#, 2
	octave 3
	note F#, 2
	octave 2
	note D#, 2
	octave 3
	note F#, 2
	octave 2
	note D#, 2
	octave 3
	note F#, 2
	octave 2
	note D#, 2
	octave 3
	note F#, 2
	octave 2
	note C#, 2
	octave 3
	note F_, 2
	octave 2
	note C#, 2
	octave 3
	note F_, 2
	octave 1
	note B_, 2
	octave 3
	note D#, 2
	octave 1
	note A#, 2
	octave 3
	note D#, 2
	octave 1
	note A#, 2
	octave 3
	note D#, 2
	octave 1
	note A#, 2
	octave 3
	note D#, 2
	octave 2
	note C#, 2
	octave 3
	note F_, 2
	octave 2
	note C#, 2
	octave 3
	note F_, 2
	octave 2
	note C#, 2
	octave 3
	note F_, 2
	octave 2
	note C#, 2
	rest 2
	octave 1
	note D#, 4
	octave 2
	note D#, 3
	note A#, 1
	octave 3
	note D#, 1
	note G_, 16
	note G_, 9
	sound_loop 0, .mainloop
