Music_Varik:
	channel_count 4
	channel 1, Music_Varik_Ch1
	channel 2, Music_Varik_Ch2
	channel 3, Music_Varik_Ch3
	channel 4, Music_Varik_Ch4

Music_Varik_Ch1:
	volume 7, 7
	note_type 12, 9, 7
.mainloop:
	tempo 202
	octave 1
	duty_cycle 0
	volume_envelope 10, 7
	note A_, 2
	octave 2
	note E_, 2
	note B_, 6
	rest 6
	octave 1
	note A_, 2
	octave 2
	note E_, 2
	note B_, 6
	rest 6
	octave 1
	note A_, 2
	octave 2
	note E_, 2
	note B_, 6
	rest 6
	octave 1
	note A_, 2
	octave 2
	note E_, 2
	note B_, 6
	rest 6
	octave 1
	note A_, 2
	octave 2
	note E_, 2
	note B_, 6
	rest 6
	octave 1
	note A_, 2
	octave 2
	note E_, 2
	note B_, 6
	rest 6
	octave 1
	note A_, 2
	octave 2
	note E_, 2
	note B_, 6
	rest 6
	octave 1
	note A_, 2
	octave 2
	note E_, 2
	note B_, 6
	rest 6
	octave 1
	note A_, 2
	octave 2
	note E_, 2
	note B_, 6
	rest 6
	octave 1
	note A_, 2
	octave 2
	note E_, 2
	note B_, 6
	rest 6
	octave 1
	note G_, 2
	octave 2
	note D_, 2
	note A_, 6
	rest 6
	octave 1
	note G_, 2
	octave 2
	note D_, 2
	note A_, 6
	rest 6
	octave 1
	note F_, 2
	octave 2
	note C_, 2
	note G_, 6
	rest 6
	octave 1
	note G_, 2
	octave 2
	note D_, 2
	note A_, 6
	rest 6
	octave 1
	note A_, 2
	octave 2
	note E_, 2
	note B_, 6
	rest 6
	octave 1
	note A_, 2
	octave 2
	note E_, 2
	note B_, 6
	rest 6
	octave 1
	note A_, 2
	octave 2
	note E_, 2
	note B_, 6
	rest 6
	octave 1
	note A_, 2
	octave 2
	note E_, 2
	note B_, 6
	rest 6
	octave 1
	note A_, 2
	octave 2
	note E_, 2
	note B_, 6
	rest 6
	octave 1
	note A_, 2
	octave 2
	note E_, 2
	note B_, 6
	rest 6
	octave 1
	note A_, 2
	octave 2
	note E_, 2
	note B_, 6
	rest 6
	octave 1
	note A_, 2
	octave 2
	note E_, 2
	note B_, 6
	rest 6
	octave 1
	note G_, 2
	octave 2
	note D_, 2
	note A_, 6
	rest 6
	octave 1
	note G_, 2
	octave 2
	note D_, 2
	note A_, 6
	rest 6
	octave 1
	note F_, 2
	octave 2
	note C_, 2
	note G_, 6
	rest 6
	octave 1
	note G_, 2
	octave 2
	note D_, 2
	note A_, 6
	rest 6
	octave 1
	note A_, 2
	octave 2
	note E_, 2
	note B_, 6
	rest 16
	rest 6
	octave 1
	note F_, 2
	note A_, 2
	octave 2
	note C_, 2
	note E_, 2
	rest 8
	octave 1
	note E_, 2
	note G_, 2
	octave 2
	note D_, 2
	note E_, 2
	rest 8
	octave 1
	note F_, 2
	note A_, 2
	octave 2
	note C_, 2
	note E_, 2
	rest 8
	octave 1
	note E_, 2
	note G_, 2
	octave 2
	note D_, 2
	note E_, 2
	rest 8
	octave 1
	note D_, 2
	note F_, 2
	note A_, 2
	octave 2
	note C_, 2
	rest 8
	note B_, 2
	rest 2
	note A_, 2
	rest 2
	note E_, 2
	rest 2
	note C_, 2
	rest 2
	note D_, 2
	rest 6
	octave 1
	note D_, 2
	rest 6
	note E_, 2
	rest 14
	note A_, 2
	octave 2
	note E_, 2
	note B_, 6
	rest 6
	octave 1
	note A_, 2
	octave 2
	note E_, 2
	note B_, 12
	octave 3
	sound_loop 0, .mainloop

Music_Varik_Ch2:
	note_type 12, 9, 7
.mainloop:
	rest 16
	rest 16
	rest 16
	rest 10
	octave 3
	duty_cycle 2
	volume_envelope 10, 7
	note A_, 2
	octave 4
	note E_, 2
	note B_, 2
	note G_, 16
	note G_, 8
	rest 2
	note F_, 2
	note G_, 2
	note F_, 2
	note E_, 1
	note F_, 1
	note E_, 1
	note D_, 1
	note E_, 16
	note E_, 4
	rest 2
	octave 3
	note A_, 2
	octave 4
	note E_, 2
	note B_, 2
	note G_, 16
	note G_, 8
	rest 2
	note E_, 2
	note F_, 2
	octave 5
	note C_, 2
	octave 4
	note B_, 1
	octave 5
	note C_, 1
	octave 4
	note B_, 16
	note B_, 8
	rest 2
	note A_, 2
	note B_, 2
	octave 5
	note C_, 13
	rest 1
	octave 4
	note B_, 1
	octave 5
	note C_, 1
	octave 4
	note B_, 8
	note G_, 8
	note B_, 16
	note B_, 9
	rest 1
	octave 3
	note A_, 2
	octave 4
	note E_, 2
	note B_, 2
	note G_, 16
	note G_, 8
	rest 2
	note F_, 2
	note G_, 2
	note F_, 2
	note E_, 1
	note F_, 1
	note E_, 1
	note D_, 1
	note E_, 16
	note E_, 4
	rest 2
	octave 3
	note A_, 2
	octave 4
	note E_, 2
	note B_, 2
	note G_, 16
	note G_, 8
	rest 2
	note E_, 2
	note F_, 2
	octave 5
	note C_, 2
	octave 4
	note B_, 1
	octave 5
	note C_, 1
	octave 4
	note B_, 16
	note B_, 8
	rest 2
	note A_, 2
	note B_, 2
	octave 5
	note C_, 13
	rest 1
	octave 4
	note B_, 1
	octave 5
	note C_, 1
	octave 4
	note B_, 8
	note G_, 8
	note B_, 16
	note B_, 16
	rest 16
	rest 16
	rest 16
	rest 16
	rest 16
	rest 16
	rest 16
	rest 16
	rest 16
	rest 16
	octave 3
	sound_loop 0, .mainloop

Music_Varik_Ch3:
	note_type 12, 2, 0
.mainloop:
	rest 16
	rest 16
	rest 16
	rest 16
	rest 16
	rest 16
	rest 16
	rest 16
	rest 16
	rest 16
	rest 16
	rest 16
	rest 16
	rest 16
	rest 16
	rest 16
	rest 16
	rest 16
	rest 16
	rest 16
	rest 16
	rest 16
	rest 16
	rest 16
	rest 16
	rest 16
	rest 16
	rest 16
	rest 4
	octave 5
	volume_envelope 1, 0
	note C_, 2
	octave 4
	note B_, 2
	note A_, 2
	note E_, 2
	note D_, 2
	note G_, 2
	note E_, 16
	rest 4
	octave 5
	note C_, 2
	octave 4
	note B_, 2
	note A_, 2
	octave 5
	note E_, 2
	note D_, 2
	note G_, 2
	note E_, 16
	rest 4
	note F_, 2
	note E_, 2
	note D_, 2
	note C_, 2
	octave 4
	note B_, 2
	note A_, 2
	note G#, 4
	note F_, 4
	note E_, 4
	octave 5
	note E_, 4
	note D_, 16
	note E_, 16
	octave 4
	rest 16
	rest 16
	sound_loop 0, .mainloop

Music_Varik_Ch4:
	toggle_noise 1
	drum_speed 12
.mainloop:
	rest 16
	rest 16
	rest 16
	rest 16
	rest 16
	rest 16
	rest 16
	rest 16
	rest 16
	rest 16
	rest 16
	rest 16
	rest 16
	rest 16
	rest 16
	rest 16
	rest 16
	rest 16
	rest 16
	rest 16
	rest 16
	rest 16
	rest 16
	rest 16
	rest 16
	rest 16
	rest 16
	rest 16
	toggle_noise
	toggle_noise 5
	drum_note 6, 1
	drum_note 10, 1
	drum_note 1, 1
	drum_note 5, 1
	drum_note 6, 1
	drum_note 10, 1
	drum_note 1, 1
	drum_note 5, 1
	drum_note 6, 1
	drum_note 10, 1
	drum_note 1, 1
	drum_note 5, 1
	drum_note 6, 1
	drum_note 10, 1
	drum_note 1, 1
	drum_note 5, 1
	drum_note 8, 2
	drum_note 1, 2
	drum_note 3, 2
	drum_note 12, 2
	drum_note 8, 2
	drum_note 3, 2
	drum_note 5, 2
	drum_note 12, 2
	drum_note 6, 1
	drum_note 10, 1
	drum_note 1, 1
	drum_note 5, 1
	drum_note 6, 1
	drum_note 10, 1
	drum_note 1, 1
	drum_note 5, 1
	drum_note 6, 1
	drum_note 10, 1
	drum_note 1, 1
	drum_note 5, 1
	drum_note 6, 1
	drum_note 10, 1
	drum_note 1, 1
	drum_note 5, 1
	drum_note 8, 2
	drum_note 1, 2
	drum_note 3, 2
	drum_note 5, 2
	drum_note 7, 2
	drum_note 8, 2
	drum_note 12, 2
	drum_note 3, 2
	drum_note 3, 1
	drum_note 6, 1
	drum_note 10, 1
	drum_note 1, 1
	drum_note 3, 1
	drum_note 6, 1
	drum_note 10, 1
	drum_note 1, 1
	drum_note 3, 1
	drum_note 6, 1
	drum_note 10, 1
	drum_note 1, 1
	drum_note 7, 12
	drum_note 10, 4
	drum_note 1, 4
	drum_note 12, 1
	drum_note 9, 2
	drum_note 9, 1
	drum_note 6, 1
	drum_note 9, 2
	drum_note 3, 1
	drum_note 6, 1
	drum_note 3, 2
	drum_note 3, 1
	drum_note 6, 1
	drum_note 10, 2
	drum_note 3, 1
	drum_note 5, 1
	drum_note 6, 1
	drum_note 9, 1
	drum_note 10, 1
	drum_note 12, 1
	drum_note 1, 1
	drum_note 3, 1
	drum_note 5, 1
	drum_note 3, 1
	drum_note 5, 1
	drum_note 6, 1
	drum_note 9, 1
	drum_note 12, 1
	drum_note 3, 1
	drum_note 6, 10
	drum_note 5, 4
	drum_note 5, 12
	drum_note 5, 4
	drum_note 5, 4
	sound_loop 0, .mainloop
