Music_XIsle:
	channel_count 4
	channel 1, Music_XIsle_Ch1
	channel 2, Music_XIsle_Ch2
	channel 3, Music_XIsle_Ch3
	channel 4, Music_XIsle_Ch4

Music_XIsle_Ch1:
	volume 7, 7
	note_type 12, 10, 7
	tempo 170
.mainloop:
	volume_envelope 11, 7
	duty_cycle 3
	octave 4
	rest 16
	note D_, 12
	note D_, 4
	note A_, 8
	note G_, 4
	note A_, 4
	note F_, 4
	note D_, 12
	note G_, 4
	note G_, 4
	note F_, 4
	note E_, 4
	note F_, 4
	note D_, 4
	note D_, 12
	rest 16
	note D_, 4
	note A_, 8
	note G_, 4
	note A_, 4
	note F_, 4
	note D_, 12
	note G_, 4
	note G_, 4
	note F_, 4
	note E_, 4
	note F_, 4
	note D_, 4
	note D_, 12
	rest 16
	note D_, 4
	note A_, 8
	note G_, 4
	note A_, 4
	note F_, 4
	note D_, 12
	note G_, 4
	note G_, 4
	note F_, 4
	note E_, 4
	note F_, 4
	note D_, 4
	note D_, 16
	note D_, 8
	sound_loop 0, .mainloop

Music_XIsle_Ch2:
	duty_cycle 1
	note_type 12, 5, 7
.mainloop:
	octave 4
	rest 16
	rest 16
	note D_, 8
	octave 3
	note G_, 8
	volume_envelope 6, 7
	note A_, 16
	volume_envelope 5, 7
	note A#, 8
	note A_, 4
	volume_envelope 4, 7
	note A_, 4
	volume_envelope 6, 7
	note A#, 8
	volume_envelope 5, 7
	note A_, 16
	note A_, 16
	octave 4
	note D_, 8
	volume_envelope 4, 7
	octave 3
	note A#, 8
	octave 4
	note D_, 16
	volume_envelope 5, 7
	octave 3
	note G_, 8
	note F_, 4
	volume_envelope 4, 7
	note A_, 4
	volume_envelope 7, 7
	note A#, 8
	volume_envelope 5, 7
	note A_, 16
	note A_, 16
	volume_envelope 7, 7
	octave 4
	note D_, 8
	volume_envelope 4, 7
	octave 3
	note G_, 8
	octave 4
	note D_, 16
	volume_envelope 6, 7
	octave 3
	note A#, 8
	volume_envelope 5, 7
	note A_, 4
	note A_, 4
	note A#, 8
	octave 4
	note D_, 8
	rest 16
	sound_loop 0, .mainloop

Music_XIsle_Ch3:
	note_type 12, 1, 0
.mainloop:
	octave 2
	note D_, 6
	note D_, 2
	note D_, 8
	note D_, 6
	note D_, 2
	note D_, 4
	octave 1
	note A_, 4
	octave 2
	note D_, 6
	note D_, 2
	octave 1
	note G_, 6
	note G_, 2
	octave 2
	note D_, 6
	note D_, 2
	note D_, 6
	note D_, 2
	octave 1
	note G_, 4
	note G_, 4
	note F_, 4
	note A_, 4
	note G_, 4
	note G_, 4
	octave 2
	note D_, 6
	note D_, 1
	rest 1
	note D_, 6
	note D_, 2
	note D_, 6
	octave 1
	note A_, 2
	octave 2
	note D_, 4
	octave 1
	note A_, 4
	octave 2
	note D_, 6
	note D_, 2
	octave 1
	note G_, 6
	note G_, 2
	octave 2
	note D_, 4
	note D_, 8
	note D_, 4
	octave 1
	note G_, 4
	note G_, 4
	note F_, 4
	note A_, 4
	note G_, 4
	note G_, 4
	octave 2
	note D_, 6
	note D_, 2
	note D_, 6
	note D_, 2
	note D_, 6
	note D_, 2
	note D_, 4
	octave 1
	note A_, 4
	octave 2
	note D_, 6
	note D_, 2
	octave 1
	note G_, 6
	note G_, 2
	octave 2
	note D_, 6
	note D_, 2
	note D_, 6
	note D_, 2
	octave 1
	note G_, 4
	note G_, 4
	note F_, 4
	note A_, 4
	note G_, 4
	note G_, 4
	octave 2
	note D_, 6
	note D_, 2
	note D_, 6
	note D_, 2
	note D_, 6
	note D_, 2
	sound_loop 0, .mainloop

Music_XIsle_Ch4:
	toggle_noise 1
	drum_speed 12
.mainloop:
	rest 4
	toggle_noise
	toggle_noise 6
	drum_note 7, 4
	rest 4
	drum_note 7, 4
	rest 4
	drum_note 7, 4
	rest 4
	drum_note 7, 4
	rest 4
	drum_note 7, 4
	rest 4
	drum_note 7, 4
	rest 4
	drum_note 7, 4
	rest 4
	drum_note 7, 4
	rest 4
	drum_note 7, 4
	rest 4
	drum_note 7, 4
	rest 4
	drum_note 7, 4
	rest 4
	drum_note 7, 4
	rest 4
	drum_note 7, 4
	rest 4
	drum_note 7, 4
	rest 4
	drum_note 7, 4
	rest 4
	drum_note 7, 4
	rest 4
	drum_note 7, 4
	rest 4
	drum_note 7, 4
	rest 4
	drum_note 7, 4
	rest 4
	drum_note 7, 4
	rest 4
	drum_note 7, 4
	rest 4
	drum_note 7, 4
	rest 4
	drum_note 7, 4
	rest 4
	drum_note 7, 4
	rest 4
	drum_note 7, 4
	rest 4
	drum_note 7, 4
	rest 4
	drum_note 7, 4
	rest 4
	drum_note 7, 4
	rest 4
	drum_note 7, 4
	rest 4
	drum_note 7, 4
	rest 4
	drum_note 7, 4
	rest 4
	drum_note 7, 4
	rest 4
	drum_note 7, 4
	rest 4
	drum_note 7, 4
	rest 4
	drum_note 7, 4
	rest 4
	drum_note 7, 4
	sound_loop 0, .mainloop
